<svg width="32" height="32" viewBox="0 0 32 32" fill="none" xmlns="http://www.w3.org/2000/svg">
<path d="M16.8507 2.38944C16.8307 2.85944 16.4007 3.23944 15.9307 3.20944C15.4307 3.18944 15.0607 2.75944 15.1107 2.28944C15.1307 1.81944 15.5607 1.43944 16.0307 1.46944C16.5007 1.48944 16.8707 1.90944 16.8507 2.38944ZM28.4207 9.90944C28.0007 10.1294 27.4507 9.95944 27.2207 9.53944C27.0007 9.11944 27.1707 8.58944 27.5907 8.36944C27.5907 8.36944 27.5907 8.36944 27.6107 8.36944C28.0307 8.14944 28.5807 8.31944 28.8107 8.73944C29.0207 9.18944 28.8507 9.70944 28.4207 9.90944ZM27.5707 23.5394C27.1707 23.2894 27.0507 22.7394 27.3007 22.3394C27.3007 22.3394 27.3007 22.3394 27.3007 22.3194C27.5707 21.9194 28.1207 21.7994 28.5207 22.0694C28.9207 22.3394 29.0407 22.8694 28.7707 23.2694C28.5207 23.6894 27.9707 23.8094 27.5707 23.5394ZM15.0507 29.6094C15.0707 29.1394 15.5007 28.7594 15.9707 28.7894C16.4707 28.8094 16.8407 29.2394 16.7907 29.7094C16.7707 30.1794 16.3407 30.5594 15.8707 30.5294C15.4007 30.5094 15.0307 30.1094 15.0507 29.6094ZM3.58071 22.0894C4.00071 21.8694 4.55071 22.0394 4.78071 22.4594C5.01071 22.8794 4.83071 23.4094 4.38071 23.6294C3.96071 23.8494 3.41071 23.6794 3.18071 23.2594C2.98071 22.8394 3.15071 22.3094 3.58071 22.0894ZM4.43071 8.45944C4.83071 8.70944 4.95071 9.25944 4.70071 9.65944C4.70071 9.65944 4.70071 9.65944 4.70071 9.67944C4.43071 10.0794 3.88071 10.1994 3.48071 9.92944C3.08071 9.67944 2.96071 9.12944 3.21071 8.72944C3.21071 8.72944 3.21071 8.72944 3.21071 8.70944C3.48071 8.30944 4.03071 8.20944 4.43071 8.45944ZM17.2507 7.50944C17.2007 8.17944 16.6007 8.70944 15.9307 8.67944C15.2307 8.62944 14.7107 8.05944 14.7307 7.35944C14.7807 6.68944 15.3807 6.15944 16.0507 6.18944C16.7507 6.23944 17.2707 6.83944 17.2507 7.50944ZM24.1007 12.8094C23.4807 13.1094 22.7307 12.8794 22.4007 12.2594C22.1007 11.6594 22.3307 10.9094 22.9507 10.6094H22.9707C23.5907 10.3094 24.3407 10.5394 24.6707 11.1594C24.9707 11.7594 24.7207 12.5094 24.1007 12.8094ZM22.8507 21.3094C22.2807 20.9394 22.1007 20.1894 22.4807 19.6094C22.4807 19.6094 22.4807 19.5894 22.5007 19.5894C22.8707 19.0194 23.6707 18.8694 24.2507 19.2394C24.8307 19.6094 25.0007 20.3594 24.6207 20.9394C24.6207 20.9394 24.6207 20.9594 24.6007 20.9594C24.2207 21.5094 23.4207 21.6894 22.8507 21.3094ZM14.6807 24.4894C14.7307 23.8194 15.3307 23.2894 16.0007 23.3194C16.7007 23.3694 17.2207 23.9394 17.2007 24.6394C17.1507 25.3094 16.5507 25.8394 15.8807 25.8094C15.1507 25.7594 14.6307 25.1594 14.6807 24.4894ZM7.90071 19.1894C8.52071 18.8894 9.27071 19.1194 9.60071 19.7394C9.90071 20.3394 9.67071 21.0894 9.05071 21.4094H9.03071C8.41071 21.7094 7.66071 21.4594 7.33071 20.8594C7.03071 20.2394 7.28071 19.5094 7.90071 19.1894ZM9.15071 10.6894C9.72071 11.0594 9.90071 11.8094 9.52071 12.3894C9.52071 12.3894 9.52071 12.4094 9.50071 12.4094C9.13071 12.9794 8.33071 13.1294 7.75071 12.7594C7.18071 12.3894 7.00071 11.6394 7.38071 11.0594C7.38071 11.0594 7.38071 11.0394 7.40071 11.0394C7.78071 10.4894 8.58071 10.3094 9.15071 10.6894ZM24.2007 3.33944C23.9807 3.65944 23.5507 3.73944 23.2307 3.53944C22.9107 3.33944 22.8307 2.91944 23.0307 2.61944C23.2507 2.29944 23.6807 2.21944 24.0007 2.41944C24.3207 2.58944 24.4207 2.98944 24.2007 3.33944C24.2007 3.30944 24.2007 3.30944 24.2007 3.33944ZM31.2707 16.6594C30.9007 16.6394 30.6007 16.3094 30.6207 15.9394C30.6407 15.5694 30.9707 15.2694 31.3407 15.2894C31.7107 15.3094 32.0107 15.6394 31.9907 16.0094C31.9707 16.3894 31.6507 16.6894 31.2707 16.6594ZM23.0507 29.3394C22.8807 29.0194 23.0007 28.5894 23.3507 28.4194C23.7007 28.2494 24.1007 28.3994 24.2707 28.7194C24.4407 29.0394 24.3207 29.4694 23.9707 29.6394C23.6507 29.8094 23.2207 29.6594 23.0507 29.3394ZM7.80071 28.6894C8.02071 28.3694 8.45071 28.2894 8.77071 28.4894C9.09071 28.6894 9.17071 29.1094 8.97071 29.4394C8.75071 29.7594 8.32071 29.8394 8.00071 29.6394C7.68071 29.4094 7.58071 29.0094 7.80071 28.6894ZM0.730711 15.3594C1.10071 15.3794 1.40071 15.7094 1.38071 16.0794C1.36071 16.4494 1.03071 16.7494 0.660711 16.7294C0.290711 16.7094 -0.0092891 16.3794 0.0107109 16.0094C0.0307109 15.6094 0.350711 15.3394 0.730711 15.3594ZM8.95071 2.68944C9.12071 3.03944 8.97071 3.43944 8.65071 3.60944C8.30071 3.77944 7.90071 3.62944 7.73071 3.30944C7.56071 2.98944 7.68071 2.55944 8.03071 2.38944C8.35071 2.20944 8.78071 2.33944 8.95071 2.68944ZM22.5207 6.95944C22.2007 7.45944 21.5207 7.57944 21.0207 7.25944C20.5207 6.95944 20.4007 6.30944 20.7007 5.80944V5.78944C21.0207 5.28944 21.7007 5.16944 22.2007 5.48944C22.7007 5.80944 22.8507 6.43944 22.5207 6.95944C22.5207 6.93944 22.5207 6.93944 22.5207 6.95944ZM27.2207 17.0394C26.6207 17.0194 26.1707 16.5194 26.2007 15.9194C26.2207 15.3494 26.7507 14.8994 27.3207 14.9194C27.9207 14.9394 28.3707 15.4394 28.3407 16.0394C28.3207 16.6094 27.8207 17.0594 27.2207 17.0394ZM20.7007 26.0894C20.4307 25.5694 20.6507 24.9394 21.1507 24.6694C21.1507 24.6694 21.1507 24.6694 21.1707 24.6694C21.6907 24.3994 22.3407 24.6194 22.6207 25.1394C22.8907 25.6594 22.6707 26.2894 22.1707 26.5594C22.1707 26.5594 22.1707 26.5594 22.1507 26.5594C21.6207 26.8094 20.9707 26.6094 20.7007 26.0894ZM9.48071 25.0394C9.80071 24.5394 10.4807 24.4194 10.9807 24.7394C11.4807 25.0394 11.6007 25.6894 11.3007 26.1894C11.3007 26.1894 11.3007 26.1894 11.3007 26.2094C10.9807 26.7094 10.3007 26.8294 9.80071 26.5094C9.30071 26.2094 9.15071 25.5594 9.48071 25.0394C9.48071 25.0594 9.48071 25.0594 9.48071 25.0394ZM4.78071 14.9594C5.38071 14.9794 5.83071 15.4794 5.80071 16.0794C5.78071 16.6494 5.25071 17.0994 4.68071 17.0794C4.08071 17.0594 3.63071 16.5594 3.66071 15.9594C3.68071 15.3894 4.18071 14.9394 4.78071 14.9594ZM11.3007 5.90944C11.5707 6.42944 11.3507 7.05944 10.8507 7.30944H10.8307C10.3107 7.57944 9.66071 7.35944 9.38071 6.83944C9.11071 6.31944 9.33071 5.68944 9.83071 5.41944C9.83071 5.41944 9.83071 5.41944 9.85071 5.41944C10.3807 5.18944 11.0307 5.40944 11.3007 5.90944ZM18.5207 13.7894C18.1007 13.7894 17.7007 13.6694 17.3507 13.4394C16.3507 12.7894 16.0807 11.4894 16.7307 10.5194C17.1307 9.91944 17.8007 9.56944 18.5307 9.56944C18.9507 9.56944 19.3507 9.68944 19.7007 9.91944C20.7007 10.5694 20.9707 11.8694 20.3207 12.8394C19.9207 13.4394 19.2507 13.7894 18.5207 13.7894ZM21.0707 18.1094C21.0207 18.1094 21.0007 18.1094 20.9507 18.1094C19.7807 18.0394 18.8507 17.0394 18.9307 15.8894C19.0007 14.7394 20.0007 13.8194 21.2007 13.8894C21.7707 13.9094 22.3007 14.1594 22.6707 14.5894C23.0407 15.0094 23.2407 15.5594 23.2207 16.1094C23.1707 17.2394 22.2207 18.1094 21.0707 18.1094ZM18.5507 22.4394C17.7507 22.4394 17.0007 21.9894 16.6307 21.2694C16.3807 20.7694 16.3307 20.1994 16.5107 19.6494C16.6807 19.1294 17.0807 18.6794 17.5807 18.4294C17.8807 18.2794 18.2007 18.2094 18.5507 18.2094C19.3707 18.2094 20.1007 18.6594 20.4707 19.3794C20.9907 20.4294 20.5707 21.6994 19.5207 22.2294C19.2207 22.3594 18.8707 22.4394 18.5507 22.4394ZM13.4807 22.4594C13.0607 22.4594 12.6607 22.3394 12.3107 22.1094C11.8407 21.8094 11.5107 21.3394 11.3907 20.7594C11.2707 20.2094 11.3907 19.6394 11.6907 19.1594C12.0907 18.5594 12.7607 18.2094 13.4907 18.2094C13.9107 18.2094 14.3107 18.3294 14.6607 18.5594C15.1307 18.8594 15.4607 19.3294 15.5807 19.9094C15.7007 20.4594 15.5807 21.0294 15.2807 21.5094C14.8807 22.0894 14.2007 22.4594 13.4807 22.4594ZM10.9307 18.1394C10.8807 18.1394 10.8607 18.1394 10.8107 18.1394C9.64071 18.0694 8.71071 17.0694 8.79071 15.9194C8.86071 14.7694 9.86071 13.8494 11.0607 13.9194C12.2307 13.9894 13.1607 14.9894 13.0807 16.1394C13.0007 17.2594 12.0807 18.1394 10.9307 18.1394ZM13.4507 13.8094C12.6307 13.8094 11.9007 13.3594 11.5307 12.6394C11.0107 11.5894 11.4307 10.3194 12.4807 9.78944C12.7807 9.63944 13.1007 9.56944 13.4507 9.56944C14.2707 9.56944 15.0007 10.0194 15.3707 10.7394C15.8907 11.7894 15.4707 13.0594 14.4207 13.5894C14.1307 13.7094 13.8007 13.8094 13.4507 13.8094Z" fill="#3265CA"/>
</svg>
