<svg xmlns="http://www.w3.org/2000/svg" width="140" height="50" viewBox="0 0 140 50" fill="none"><g clip-path="url(#clip0)"><path d="M85.1715 24.5402C86.9956 22.0446 87.8376 19.1331 87.8376 16.0828C87.8376 11.7848 86.2941 8.04137 83.0668 5.1298C79.9799 2.21825 76.051 0.831787 71.4205 0.831787H49.5312V9.01188H71.5608C73.6656 9.01188 75.2091 9.7051 76.6123 10.9529C78.0153 12.3394 78.717 14.0031 78.717 15.9442C78.717 18.0239 78.0153 19.5489 76.6123 20.9354C75.2091 22.3219 73.5254 22.8764 71.5608 22.8764H49.5312V48.1099H58.3712V31.3337H69.7368L80.1202 48.2486H90.0827L78.8574 29.6701C81.5233 28.5609 83.628 26.8971 85.1715 24.5402Z" fill="#22262D"></path><path d="M30.0276 31.4724H10.5237L32.2727 0.831787H22.0296L0 31.8884V39.6526H30.0276V48.2486H38.8675V22.8764H30.0276V31.4724Z" fill="#77BE9C"></path><path d="M139.72 10.953C137.755 7.9028 135.089 5.40718 131.862 3.46613C127.933 1.10916 123.583 0 118.813 0C111.797 0 105.763 2.35697 101.133 7.07093C96.362 11.7849 93.9766 17.608 93.9766 24.5403C93.9766 31.4725 96.362 37.4343 101.133 42.0097C105.903 46.7235 111.797 49.0805 118.813 49.0805H119.514V40.6232H118.813C114.322 40.6232 110.534 39.098 107.587 36.0478C104.641 32.9977 103.097 29.1155 103.097 24.5403C103.097 19.965 104.641 16.0829 107.587 13.0327C110.534 9.98248 114.322 8.45738 118.813 8.45738C121.619 8.45738 124.285 9.15062 126.67 10.5371C129.055 11.9235 130.88 13.7259 132.283 16.2215L132.704 16.9148L140 11.5076L139.72 10.953Z" fill="#22262D"></path></g><defs><clipPath id="clip0"><rect width="140" height="50" fill="white"></rect></clipPath></defs></svg>