<svg xmlns="http://www.w3.org/2000/svg" xmlns:xlink="http://www.w3.org/1999/xlink" id="Layer_1" x="0px" y="0px" viewBox="0 0 400 61" style="enable-background:new 0 0 400 61;" xml:space="preserve">
<style type="text/css">
	.st0{fill:url(#SVGID_1_);}
	.st1{fill:url(#SVGID_2_);}
	.st2{fill:url(#SVGID_3_);}
	.st3{fill:url(#SVGID_4_);}
	.st4{fill:url(#SVGID_5_);}
	.st5{fill:url(#SVGID_6_);}
	.st6{fill:url(#SVGID_7_);}
	.st7{fill:url(#SVGID_8_);}
	.st8{fill:url(#SVGID_9_);}
	.st9{fill:url(#SVGID_10_);}
	.st10{fill:url(#SVGID_11_);}
	.st11{fill:url(#SVGID_12_);}
	.st12{fill:url(#SVGID_13_);}
	.st13{fill:url(#SVGID_14_);}
	.st14{fill:url(#SVGID_15_);}
</style>
<g>
	<g>
		<linearGradient id="SVGID_1_" gradientUnits="userSpaceOnUse" x1="53.5682" y1="-50.209" x2="49.3576" y2="74.9062">
			<stop offset="2.616513e-04" style="stop-color:#2CDFFF"></stop>
			<stop offset="0.9992" style="stop-color:#175DE4"></stop>
		</linearGradient>
		<path class="st0" d="M55.97,7.05c0.46,0,0.86,0.38,0.86,0.76v41.43c0,0.44-0.4,0.82-0.86,0.82H45.87c-0.46,0-0.86-0.38-0.86-0.82    V7.81c0-0.38,0.4-0.76,0.86-0.76H55.97z"></path>
	</g>
	<g>
		<linearGradient id="SVGID_2_" gradientUnits="userSpaceOnUse" x1="69.4649" y1="-49.6821" x2="65.2551" y2="75.4084">
			<stop offset="2.616513e-04" style="stop-color:#2CDFFF"></stop>
			<stop offset="0.9992" style="stop-color:#175DE4"></stop>
		</linearGradient>
		<path class="st1" d="M73.25,11.99c0,3.21-2.53,5.39-6.32,5.39c-3.79,0-6.32-2.18-6.32-5.39c0-3.38,2.53-5.61,6.32-5.61    C70.73,6.38,73.25,8.62,73.25,11.99z M72.05,20.11c0.46,0,0.86,0.38,0.86,0.76v28.37c0,0.44-0.4,0.82-0.86,0.82H61.94    c-0.46,0-0.86-0.38-0.86-0.82V20.87c0-0.38,0.4-0.76,0.86-0.76H72.05z"></path>
	</g>
	<g>
		<linearGradient id="SVGID_3_" gradientUnits="userSpaceOnUse" x1="94.9673" y1="-48.9309" x2="90.7542" y2="76.2594">
			<stop offset="2.616513e-04" style="stop-color:#2CDFFF"></stop>
			<stop offset="0.9992" style="stop-color:#175DE4"></stop>
		</linearGradient>
		<path class="st2" d="M85.94,22.4c1.84-1.91,5.74-3.05,9.24-3.05c7.81,0,12.06,3.43,12.06,11.92v17.97c0,0.44-0.4,0.82-0.86,0.82    H96.28c-0.46,0-0.86-0.38-0.8-0.82V32.96c0-2.18-1.03-3.43-2.81-3.43c-3.27,0-3.79,3.05-3.79,3.05v16.66    c0,0.44-0.4,0.82-0.86,0.82H77.9c-0.46,0-0.86-0.38-0.86-0.82V20.87c0-0.49,0.29-0.76,0.8-0.76h6.43c0.4,0,0.75,0.16,0.92,0.54    L85.94,22.4z"></path>
	</g>
	<g>
		<linearGradient id="SVGID_4_" gradientUnits="userSpaceOnUse" x1="129.4267" y1="-47.7554" x2="125.2177" y2="77.3138">
			<stop offset="2.616513e-04" style="stop-color:#2CDFFF"></stop>
			<stop offset="0.9992" style="stop-color:#175DE4"></stop>
		</linearGradient>
		<path class="st3" d="M130.95,46.14c-0.92,1.74-3.67,2.89-6.89,2.89c-8.38,0-13.95-5.72-13.95-14.32c0-9.64,5.17-15.35,13.95-15.35    c4.42,0,7.92,1.14,9.42,3.1l1.03-1.52c0.34-0.49,0.86-0.82,1.32-0.82h6.09c0.52,0,0.86,0.33,0.86,0.82v26.35    c0,8.22-7.87,13.72-17.63,13.72c-5.68,0-10.74-1.25-13.55-3.43c-0.34-0.27-0.46-0.65-0.34-0.93l2.93-6.75    c0.17-0.38,0.52-0.54,0.86-0.33c2.47,1.91,6.26,3.05,10.11,3.05c3.62,0,5.8-1.8,5.8-4.9V46.14z M130.95,31.98    c0,0-0.86-2.45-3.96-2.45c-2.87,0-4.54,1.91-4.54,5.17s1.67,5.23,4.54,5.23c3.1,0,3.96-2.45,3.96-2.45V31.98z"></path>
	</g>
	<g>
		<linearGradient id="SVGID_5_" gradientUnits="userSpaceOnUse" x1="28.6649" y1="-51.0287" x2="24.4525" y2="74.1379">
			<stop offset="2.616513e-04" style="stop-color:#2CDFFF"></stop>
			<stop offset="0.9992" style="stop-color:#175DE4"></stop>
		</linearGradient>
		<path class="st4" d="M35.76,30.78c3.1-0.87,5.11-3.76,5.11-7.68c0-6.37-5-10.62-12.52-10.62h-2.88L10.27,16.5v32.79    c0,0.38,0.34,0.76,0.8,0.76h18.2c7.46,0,12.46-4.25,12.46-10.62C41.73,34.92,39.38,31.65,35.76,30.78z M22.1,22.23h3.62    c1.72,0,2.87,0.98,2.87,2.5c0,1.52-1.15,2.5-2.87,2.5H22.1V22.23z M26.75,40.31H22.1v-5.23h4.65c1.67,0,2.81,1.03,2.81,2.61    C29.56,39.28,28.41,40.31,26.75,40.31z"></path>
	</g>
	<g>
		<linearGradient id="SVGID_6_" gradientUnits="userSpaceOnUse" x1="175.2139" y1="-46.3861" x2="171.0001" y2="78.8236">
			<stop offset="2.616513e-04" style="stop-color:#2CDFFF"></stop>
			<stop offset="0.9992" style="stop-color:#175DE4"></stop>
		</linearGradient>
		<path class="st5" d="M185.75,12.69c0.51,0,0.86,0.38,0.86,0.76v8.17c0,0.49-0.34,0.81-0.86,0.81h-14.49v4.92h11.46    c0.51,0,0.8,0.38,0.74,0.7l-0.8,7.57c-0.06,0.32-0.46,0.7-0.97,0.7h-10.44v12.93c0,0.38-0.4,0.76-0.86,0.76h-10.1    c-0.46,0-0.8-0.43-0.8-0.81V13.45c0-0.38,0.34-0.76,0.8-0.76H185.75z"></path>
	</g>
	<g>
		<linearGradient id="SVGID_7_" gradientUnits="userSpaceOnUse" x1="197.3254" y1="-45.6011" x2="193.1157" y2="79.4893">
			<stop offset="2.616513e-04" style="stop-color:#2CDFFF"></stop>
			<stop offset="0.9992" style="stop-color:#175DE4"></stop>
		</linearGradient>
		<path class="st6" d="M201.21,11.95c0,3.19-2.51,5.35-6.27,5.35c-3.76,0-6.27-2.16-6.27-5.35c0-3.35,2.51-5.57,6.27-5.57    C198.7,6.38,201.21,8.6,201.21,11.95z M200.01,20.26c0.46,0,0.86,0.38,0.86,0.76V49.2c0,0.43-0.4,0.81-0.86,0.81h-10.04    c-0.46,0-0.86-0.38-0.86-0.81V21.02c0-0.38,0.4-0.76,0.86-0.76H200.01z"></path>
	</g>
	<g>
		<linearGradient id="SVGID_8_" gradientUnits="userSpaceOnUse" x1="222.6633" y1="-44.852" x2="218.4502" y2="80.3383">
			<stop offset="2.616513e-04" style="stop-color:#2CDFFF"></stop>
			<stop offset="0.9992" style="stop-color:#175DE4"></stop>
		</linearGradient>
		<path class="st7" d="M213.81,22.53c1.83-1.89,5.7-3.03,9.18-3.03c7.76,0,11.98,3.41,11.98,11.84V49.2c0,0.43-0.4,0.81-0.86,0.81    h-10.04c-0.46,0-0.86-0.38-0.8-0.81V33.02c0-2.16-1.03-3.41-2.79-3.41c-3.25,0-3.76,3.03-3.76,3.03V49.2    c0,0.43-0.4,0.81-0.86,0.81h-10.04c-0.46,0-0.86-0.38-0.86-0.81V21.02c0-0.49,0.29-0.76,0.8-0.76h6.39c0.4,0,0.74,0.16,0.91,0.54    L213.81,22.53z"></path>
	</g>
	<g>
		<linearGradient id="SVGID_9_" gradientUnits="userSpaceOnUse" x1="255.81" y1="-43.7464" x2="251.5997" y2="81.3604">
			<stop offset="2.616513e-04" style="stop-color:#2CDFFF"></stop>
			<stop offset="0.9992" style="stop-color:#175DE4"></stop>
		</linearGradient>
		<path class="st8" d="M240.73,23.61c-0.17-0.38-0.06-0.76,0.29-1.03c3.25-1.95,7.81-3.08,12.38-3.08c9.87,0,14.43,4.92,14.43,15.68    V49.2c0,0.43-0.4,0.81-0.86,0.81h-7.19c-0.46,0-0.91-0.38-0.91-0.81l-0.4-1.46c-1.88,1.89-5.65,3.08-9.81,3.08    c-6.56,0-10.89-4-10.84-9.95c0.06-5.3,4.39-8.82,10.84-8.82c3.31,0,6.27,1.14,7.41,2.87v-2.27c0-2.33-1.77-3.84-4.39-3.84    c-2.22,0-4.96,0.7-6.84,1.73c-0.29,0.16-0.63-0.05-0.86-0.43L240.73,23.61z M256.07,40.27c-0.97-0.92-1.94-1.35-3.14-1.35    c-1.43,0-2.4,0.76-2.4,1.95c0,1.19,0.97,1.95,2.4,1.95c1.2,0,2.17-0.43,3.14-1.35V40.27z"></path>
	</g>
	<g>
		<linearGradient id="SVGID_10_" gradientUnits="userSpaceOnUse" x1="289.5473" y1="-42.7175" x2="285.3342" y2="82.4729">
			<stop offset="2.616513e-04" style="stop-color:#2CDFFF"></stop>
			<stop offset="0.9992" style="stop-color:#175DE4"></stop>
		</linearGradient>
		<path class="st9" d="M280.77,22.53c1.82-1.89,5.7-3.03,9.18-3.03c7.76,0,11.98,3.41,11.98,11.84V49.2c0,0.43-0.4,0.81-0.86,0.81    h-10.04c-0.46,0-0.86-0.38-0.8-0.81V33.02c0-2.16-1.03-3.41-2.79-3.41c-3.25,0-3.76,3.03-3.76,3.03V49.2    c0,0.43-0.4,0.81-0.86,0.81h-10.04c-0.46,0-0.86-0.38-0.86-0.81V21.02c0-0.49,0.28-0.76,0.8-0.76h6.39c0.4,0,0.74,0.16,0.91,0.54    L280.77,22.53z"></path>
	</g>
	<g>
		<linearGradient id="SVGID_11_" gradientUnits="userSpaceOnUse" x1="321.6232" y1="-41.6327" x2="317.4141" y2="83.4401">
			<stop offset="2.616513e-04" style="stop-color:#2CDFFF"></stop>
			<stop offset="0.9992" style="stop-color:#175DE4"></stop>
		</linearGradient>
		<path class="st10" d="M332.84,46.87c0.17,0.27,0,0.65-0.34,0.92c-3.08,1.84-7.3,3.08-10.55,3.08c-10.32,0-17.17-6.27-17.17-15.68    c0-9.41,6.84-15.68,17.17-15.68c3.25,0,7.47,1.24,10.55,3.08c0.34,0.27,0.51,0.65,0.34,0.92l-3.31,6.6    c-0.23,0.43-0.63,0.59-1.03,0.32c-1.43-0.97-3.59-1.62-5.48-1.62c-4.16,0-6.9,2.54-6.9,6.38c0,3.84,2.74,6.38,6.9,6.38    c1.88,0,4.05-0.65,5.48-1.62c0.4-0.27,0.8-0.11,1.03,0.32L332.84,46.87z"></path>
	</g>
	<g>
		<linearGradient id="SVGID_12_" gradientUnits="userSpaceOnUse" x1="344.2538" y1="-40.9115" x2="340.044" y2="84.1789">
			<stop offset="2.616513e-04" style="stop-color:#2CDFFF"></stop>
			<stop offset="0.9992" style="stop-color:#175DE4"></stop>
		</linearGradient>
		<path class="st11" d="M348.29,11.95c0,3.19-2.51,5.35-6.27,5.35c-3.76,0-6.27-2.16-6.27-5.35c0-3.35,2.51-5.57,6.27-5.57    C345.78,6.38,348.29,8.6,348.29,11.95z M347.1,20.26c0.46,0,0.86,0.38,0.86,0.76V49.2c0,0.43-0.4,0.81-0.86,0.81h-10.04    c-0.46,0-0.86-0.38-0.86-0.81V21.02c0-0.38,0.4-0.76,0.86-0.76H347.1z"></path>
	</g>
	<g>
		<linearGradient id="SVGID_13_" gradientUnits="userSpaceOnUse" x1="369.0109" y1="-40.1328" x2="364.8006" y2="84.974">
			<stop offset="2.616513e-04" style="stop-color:#2CDFFF"></stop>
			<stop offset="0.9992" style="stop-color:#175DE4"></stop>
		</linearGradient>
		<path class="st12" d="M354.05,23.61c-0.17-0.38-0.06-0.76,0.28-1.03c3.25-1.95,7.81-3.08,12.38-3.08    c9.87,0,14.43,4.92,14.43,15.68V49.2c0,0.43-0.4,0.81-0.86,0.81h-7.19c-0.46,0-0.91-0.38-0.91-0.81l-0.4-1.46    c-1.88,1.89-5.65,3.08-9.81,3.08c-6.56,0-10.89-4-10.84-9.95c0.06-5.3,4.39-8.82,10.84-8.82c3.31,0,6.27,1.14,7.41,2.87v-2.27    c0-2.33-1.77-3.84-4.39-3.84c-2.22,0-4.96,0.7-6.84,1.73c-0.28,0.16-0.63-0.05-0.86-0.43L354.05,23.61z M369.4,40.27    c-0.97-0.92-1.94-1.35-3.14-1.35c-1.43,0-2.4,0.76-2.4,1.95c0,1.19,0.97,1.95,2.4,1.95c1.2,0,2.17-0.43,3.14-1.35V40.27z"></path>
	</g>
	<g>
		<linearGradient id="SVGID_14_" gradientUnits="userSpaceOnUse" x1="393.409" y1="-39.3598" x2="389.1984" y2="85.755">
			<stop offset="2.616513e-04" style="stop-color:#2CDFFF"></stop>
			<stop offset="0.9992" style="stop-color:#175DE4"></stop>
		</linearGradient>
		<path class="st13" d="M396.14,7.05c0.46,0,0.86,0.38,0.86,0.76V49.2c0,0.43-0.4,0.81-0.86,0.81h-10.04    c-0.46,0-0.86-0.38-0.86-0.81V7.8c0-0.38,0.4-0.76,0.86-0.76H396.14z"></path>
	</g>
	<linearGradient id="SVGID_15_" gradientUnits="userSpaceOnUse" x1="26.4961" y1="2.173" x2="5.8272" y2="12.1203">
		<stop offset="0" style="stop-color:#F2D43D"></stop>
		<stop offset="0.2226" style="stop-color:#F0D782"></stop>
		<stop offset="0.3272" style="stop-color:#EFD89E"></stop>
		<stop offset="0.3301" style="stop-color:#EFD89C"></stop>
		<stop offset="0.38" style="stop-color:#F0D77A"></stop>
		<stop offset="0.431" style="stop-color:#F1D55F"></stop>
		<stop offset="0.4828" style="stop-color:#F2D54C"></stop>
		<stop offset="0.536" style="stop-color:#F2D441"></stop>
		<stop offset="0.5926" style="stop-color:#F2D43D"></stop>
		<stop offset="1" style="stop-color:#F2AB27"></stop>
	</linearGradient>
	<path class="st14" d="M4.27,6.96l5.66,0c0.23,0,0.45-0.13,0.54-0.33l2.84-5.95c0.01-0.02,0.02-0.04,0.04-0.06   c0.01-0.02,0.02-0.03,0.03-0.05c0.01-0.02,0.03-0.03,0.05-0.05c0.01-0.01,0.03-0.03,0.04-0.04c0.02-0.01,0.04-0.03,0.06-0.04   c0.02-0.01,0.03-0.02,0.05-0.03c0.02-0.01,0.04-0.02,0.06-0.02c0.02-0.01,0.04-0.02,0.06-0.02c0.02-0.01,0.04-0.01,0.06-0.01   c0.02,0,0.04-0.01,0.07-0.01c0.02,0,0.04,0,0.06,0c0.02,0,0.05,0,0.07,0c0.02,0,0.04,0.01,0.06,0.01c0.02,0.01,0.05,0.01,0.07,0.02   c0.02,0.01,0.03,0.02,0.05,0.03c0.02,0.01,0.04,0.02,0.06,0.03l5.7,3.67c0.19,0.12,0.45,0.13,0.65,0.01l4.83-2.8   c0.43-0.25,0.97,0.08,0.9,0.55l-1.19,8.68c-0.03,0.22-0.2,0.41-0.43,0.47l-14.4,3.85C10,14.95,9.76,14.87,9.61,14.7l-5.8-6.81   C3.5,7.51,3.77,6.97,4.27,6.96z"></path>
</g>
</svg>