<svg width="32" height="32" viewBox="0 0 32 32" fill="none" xmlns="http://www.w3.org/2000/svg">
<path d="M9.78588 13.4465L16.0003 7.23242L22.2179 13.4498L25.8339 9.83387L16.0003 0L6.16992 9.83059L9.78588 13.4465Z" fill="#F3BA2F"/>
<path d="M7.23113 15.9987L3.61523 12.3828L-0.000838031 15.9989L3.61506 19.6148L7.23113 15.9987Z" fill="#F3BA2F"/>
<path d="M9.78533 18.5528L15.9997 24.767L22.2171 18.5498L25.8351 22.1637L25.8333 22.1658L15.9997 31.9994L6.16912 22.169L6.16406 22.164L9.78533 18.5528Z" fill="#F3BA2F"/>
<path d="M28.3839 19.617L32 16.001L28.3841 12.3851L24.768 16.0012L28.3839 19.617Z" fill="#F3BA2F"/>
<path d="M19.6669 15.9984H19.6685L15.9992 12.3291L13.2875 15.0408H13.2873L12.9759 15.3524L12.3332 15.9951L12.3281 16.0002L12.3332 16.0055L15.9992 19.6715L19.6685 16.0022L19.6702 16.0002L19.6669 15.9984Z" fill="#F3BA2F"/>
</svg>
