<svg width="32" height="32" viewBox="0 0 32 32" fill="none" xmlns="http://www.w3.org/2000/svg">
<g clip-path="url(#clip0)">
<path d="M31.5197 19.8708C29.3827 28.4423 20.7012 33.6588 12.1287 31.5213C3.55968 29.3843 -1.65682 20.7023 0.481183 12.1313C2.61718 3.5588 11.2987 -1.6582 19.8687 0.478798C28.4407 2.6158 33.6567 11.2988 31.5197 19.8708Z" fill="#F7931A"/>
<path d="M23.0541 13.7207C23.3726 11.5917 21.7516 10.4472 19.5351 9.6837L20.2541 6.7997L18.4986 6.3622L17.7986 9.1702C17.3371 9.0552 16.8631 8.9467 16.3921 8.8392L17.0971 6.0127L15.3426 5.5752L14.6231 8.4582C14.2411 8.3712 13.8661 8.2852 13.5021 8.1947L13.5041 8.1857L11.0831 7.5812L10.6161 9.4562C10.6161 9.4562 11.9186 9.7547 11.8911 9.7732C12.6021 9.9507 12.7306 10.4212 12.7091 10.7942L11.8901 14.0797C11.9391 14.0922 12.0026 14.1102 12.0726 14.1382C12.0141 14.1237 11.9516 14.1077 11.8871 14.0922L10.7391 18.6947C10.6521 18.9107 10.4316 19.2347 9.93461 19.1117C9.95211 19.1372 8.65861 18.7932 8.65861 18.7932L7.78711 20.8027L10.0716 21.3722C10.4966 21.4787 10.9131 21.5902 11.3231 21.6952L10.5966 24.6122L12.3501 25.0497L13.0696 22.1637C13.5486 22.2937 14.0136 22.4137 14.4686 22.5267L13.7516 25.3992L15.5071 25.8367L16.2336 22.9252C19.2271 23.4917 21.4781 23.2632 22.4256 20.5557C23.1891 18.3757 22.3876 17.1182 20.8126 16.2982C21.9596 16.0337 22.8236 15.2792 23.0541 13.7207ZM19.0431 19.3452C18.5006 21.5252 14.8301 20.3467 13.6401 20.0512L14.6041 16.1867C15.7941 16.4837 19.6101 17.0717 19.0431 19.3452ZM19.5861 13.6892C19.0911 15.6722 16.0361 14.6647 15.0451 14.4177L15.9191 10.9127C16.9101 11.1597 20.1016 11.6207 19.5861 13.6892Z" fill="white"/>
</g>
<defs>
<clipPath id="clip0">
<rect width="32" height="32" fill="white"/>
</clipPath>
</defs>
</svg>
