<svg xmlns="http://www.w3.org/2000/svg" width="140" height="37" viewBox="0 0 140 37" fill="none"><path fill-rule="evenodd" clip-rule="evenodd" d="M8.25623 6.07899H6.98598V8.80096H8.25623V6.07899ZM6.62305 5.71606V9.16389H8.61916V5.71606H6.62305Z" fill="#22262D"></path><path fill-rule="evenodd" clip-rule="evenodd" d="M9.88941 10.2527H8.61916V12.9747H9.88941V10.2527ZM8.25623 9.88975V13.3376H10.2523V9.88975H8.25623Z" fill="#22262D"></path><path fill-rule="evenodd" clip-rule="evenodd" d="M9.88941 14.4264H8.61916V17.1483H9.88941V14.4264ZM8.25623 14.0634V17.5113H10.2523V14.0634H8.25623Z" fill="#22262D"></path><path fill-rule="evenodd" clip-rule="evenodd" d="M9.88941 18.6001H8.61916V22.9706L9.88941 24.0676V18.6001ZM10.2523 24.8606L8.25623 23.1367V18.2371H10.2523V24.8606Z" fill="#22262D"></path><path fill-rule="evenodd" clip-rule="evenodd" d="M12.067 6.07899H10.7967V8.80096H12.067V6.07899ZM10.4338 5.71606V9.16389H12.4299V5.71606H10.4338Z" fill="#22262D"></path><path fill-rule="evenodd" clip-rule="evenodd" d="M13.7002 10.2527H12.4299V12.9747H13.7002V10.2527ZM12.067 9.88975V13.3376H14.0631V9.88975H12.067Z" fill="#22262D"></path><path fill-rule="evenodd" clip-rule="evenodd" d="M13.7002 14.4264H12.4299V17.1483H13.7002V14.4264ZM12.067 14.0634V17.5113H14.0631V14.0634H12.067Z" fill="#22262D"></path><path fill-rule="evenodd" clip-rule="evenodd" d="M13.7002 18.6001H12.4299V26.2311L13.7002 27.2704V18.6001ZM14.0631 28.0362L12.067 26.403V18.2371H14.0631V28.0362Z" fill="#22262D"></path><path fill-rule="evenodd" clip-rule="evenodd" d="M16.2407 10.2527H14.9704V12.9747H16.2407V10.2527ZM14.6075 9.88975V13.3376H16.6036V9.88975H14.6075Z" fill="#22262D"></path><path fill-rule="evenodd" clip-rule="evenodd" d="M16.2407 14.4264H14.9704V17.1483H16.2407V14.4264ZM14.6075 14.0634V17.5113H16.6036V14.0634H14.6075Z" fill="#22262D"></path><path fill-rule="evenodd" clip-rule="evenodd" d="M16.2407 18.6001H14.9704V21.322H16.2407V18.6001ZM14.6075 18.2371V21.685H16.6036V18.2371H14.6075Z" fill="#22262D"></path><path fill-rule="evenodd" clip-rule="evenodd" d="M18.7812 10.2527H17.5109V12.9747H18.7812V10.2527ZM17.148 9.88975V13.3376H19.1441V9.88975H17.148Z" fill="#22262D"></path><path fill-rule="evenodd" clip-rule="evenodd" d="M18.7812 14.4264H17.5109V17.1483H18.7812V14.4264ZM17.148 14.0634V17.5113H19.1441V14.0634H17.148Z" fill="#22262D"></path><path fill-rule="evenodd" clip-rule="evenodd" d="M18.7812 18.6001H17.5109V21.322H18.7812V18.6001ZM17.148 18.2371V21.685H19.1441V18.2371H17.148Z" fill="#22262D"></path><path fill-rule="evenodd" clip-rule="evenodd" d="M24.7695 14.4264H23.4993V17.1483H24.7695V14.4264ZM23.1363 14.0634V17.5113H25.1324V14.0634H23.1363Z" fill="#22262D"></path><path fill-rule="evenodd" clip-rule="evenodd" d="M21.3217 10.2527H20.0514V12.9747H21.3217V10.2527ZM19.6885 9.88975V13.3376H21.6846V9.88975H19.6885Z" fill="#22262D"></path><path fill-rule="evenodd" clip-rule="evenodd" d="M22.9549 18.6001H21.6846V25.4557L22.9549 24.4164V18.6001ZM23.3178 24.5884L21.3217 26.2216V18.2371H23.3178V24.5884Z" fill="#22262D"></path><path fill-rule="evenodd" clip-rule="evenodd" d="M23.8622 10.2527H22.5919V12.9747H23.8622V10.2527ZM22.229 9.88975V13.3376H24.2251V9.88975H22.229Z" fill="#22262D"></path><path fill-rule="evenodd" clip-rule="evenodd" d="M17.8739 6.07899H16.6036V8.80096H17.8739V6.07899ZM16.2407 5.71606V9.16389H18.2368V5.71606H16.2407Z" fill="#22262D"></path><path fill-rule="evenodd" clip-rule="evenodd" d="M23.3178 6.07899H22.0475V8.80096H23.3178V6.07899ZM21.6846 5.71606V9.16389H23.6807V5.71606H21.6846Z" fill="#22262D"></path><path fill-rule="evenodd" clip-rule="evenodd" d="M9.16355 5.71606H9.88941V9.16389H9.52648V6.07899H9.16355V5.71606Z" fill="#22262D"></path><path fill-rule="evenodd" clip-rule="evenodd" d="M10.7967 9.88975H11.5226V13.3376H11.1597V10.2527H10.7967V9.88975Z" fill="#22262D"></path><path fill-rule="evenodd" clip-rule="evenodd" d="M10.7967 14.0634H11.5226V17.5113H11.1597V14.4264H10.7967V14.0634Z" fill="#22262D"></path><path fill-rule="evenodd" clip-rule="evenodd" d="M20.0514 14.0634H20.7773V17.5113H20.4144V14.4264H20.0514V14.0634Z" fill="#22262D"></path><path fill-rule="evenodd" clip-rule="evenodd" d="M21.5032 14.0634H22.229V17.5113H21.8661V14.4264H21.5032V14.0634Z" fill="#22262D"></path><path fill-rule="evenodd" clip-rule="evenodd" d="M14.9704 5.71606H15.6963V9.16389H15.3334V6.07899H14.9704V5.71606Z" fill="#22262D"></path><path fill-rule="evenodd" clip-rule="evenodd" d="M24.4066 5.71606H25.1324V9.16389H24.7695V6.07899H24.4066V5.71606Z" fill="#22262D"></path><path fill-rule="evenodd" clip-rule="evenodd" d="M24.4066 9.88975H25.1324V13.3376H24.7695V10.2527H24.4066V9.88975Z" fill="#22262D"></path><path fill-rule="evenodd" clip-rule="evenodd" d="M26.0398 5.71606H26.7656V9.16389H26.4027V6.07899H26.0398V5.71606Z" fill="#22262D"></path><path d="M10.7967 18.2371V18.6001H11.1597V25.5795L11.5226 25.8866V18.2371H10.7967Z" fill="#22262D"></path><path d="M24.2251 18.2371V18.6001H24.5881V23.6113L24.951 23.3042V18.2371H24.2251Z" fill="#22262D"></path><path d="M20.0514 18.2371V18.6001H20.4144V27.1429L20.7773 26.8358V18.2371H20.0514Z" fill="#22262D"></path><path fill-rule="evenodd" clip-rule="evenodd" d="M0 0H33.3895V14.6695C33.3895 21.1449 30.1741 27.5821 24.777 31.2095L16.6948 36.6417L8.61246 31.2095C3.21536 27.5821 0 21.1449 0 14.6695V0ZM1.63318 1.63318V14.6695C1.63318 20.6362 4.60623 26.5491 9.52349 29.8541L16.6948 34.6739L23.866 29.854C28.7833 26.5491 31.7563 20.6362 31.7563 14.6695V1.63318H1.63318Z" fill="#22262D"></path><path d="M40.3407 18.1418L41.5145 16.1658V6.35442L40.3407 4.37844V4.22193H47.1099C48.1077 4.22193 48.975 4.32301 49.7119 4.52517C50.4554 4.72081 51.0716 5.00123 51.5607 5.36643C52.0498 5.72511 52.415 6.15552 52.6563 6.65766C52.9042 7.15329 53.0281 7.70109 53.0281 8.30105C53.0281 8.94015 52.8944 9.52707 52.627 10.0618C52.3661 10.5901 51.9749 11.0466 51.4531 11.4313C50.9314 11.8161 50.2793 12.1161 49.4967 12.3313C48.7207 12.54 47.8207 12.6443 46.7969 12.6443H46.2002V12.0769L46.5425 12.0574C46.7969 12.0313 47.0675 11.953 47.3545 11.8226C47.6414 11.6857 47.9022 11.4737 48.137 11.1868C48.3783 10.8998 48.5772 10.5216 48.7337 10.052C48.8902 9.58251 48.9685 8.99232 48.9685 8.28149C48.9685 7.73369 48.9098 7.24459 48.7924 6.81418C48.6816 6.37724 48.5022 6.00879 48.2544 5.7088C48.0066 5.40882 47.6838 5.18057 47.286 5.02406C46.8947 4.86754 46.4154 4.78929 45.848 4.78929H45.3785V16.1658L46.7577 18.1418V18.2983H40.3407V18.1418ZM53.0997 18.1418L54.2735 16.1658V6.35442L53.0997 4.37844V4.22193H60.0449C61.0231 4.22193 61.8774 4.30996 62.6078 4.48604C63.3448 4.6556 63.9578 4.90015 64.4469 5.2197C64.936 5.53925 65.3012 5.92075 65.5425 6.3642C65.7903 6.80766 65.9142 7.29676 65.9142 7.83151C65.9142 8.47713 65.7805 9.02819 65.5131 9.48469C65.2457 9.94118 64.8936 10.3227 64.4567 10.6292C64.0197 10.9357 63.5176 11.177 62.9502 11.3531C62.3829 11.5291 61.8025 11.6563 61.209 11.7346C61.509 11.8454 61.8318 11.9367 62.1774 12.0085C62.5231 12.0737 62.9209 12.1356 63.3708 12.1943L65.9827 16.4691L67.6847 18.1516V18.2983H62.422L59.3993 11.8617H58.9102L58.7439 11.3433L59.2232 11.3335C59.6993 11.3074 60.1036 11.2063 60.4362 11.0303C60.7753 10.8477 61.0492 10.6064 61.2579 10.3064C61.4666 10.0064 61.6166 9.65424 61.7079 9.24992C61.8057 8.84559 61.8546 8.39887 61.8546 7.90977C61.8546 7.42719 61.8025 6.99352 61.6981 6.60875C61.6003 6.22399 61.434 5.89792 61.1992 5.63055C60.9645 5.36317 60.6514 5.15774 60.2601 5.01427C59.8754 4.8708 59.3993 4.79907 58.832 4.79907H58.1374V16.1658L59.3113 18.1418V18.2983H53.0997V18.1418ZM74.0462 18.5331C72.9637 18.5331 71.9724 18.357 71.0725 18.0049C70.179 17.6462 69.4128 17.1473 68.7737 16.5082C68.1346 15.8626 67.6357 15.0963 67.277 14.2094C66.9249 13.3225 66.7488 12.3476 66.7488 11.2846C66.7488 10.2281 66.9249 9.25644 67.277 8.36953C67.6357 7.4761 68.1346 6.70657 68.7737 6.06096C69.4128 5.41534 70.179 4.91319 71.0725 4.55452C71.9724 4.18932 72.9637 4.00672 74.0462 4.00672C75.1288 4.00672 76.12 4.18606 77.02 4.54473C77.9265 4.90341 78.7025 5.40556 79.3481 6.05118C80.0003 6.69027 80.5057 7.45327 80.8643 8.34018C81.223 9.22709 81.4024 10.1988 81.4024 11.2552C81.4024 11.9661 81.3208 12.641 81.1578 13.2801C81.0013 13.9127 80.7698 14.4996 80.4633 15.0409C80.1633 15.5822 79.7948 16.068 79.3579 16.4984C78.9275 16.9288 78.4384 17.294 77.8906 17.594C77.3493 17.894 76.7559 18.1255 76.1102 18.2886C75.4646 18.4516 74.7766 18.5331 74.0462 18.5331ZM74.0462 17.956C74.6005 17.956 75.0799 17.806 75.4842 17.506C75.8885 17.206 76.2211 16.7723 76.482 16.205C76.7493 15.6311 76.945 14.9333 77.0689 14.1116C77.1993 13.2834 77.2645 12.3411 77.2645 11.2846C77.2645 10.2216 77.1993 9.276 77.0689 8.44778C76.945 7.61957 76.7526 6.91852 76.4917 6.34464C76.2309 5.77076 75.895 5.33382 75.4842 5.03384C75.0799 4.73385 74.6005 4.58386 74.0462 4.58386C73.4919 4.58386 73.0158 4.73712 72.618 5.04362C72.2202 5.3436 71.8909 5.78054 71.6301 6.35442C71.3757 6.92178 71.1866 7.62283 71.0627 8.45757C70.9388 9.28578 70.8768 10.2281 70.8768 11.2846C70.8768 12.3411 70.9388 13.2834 71.0627 14.1116C71.1866 14.9333 71.379 15.6311 71.6398 16.205C71.9007 16.7723 72.23 17.206 72.6278 17.506C73.0256 17.806 73.4984 17.956 74.0462 17.956ZM84.4477 18.1418L85.6216 16.1658V4.78929H84.1542L81.474 8.09563H81.3664V4.22193H93.7602V8.09563H93.6624L90.9821 4.78929H89.4953V16.1658L90.6691 18.1418V18.2983H84.4477V18.1418ZM95.0937 6.35442L93.9199 4.37844V4.22193H105.052V8.21301H104.944L102.215 4.79907H98.9577V10.7661H100.885L102.812 9.10318H103.007V13.2508H102.812L100.885 11.3433H98.9577V17.7212H102.724L105.942 14.3073H106.03L105.561 18.2983H93.9199V18.1418L95.0937 16.1561V6.35442ZM119.464 17.0071C119.21 17.1506 118.9 17.3103 118.535 17.4864C118.176 17.6625 117.759 17.8288 117.283 17.9853C116.807 18.1418 116.272 18.2723 115.678 18.3766C115.091 18.4809 114.443 18.5331 113.732 18.5331C112.584 18.5331 111.544 18.3603 110.611 18.0147C109.685 17.6625 108.893 17.1734 108.234 16.5473C107.582 15.9148 107.077 15.1583 106.718 14.2779C106.359 13.3975 106.18 12.4258 106.18 11.3628C106.18 10.3129 106.356 9.33795 106.708 8.438C107.067 7.53805 107.576 6.76201 108.234 6.10987C108.899 5.45121 109.705 4.93602 110.65 4.5643C111.596 4.19258 112.659 4.00672 113.839 4.00672H113.986C114.756 4.01976 115.512 4.08824 116.256 4.21214C117.005 4.32953 117.775 4.49582 118.564 4.71103L118.858 8.88798H118.642C118.558 8.60756 118.421 8.26193 118.231 7.85108C118.049 7.44023 117.808 7.02938 117.508 6.61854C117.214 6.20117 116.859 5.81967 116.441 5.47403C116.024 5.12188 115.541 4.86428 114.994 4.70125L114.945 4.6719C114.762 4.63929 114.593 4.61647 114.436 4.60343C114.286 4.58386 114.149 4.57408 114.025 4.57408C113.38 4.57408 112.822 4.74038 112.352 5.07297C111.883 5.40556 111.495 5.87184 111.188 6.4718C110.888 7.06525 110.667 7.77934 110.523 8.61408C110.38 9.4423 110.308 10.3553 110.308 11.3531C110.308 12.4291 110.393 13.3812 110.562 14.2094C110.738 15.0311 110.986 15.7191 111.306 16.2734C111.625 16.8278 112.013 17.2484 112.47 17.5353C112.926 17.8223 113.435 17.9657 113.996 17.9657C114.57 17.9462 115.023 17.819 115.356 17.5842C115.688 17.3495 115.854 17.0365 115.854 16.6452V13.8279L114.26 11.9009V11.715H119.464V17.0071ZM127.704 18.5331C126.621 18.5331 125.63 18.357 124.73 18.0049C123.836 17.6462 123.07 17.1473 122.431 16.5082C121.792 15.8626 121.293 15.0963 120.934 14.2094C120.582 13.3225 120.406 12.3476 120.406 11.2846C120.406 10.2281 120.582 9.25644 120.934 8.36953C121.293 7.4761 121.792 6.70657 122.431 6.06096C123.07 5.41534 123.836 4.91319 124.73 4.55452C125.63 4.18932 126.621 4.00672 127.704 4.00672C128.786 4.00672 129.777 4.18606 130.677 4.54473C131.584 4.90341 132.36 5.40556 133.006 6.05118C133.658 6.69027 134.163 7.45327 134.522 8.34018C134.88 9.22709 135.06 10.1988 135.06 11.2552C135.06 11.9661 134.978 12.641 134.815 13.2801C134.659 13.9127 134.427 14.4996 134.121 15.0409C133.821 15.5822 133.452 16.068 133.015 16.4984C132.585 16.9288 132.096 17.294 131.548 17.594C131.007 17.894 130.413 18.1255 129.768 18.2886C129.122 18.4516 128.434 18.5331 127.704 18.5331ZM127.704 17.956C128.258 17.956 128.737 17.806 129.142 17.506C129.546 17.206 129.879 16.7723 130.139 16.205C130.407 15.6311 130.602 14.9333 130.726 14.1116C130.857 13.2834 130.922 12.3411 130.922 11.2846C130.922 10.2216 130.857 9.276 130.726 8.44778C130.602 7.61957 130.41 6.91852 130.149 6.34464C129.888 5.77076 129.552 5.33382 129.142 5.03384C128.737 4.73385 128.258 4.58386 127.704 4.58386C127.149 4.58386 126.673 4.73712 126.275 5.04362C125.878 5.3436 125.548 5.78054 125.288 6.35442C125.033 6.92178 124.844 7.62283 124.72 8.45757C124.596 9.28578 124.534 10.2281 124.534 11.2846C124.534 12.3411 124.596 13.2834 124.72 14.1116C124.844 14.9333 125.036 15.6311 125.297 16.205C125.558 16.7723 125.887 17.206 126.285 17.506C126.683 17.806 127.156 17.956 127.704 17.956Z" fill="#22262D"></path><path d="M41.8916 32.1184L42.6501 31.1883V24.9598H41.8085L40.2749 26.438L39.9649 26.4325L40.203 24.2401L42.1739 24.3729H44.9754L46.9187 24.2456L47.1623 26.4325L46.8578 26.438L45.3297 24.9598H44.466V31.1883L45.2245 32.1184V32.3398H41.8916V32.1184ZM47.3952 32.1184L48.1537 31.1883V25.5245L47.3952 24.5999V24.3729H51.1821C51.6952 24.3729 52.1455 24.4228 52.533 24.5224C52.9243 24.6184 53.2491 24.7549 53.5074 24.9321C53.7658 25.1093 53.9596 25.3215 54.0888 25.5688C54.2216 25.8161 54.2881 26.0911 54.2881 26.3937C54.2881 26.7259 54.2216 27.0175 54.0888 27.2685C53.9596 27.5195 53.7861 27.7372 53.5683 27.9218C53.3506 28.1063 53.1014 28.2595 52.8209 28.3813C52.5441 28.4994 52.2562 28.5917 51.9572 28.6581C52.0311 28.6803 52.1104 28.7024 52.1953 28.7246C52.2839 28.743 52.3669 28.7596 52.4444 28.7744C52.5256 28.7855 52.5995 28.7947 52.6659 28.8021C52.7323 28.8095 52.7822 28.8131 52.8154 28.8131L54.2659 31.227L55.3123 32.1239V32.3398H52.7489L50.9939 28.7855C50.9459 28.7892 50.8998 28.791 50.8555 28.791C50.8112 28.791 50.7669 28.791 50.7226 28.791H50.4679L50.3019 28.2041H50.8444C51.3612 28.2041 51.745 28.0547 51.996 27.7557C52.247 27.4567 52.3725 27.0175 52.3725 26.438C52.3725 26.1686 52.3411 25.9397 52.2784 25.7515C52.2193 25.5633 52.1196 25.4119 51.9794 25.2975C51.8428 25.1794 51.662 25.0945 51.4368 25.0428C51.2154 24.9912 50.9422 24.9653 50.6174 24.9653H49.9697V31.1883L50.7282 32.1184V32.3398H47.3952V32.1184ZM55.5231 24.3729H58.8505V24.5944L58.0976 25.519V29.6325C58.0976 30.0275 58.1419 30.367 58.2305 30.6512C58.3227 30.9317 58.4538 31.1624 58.6235 31.3433C58.7933 31.5241 59 31.657 59.2436 31.7419C59.4909 31.8231 59.7696 31.8637 60.0796 31.8637C60.4155 31.8637 60.7126 31.8083 60.971 31.6976C61.233 31.5869 61.4526 31.4263 61.6298 31.2159C61.807 31.0056 61.9399 30.749 62.0284 30.4464C62.1207 30.14 62.1668 29.7912 62.1668 29.4V25.6186L61.2976 24.5944V24.3729H63.6174V24.5944L62.7537 25.6186V29.2505C62.7537 29.8115 62.6799 30.2951 62.5323 30.7011C62.3883 31.1034 62.1779 31.4374 61.9011 31.7032C61.628 31.9652 61.2921 32.159 60.8935 32.2845C60.4985 32.41 60.0501 32.4727 59.5481 32.4727C59.0572 32.4727 58.6106 32.41 58.2083 32.2845C57.806 32.1553 57.4627 31.9671 57.1785 31.7198C56.8943 31.4688 56.6729 31.1587 56.5142 30.7896C56.3591 30.4169 56.2816 29.985 56.2816 29.4941V25.5245L55.5231 24.5944V24.3729ZM67.0172 24.8989C66.8659 24.8731 66.6961 24.8601 66.5078 24.8601C66.3528 24.8601 66.207 24.8767 66.0705 24.91C65.9339 24.9432 65.8139 24.9967 65.7106 25.0705C65.6073 25.1406 65.5242 25.2329 65.4615 25.3473C65.3987 25.4618 65.3673 25.602 65.3673 25.7681C65.3673 25.9748 65.4227 26.1612 65.5334 26.3273C65.6479 26.4897 65.7973 26.641 65.9819 26.7813C66.1664 26.9178 66.375 27.047 66.6075 27.1688C66.84 27.2906 67.0763 27.4124 67.3162 27.5342C67.6151 27.6856 67.9012 27.8443 68.1743 28.0104C68.4511 28.1728 68.6947 28.3573 68.9051 28.564C69.1155 28.7707 69.2816 29.0051 69.4034 29.2671C69.5289 29.5255 69.5916 29.8282 69.5916 30.1751C69.5879 30.5811 69.5031 30.9299 69.337 31.2215C69.1709 31.5094 68.942 31.7456 68.6504 31.9301C68.3625 32.1147 68.023 32.2513 67.6317 32.3398C67.2442 32.4284 66.8253 32.4727 66.375 32.4727C66.1867 32.4727 65.9837 32.4616 65.766 32.4395C65.5519 32.4174 65.336 32.386 65.1182 32.3454C64.9041 32.3085 64.6956 32.2642 64.4926 32.2125C64.2933 32.1571 64.118 32.0962 63.9666 32.0298L63.7895 29.8927H64.177C64.2545 30.1031 64.3653 30.3246 64.5092 30.5571C64.6531 30.7896 64.8229 31.0037 65.0186 31.1993C65.2179 31.3913 65.4393 31.5518 65.6829 31.681C65.9302 31.8065 66.196 31.8692 66.4802 31.8692H66.5687C67.0412 31.8692 67.4103 31.777 67.676 31.5924C67.9455 31.4042 68.082 31.1421 68.0857 30.8063C68.0857 30.5959 68.0322 30.4058 67.9252 30.236C67.8218 30.0662 67.6816 29.9075 67.5044 29.7599C67.3272 29.6122 67.1242 29.4738 66.8954 29.3446C66.6666 29.2155 66.4303 29.0844 66.1867 28.9516C65.9099 28.8039 65.6331 28.6489 65.3563 28.4865C65.0795 28.3241 64.8322 28.1451 64.6144 27.9495C64.3966 27.7501 64.2195 27.5268 64.0829 27.2796C63.95 27.0323 63.8836 26.7481 63.8836 26.4269C63.8873 26.0578 63.9611 25.7367 64.105 25.4636C64.2527 25.1905 64.4557 24.9653 64.714 24.7882C64.9761 24.6073 65.2861 24.4726 65.6442 24.384C66.0059 24.2917 66.4008 24.2456 66.829 24.2456C67.0726 24.2493 67.2977 24.264 67.5044 24.2899C67.7111 24.3157 67.903 24.3489 68.0802 24.3895C68.2574 24.4264 68.4216 24.4689 68.5729 24.5169C68.728 24.5649 68.8719 24.6128 69.0048 24.6608L69.1709 26.6096H68.8165C68.7686 26.4657 68.6984 26.3088 68.6062 26.139C68.5176 25.9693 68.3995 25.805 68.2518 25.6463C68.1079 25.4876 67.9344 25.3418 67.7314 25.2089C67.5284 25.0761 67.2903 24.9727 67.0172 24.8989ZM71.5686 32.1184L72.3271 31.1883V24.9598H71.4855L69.9519 26.438L69.6419 26.4325L69.88 24.2401L71.8509 24.3729H74.6524L76.5957 24.2456L76.8393 26.4325L76.5348 26.438L75.0067 24.9598H74.143V31.1883L74.9015 32.1184V32.3398H71.5686V32.1184ZM80.09 25.5245L79.3315 24.5999V24.3729H83.2126C83.6998 24.3729 84.1224 24.4209 84.4804 24.5169C84.8421 24.6128 85.1411 24.7457 85.3773 24.9155C85.6172 25.0816 85.7962 25.2809 85.9143 25.5134C86.0324 25.7423 86.0915 25.9896 86.0915 26.2553C86.0915 26.4768 86.0509 26.6872 85.9697 26.8865C85.8922 27.0858 85.7722 27.2685 85.6098 27.4346C85.4511 27.597 85.25 27.7409 85.0064 27.8664C84.7665 27.9882 84.4841 28.0842 84.1593 28.1543C84.5284 28.2097 84.855 28.3001 85.1392 28.4256C85.4234 28.5511 85.6615 28.7043 85.8534 28.8851C86.0454 29.0623 86.1893 29.2653 86.2853 29.4941C86.3849 29.723 86.4348 29.9666 86.4348 30.2249C86.4348 30.6162 86.3517 30.9465 86.1856 31.2159C86.0195 31.4854 85.7778 31.7032 85.4604 31.8692C85.1466 32.0353 84.7609 32.1553 84.3032 32.2291C83.8456 32.3029 83.3251 32.3398 82.742 32.3398H79.3315V32.1184L80.09 31.1883V25.5245ZM81.906 31.753H82.9302C83.1738 31.753 83.3916 31.7271 83.5835 31.6755C83.7754 31.6201 83.9378 31.5315 84.0707 31.4097C84.2036 31.2842 84.3051 31.1218 84.3752 30.9225C84.4453 30.7232 84.4804 30.4778 84.4804 30.1862C84.4804 29.9094 84.4472 29.6676 84.3807 29.4609C84.3143 29.2542 84.211 29.0826 84.0707 28.946C83.9305 28.8058 83.7478 28.7024 83.5226 28.636C83.3011 28.5658 83.0336 28.5308 82.7198 28.5308H81.906V31.753ZM82.6589 27.9384C82.9357 27.9384 83.172 27.9033 83.3676 27.8332C83.5669 27.7594 83.7274 27.656 83.8493 27.5232C83.9747 27.3866 84.067 27.2205 84.1261 27.0249C84.1851 26.8293 84.2147 26.606 84.2147 26.355C84.2147 25.8678 84.0892 25.5134 83.8382 25.292C83.5909 25.0705 83.2255 24.9598 82.742 24.9598H81.906V27.9384H82.6589ZM90.964 32.1184L91.7779 31.1938L91.3516 30.0035H88.528L88.1072 31.1717L88.9875 32.1184V32.3398H86.4961V32.1184L87.4594 31.1938L89.6131 25.4747L88.993 24.5944V24.3729L91.0969 24.1404L91.3128 24.7771L93.7544 31.2104L94.6291 32.1184V32.3398H90.964V32.1184ZM88.7328 29.4221H91.1467L89.9398 26.0671L88.7328 29.4221ZM96.224 31.0941L97.0545 32.1184V32.3398H94.8399V32.1184L95.6372 31.0941V25.5245L94.8565 24.5999V24.3729H97.2538L101.462 30.1197V25.6131L100.592 24.5944V24.3729H102.912V24.5944L102.048 25.6186V32.3398L101.124 32.5336L96.224 25.8124V31.0941ZM103.306 24.3729H106.638V24.5944L105.88 25.5245V31.1883L106.638 32.1184V32.3398H103.306V32.1184L104.064 31.1883V25.5245L103.306 24.5944V24.3729ZM108.726 32.3398L106.151 28.4477L108.676 25.6131L107.757 24.5889V24.3729H110.536V24.5889L109.534 25.519L107.574 27.6726L110.16 31.1827L111.245 32.1239V32.3398H108.726ZM115.614 31.0941L116.444 32.1184V32.3398H114.23V32.1184L115.027 31.0941V25.5245L114.246 24.5999V24.3729H116.644L120.851 30.1197V25.6131L119.982 24.5944V24.3729H122.302V24.5944L121.438 25.6186V32.3398L120.514 32.5336L115.614 25.8124V31.0941ZM123.642 32.4727C123.502 32.4727 123.373 32.4487 123.255 32.4007C123.137 32.3565 123.035 32.2937 122.95 32.2125C122.865 32.1313 122.797 32.0335 122.745 31.9191C122.697 31.8047 122.673 31.6792 122.673 31.5426C122.673 31.4097 122.697 31.2861 122.745 31.1717C122.793 31.0572 122.86 30.9594 122.945 30.8782C123.029 30.7933 123.131 30.7287 123.249 30.6845C123.371 30.6365 123.502 30.6125 123.642 30.6125C123.786 30.6125 123.917 30.6365 124.035 30.6845C124.153 30.7324 124.255 30.7989 124.34 30.8838C124.425 30.965 124.489 31.0628 124.534 31.1772C124.582 31.2879 124.606 31.4097 124.606 31.5426C124.606 31.6792 124.582 31.8047 124.534 31.9191C124.489 32.0335 124.425 32.1313 124.34 32.2125C124.255 32.2937 124.153 32.3565 124.035 32.4007C123.917 32.4487 123.786 32.4727 123.642 32.4727ZM129.268 32.1184L130.081 31.1938L129.655 30.0035H126.832L126.411 31.1717L127.291 32.1184V32.3398H124.8V32.1184L125.763 31.1938L127.917 25.4747L127.297 24.5944V24.3729L129.401 24.1404L129.616 24.7771L132.058 31.2104L132.933 32.1184V32.3398H129.268V32.1184ZM127.036 29.4221H129.45L128.243 26.0671L127.036 29.4221ZM134.118 32.4727C133.978 32.4727 133.849 32.4487 133.73 32.4007C133.612 32.3565 133.511 32.2937 133.426 32.2125C133.341 32.1313 133.273 32.0335 133.221 31.9191C133.173 31.8047 133.149 31.6792 133.149 31.5426C133.149 31.4097 133.173 31.2861 133.221 31.1717C133.269 31.0572 133.335 30.9594 133.42 30.8782C133.505 30.7933 133.607 30.7287 133.725 30.6845C133.847 30.6365 133.978 30.6125 134.118 30.6125C134.262 30.6125 134.393 30.6365 134.511 30.6845C134.629 30.7324 134.731 30.7989 134.816 30.8838C134.9 30.965 134.965 31.0628 135.009 31.1772C135.057 31.2879 135.081 31.4097 135.081 31.5426C135.081 31.6792 135.057 31.8047 135.009 31.9191C134.965 32.0335 134.9 32.1313 134.816 32.2125C134.731 32.2937 134.629 32.3565 134.511 32.4007C134.393 32.4487 134.262 32.4727 134.118 32.4727Z" fill="#22262D"></path></svg>