<svg xmlns="http://www.w3.org/2000/svg" width="134" height="29" viewBox="0 0 134 29" fill="none"><path fill-rule="evenodd" clip-rule="evenodd" d="M0.0859375 27.5677H11.8202V26.2249H0.0859375V27.5677Z" fill="#ECBB29"></path><path fill-rule="evenodd" clip-rule="evenodd" d="M9.56704 6.14988V6.10508C9.56704 4.11036 7.93072 2.54237 5.57872 2.54237C3.22672 2.54237 1.8144 4.26716 1.8144 6.21596V6.26076C1.8144 8.2566 3.3824 9.6902 5.66832 9.6902C8.06512 9.6902 9.56704 7.94188 9.56704 6.14988ZM0.3584 15.2678L1.3888 13.9014C2.6656 15.0214 3.85392 15.5814 5.24272 15.5814C8.06512 15.5814 9.97024 12.7142 9.90304 8.70348C9.05072 10.071 7.63952 11.2123 5.46672 11.2123C2.24 11.2123 0 9.17388 0 6.35036V6.30556C0 3.32636 2.3072 0.974365 5.64592 0.974365C7.43792 0.974365 8.76064 1.57917 9.76752 2.58716C10.9558 3.77548 11.7174 5.52156 11.7174 8.65868V8.70348C11.7174 13.6774 9.07312 17.1953 5.19792 17.1953C3.15952 17.1953 1.68 16.3665 0.3584 15.2678Z" fill="#ECBB29"></path><path fill-rule="evenodd" clip-rule="evenodd" d="M26.9258 10.7208L20.4062 1.24341H22.5566L27.8442 9.08453L33.1765 1.24341H35.2373L28.7178 10.6973V16.9268H26.9258V10.7208Z" fill="#0A0B09"></path><path fill-rule="evenodd" clip-rule="evenodd" d="M52.0133 1.13129H50.3557L43.209 16.9266H45.0234L51.1621 3.19209L57.256 16.9266H59.1611L52.0133 1.13129Z" fill="#0A0B09"></path><path fill-rule="evenodd" clip-rule="evenodd" d="M77.7957 9.24133C80.1477 9.24133 81.8288 8.03173 81.8288 6.01573V5.97093C81.8288 4.04341 80.3504 2.87861 77.8181 2.87861H72.9786V9.24133H77.7957ZM71.209 1.24341H77.9525C79.88 1.24341 81.4256 1.82581 82.4112 2.81141C83.1728 3.57301 83.6208 4.67061 83.6208 5.90373V5.94853C83.6208 8.54693 81.8288 10.0712 79.3648 10.5181L84.1808 16.9268H82.008L77.4597 10.8317H72.9786V16.9268H71.209V1.24341Z" fill="#0A0B09"></path><path fill-rule="evenodd" clip-rule="evenodd" d="M101.808 15.2916C105.774 15.2916 108.305 12.6024 108.305 9.12933V9.08453C108.305 5.61141 105.774 2.87861 101.808 2.87861H98.1329V15.2916H101.808ZM96.3633 1.24341H101.808C106.737 1.24341 110.143 4.62581 110.143 9.03973V9.08453C110.143 13.4984 106.737 16.9268 101.808 16.9268H96.3633V1.24341Z" fill="#0A0B09"></path><mask id="mask0" maskUnits="userSpaceOnUse" x="22" y="1" width="112" height="28"><path d="M22.1289 1.01923H133.348V28.3864H22.1289V1.01923Z" fill="white"></path></mask><g mask="url(#mask0)"><path fill-rule="evenodd" clip-rule="evenodd" d="M121.586 14.6418L122.685 13.3415C124.32 14.8199 125.888 15.5591 128.062 15.5591C130.167 15.5591 131.557 14.4391 131.557 12.8935V12.8487C131.557 11.3915 130.773 10.5627 127.479 9.86834C123.872 9.08434 122.213 7.91954 122.213 5.34355V5.29875C122.213 2.83363 124.387 1.01923 127.366 1.01923C129.653 1.01923 131.287 1.66883 132.878 2.94563L131.847 4.31203C130.392 3.12483 128.935 2.60963 127.321 2.60963C125.283 2.60963 123.984 3.73075 123.984 5.14082V5.18563C123.984 6.66514 124.79 7.49394 128.241 8.23314C131.736 8.99586 133.348 10.2715 133.348 12.6695V12.7143C133.348 15.4023 131.108 17.1506 127.995 17.1506C125.507 17.1506 123.469 16.3218 121.586 14.6418Z" fill="#0A0B09"></path><path fill-rule="evenodd" clip-rule="evenodd" d="M22.1289 25.6289V25.6144C22.1289 24.0531 23.2982 22.774 24.9603 22.774C25.9727 22.774 26.5854 23.1268 27.1095 23.6286L26.4913 24.3432C26.0511 23.9344 25.5807 23.66 24.9535 23.66C23.9019 23.66 23.1403 24.5235 23.1403 25.5976V25.6144C23.1403 26.6884 23.9019 27.5676 24.9535 27.5676C25.6278 27.5676 26.059 27.2932 26.5305 26.8531L27.1499 27.4814C26.5775 28.0772 25.9492 28.4536 24.9211 28.4536C23.3206 28.4536 22.1289 27.2059 22.1289 25.6289Z" fill="#0A0B09"></path></g><path fill-rule="evenodd" clip-rule="evenodd" d="M44.123 26.1778L43.1743 23.9815L42.2324 26.1778H44.123ZM42.742 22.829H43.6369L46.0527 28.3595H45.0324L44.4758 27.0335H41.8796L41.3151 28.3595H40.3262L42.742 22.829Z" fill="#0A0B09"></path><path fill-rule="evenodd" clip-rule="evenodd" d="M61.7155 25.7232C62.4446 25.7232 62.9004 25.3155 62.9004 24.7432V24.7275C62.9004 24.0835 62.4368 23.7475 61.7155 23.7475H60.5944V25.7232H61.7155ZM59.6289 22.8683H61.7939C63.0729 22.8683 63.8804 23.5985 63.8804 24.704V24.7196C63.8804 25.9505 62.8926 26.5945 61.6841 26.5945H60.5944V28.3596H59.6289V22.8683Z" fill="#0A0B09"></path><path fill-rule="evenodd" clip-rule="evenodd" d="M77.5586 28.3585H78.5229V22.8683H77.5586V28.3585Z" fill="#0A0B09"></path><path fill-rule="evenodd" clip-rule="evenodd" d="M93.976 23.762H92.2344V22.8683H96.6886V23.762H94.9481V28.3596H93.976V23.762Z" fill="#0A0B09"></path><path fill-rule="evenodd" clip-rule="evenodd" d="M112.967 26.1778L112.018 23.9815L111.076 26.1778H112.967ZM111.586 22.829H112.481L114.896 28.3595H113.876L113.32 27.0335H110.723L110.159 28.3595H109.17L111.586 22.829Z" fill="#0A0B09"></path><path fill-rule="evenodd" clip-rule="evenodd" d="M128.469 22.8683H129.435V27.4816H132.322V28.3596H128.469V22.8683Z" fill="#0A0B09"></path></svg>