<svg xmlns="http://www.w3.org/2000/svg" width="140" height="30" viewBox="0 0 140 30" fill="none"><path fill-rule="evenodd" clip-rule="evenodd" d="M0.0898438 28.53H12.4094V27.1201H0.0898438V28.53Z" fill="#051B52"></path><path fill-rule="evenodd" clip-rule="evenodd" d="M10.0443 6.04404V5.997C10.0443 3.90278 8.32632 2.25657 5.857 2.25657C3.38768 2.25657 1.90491 4.0674 1.90491 6.11341V6.16045C1.90491 8.25585 3.55112 9.76096 5.95107 9.76096C8.46743 9.76096 10.0443 7.92543 10.0443 6.04404ZM0.376278 15.6168L1.45808 14.1822C2.79857 15.3581 4.04616 15.946 5.50424 15.946C8.46743 15.946 10.4676 12.9358 10.397 8.72502C9.50219 10.1608 8.0206 11.359 5.73941 11.359C2.35174 11.359 0 9.21888 0 6.25452V6.20748C0 3.07967 2.42229 0.610352 5.92755 0.610352C7.80894 0.610352 9.19764 1.24532 10.2547 2.3036C11.5023 3.5512 12.3019 5.38438 12.3019 8.67798V8.72502C12.3019 13.947 9.52571 17.6405 5.4572 17.6405C3.31712 17.6405 1.7638 16.7703 0.376278 15.6168Z" fill="#051B52"></path><path fill-rule="evenodd" clip-rule="evenodd" d="M28.2686 10.8428L21.4238 0.892578H23.6815L29.2328 9.12483L34.8311 0.892578H36.9947L30.1499 10.8181V17.3583H28.2686V10.8428Z" fill="#051B52"></path><path fill-rule="evenodd" clip-rule="evenodd" d="M54.6087 0.775391H52.8684L45.3652 17.3587H47.2701L53.7151 2.93899L60.113 17.3587H62.1131L54.6087 0.775391Z" fill="#051B52"></path><path fill-rule="evenodd" clip-rule="evenodd" d="M81.677 9.28945C84.1463 9.28945 85.9113 8.01951 85.9113 5.90295V5.85592C85.9113 3.83225 84.3592 2.60935 81.7005 2.60935H76.6196V9.28945H81.677ZM74.7617 0.892578H81.8416C83.8653 0.892578 85.488 1.50403 86.5227 2.53879C87.3223 3.33838 87.7927 4.49073 87.7927 5.78537V5.8324C87.7927 8.56041 85.9113 10.1608 83.3244 10.6299L88.3806 17.3583H86.0994L81.3242 10.9592H76.6196V17.3583H74.7617V0.892578Z" fill="#051B52"></path><path fill-rule="evenodd" clip-rule="evenodd" d="M106.886 15.6415C111.05 15.6415 113.707 12.8182 113.707 9.17186V9.12483C113.707 5.47846 111.05 2.60935 106.886 2.60935H103.028V15.6415H106.886ZM101.17 0.892578H106.886C112.061 0.892578 115.637 4.4437 115.637 9.0778V9.12483C115.637 13.7589 112.061 17.3583 106.886 17.3583H101.17V0.892578Z" fill="#051B52"></path><mask id="mask0" maskUnits="userSpaceOnUse" x="23" y="0" width="117" height="30"><path d="M23.2324 0.657227H140V29.3896H23.2324V0.657227Z" fill="#051B52"></path></mask><g mask="url(#mask0)"><path fill-rule="evenodd" clip-rule="evenodd" d="M127.65 14.9593L128.804 13.5941C130.521 15.1463 132.167 15.9223 134.449 15.9223C136.66 15.9223 138.119 14.7465 138.119 13.1238V13.0767C138.119 11.5469 137.296 10.6768 133.838 9.94776C130.05 9.12465 128.309 7.90175 128.309 5.19725V5.15022C128.309 2.56213 130.591 0.657227 133.719 0.657227C136.12 0.657227 137.836 1.33923 139.505 2.67972L138.424 4.11428C136.896 2.86786 135.366 2.32696 133.672 2.32696C131.532 2.32696 130.168 3.504 130.168 4.98442V5.03146C130.168 6.58478 131.015 7.45492 134.637 8.23099C138.307 9.03176 139.999 10.3711 139.999 12.8886V12.9356C139.999 15.7577 137.648 17.5933 134.379 17.5933C131.767 17.5933 129.627 16.7231 127.65 14.9593Z" fill="#051B52"></path><path fill-rule="evenodd" clip-rule="evenodd" d="M23.2324 26.4953V26.48C23.2324 24.8409 24.46 23.498 26.205 23.498C27.268 23.498 27.9112 23.8684 28.4615 24.3952L27.8124 25.1454C27.3503 24.7162 26.8564 24.4282 26.198 24.4282C25.0938 24.4282 24.2942 25.3348 24.2942 26.4624V26.48C24.2942 27.6077 25.0938 28.5308 26.198 28.5308C26.9058 28.5308 27.3585 28.2427 27.8536 27.7806L28.5038 28.4402C27.903 29.0658 27.2433 29.4609 26.1639 29.4609C24.4835 29.4609 23.2324 28.151 23.2324 26.4953Z" fill="#051B52"></path></g><path fill-rule="evenodd" clip-rule="evenodd" d="M46.3221 27.0705L45.3262 24.7647L44.3373 27.0705H46.3221ZM44.8723 23.5547H45.8118L48.3482 29.3611H47.2769L46.6925 27.9689H43.9669L43.3742 29.3611H42.3359L44.8723 23.5547Z" fill="#051B52"></path><path fill-rule="evenodd" clip-rule="evenodd" d="M64.7922 26.593C65.5577 26.593 66.0363 26.165 66.0363 25.5641V25.5476C66.0363 24.8715 65.5495 24.5188 64.7922 24.5188H63.6152V26.593H64.7922ZM62.6016 23.5957H64.8745C66.2174 23.5957 67.0652 24.3624 67.0652 25.523V25.5394C67.0652 26.8317 66.0281 27.5078 64.7593 27.5078H63.6152V29.361H62.6016V23.5957Z" fill="#051B52"></path><path fill-rule="evenodd" clip-rule="evenodd" d="M81.4258 29.3598H82.4382V23.5957H81.4258V29.3598Z" fill="#051B52"></path><path fill-rule="evenodd" clip-rule="evenodd" d="M98.6625 24.534H96.834V23.5957H101.51V24.534H99.6831V29.361H98.6625V24.534Z" fill="#051B52"></path><path fill-rule="evenodd" clip-rule="evenodd" d="M118.599 27.0705L117.604 24.7647L116.615 27.0705H118.599ZM117.15 23.5547H118.089L120.625 29.3611H119.554L118.97 27.9689H116.244L115.652 29.3611H114.613L117.15 23.5547Z" fill="#051B52"></path><path fill-rule="evenodd" clip-rule="evenodd" d="M134.877 23.5957H135.892V28.4391H138.922V29.361H134.877V23.5957Z" fill="#051B52"></path></svg>