<svg xmlns="http://www.w3.org/2000/svg" width="140" height="29" viewBox="0 0 140 29" fill="none"><g clip-path="url(#clip0)"><path fill-rule="evenodd" clip-rule="evenodd" d="M101.422 21.2366C101.078 24.2572 100.278 24.1736 99.3065 24.4208C98.4269 24.6439 98.7626 25.1616 99.3344 25.0798C99.5468 25.0494 101.119 24.888 102.193 24.888C103.699 24.888 105.065 25.0244 105.802 25.0244C106.109 25.0244 106.512 24.6139 105.768 24.4208C104.907 24.1986 102.796 24.4208 102.594 20.7971C102.448 18.1459 102.692 9.08081 102.692 9.08081C102.692 8.44775 102.785 8.35207 102.907 8.35207C103.121 8.35207 103.345 8.70929 103.553 8.95429L116.69 24.9962C118.077 26.552 118.163 26.0848 118.135 24.5201C118.044 19.4702 118.206 5.53275 118.206 5.53275C118.246 2.78988 120.822 3.90357 120.822 3.07959C120.822 2.88913 120.7 2.79346 120.516 2.79346C119.778 2.79346 117.657 3.01432 116.613 3.01432C115.629 3.01432 115.047 2.8717 114.126 2.8717C113.943 2.8717 113.785 2.96737 113.788 3.18957C113.802 4.07883 117.106 2.61239 116.991 7.14226L117.024 20.2656C117.024 20.5186 117.006 21.0176 116.563 20.2656L102.809 3.62817C102.624 3.40641 102.348 2.89897 102.01 2.89897C101.549 2.89897 100.027 3.01432 99.5663 3.01432C99.0751 3.01432 98.6141 2.88779 98.1228 2.88779C97.9696 2.88779 97.6334 3.01566 97.6618 3.20433C97.8346 4.31444 101.436 2.99777 101.495 8.18621C101.495 8.18621 101.57 19.9334 101.422 21.2366Z" fill="#00529C"></path><path fill-rule="evenodd" clip-rule="evenodd" d="M122.818 0.306466C122.404 0.427179 121.746 0.948481 121.475 1.12955C121.163 1.33923 121.17 1.68573 121.33 1.98125C122.104 3.40879 122.869 5.76492 120.959 8.59813C120.645 9.06441 120.159 9.2017 120.417 9.39437C120.689 9.59825 121.565 9.02731 121.93 8.67994C123.99 6.73018 124.734 3.40879 123.561 0.992743C123.323 0.501395 123.225 0.187541 122.818 0.306466Z" fill="#00529C"></path><path fill-rule="evenodd" clip-rule="evenodd" d="M125.512 23.3685C125.639 23.935 128.318 25.0433 130.691 25.0433C137.971 25.0433 139.693 21.2315 139.693 18.5914C139.693 10.2452 127.34 13.2997 127.34 7.38921C127.34 4.4988 129.668 3.272 132.201 3.272C135.025 3.272 137.303 5.01698 138.136 7.15362C138.243 7.43169 138.382 8.06029 138.735 8.06029C139.057 8.06029 138.982 7.83363 138.951 7.58189L138.491 3.19018C138.46 2.84369 138.3 2.74981 138.107 2.74981C137.786 2.74981 137.591 3.31 136.992 3.20002C136.55 3.11955 135.776 2.25667 132.46 2.22895C128.77 2.19855 125.626 4.38658 125.626 8.37862C125.626 16.2853 137.634 13.2648 137.693 19.0859C137.723 22.3858 135.534 24.0821 132.486 24.0821C128.062 24.0821 126.11 20.7884 125.726 19.3429C125.565 18.6831 125.496 18.3276 125.152 18.3821C124.837 18.4331 124.867 18.7863 124.996 19.415C124.996 19.415 125.411 20.7705 125.512 23.3685Z" fill="#00529C"></path><path fill-rule="evenodd" clip-rule="evenodd" d="M86.8264 25.6742C94.1299 25.6742 99.2073 21.0115 99.2073 13.7768C99.2073 7.11969 94.0652 2.39355 87.3837 2.39355C80.6682 2.39355 75.3613 7.24845 75.3613 13.9377C75.3613 20.7218 79.7169 25.6742 86.8264 25.6742ZM86.5858 3.66589C92.9726 3.66589 96.8188 9.14584 96.8188 14.9977C96.8188 20.9475 92.7989 24.5864 88.0163 24.5864C81.5299 24.5864 77.7554 18.9527 77.7554 13.0046C77.7554 7.92351 81.0824 3.66589 86.5858 3.66589Z" fill="#00529C"></path><path fill-rule="evenodd" clip-rule="evenodd" d="M67.3595 13.6334C69.4339 12.7499 71.3808 10.7586 71.3808 8.29603C71.3808 2.20226 64.5312 2.52819 64.0567 2.52819C62.5145 2.52819 60.516 2.81254 58.795 2.81254C57.2835 2.81254 56.639 2.64577 56.1054 2.64577C55.7492 2.64577 55.5117 2.83534 55.5117 3.0249C55.5117 4.09836 58.9426 2.50315 58.8555 5.87552V21.9469C58.8555 24.3455 57.127 24.1479 56.7559 24.4215C56.5999 24.5373 56.4346 24.971 56.6125 24.971C57.7389 24.971 59.0031 24.8346 60.13 24.8346C62.5913 24.8346 64.1 24.9522 64.3566 25.022C64.7901 25.1364 64.9899 24.6147 64.5037 24.4497C63.9096 24.2485 61.2442 24.5874 61.1981 21.9787V15.3166C61.1981 15.0001 61.0212 14.4475 61.9697 14.4323C64.9591 14.3863 64.9023 14.1676 65.4164 14.9085C65.4164 14.9085 71.1219 21.6308 74.2249 24.4358C76.9359 26.8872 80.2843 28.5928 82.4463 28.6952C85.363 28.8307 86.9351 28.3595 86.9351 27.9803C86.9351 27.223 84.3904 29.3538 77.4718 24.0272C73.295 20.8126 68.1562 14.7895 67.3595 13.7979C67.2948 13.7196 67.366 13.6454 67.3595 13.6334ZM61.2021 4.70062C61.2021 3.46889 61.9047 3.60078 62.9724 3.60078C65.8794 3.60078 68.8074 4.99346 68.8074 8.84553C68.8074 12.7611 65.7067 13.3593 64.4317 13.3593C63.0381 13.3593 61.1988 13.5172 61.1988 12.9176L61.2021 4.70062Z" fill="#00529C"></path><path fill-rule="evenodd" clip-rule="evenodd" d="M48.2017 13.5926C50.3209 12.7087 52.5383 10.6494 52.5383 8.18685C52.5383 2.09264 45.1886 2.53124 44.7029 2.53124C43.1285 2.53124 41.3419 2.8129 39.585 2.8129C38.0405 2.8129 37.5437 2.65106 36.9984 2.65106C36.6352 2.65106 36.3903 2.84062 36.3926 3.03018C36.3973 3.91363 39.7 2.50352 39.6465 5.87544V21.9473C39.6567 24.4219 37.8556 24.3396 37.227 24.3396C36.4922 24.3396 37.5562 25.0402 37.7378 25.0402C38.8884 25.0402 39.7927 24.7514 40.9438 24.7514C43.4573 24.7514 45.1499 25.0049 45.4186 25.0487C46.1194 25.1623 46.2484 24.6566 45.5755 24.505C44.4892 24.2578 42.0585 24.2846 42.0446 21.6665L42.039 15.3165C42.039 15.0005 41.8573 14.4326 42.8264 14.4326C46.2181 14.4326 45.9583 14.2695 47.0483 16.0381L50.8065 21.6151C51.958 23.415 53.1385 25.025 55.3493 25.025C55.6222 25.025 57.7036 25.0653 57.6845 24.6861C57.665 24.3025 58.071 24.0928 57.1839 24.2296C56.4585 24.3428 55.0718 23.8416 53.6539 21.5838L48.1878 13.7853C48.1016 13.7298 48.2017 13.5926 48.2017 13.5926ZM42.1016 4.74119C42.1016 3.51036 42.7386 3.62034 43.8282 3.57295C46.9942 3.43659 49.8532 4.88336 49.8532 8.735C49.8532 12.6501 46.9811 13.3471 45.6792 13.3471C44.2548 13.3471 42.1049 13.5358 42.1049 12.9358L42.1016 4.74119Z" fill="#00529C"></path><path fill-rule="evenodd" clip-rule="evenodd" d="M32.1302 19.9513C32.4334 20.8267 32.6923 21.8389 32.9698 22.4993C33.5705 23.9286 32.0269 24.4495 31.4267 24.394C30.9406 24.3502 31.0542 25.1898 31.9179 25.04C32.7239 24.8996 33.7511 24.8062 34.5716 24.8062C35.8154 24.8062 36.863 25.04 38.1077 25.04C38.3191 25.04 38.9454 24.5313 38.4029 24.394C38.0183 24.2974 36.8593 24.3113 36.158 23.1202C35.4838 21.9726 35.0121 20.6693 34.5567 19.4698L28.0345 2.76891C27.9437 2.5096 27.7314 1.56982 27.3975 1.56982C27.0035 1.56982 26.9128 2.08845 25.1228 6.17302L17.8718 22.7062C17.0821 24.5545 15.457 23.9496 15.457 24.6305C15.457 24.8254 15.7476 25.04 15.9311 25.04C16.7189 25.04 17.6255 24.8344 18.4441 24.8344C19.2939 24.8344 20.1442 24.8657 21.2613 25.0427C22.0188 25.1621 22.1949 24.542 21.5332 24.394C20.6755 24.2022 19.3884 23.8275 19.57 22.4143C19.8173 20.4959 21.5756 17.1355 21.5756 17.1355C21.8796 16.4555 22.5888 16.2297 23.1643 16.2297H29.8398C30.6886 16.2297 30.8558 16.5463 31.1599 17.2925L32.1302 19.9513ZM26.3979 6.17246C26.5795 5.7835 26.7313 5.7835 26.883 6.17246L30.0397 14.427C30.1915 14.8495 30.2222 15.0762 29.554 15.0762H23.2063C22.8124 15.0762 22.5992 14.9465 22.8124 14.4932L26.3979 6.17246Z" fill="#00529C"></path><path fill-rule="evenodd" clip-rule="evenodd" d="M2.7229 21.3993C2.7229 23.8596 1.62631 24.1515 1.27335 24.2477C0.697358 24.4363 0.0729305 24.2758 0.128808 24.8231C0.159074 25.1056 0.928778 25.0582 1.0885 25.0582C2.56272 25.0582 3.48888 24.9885 4.96217 24.9885C6.05084 24.9885 8.75621 25.2634 9.90819 25.2634C16.1529 25.2634 17.4782 20.7322 17.486 18.3698C17.5 13.8802 12.4539 13.2167 12.4539 12.7437C12.4539 12.5233 15.5988 11.3229 15.5988 8.1047C15.5988 5.76914 14.0585 2.72046 8.42236 2.72046C5.86084 2.72046 5.34258 2.95384 4.06115 2.95384C2.78064 2.95384 0.985123 2.65161 0.344865 2.65161C-0.0397549 2.65161 -0.226943 3.06293 0.458946 3.33833C1.06568 3.5811 2.7229 3.47693 2.7229 5.8751V21.3993ZM5.02443 14.061C5.02443 13.7766 4.86426 13.3345 7.33027 13.3345C14.6953 13.3345 14.8234 17.5174 14.8234 19.536C14.8234 21.4285 14.1831 24.3391 9.26551 24.3936C4.71896 24.4441 5.02443 23.5428 5.02443 21.2707V14.061ZM5.02587 6.12755C5.02587 4.29718 4.86662 3.80046 6.88332 3.76023C10.7402 3.68377 13.4642 5.7511 13.3855 9.15745C13.3418 11.0084 12.0701 12.6161 7.85186 12.5517C4.97092 12.507 5.02587 12.3434 5.02587 11.3325V6.12755Z" fill="#00529C"></path></g><defs><clipPath id="clip0"><rect width="140" height="28.4375" fill="white" transform="translate(0 0.28125)"></rect></clipPath></defs></svg>