<svg xmlns="http://www.w3.org/2000/svg" width="101" height="89" viewBox="0 0 101 89" fill="none"><path d="M50.4131 58.7939H71.217L50.4179 22.5633V0.610596L91.1868 70.4526H50.4102L50.4131 58.7939Z" fill="#0B76FF"></path><path d="M50.4133 58.7939H29.6059L50.405 22.5633V0.610596L9.63672 70.4526H50.4127L50.4133 58.7939Z" fill="#24C1FF"></path><path d="M25.0549 87.6842H21.4785V79.0923H24.9599C25.5896 79.0923 26.0831 79.3008 26.4403 79.7172C26.7976 80.1336 26.9763 80.6552 26.9763 81.2825C26.9763 81.7975 26.8574 82.2331 26.6208 82.5898C26.3836 82.9458 26.0914 83.1675 25.7449 83.2529C26.1273 83.3216 26.4505 83.56 26.7164 83.9681C26.9816 84.3761 27.1143 84.8421 27.1143 85.3661C27.1143 86.0532 26.932 86.6112 26.5676 87.0402C26.2032 87.4703 25.6989 87.6842 25.0549 87.6842ZM24.5172 82.4703C24.7412 82.4703 24.9174 82.3878 25.0447 82.2229C25.172 82.058 25.2359 81.8453 25.2359 81.5837C25.2359 81.316 25.172 81.0997 25.0447 80.9348C24.9174 80.7699 24.7412 80.6875 24.5172 80.6875H23.0886V82.4703H24.5172ZM24.6659 86.1924C24.9288 86.1924 25.1343 86.107 25.2819 85.9343C25.4301 85.7622 25.5041 85.522 25.5041 85.2126C25.5041 84.9383 25.4301 84.7083 25.2819 84.5219C25.1343 84.3361 24.9288 84.2429 24.6659 84.2429H23.0886V86.193H24.6659V86.1924ZM42.7077 87.6842H37.3402V79.0923H42.7077V80.6875H38.7144V82.5139H42.6253V84.1079H38.7144V86.089H42.7077V87.6842ZM60.8218 87.6842H59.1083L58.4774 86.0353H54.5355L53.9045 87.6842H52.1911L55.5661 79.0923H57.4468L60.8218 87.6842ZM57.7838 84.2662L56.5064 80.8805L55.2291 84.2662H57.7838ZM79.2771 87.6842H77.7703V81.3082L75.1296 87.6842H74.4855L71.8573 81.3082V87.6842H70.35V79.0923H72.4757L74.8076 84.7472L77.1519 79.0923H79.2771V87.6842Z" fill="#25C1FF" stroke="#25C1FF"></path><path d="M50.4123 31.7158V55.1371L37.6699 55.161L50.4123 31.7158Z" fill="#39FFF2"></path><path d="M50.4102 31.7158V55.1371L63.1526 55.161L50.4102 31.7158Z" fill="#00E2C2"></path><path d="M0.462891 22.458L50.4127 45.5435V47.959L0.462891 37.0256V22.458Z" fill="url(#paint0_linear)"></path><path d="M100.462 15.7539L50.4102 45.5434V46.3488L100.462 25.3699V15.7539Z" fill="url(#paint1_linear)"></path><path d="M100.462 44.6067L50.4102 47.9614V47.156L100.462 34.9907V44.6067Z" fill="url(#paint2_linear)"></path><path d="M100.462 25.3713L50.4102 46.3502V47.155L100.462 34.9897V25.3713Z" fill="url(#paint3_linear)"></path><defs><linearGradient id="paint0_linear" x1="0.476377" y1="35.2677" x2="27.8289" y2="35.2677" gradientUnits="userSpaceOnUse"><stop stop-color="white" stop-opacity="0"></stop><stop offset="1" stop-color="white"></stop></linearGradient><linearGradient id="paint1_linear" x1="100.153" y1="31.0002" x2="68.3296" y2="31.0002" gradientUnits="userSpaceOnUse"><stop stop-color="#FD76FD" stop-opacity="0"></stop><stop offset="1" stop-color="#FF51FF"></stop></linearGradient><linearGradient id="paint2_linear" x1="100.679" y1="41.4908" x2="74.9043" y2="41.4908" gradientUnits="userSpaceOnUse"><stop stop-color="#9D6EFF" stop-opacity="0"></stop><stop offset="1" stop-color="#A18CFF"></stop></linearGradient><linearGradient id="paint3_linear" x1="100.416" y1="36.3154" x2="70.9593" y2="36.3154" gradientUnits="userSpaceOnUse"><stop stop-color="#AE60D6" stop-opacity="0"></stop><stop offset="1" stop-color="#AB38E6"></stop></linearGradient></defs></svg>