<svg xmlns="http://www.w3.org/2000/svg" width="140" height="29" viewBox="0 0 140 29" fill="none"><path d="M8.56289 12.3263L14.0006 6.88879L19.4411 12.3291L22.6052 9.16511L14.0006 0.560303L5.39887 9.16223L8.56289 12.3263Z" fill="#F3BA2F"></path><path d="M6.32809 14.5599L3.16412 11.3959L0 14.56L3.16397 17.724L6.32809 14.5599Z" fill="#F3BA2F"></path><path d="M8.56301 16.7946L14.0007 22.232L19.441 16.7919L22.6068 19.9542L22.6053 19.9559L14.0007 28.5605L5.39435 19.9544L8.56301 16.7946Z" fill="#F3BA2F"></path><path d="M24.8378 17.7255L28.0019 14.5614L24.838 11.3974L21.6738 14.5616L24.8378 17.7255Z" fill="#F3BA2F"></path><path d="M17.2105 14.5588H17.2119L14.0012 11.3481L10.789 14.5603L10.7934 14.565L14.0012 17.7728L17.2119 14.5621L17.2134 14.5603L17.2105 14.5588Z" fill="#F3BA2F"></path><path d="M32.9351 7.34512H39.8167C41.5247 7.34512 42.8162 7.78345 43.6915 8.66009C44.3689 9.33903 44.7075 10.1805 44.7075 11.1843V11.2268C44.7075 11.651 44.6551 12.0258 44.5496 12.3509C44.4443 12.6764 44.3037 12.9695 44.1278 13.2311C43.9525 13.4929 43.7486 13.7227 43.5168 13.9204C43.2848 14.1186 43.0356 14.2884 42.7686 14.4295C43.6272 14.755 44.303 15.1967 44.7957 15.7553C45.2882 16.3142 45.5348 17.0884 45.5348 18.0781V18.1203C45.5348 18.7993 45.4043 19.393 45.1432 19.9024C44.882 20.4112 44.5078 20.8356 44.0206 21.1751C43.5334 21.5146 42.9476 21.7689 42.2629 21.9387C41.5782 22.1084 40.8194 22.1931 39.9868 22.1931H32.9351V7.34512ZM39.1287 13.3479C39.8501 13.3479 40.4229 13.2245 40.8468 12.9768C41.271 12.7293 41.4831 12.3297 41.4831 11.7783V11.7359C41.4831 11.2412 41.2991 10.863 40.9315 10.6011C40.5638 10.3395 40.0334 10.2086 39.3408 10.2086H36.1166V13.3479H39.1287ZM39.9985 19.3298C40.7197 19.3298 41.2849 19.1993 41.6954 18.9375C42.1054 18.6758 42.3106 18.2692 42.3106 17.7176V17.6754C42.3106 17.1804 42.1196 16.7881 41.7379 16.4979C41.3559 16.2085 40.7409 16.0634 39.8923 16.0634H36.1166V19.33L39.9985 19.3298Z" fill="#F3BA2F"></path><path d="M49.6324 7.34512H52.8992V22.1935H49.6324V7.34512Z" fill="#F3BA2F"></path><path d="M57.8453 7.34512H60.857L67.8146 16.4875V7.34512H71.0388V22.1935H68.2602L61.0693 12.7543V22.1935H57.8453V7.34512Z" fill="#F3BA2F"></path><path d="M80.9293 7.2391H83.9412L90.305 22.1934H86.8898L85.5321 18.8633H79.2534L77.896 22.1934H74.5652L80.9293 7.2391ZM84.3655 15.9781L82.3927 11.1632L80.4204 15.9781H84.3655Z" fill="#F3BA2F"></path><path d="M93.832 7.34512H96.8443L103.802 16.4875V7.34512H107.026V22.1935H104.247L97.0561 12.7543V22.1935H93.832V7.34512Z" fill="#F3BA2F"></path><path d="M118.782 22.4476C117.693 22.4476 116.682 22.2495 115.749 21.8538C114.815 21.4582 114.009 20.917 113.331 20.231C112.652 19.5452 112.121 18.7356 111.74 17.8023C111.358 16.8688 111.167 15.8719 111.167 14.8112V14.769C111.167 13.7084 111.358 12.7152 111.74 11.7888C112.121 10.8626 112.652 10.0494 113.331 9.34945C114.009 8.6495 114.823 8.09773 115.77 7.69479C116.717 7.29185 117.764 7.09038 118.909 7.09038C119.602 7.09038 120.235 7.14721 120.807 7.26C121.38 7.37345 121.9 7.5287 122.367 7.72663C122.834 7.92478 123.264 8.16518 123.661 8.44781C124.056 8.73088 124.424 9.04182 124.764 9.38129L122.685 11.7781C122.105 11.2551 121.515 10.8447 120.914 10.5479C120.312 10.2511 119.637 10.1025 118.888 10.1025C118.266 10.1025 117.689 10.2228 117.159 10.4632C116.629 10.7036 116.173 11.0357 115.791 11.4599C115.409 11.8841 115.112 12.3757 114.9 12.9341C114.688 13.493 114.582 14.0903 114.582 14.7265V14.7688C114.582 15.405 114.688 16.0063 114.9 16.5716C115.112 17.1375 115.405 17.6323 115.781 18.0564C116.155 18.4806 116.608 18.8167 117.138 19.0642C117.669 19.3119 118.252 19.4353 118.888 19.4353C119.737 19.4353 120.454 19.2798 121.041 18.9687C121.628 18.658 122.211 18.2336 122.791 17.6959L124.87 19.796C124.488 20.2062 124.091 20.574 123.682 20.8989C123.272 21.2244 122.823 21.5035 122.335 21.7371C121.847 21.9702 121.313 22.1473 120.733 22.2672C120.153 22.3872 119.503 22.4476 118.782 22.4476Z" fill="#F3BA2F"></path><path d="M128.715 7.34512H139.893V10.2513H131.939V13.2634H138.939V16.1693H131.939V19.2876H140V22.1935H128.715V7.34512Z" fill="#F3BA2F"></path></svg>