<svg xmlns="http://www.w3.org/2000/svg" width="141" height="29" viewBox="0 0 141 29" fill="none"><path d="M8.725 12.3263L14.1627 6.88879L19.6033 12.3291L22.7673 9.16511L14.1627 0.560303L5.56098 9.16223L8.725 12.3263Z" fill="#051B52"></path><path d="M6.4902 14.5599L3.32623 11.3959L0.162109 14.56L3.32608 17.724L6.4902 14.5599Z" fill="#051B52"></path><path d="M8.72512 16.7946L14.1628 22.232L19.6031 16.7919L22.7689 19.9542L22.7674 19.9559L14.1628 28.5605L5.55646 19.9544L8.72512 16.7946Z" fill="#051B52"></path><path d="M24.9999 17.7255L28.164 14.5614L25.0001 11.3974L21.836 14.5616L24.9999 17.7255Z" fill="#051B52"></path><path d="M17.3727 14.5588H17.374L14.1633 11.3481L10.9511 14.5603L10.9555 14.565L14.1633 17.7728L17.374 14.5621L17.3755 14.5603L17.3727 14.5588Z" fill="#051B52"></path><path d="M33.0972 7.34512H39.9788C41.6868 7.34512 42.9783 7.78345 43.8536 8.66009C44.531 9.33903 44.8696 10.1805 44.8696 11.1843V11.2268C44.8696 11.651 44.8172 12.0258 44.7117 12.3509C44.6064 12.6764 44.4658 12.9695 44.29 13.2311C44.1146 13.4929 43.9107 13.7227 43.6789 13.9204C43.4469 14.1186 43.1977 14.2884 42.9308 14.4295C43.7893 14.755 44.4651 15.1967 44.9578 15.7553C45.4503 16.3142 45.6969 17.0884 45.6969 18.0781V18.1203C45.6969 18.7993 45.5664 19.393 45.3053 19.9024C45.0441 20.4112 44.6699 20.8356 44.1827 21.1751C43.6955 21.5146 43.1097 21.7689 42.425 21.9387C41.7403 22.1084 40.9815 22.1931 40.1489 22.1931H33.0972V7.34512ZM39.2908 13.3479C40.0122 13.3479 40.585 13.2245 41.0089 12.9768C41.4331 12.7293 41.6452 12.3297 41.6452 11.7783V11.7359C41.6452 11.2412 41.4612 10.863 41.0936 10.6011C40.7259 10.3395 40.1955 10.2086 39.5029 10.2086H36.2787V13.3479H39.2908ZM40.1606 19.3298C40.8818 19.3298 41.447 19.1993 41.8575 18.9375C42.2675 18.6758 42.4727 18.2692 42.4727 17.7176V17.6754C42.4727 17.1804 42.2817 16.7881 41.9 16.4979C41.518 16.2085 40.903 16.0634 40.0544 16.0634H36.2787V19.33L40.1606 19.3298Z" fill="#051B52"></path><path d="M49.7945 7.34512H53.0614V22.1935H49.7945V7.34512Z" fill="#051B52"></path><path d="M58.0074 7.34512H61.0191L67.9767 16.4875V7.34512H71.2009V22.1935H68.4224L61.2314 12.7543V22.1935H58.0074V7.34512Z" fill="#051B52"></path><path d="M81.0914 7.2391H84.1033L90.4671 22.1934H87.0519L85.6942 18.8633H79.4155L78.0581 22.1934H74.7273L81.0914 7.2391ZM84.5277 15.9781L82.5548 11.1632L80.5825 15.9781H84.5277Z" fill="#051B52"></path><path d="M93.9941 7.34512H97.0064L103.964 16.4875V7.34512H107.188V22.1935H104.409L97.2183 12.7543V22.1935H93.9941V7.34512Z" fill="#051B52"></path><path d="M118.944 22.4476C117.855 22.4476 116.844 22.2495 115.911 21.8538C114.977 21.4582 114.171 20.917 113.493 20.231C112.814 19.5452 112.283 18.7356 111.902 17.8023C111.52 16.8688 111.329 15.8719 111.329 14.8112V14.769C111.329 13.7084 111.52 12.7152 111.902 11.7888C112.283 10.8626 112.814 10.0494 113.493 9.34945C114.171 8.6495 114.985 8.09773 115.932 7.69479C116.879 7.29185 117.926 7.09038 119.072 7.09038C119.764 7.09038 120.397 7.14721 120.969 7.26C121.542 7.37345 122.062 7.5287 122.529 7.72663C122.996 7.92478 123.426 8.16518 123.823 8.44781C124.218 8.73088 124.586 9.04182 124.926 9.38129L122.847 11.7781C122.267 11.2551 121.677 10.8447 121.076 10.5479C120.475 10.2511 119.8 10.1025 119.05 10.1025C118.428 10.1025 117.851 10.2228 117.322 10.4632C116.791 10.7036 116.335 11.0357 115.953 11.4599C115.572 11.8841 115.275 12.3757 115.062 12.9341C114.85 13.493 114.744 14.0903 114.744 14.7265V14.7688C114.744 15.405 114.85 16.0063 115.062 16.5716C115.275 17.1375 115.567 17.6323 115.943 18.0564C116.317 18.4806 116.77 18.8167 117.3 19.0642C117.831 19.3119 118.414 19.4353 119.05 19.4353C119.899 19.4353 120.616 19.2798 121.203 18.9687C121.79 18.658 122.373 18.2336 122.953 17.6959L125.032 19.796C124.65 20.2062 124.253 20.574 123.844 20.8989C123.434 21.2244 122.985 21.5035 122.497 21.7371C122.009 21.9702 121.475 22.1473 120.896 22.2672C120.315 22.3872 119.665 22.4476 118.944 22.4476Z" fill="#051B52"></path><path d="M128.877 7.34512H140.056V10.2513H132.101V13.2634H139.101V16.1693H132.101V19.2876H140.162V22.1935H128.877V7.34512Z" fill="#051B52"></path></svg>