<svg xmlns="http://www.w3.org/2000/svg" width="140" height="19" viewBox="0 0 140 19" fill="none"><path fill-rule="evenodd" clip-rule="evenodd" d="M26.0489 13.8236C26.0489 10.9981 28.3394 8.70764 31.1648 8.70764C33.9902 8.70764 36.2807 10.9981 36.2807 13.8236C36.2807 16.649 33.9902 18.9395 31.1648 18.9395C28.3394 18.9395 26.0489 16.649 26.0489 13.8236ZM31.1648 9.84598C28.968 9.84598 27.1872 11.6268 27.1872 13.8236C27.1872 16.0203 28.968 17.8011 31.1648 17.8011C33.3616 17.8011 35.1424 16.0203 35.1424 13.8236C35.1424 11.6268 33.3616 9.84598 31.1648 9.84598Z" fill="#151A23"></path><path d="M15.6338 8.90524V17.5003H20.4186V18.6386H14.4954V8.90524H15.6338Z" fill="#151A23"></path><path fill-rule="evenodd" clip-rule="evenodd" d="M4.62362 8.90996H0V18.6376H4.9501C6.45967 18.6376 7.68341 17.4138 7.68341 15.9043C7.68341 14.9428 7.18702 14.0973 6.43655 13.6101C6.98123 13.1162 7.32331 12.4029 7.32331 11.6097C7.32331 10.1187 6.11461 8.90996 4.62362 8.90996ZM1.13834 14.3093H4.62361L4.6428 14.3093H4.9501C5.83098 14.3093 6.54508 15.0234 6.54508 15.9043C6.54508 16.7851 5.83098 17.4992 4.9501 17.4992H1.13834V14.3093ZM4.63821 13.1709C5.4938 13.1631 6.18497 12.4671 6.18497 11.6097C6.18497 10.7473 5.48593 10.0483 4.62362 10.0483H1.13834V13.1709H4.63821Z" fill="#151A23"></path><path fill-rule="evenodd" clip-rule="evenodd" d="M139.823 11.8576C139.823 10.2297 138.503 8.90996 136.875 8.90996H132.639V18.6513H133.778V14.8052H135.934L138.613 18.6513H140L137.3 14.7748C138.727 14.5689 139.823 13.3413 139.823 11.8576ZM136.875 13.6669C137.874 13.6669 138.684 12.8568 138.684 11.8576C138.684 10.8583 137.874 10.0483 136.875 10.0483H133.778V13.6669H136.875Z" fill="#151A23"></path><path d="M59.3469 8.90524V13.9113L63.9989 8.90524H65.5528L61.2681 13.516L65.8372 18.6721H64.3162L60.4896 14.3538L59.3469 15.5835V18.6721H58.2085V8.90524H59.3469Z" fill="#151A23"></path><path d="M79.0615 8.90524H71.5617V10.0436H74.7424V18.6707H75.8808V10.0436H79.0615V8.90524Z" fill="#151A23"></path><path fill-rule="evenodd" clip-rule="evenodd" d="M89.808 8.70764C86.9825 8.70764 84.6921 10.9981 84.6921 13.8236C84.6921 16.649 86.9825 18.9395 89.808 18.9395C92.6334 18.9395 94.9239 16.649 94.9239 13.8236C94.9239 10.9981 92.6334 8.70764 89.808 8.70764ZM85.8304 13.8236C85.8304 11.6268 87.6112 9.84598 89.808 9.84598C92.0048 9.84598 93.7856 11.6268 93.7856 13.8236C93.7856 16.0203 92.0048 17.8011 89.808 17.8011C87.6112 17.8011 85.8304 16.0203 85.8304 13.8236Z" fill="#151A23"></path><path d="M106.538 8.88995L104.145 17.0439L101.832 8.88995H100.533L103.299 18.6406H104.704L107.04 10.7672L109.375 18.6406H110.78L113.546 8.88995H112.258L109.945 17.0439L107.516 8.88995H106.538Z" fill="#151A23"></path><path d="M43.7859 13.8236C43.7859 11.6268 45.5667 9.84598 47.7635 9.84598C48.9689 9.84598 50.0486 10.3815 50.7789 11.2295L51.6415 10.4867C50.7041 9.39824 49.3142 8.70764 47.7635 8.70764C44.938 8.70764 42.6476 10.9981 42.6476 13.8236C42.6476 16.649 44.938 18.9395 47.7635 18.9395C49.3533 18.9395 50.774 18.2137 51.7114 17.0774L50.8334 16.353C50.1029 17.2384 48.9992 17.8011 47.7635 17.8011C45.5667 17.8011 43.7859 16.0203 43.7859 13.8236Z" fill="#151A23"></path><path d="M100.38 0.136477L126.529 0.136475V1.27481L100.38 1.27481V0.136477Z" fill="#AFE135"></path><path d="M89.8086 0.136477H92.3437V1.27481L89.8086 1.27481V0.136477Z" fill="#AFE135"></path><path d="M106.381 4.52335H108.916L108.916 5.66169H106.381V4.52335Z" fill="#AFE135"></path><path d="M111.11 4.52335L126.529 4.52335V5.66169L111.11 5.66169V4.52335Z" fill="#AFE135"></path><path d="M118.619 14.3926L118.967 13.2543L126.529 13.2543V14.3926L118.619 14.3926Z" fill="#AFE135"></path><path d="M120.294 8.913L126.529 8.913V10.0513L119.946 10.0513L120.294 8.913Z" fill="#AFE135"></path><path d="M117.324 18.6336L117.671 17.4953L126.529 17.4953V18.6336H117.324Z" fill="#AFE135"></path><path d="M98.4973 0.136477H94.2263V1.27481L98.4973 1.27481V0.136477Z" fill="#AFE135"></path></svg>