<svg xmlns="http://www.w3.org/2000/svg" width="140" height="29" viewBox="0 0 140 29" fill="none"><g clip-path="url(#clip0)"><path d="M3.68521 3.64606H6.72782C9.50864 3.64606 10.7341 4.52478 10.7341 6.30975C10.7341 7.86092 9.50864 8.91417 7.04888 8.91417H3.68521V3.64606ZM0 21.1971H7.45721C11.3762 21.1971 15.2952 19.7971 15.2952 15.2906C15.2952 12.6269 13.4276 10.582 10.8251 10.2861V10.2246C12.9545 9.58663 14.423 8.03592 14.423 5.69516C14.423 1.92082 11.2017 0.488647 8.0718 0.488647H0V21.1971ZM3.68521 12.0716H7.22341C10.2063 12.0716 11.6151 12.8332 11.6151 14.9994C11.6151 17.7158 8.97665 18.0397 7.07642 18.0397H3.68521V12.0716Z" fill="#051B52"></path><path d="M19.4629 21.1971V6.10352e-05" stroke="#051B52" stroke-width="3.49994" stroke-miterlimit="10"></path><path d="M27.0712 14.1781C27.0712 11.9843 28.6224 9.96787 31.197 9.96787C33.7715 9.96787 35.318 11.9848 35.318 14.1781C35.318 16.3714 33.7715 18.3887 31.197 18.3887C28.6219 18.3887 27.0712 16.3718 27.0712 14.1781ZM23.5605 14.1781C23.5605 18.595 26.9518 21.5461 31.197 21.5461C35.437 21.5461 38.8334 18.5955 38.8334 14.1781C38.8334 9.76067 35.4375 6.80579 31.197 6.80579C26.9518 6.80532 23.5605 9.76114 23.5605 14.1781Z" fill="#051B52"></path><path d="M43.9267 14.1781C43.9267 11.9843 45.4779 9.96787 48.0524 9.96787C50.627 9.96787 52.1735 11.9848 52.1735 14.1781C52.1735 16.3714 50.627 18.3887 48.0524 18.3887C45.4779 18.3887 43.9267 16.3718 43.9267 14.1781ZM40.416 14.1781C40.416 18.595 43.8077 21.5461 48.0524 21.5461C52.2925 21.5461 55.6888 18.5955 55.6888 14.1781C55.6888 9.76067 52.2929 6.80579 48.0524 6.80579C43.8072 6.80532 40.416 9.76114 40.416 14.1781Z" fill="#051B52"></path><path d="M57.8281 7.15673H61.1643V9.35282H61.2193C61.8344 8.03591 63.1788 6.80347 65.5191 6.80347C67.6854 6.80347 69.1815 7.64999 69.9109 9.40789C70.9342 7.62712 72.4257 6.80347 74.5275 6.80347C78.272 6.80347 79.5898 9.46949 79.5898 12.8336V21.1976H76.0792V13.242C76.0792 11.4887 75.556 9.96741 73.4771 9.96741C71.2838 9.96741 70.462 11.7799 70.462 13.5906V21.1971H66.956V12.8332C66.956 11.1028 66.2537 9.96741 64.5559 9.96741C62.2474 9.96741 61.3388 11.6586 61.3388 13.5332V21.1971H57.8281V7.15673Z" fill="#051B52"></path><path d="M94.0767 14.1781C94.0767 16.3742 92.5302 18.3888 89.951 18.3888C87.376 18.3888 85.8253 16.3742 85.8253 14.1781C85.8253 11.9843 87.376 9.96276 89.951 9.96276C92.5302 9.96276 94.0767 11.9843 94.0767 14.1781ZM82.4341 21.1971H85.7702V19.0925H85.8253C86.8528 20.7836 88.6934 21.5457 90.6571 21.5457C94.9802 21.5457 97.5869 18.3286 97.5869 14.1776C97.5869 10.0244 94.8061 6.80535 90.7999 6.80535C88.1698 6.80535 86.7614 8.03079 86.0315 8.94405H85.9443V6.10352e-05H82.4336V21.1971H82.4341Z" fill="#051B52"></path><path d="M102.686 12.7739C102.948 10.7523 104.238 9.43774 106.312 9.43774C108.506 9.43774 109.85 10.7253 109.882 12.7739H102.686ZM113.393 15.4058V14.4422C113.393 9.55487 110.732 6.80579 106.812 6.80579C102.563 6.80579 99.1758 9.76114 99.1758 14.1781C99.1758 18.595 102.563 21.5461 106.812 21.5461C109.029 21.5461 111.112 20.757 112.746 18.742L110.231 16.8446C109.355 17.9211 108.212 18.742 106.458 18.742C104.499 18.742 102.916 17.4825 102.686 15.4058H113.393Z" fill="#051B52"></path><path d="M115.678 7.15673H119.189V9.38036H119.249C120.01 7.77178 121.557 6.80347 123.401 6.80347C123.842 6.80347 124.25 6.89307 124.659 7.01206V10.4037C124.076 10.2591 123.516 10.1419 122.96 10.1419C119.656 10.1419 119.188 12.9228 119.188 13.6848V21.1976H115.678V7.15673H115.678Z" fill="#051B52"></path><path d="M132.512 9.96741C135.054 9.96741 136.664 11.6586 136.664 14.0927C136.664 16.4288 135.086 18.2137 132.484 18.2137C130.116 18.2137 128.358 16.3714 128.358 14.1477C128.358 11.6586 130.051 9.96741 132.512 9.96741ZM136.664 7.15673V9.26323H136.609C135.582 7.56505 133.737 6.80347 131.778 6.80347C127.45 6.80347 124.848 10.0225 124.848 14.1781C124.848 18.1521 127.628 21.3716 131.837 21.3716C133.595 21.3716 135.407 20.7015 136.436 19.3272H136.486V20.3529C136.486 23.1291 135.439 25.0615 132.044 25.0615C130.084 25.0615 128.62 24.327 127.215 23.0329L125.114 25.9052C127.096 27.6673 129.469 28.2184 132.075 28.2184C137.546 28.2184 140.001 24.9971 140.001 19.9394V7.15673H136.664Z" fill="#051B52"></path></g><defs><clipPath id="clip0"><rect width="140" height="28.2184" fill="white"></rect></clipPath></defs></svg>