<svg xmlns="http://www.w3.org/2000/svg" width="140" height="56" viewBox="0 0 140 56" fill="none"><path d="M34.776 55.9102C25.8253 55.9102 16.8746 55.9102 7.92394 55.9102C3.31003 55.905 0 52.5898 0 47.9243C0 34.8924 0 21.8614 0 8.83127C0 4.11666 3.53983 0.569092 8.26218 0.569092C25.9329 0.569092 43.6079 0.569092 61.2873 0.569092C66.2833 0.569092 69.7121 3.97982 69.7328 9.00684C69.756 18.5987 69.7328 28.1906 69.7328 37.7825C69.7328 41.0951 69.7018 44.4077 69.7328 47.7177C69.7896 52.8144 65.8728 56.0574 61.4706 55.9644C52.5862 55.7759 43.6811 55.9102 34.776 55.9102ZM51.5999 27.1088C51.7161 26.5743 52.0207 26.5924 52.2454 26.5072C55.4211 25.2756 57.4092 22.2005 57.2827 18.6891C57.151 14.8472 55.2352 12.1749 51.7858 11.1318C50.8359 10.8605 49.8639 10.6738 48.8811 10.5741C48.0626 10.4785 47.7709 10.0835 47.7915 9.30634C47.8148 8.36136 47.7915 7.41379 47.7915 6.46622C47.7915 5.63226 47.2751 5.49541 46.5961 5.49541C45.917 5.49541 45.5633 5.77943 45.5788 6.49462C45.5969 7.43961 45.5349 8.38976 45.5788 9.33474C45.6434 10.525 44.8765 10.4863 44.0581 10.494C43.2396 10.5018 42.4934 10.4656 42.5657 9.30118C42.6199 8.40267 42.5502 7.49383 42.5657 6.59273C42.5889 5.83623 42.2894 5.498 41.5097 5.49025C40.7299 5.4825 40.2962 5.78201 40.3401 6.62372C40.3633 7.09621 40.3401 7.5687 40.3401 8.04378C40.3401 10.8581 40.3736 10.5302 37.9027 10.4579C36.6118 10.4192 36.2116 10.7961 36.2193 12.1206C36.2735 22.0998 36.2477 32.079 36.2477 42.071C36.2477 45.0196 36.2477 45.0454 39.2144 45.2442C40.0612 45.301 40.3401 45.6806 40.322 46.4603C40.3013 47.4492 40.3349 48.4381 40.322 49.427C40.322 50.2842 40.8384 50.3642 41.5226 50.3719C42.2068 50.3797 42.5554 50.1318 42.5554 49.3986C42.5321 48.3658 42.576 47.333 42.5554 46.3002C42.5296 45.1539 43.3299 45.2675 44.0684 45.2675C44.8068 45.2675 45.5891 45.2132 45.5504 46.3415C45.5168 47.3304 45.5737 48.3219 45.5504 49.3082C45.5272 50.0828 45.8267 50.3823 46.609 50.3874C47.3913 50.3926 47.8173 50.1292 47.7838 49.2772C47.7476 48.3761 47.8096 47.4699 47.7838 46.5688C47.758 45.6677 48.0291 45.2546 48.9947 45.1616C50.8769 44.986 52.7359 44.6452 54.4891 43.8551C59.5367 41.5469 61.0084 34.16 57.2646 30.047C55.7232 28.3532 53.73 27.6561 51.5999 27.1088Z" fill="#2C3E50"></path><path d="M114.196 30.3258C114.196 28.5185 114.196 26.9693 114.196 25.4357C114.196 25.0174 114.209 24.4778 114.813 24.4933C115.417 24.5087 115.412 25.051 115.412 25.4666C115.429 27.4874 115.429 29.5091 115.412 31.5316C115.412 31.9576 115.376 32.4353 114.821 32.5463C114.318 32.647 114.028 32.3372 113.788 31.9421C112.744 30.1082 111.588 28.3398 110.328 26.6466C110.328 28.2241 110.341 29.7991 110.328 31.3767C110.328 31.813 110.47 32.4714 109.771 32.4637C109.071 32.4559 109.216 31.8104 109.216 31.3689C109.195 29.4325 109.2 27.496 109.216 25.5622C109.216 25.1 109.143 24.563 109.791 24.4313C110.383 24.3125 110.778 24.6094 111.067 25.0948L114.196 30.3258Z" fill="#2C3E50"></path><path d="M104.607 42.6546C104.607 41.6657 104.607 40.6768 104.607 39.6879C104.607 39.1922 104.692 38.6784 105.307 38.6267C106.944 38.4873 108.635 38.3195 109.923 39.6337C111.144 40.8782 111.343 42.4325 110.907 44.0746C110.421 45.8975 109.231 46.8373 107.364 46.845C104.292 46.845 104.615 47.1239 104.594 44.0772C104.594 43.6047 104.594 43.1322 104.594 42.6571L104.607 42.6546ZM109.784 42.5693C109.819 41.8674 109.612 41.1745 109.198 40.6071C108.488 39.675 107.463 39.6853 106.497 39.91C105.629 40.1139 105.962 40.966 105.937 41.5572C105.89 42.59 105.937 43.6228 105.924 44.6555C105.906 45.4301 106.244 45.7064 107.006 45.7245C108.813 45.7529 109.758 44.8027 109.784 42.5797V42.5693Z" fill="#2C3E50"></path><path d="M78.5139 32.585C76.3812 32.6212 76.3787 32.6212 76.3787 30.5195C76.3787 28.8464 76.3787 27.163 76.3787 25.5028C76.3787 24.8651 76.531 24.3926 77.272 24.3693C78.3048 24.3358 79.3376 24.2557 80.3419 24.5242C81.7852 24.9089 82.3636 26.187 81.6587 27.5115C81.4289 27.9427 81.2224 28.219 81.589 28.7509C82.88 30.6202 82.0615 32.3088 79.7997 32.5773C79.3716 32.6051 78.9423 32.6077 78.5139 32.585ZM78.723 31.5084C79.8513 31.4619 80.8299 31.4593 80.9926 30.2535C81.1191 29.3266 80.2645 28.8257 78.8676 28.7689C77.8555 28.7276 77.5173 29.102 77.5199 30.109C77.5225 31.1159 77.8116 31.6968 78.723 31.5187V31.5084ZM78.9399 25.4434C78.1189 25.3685 77.5095 25.4692 77.5276 26.5433C77.5431 27.3979 77.6825 27.9737 78.7127 27.8601C79.6009 27.762 80.6879 27.8188 80.7137 26.5949C80.7395 25.5002 79.7481 25.5054 78.9399 25.4537V25.4434Z" fill="#2C3E50"></path><path d="M138.908 44.2037C138.908 42.701 138.908 41.1958 138.908 39.6931C138.908 39.2826 138.856 38.7274 139.497 38.7584C140.031 38.7868 139.987 39.2748 139.99 39.6569C140.003 41.6794 140.003 43.702 139.99 45.7245C139.99 46.1453 140.034 46.6359 139.473 46.7753C138.913 46.9147 138.619 46.5171 138.368 46.0885C137.375 44.4275 136.384 42.7656 135.394 41.1028C135.314 40.9686 135.216 40.8446 135.035 40.5864C135.035 42.2982 135.056 43.8319 135.035 45.363C135.035 45.8794 135.211 46.6927 134.428 46.6798C133.716 46.6798 133.958 45.8845 133.951 45.4198C133.92 43.6124 133.922 41.8051 133.951 39.9977C133.951 39.5227 133.736 38.8798 134.436 38.6861C135.136 38.4925 135.526 39.0063 135.848 39.5459C136.79 41.1261 137.737 42.7053 138.688 44.2838L138.908 44.2037Z" fill="#2C3E50"></path><path d="M88.4595 42.7836C88.3407 43.3697 88.2581 43.9688 88.0929 44.5445C87.9217 45.1924 87.559 45.7735 87.0524 46.2121C86.5457 46.6506 85.9185 46.9261 85.2528 47.0025C83.9954 47.1161 82.8077 46.4164 82.1777 45.0764C81.3721 43.3646 81.4031 41.6605 82.4359 40.0261C83.1046 38.9443 84.0676 38.4021 85.356 38.508C86.6444 38.6138 87.4732 39.3858 87.987 40.509C88.2899 41.2296 88.4504 42.002 88.4595 42.7836ZM87.0472 42.3964C87.0451 42.0992 87.0166 41.8029 86.962 41.5108C86.7399 40.5322 86.2984 39.7034 85.1546 39.6518C83.9515 39.6027 83.4015 40.3773 83.1407 41.4333C82.8655 42.524 82.9395 43.6737 83.3524 44.7201C83.4687 45.0483 83.6801 45.3344 83.9597 45.5418C84.2393 45.7492 84.5745 45.8686 84.9223 45.8845C85.6659 45.9388 86.239 45.5515 86.6134 44.9086C87.011 44.2037 87.0575 43.4291 87.0472 42.3964Z" fill="#2C3E50"></path><path d="M101.95 44.2941C101.95 42.8869 101.924 41.4798 101.966 40.0726C101.979 39.6156 101.674 38.8256 102.389 38.7946C103.146 38.7636 102.862 39.5691 102.872 40.0107C102.908 41.7715 102.908 43.5324 102.872 45.2933C102.872 45.8097 103.13 46.5326 102.405 46.7366C101.679 46.9406 101.41 46.197 101.114 45.7038C100.117 44.0695 99.1564 42.4144 97.9197 40.8317C97.9197 42.3989 97.9326 43.9662 97.9197 45.5334C97.9197 45.9749 98.0617 46.6591 97.4266 46.6824C96.6649 46.7108 96.8482 45.9723 96.843 45.505C96.8198 43.6589 96.8224 41.8128 96.843 39.9642C96.843 39.4762 96.7036 38.8669 97.3827 38.6732C98.1133 38.4589 98.48 38.9314 98.8027 39.4839C99.7529 41.1106 100.719 42.7268 101.679 44.3457L101.95 44.2941Z" fill="#2C3E50"></path><path d="M89.6265 14.1475C89.6265 13.7602 89.6265 13.3729 89.6265 12.9882C89.6472 9.76334 89.3219 10.1481 92.5596 10.1222C93.1173 10.1222 93.6776 10.1222 94.2327 10.1558C94.6071 10.179 94.9247 10.3391 94.8756 10.7858C94.8343 11.1705 94.5141 11.2247 94.2017 11.2325C93.471 11.2454 92.7403 11.2738 92.0122 11.2325C91.2118 11.1989 90.9795 11.5888 90.9795 12.3324C90.9795 13.076 91.1783 13.4942 91.989 13.4813C92.5066 13.4755 93.0241 13.5031 93.5382 13.5639C93.669 13.5663 93.7934 13.6206 93.8842 13.7148C93.975 13.809 94.0247 13.9353 94.0223 14.0661C94.0199 14.1969 93.9656 14.3214 93.8715 14.4122C93.7773 14.503 93.6509 14.5526 93.5201 14.5502C93.1366 14.5992 92.7494 14.6131 92.3634 14.5916C91.4055 14.5038 90.9614 14.8084 90.9691 15.8825C90.9769 16.9566 91.5243 17.1735 92.4254 17.1425C93.0688 17.1265 93.7127 17.1455 94.3541 17.1993C94.6587 17.22 94.9582 17.3387 94.9944 17.7157C95.0061 17.7919 95.0006 17.8698 94.9782 17.9436C94.9559 18.0175 94.9173 18.0854 94.8653 18.1423C94.8133 18.1993 94.7492 18.2439 94.6777 18.2728C94.6062 18.3017 94.5292 18.3143 94.4522 18.3095C93.0848 18.4503 91.7066 18.4503 90.3392 18.3095C89.7247 18.245 89.6575 17.7312 89.6524 17.2406C89.6524 16.2078 89.6524 15.1751 89.6524 14.1423L89.6265 14.1475Z" fill="#2C3E50"></path><path d="M129.226 38.5002C131.216 38.4718 132.763 40.3954 132.683 42.7991C132.603 45.2029 131.067 47.0774 129.202 47.0283C127.263 46.9793 125.931 45.1926 125.952 42.67C125.972 40.1475 127.274 38.5235 129.226 38.5002ZM131.392 42.6907C131.392 40.8834 130.563 39.6466 129.326 39.6311C128.061 39.6156 127.199 40.7878 127.145 42.5978C127.09 44.4077 128.1 45.9336 129.295 45.9129C130.491 45.8923 131.389 44.5445 131.392 42.6907Z" fill="#2C3E50"></path><path d="M98.3225 28.4204C98.2759 27.7918 98.3699 27.1607 98.5977 26.573C98.8255 25.9852 99.1813 25.4556 99.6393 25.0226C101.243 23.5276 103.726 24.266 104.656 26.4633C105.431 28.3171 104.914 30.9507 103.553 32.0351C102.549 32.8277 101.429 32.9104 100.287 32.4043C98.9938 31.8337 98.3199 30.4446 98.3225 28.4204ZM103.763 28.4668C103.763 26.6595 102.936 25.4279 101.697 25.3944C100.458 25.3608 99.5747 26.5614 99.5231 28.3687C99.4714 30.1761 100.334 31.5368 101.589 31.5626C102.843 31.5884 103.76 30.3542 103.763 28.4668Z" fill="#2C3E50"></path><path d="M82.1054 14.2172C82.1054 13.1457 82.1054 12.0716 82.1054 11.0001C82.1054 10.6412 82.1777 10.2797 82.6218 10.2513C83.1614 10.2178 83.2259 10.618 83.2466 11.0259C83.2466 11.2402 83.2466 11.4545 83.2466 11.6688C83.2698 13.4426 83.2698 13.4426 85.0126 13.44C86.6728 13.44 86.6625 13.44 86.7296 11.4777C86.7477 10.9614 86.536 10.2023 87.4087 10.2384C88.1264 10.2668 88.0438 10.951 88.049 11.4416C88.0714 13.335 88.0714 15.2224 88.049 17.1038C88.049 17.5866 88.1419 18.2605 87.3699 18.245C86.5979 18.2295 86.7683 17.5608 86.727 17.078C86.7064 16.8198 86.727 16.5616 86.727 16.3034C86.727 14.5941 86.727 14.5941 85.0255 14.5916C83.2595 14.5916 83.3008 14.5916 83.2182 16.4867C83.1975 17.078 83.6855 18.1417 82.7018 18.1701C81.7181 18.1985 82.1648 17.1244 82.1002 16.528C82.0515 15.7544 82.0446 14.9787 82.0796 14.2043L82.1054 14.2172Z" fill="#2C3E50"></path><path d="M92.7765 28.5598C92.8049 29.1149 92.7558 29.6752 92.9908 30.2071C93.298 30.9042 93.6802 31.498 94.54 31.5523C94.9041 31.6045 95.2753 31.5355 95.5964 31.3559C95.9174 31.1762 96.1704 30.8959 96.3163 30.5582C96.5177 30.1528 96.7294 29.5538 97.3491 29.9127C98.0126 30.3078 97.535 30.8422 97.3 31.245C97.056 31.6635 96.7135 32.0162 96.3023 32.2725C95.8912 32.5288 95.4237 32.6809 94.9405 32.7158C94.4573 32.7506 93.9728 32.6671 93.5292 32.4725C93.0855 32.2778 92.696 31.9779 92.3944 31.5987C91.0905 29.9411 91.013 27.2585 92.242 25.5596C93.0321 24.4674 94.1527 24.1292 95.4256 24.3513C95.9194 24.4239 96.3821 24.6363 96.7591 24.9634C97.136 25.2905 97.4116 25.7187 97.5531 26.1973C97.6538 26.4943 97.7286 26.7938 97.3956 26.9926C97.109 27.163 96.7785 27.1888 96.6003 26.8712C96.0323 25.8617 95.3507 24.9942 94.0597 25.5802C92.7687 26.1663 92.7765 27.3773 92.7765 28.5598Z" fill="#2C3E50"></path><path d="M89.5594 42.0297C89.5594 41.1699 89.5594 40.3102 89.5594 39.4478C89.5594 39.0244 89.6704 38.6577 90.2049 38.6913C90.6619 38.7197 90.7213 39.0708 90.7368 39.4297C90.7368 40.8472 90.7368 42.2698 90.7626 43.6822C90.7962 45.2081 91.2583 45.7477 92.4486 45.7477C93.6905 45.7477 94.1862 45.159 94.2069 43.6021C94.225 42.2698 94.2069 40.9376 94.2224 39.6079C94.2224 39.2438 94.1423 38.7455 94.7026 38.7171C95.2629 38.6887 95.2861 39.1638 95.2861 39.5433C95.2861 41.2577 95.4669 42.9825 95.1596 44.6865C94.873 46.2667 93.706 47.1342 92.1155 47.0103C90.525 46.8863 89.6343 45.9775 89.5646 44.3354C89.5336 43.5789 89.5594 42.8043 89.5594 42.0297Z" fill="#2C3E50"></path><path d="M78.9864 38.5958C79.5441 38.5958 80.1044 38.5751 80.6595 38.5958C81.0184 38.6138 81.3566 38.7481 81.3644 39.1896C81.3721 39.6311 81.0468 39.7809 80.6802 39.8015C79.952 39.8402 79.2214 39.8454 78.4907 39.8506C77.8529 39.8506 77.5638 40.1527 77.5586 40.8007C77.5534 41.4488 77.729 41.8903 78.4778 41.9006C79.0355 41.9006 79.5932 41.9264 80.1483 41.9755C80.2234 41.9746 80.2978 41.9901 80.3663 42.0209C80.4348 42.0517 80.4958 42.0971 80.5449 42.1539C80.5941 42.2106 80.6303 42.2775 80.6509 42.3497C80.6716 42.4219 80.6763 42.4977 80.6647 42.5719C80.6285 42.8843 80.3858 42.9747 80.1095 43.0005C80.0665 42.9984 80.0235 42.9984 79.9804 43.0005C79.2059 43.1554 78.2196 42.6132 77.698 43.393C77.2797 44.0204 77.6051 44.9034 77.5405 45.6702C77.5044 46.1195 77.6231 46.7495 76.9157 46.703C76.2083 46.6565 76.3838 46.024 76.3787 45.5876C76.358 43.8268 76.3658 42.0659 76.3787 40.305C76.3787 38.5932 76.42 38.5596 78.0853 38.539C78.3848 38.539 78.6869 38.539 78.9864 38.539V38.5958Z" fill="#2C3E50"></path><path d="M88.4802 24.3797C89.167 24.3797 89.8563 24.3616 90.5457 24.3797C90.8969 24.3797 91.2532 24.4803 91.2945 24.927C91.3091 25.0141 91.3027 25.1034 91.2755 25.1874C91.2484 25.2714 91.2015 25.3476 91.1387 25.4097C91.0759 25.4717 90.9991 25.5177 90.9147 25.5438C90.8304 25.5699 90.741 25.5753 90.6541 25.5596C89.2083 25.4615 89.0921 26.3342 89.1386 27.447C89.1954 28.8206 89.154 30.1967 89.1386 31.5781C89.1386 32.0144 89.1127 32.5024 88.5266 32.5385C87.8476 32.5799 87.8063 32.0557 87.8011 31.5652C87.8011 30.016 87.7727 28.4668 87.8011 26.9177C87.814 26.107 87.6126 25.588 86.6702 25.5957C86.2236 25.5957 85.5961 25.6241 85.6762 24.9167C85.7485 24.2635 86.363 24.3848 86.8097 24.3616C87.3674 24.3306 87.9276 24.3616 88.4853 24.3616L88.4802 24.3797Z" fill="#2C3E50"></path><path d="M120.362 43.4291C120.362 44.2863 120.362 45.1461 120.362 46.0111C120.362 46.4319 120.191 46.7856 119.693 46.7856C119.195 46.7856 119.055 46.4061 119.053 45.9878C119.037 44.3999 119.011 42.812 119.053 41.2267C119.068 40.3773 118.906 39.7886 117.875 39.8377C117.457 39.8557 116.925 39.8377 116.91 39.2438C116.892 38.5519 117.486 38.588 117.943 38.5828C119.234 38.5648 120.524 38.5829 121.803 38.6009C122.151 38.6009 122.515 38.7016 122.549 39.1483C122.59 39.6647 122.213 39.8532 121.808 39.8196C120.494 39.7137 120.328 40.4832 120.398 41.5159C120.439 42.1562 120.398 42.8069 120.398 43.4472L120.362 43.4291Z" fill="#2C3E50"></path><path d="M77.7161 14.7904C77.7161 14.2327 77.6851 13.6724 77.7161 13.1147C77.7884 11.9838 77.7522 10.9898 76.1669 11.2144C76.0919 11.2321 76.0138 11.2329 75.9384 11.2165C75.8631 11.2001 75.7923 11.167 75.7314 11.1197C75.6705 11.0724 75.6209 11.0121 75.5864 10.9431C75.5518 10.8742 75.5332 10.7984 75.5318 10.7212C75.506 10.3365 75.79 10.1687 76.1024 10.1661C77.5603 10.1472 79.0234 10.1472 80.4917 10.1661C80.7963 10.1661 81.1088 10.2901 81.1165 10.6825C81.1165 11.1602 80.7447 11.266 80.4065 11.2221C79.1155 11.0517 78.9322 11.6895 79.0251 12.7997C79.0948 14.1287 79.0887 15.4605 79.0071 16.7888C78.989 17.331 79.2653 18.1933 78.3848 18.2295C77.4553 18.2656 77.7497 17.3929 77.7135 16.8533C77.6696 16.1665 77.7161 15.4772 77.7161 14.7904Z" fill="#2C3E50"></path><path d="M84.7544 28.5779C84.7544 29.5642 84.7544 30.5479 84.7544 31.5342C84.7544 32.0144 84.7338 32.554 84.0599 32.536C83.4738 32.5205 83.4351 32.0196 83.4325 31.5936C83.4239 29.5366 83.4239 27.4805 83.4325 25.4253C83.4325 24.9942 83.4712 24.4958 84.0599 24.4829C84.739 24.47 84.739 25.02 84.7467 25.4925C84.7648 26.5227 84.7544 27.5503 84.7544 28.5779Z" fill="#2C3E50"></path><path d="M107.499 28.6063C107.499 29.59 107.499 30.5737 107.499 31.5574C107.499 31.9834 107.517 32.4817 106.915 32.5205C106.314 32.5592 106.218 32.0841 106.215 31.6478C106.195 29.553 106.195 27.4573 106.215 25.3608C106.215 24.927 106.306 24.4519 106.894 24.4649C107.483 24.4778 107.501 24.9657 107.506 25.3995C107.504 26.4684 107.499 27.5374 107.499 28.6063Z" fill="#2C3E50"></path><path d="M124.73 42.9127C124.73 43.9455 124.743 44.9783 124.73 46.0111C124.73 46.419 124.586 46.8063 124.075 46.7856C123.563 46.765 123.447 46.3906 123.447 45.9775C123.447 43.8311 123.447 41.6855 123.447 39.5407C123.447 39.138 123.525 38.7326 124.041 38.7016C124.648 38.6655 124.73 39.1276 124.738 39.5691C124.759 40.6845 124.738 41.7999 124.738 42.9257L124.73 42.9127Z" fill="#2C3E50"></path><path d="M38.6773 35.624C38.6773 33.5584 38.7006 31.4929 38.6773 29.4273C38.6644 28.5727 38.9355 28.1364 39.8521 28.1673C43.0692 28.2603 46.3069 27.9091 49.5008 28.4255C52.8315 28.9419 55.6354 30.2561 56.6424 33.8218C58.0031 38.6293 55.2533 42.2879 49.7848 42.9102C46.4954 43.2845 43.1802 43.1864 39.8753 43.1684C39.0078 43.1684 38.6567 42.8095 38.6747 41.9239C38.7057 39.8351 38.6773 37.7308 38.6773 35.624Z" fill="#2C3E50"></path><path d="M38.6773 19.4172C38.6773 17.6098 38.7057 15.8025 38.6773 13.9951C38.6567 13.0889 38.9355 12.6499 39.9166 12.6654C42.7077 12.7093 45.5014 12.6293 48.2898 12.7274C51.9226 12.8565 54.4865 14.9659 54.8247 17.9403C55.243 21.648 53.3711 24.5165 49.7744 25.5673C46.4179 26.5485 42.9504 26.0837 39.5294 26.1173C38.7548 26.1173 38.6851 25.5518 38.6876 24.9451C38.6851 23.099 38.6773 21.2529 38.6773 19.4172Z" fill="#2C3E50"></path><path fill-rule="evenodd" clip-rule="evenodd" d="M117.218 46.734C117.464 46.6462 117.513 46.4474 117.476 45.9439C116.761 43.8035 116.003 41.392 115.125 39.0451C114.877 38.3814 113.956 38.5157 113.63 39.2309C113.388 39.8217 113.177 40.4249 112.999 41.0382C112.46 42.6649 111.931 44.2933 111.415 45.9234C111.309 46.2538 111.198 46.6282 111.685 46.7495C112.039 46.8372 112.241 46.6024 112.354 46.2951C112.4 46.1701 112.442 46.0434 112.479 45.9153C112.501 45.8375 112.521 45.7592 112.541 45.6805C112.718 44.9266 113.118 44.4826 113.966 44.5265C114.09 44.5329 114.215 44.5344 114.339 44.5359C115.065 44.5445 115.764 44.553 116.031 45.5361C116.143 45.9029 116.31 46.251 116.524 46.5688C116.549 46.6014 116.576 46.6309 116.606 46.6571C116.673 46.7157 116.753 46.7577 116.841 46.7786C116.968 46.8089 117.102 46.7931 117.218 46.734ZM113.521 43.6063H115.323C115.498 43.6063 115.622 43.4382 115.57 43.2722L114.698 40.4373C114.624 40.1966 114.284 40.1934 114.207 40.4326L113.276 43.2677C113.221 43.4346 113.345 43.6063 113.521 43.6063Z" fill="#2C3E50"></path></svg>