<svg xmlns="http://www.w3.org/2000/svg" width="141" height="56" viewBox="0 0 141 56" fill="none"><path d="M34.9381 55.9102C25.9874 55.9102 17.0367 55.9102 8.08605 55.9102C3.47214 55.905 0.162109 52.5898 0.162109 47.9243C0.162109 34.8924 0.162109 21.8614 0.162109 8.83127C0.162109 4.11666 3.70194 0.569092 8.42429 0.569092C26.095 0.569092 43.77 0.569092 61.4494 0.569092C66.4454 0.569092 69.8742 3.97982 69.8949 9.00684C69.9181 18.5987 69.8949 28.1906 69.8949 37.7825C69.8949 41.0951 69.8639 44.4077 69.8949 47.7177C69.9517 52.8144 66.0349 56.0574 61.6327 55.9644C52.7483 55.7759 43.8432 55.9102 34.9381 55.9102ZM51.762 27.1088C51.8782 26.5743 52.1828 26.5924 52.4075 26.5072C55.5832 25.2756 57.5713 22.2005 57.4448 18.6891C57.3131 14.8472 55.3973 12.1749 51.9479 11.1318C50.998 10.8605 50.026 10.6738 49.0432 10.5741C48.2247 10.4785 47.933 10.0835 47.9536 9.30634C47.9769 8.36136 47.9536 7.41379 47.9536 6.46622C47.9536 5.63226 47.4373 5.49541 46.7582 5.49541C46.0792 5.49541 45.7254 5.77943 45.7409 6.49462C45.759 7.43961 45.697 8.38976 45.7409 9.33474C45.8055 10.525 45.0386 10.4863 44.2202 10.494C43.4017 10.5018 42.6555 10.4656 42.7278 9.30118C42.782 8.40267 42.7123 7.49383 42.7278 6.59273C42.751 5.83623 42.4515 5.498 41.6718 5.49025C40.8921 5.4825 40.4583 5.78201 40.5022 6.62372C40.5254 7.09621 40.5022 7.5687 40.5022 8.04378C40.5022 10.8581 40.5358 10.5302 38.0648 10.4579C36.7739 10.4192 36.3737 10.7961 36.3814 12.1206C36.4356 22.0998 36.4098 32.079 36.4098 42.071C36.4098 45.0196 36.4098 45.0454 39.3765 45.2442C40.2233 45.301 40.5022 45.6806 40.4841 46.4603C40.4635 47.4492 40.497 48.4381 40.4841 49.427C40.4841 50.2842 41.0005 50.3642 41.6847 50.3719C42.3689 50.3797 42.7175 50.1318 42.7175 49.3986C42.6942 48.3658 42.7381 47.333 42.7175 46.3002C42.6917 45.1539 43.4921 45.2675 44.2305 45.2675C44.9689 45.2675 45.7513 45.2132 45.7125 46.3415C45.679 47.3304 45.7358 48.3219 45.7125 49.3082C45.6893 50.0828 45.9888 50.3823 46.7711 50.3874C47.5534 50.3926 47.9795 50.1292 47.9459 49.2772C47.9097 48.3761 47.9717 47.4699 47.9459 46.5688C47.9201 45.6677 48.1912 45.2546 49.1568 45.1616C51.039 44.986 52.898 44.6452 54.6512 43.8551C59.6988 41.5469 61.1705 34.16 57.4267 30.047C55.8853 28.3532 53.8921 27.6561 51.762 27.1088Z" fill="#051B52"></path><path d="M114.358 30.3258C114.358 28.5185 114.358 26.9693 114.358 25.4357C114.358 25.0174 114.371 24.4778 114.975 24.4933C115.58 24.5087 115.574 25.051 115.574 25.4666C115.592 27.4874 115.592 29.5091 115.574 31.5316C115.574 31.9576 115.538 32.4353 114.983 32.5463C114.48 32.647 114.19 32.3372 113.95 31.9421C112.906 30.1082 111.75 28.3398 110.491 26.6466C110.491 28.2241 110.503 29.7991 110.491 31.3767C110.491 31.813 110.633 32.4714 109.933 32.4637C109.233 32.4559 109.378 31.8104 109.378 31.3689C109.357 29.4325 109.362 27.496 109.378 25.5622C109.378 25.1 109.305 24.563 109.954 24.4313C110.545 24.3125 110.94 24.6094 111.229 25.0948L114.358 30.3258Z" fill="#051B52"></path><path d="M104.769 42.6546C104.769 41.6657 104.769 40.6768 104.769 39.6879C104.769 39.1922 104.854 38.6784 105.469 38.6267C107.106 38.4873 108.797 38.3195 110.085 39.6337C111.306 40.8782 111.505 42.4325 111.069 44.0746C110.584 45.8975 109.393 46.8373 107.527 46.845C104.454 46.845 104.777 47.1239 104.756 44.0772C104.756 43.6047 104.756 43.1322 104.756 42.6571L104.769 42.6546ZM109.946 42.5693C109.981 41.8674 109.774 41.1745 109.36 40.6071C108.65 39.675 107.625 39.6853 106.659 39.91C105.791 40.1139 106.125 40.966 106.099 41.5572C106.052 42.59 106.099 43.6228 106.086 44.6555C106.068 45.4301 106.406 45.7064 107.168 45.7245C108.975 45.7529 109.92 44.8027 109.946 42.5797V42.5693Z" fill="#051B52"></path><path d="M78.676 32.585C76.5434 32.6212 76.5408 32.6212 76.5408 30.5195C76.5408 28.8464 76.5408 27.163 76.5408 25.5028C76.5408 24.8651 76.6931 24.3926 77.4341 24.3693C78.4669 24.3358 79.4997 24.2557 80.504 24.5242C81.9473 24.9089 82.5257 26.187 81.8208 27.5115C81.591 27.9427 81.3845 28.219 81.7511 28.7509C83.0421 30.6202 82.2236 32.3088 79.9618 32.5773C79.5338 32.6051 79.1044 32.6077 78.676 32.585ZM78.8852 31.5084C80.0135 31.4619 80.992 31.4593 81.1547 30.2535C81.2812 29.3266 80.4266 28.8257 79.0297 28.7689C78.0176 28.7276 77.6794 29.102 77.682 30.109C77.6846 31.1159 77.9737 31.6968 78.8852 31.5187V31.5084ZM79.102 25.4434C78.281 25.3685 77.6717 25.4692 77.6897 26.5433C77.7052 27.3979 77.8446 27.9737 78.8748 27.8601C79.763 27.762 80.85 27.8188 80.8758 26.5949C80.9016 25.5002 79.9102 25.5054 79.102 25.4537V25.4434Z" fill="#051B52"></path><path d="M139.07 44.2037C139.07 42.701 139.07 41.1958 139.07 39.6931C139.07 39.2826 139.018 38.7274 139.659 38.7584C140.193 38.7868 140.149 39.2748 140.152 39.6569C140.166 41.6794 140.166 43.702 140.152 45.7245C140.152 46.1453 140.196 46.6359 139.635 46.7753C139.075 46.9147 138.781 46.5171 138.53 46.0885C137.537 44.4275 136.546 42.7656 135.556 41.1028C135.476 40.9686 135.378 40.8446 135.197 40.5864C135.197 42.2982 135.218 43.8319 135.197 45.363C135.197 45.8794 135.373 46.6927 134.59 46.6798C133.878 46.6798 134.12 45.8845 134.113 45.4198C134.082 43.6124 134.084 41.8051 134.113 39.9977C134.113 39.5227 133.898 38.8798 134.598 38.6861C135.298 38.4925 135.688 39.0063 136.01 39.5459C136.952 41.1261 137.899 42.7053 138.85 44.2838L139.07 44.2037Z" fill="#051B52"></path><path d="M88.6216 42.7836C88.5028 43.3697 88.4202 43.9688 88.255 44.5445C88.0838 45.1924 87.7212 45.7735 87.2145 46.2121C86.7078 46.6506 86.0806 46.9261 85.4149 47.0025C84.1575 47.1161 82.9698 46.4164 82.3398 45.0764C81.5342 43.3646 81.5652 41.6605 82.598 40.0261C83.2667 38.9443 84.2298 38.4021 85.5181 38.508C86.8065 38.6138 87.6353 39.3858 88.1491 40.509C88.452 41.2296 88.6125 42.002 88.6216 42.7836ZM87.2093 42.3964C87.2072 42.0992 87.1787 41.8029 87.1241 41.5108C86.9021 40.5322 86.4605 39.7034 85.3167 39.6518C84.1136 39.6027 83.5636 40.3773 83.3028 41.4333C83.0276 42.524 83.1016 43.6737 83.5146 44.7201C83.6308 45.0483 83.8422 45.3344 84.1218 45.5418C84.4014 45.7492 84.7366 45.8686 85.0844 45.8845C85.828 45.9388 86.4012 45.5515 86.7755 44.9086C87.1732 44.2037 87.2196 43.4291 87.2093 42.3964Z" fill="#051B52"></path><path d="M102.112 44.2941C102.112 42.8869 102.086 41.4798 102.128 40.0726C102.141 39.6156 101.836 38.8256 102.551 38.7946C103.308 38.7636 103.024 39.5691 103.034 40.0107C103.07 41.7715 103.07 43.5324 103.034 45.2933C103.034 45.8097 103.292 46.5326 102.567 46.7366C101.841 46.9406 101.573 46.197 101.276 45.7038C100.279 44.0695 99.3186 42.4144 98.0818 40.8317C98.0818 42.3989 98.0947 43.9662 98.0818 45.5334C98.0818 45.9749 98.2238 46.6591 97.5887 46.6824C96.827 46.7108 97.0103 45.9723 97.0051 45.505C96.9819 43.6589 96.9845 41.8128 97.0051 39.9642C97.0051 39.4762 96.8657 38.8669 97.5448 38.6732C98.2755 38.4589 98.6421 38.9314 98.9648 39.4839C99.915 41.1106 100.881 42.7268 101.841 44.3457L102.112 44.2941Z" fill="#051B52"></path><path d="M89.7887 14.1475C89.7887 13.7602 89.7887 13.3729 89.7887 12.9882C89.8093 9.76334 89.484 10.1481 92.7217 10.1222C93.2794 10.1222 93.8397 10.1222 94.3948 10.1558C94.7692 10.179 95.0868 10.3391 95.0377 10.7858C94.9964 11.1705 94.6762 11.2247 94.3638 11.2325C93.6331 11.2454 92.9025 11.2738 92.1744 11.2325C91.374 11.1989 91.1416 11.5888 91.1416 12.3324C91.1416 13.076 91.3404 13.4942 92.1511 13.4813C92.6687 13.4755 93.1862 13.5031 93.7003 13.5639C93.8311 13.5663 93.9556 13.6206 94.0463 13.7148C94.1371 13.809 94.1868 13.9353 94.1844 14.0661C94.182 14.1969 94.1277 14.3214 94.0336 14.4122C93.9394 14.503 93.813 14.5526 93.6822 14.5502C93.2987 14.5992 92.9115 14.6131 92.5255 14.5916C91.5676 14.5038 91.1235 14.8084 91.1312 15.8825C91.139 16.9566 91.6864 17.1735 92.5875 17.1425C93.2309 17.1265 93.8748 17.1455 94.5162 17.1993C94.8208 17.22 95.1203 17.3387 95.1565 17.7157C95.1682 17.7919 95.1627 17.8698 95.1404 17.9436C95.118 18.0175 95.0794 18.0854 95.0274 18.1423C94.9754 18.1993 94.9113 18.2439 94.8398 18.2728C94.7683 18.3017 94.6913 18.3143 94.6143 18.3095C93.2469 18.4503 91.8687 18.4503 90.5013 18.3095C89.8868 18.245 89.8196 17.7312 89.8145 17.2406C89.8145 16.2078 89.8145 15.1751 89.8145 14.1423L89.7887 14.1475Z" fill="#051B52"></path><path d="M129.388 38.5002C131.378 38.4718 132.925 40.3954 132.845 42.7991C132.765 45.2029 131.229 47.0774 129.364 47.0283C127.425 46.9793 126.093 45.1926 126.114 42.67C126.134 40.1475 127.436 38.5235 129.388 38.5002ZM131.554 42.6907C131.554 40.8834 130.725 39.6466 129.488 39.6311C128.223 39.6156 127.361 40.7878 127.307 42.5978C127.252 44.4077 128.262 45.9336 129.457 45.9129C130.653 45.8923 131.551 44.5445 131.554 42.6907Z" fill="#051B52"></path><path d="M98.4846 28.4204C98.438 27.7918 98.532 27.1607 98.7598 26.573C98.9876 25.9852 99.3434 25.4556 99.8014 25.0226C101.405 23.5276 103.889 24.266 104.818 26.4633C105.593 28.3171 105.076 30.9507 103.716 32.0351C102.711 32.8277 101.591 32.9104 100.449 32.4043C99.1559 31.8337 98.482 30.4446 98.4846 28.4204ZM103.925 28.4668C103.925 26.6595 103.099 25.4279 101.859 25.3944C100.62 25.3608 99.7368 26.5614 99.6852 28.3687C99.6335 30.1761 100.496 31.5368 101.751 31.5626C103.006 31.5884 103.922 30.3542 103.925 28.4668Z" fill="#051B52"></path><path d="M82.2675 14.2172C82.2675 13.1457 82.2675 12.0716 82.2675 11.0001C82.2675 10.6412 82.3398 10.2797 82.7839 10.2513C83.3235 10.2178 83.388 10.618 83.4087 11.0259C83.4087 11.2402 83.4087 11.4545 83.4087 11.6688C83.4319 13.4426 83.4319 13.4426 85.1747 13.44C86.8349 13.44 86.8246 13.44 86.8917 11.4777C86.9098 10.9614 86.6981 10.2023 87.5708 10.2384C88.2886 10.2668 88.2059 10.951 88.2111 11.4416C88.2335 13.335 88.2335 15.2224 88.2111 17.1038C88.2111 17.5866 88.304 18.2605 87.5321 18.245C86.76 18.2295 86.9305 17.5608 86.8891 17.078C86.8685 16.8198 86.8891 16.5616 86.8891 16.3034C86.8891 14.5941 86.8891 14.5941 85.1877 14.5916C83.4216 14.5916 83.4629 14.5916 83.3803 16.4867C83.3596 17.078 83.8476 18.1417 82.8639 18.1701C81.8802 18.1985 82.3269 17.1244 82.2623 16.528C82.2136 15.7544 82.2067 14.9787 82.2417 14.2043L82.2675 14.2172Z" fill="#051B52"></path><path d="M92.9386 28.5598C92.967 29.1149 92.918 29.6752 93.1529 30.2071C93.4602 30.9042 93.8423 31.498 94.7021 31.5523C95.0662 31.6045 95.4374 31.5355 95.7585 31.3559C96.0795 31.1762 96.3325 30.8959 96.4784 30.5582C96.6798 30.1528 96.8915 29.5538 97.5112 29.9127C98.1748 30.3078 97.6971 30.8422 97.4622 31.245C97.2181 31.6635 96.8756 32.0162 96.4645 32.2725C96.0533 32.5288 95.5859 32.6809 95.1026 32.7158C94.6194 32.7506 94.1349 32.6671 93.6913 32.4725C93.2476 32.2778 92.8581 31.9779 92.5565 31.5987C91.2526 29.9411 91.1751 27.2585 92.4042 25.5596C93.1942 24.4674 94.3148 24.1292 95.5877 24.3513C96.0815 24.4239 96.5442 24.6363 96.9212 24.9634C97.2981 25.2905 97.5737 25.7187 97.7152 26.1973C97.8159 26.4943 97.8907 26.7938 97.5577 26.9926C97.2711 27.163 96.9406 27.1888 96.7625 26.8712C96.1944 25.8617 95.5128 24.9942 94.2218 25.5802C92.9309 26.1663 92.9386 27.3773 92.9386 28.5598Z" fill="#051B52"></path><path d="M89.7215 42.0297C89.7215 41.1699 89.7215 40.3102 89.7215 39.4478C89.7215 39.0244 89.8325 38.6577 90.367 38.6913C90.824 38.7197 90.8834 39.0708 90.8989 39.4297C90.8989 40.8472 90.8989 42.2698 90.9247 43.6822C90.9583 45.2081 91.4204 45.7477 92.6107 45.7477C93.8526 45.7477 94.3483 45.159 94.369 43.6021C94.3871 42.2698 94.369 40.9376 94.3845 39.6079C94.3845 39.2438 94.3045 38.7455 94.8647 38.7171C95.425 38.6887 95.4482 39.1638 95.4482 39.5433C95.4482 41.2577 95.629 42.9825 95.3217 44.6865C95.0351 46.2667 93.8681 47.1342 92.2776 47.0103C90.6872 46.8863 89.7964 45.9775 89.7267 44.3354C89.6957 43.5789 89.7215 42.8043 89.7215 42.0297Z" fill="#051B52"></path><path d="M79.1485 38.5958C79.7062 38.5958 80.2665 38.5751 80.8216 38.5958C81.1805 38.6138 81.5187 38.7481 81.5265 39.1896C81.5342 39.6311 81.2089 39.7809 80.8423 39.8015C80.1142 39.8402 79.3835 39.8454 78.6528 39.8506C78.0151 39.8506 77.7259 40.1527 77.7207 40.8007C77.7155 41.4488 77.8911 41.8903 78.6399 41.9006C79.1976 41.9006 79.7553 41.9264 80.3104 41.9755C80.3855 41.9746 80.4599 41.9901 80.5284 42.0209C80.5969 42.0517 80.6579 42.0971 80.707 42.1539C80.7562 42.2106 80.7924 42.2775 80.8131 42.3497C80.8337 42.4219 80.8384 42.4977 80.8268 42.5719C80.7906 42.8843 80.5479 42.9747 80.2717 43.0005C80.2286 42.9984 80.1856 42.9984 80.1426 43.0005C79.368 43.1554 78.3817 42.6132 77.8601 43.393C77.4419 44.0204 77.7672 44.9034 77.7026 45.6702C77.6665 46.1195 77.7853 46.7495 77.0778 46.703C76.3704 46.6565 76.5459 46.024 76.5408 45.5876C76.5201 43.8268 76.5279 42.0659 76.5408 40.305C76.5408 38.5932 76.5821 38.5596 78.2474 38.539C78.5469 38.539 78.849 38.539 79.1485 38.539V38.5958Z" fill="#051B52"></path><path d="M88.6423 24.3797C89.3291 24.3797 90.0184 24.3616 90.7078 24.3797C91.059 24.3797 91.4153 24.4803 91.4566 24.927C91.4712 25.0141 91.4648 25.1034 91.4376 25.1874C91.4105 25.2714 91.3636 25.3476 91.3008 25.4097C91.238 25.4717 91.1612 25.5177 91.0768 25.5438C90.9925 25.5699 90.9031 25.5753 90.8163 25.5596C89.3704 25.4615 89.2542 26.3342 89.3007 27.447C89.3575 28.8206 89.3162 30.1967 89.3007 31.5781C89.3007 32.0144 89.2748 32.5024 88.6888 32.5385C88.0097 32.5799 87.9684 32.0557 87.9632 31.5652C87.9632 30.016 87.9348 28.4668 87.9632 26.9177C87.9761 26.107 87.7747 25.588 86.8323 25.5957C86.3857 25.5957 85.7583 25.6241 85.8383 24.9167C85.9106 24.2635 86.5251 24.3848 86.9718 24.3616C87.5295 24.3306 88.0897 24.3616 88.6474 24.3616L88.6423 24.3797Z" fill="#051B52"></path><path d="M120.524 43.4291C120.524 44.2863 120.524 45.1461 120.524 46.0111C120.524 46.4319 120.354 46.7856 119.855 46.7856C119.357 46.7856 119.217 46.4061 119.215 45.9878C119.199 44.3999 119.174 42.812 119.215 41.2267C119.23 40.3773 119.068 39.7886 118.038 39.8377C117.619 39.8557 117.087 39.8377 117.072 39.2438C117.054 38.5519 117.648 38.588 118.105 38.5828C119.396 38.5648 120.687 38.5829 121.965 38.6009C122.313 38.6009 122.677 38.7016 122.711 39.1483C122.752 39.6647 122.375 39.8532 121.97 39.8196C120.656 39.7137 120.49 40.4832 120.56 41.5159C120.601 42.1562 120.56 42.8069 120.56 43.4472L120.524 43.4291Z" fill="#051B52"></path><path d="M77.8782 14.7904C77.8782 14.2327 77.8472 13.6724 77.8782 13.1147C77.9505 11.9838 77.9144 10.9898 76.329 11.2144C76.254 11.2321 76.1759 11.2329 76.1005 11.2165C76.0252 11.2001 75.9544 11.167 75.8935 11.1197C75.8326 11.0724 75.783 11.0121 75.7485 10.9431C75.714 10.8742 75.6953 10.7984 75.6939 10.7212C75.6681 10.3365 75.9521 10.1687 76.2645 10.1661C77.7224 10.1472 79.1855 10.1472 80.6538 10.1661C80.9585 10.1661 81.2709 10.2901 81.2786 10.6825C81.2786 11.1602 80.9068 11.266 80.5686 11.2221C79.2776 11.0517 79.0943 11.6895 79.1872 12.7997C79.2569 14.1287 79.2508 15.4605 79.1692 16.7888C79.1511 17.331 79.4274 18.1933 78.5469 18.2295C77.6174 18.2656 77.9118 17.3929 77.8756 16.8533C77.8317 16.1665 77.8782 15.4772 77.8782 14.7904Z" fill="#051B52"></path><path d="M84.9165 28.5779C84.9165 29.5642 84.9165 30.5479 84.9165 31.5342C84.9165 32.0144 84.8959 32.554 84.222 32.536C83.6359 32.5205 83.5972 32.0196 83.5946 31.5936C83.586 29.5366 83.586 27.4805 83.5946 25.4253C83.5946 24.9942 83.6333 24.4958 84.222 24.4829C84.9011 24.47 84.9011 25.02 84.9088 25.4925C84.9269 26.5227 84.9165 27.5503 84.9165 28.5779Z" fill="#051B52"></path><path d="M107.661 28.6063C107.661 29.59 107.661 30.5737 107.661 31.5574C107.661 31.9834 107.679 32.4817 107.077 32.5205C106.476 32.5592 106.38 32.0841 106.378 31.6478C106.357 29.553 106.357 27.4573 106.378 25.3608C106.378 24.927 106.468 24.4519 107.057 24.4649C107.645 24.4778 107.663 24.9657 107.669 25.3995C107.666 26.4684 107.661 27.5374 107.661 28.6063Z" fill="#051B52"></path><path d="M124.893 42.9127C124.893 43.9455 124.905 44.9783 124.893 46.0111C124.893 46.419 124.748 46.8063 124.237 46.7856C123.726 46.765 123.609 46.3906 123.609 45.9775C123.609 43.8311 123.609 41.6855 123.609 39.5407C123.609 39.138 123.687 38.7326 124.203 38.7016C124.81 38.6655 124.893 39.1276 124.9 39.5691C124.921 40.6845 124.9 41.7999 124.9 42.9257L124.893 42.9127Z" fill="#051B52"></path><path d="M38.8394 35.624C38.8394 33.5584 38.8627 31.4929 38.8394 29.4273C38.8265 28.5727 39.0976 28.1364 40.0142 28.1673C43.2313 28.2603 46.469 27.9091 49.6629 28.4255C52.9936 28.9419 55.7975 30.2561 56.8045 33.8218C58.1652 38.6293 55.4154 42.2879 49.9469 42.9102C46.6575 43.2845 43.3423 43.1864 40.0374 43.1684C39.1699 43.1684 38.8188 42.8095 38.8368 41.9239C38.8678 39.8351 38.8394 37.7308 38.8394 35.624Z" fill="#051B52"></path><path d="M38.8394 19.4172C38.8394 17.6098 38.8678 15.8025 38.8394 13.9951C38.8188 13.0889 39.0976 12.6499 40.0788 12.6654C42.8698 12.7093 45.6635 12.6293 48.452 12.7274C52.0847 12.8565 54.6486 14.9659 54.9868 17.9403C55.4051 21.648 53.5332 24.5165 49.9366 25.5673C46.58 26.5485 43.1125 26.0837 39.6915 26.1173C38.9169 26.1173 38.8472 25.5518 38.8498 24.9451C38.8472 23.099 38.8394 21.2529 38.8394 19.4172Z" fill="#051B52"></path><path fill-rule="evenodd" clip-rule="evenodd" d="M117.38 46.734C117.626 46.6462 117.675 46.4474 117.639 45.9439C116.924 43.8035 116.165 41.392 115.287 39.0451C115.04 38.3814 114.118 38.5157 113.792 39.2309C113.55 39.8217 113.339 40.4249 113.162 41.0382C112.622 42.6649 112.093 44.2933 111.577 45.9234C111.471 46.2538 111.36 46.6282 111.847 46.7495C112.201 46.8372 112.403 46.6024 112.516 46.2951C112.562 46.1701 112.604 46.0434 112.641 45.9153C112.663 45.8375 112.684 45.7592 112.703 45.6805C112.88 44.9266 113.281 44.4826 114.128 44.5265C114.252 44.5329 114.377 44.5344 114.501 44.5359C115.227 44.5445 115.926 44.553 116.193 45.5361C116.305 45.9029 116.472 46.251 116.687 46.5688C116.711 46.6014 116.738 46.6309 116.768 46.6571C116.835 46.7157 116.915 46.7577 117.003 46.7786C117.13 46.8089 117.264 46.7931 117.38 46.734ZM113.683 43.6063H115.485C115.66 43.6063 115.784 43.4382 115.732 43.2722L114.86 40.4373C114.786 40.1966 114.446 40.1934 114.369 40.4326L113.438 43.2677C113.383 43.4346 113.508 43.6063 113.683 43.6063Z" fill="#051B52"></path></svg>