<svg xmlns="http://www.w3.org/2000/svg" width="141" height="35" viewBox="0 0 141 35" fill="none"><path fill-rule="evenodd" clip-rule="evenodd" d="M64.4254 11.9372H69.6308C72.8541 11.9372 75.4671 14.5502 75.4671 17.7735C75.4671 20.9968 72.8541 23.6098 69.6308 23.6098H64.4254V11.9372ZM66.6337 14.1455V21.4015H69.6308C71.6344 21.4015 73.2587 19.7772 73.2587 17.7735C73.2587 15.7698 71.6344 14.1455 69.6308 14.1455H66.6337Z" fill="white"></path><path fill-rule="evenodd" clip-rule="evenodd" d="M61.5861 12.0949V23.4521H59.3778V12.0949H61.5861Z" fill="white"></path><path fill-rule="evenodd" clip-rule="evenodd" d="M90.7677 11.9372L99.6011 11.9372V14.1455L92.9761 14.1455V21.4015H99.6011V23.6098H90.7677V11.9372Z" fill="white"></path><path fill-rule="evenodd" clip-rule="evenodd" d="M57.1694 15.8806C57.1694 13.7027 55.4039 11.9372 53.226 11.9372H47.7051V17.6158H46.4432V19.8241H47.7051V23.4521H49.9135V19.8241H52.3275L54.8051 23.4521H57.4793L54.7834 19.5046C56.1868 18.9007 57.1694 17.5054 57.1694 15.8806ZM53.226 17.6158C54.1842 17.6158 54.9611 16.8389 54.9611 15.8806C54.9611 14.9224 54.1842 14.1455 53.226 14.1455H49.9135V17.6158H53.226Z" fill="white"></path><path fill-rule="evenodd" clip-rule="evenodd" d="M41.8688 11.9372H35.717V16.3539H34.4551V18.5622H35.717V23.4521H37.9253V23.4493H42.1069C44.0663 23.4493 45.6547 21.8609 45.6547 19.9016C45.6547 18.8599 45.2058 17.9232 44.4909 17.2741C44.9237 16.7143 45.1813 16.0121 45.1813 15.2497C45.1813 13.4202 43.6982 11.9372 41.8688 11.9372ZM41.8809 16.3538H37.9253V14.1455H41.8688C42.4786 14.1455 42.973 14.6399 42.973 15.2497C42.973 15.8555 42.4851 16.3473 41.8809 16.3538ZM42.1069 18.5621C42.8467 18.5621 43.4463 19.1618 43.4463 19.9016C43.4463 20.6413 42.8467 21.241 42.1069 21.241H37.9253V18.5622H41.8688C41.9482 18.5622 42.0275 18.5621 42.1069 18.5621Z" fill="white"></path><path fill-rule="evenodd" clip-rule="evenodd" d="M82.5653 13.83C80.4745 13.83 78.7796 15.525 78.7796 17.6158C78.7796 19.7066 80.4745 21.4015 82.5653 21.4015C84.6561 21.4015 86.351 19.7066 86.351 17.6158H88.5594C88.5594 20.9262 85.8757 23.6098 82.5653 23.6098C79.2549 23.6098 76.5713 20.9262 76.5713 17.6158C76.5713 14.3053 79.2549 11.6217 82.5653 11.6217C84.5788 11.6217 86.3602 12.6156 87.4454 14.1346L85.6485 15.4183C84.96 14.4546 83.8356 13.83 82.5653 13.83Z" fill="white"></path><path fill-rule="evenodd" clip-rule="evenodd" d="M24.2009 11.9372H29.7217C31.8996 11.9372 33.6652 13.7027 33.6652 15.8806C33.6652 18.0586 31.8996 19.8241 29.7217 19.8241H26.4092V23.4521H24.2009V19.8241H22.939V17.6158H24.2009V11.9372ZM26.4092 17.6158H29.7217C30.68 17.6158 31.4568 16.8389 31.4568 15.8806C31.4568 14.9224 30.68 14.1455 29.7217 14.1455H26.4092V17.6158Z" fill="white"></path><path fill-rule="evenodd" clip-rule="evenodd" d="M6.21867 13.83C4.12787 13.83 2.43295 15.525 2.43295 17.6158C2.43295 19.7066 4.12787 21.4015 6.21867 21.4015C7.43455 21.4015 8.51629 20.8295 9.21073 19.9355L10.9548 21.2901C9.86 22.6996 8.14537 23.6098 6.21867 23.6098C2.90824 23.6098 0.224609 20.9262 0.224609 17.6158C0.224609 14.3053 2.90824 11.6217 6.21867 11.6217C8.23219 11.6217 10.0136 12.6156 11.0987 14.1346L9.30182 15.4183C8.61337 14.4546 7.48895 13.83 6.21867 13.83Z" fill="white"></path><path fill-rule="evenodd" clip-rule="evenodd" d="M14.7974 21.4015H19.4076L20.2666 23.4521H22.6609L17.8371 11.9372H13.1591V14.1455H15.4428L11.5441 23.4521H13.9384L14.7974 21.4015ZM17.1025 15.899L15.7226 19.1932H18.4825L17.1025 15.899Z" fill="white"></path><path d="M107.445 15.7657C106.336 16.8745 106.336 18.6725 107.445 19.7813L109.302 21.6381H116.637V23.3732H111.037L118.766 31.1021V9.96547H127.442V21.6381H137.537L139.394 19.7813C140.503 18.6725 140.503 16.8745 139.394 15.7657L125.427 1.79911C124.318 0.69001 122.52 0.69001 121.412 1.79911L107.445 15.7657Z" fill="white"></path><path d="M135.802 23.3732H127.442V31.7331L135.802 23.3732Z" fill="white"></path><path d="M125.707 33.4682V23.3732H122.157V21.6381H125.707V11.7006H120.501V32.8372L121.412 33.7479C122.52 34.857 124.318 34.857 125.427 33.7479L125.707 33.4682Z" fill="white"></path><path fill-rule="evenodd" clip-rule="evenodd" d="M98.4961 18.8778H81.4603V16.6694H98.4961V18.8778Z" fill="white"></path></svg>