<svg xmlns="http://www.w3.org/2000/svg" width="141" height="85" viewBox="0 0 141 85" fill="none"><path fill-rule="evenodd" clip-rule="evenodd" d="M17.4053 68.7994L14.5437 72.4649C14.0857 71.6909 13.4319 71.0512 12.6481 70.6103C11.8642 70.1693 10.9781 69.9426 10.0787 69.9531C5.38665 69.8395 4.0149 76.135 6.87649 78.6514C9.27932 80.8271 12.1409 80.6 14.6618 77.743L17.5234 81.0633C15.5748 83.9249 10.0833 84.7289 7.10814 84.0385C2.63861 82.9938 0.462891 79.6734 0.462891 75.4401C0.462891 70.748 3.78325 66.1694 9.16122 66.0559C12.1364 66.0559 15.2296 66.7417 17.5189 68.9175L17.4053 68.7994ZM45.567 69.944V75.322C47.7428 75.322 51.5219 75.8943 51.6354 72.692C51.6354 69.2581 47.8563 70.0576 45.567 69.944ZM40.9885 66.0513H48.7738C54.1518 66.1649 56.214 69.2536 56.3275 72.4604C56.3771 73.5915 56.1284 74.7157 55.6061 75.7203C55.0839 76.7248 54.3067 77.5743 53.3524 78.1836L57.1315 84.1384H51.6309C51.1767 83.339 49.3598 79.3282 48.5376 78.9875C47.6292 78.6423 46.589 78.7604 45.6761 78.7604V84.1384H40.9885V66.0513ZM60.2202 66.2784C63.427 66.2784 66.6293 66.1649 69.8361 66.5056C71.8019 66.6933 73.6706 67.4493 75.214 68.6813C76.6719 69.9394 77.6107 71.6941 77.8485 73.605C78.0756 75.7762 77.8485 78.07 76.5903 80.0141C75.873 81.048 74.9374 81.9118 73.8496 82.5444C72.7617 83.177 71.5482 83.563 70.2948 83.6751C66.9745 84.1293 63.6541 83.9022 60.2202 83.9022V66.283V66.2784ZM65.144 69.8259V80.3547C66.5066 80.3547 67.8693 80.5819 69.2637 80.1276C70.9807 79.6734 72.2389 78.5242 72.5841 76.9254C73.0383 74.8632 72.8112 72.2333 70.9807 70.857C69.2637 69.5988 67.088 69.8259 65.144 69.8259ZM86.5469 66.0468H91.3525L98.9062 84.1339H93.4101L92.5017 80.7H84.8299L83.6853 84.0339L78.4208 84.1475L86.3107 66.0513L86.5469 66.0468ZM86.2062 77.266H91.3525L88.718 71.2022L86.2062 77.266ZM101.886 66.0468H105.665L113.219 76.0079L113.332 66.0468H117.797L117.911 84.1339H114.132L106.346 74.2909L106.46 84.1339H101.881L101.995 65.9332L101.886 66.0468ZM131.079 66.0468C136.23 66.0468 140.463 70.1666 140.463 75.2039C140.463 80.2412 136.23 84.361 131.079 84.361C125.928 84.361 121.69 80.2412 121.69 75.2039C121.69 70.1666 125.923 66.0468 131.079 66.0468ZM131.079 70.2801C132.025 70.3025 132.944 70.6036 133.72 71.1457C134.496 71.6879 135.095 72.447 135.441 73.3279C135.788 74.2089 135.867 75.1725 135.668 76.0981C135.47 77.0237 135.002 77.8701 134.325 78.5313C133.647 79.1926 132.79 79.6392 131.86 79.8153C130.93 79.9913 129.968 79.889 129.096 79.5212C128.224 79.1533 127.479 78.5362 126.956 77.7472C126.433 76.9583 126.154 76.0325 126.155 75.0858C126.162 74.4468 126.295 73.8154 126.547 73.2279C126.798 72.6403 127.163 72.1081 127.62 71.6618C128.077 71.2154 128.618 70.8636 129.212 70.6265C129.805 70.3894 130.44 70.2717 131.079 70.2801ZM25.9901 66.0513H30.7958L38.3495 84.1384H32.8579L31.9495 80.7045H24.2732L23.1285 84.0339L17.8641 84.1475L25.763 66.0513H25.9901ZM25.6494 77.2706H30.7958L28.1704 71.2022L25.6494 77.2706Z" fill="#051B52"></path><path fill-rule="evenodd" clip-rule="evenodd" d="M97.2126 23.9263C97.4614 23.9263 97.7047 24.0001 97.9116 24.1384C98.1185 24.2766 98.2798 24.4731 98.375 24.703C98.4702 24.9329 98.4952 25.1859 98.4466 25.43C98.3981 25.674 98.2782 25.8982 98.1023 26.0742C97.9263 26.2502 97.7021 26.37 97.4581 26.4185C97.214 26.4671 96.961 26.4422 96.7311 26.3469C96.5012 26.2517 96.3047 26.0904 96.1664 25.8835C96.0282 25.6766 95.9544 25.4334 95.9544 25.1845C95.9579 24.8519 96.0916 24.534 96.3268 24.2988C96.562 24.0636 96.88 23.9299 97.2126 23.9263ZM83.9357 46.7055C84.1846 46.7055 84.4278 46.7793 84.6347 46.9176C84.8416 47.0558 85.0029 47.2523 85.0981 47.4822C85.1934 47.7121 85.2183 47.9651 85.1697 48.2092C85.1212 48.4532 85.0014 48.6774 84.8254 48.8534C84.6494 49.0293 84.4252 49.1492 84.1812 49.1977C83.9371 49.2463 83.6841 49.2213 83.4542 49.1261C83.2243 49.0309 83.0278 48.8696 82.8896 48.6627C82.7513 48.4558 82.6775 48.2125 82.6775 47.9637C82.6811 47.6311 82.8148 47.3131 83.05 47.0779C83.2852 46.8428 83.6031 46.7091 83.9357 46.7055ZM57.3774 46.8191C57.6263 46.8191 57.8695 46.8929 58.0764 47.0311C58.2833 47.1694 58.4446 47.3659 58.5398 47.5958C58.6351 47.8257 58.66 48.0787 58.6114 48.3227C58.5629 48.5668 58.443 48.791 58.2671 48.9669C58.0911 49.1429 57.8669 49.2627 57.6229 49.3113C57.3788 49.3598 57.1258 49.3349 56.8959 49.2397C56.666 49.1444 56.4695 48.9832 56.3313 48.7763C56.193 48.5694 56.1192 48.3261 56.1192 48.0773C56.1228 47.7447 56.2565 47.4267 56.4917 47.1915C56.7268 46.9563 57.0448 46.8226 57.3774 46.8191ZM44.0687 24.0399C44.3176 24.0399 44.5608 24.1137 44.7678 24.2519C44.9747 24.3902 45.1359 24.5867 45.2312 24.8166C45.3264 25.0465 45.3513 25.2995 45.3028 25.5435C45.2542 25.7876 45.1344 26.0118 44.9584 26.1877C44.7825 26.3637 44.5583 26.4835 44.3142 26.5321C44.0701 26.5806 43.8172 26.5557 43.5872 26.4605C43.3573 26.3653 43.1608 26.204 43.0226 25.9971C42.8843 25.7902 42.8105 25.5469 42.8105 25.2981C42.8129 24.9651 42.9462 24.6465 43.1817 24.411C43.4171 24.1756 43.7358 24.0423 44.0687 24.0399ZM83.9039 1.26069C84.1528 1.26069 84.396 1.33449 84.6029 1.47274C84.8098 1.61099 84.9711 1.80749 85.0663 2.0374C85.1616 2.2673 85.1865 2.52028 85.1379 2.76435C85.0894 3.00841 84.9696 3.2326 84.7936 3.40856C84.6176 3.58452 84.3934 3.70436 84.1494 3.7529C83.9053 3.80145 83.6523 3.77653 83.4224 3.6813C83.1925 3.58608 82.996 3.42481 82.8578 3.2179C82.7195 3.01099 82.6457 2.76773 82.6457 2.51889C82.6493 2.18629 82.783 1.86832 83.0182 1.63313C83.2534 1.39794 83.5713 1.26424 83.9039 1.26069ZM57.2411 1.36517C57.49 1.36517 57.7333 1.43896 57.9402 1.57721C58.1471 1.71546 58.3083 1.91196 58.4036 2.14187C58.4988 2.37177 58.5237 2.62475 58.4752 2.86882C58.4266 3.11288 58.3068 3.33707 58.1308 3.51303C57.9549 3.689 57.7307 3.80883 57.4866 3.85737C57.2425 3.90592 56.9896 3.88101 56.7597 3.78578C56.5298 3.69055 56.3333 3.52928 56.195 3.32237C56.0567 3.11546 55.983 2.8722 55.983 2.62336C55.9865 2.29076 56.1202 1.97279 56.3554 1.7376C56.5906 1.50241 56.9086 1.36871 57.2411 1.36517ZM60.7886 40.1693C61.1744 40.1684 61.5518 40.282 61.8729 40.4958C62.1941 40.7095 62.4445 41.0138 62.5926 41.3701C62.7406 41.7263 62.7796 42.1185 62.7045 42.4969C62.6295 42.8753 62.4438 43.223 62.171 43.4957C61.8982 43.7685 61.5506 43.9542 61.1722 44.0293C60.7938 44.1043 60.4016 44.0653 60.0454 43.9173C59.6891 43.7692 59.3848 43.5188 59.1711 43.1976C58.9573 42.8765 58.8436 42.4991 58.8445 42.1133C58.8427 41.8575 58.8918 41.6039 58.9888 41.3672C59.0859 41.1306 59.229 40.9155 59.4099 40.7346C59.5908 40.5537 59.8058 40.4106 60.0425 40.3136C60.2792 40.2165 60.5328 40.1675 60.7886 40.1693ZM80.361 40.0557C80.7453 40.0566 81.1207 40.1714 81.4398 40.3856C81.7589 40.5997 82.0074 40.9036 82.1538 41.259C82.3003 41.6143 82.3381 42.005 82.2626 42.3818C82.1871 42.7586 82.0016 43.1046 81.7295 43.376C81.4575 43.6475 81.111 43.8322 80.7341 43.9068C80.3571 43.9815 79.9664 43.9427 79.6115 43.7954C79.2565 43.6481 78.9531 43.399 78.7397 43.0794C78.5263 42.7598 78.4124 42.3841 78.4124 41.9998C78.4106 41.7436 78.4598 41.4896 78.5571 41.2526C78.6544 41.0156 78.798 40.8004 78.9793 40.6194C79.1607 40.4385 79.3763 40.2955 79.6135 40.1987C79.8507 40.1019 80.1048 40.0533 80.361 40.0557ZM90.0904 23.3404C90.4746 23.3431 90.8495 23.4593 91.1678 23.6744C91.4862 23.8896 91.7338 24.1941 91.8796 24.5496C92.0254 24.9051 92.0629 25.2957 91.9872 25.6724C91.9116 26.0492 91.7263 26.3951 91.4546 26.6668C91.1829 26.9385 90.837 27.1238 90.4602 27.1994C90.0835 27.2751 89.6929 27.2376 89.3374 27.0918C88.9819 26.946 88.6774 26.6984 88.4622 26.38C88.2471 26.0617 88.1309 25.6868 88.1282 25.3026C88.1258 25.0464 88.1744 24.7923 88.2711 24.5551C88.3679 24.3179 88.511 24.1023 88.6919 23.921C88.8729 23.7396 89.0881 23.5961 89.3251 23.4987C89.5621 23.4014 89.8161 23.3522 90.0722 23.354L90.0904 23.3404ZM80.252 6.64321C80.6363 6.64411 81.0117 6.75889 81.3308 6.97305C81.6499 7.18722 81.8984 7.49115 82.0448 7.84646C82.1913 8.20177 82.2291 8.59251 82.1536 8.96933C82.0781 9.34614 81.8926 9.69211 81.6205 9.96354C81.3484 10.235 81.002 10.4197 80.625 10.4943C80.2481 10.569 79.8574 10.5302 79.5024 10.3829C79.1475 10.2356 78.8441 9.98647 78.6307 9.66687C78.4173 9.34727 78.3034 8.97159 78.3034 8.58728C78.3016 8.33109 78.3507 8.0771 78.4481 7.84012C78.5454 7.60313 78.689 7.38789 78.8703 7.20695C79.0517 7.026 79.2673 6.88297 79.5045 6.78618C79.7417 6.6894 79.9958 6.6408 80.252 6.64321ZM60.6751 6.64321C61.0596 6.64321 61.4354 6.75723 61.7551 6.97085C62.0748 7.18446 62.324 7.48809 62.4711 7.84332C62.6183 8.19855 62.6568 8.58944 62.5818 8.96655C62.5068 9.34366 62.3216 9.69006 62.0497 9.96194C61.7778 10.2338 61.4314 10.419 61.0543 10.494C60.6772 10.569 60.2863 10.5305 59.9311 10.3834C59.5759 10.2362 59.2722 9.98704 59.0586 9.66734C58.845 9.34764 58.731 8.97178 58.731 8.58728C58.7292 8.33148 58.7782 8.07786 58.8753 7.84118C58.9723 7.6045 59.1155 7.38946 59.2964 7.20858C59.4772 7.02769 59.6923 6.88456 59.929 6.78751C60.1656 6.69045 60.4193 6.6414 60.6751 6.64321ZM50.9456 23.4494C51.3299 23.4503 51.7054 23.5651 52.0245 23.7792C52.3436 23.9934 52.592 24.2973 52.7385 24.6526C52.8849 25.0079 52.9228 25.3987 52.8473 25.7755C52.7717 26.1523 52.5862 26.4983 52.3142 26.7697C52.0421 27.0411 51.6957 27.2258 51.3187 27.3005C50.9417 27.3751 50.5511 27.3364 50.1961 27.1891C49.8411 27.0418 49.5378 26.7927 49.3244 26.473C49.1109 26.1534 48.997 25.7778 48.997 25.3935C48.9952 25.1373 49.0444 24.8833 49.1417 24.6463C49.2391 24.4093 49.3826 24.1941 49.564 24.0131C49.7454 23.8322 49.9609 23.6891 50.1981 23.5924C50.4354 23.4956 50.6895 23.447 50.9456 23.4494ZM70.4136 47.5095C70.7307 47.5095 71.0407 47.6035 71.3044 47.7797C71.568 47.9559 71.7735 48.2063 71.8949 48.4993C72.0163 48.7923 72.048 49.1147 71.9861 49.4257C71.9243 49.7367 71.7716 50.0224 71.5473 50.2467C71.3231 50.4709 71.0374 50.6236 70.7264 50.6855C70.4153 50.7473 70.0929 50.7156 69.8 50.5942C69.507 50.4729 69.2566 50.2674 69.0804 50.0037C68.9042 49.74 68.8102 49.43 68.8102 49.1129C68.8052 48.901 68.8433 48.6902 68.9221 48.4935C69.0009 48.2967 69.1188 48.1179 69.2687 47.968C69.4186 47.8181 69.5973 47.7002 69.7941 47.6214C69.9909 47.5426 70.2016 47.5045 70.4136 47.5095ZM91.3531 35.6043C91.6703 35.6043 91.9803 35.6984 92.2439 35.8746C92.5076 36.0508 92.7131 36.3012 92.8345 36.5942C92.9559 36.8871 92.9876 37.2095 92.9257 37.5206C92.8639 37.8316 92.7112 38.1173 92.4869 38.3415C92.2627 38.5658 91.977 38.7185 91.666 38.7803C91.3549 38.8422 91.0325 38.8105 90.7396 38.6891C90.4466 38.5677 90.1962 38.3622 90.02 38.0985C89.8438 37.8349 89.7497 37.5249 89.7497 37.2077C89.7448 36.9958 89.7828 36.7851 89.8617 36.5883C89.9405 36.3915 90.0584 36.2128 90.2083 36.0629C90.3582 35.913 90.5369 35.7951 90.7337 35.7163C90.9305 35.6374 91.1412 35.5994 91.3531 35.6043ZM49.5648 35.7179C49.8819 35.7179 50.1919 35.8119 50.4556 35.9881C50.7193 36.1643 50.9248 36.4147 51.0462 36.7077C51.1675 37.0007 51.1993 37.3231 51.1374 37.6341C51.0755 37.9451 50.9228 38.2308 50.6986 38.4551C50.4743 38.6793 50.1886 38.832 49.8776 38.8939C49.5666 38.9558 49.2442 38.924 48.9512 38.8027C48.6582 38.6813 48.4078 38.4758 48.2316 38.2121C48.0554 37.9484 47.9614 37.6384 47.9614 37.3213C47.9558 37.1092 47.9934 36.8982 48.072 36.7011C48.1506 36.504 48.2685 36.325 48.4185 36.175C48.5685 36.025 48.7475 35.9071 48.9446 35.8285C49.1417 35.7499 49.3527 35.7123 49.5648 35.7179ZM70.4136 0.00250249C70.6255 -0.00247133 70.8362 0.0356026 71.033 0.11442C71.2298 0.193238 71.4085 0.311161 71.5584 0.461053C71.7083 0.610945 71.8262 0.78969 71.905 0.986472C71.9839 1.18325 72.0219 1.39398 72.017 1.6059C72.017 2.03115 71.848 2.43898 71.5473 2.73968C71.2466 3.04037 70.8388 3.2093 70.4136 3.2093C69.9883 3.2093 69.5805 3.04037 69.2798 2.73968C68.9791 2.43898 68.8102 2.03115 68.8102 1.6059C68.8045 1.39381 68.8422 1.18279 68.9207 0.985715C68.9993 0.788638 69.1172 0.60963 69.2673 0.459605C69.4173 0.309579 69.5963 0.191679 69.7934 0.113092C69.9904 0.0345048 70.2015 -0.00312301 70.4136 0.00250249ZM49.5694 11.8122C49.8865 11.8122 50.1965 11.9063 50.4602 12.0825C50.7238 12.2587 50.9293 12.5091 51.0507 12.8021C51.1721 13.095 51.2038 13.4174 51.1419 13.7285C51.0801 14.0395 50.9274 14.3252 50.7031 14.5494C50.4789 14.7737 50.1932 14.9264 49.8822 14.9882C49.5711 15.0501 49.2487 15.0184 48.9558 14.897C48.6628 14.7756 48.4124 14.5701 48.2362 14.3065C48.06 14.0428 47.966 13.7328 47.966 13.4156C47.9603 13.2036 47.998 12.9925 48.0765 12.7955C48.1551 12.5984 48.273 12.4194 48.4231 12.2694C48.5731 12.1193 48.7521 12.0014 48.9492 11.9228C49.1462 11.8443 49.3573 11.8066 49.5694 11.8122ZM91.3577 11.8122C91.6748 11.8122 91.9848 11.9063 92.2485 12.0825C92.5122 12.2587 92.7177 12.5091 92.839 12.8021C92.9604 13.095 92.9921 13.4174 92.9303 13.7285C92.8684 14.0395 92.7157 14.3252 92.4915 14.5494C92.2672 14.7737 91.9815 14.9264 91.6705 14.9882C91.3595 15.0501 91.0371 15.0184 90.7441 14.897C90.4511 14.7756 90.2007 14.5701 90.0245 14.3065C89.8483 14.0428 89.7543 13.7328 89.7543 13.4156C89.7487 13.2039 89.7862 12.9933 89.8645 12.7966C89.9428 12.5998 90.0603 12.421 90.2098 12.271C90.3594 12.1211 90.5378 12.0031 90.7344 11.9242C90.9309 11.8453 91.1414 11.8073 91.3531 11.8122H91.3577ZM57.3547 30.567C57.8039 30.567 58.243 30.7002 58.6165 30.9498C58.9899 31.1993 59.281 31.554 59.4529 31.969C59.6248 32.384 59.6698 32.8407 59.5822 33.2812C59.4945 33.7218 59.2782 34.1264 58.9606 34.4441C58.643 34.7617 58.2383 34.978 57.7978 35.0656C57.3572 35.1532 56.9006 35.1083 56.4856 34.9364C56.0706 34.7645 55.7159 34.4734 55.4663 34.0999C55.2168 33.7264 55.0836 33.2873 55.0836 32.8381C55.0895 32.2376 55.3307 31.6634 55.7553 31.2388C56.18 30.8141 56.7542 30.573 57.3547 30.567ZM70.2909 38.0072C70.7401 38.0072 71.1792 38.1404 71.5527 38.3899C71.9262 38.6395 72.2172 38.9942 72.3891 39.4092C72.561 39.8242 72.606 40.2808 72.5184 40.7214C72.4308 41.1619 72.2144 41.5666 71.8968 41.8842C71.5792 42.2018 71.1745 42.4181 70.734 42.5057C70.2934 42.5934 69.8368 42.5484 69.4218 42.3765C69.0068 42.2046 68.6521 41.9135 68.4026 41.54C68.153 41.1666 68.0198 40.7275 68.0198 40.2783C68.0269 39.6781 68.2684 39.1046 68.6928 38.6802C69.1172 38.2558 69.6908 38.0143 70.2909 38.0072ZM83.586 30.567C84.0351 30.567 84.4742 30.7002 84.8477 30.9498C85.2212 31.1993 85.5123 31.554 85.6842 31.969C85.8561 32.384 85.9011 32.8407 85.8134 33.2812C85.7258 33.7218 85.5095 34.1264 85.1919 34.4441C84.8743 34.7617 84.4696 34.978 84.029 35.0656C83.5885 35.1532 83.1318 35.1083 82.7169 34.9364C82.3019 34.7645 81.9472 34.4734 81.6976 34.0999C81.4481 33.7264 81.3149 33.2873 81.3149 32.8381C81.3208 32.2376 81.562 31.6634 81.9866 31.2388C82.4112 30.8141 82.9855 30.573 83.586 30.567ZM70.4136 8.24207C70.8627 8.24207 71.3018 8.37527 71.6753 8.62482C72.0488 8.87437 72.3399 9.22907 72.5118 9.64406C72.6837 10.0591 72.7287 10.5157 72.641 10.9562C72.5534 11.3968 72.3371 11.8015 72.0195 12.1191C71.7019 12.4367 71.2972 12.653 70.8566 12.7406C70.4161 12.8283 69.9594 12.7833 69.5444 12.6114C69.1294 12.4395 68.7748 12.1484 68.5252 11.7749C68.2756 11.4015 68.1425 10.9624 68.1425 10.5132C68.1495 9.91304 68.3911 9.33948 68.8155 8.91509C69.2399 8.49069 69.8134 8.24915 70.4136 8.24207ZM83.586 15.6822C84.0351 15.6822 84.4742 15.8154 84.8477 16.065C85.2212 16.3145 85.5123 16.6692 85.6842 17.0842C85.8561 17.4992 85.9011 17.9558 85.8134 18.3964C85.7258 18.8369 85.5095 19.2416 85.1919 19.5592C84.8743 19.8769 84.4696 20.0932 84.029 20.1808C83.5885 20.2684 83.1318 20.2234 82.7169 20.0515C82.3019 19.8797 81.9472 19.5886 81.6976 19.2151C81.4481 18.8416 81.3149 18.4025 81.3149 17.9533C81.3208 17.3528 81.562 16.7786 81.9866 16.3539C82.4112 15.9293 82.9855 15.6881 83.586 15.6822ZM57.4864 15.7958C57.9356 15.7958 58.3747 15.929 58.7482 16.1785C59.1217 16.4281 59.4128 16.7828 59.5847 17.1978C59.7565 17.6127 59.8015 18.0694 59.7139 18.5099C59.6263 18.9505 59.41 19.3552 59.0923 19.6728C58.7747 19.9904 58.37 20.2067 57.9295 20.2943C57.4889 20.382 57.0323 20.337 56.6173 20.1651C56.2023 19.9932 55.8476 19.7021 55.5981 19.3286C55.3485 18.9551 55.2153 18.5161 55.2153 18.0669C55.2212 17.4664 55.4624 16.8921 55.8871 16.4675C56.3117 16.0429 56.8859 15.8017 57.4864 15.7958ZM66.1848 14.1924C66.9088 14.1924 67.6167 14.4071 68.2187 14.8094C68.8208 15.2116 69.29 15.7834 69.5671 16.4524C69.8442 17.1213 69.9167 17.8575 69.7754 18.5676C69.6342 19.2778 69.2855 19.9301 68.7735 20.4421C68.2615 20.9541 67.6092 21.3028 66.899 21.4441C66.1888 21.5853 65.4527 21.5128 64.7837 21.2357C64.1148 20.9586 63.543 20.4894 63.1407 19.8873C62.7385 19.2853 62.5237 18.5775 62.5237 17.8534C62.5309 16.8846 62.9189 15.9576 63.6039 15.2725C64.2889 14.5875 65.216 14.1995 66.1848 14.1924ZM61.7198 21.8642C62.4438 21.8642 63.1517 22.0789 63.7537 22.4812C64.3558 22.8834 64.825 23.4552 65.1021 24.1242C65.3792 24.7931 65.4517 25.5292 65.3104 26.2394C65.1692 26.9496 64.8205 27.6019 64.3085 28.1139C63.7965 28.6259 63.1442 28.9746 62.434 29.1159C61.7238 29.2571 60.9877 29.1846 60.3188 28.9075C59.6498 28.6304 59.078 28.1612 58.6757 27.5591C58.2735 26.9571 58.0587 26.2493 58.0587 25.5252C58.0659 24.5564 58.4539 23.6294 59.1389 22.9443C59.8239 22.2593 60.751 21.8713 61.7198 21.8642ZM66.0712 29.4179C66.7951 29.4188 67.5025 29.6342 68.1039 30.0371C68.7054 30.4399 69.1739 31.012 69.4503 31.681C69.7267 32.3501 69.7986 33.086 69.6568 33.7959C69.515 34.5058 69.166 35.1577 68.6538 35.6692C68.1416 36.1808 67.4893 36.529 66.7792 36.6699C66.0692 36.8108 65.3333 36.738 64.6646 36.4608C63.9959 36.1836 63.4244 35.7143 63.0223 35.1124C62.6202 34.5104 62.4056 33.8028 62.4056 33.0789C62.4128 32.1093 62.8014 31.1816 63.4874 30.4964C64.1734 29.8113 65.1017 29.4238 66.0712 29.4179ZM74.8831 29.4179C75.6072 29.4179 76.315 29.6326 76.917 30.0348C77.5191 30.4371 77.9883 31.0089 78.2654 31.6779C78.5425 32.3468 78.615 33.0829 78.4738 33.7931C78.3325 34.5033 77.9838 35.1556 77.4718 35.6676C76.9598 36.1796 76.3075 36.5283 75.5973 36.6696C74.8872 36.8108 74.151 36.7383 73.4821 36.4612C72.8131 36.1841 72.2413 35.7149 71.8391 35.1128C71.4368 34.5108 71.2221 33.803 71.2221 33.0789C71.2292 32.1101 71.6172 31.1831 72.3022 30.498C72.9873 29.813 73.9143 29.425 74.8831 29.4179ZM79.3481 21.8642C80.072 21.8651 80.7793 22.0805 81.3808 22.4834C81.9823 22.8862 82.4508 23.4583 82.7272 24.1273C83.0036 24.7964 83.0754 25.5323 82.9337 26.2422C82.7919 26.9521 82.4429 27.604 81.9307 28.1155C81.4185 28.6271 80.7661 28.9753 80.0561 29.1162C79.3461 29.2571 78.6102 29.1843 77.9415 28.9071C77.2728 28.6299 76.7013 28.1606 76.2992 27.5587C75.8971 26.9567 75.6825 26.2491 75.6825 25.5252C75.6897 24.5556 76.0783 23.6279 76.7643 22.9427C77.4503 22.2576 78.3785 21.8701 79.3481 21.8642ZM74.8695 14.3105C75.5935 14.3105 76.3014 14.5252 76.9034 14.9275C77.5055 15.3297 77.9747 15.9015 78.2518 16.5705C78.5289 17.2394 78.6014 17.9755 78.4601 18.6857C78.3189 19.3959 77.9702 20.0482 77.4582 20.5602C76.9462 21.0722 76.2939 21.4209 75.5837 21.5622C74.8735 21.7034 74.1374 21.6309 73.4685 21.3538C72.7995 21.0767 72.2277 20.6075 71.8254 20.0054C71.4232 19.4034 71.2084 18.6956 71.2084 17.9715C71.2156 17.0027 71.6036 16.0757 72.2886 15.3906C72.9736 14.7056 73.9007 14.3176 74.8695 14.3105Z" fill="#051B52"></path></svg>