<svg xmlns="http://www.w3.org/2000/svg" width="140" height="27" viewBox="0 0 140 27" fill="none"><path fill-rule="evenodd" clip-rule="evenodd" d="M10.983 0.117223C8.18094 -0.44319 5.52221 1.06003 4.42049 3.46792C1.91733 4.1296 0 6.40675 0 9.20782V19.8189C0 22.5493 1.92726 24.9002 4.60469 25.4357L10.2926 26.5733C13.0947 27.1337 15.7534 25.6305 16.8551 23.2226C19.3583 22.5609 21.2756 20.2838 21.2756 17.4827V13.8567C21.2756 13.4588 21.0449 13.0971 20.6842 12.9293C20.3235 12.7615 19.8982 12.818 19.5939 13.0743L15.707 16.3475C15.4762 16.5418 15.343 16.8281 15.343 17.1299V20.7559C15.343 20.9656 15.3266 21.1708 15.2951 21.3705C15.06 21.3671 14.8212 21.3422 14.5807 21.2941L8.89278 20.1565C7.17158 19.8123 5.93263 18.301 5.93263 16.5457V5.93465C5.93263 5.72493 5.94903 5.5197 5.98054 5.32001C6.21567 5.32342 6.45448 5.34832 6.69491 5.39641L12.3828 6.53399C14.1041 6.87823 15.343 8.38951 15.343 10.1448V12.7315C15.343 13.1294 15.5737 13.4911 15.9344 13.6589C16.2951 13.8268 16.7204 13.7702 17.0247 13.5139L20.9116 10.2408C21.1424 10.0464 21.2756 9.76008 21.2756 9.45836V6.87163C21.2756 4.14118 19.3484 1.7903 16.6709 1.25481L10.983 0.117223ZM7.09612 3.3904C7.03412 3.378 6.97219 3.36661 6.91035 3.35622C7.78906 2.36758 9.15716 1.8383 10.5818 2.12323L16.2697 3.26082C17.9909 3.60506 19.2299 5.11634 19.2299 6.87163V8.98249L17.3887 10.5329V10.1448C17.3887 7.41435 15.4615 5.06347 12.784 4.52799L7.09612 3.3904ZM2.04573 9.20782C2.04573 7.79251 2.79286 6.58136 3.88698 5.9024L3.88689 5.93465V16.5457C3.88689 19.2762 5.81415 21.627 8.49158 22.1625L14.1795 23.3001C14.2415 23.3125 14.3034 23.3239 14.3653 23.3343C13.4866 24.3229 12.1185 24.8522 10.6938 24.5673L5.00589 23.4297C3.28469 23.0855 2.04573 21.5742 2.04573 19.8189V9.20782ZM19.2299 17.4827C19.2299 18.898 18.4828 20.1092 17.3887 20.7881L17.3887 20.7559V17.6057L19.2299 16.0553V17.4827ZM112.414 6.28667C113.6 6.28667 114.562 5.32493 114.562 4.13864C114.562 2.95236 113.6 1.99062 112.414 1.99062C111.227 1.99062 110.266 2.95236 110.266 4.13864C110.266 5.32493 111.227 6.28667 112.414 6.28667ZM107.606 2.60434H103.924V19.9931H107.606V2.60434ZM35.6216 6.96931C37.5734 7.12054 39.441 8.1504 40.5953 9.71207L37.963 11.6577C37.3784 10.8666 36.4059 10.4568 35.3918 10.3781C34.4441 10.3046 33.6566 10.6307 32.937 11.6577C31.3004 14.3673 33.1415 16.5153 34.9827 16.7199C36.4375 16.7199 37.3341 16.052 37.9814 15.2108L40.7107 17.1291C39.3123 18.9472 37.8467 19.891 34.6754 19.891C30.0202 19.891 26.4402 14.2045 29.7661 9.45755C31.1965 7.41601 33.603 6.81268 35.6216 6.96931ZM51.2467 7.82117C49.9161 7.02744 48.1745 6.86363 46.6438 7.10496C45.1119 7.34649 43.3886 8.09766 42.45 9.66213C41.6601 10.9787 41.3245 11.5708 41.3245 13.6209C41.2266 17.1291 43.7793 19.8914 47.2939 19.8914C49.3747 19.8914 51.7765 19.323 53.4267 17.6729L51.2467 15.4925L51.2465 15.4927C50.3256 16.4131 49.9164 16.8222 47.564 16.8222C46.6905 16.8222 45.3876 15.697 45.2118 14.6746L53.9061 14.7769L53.9045 13.6209C53.9485 12.6183 53.9085 11.5147 53.5381 10.4736C53.147 9.37425 52.4002 8.5094 51.2467 7.82117ZM50.3453 11.9128H45.0352C45.0843 11.7956 45.1394 11.6771 45.2006 11.5576C45.2573 11.4462 45.3196 11.3337 45.3876 11.2206C45.6764 10.7393 46.2458 10.2145 47.1548 10.0713C48.065 9.92783 48.8405 10.0413 49.4051 10.3781C49.9229 10.6872 50.2234 11.2206 50.3453 11.9128ZM59.5315 8.93813V7.30953H55.6446V19.9931H59.5315V12.7555C59.7748 12.1108 60.0341 11.5966 60.365 11.3239C60.5751 11.1507 60.7829 11.028 61.0019 10.9373C61.3251 10.8033 61.6731 10.7391 62.0887 10.685C62.9441 10.5733 63.3625 10.7891 63.7253 11.0941C64.0665 11.381 64.5435 11.8471 64.5435 13.1395V19.9935H68.2259V13.1395C68.2259 11.1595 68.0636 9.29893 66.7939 8.23051C65.5456 7.18048 64.3018 7.01206 62.8047 7.20725C61.7594 7.34349 60.5695 7.55746 59.5315 8.93813ZM114.153 7.30953V19.9931H110.47V7.30953H114.153ZM84.4895 9.08197V7.30953H80.8071V19.9931H84.4895V14.0401C84.4895 13.1399 84.5402 12.457 85.3077 11.7079C86.2899 10.7493 87.8062 10.685 88.5809 10.685V7.10496C86.5352 7.10496 85.3077 7.92325 84.4895 9.08197ZM101.264 19.8908V14.4804C101.265 13.5099 101.266 12.2191 101.162 11.2987C101.049 10.2882 100.964 9.5996 100.139 8.63926C99.2503 7.60401 97.5798 7.10496 96.0143 7.10496C93.8993 7.10496 92.9954 7.51581 91.7119 8.09925L91.7115 8.09946C91.2775 8.29684 90.8001 8.514 90.2175 8.74155L91.5293 11.3912L91.755 11.2614L91.9272 11.1609L92.0039 11.1159L92.0123 11.1105C92.9165 10.5777 93.4292 10.2758 94.9227 10.2758C95.7454 10.2758 96.2432 10.3588 96.5525 10.461C96.8861 10.5715 97 10.7046 97.0647 10.7803L97.0707 10.7873C97.169 10.9018 97.2641 11.0346 97.3448 11.2506C97.4159 11.4416 97.4763 11.6975 97.5174 12.0633C97.5234 12.1188 97.5294 12.1747 97.5346 12.2311L97.4799 12.2295C96.3551 12.1903 94.0021 12.1636 93.4747 12.2295C91.8537 12.4323 90.3374 13.034 89.8084 14.3673C89.3013 15.6453 89.4176 17.2663 90.146 18.4588C90.6886 19.347 91.7722 19.8135 92.6176 19.9931C93.4763 20.1755 94.7365 19.9807 95.6519 19.8197C96.4138 19.6854 97.032 19.2935 97.5822 18.7752V19.8908H101.264ZM97.5822 14.5659L97.3828 14.5583C96.3084 14.5207 94.9842 14.5235 93.8607 14.664C93.0815 14.8787 92.9792 15.2879 92.9792 16.1062C92.9792 16.9245 94.3477 17.2623 95.4341 17.2313C96.1885 17.2098 96.9616 16.5179 97.5822 15.8297V14.5659ZM71.6013 7.20725H69.8625V10.0713H71.6013V15.732C71.6009 16.0287 71.6005 16.5755 71.7164 17.146C71.8395 17.7552 72.1223 18.5429 72.8088 19.1874C74.2388 20.5299 76.4344 20.4416 79.0259 19.5953L77.8832 16.0948C77.8832 16.0948 76.9203 16.7199 75.9997 16.7199C75.2837 16.7199 75.2836 15.697 75.2836 15.697V10.0713H78.4545V7.20725H75.2836V4.4455H71.6013V7.20725ZM118.142 7.20725H116.403V10.0713H118.142V15.732C118.141 15.8213 118.141 15.9334 118.144 16.062C118.147 16.1685 118.151 16.2864 118.16 16.4121C118.169 16.5295 118.18 16.6538 118.197 16.7822C118.212 16.9009 118.232 17.023 118.257 17.146C118.38 17.7552 118.663 18.5429 119.349 19.1874C120.779 20.5299 122.975 20.4416 125.566 19.5953L124.424 16.0948C123.283 16.4672 122.576 16.5493 122.173 16.5329C122.027 16.5269 121.936 16.5093 121.885 16.4948L121.875 16.4572L121.866 16.4152C121.829 16.2354 121.824 16.0235 121.824 15.697V10.0713H124.995V7.20725H121.824V4.4455H118.142V7.20725ZM134.777 20.3825C134.825 20.2475 134.871 20.1172 134.917 19.9931L140.001 7.19226H136.062L133.249 15.1856L130.059 7.19226H126.12L131.308 19.4783C131.212 19.6457 131.14 19.8167 131.071 19.9813C131.012 20.1233 130.954 20.2606 130.885 20.3868C130.794 20.5523 130.682 20.6987 130.518 20.8114C130.452 20.8573 130.384 20.8981 130.311 20.9338C130.228 20.975 130.138 21.0094 130.038 21.0369C129.978 21.0533 129.915 21.0673 129.846 21.0787C129.69 21.1049 129.509 21.1182 129.291 21.1182C128.843 21.1182 128.612 20.9461 128.282 20.7004L128.281 20.6999C128.159 20.609 128.024 20.5081 127.859 20.4022L126.12 23.2663C127.227 23.9781 128.47 24.5123 129.598 24.4937C130.725 24.4753 131.51 24.3313 132.288 23.7961C133.899 22.8695 134.392 21.4731 134.777 20.3825Z" fill="#051B52"></path></svg>