<svg xmlns="http://www.w3.org/2000/svg" width="141" height="22" viewBox="0 0 141 22" fill="none"><path d="M22.6426 9.82895C22.6426 5.36302 25.9544 1.75012 30.6712 1.75012C33.5314 1.75012 35.2877 2.7537 36.7429 4.15872L34.9866 6.16588C33.7322 5.01176 32.4275 4.2089 30.6211 4.2089C27.6605 4.2089 25.5028 6.66767 25.5028 9.67842V9.72859C25.5028 12.7895 27.6605 15.2483 30.6211 15.2483C32.5279 15.2483 33.7322 14.4956 35.087 13.2411L36.8433 14.9974C35.2375 16.7035 33.4311 17.7572 30.5207 17.7572C26.0046 17.8074 22.6426 14.2949 22.6426 9.82895ZM39.2519 2.00102H42.1622L46.8791 9.37734L51.6461 2.00102H54.5565V17.5565H51.7966V6.41678L46.8791 13.7429H46.8289L41.9615 6.46695V17.5565H39.2519V2.00102ZM57.4669 2.00102H69.008V4.45979H60.2267V8.47412H68.0045V10.9329H60.2267V15.0978H69.1084V17.5565H57.4669V2.00102ZM74.7786 9.82895C74.7786 5.41319 78.0904 1.75012 82.8073 1.75012C85.5169 1.75012 87.1729 2.50281 88.7786 3.85764L87.0223 5.91499C85.818 4.9114 84.6639 4.25908 82.6567 4.25908C79.7965 4.25908 77.6388 6.76803 77.6388 9.72859V9.77877C77.6388 12.9902 79.7464 15.3486 82.9076 15.3486C84.3628 15.3486 85.7177 14.897 86.6711 14.1945V11.2841H82.7069V8.92573H89.3306V15.449C87.775 16.7537 85.6173 17.8576 82.8575 17.8576C77.9901 17.8074 74.7786 14.3451 74.7786 9.82895ZM92.1406 5.81463H94.8503V8.47412C95.6029 6.71785 96.9578 5.51355 99.0151 5.61391V8.47412H98.8646C96.5062 8.47412 94.8503 10.0297 94.8503 13.1408V17.6067H92.1406V5.81463ZM100.069 11.7358C100.069 8.32358 102.728 5.56373 106.341 5.56373C109.954 5.56373 112.563 8.2734 112.563 11.6354V11.6856C112.563 14.9974 109.904 17.8074 106.291 17.8074C102.728 17.8074 100.069 15.0978 100.069 11.7358ZM109.904 11.7358C109.904 9.62824 108.399 7.92215 106.291 7.92215C104.133 7.92215 102.779 9.62824 102.779 11.6354V11.6856C102.779 13.7429 104.284 15.449 106.341 15.449C108.549 15.4992 109.904 13.7931 109.904 11.7358ZM114.721 13.2913V5.81463H117.431V12.4884C117.431 14.2949 118.334 15.3486 119.94 15.3486C121.495 15.3486 122.599 14.2447 122.599 12.4383V5.81463H125.309V17.5565H122.599V15.7501C121.847 16.854 120.743 17.8074 118.936 17.8074C116.277 17.8074 114.721 16.001 114.721 13.2913ZM128.019 5.81463H130.728V7.77161C131.581 6.56731 132.836 5.56373 134.692 5.56373C137.452 5.56373 140.162 7.77161 140.162 11.6354V11.6856C140.162 15.5494 137.502 17.7572 134.692 17.7572C132.735 17.7572 131.531 16.8038 130.728 15.6999V21.7716H128.019V5.81463ZM137.402 11.7358C137.402 9.42752 135.847 7.92215 134.04 7.92215C132.234 7.92215 130.628 9.42752 130.628 11.6856V11.7358C130.628 13.9938 132.234 15.4992 134.04 15.4992C135.897 15.449 137.402 14.044 137.402 11.7358Z" fill="#051B52"></path><path d="M14.1621 9.67842H9.5456V5.36302H13.4094C13.861 6.66768 14.1119 8.12287 14.1621 9.67842ZM4.37715 5.36302H1.01515L0.162109 6.21607V9.67842H3.67464C3.67464 8.12287 3.92554 6.66768 4.37715 5.36302ZM3.67464 10.3308H0.162109V13.8433L0.964974 14.6462H4.37715C3.92554 13.3415 3.67464 11.8863 3.67464 10.3308ZM9.5456 15.2985V19.1121H10.2983C11.5026 18.1587 12.456 16.9042 13.1585 15.2985H9.5456ZM7.137 0.947266H5.38073L1.66748 4.7107H4.62805C5.2302 3.20532 6.08324 1.95085 7.137 0.947266ZM14.0115 14.6462H17.4237L18.2768 13.7931V10.2806H14.7642C14.714 11.8863 14.4631 13.3415 14.0115 14.6462ZM16.7714 4.7107L13.008 0.947266H11.3019C12.3556 1.95085 13.2087 3.20532 13.8108 4.7107H16.7714ZM14.1621 10.3308H9.5456V14.6462H13.3592C13.861 13.3415 14.1119 11.8863 14.1621 10.3308ZM17.4237 5.36302H14.0617C14.5133 6.66768 14.7642 8.12287 14.7642 9.67842H18.2768V6.21607L17.4237 5.36302ZM5.02948 14.6462H8.89327V10.3308H4.27679C4.32697 11.8863 4.57787 13.3415 5.02948 14.6462ZM5.28037 4.7107H8.89327V0.947266H8.0904C6.88611 1.85049 5.9327 3.15514 5.28037 4.7107ZM10.3485 0.947266H9.5456V4.7107H13.1585C12.5062 3.15514 11.5528 1.85049 10.3485 0.947266ZM1.6173 15.2985L5.43091 19.1121H7.18718C6.13342 18.1085 5.2302 16.8039 4.62805 15.2985H1.6173ZM8.14058 19.1121H8.89327V15.2985H5.28037C5.98288 16.854 6.93628 18.1587 8.14058 19.1121ZM11.2517 19.1121H13.008L16.8216 15.2985H13.8108C13.2087 16.8039 12.3054 18.1085 11.2517 19.1121ZM4.27679 9.67842H8.89327V5.36302H5.02948C4.57787 6.66768 4.32697 8.12287 4.27679 9.67842Z" fill="#051B52"></path></svg>