<svg xmlns="http://www.w3.org/2000/svg" width="140" height="22" viewBox="0 0 140 22" fill="none"><path d="M22.4805 9.82895C22.4805 5.36302 25.7923 1.75012 30.5091 1.75012C33.3693 1.75012 35.1256 2.7537 36.5808 4.15872L34.8245 6.16588C33.57 5.01176 32.2654 4.2089 30.4589 4.2089C27.4984 4.2089 25.3407 6.66767 25.3407 9.67842V9.72859C25.3407 12.7895 27.4984 15.2483 30.4589 15.2483C32.3657 15.2483 33.57 14.4956 34.9249 13.2411L36.6811 14.9974C35.0754 16.7035 33.269 17.7572 30.3586 17.7572C25.8425 17.8074 22.4805 14.2949 22.4805 9.82895ZM39.0897 2.00102H42.0001L46.717 9.37734L51.484 2.00102H54.3944V17.5565H51.6345V6.41678L46.717 13.7429H46.6668L41.7994 6.46695V17.5565H39.0897V2.00102ZM57.3047 2.00102H68.8459V4.45979H60.0646V8.47412H67.8423V10.9329H60.0646V15.0978H68.9463V17.5565H57.3047V2.00102ZM74.6165 9.82895C74.6165 5.41319 77.9283 1.75012 82.6452 1.75012C85.3548 1.75012 87.0108 2.50281 88.6165 3.85764L86.8602 5.91499C85.6559 4.9114 84.5018 4.25908 82.4946 4.25908C79.6344 4.25908 77.4767 6.76803 77.4767 9.72859V9.77877C77.4767 12.9902 79.5843 15.3486 82.7455 15.3486C84.2007 15.3486 85.5556 14.897 86.509 14.1945V11.2841H82.5448V8.92573H89.1684V15.449C87.6129 16.7537 85.4552 17.8576 82.6954 17.8576C77.828 17.8074 74.6165 14.3451 74.6165 9.82895ZM91.9785 5.81463H94.6881V8.47412C95.4408 6.71785 96.7957 5.51355 98.853 5.61391V8.47412H98.7025C96.3441 8.47412 94.6881 10.0297 94.6881 13.1408V17.6067H91.9785V5.81463ZM99.9068 11.7358C99.9068 8.32358 102.566 5.56373 106.179 5.56373C109.792 5.56373 112.401 8.2734 112.401 11.6354V11.6856C112.401 14.9974 109.742 17.8074 106.129 17.8074C102.566 17.8074 99.9068 15.0978 99.9068 11.7358ZM109.742 11.7358C109.742 9.62824 108.236 7.92215 106.129 7.92215C103.971 7.92215 102.616 9.62824 102.616 11.6354V11.6856C102.616 13.7429 104.122 15.449 106.179 15.449C108.387 15.4992 109.742 13.7931 109.742 11.7358ZM114.559 13.2913V5.81463H117.269V12.4884C117.269 14.2949 118.172 15.3486 119.778 15.3486C121.333 15.3486 122.437 14.2447 122.437 12.4383V5.81463H125.147V17.5565H122.437V15.7501C121.684 16.854 120.581 17.8074 118.774 17.8074C116.115 17.8074 114.559 16.001 114.559 13.2913ZM127.857 5.81463H130.566V7.77161C131.419 6.56731 132.674 5.56373 134.53 5.56373C137.29 5.56373 140 7.77161 140 11.6354V11.6856C140 15.5494 137.34 17.7572 134.53 17.7572C132.573 17.7572 131.369 16.8038 130.566 15.6999V21.7716H127.857V5.81463ZM137.24 11.7358C137.24 9.42752 135.684 7.92215 133.878 7.92215C132.072 7.92215 130.466 9.42752 130.466 11.6856V11.7358C130.466 13.9938 132.072 15.4992 133.878 15.4992C135.735 15.449 137.24 14.044 137.24 11.7358Z" fill="black"></path><path d="M14 9.67842H9.38349V5.36302H13.2473C13.6989 6.66768 13.9498 8.12287 14 9.67842ZM4.21504 5.36302H0.853044L0 6.21607V9.67842H3.51253C3.51253 8.12287 3.76343 6.66768 4.21504 5.36302ZM3.51253 10.3308H0V13.8433L0.802865 14.6462H4.21504C3.76343 13.3415 3.51253 11.8863 3.51253 10.3308ZM9.38349 15.2985V19.1121H10.1362C11.3405 18.1587 12.2939 16.9042 12.9964 15.2985H9.38349ZM6.97489 0.947266H5.21862L1.50537 4.7107H4.46594C5.06809 3.20532 5.92113 1.95085 6.97489 0.947266ZM13.8494 14.6462H17.2616L18.1146 13.7931V10.2806H14.6021C14.5519 11.8863 14.301 13.3415 13.8494 14.6462ZM16.6093 4.7107L12.8458 0.947266H11.1398C12.1935 1.95085 13.0466 3.20532 13.6487 4.7107H16.6093ZM14 10.3308H9.38349V14.6462H13.1971C13.6989 13.3415 13.9498 11.8863 14 10.3308ZM17.2616 5.36302H13.8996C14.3512 6.66768 14.6021 8.12287 14.6021 9.67842H18.1146V6.21607L17.2616 5.36302ZM4.86737 14.6462H8.73116V10.3308H4.11468C4.16486 11.8863 4.41576 13.3415 4.86737 14.6462ZM5.11827 4.7107H8.73116V0.947266H7.92829C6.724 1.85049 5.77059 3.15514 5.11827 4.7107ZM10.1864 0.947266H9.38349V4.7107H12.9964C12.3441 3.15514 11.3906 1.85049 10.1864 0.947266ZM1.45519 15.2985L5.2688 19.1121H7.02507C5.97131 18.1085 5.06809 16.8039 4.46594 15.2985H1.45519ZM7.97847 19.1121H8.73116V15.2985H5.11827C5.82077 16.854 6.77417 18.1587 7.97847 19.1121ZM11.0896 19.1121H12.8458L16.6595 15.2985H13.6487C13.0466 16.8039 12.1433 18.1085 11.0896 19.1121ZM4.11468 9.67842H8.73116V5.36302H4.86737C4.41576 6.66768 4.16486 8.12287 4.11468 9.67842Z" fill="#0071BA"></path></svg>