<svg xmlns="http://www.w3.org/2000/svg" width="140" height="21" viewBox="0 0 140 21" fill="none"><g clip-path="url(#clip0)"><path d="M23.0104 2.88442C22.8203 2.4408 22.5034 2.06055 22.1232 1.74368C21.1726 0.919803 19.5882 0.793053 18.4475 1.4268C17.3701 1.9338 16.7363 3.13792 16.7363 4.27867H18.1306C18.2573 4.40542 18.3207 4.40542 18.4475 4.4688C17.8771 4.91242 16.7997 5.29267 17.0532 6.17992L18.5108 15.5594L22.6302 6.30667C23.2639 5.2293 23.5808 3.9618 23.0104 2.88442Z" fill="#051B52"></path><path d="M14.202 15.4327L15.9132 4.72229C16.0399 3.9618 15.7864 3.26467 15.4695 2.63092C15.1527 1.9338 14.5189 1.49018 13.8852 1.1733C12.7444 0.666301 11.2234 0.983176 10.3995 1.80705C9.57567 2.63092 9.13204 3.89842 9.57567 5.16592L13.7584 14.5454L14.202 15.4327Z" fill="#051B52"></path><path d="M29.1569 7.06716C29.6639 8.01778 29.6006 9.47541 28.9668 10.2993C28.5232 10.933 27.8895 11.2499 27.3825 11.6935L18.6367 17.7141L18.7635 17.3973L23.3898 7.00379C24.1503 5.73629 25.4178 5.10254 26.7487 5.29266C27.6993 5.54616 28.65 6.17991 29.1569 7.06716Z" fill="#051B52"></path><path d="M4.442 10.9964L14.1384 17.6508H14.2651L9.44861 7.00379C8.62474 5.60954 6.91362 4.9758 5.32925 5.54617C4.37862 5.98979 3.61812 6.81367 3.428 7.76429C2.921 8.96841 3.36462 10.2359 4.442 10.9964Z" fill="#051B52"></path><path d="M31.2488 17.9676C32.0093 17.1438 32.0727 15.6228 31.6924 14.7355C31.3755 13.975 30.7418 13.3413 29.9813 13.0244C29.0307 12.5808 27.7632 12.7075 26.9393 13.2145L18.3203 19.1718H28.6504C29.6644 19.1718 30.4883 18.7915 31.2488 17.9676Z" fill="#051B52"></path><path d="M14.3914 19.1718L5.77241 13.0878C4.94853 12.5808 3.68104 12.4541 2.73041 12.8977C1.96992 13.2146 1.33617 13.8483 1.01929 14.6088C0.512292 15.6862 0.702417 17.017 1.46292 17.8409C2.09666 18.6648 3.04729 19.1084 4.12466 19.1084L14.3914 19.1718Z" fill="#051B52"></path><path d="M53.05 7.70089C52.6063 5.79965 51.1487 5.29265 49.3742 5.1659C43.7972 4.6589 42.8466 8.84164 42.8466 10.6161C42.8466 13.6581 43.6705 16.0664 49.1841 16.0664C50.2615 16.0664 52.9866 14.989 52.9866 13.3413H60.9084C60.5916 18.4113 52.1627 19.552 48.487 19.552C40.882 19.552 34.3544 18.1578 34.6712 10.6161C34.8614 5.22927 39.9313 1.49015 50.008 1.74365C55.5849 1.8704 60.9718 3.6449 60.9718 7.63752H53.05V7.70089Z" fill="#051B52"></path><path d="M132.015 7.70091C131.571 5.79967 130.114 5.29267 128.339 5.16592C122.762 4.65892 121.811 8.84166 121.811 10.5528C121.811 13.5948 122.635 16.003 128.149 16.003C129.226 16.003 131.951 14.9257 131.951 13.2779H139.873C139.556 18.3479 131.128 19.4886 127.452 19.4886C119.847 19.4886 113.319 18.0944 113.636 10.5528C113.826 5.16592 118.896 1.4268 128.973 1.6803C134.55 1.80705 140 3.58155 140 7.57416H132.015V7.70091Z" fill="#051B52"></path><path d="M62.4297 2.1239H72.633L81.3788 14.3553H81.5055V2.1239H88.0331V19.045H78.2734L69.1474 6.81364H69.0207V19.045H62.4297C62.4297 19.1084 62.4297 2.1239 62.4297 2.1239Z" fill="#051B52"></path><path d="M89.998 2.1239H102.42C108.44 2.1239 111.862 3.83502 111.862 6.30664C111.862 7.76427 110.405 9.66551 107.109 10.1725C110.975 10.3626 112.496 12.8976 112.496 14.3553C112.496 17.3972 109.137 18.9816 102.42 18.9816H89.998V2.1239ZM97.2862 8.77826H99.3775C102.546 8.77826 104.194 8.58814 104.194 7.19389C104.194 5.79964 102.8 5.29265 100.011 5.29265H97.3495V8.77826H97.2862ZM97.2862 15.6228H99.3775C103.18 15.6228 104.638 15.1791 104.638 13.9116C104.638 12.5174 102.863 12.0104 100.011 12.0104H97.3495V15.5594H97.2862V15.6228Z" fill="#051B52"></path></g><defs><clipPath id="clip0"><rect width="140" height="20.0223" fill="white"></rect></clipPath></defs></svg>