<svg xmlns="http://www.w3.org/2000/svg" width="140" height="21" viewBox="0 0 140 21" fill="none"><g clip-path="url(#clip0)"><path d="M16.2922 2.25066C16.7358 1.49016 17.433 0.793036 18.3202 0.349411C19.7145 -0.284338 21.5523 0.0325369 22.7564 0.98316C23.8338 1.93378 24.4676 3.32803 24.1507 4.84903C24.4676 4.84903 24.6577 4.6589 24.9746 4.53215C26.6857 4.02516 28.4602 4.53215 29.6009 5.98978C30.4248 7.06715 30.6783 8.65152 30.1079 9.85565C29.9178 10.4894 29.4742 10.9964 28.9672 11.5668L29.0939 11.6935C30.6783 11.8203 32.2627 12.961 32.7697 14.5454C33.2767 16.1298 32.8964 17.7141 31.6923 18.8549C30.7417 19.8055 29.6009 20.1224 28.3334 19.9956H4.50448C2.47648 19.9956 1.01886 19.1718 0.321733 17.4606C-0.312016 16.003 0.00485831 14.1018 1.14561 12.961C1.90611 12.2005 2.85673 11.8836 3.87073 11.6935C2.72998 10.6161 2.1596 9.15852 2.47648 7.57415C2.60323 6.4334 3.61723 5.03915 4.88473 4.59553C5.9621 4.15191 7.41972 4.27866 8.43372 4.78565C8.11685 3.07453 8.87734 1.55353 10.335 0.602911C11.6025 -0.220963 13.5671 -0.220963 14.8346 0.729661C15.4683 1.10991 15.9753 1.74366 16.2922 2.25066Z" fill="white"></path><path d="M23.0104 2.88442C22.8203 2.4408 22.5034 2.06055 22.1232 1.74368C21.1726 0.919803 19.5882 0.793053 18.4475 1.4268C17.3701 1.9338 16.7363 3.13792 16.7363 4.27867H18.1306C18.2573 4.40542 18.3207 4.40542 18.4475 4.4688C17.8771 4.91242 16.7997 5.29267 17.0532 6.17992L18.5108 15.5594L22.6302 6.30667C23.2639 5.2293 23.5808 3.9618 23.0104 2.88442Z" fill="#645FA9"></path><path d="M14.202 15.4327L15.9132 4.72229C16.0399 3.9618 15.7864 3.26467 15.4695 2.63092C15.1527 1.9338 14.5189 1.49018 13.8852 1.1733C12.7444 0.666301 11.2234 0.983176 10.3995 1.80705C9.57567 2.63092 9.13204 3.89842 9.57567 5.16592L13.7584 14.5454L14.202 15.4327Z" fill="#C8234A"></path><path d="M29.1569 7.06716C29.6639 8.01778 29.6006 9.47541 28.9668 10.2993C28.5232 10.933 27.8895 11.2499 27.3825 11.6935L18.6367 17.7141L18.7635 17.3973L23.3898 7.00379C24.1503 5.73629 25.4178 5.10254 26.7487 5.29266C27.6993 5.54616 28.65 6.17991 29.1569 7.06716Z" fill="#0088CF"></path><path d="M4.442 10.9964L14.1384 17.6508H14.2651L9.44861 7.00379C8.62474 5.60954 6.91362 4.9758 5.32925 5.54617C4.37862 5.98979 3.61812 6.81367 3.428 7.76429C2.921 8.96841 3.36462 10.2359 4.442 10.9964Z" fill="#F26F21"></path><path d="M31.2488 17.9676C32.0093 17.1438 32.0727 15.6228 31.6924 14.7355C31.3755 13.975 30.7418 13.3413 29.9813 13.0244C29.0307 12.5808 27.7632 12.7075 26.9393 13.2145L18.3203 19.1718H28.6504C29.6644 19.1718 30.4883 18.7915 31.2488 17.9676Z" fill="#0DB04B"></path><path d="M14.3914 19.1718L5.77241 13.0878C4.94853 12.5808 3.68104 12.4541 2.73041 12.8977C1.96992 13.2146 1.33617 13.8483 1.01929 14.6088C0.512292 15.6862 0.702417 17.017 1.46292 17.8409C2.09666 18.6648 3.04729 19.1084 4.12466 19.1084L14.3914 19.1718Z" fill="#FCB813"></path><path d="M53.05 7.70095C52.6063 5.79971 51.1487 5.29271 49.3742 5.16596C43.7972 4.65896 42.8466 8.8417 42.8466 10.6162C42.8466 13.6582 43.6705 16.0664 49.1841 16.0664C50.2615 16.0664 52.9866 14.9891 52.9866 13.3413H60.9084C60.5916 18.4113 52.1627 19.5521 48.487 19.5521C40.882 19.5521 34.3544 18.1578 34.6712 10.6162C34.8614 5.22933 39.9313 1.49022 50.008 1.74371C55.5849 1.87046 60.9718 3.64496 60.9718 7.63758H53.05V7.70095Z" fill="#242021"></path><path d="M132.015 7.70097C131.571 5.79973 130.114 5.29273 128.339 5.16598C122.762 4.65898 121.811 8.84172 121.811 10.5528C121.811 13.5948 122.635 16.0031 128.149 16.0031C129.226 16.0031 131.951 14.9257 131.951 13.278H139.873C139.556 18.348 131.128 19.4887 127.452 19.4887C119.847 19.4887 113.319 18.0945 113.636 10.5528C113.826 5.16598 118.896 1.42686 128.973 1.68036C134.55 1.80711 140 3.58161 140 7.57422H132.015V7.70097Z" fill="#242021"></path><path d="M62.4297 2.12396H72.633L81.3788 14.3553H81.5055V2.12396H88.0331V19.0451H78.2734L69.1474 6.8137H69.0207V19.0451H62.4297C62.4297 19.1084 62.4297 2.12396 62.4297 2.12396Z" fill="#242021"></path><path d="M89.998 2.12396H102.42C108.44 2.12396 111.862 3.83508 111.862 6.3067C111.862 7.76433 110.405 9.66557 107.109 10.1726C110.975 10.3627 112.496 12.8977 112.496 14.3553C112.496 17.3973 109.137 18.9817 102.42 18.9817H89.998V2.12396ZM97.2862 8.77833H99.3775C102.546 8.77833 104.194 8.5882 104.194 7.19395C104.194 5.79971 102.8 5.29271 100.011 5.29271H97.3495V8.77833H97.2862ZM97.2862 15.6228H99.3775C103.18 15.6228 104.638 15.1792 104.638 13.9117C104.638 12.5174 102.863 12.0104 100.011 12.0104H97.3495V15.5594H97.2862V15.6228Z" fill="#242021"></path></g><defs><clipPath id="clip0"><rect width="140" height="20.0223" fill="white"></rect></clipPath></defs></svg>