<svg xmlns="http://www.w3.org/2000/svg" width="141" height="28" viewBox="0 0 141 28" fill="none"><g clip-path="url(#clip0)"><path d="M12.877 14.0492C12.877 14.7949 13.4598 15.3775 14.2059 15.3775C14.9519 15.3775 15.5347 14.7949 15.5347 14.0492C15.5347 13.3034 14.9519 12.7208 14.2059 12.7208C13.4598 12.7441 12.877 13.3267 12.877 14.0492ZM24.021 12.7441C23.275 12.7441 22.6921 13.3267 22.6921 14.0725C22.6921 14.8182 23.275 15.4008 24.021 15.4008C24.7671 15.4008 25.3499 14.8182 25.3499 14.0725C25.3499 13.3267 24.7671 12.7441 24.021 12.7441ZM24.021 22.7183C23.275 22.7183 22.6921 23.3009 22.6921 24.0467C22.6921 24.7924 23.275 25.375 24.021 25.375C24.7671 25.375 25.3499 24.7924 25.3499 24.0467C25.3499 23.3009 24.7671 22.7183 24.021 22.7183Z" fill="#F3BB2D"></path><path d="M26.8432 1.76808C25.5143 0.113486 23.1363 0.0435762 21.7374 1.34861L21.5742 1.51174L21.2478 1.76808C19.9189 2.84007 17.9373 2.74686 16.7016 1.51174V1.41852C16.282 0.999044 15.7224 0.672787 15.1396 0.509658C15.0463 0.509658 14.8831 0.416443 14.8132 0.416443H13.4843C13.391 0.416443 13.3211 0.416441 13.2278 0.509658H13.0646C12.9714 0.509658 12.9014 0.602873 12.8082 0.602873C12.8082 0.602873 12.7149 0.602879 12.7149 0.696096C12.6217 0.696096 12.5517 0.789311 12.4585 0.789311C12.4585 0.789311 12.3652 0.78931 12.3652 0.882526C12.272 0.975743 12.202 0.975746 12.1088 1.04566C12.1088 1.04566 12.0155 1.04566 12.0155 1.13887C11.9223 1.23209 11.8523 1.23209 11.7591 1.302L11.6658 1.39522L11.5026 1.55835L11.1762 1.81469C9.84732 2.88668 7.86563 2.79347 6.72325 1.55835C6.72325 1.55835 6.62999 1.55835 6.62999 1.46513L6.46679 1.302C5.9772 0.882523 5.39435 0.556265 4.74156 0.486353H3.24947C3.24947 0.579569 3.15621 0.579572 3.08627 0.649485H3.06295C2.6433 0.812614 2.24697 0.97574 1.89726 1.302L1.804 1.39522L1.54755 1.65156C1.22115 1.97782 1.05795 2.3973 0.894755 2.72355C0.894755 2.81677 0.801499 2.88668 0.801499 2.9799C0.801499 3.07312 0.708243 3.14303 0.708243 3.30616C0.614987 3.88876 0.614987 4.47137 0.801499 5.03067C0.801499 5.12388 0.894755 5.1938 0.894755 5.28701V5.38023C0.894755 5.47344 0.988011 5.54336 0.988011 5.63658C1.08127 5.72979 1.08127 5.7997 1.15121 5.96283C1.31441 6.05605 1.4776 6.21918 1.57086 6.2891L1.73406 6.45222L1.89726 6.61535C3.1329 7.85047 3.1329 9.99445 1.804 11.3228C1.6408 11.4859 1.38435 11.7423 1.31441 11.9054C1.22115 11.9986 1.22115 12.0685 1.15121 12.2317V12.3249C1.05795 12.4181 1.05795 12.488 0.988011 12.5812V12.6744C0.988011 12.7677 0.894755 12.8376 0.894755 12.9308V13.024C0.894755 13.1172 0.894755 13.1871 0.801499 13.2803V14.5155C0.801499 14.6087 0.801499 14.6786 0.894755 14.7718V14.865C1.05795 15.4476 1.38435 16.0302 1.87394 16.5196C3.20284 17.848 3.20284 19.9919 1.87394 21.297L1.78069 21.3902L1.61749 21.5533V21.6465C1.52423 21.7398 1.45429 21.8097 1.45429 21.9029C1.45429 21.9029 1.45429 21.9961 1.36103 21.9961C1.26778 22.0893 1.26778 22.1592 1.19784 22.2525L1.10458 22.3457C1.10458 22.4389 1.01133 22.4389 1.01133 22.5088C1.01133 22.5787 0.918069 22.602 0.918069 22.6719C0.918069 22.7651 0.918069 22.7651 0.824813 22.8351C0.661615 23.1613 0.568359 23.5808 0.568359 23.907V24.5596C0.661615 24.8159 0.661615 25.049 0.824813 25.2121C0.824813 25.3053 0.918069 25.3752 0.918069 25.3752C0.918069 25.3752 0.918069 25.4684 1.01133 25.4684C1.01133 25.5616 1.10458 25.6316 1.10458 25.7248C1.10458 25.7248 1.10458 25.818 1.19784 25.818C1.29109 25.9811 1.36103 26.0743 1.45429 26.1442C1.45429 26.1442 1.45429 26.2375 1.54755 26.2375C1.54755 26.2375 1.54755 26.3307 1.6408 26.3307C1.6408 26.4239 1.73406 26.4239 1.73406 26.4239L1.82731 26.5171C1.92057 26.6103 1.99051 26.6103 1.99051 26.6802L2.08377 26.7735C2.08377 26.7735 2.17702 26.7735 2.17702 26.8667C2.27028 26.9599 2.34022 27.0298 2.43348 27.0298C2.43348 27.0298 2.52673 27.0298 2.52673 27.123C2.61999 27.2162 2.68993 27.2162 2.78319 27.2861H2.82981C2.92307 27.3794 2.99301 27.3794 3.15621 27.3794C3.24947 27.3794 3.41266 27.4726 3.4826 27.4726H3.57586C3.66912 27.4726 3.73906 27.4726 3.83231 27.5658H4.57836C4.83482 27.5658 4.99801 27.4726 5.23115 27.4726H5.32441C5.41766 27.4726 5.48761 27.3794 5.58086 27.3794H5.62749C5.72075 27.3794 5.79069 27.2861 5.88394 27.2861H5.9772C6.1404 27.1929 6.39685 27.0298 6.56005 26.9599L6.8165 26.7035L6.90976 26.6103C8.23865 25.2121 10.3835 25.2121 11.6891 26.6103C13.1812 28.1717 15.6525 28.1018 17.0513 26.354C18.0305 25.1189 18.0305 23.3011 17.0513 21.9728C15.7224 20.3182 13.3444 20.2483 11.9456 21.5533L11.7824 21.7165L11.456 21.9728C10.1271 23.0448 8.1454 22.9516 6.90976 21.7165L6.74656 21.5533L6.49011 21.2271C5.41766 19.8987 5.51092 17.9179 6.74656 16.6828C7.49261 16.0302 7.819 15.1214 7.819 14.2125V13.9562C7.819 13.1405 7.49261 12.3016 6.83982 11.719C6.83982 11.6257 6.74656 11.6257 6.74656 11.5558L6.49011 11.2296C5.41766 9.90124 5.51092 7.92038 6.74656 6.68526L6.83982 6.59205L6.93307 6.49883C8.26197 5.10058 10.4069 5.10058 11.7124 6.49883L11.8057 6.59205L11.8989 6.68526L12.0621 6.8484C12.1554 6.8484 12.1554 6.94161 12.2253 6.94161C12.2953 6.94161 12.3186 7.03483 12.3885 7.03483C12.4585 7.03483 12.4818 7.12804 12.5517 7.12804C12.6217 7.12804 12.645 7.22126 12.7149 7.22126C12.7849 7.22126 12.8082 7.31448 12.8781 7.31448C12.9481 7.31448 12.9714 7.40769 13.0413 7.40769C13.1113 7.40769 13.1346 7.40769 13.2045 7.50091C13.2978 7.50091 13.2978 7.50091 13.3677 7.59412H14.7666C14.8598 7.59412 14.9298 7.59413 15.023 7.50091H15.1862C15.2795 7.50091 15.3494 7.40769 15.4427 7.40769H15.5359C15.6292 7.40769 15.6991 7.31447 15.8623 7.24456C16.1887 7.08143 16.5151 6.82509 16.7716 6.59205L16.8648 6.49883C18.1937 5.10058 20.3386 5.10058 21.6442 6.49883C23.043 8.15343 25.6076 8.06021 26.9365 6.3357C27.8224 4.82093 27.8224 3.0032 26.8432 1.76808Z" fill="#F3BB2D"></path><path d="M45.6578 11.9984C45.1682 11.509 44.7486 11.1828 44.1657 10.9264C43.6761 10.6701 43.0933 10.5069 42.3472 10.5069C41.6944 10.5069 41.0183 10.6701 40.5287 10.9264C40.0392 11.1828 39.6195 11.509 39.2931 11.9984C38.9667 12.4179 38.7103 12.9073 38.5471 13.4899C38.3839 14.0725 38.2906 14.6551 38.2906 15.2144C38.2906 15.7737 38.3839 16.3796 38.617 16.9389C38.7802 17.5215 39.1066 17.9177 39.433 18.3371C39.7594 18.7566 40.249 19.0829 40.7619 19.3159C41.2515 19.5723 41.8343 19.6422 42.4871 19.6422C43.2332 19.6422 43.816 19.4791 44.3056 19.2227C44.7952 18.9664 45.2848 18.6401 45.7044 18.1507L47.4297 19.9684C46.7769 20.7142 46.0308 21.2036 45.1915 21.5298C44.3755 21.8561 43.4663 22.0192 42.4638 22.0192C41.4846 22.0192 40.4821 21.8561 39.6661 21.5298C38.8501 21.2036 38.1041 20.7142 37.5212 20.1316C36.9384 19.549 36.4488 18.8032 36.1224 17.9876C35.796 17.1719 35.6328 16.1699 35.6328 15.1911C35.6328 14.2123 35.796 13.2102 36.1224 12.3946C36.4488 11.5789 36.9384 10.8332 37.5212 10.1574C38.1041 9.57478 38.8501 9.08539 39.6661 8.75913C40.4821 8.43287 41.4846 8.26975 42.4638 8.26975C43.443 8.26975 44.3522 8.43287 45.1915 8.75913C46.1008 9.08539 46.8468 9.668 47.4996 10.3205L45.6578 11.9984ZM51.2532 15.0513C51.2532 15.7038 51.3464 16.3796 51.5796 16.869C51.7428 17.4516 52.0692 17.941 52.3956 18.3605C52.7219 18.7799 53.2115 19.1062 53.7244 19.2693C54.214 19.5257 54.8901 19.5956 55.5429 19.5956C56.1957 19.5956 56.7786 19.5024 57.3614 19.2693C57.851 19.013 58.3406 18.6867 58.6903 18.3605C59.0167 17.941 59.3431 17.4516 59.5063 16.869C59.6695 16.2864 59.8327 15.7038 59.8327 15.0513C59.8327 14.3987 59.7394 13.7229 59.5063 13.2335C59.3431 12.6509 59.0167 12.1615 58.6903 11.7421C58.3639 11.3226 57.8743 10.9963 57.3614 10.8332C56.8718 10.5769 56.1957 10.5069 55.5429 10.5069C54.8901 10.5069 54.3073 10.6002 53.7244 10.8332C53.2349 11.0896 52.7453 11.4158 52.3956 11.7421C52.0692 12.1615 51.7428 12.6509 51.5796 13.2335C51.4164 13.8161 51.2532 14.3987 51.2532 15.0513ZM48.6187 15.0513C48.6187 14.0725 48.7819 13.1636 49.1083 12.3247C49.4347 11.509 49.9243 10.7633 50.6004 10.0875C51.2532 9.43495 51.9293 8.92226 52.8385 8.59601C53.6545 8.26975 54.5638 8.0134 55.5663 8.0134C56.5688 8.0134 57.4547 8.17653 58.294 8.59601C59.11 8.92226 59.856 9.41165 60.5321 10.0875C61.1849 10.74 61.6046 11.4857 62.0242 12.3247C62.3506 13.1403 62.5138 14.0492 62.5138 15.0513C62.5138 16.03 62.3506 16.9389 62.0242 17.7778C61.6978 18.5935 61.2082 19.3392 60.5321 20.015C59.8793 20.6676 59.2032 21.087 58.294 21.5065C57.478 21.8328 56.5688 22.0891 55.5663 22.0891C54.5871 22.0891 53.6778 21.926 52.8385 21.5065C52.0225 21.1803 51.2765 20.6909 50.6004 20.015C49.9476 19.3625 49.5279 18.6867 49.1083 17.7778C48.8751 16.9389 48.6187 16.03 48.6187 15.0513ZM65.055 21.7396H67.5263V8.54939H65.055V21.7396ZM64.4722 3.74873C64.4722 3.25935 64.6354 2.83988 64.9618 2.4204C65.2882 2.09414 65.7078 1.8378 66.1974 1.8378C66.687 1.8378 67.1067 2.00093 67.4331 2.4204C67.7594 2.74666 67.9226 3.23604 67.9226 3.74873C67.9226 4.26143 67.7594 4.6576 67.4331 5.07707C67.1067 5.40333 66.687 5.65968 66.1974 5.65968C65.7078 5.65968 65.2882 5.49655 64.9618 5.07707C64.6354 4.72751 64.4722 4.23812 64.4722 3.74873ZM70.9768 8.52609H73.4714V10.5769H73.5646C73.891 9.83113 74.3806 9.24852 75.2199 8.85235C75.966 8.43288 76.8752 8.19983 77.9477 8.19983C78.6004 8.19983 79.1833 8.29305 79.7661 8.52609C80.349 8.68922 80.8386 9.01548 81.2582 9.43496C81.6779 9.85443 82.0043 10.3438 82.3307 10.9963C82.5871 11.6488 82.7503 12.3946 82.7503 13.3034V21.8095H80.2324V13.9793C80.2324 13.3967 80.1392 12.8141 79.976 12.4179C79.8128 11.9984 79.5563 11.6022 79.3232 11.3459C79.0667 11.0895 78.7403 10.8565 78.344 10.7633C78.0176 10.6701 77.5979 10.6002 77.1783 10.6002C76.6887 10.6002 76.1991 10.6934 75.7794 10.8565C75.3598 11.0196 74.9635 11.276 74.6138 11.6722C74.2874 11.9984 74.0309 12.4878 73.8677 13.0704C73.7045 13.653 73.6113 14.3055 73.6113 15.0513V21.9027H71.14V8.54939L70.9768 8.52609ZM91.8661 19.6655C92.5189 19.6655 93.1017 19.5723 93.6846 19.3392C94.2674 19.0829 94.6638 18.7566 95.0834 18.3605C95.4098 17.941 95.7362 17.4516 95.8994 16.869C96.0626 16.2864 96.2258 15.7038 96.2258 14.9813C96.2258 14.3288 96.1325 13.653 95.8994 13.0937C95.7362 12.5111 95.4098 12.0217 95.0834 11.6022C94.6638 11.1828 94.2674 10.8565 93.6846 10.6235C93.1017 10.3671 92.5189 10.2972 91.8661 10.2972C91.2133 10.2972 90.6304 10.3904 90.0476 10.6235C89.4647 10.8798 89.0684 11.2061 88.6488 11.6022C88.3224 12.0217 87.996 12.5111 87.8328 13.0937C87.6696 13.6763 87.5064 14.2589 87.5064 14.9813C87.5064 15.6339 87.5996 16.3097 87.8328 16.869C87.996 17.4516 88.3224 17.941 88.6488 18.3605C88.9752 18.7799 89.4647 19.1062 90.0476 19.3392C90.5372 19.5024 91.2133 19.6655 91.8661 19.6655ZM98.7204 21.6463H96.2491V19.7587H96.1558C95.6663 20.5044 94.9902 20.9938 94.1742 21.4133C93.3582 21.8328 92.4489 21.9959 91.5397 21.9959C90.5605 21.9959 89.558 21.8328 88.742 21.5065C87.926 21.1803 87.18 20.6909 86.5971 20.015C86.0143 19.3625 85.5247 18.6168 85.2682 17.7778C84.9418 16.9622 84.7786 16.0533 84.7786 15.0513C84.7786 14.0492 84.9418 13.1636 85.2682 12.2548C85.5946 11.4391 86.0143 10.6934 86.5971 10.0176C87.18 9.36504 87.926 8.85235 88.742 8.52609C89.558 8.19983 90.4672 8.03671 91.5397 8.03671C92.4489 8.03671 93.3582 8.19984 94.1742 8.61931C94.9902 9.03879 95.6663 9.59808 96.0626 10.2739H96.1558V0.369629H98.6271V21.6463H98.7204ZM111.333 13.9793C111.333 13.3967 111.24 12.9073 111.077 12.4179C110.914 11.9285 110.657 11.509 110.331 11.1828C110.004 10.8565 109.585 10.6002 109.165 10.3671C108.675 10.204 108.186 10.0409 107.51 10.0409C106.927 10.0409 106.344 10.1341 105.854 10.3671C105.365 10.6235 104.945 10.8565 104.526 11.276C104.199 11.6022 103.873 12.0217 103.71 12.5111C103.546 13.0005 103.383 13.42 103.383 13.8394H111.31L111.333 13.9793ZM103.43 16.03C103.43 16.6126 103.593 17.102 103.849 17.5914C104.106 18.0808 104.432 18.5003 104.829 18.8265C105.248 19.1528 105.738 19.4091 106.227 19.5723C106.81 19.7354 107.3 19.8286 107.883 19.8286C108.629 19.8286 109.375 19.6655 109.934 19.246C110.517 18.9197 111.007 18.4304 111.496 17.8478L113.385 19.3392C111.986 21.157 110.004 22.0658 107.533 22.0658C106.461 22.0658 105.551 21.9027 104.735 21.5764C103.919 21.2502 103.173 20.7608 102.591 20.085C102.008 19.4324 101.518 18.7566 101.262 17.8478C100.935 17.0321 100.772 16.1233 100.772 15.1212C100.772 14.1424 100.935 13.2335 101.262 12.3946C101.588 11.5789 102.078 10.8332 102.66 10.1574C103.243 9.50486 103.989 9.08539 104.805 8.66591C105.621 8.33966 106.531 8.17653 107.533 8.17653C108.699 8.17653 109.678 8.33966 110.494 8.75913C111.31 9.17861 111.986 9.668 112.476 10.3205C112.965 10.973 113.385 11.7188 113.641 12.5577C113.898 13.3734 113.968 14.2123 113.968 15.1212V16.03H103.43ZM123.713 11.8353C123.387 11.509 123.06 11.1828 122.641 10.9264C122.221 10.6701 121.661 10.5069 121.078 10.5069C120.496 10.5069 120.006 10.6701 119.516 10.9264C119.097 11.1828 118.864 11.509 118.864 11.9984C118.864 12.4179 119.027 12.7441 119.283 12.9073C119.54 13.1636 119.866 13.3268 120.193 13.4899C120.519 13.653 120.939 13.7462 121.265 13.8161C121.685 13.9094 122.011 13.9793 122.244 13.9793C122.734 14.1424 123.317 14.2356 123.736 14.4687C124.226 14.6318 124.646 14.8881 124.972 15.2144C125.298 15.5406 125.555 15.8669 125.788 16.2864C125.951 16.7059 126.114 17.1952 126.114 17.8478C126.114 18.5935 125.951 19.246 125.625 19.7354C125.298 20.2248 124.879 20.7142 124.389 21.0637C123.899 21.4133 123.317 21.6463 122.664 21.8095C122.011 21.9726 121.335 22.0658 120.775 22.0658C119.703 22.0658 118.724 21.9027 117.884 21.5764C117.068 21.2502 116.322 20.6676 115.646 19.7587L117.535 18.1973C117.954 18.6168 118.351 18.9431 118.864 19.2693C119.377 19.5956 119.936 19.7587 120.682 19.7587C121.009 19.7587 121.335 19.7587 121.661 19.6655C121.988 19.5723 122.244 19.5024 122.477 19.3392C122.734 19.1761 122.897 19.013 123.06 18.8498C123.223 18.5935 123.317 18.3605 123.317 18.1041C123.317 17.7778 123.223 17.4516 122.99 17.1952C122.734 16.9389 122.501 16.7758 122.174 16.6126C121.848 16.4495 121.521 16.3563 121.195 16.2864L120.216 16.03C119.726 15.8669 119.143 15.7737 118.724 15.6106C118.234 15.4474 117.815 15.1911 117.488 14.958C117.162 14.7017 116.835 14.3055 116.579 13.886C116.322 13.4666 116.252 12.9073 116.252 12.3247C116.252 11.6722 116.416 10.9963 116.672 10.5069C116.929 10.0176 117.325 9.59808 117.838 9.27182C118.327 8.94557 118.817 8.68922 119.4 8.52609C119.983 8.36296 120.635 8.26975 121.218 8.26975C122.128 8.26975 122.944 8.43287 123.783 8.75913C124.599 9.08539 125.275 9.66799 125.765 10.4137L123.713 11.8353ZM128.516 0.695893H130.987V14.0492L136.606 8.43287H139.986L133.971 14.3754L140.569 21.4599H137.025L131.01 14.7017V21.4599H128.539V0.695893" fill="#101820"></path></g><defs><clipPath id="clip0"><rect width="140" height="27.3563" fill="white" transform="translate(0.568359 0.369629)"></rect></clipPath></defs></svg>