<svg xmlns="http://www.w3.org/2000/svg" width="141" height="66" viewBox="0 0 141 66" fill="none"><path d="M99.9971 49.9846H101.559L105.164 59.3L108.769 49.9847H110.331L104.473 65.1234H102.91L104.383 61.3183L99.9971 49.9846Z" fill="white"></path><path fill-rule="evenodd" clip-rule="evenodd" d="M79.8624 59.8243C82.2313 59.8243 84.1517 57.9039 84.1517 55.535C84.1517 53.1661 82.2313 51.2457 79.8624 51.2457C77.4935 51.2457 75.5731 53.1661 75.5731 55.535C75.5731 57.9039 77.4935 59.8243 79.8624 59.8243ZM79.8624 61.3382C83.0674 61.3382 85.6656 58.74 85.6656 55.535C85.6656 52.33 83.0674 49.7318 79.8624 49.7318C76.6574 49.7318 74.0592 52.33 74.0592 55.535C74.0592 58.74 76.6574 61.3382 79.8624 61.3382Z" fill="white"></path><path fill-rule="evenodd" clip-rule="evenodd" d="M96.5509 49.7318H93.3207C90.1157 49.7318 87.5175 52.33 87.5175 55.535C87.5175 58.74 90.1157 61.3382 93.3207 61.3382H96.4947C96.8433 61.315 97.6245 61.1841 97.9657 60.8458C97.9798 60.841 97.9938 60.8362 98.0077 60.8314V43.9326H96.5509V49.7318ZM96.5509 51.2457V59.8243H93.3207C90.9518 59.8243 89.0314 57.9039 89.0314 55.535C89.0314 53.1661 90.9518 51.2457 93.3207 51.2457H96.5509Z" fill="white"></path><path d="M37.8217 61.5262C36.8207 61.5262 35.8868 61.3469 35.0202 60.9883C34.1685 60.6297 33.4215 60.1068 32.779 59.4195C32.1514 58.7322 31.6509 57.888 31.2774 56.8869C30.9188 55.8709 30.7395 54.7129 30.7395 53.413C30.7395 52.1131 30.9337 50.9626 31.3222 49.9615C31.7256 48.9455 32.256 48.0938 32.9134 47.4065C33.5709 46.7192 34.3329 46.2037 35.1995 45.8601C36.0661 45.5015 36.9701 45.3222 37.9114 45.3222C38.4941 45.3222 39.0245 45.3595 39.5026 45.4342C39.9808 45.5089 40.3991 45.6061 40.7577 45.7256C41.1163 45.8302 41.4226 45.9422 41.6766 46.0618C41.9306 46.1664 42.1249 46.2635 42.2594 46.3531L41.7663 47.6755C41.3927 47.4513 40.9146 47.2347 40.3319 47.0255C39.7641 46.8014 39.0544 46.6893 38.2027 46.6893C37.2315 46.6893 36.3799 46.8537 35.6477 47.1824C34.9306 47.5111 34.3254 47.9743 33.8324 48.5719C33.3393 49.1696 32.9657 49.8793 32.7117 50.7011C32.4727 51.5229 32.3531 52.4343 32.3531 53.4354C32.3531 54.4664 32.4727 55.4002 32.7117 56.2369C32.9657 57.0587 33.3318 57.761 33.8099 58.3437C34.2881 58.9264 34.8708 59.3746 35.5581 59.6884C36.2603 60.0022 37.0597 60.1591 37.9562 60.1591C38.9423 60.1591 39.7641 60.0694 40.4216 59.8901C41.0939 59.6959 41.6019 59.5016 41.9456 59.3074L42.3714 60.6073C42.2668 60.682 42.0875 60.7717 41.8335 60.8763C41.5795 60.9659 41.2583 61.063 40.8698 61.1676C40.4813 61.2722 40.0331 61.3544 39.5251 61.4142C39.0171 61.4889 38.4493 61.5262 37.8217 61.5262Z" fill="white"></path><path d="M53.6355 60.7866C53.2022 60.9061 52.6195 61.0406 51.8873 61.19C51.1552 61.3395 50.2587 61.4142 49.1979 61.4142C48.3313 61.4142 47.6066 61.2872 47.0239 61.0331C46.4412 60.7791 45.9705 60.4206 45.6119 59.9574C45.2533 59.4942 44.9918 58.9339 44.8275 58.2764C44.6781 57.619 44.6034 56.8944 44.6034 56.1025V49.6029H46.0602V55.6318C46.0602 56.4536 46.1199 57.1484 46.2395 57.7161C46.359 58.2839 46.5532 58.7471 46.8222 59.1057C47.0911 59.4494 47.4348 59.7034 47.8531 59.8677C48.2864 60.0171 48.8094 60.0918 49.422 60.0918C50.1093 60.0918 50.707 60.0545 51.215 59.9798C51.723 59.9051 52.0442 59.8378 52.1787 59.7781V49.6029H53.6355V60.7866Z" fill="white"></path><path d="M61.9356 59.7557C61.3977 60.0246 60.7104 60.1591 59.8736 60.1591C59.4104 60.1591 58.9996 60.1292 58.641 60.0694C58.2973 60.0097 57.9985 59.9424 57.7445 59.8677C57.4905 59.7781 57.2888 59.7034 57.1393 59.6436C56.9899 59.5689 56.8928 59.5166 56.848 59.4867L56.467 60.809C56.6463 60.8987 57.0049 61.0257 57.5428 61.19C58.0807 61.3693 58.8576 61.459 59.8736 61.459C61.2333 61.459 62.3016 61.19 63.0786 60.6521C63.8705 60.1143 64.2664 59.3223 64.2664 58.2764C64.2664 57.7236 64.1693 57.2679 63.9751 56.9093C63.7808 56.5358 63.5268 56.222 63.2131 55.968C62.8993 55.699 62.5332 55.4749 62.1149 55.2956C61.7114 55.1014 61.2856 54.9146 60.8374 54.7353C60.4041 54.556 60.0156 54.3917 59.6719 54.2422C59.3432 54.0928 59.0593 53.9359 58.8203 53.7716C58.5961 53.5923 58.4243 53.3906 58.3048 53.1665C58.1852 52.9423 58.1255 52.6734 58.1255 52.3596C58.1255 52.0458 58.1927 51.7844 58.3272 51.5752C58.4617 51.3511 58.641 51.1718 58.8651 51.0373C59.0892 50.8879 59.3432 50.7833 59.6271 50.7235C59.9259 50.6488 60.2397 50.6115 60.5684 50.6115C61.3902 50.6115 62.0103 50.6862 62.4286 50.8356C62.8619 50.985 63.1682 51.1045 63.3475 51.1942L63.6837 49.8943C63.4745 49.7897 63.1085 49.6701 62.5855 49.5357C62.0775 49.4012 61.4275 49.334 60.6356 49.334C59.3955 49.334 58.4168 49.6253 57.6996 50.208C56.9974 50.7908 56.6463 51.5528 56.6463 52.4941C56.6463 52.9872 56.7359 53.4055 56.9152 53.7492C57.0945 54.0928 57.3336 54.3917 57.6324 54.6457C57.9312 54.8847 58.2749 55.1014 58.6634 55.2956C59.0519 55.4749 59.4627 55.6542 59.896 55.8335C60.4339 56.0576 60.8822 56.2519 61.2408 56.4162C61.6143 56.5806 61.9131 56.7524 62.1373 56.9317C62.3614 57.111 62.5183 57.3127 62.6079 57.5368C62.7125 57.761 62.7648 58.0299 62.7648 58.3437C62.7648 59.0011 62.4884 59.4718 61.9356 59.7557Z" fill="white"></path><path d="M68.4516 49.6029H72.0592V50.8356H68.4516V56.9989C68.4516 57.6564 68.5039 58.1943 68.6085 58.6126C68.728 59.016 68.8923 59.3298 69.1015 59.5539C69.3107 59.7781 69.5647 59.9275 69.8635 60.0022C70.1624 60.0769 70.4911 60.1142 70.8497 60.1142C71.4623 60.1142 71.9553 60.047 72.3289 59.9125C72.7024 59.7631 72.9938 59.6286 73.203 59.5091L73.5616 60.7194C73.3524 60.8539 72.9863 61.0107 72.4634 61.19C71.9404 61.3544 71.3726 61.4366 70.76 61.4366C70.0428 61.4366 69.4377 61.3469 68.9446 61.1676C68.4665 60.9734 68.078 60.6895 67.7792 60.316C67.4953 59.9275 67.2936 59.4494 67.1741 58.8816C67.0545 58.3138 66.9948 57.6414 66.9948 56.8645V50.8356H65.8109V49.6029H66.9948V47.4412H68.4516V49.6029Z" fill="white"></path><path fill-rule="evenodd" clip-rule="evenodd" d="M11.1213 27.3296C12.2063 27.3296 13.2213 27.1336 14.1779 26.7529C14.1779 26.7875 16.1263 29.7749 16.1613 29.7864C14.4369 30.6998 12.5057 31.1642 10.5496 31.1359C4.56461 31.1475 0.224609 27.2374 0.224609 21.0204C0.224609 14.7573 4.77461 10.8703 10.5496 10.8703C12.5913 10.8703 14.2129 11.3086 15.8346 12.1621L13.9679 15.2763C12.9879 14.8957 11.9846 14.7227 10.9346 14.7227C7.39961 14.7227 4.65794 16.9488 4.65794 21.0204C4.65794 24.8728 7.30628 27.3296 11.1213 27.3296ZM26.2063 10.8703C32.0863 10.8703 36.3446 14.988 36.3446 21.0204C36.3446 27.0182 32.0863 31.1359 26.1946 31.1359C20.3613 31.1359 16.1029 27.0182 16.1029 21.0204C16.1029 14.988 20.3613 10.8703 26.2063 10.8703ZM26.2063 14.5843C22.9279 14.5843 20.5363 17.0872 20.5363 21.0204C20.5363 24.919 22.9279 27.4219 26.2063 27.4219C29.5663 27.4219 31.9229 24.919 31.9229 21.0204C31.9229 17.0872 29.5663 14.5843 26.2063 14.5843ZM39.1329 30.6976V11.3086H43.5196V30.6861H39.1329V30.6976ZM38.5496 5.34535C38.5951 4.65553 38.9044 4.00866 39.4146 3.53602C39.9249 3.06338 40.5979 2.80037 41.2971 2.80037C41.9963 2.80037 42.6694 3.06338 43.1796 3.53602C43.6899 4.00866 43.9991 4.65553 44.0446 5.34535C44.0448 6.06965 43.7578 6.76515 43.2452 7.28267C42.7327 7.80019 42.0354 8.09849 41.3029 8.11357C40.5705 8.09849 39.8732 7.80019 39.3606 7.28267C38.8481 6.76515 38.5611 6.06965 38.5613 5.34535H38.5496ZM47.3463 12.5312C50.2197 11.4634 53.2601 10.9013 56.3296 10.8703C61.3463 10.8703 64.5196 12.7503 64.5196 18.2176V30.6976H60.1913V18.6213C60.1913 15.8185 58.4296 14.815 55.9913 14.815C54.4396 14.815 52.8879 15.0226 51.7329 15.3802V30.6861H47.3579V12.5312H47.3463ZM68.1946 0.927734H72.5813V11.8276C73.5146 11.3432 75.3229 10.8703 77.0496 10.8703C82.7196 10.8703 86.9663 14.4459 86.9663 20.6744C86.9663 26.9375 82.7663 31.1359 75.5096 31.1359C72.6746 31.1359 70.1896 30.5592 68.1946 29.8672V0.927734ZM72.5813 27.0182C73.4213 27.2835 74.5296 27.4219 75.6379 27.4219C79.6629 27.4219 82.5446 25.2304 82.5446 20.7667C82.5446 16.995 79.8379 14.7688 76.5246 14.7688C74.7979 14.7688 73.4679 15.2071 72.5813 15.6916V27.0182ZM99.6479 17.6985C99.6479 15.5993 98.0379 14.6304 95.8679 14.6304C93.6163 14.6304 91.8429 15.2879 90.2096 16.2106V12.4389C92.1635 11.3891 94.3559 10.8492 96.5796 10.8703C100.873 10.8703 103.93 12.6235 103.93 17.4794V30.3055C102.063 30.7899 99.4146 31.0898 97.1979 31.0898C92.1113 31.0898 88.3896 29.5673 88.3896 25.1843C88.3896 21.2396 91.7963 19.3133 97.4663 19.3133H99.6363V17.6985H99.6479ZM99.6479 22.1969H97.7813C94.7246 22.1969 92.7296 23.085 92.7296 25.0574C92.7296 27.0644 94.5963 27.8487 97.2446 27.8487C97.9096 27.8487 98.8429 27.7679 99.6363 27.6411V22.2084L99.6479 22.1969ZM107.115 25.4496C108.824 26.7887 110.92 27.5562 113.1 27.6411C115.048 27.6411 116.331 26.9836 116.331 25.4496C116.331 23.8694 115.176 23.3042 112.656 22.6467C108.573 21.724 106.858 20.1092 106.858 16.7297C106.858 12.7965 109.868 10.8703 113.858 10.8703C116.075 10.8703 117.836 11.3432 119.481 12.3582V16.3375C117.918 15.1038 115.986 14.4146 113.986 14.3767C112.085 14.3767 111.07 15.2994 111.07 16.5682C111.07 17.837 111.898 18.4829 114.161 19.1057C118.641 20.0631 120.578 21.724 120.578 25.2189C120.578 29.302 117.44 31.1359 113.193 31.1359C111.063 31.178 108.963 30.635 107.126 29.5673V25.4496H107.115ZM126.586 21.9893V22.07C126.855 25.5303 129.853 27.4219 132.921 27.4219C135.616 27.4219 137.565 26.7991 139.513 25.5303V29.3366C137.74 30.5708 135.126 31.1359 132.606 31.1359C126.493 31.1359 122.34 27.2835 122.34 21.1588C122.34 14.988 126.411 10.8703 131.813 10.8703C137.53 10.8703 140.225 14.5036 140.225 19.7978V21.9893H126.575H126.586ZM136.106 19.1865C136.013 16.1645 134.508 14.5036 131.673 14.5036C129.153 14.5036 127.298 16.2568 126.715 19.1865H136.106Z" fill="white"></path></svg>