<svg xmlns="http://www.w3.org/2000/svg" width="141" height="36" viewBox="0 0 141 36" fill="none"><g clip-path="url(#clip0)"><path d="M21.3382 25.9764L15.4848 28.6625V28.3938C14.3561 28.6988 13.1059 28.8746 11.9216 28.9311C6.41679 28.8746 2.0474 25.8337 1.99655 22.2153V20.872C3.80459 23.647 7.48515 25.5063 11.9216 25.4391C13.4225 25.5063 14.9579 25.2556 16.248 24.9018L16.7571 23.5585C15.2269 24.0404 13.5567 24.3757 11.9216 24.3645C6.41679 24.3757 2.0474 21.3348 1.99655 17.6492V16.5746C3.80459 19.1397 7.47729 20.9996 11.9216 20.8725C13.921 20.9996 15.8764 20.5557 17.5203 19.7979L17.7751 18.4546C16.1689 19.349 14.0872 19.8684 11.9216 19.7979C6.41679 19.8684 2.0474 16.8276 1.99655 13.0826V12.008C3.80459 14.633 7.48515 16.4923 11.9216 16.5746C14.4431 16.4923 16.8336 15.7888 18.7931 14.694L19.0479 13.082C17.2692 14.4735 14.6728 15.3701 11.9216 15.5C6.41679 15.3701 2.04793 12.3287 1.99655 8.516C2.0474 4.88969 6.41679 1.84884 11.9216 1.8007C15.2033 1.84884 18.2511 3.06339 20.0659 5.02402L20.2426 5.33466L21.5259 5.34025L21.3382 5.02402C19.5333 2.43484 15.9235 0.726074 11.9216 0.726074C5.83071 0.726074 0.978516 4.26954 0.978516 8.516V22.4839C1.1924 26.6291 5.93398 30.0052 11.9216 30.0052C15.8764 30.0052 19.4306 28.3636 21.3382 25.9764Z" fill="#051B52"></path><path d="M18.9576 35.4275L21.0125 26.2097L15.1051 28.9209L18.7012 12.9258H11.7658L13.5638 5.06366H35.6524L33.8544 12.9258H26.6631L25.1219 17.2635L33.0838 13.739L18.9576 35.4275ZM22.5537 24.3118L21.5262 29.7342L30.0019 16.1793L23.0669 19.4329L26.1494 11.8416H33.0838L34.3681 6.14836H14.3344L13.0501 11.8416H19.985L16.6457 27.0236L22.5537 24.3129V24.3118ZM50.8695 10.256C50.8087 11.1549 50.4979 11.8624 49.937 12.3795C49.376 12.8961 48.6369 13.1541 47.7195 13.1541C46.7167 13.1541 45.9267 12.7937 45.3521 12.0722C44.777 11.3513 44.4892 10.3612 44.4892 9.10246V8.59146C44.4892 7.78829 44.6219 7.08026 44.8871 6.46795C45.1524 5.85619 45.5314 5.38605 46.0236 5.05918C46.5164 4.73175 47.0889 4.56832 47.7415 4.56832C48.6442 4.56832 49.3718 4.8269 49.9238 5.34351C50.4753 5.85955 50.7941 6.58493 50.8806 7.51851H49.268C49.2287 6.97896 49.0877 6.58772 48.846 6.34481C48.6039 6.1019 48.2359 5.98045 47.7415 5.98045C47.2037 5.98045 46.8016 6.18586 46.5348 6.59724C46.2674 7.00862 46.1306 7.64668 46.1232 8.51142V9.14276C46.1232 10.0456 46.2517 10.7055 46.5075 11.1224C46.7644 11.5394 47.168 11.7482 47.72 11.7482C48.218 11.7482 48.5897 11.6267 48.835 11.3838C49.0809 11.1409 49.2214 10.7648 49.257 10.256H50.8695ZM59.1963 9.05097C59.1963 9.87373 59.06 10.5946 58.7874 11.2142C58.5153 11.8344 58.1258 12.3124 57.6184 12.6493C57.1115 12.9857 56.5301 13.1541 55.8743 13.1541C55.2258 13.1541 54.6471 12.9879 54.1381 12.6549C53.6296 12.3219 53.2348 11.8467 52.9554 11.2288C52.676 10.6109 52.5345 9.90004 52.5308 9.09631V8.68325C52.5308 7.86049 52.6697 7.13679 52.9476 6.51161C53.2254 5.88586 53.6175 5.40564 54.125 5.07037C54.6319 4.73567 55.2117 4.56832 55.8638 4.56832C56.5159 4.56832 57.0957 4.73623 57.6026 5.07037C58.1096 5.40564 58.5022 5.88586 58.7795 6.51105C59.0574 7.13679 59.1963 7.85881 59.1963 8.67765V9.05097ZM57.5623 8.67205C57.5623 7.79556 57.4155 7.13008 57.1219 6.67448C56.8278 6.21944 56.4085 5.99164 55.8638 5.99164C55.3223 5.99164 54.905 6.21664 54.6109 6.66608C54.3174 7.11552 54.1685 7.77429 54.1653 8.64351V9.05097C54.1653 9.90396 54.3121 10.5661 54.6057 11.0362C54.8992 11.5069 55.3223 11.7426 55.8743 11.7426C56.4153 11.7426 56.831 11.5159 57.1219 11.0625C57.4118 10.6092 57.5586 9.94817 57.5623 9.07952V8.67205ZM62.9209 13.0394H61.3084V4.68306H62.9209V13.0394ZM71.6188 13.0394H70.0057L66.8667 7.54146V13.0394H65.2542V4.68306H66.8667L70.0115 10.1928V4.68306H71.6188V13.0394ZM79.6016 6.07784H77.2043V13.0394H75.5918V6.07784H73.2266V4.68306H79.6016V6.07784ZM86.0684 9.41814H82.9724V11.6564H86.6057V13.0394H81.3593V4.68306H86.5952V6.07784H82.9724V8.06925H86.0684V9.41814ZM90.0032 11.6564H93.4274V13.0394H88.3907V4.68306H90.0032V11.6564ZM99.8995 9.41758H96.8034V11.6564H100.437V13.0394H95.1909V4.68306H100.426V6.07784H96.8034V8.06925H99.8995V9.41758ZM108.414 11.9832C108.124 12.3543 107.714 12.6426 107.183 12.8469C106.653 13.0517 106.065 13.1547 105.42 13.1547C104.743 13.1547 104.149 12.9963 103.638 12.6806C103.128 12.365 102.733 11.9071 102.456 11.306C102.178 10.7054 102.036 9.99967 102.028 9.18866V8.62C102.028 7.78605 102.16 7.06403 102.424 6.45396C102.687 5.84388 103.067 5.37653 103.563 5.05358C104.059 4.73008 104.641 4.56832 105.307 4.56832C106.235 4.56832 106.961 4.80452 107.484 5.27746C108.008 5.74985 108.317 6.43773 108.414 7.34052H106.844C106.773 6.86198 106.614 6.51217 106.369 6.28996C106.124 6.06832 105.785 5.9575 105.356 5.9575C104.807 5.9575 104.39 6.17746 104.103 6.61739C103.816 7.05731 103.671 7.71161 103.668 8.58026V9.11366C103.668 9.99015 103.824 10.6517 104.135 11.0995C104.447 11.5472 104.904 11.7711 105.506 11.7711C106.111 11.7711 106.544 11.6334 106.801 11.3581V9.91739H105.334V8.64911H108.414V11.9832ZM113.456 9.98064H112.172V13.0394H110.559V4.68306H113.467C114.392 4.68306 115.105 4.90302 115.606 5.34351C116.108 5.78343 116.359 6.4047 116.359 7.20843C116.359 7.77877 116.244 8.25396 116.012 8.63455C115.781 9.01515 115.431 9.31851 114.961 9.54407L116.655 12.9588V13.0394H114.924L113.456 9.98064ZM112.172 8.58586H113.472C113.877 8.58586 114.191 8.4756 114.413 8.25564C114.635 8.03567 114.746 7.73287 114.746 7.34612C114.746 6.95209 114.642 6.64202 114.432 6.41646C114.222 6.1909 113.901 6.07784 113.467 6.07784H112.171L112.172 8.58586ZM122.842 11.3172H120.014L119.477 13.0394H117.762L120.676 4.68306H122.17L125.099 13.0394H123.385L122.842 11.3172ZM120.45 9.92355H122.406L121.423 6.79482L120.45 9.92355ZM128.282 10.0954V13.0394H126.669V4.68306H129.722C130.31 4.68306 130.827 4.7978 131.273 5.02784C131.72 5.25731 132.063 5.58306 132.303 6.0062C132.543 6.42877 132.663 6.91011 132.663 7.44967C132.663 8.26851 132.401 8.91384 131.875 9.38623C131.35 9.85918 130.624 10.0954 129.696 10.0954H128.282ZM128.282 8.7006H129.722C130.149 8.7006 130.474 8.5937 130.698 8.37933C130.922 8.16496 131.034 7.85881 131.034 7.46142C131.034 7.05172 130.921 6.72037 130.695 6.46795C130.47 6.21608 130.158 6.08567 129.76 6.07784H128.282V8.7006ZM140.979 13.0394H139.366V9.45843H136.222V13.0394H134.609V4.68306H136.222V8.06925H139.366V4.68306H140.979V13.0394Z" fill="#051B52"></path><path d="M48.9238 20.7801H47.1803V25.9126H46.2167V20.7801H44.4889V19.9439H48.9238V20.7801ZM50.8005 21.9611C51.1051 21.5838 51.4904 21.3952 51.9564 21.3952C52.8424 21.3952 53.2911 21.9348 53.3037 23.0144V25.9126H52.3711V23.0514C52.3711 22.7452 52.3092 22.5286 52.185 22.4016C52.0608 22.2745 51.8783 22.2113 51.6377 22.2113C51.2639 22.2113 50.9851 22.3887 50.8005 22.7435V25.9126H49.8674V19.6159H50.8005V21.9611ZM56.3908 25.9943C55.7995 25.9943 55.3204 25.7956 54.9529 25.3982C54.5859 25.0008 54.4019 24.4708 54.4019 23.8098V23.6866C54.4019 23.2439 54.4821 22.8482 54.642 22.5001C54.7899 22.1662 55.0235 21.8839 55.3157 21.6863C55.6054 21.492 55.9413 21.391 56.2834 21.3952C56.849 21.3952 57.2862 21.5877 57.5944 21.9728C57.9027 22.3585 58.0573 22.9036 58.0573 23.6088V24.0107H55.3424C55.3707 24.3767 55.4855 24.6661 55.6863 24.8793C55.8871 25.0926 56.1397 25.1995 56.4443 25.1995C56.8721 25.1995 57.2201 25.0148 57.4891 24.6454L57.9923 25.1581C57.8256 25.4237 57.5954 25.6368 57.3255 25.7754C57.0477 25.921 56.7363 25.9943 56.3908 25.9943ZM56.2797 22.1939C56.0233 22.1939 55.8168 22.2902 55.6595 22.4816C55.5023 22.6724 55.4016 22.9389 55.3581 23.2808H57.1352V23.207C57.1153 22.8734 57.032 22.6215 56.8862 22.4508C56.74 22.2801 56.5381 22.1939 56.2797 22.1939ZM61.6965 25.9126V22.2152H61.0627V21.4769H61.6965V21.0711C61.6965 20.5792 61.8244 20.1991 62.0802 19.9316C62.3366 19.6635 62.6946 19.5297 63.1554 19.5297C63.3195 19.5297 63.4935 19.5543 63.6775 19.6036L63.6544 20.3827C63.5367 20.3593 63.4172 20.3482 63.2974 20.3497C62.8519 20.3497 62.6296 20.5943 62.6296 21.0835V21.4769H63.4736V22.2152H62.6296V25.9126H61.6965ZM66.9869 25.4782C66.7133 25.8224 66.3238 25.9943 65.8195 25.9943C65.3692 25.9943 65.0279 25.8538 64.7967 25.5723C64.565 25.2907 64.4492 24.8838 64.4492 24.3504V21.4769H65.3823V24.3381C65.3823 24.9012 65.6009 25.1833 66.0386 25.1833C66.4915 25.1833 66.7977 25.0098 66.956 24.6627V21.4769H67.8891V25.9126H67.01L66.9869 25.4782ZM70.3231 20.3989V21.4769H71.057V22.2152H70.3231V24.6907C70.3231 24.8603 70.3545 24.9829 70.4174 25.0579C70.4803 25.1329 70.592 25.1704 70.7529 25.1704C70.8609 25.1704 70.9694 25.157 71.0795 25.1295V25.9002C70.8796 25.9611 70.673 25.9927 70.4651 25.9943C69.7485 25.9943 69.3905 25.5723 69.3905 24.7277V22.2146H68.7069V21.4769H69.3899V20.3995L70.3231 20.3989ZM74.6002 25.4782C74.326 25.8224 73.937 25.9943 73.4327 25.9943C72.9819 25.9943 72.6412 25.8538 72.4095 25.5723C72.1778 25.2907 72.0619 24.8838 72.0619 24.3504V21.4769H72.995V24.3381C72.995 24.9012 73.2141 25.1833 73.6519 25.1833C74.1048 25.1833 74.4104 25.0098 74.5693 24.6627V21.4769H75.5024V25.9126H74.6232L74.6002 25.4782ZM78.9423 22.387C78.8167 22.365 78.6896 22.3542 78.5623 22.3545C78.1345 22.3545 77.8467 22.5292 77.6983 22.879V25.9126H76.7652V21.4769H77.6564L77.6789 21.9728C77.9044 21.5877 78.2168 21.3952 78.6157 21.3952C78.7489 21.3952 78.859 21.4142 78.946 21.4523L78.9423 22.387ZM81.6027 25.9943C81.0114 25.9943 80.5323 25.7956 80.1648 25.3982C79.7978 25.0008 79.6138 24.4708 79.6138 23.8098V23.6866C79.6138 23.2439 79.694 22.8482 79.8539 22.5001C80.0018 22.1662 80.2354 21.8839 80.5275 21.6863C80.8173 21.492 81.1532 21.391 81.4953 21.3952C82.0609 21.3952 82.4981 21.5877 82.8063 21.9728C83.1146 22.3585 83.2692 22.9036 83.2692 23.6088V24.0107H80.5543C80.5826 24.3767 80.6974 24.6661 80.8982 24.8793C81.099 25.0926 81.3516 25.1995 81.6562 25.1995C82.084 25.1995 82.4321 25.0148 82.701 24.6454L83.2042 25.1581C83.0375 25.4237 82.8073 25.6368 82.5374 25.7754C82.2596 25.921 81.9482 25.9943 81.6027 25.9943ZM81.4916 22.1939C81.2353 22.1939 81.0287 22.2902 80.8714 22.4816C80.7142 22.6724 80.6135 22.9389 80.57 23.2808H82.3471V23.207C82.3272 22.8734 82.2439 22.6215 82.0981 22.4508C81.9519 22.2801 81.75 22.1939 81.4916 22.1939ZM86.4051 23.6536C86.4051 23.2193 86.4859 22.828 86.6473 22.4793C86.7954 22.1463 87.0315 21.8669 87.3267 21.6756C87.6187 21.4887 87.9537 21.3952 88.3332 21.3952C88.8931 21.3952 89.3481 21.5877 89.6978 21.9728C90.0469 22.3585 90.2361 22.8695 90.2639 23.5064L90.2681 23.7398C90.2681 24.1769 90.1895 24.5682 90.0322 24.9124C89.8854 25.244 89.6501 25.5221 89.356 25.7116C89.0629 25.9002 88.7243 25.9943 88.3406 25.9943C87.7545 25.9943 87.2853 25.7861 86.933 25.3696C86.5818 24.9527 86.4051 24.3969 86.4051 23.7029V23.6536ZM87.3382 23.7398C87.3382 24.1965 87.4268 24.5536 87.6035 24.8116C87.7796 25.0702 88.0255 25.1995 88.3406 25.1995C88.6551 25.1995 88.9004 25.068 89.0755 24.8055C89.2511 24.5435 89.3387 24.1596 89.3387 23.6536C89.3387 23.2058 89.2485 22.8504 89.0682 22.5879C88.8873 22.3254 88.6425 22.1945 88.3327 22.1945C88.0286 22.1945 87.7865 22.3232 87.6072 22.5818C87.4279 22.8404 87.3382 23.2254 87.3382 23.7398ZM91.7003 25.9126V22.2152H91.0665V21.4769H91.7003V21.0711C91.7003 20.5792 91.8282 20.1991 92.084 19.9316C92.3404 19.6635 92.6984 19.5297 93.1592 19.5297C93.3233 19.5297 93.4973 19.5543 93.6813 19.6036L93.6583 20.3827C93.5407 20.3593 93.4213 20.3483 93.3018 20.3497C92.8562 20.3497 92.6334 20.5943 92.6334 21.0835V21.4769H93.4779V22.2152H92.6334V25.9126H91.7003ZM97.624 21.4769L97.6507 21.9404C97.9427 21.5765 98.3422 21.3952 98.8486 21.3952C99.4042 21.3952 99.7843 21.6219 99.9893 22.0758C100.291 21.6219 100.716 21.3952 101.264 21.3952C101.722 21.3952 102.063 21.5301 102.287 21.801C102.511 22.0713 102.626 22.4704 102.631 22.9976V25.9126H101.698V23.0267C101.698 22.7452 101.64 22.5387 101.525 22.4077C101.409 22.2762 101.219 22.2107 100.953 22.2107C100.74 22.2107 100.567 22.2717 100.433 22.3932C100.296 22.5185 100.198 22.6848 100.15 22.8706L100.154 25.9126H99.2213V22.9937C99.2082 22.4721 98.9592 22.2107 98.4727 22.2107C98.0989 22.2107 97.8337 22.373 97.678 22.6988V25.9126H96.7449V21.4769H97.624ZM103.729 23.6542C103.729 23.2193 103.809 22.828 103.97 22.4793C104.118 22.1462 104.355 21.8668 104.65 21.6756C104.942 21.4887 105.277 21.3952 105.656 21.3952C106.217 21.3952 106.672 21.5877 107.021 21.9728C107.37 22.3585 107.559 22.8695 107.587 23.5064L107.591 23.7398C107.591 24.1769 107.512 24.5682 107.355 24.9124C107.208 25.244 106.973 25.5221 106.679 25.7116C106.386 25.9002 106.048 25.9943 105.663 25.9943C105.077 25.9943 104.608 25.7861 104.256 25.3696C103.905 24.9527 103.729 24.3969 103.729 23.7029V23.6542ZM104.662 23.7398C104.662 24.1965 104.75 24.5536 104.926 24.8116C105.103 25.0702 105.349 25.1995 105.663 25.1995C105.978 25.1995 106.223 25.068 106.399 24.8055C106.574 24.5435 106.662 24.1596 106.662 23.6536C106.662 23.2058 106.571 22.8504 106.391 22.5879C106.211 22.3254 105.965 22.1945 105.656 22.1945C105.352 22.1945 105.109 22.3232 104.93 22.5818C104.751 22.8404 104.662 23.2254 104.662 23.7398ZM109.561 21.4769L109.587 21.9896C109.894 21.5933 110.298 21.3952 110.797 21.3952C111.662 21.3952 112.102 21.9241 112.118 22.9814V25.9126H111.185V23.0391C111.185 22.7575 111.127 22.5488 111.014 22.4139C110.9 22.2784 110.714 22.2107 110.455 22.2107C110.079 22.2107 109.799 22.3926 109.614 22.7558V25.9126H108.681V21.4769H109.561ZM115.212 25.9943C114.621 25.9943 114.141 25.7956 113.774 25.3982C113.407 25.0008 113.223 24.4708 113.223 23.8098V23.6866C113.223 23.2439 113.303 22.8482 113.463 22.5001C113.611 22.1661 113.845 21.8839 114.137 21.6863C114.427 21.4921 114.762 21.3911 115.104 21.3952C115.67 21.3952 116.107 21.5877 116.416 21.9728C116.724 22.3585 116.878 22.9036 116.878 23.6088V24.0107H114.164C114.192 24.3767 114.306 24.6661 114.507 24.8793C114.708 25.0926 114.961 25.1995 115.266 25.1995C115.693 25.1995 116.041 25.0148 116.31 24.6454L116.813 25.1581C116.647 25.4236 116.416 25.6367 116.147 25.7754C115.869 25.921 115.558 25.9943 115.212 25.9943ZM115.1 22.1939C114.845 22.1939 114.638 22.2902 114.48 22.4816C114.323 22.6724 114.222 22.9389 114.179 23.2808H115.957V23.207C115.936 22.8734 115.853 22.6215 115.707 22.4508C115.561 22.2801 115.359 22.1939 115.1 22.1939ZM119.32 24.4859L120.164 21.4769H121.159L119.508 26.5848C119.254 27.3308 118.825 27.7042 118.218 27.7042C118.066 27.7016 117.915 27.6767 117.769 27.6303V26.8596L117.945 26.8719C118.181 26.8719 118.358 26.826 118.477 26.7348C118.596 26.643 118.69 26.489 118.759 26.2736L118.894 25.8918L117.435 21.4769H118.441L119.32 24.4859Z" fill="#051B52"></path></g><defs><clipPath id="clip0"><rect width="140" height="34.7014" fill="white" transform="translate(0.978516 0.726074)"></rect></clipPath></defs></svg>