<svg xmlns="http://www.w3.org/2000/svg" width="141" height="36" viewBox="0 0 141 36" fill="none"><g clip-path="url(#clip0)"><path d="M20.9281 25.9764L15.0746 28.6625V28.3938C13.946 28.6988 12.6957 28.8746 11.5115 28.9311C6.00663 28.8746 1.63725 25.8337 1.5864 22.2153V20.872C3.39444 23.647 7.075 25.5063 11.5115 25.4391C13.0123 25.5063 14.5478 25.2556 15.8379 24.9018L16.3469 23.5585C14.8167 24.0404 13.1465 24.3757 11.5115 24.3645C6.00663 24.3757 1.63725 21.3348 1.5864 17.6492V16.5746C3.39444 19.1397 7.06713 20.9996 11.5115 20.8725C13.5109 20.9996 15.4662 20.5557 17.1102 19.7979L17.3649 18.4546C15.7587 19.349 13.677 19.8684 11.5115 19.7979C6.00663 19.8684 1.63725 16.8276 1.5864 13.0826V12.008C3.39444 14.633 7.075 16.4923 11.5115 16.5746C14.033 16.4923 16.4234 15.7888 18.383 14.694L18.6378 13.082C16.8591 14.4735 14.2626 15.3701 11.5115 15.5C6.00663 15.3701 1.63777 12.3287 1.5864 8.516C1.63725 4.88969 6.00663 1.84884 11.5115 1.8007C14.7931 1.84884 17.8409 3.06339 19.6558 5.02402L19.8325 5.33466L21.1157 5.34025L20.9281 5.02402C19.1232 2.43484 15.5134 0.726074 11.5115 0.726074C5.42055 0.726074 0.568359 4.26954 0.568359 8.516V22.4839C0.782242 26.6291 5.52383 30.0052 11.5115 30.0052C15.4662 30.0052 19.0204 28.3636 20.9281 25.9764Z" fill="#253137"></path><path d="M18.5473 35.4274L20.6022 26.2097L14.6948 28.9209L18.2909 12.9258H11.3555L13.1535 5.06363H35.2421L33.4441 12.9258H26.2528L24.7116 17.2634L32.6735 13.739L18.5473 35.4274ZM22.1434 24.3118L21.116 29.7342L29.5916 16.1793L22.6566 19.4329L25.7391 11.8416H32.6735L33.9578 6.14834H13.9242L12.6398 11.8416H19.5747L16.2354 27.0235L22.1434 24.3129V24.3118ZM50.4593 10.256C50.3984 11.1549 50.0876 11.8623 49.5267 12.3795C48.9657 12.8961 48.2266 13.1541 47.3092 13.1541C46.3064 13.1541 45.5164 12.7937 44.9418 12.0722C44.3668 11.3513 44.079 10.3612 44.079 9.10244V8.59143C44.079 7.78826 44.2116 7.08024 44.4768 6.46793C44.7421 5.85617 45.1211 5.38602 45.6134 5.05916C46.1061 4.73173 46.6786 4.5683 47.3312 4.5683C48.2339 4.5683 48.9616 4.82688 49.5136 5.34349C50.065 5.85953 50.3838 6.5849 50.4703 7.51849H48.8578C48.8184 6.97893 48.6774 6.5877 48.4358 6.34479C48.1936 6.10188 47.8256 5.98043 47.3312 5.98043C46.7934 5.98043 46.3913 6.18584 46.1245 6.59722C45.8571 7.0086 45.7203 7.64666 45.7129 8.5114V9.14274C45.7129 10.0455 45.8414 10.7054 46.0972 11.1224C46.3541 11.5394 46.7577 11.7482 47.3097 11.7482C47.8077 11.7482 48.1794 11.6267 48.4247 11.3838C48.6706 11.1409 48.8111 10.7648 48.8468 10.256H50.4593ZM58.786 9.05095C58.786 9.87371 58.6497 10.5946 58.3771 11.2142C58.105 11.8343 57.7155 12.3123 57.2081 12.6493C56.7012 12.9857 56.1198 13.1541 55.464 13.1541C54.8155 13.1541 54.2368 12.9879 53.7278 12.6549C53.2193 12.3218 52.8245 11.8467 52.5451 11.2287C52.2657 10.6108 52.1242 9.90002 52.1205 9.09628V8.68322C52.1205 7.86046 52.2594 7.13677 52.5373 6.51158C52.8151 5.88584 53.2072 5.40561 53.7147 5.07035C54.2216 4.73565 54.8014 4.5683 55.4535 4.5683C56.1056 4.5683 56.6854 4.73621 57.1924 5.07035C57.6993 5.40561 58.0919 5.88584 58.3692 6.51102C58.6471 7.13677 58.786 7.85878 58.786 8.67763V9.05095ZM57.152 8.67203C57.152 7.79554 57.0052 7.13005 56.7116 6.67446C56.4176 6.21942 55.9982 5.99162 55.4535 5.99162C54.912 5.99162 54.4947 6.21662 54.2006 6.66606C53.9071 7.1155 53.7582 7.77427 53.755 8.64349V9.05095C53.755 9.90393 53.9018 10.5661 54.1954 11.0362C54.4889 11.5069 54.912 11.7426 55.464 11.7426C56.005 11.7426 56.4207 11.5159 56.7116 11.0625C57.0015 10.6092 57.1483 9.94815 57.152 9.07949V8.67203ZM62.5106 13.0394H60.8981V4.68304H62.5106V13.0394ZM71.2085 13.0394H69.5954L66.4564 7.54143V13.0394H64.8439V4.68304H66.4564L69.6012 10.1927V4.68304H71.2085V13.0394ZM79.1913 6.07781H76.7941V13.0394H75.1815V6.07781H72.8163V4.68304H79.1913V6.07781ZM85.6581 9.41811H82.5621V11.6564H86.1954V13.0394H80.949V4.68304H86.185V6.07781H82.5621V8.06923H85.6581V9.41811ZM89.5929 11.6564H93.0171V13.0394H87.9804V4.68304H89.5929V11.6569V11.6564ZM99.4892 9.41755H96.3931V11.6564H100.027V13.0394H94.7806V4.68304H100.016V6.07781H96.3931V8.06923H99.4892V9.41811V9.41755ZM108.004 11.9832C107.714 12.3543 107.303 12.6426 106.773 12.8468C106.243 13.0517 105.655 13.1547 105.01 13.1547C104.332 13.1547 103.739 12.9963 103.228 12.6806C102.717 12.3649 102.323 11.9071 102.045 11.306C101.767 10.7054 101.625 9.99964 101.618 9.18863V8.61998C101.618 7.78602 101.75 7.06401 102.013 6.45393C102.276 5.84386 102.657 5.37651 103.152 5.05356C103.649 4.73005 104.23 4.5683 104.897 4.5683C105.825 4.5683 106.551 4.80449 107.074 5.27744C107.597 5.74983 107.907 6.4377 108.004 7.3405H106.434C106.363 6.86196 106.204 6.51214 105.959 6.28994C105.713 6.0683 105.375 5.95748 104.945 5.95748C104.397 5.95748 103.98 6.17744 103.692 6.61737C103.406 7.05729 103.261 7.71158 103.257 8.58024V9.11364C103.257 9.99013 103.413 10.6517 103.725 11.0995C104.037 11.5472 104.494 11.7711 105.096 11.7711C105.701 11.7711 106.134 11.6334 106.391 11.358V9.91737H104.924V8.64908H108.004V11.9832ZM113.046 9.98061H111.762V13.0394H110.149V4.68304H113.057C113.981 4.68304 114.695 4.903 115.196 5.34349C115.698 5.78341 115.949 6.40468 115.949 7.20841C115.949 7.77875 115.833 8.25393 115.602 8.63453C115.371 9.01513 115.02 9.31849 114.551 9.54405L116.244 12.9588V13.0394H114.513L113.046 9.98061ZM111.762 8.58584H113.062C113.467 8.58584 113.781 8.47558 114.003 8.25561C114.225 8.03565 114.336 7.73285 114.336 7.3461C114.336 6.95207 114.231 6.64199 114.022 6.41643C113.812 6.19087 113.491 6.07781 113.057 6.07781H111.761V8.58584H111.762ZM122.432 11.3172H119.604L119.067 13.0394H117.352L120.266 4.68304H121.76L124.689 13.0394H122.975L122.432 11.3177V11.3172ZM120.04 9.92352H121.996L121.013 6.79479L120.04 9.92352ZM127.872 10.0954V13.0394H126.259V4.68304H129.312C129.9 4.68304 130.417 4.79778 130.863 5.02781C131.309 5.25729 131.652 5.58304 131.892 6.00617C132.132 6.42875 132.253 6.91009 132.253 7.44964C132.253 8.26849 131.99 8.91382 131.465 9.38621C130.94 9.85916 130.213 10.0954 129.285 10.0954H127.872ZM127.872 8.70058H129.312C129.739 8.70058 130.064 8.59367 130.288 8.37931C130.512 8.16494 130.624 7.85878 130.624 7.4614C130.624 7.05169 130.511 6.72035 130.285 6.46793C130.06 6.21606 129.748 6.08565 129.35 6.07781H127.872V8.70058ZM140.568 13.0394H138.956V9.45841H135.811V13.0394H134.198V4.68304H135.811V8.06923H138.956V4.68304H140.568V13.0394Z" fill="#FABF2C"></path><path d="M48.513 20.7801H46.7695V25.9126H45.806V20.7801H44.0781V19.9439H48.513V20.7801ZM50.3898 21.9611C50.6943 21.5838 51.0796 21.3952 51.5457 21.3952C52.4316 21.3952 52.8803 21.9348 52.8929 23.0144V25.9126H51.9603V23.0514C51.9603 22.7452 51.8985 22.5286 51.7742 22.4016C51.65 22.2745 51.4676 22.2113 51.2269 22.2113C50.8532 22.2113 50.5743 22.3887 50.3898 22.7435V25.9126H49.4566V19.6159H50.3898V21.9611ZM55.98 25.9943C55.3887 25.9943 54.9096 25.7956 54.5421 25.3982C54.1752 25.0008 53.9912 24.4708 53.9912 23.8098V23.6866C53.9912 23.2439 54.0714 22.8482 54.2312 22.5001C54.3791 22.1662 54.6127 21.8839 54.9049 21.6863C55.1946 21.492 55.5305 21.391 55.8726 21.3952C56.4382 21.3952 56.8754 21.5877 57.1837 21.9728C57.4919 22.3585 57.6466 22.9036 57.6466 23.6088V24.0107H54.9316C54.9599 24.3767 55.0747 24.6661 55.2755 24.8794C55.4763 25.0926 55.7289 25.1995 56.0335 25.1995C56.4613 25.1995 56.8094 25.0148 57.0783 24.6454L57.5815 25.1581C57.4148 25.4237 57.1846 25.6368 56.9147 25.7754C56.6369 25.921 56.3255 25.9943 55.98 25.9943ZM55.8689 22.1939C55.6126 22.1939 55.406 22.2902 55.2488 22.4816C55.0915 22.6724 54.9908 22.9389 54.9473 23.2808H56.7244V23.207C56.7045 22.8734 56.6212 22.6215 56.4754 22.4508C56.3292 22.2801 56.1274 22.1945 55.8689 22.1945V22.1939ZM61.2857 25.9126V22.2152H60.6519V21.4769H61.2857V21.0711C61.2857 20.5792 61.4136 20.1991 61.6694 19.9316C61.9258 19.6635 62.2838 19.5297 62.7446 19.5297C62.9087 19.5297 63.0827 19.5544 63.2667 19.6036L63.2437 20.3827C63.126 20.3593 63.0064 20.3482 62.8867 20.3497C62.4411 20.3497 62.2188 20.5943 62.2188 21.0835V21.4769H63.0628V22.2152H62.2188V25.9126H61.2857ZM66.5761 25.4782C66.3025 25.8224 65.913 25.9943 65.4087 25.9943C64.9584 25.9943 64.6171 25.8538 64.3859 25.5723C64.1542 25.2907 64.0384 24.8838 64.0384 24.3504V21.4769H64.9715V24.3381C64.9715 24.9012 65.1901 25.1833 65.6278 25.1833C66.0807 25.1833 66.3869 25.0098 66.5452 24.6627V21.4769H67.4783V25.9126H66.5992L66.5761 25.4782ZM69.9123 20.3989V21.4769H70.6462V22.2152H69.9123V24.6907C69.9123 24.8603 69.9437 24.9829 70.0066 25.0579C70.0695 25.1329 70.1812 25.1704 70.3421 25.1704C70.4501 25.1704 70.5586 25.157 70.6687 25.1295V25.9002C70.4689 25.9611 70.2622 25.9927 70.0543 25.9943C69.3377 25.9943 68.9797 25.5723 68.9797 24.7277V22.2146H68.2961V21.4769H68.9792V20.3995H69.9123V20.3989ZM74.1894 25.4782C73.9152 25.8224 73.5263 25.9943 73.022 25.9943C72.5711 25.9943 72.2304 25.8538 71.9987 25.5723C71.767 25.2907 71.6511 24.8838 71.6511 24.3504V21.4769H72.5842V24.3381C72.5842 24.9012 72.8034 25.1833 73.2411 25.1833C73.694 25.1833 73.9996 25.0098 74.1585 24.6627V21.4769H75.0916V25.9126H74.2125L74.1894 25.4782ZM78.5315 22.387C78.4059 22.365 78.2788 22.3542 78.1515 22.3545C77.7237 22.3545 77.4359 22.5292 77.2876 22.879V25.9126H76.3544V21.4769H77.2456L77.2682 21.9728C77.4936 21.5877 77.806 21.3952 78.2049 21.3952C78.3381 21.3952 78.4482 21.4142 78.5352 21.4523L78.5315 22.387ZM81.192 25.9943C80.6006 25.9943 80.1215 25.7956 79.754 25.3982C79.3871 25.0008 79.2031 24.4708 79.2031 23.8098V23.6866C79.2031 23.2439 79.2833 22.8482 79.4432 22.5001C79.591 22.1662 79.8246 21.8839 80.1168 21.6863C80.4065 21.492 80.7424 21.391 81.0845 21.3952C81.6501 21.3952 82.0873 21.5877 82.3956 21.9728C82.7038 22.3585 82.8585 22.9036 82.8585 23.6088V24.0107H80.1435C80.1718 24.3767 80.2866 24.6661 80.4874 24.8794C80.6882 25.0926 80.9408 25.1995 81.2454 25.1995C81.6732 25.1995 82.0213 25.0148 82.2902 24.6454L82.7934 25.1581C82.6267 25.4237 82.3965 25.6368 82.1266 25.7754C81.8488 25.921 81.5374 25.9943 81.192 25.9943ZM81.0808 22.1939C80.8245 22.1939 80.6179 22.2902 80.4607 22.4816C80.3034 22.6724 80.2027 22.9389 80.1592 23.2808H81.9363V23.207C81.9164 22.8734 81.8331 22.6215 81.6873 22.4508C81.5411 22.2801 81.3393 22.1945 81.0808 22.1945V22.1939ZM85.9943 23.6536C85.9943 23.2193 86.0751 22.828 86.2365 22.4794C86.3846 22.1463 86.6208 21.8669 86.9159 21.6756C87.2079 21.4887 87.5429 21.3952 87.9224 21.3952C88.4823 21.3952 88.9373 21.5877 89.287 21.9728C89.6361 22.3585 89.8254 22.8695 89.8531 23.5064L89.8573 23.7398C89.8573 24.1769 89.7787 24.5682 89.6214 24.9124C89.4746 25.244 89.2394 25.5221 88.9452 25.7116C88.6521 25.9002 88.3135 25.9943 87.9298 25.9943C87.3437 25.9943 86.8745 25.7861 86.5222 25.3696C86.171 24.9527 85.9943 24.3969 85.9943 23.7029V23.6536ZM86.9275 23.7398C86.9275 24.1965 87.0161 24.5536 87.1927 24.8116C87.3689 25.0702 87.6147 25.1995 87.9298 25.1995C88.2443 25.1995 88.4896 25.068 88.6647 24.8055C88.8403 24.5435 88.9279 24.1596 88.9279 23.6536C88.9279 23.2058 88.8377 22.8504 88.6574 22.5879C88.4765 22.3254 88.2317 22.1945 87.9219 22.1945C87.6179 22.1945 87.3757 22.3232 87.1964 22.5818C87.0171 22.8404 86.9275 23.226 86.9275 23.7404V23.7398ZM91.2895 25.9126V22.2152H90.6557V21.4769H91.2895V21.0711C91.2895 20.5792 91.4174 20.1991 91.6732 19.9316C91.9296 19.6635 92.2876 19.5297 92.7484 19.5297C92.9125 19.5297 93.0865 19.5544 93.2705 19.6036L93.2475 20.3827C93.1299 20.3593 93.0106 20.3483 92.891 20.3497C92.4454 20.3497 92.2226 20.5943 92.2226 21.0835V21.4769H93.0671V22.2152H92.2226V25.9126H91.2895ZM97.2132 21.4769L97.2399 21.9404C97.5319 21.5766 97.9314 21.3952 98.4378 21.3952C98.9935 21.3952 99.3735 21.6219 99.5785 22.0758C99.8804 21.6219 100.305 21.3952 100.853 21.3952C101.311 21.3952 101.652 21.5301 101.876 21.801C102.1 22.0713 102.215 22.4704 102.22 22.9976V25.9126H101.287V23.0267C101.287 22.7452 101.229 22.5387 101.114 22.4077C100.999 22.2762 100.808 22.2107 100.543 22.2107C100.33 22.2107 100.156 22.2717 100.022 22.3932C99.8852 22.5185 99.7868 22.6848 99.7394 22.8706L99.7436 25.9126H98.8105V22.9937C98.7974 22.4721 98.5484 22.2107 98.0619 22.2107C97.6882 22.2107 97.4229 22.373 97.2672 22.6988V25.9126H96.3341V21.4769H97.2132ZM103.318 23.6542C103.318 23.2193 103.398 22.828 103.559 22.4794C103.708 22.1462 103.944 21.8668 104.239 21.6756C104.531 21.4887 104.866 21.3952 105.245 21.3952C105.806 21.3952 106.261 21.5877 106.61 21.9728C106.96 22.3585 107.148 22.8695 107.176 23.5064L107.18 23.7398C107.18 24.1769 107.102 24.5682 106.944 24.9124C106.798 25.244 106.562 25.5221 106.268 25.7116C105.975 25.9002 105.637 25.9943 105.253 25.9943C104.667 25.9943 104.197 25.7861 103.846 25.3696C103.494 24.9527 103.318 24.3969 103.318 23.7029V23.6536V23.6542ZM104.251 23.7398C104.251 24.1965 104.339 24.5536 104.516 24.8116C104.692 25.0702 104.938 25.1995 105.253 25.1995C105.567 25.1995 105.813 25.068 105.988 24.8055C106.163 24.5435 106.251 24.1596 106.251 23.6536C106.251 23.2058 106.161 22.8504 105.98 22.5879C105.8 22.3254 105.555 22.1945 105.245 22.1945C104.941 22.1945 104.699 22.3232 104.519 22.5818C104.341 22.8404 104.251 23.226 104.251 23.7404V23.7398ZM109.15 21.4769L109.176 21.9896C109.484 21.5933 109.887 21.3952 110.386 21.3952C111.251 21.3952 111.691 21.9241 111.707 22.9814V25.9126H110.774V23.0391C110.774 22.7575 110.717 22.5488 110.603 22.4139C110.489 22.2784 110.303 22.2107 110.044 22.2107C109.668 22.2107 109.388 22.3926 109.203 22.7558V25.9126H108.27V21.4769H109.15ZM114.801 25.9943C114.21 25.9943 113.73 25.7956 113.363 25.3982C112.996 25.0008 112.812 24.4708 112.812 23.8098V23.6866C112.812 23.2439 112.892 22.8482 113.052 22.5001C113.2 22.1661 113.434 21.8839 113.726 21.6863C114.016 21.4921 114.351 21.3911 114.693 21.3952C115.26 21.3952 115.696 21.5877 116.005 21.9728C116.313 22.3585 116.467 22.9036 116.467 23.6088V24.0107H113.753C113.781 24.3767 113.896 24.6661 114.096 24.8794C114.298 25.0926 114.55 25.1995 114.855 25.1995C115.282 25.1995 115.631 25.0148 115.899 24.6454L116.402 25.1581C116.236 25.4236 116.006 25.6367 115.736 25.7754C115.458 25.921 115.147 25.9943 114.801 25.9943ZM114.69 22.1939C114.434 22.1939 114.227 22.2902 114.07 22.4816C113.912 22.6724 113.812 22.9389 113.768 23.2808H115.546V23.207C115.525 22.8734 115.442 22.6215 115.296 22.4508C115.15 22.2801 114.948 22.1945 114.69 22.1945V22.1939ZM118.909 24.4859L119.754 21.4769H120.748L119.097 26.5848C118.844 27.3308 118.414 27.7042 117.807 27.7042C117.655 27.7016 117.504 27.6767 117.358 27.6303V26.8596L117.535 26.8719C117.77 26.8719 117.947 26.826 118.066 26.7348C118.185 26.643 118.28 26.4891 118.348 26.2736L118.483 25.8919L117.024 21.4769H118.03L118.909 24.4859Z" fill="#253137"></path></g><defs><clipPath id="clip0"><rect width="140" height="34.7014" fill="white" transform="translate(0.568359 0.726074)"></rect></clipPath></defs></svg>