<svg xmlns="http://www.w3.org/2000/svg" width="141" height="28" viewBox="0 0 141 28" fill="none"><g clip-path="url(#clip0)"><path d="M13.288 14.0492C13.288 14.7949 13.8708 15.3775 14.6169 15.3775C15.3629 15.3775 15.9458 14.7949 15.9458 14.0492C15.9458 13.3034 15.3629 12.7208 14.6169 12.7208C13.8708 12.7441 13.288 13.3267 13.288 14.0492ZM24.4321 12.7441C23.686 12.7441 23.1032 13.3268 23.1032 14.0725C23.1032 14.8182 23.686 15.4008 24.4321 15.4008C25.1781 15.4008 25.761 14.8182 25.761 14.0725C25.761 13.3268 25.1781 12.7441 24.4321 12.7441ZM24.4321 22.7183C23.686 22.7183 23.1032 23.3009 23.1032 24.0467C23.1032 24.7924 23.686 25.375 24.4321 25.375C25.1781 25.375 25.761 24.7924 25.761 24.0467C25.761 23.3009 25.1781 22.7183 24.4321 22.7183Z" fill="#051B52"></path><path d="M27.2534 1.76811C25.9245 0.113518 23.5464 0.0436081 22.1476 1.34864L21.9844 1.51177L21.658 1.76811C20.3291 2.84011 18.3474 2.74689 17.1118 1.51177V1.41855C16.6921 0.999076 16.1326 0.672819 15.5497 0.50969C15.4565 0.50969 15.2933 0.416475 15.2233 0.416475H13.8945C13.8012 0.416475 13.7313 0.416473 13.638 0.50969H13.4748C13.3815 0.50969 13.3116 0.602905 13.2183 0.602905C13.2183 0.602905 13.1251 0.602911 13.1251 0.696128C13.0318 0.696128 12.9619 0.789343 12.8686 0.789343C12.8686 0.789343 12.7754 0.789341 12.7754 0.882558C12.6821 0.975775 12.6122 0.975778 12.5189 1.04569C12.5189 1.04569 12.4257 1.04569 12.4257 1.13891C12.3324 1.23212 12.2625 1.23212 12.1692 1.30203L11.9128 1.55838L11.5864 1.81472C10.2575 2.88672 8.27579 2.7935 7.1334 1.55838C7.1334 1.55838 7.04015 1.55838 7.04015 1.46516L6.87695 1.30203C6.38736 0.882555 5.80451 0.556297 5.15172 0.486384H3.65962C3.65962 0.579601 3.56637 0.579604 3.49642 0.649516H3.47311C3.05346 0.812646 2.65712 0.975772 2.30741 1.30203L1.9577 1.65159C1.63131 1.97785 1.46811 2.39733 1.30491 2.72359C1.30491 2.8168 1.21166 2.88672 1.21166 2.97993C1.21166 3.07315 1.1184 3.14306 1.1184 3.30619C1.02514 3.88879 1.02514 4.4714 1.21166 5.0307C1.21166 5.12391 1.30491 5.19383 1.30491 5.28704V5.38026C1.30491 5.47348 1.39817 5.54339 1.39817 5.63661C1.49142 5.72982 1.49142 5.79974 1.56136 5.96286C1.72456 6.05608 1.88776 6.21922 1.98102 6.28913L2.30741 6.61539C3.54305 7.85051 3.54305 9.99449 2.21416 11.3228C2.05096 11.486 1.7945 11.7423 1.72456 11.9054C1.63131 11.9986 1.63131 12.0686 1.56136 12.2317V12.3249C1.46811 12.4181 1.46811 12.488 1.39817 12.5813V12.6745C1.39817 12.7677 1.30491 12.8376 1.30491 12.9308V13.024C1.30491 13.1172 1.30491 13.1872 1.21166 13.2804V14.5155C1.21166 14.6087 1.21166 14.6786 1.30491 14.7718V14.8651C1.46811 15.4477 1.7945 16.0303 2.2841 16.5197C3.61299 17.848 3.61299 19.992 2.2841 21.297L2.02764 21.5534V21.6466C1.93439 21.7398 1.86445 21.8097 1.86445 21.9029C1.86445 21.9029 1.86445 21.9961 1.77119 21.9961C1.67794 22.0894 1.67793 22.1593 1.60799 22.2525L1.51474 22.3457C1.51474 22.4389 1.42148 22.4389 1.42148 22.5088C1.42148 22.5787 1.32823 22.602 1.32823 22.672C1.32823 22.7652 1.32823 22.7652 1.23497 22.8351C1.07177 23.1613 0.978516 23.5808 0.978516 23.9071V24.5596C1.07177 24.8159 1.07177 25.049 1.23497 25.2121C1.23497 25.3053 1.32823 25.3752 1.32823 25.3752C1.32823 25.3752 1.32823 25.4685 1.42148 25.4685C1.42148 25.5617 1.51474 25.6316 1.51474 25.7248C1.51474 25.7248 1.51474 25.818 1.60799 25.818C1.70125 25.9811 1.77119 26.0744 1.86445 26.1443C1.86445 26.1443 1.86445 26.2375 1.9577 26.2375C1.9577 26.2375 1.9577 26.3307 2.05096 26.3307C2.05096 26.4239 2.14421 26.4239 2.14421 26.4239L2.23747 26.5171C2.33073 26.6104 2.40067 26.6104 2.40067 26.6803L2.49392 26.7735C2.49392 26.7735 2.58718 26.7735 2.58718 26.8667C2.68044 26.9599 2.75038 27.0298 2.84363 27.0298C2.84363 27.0298 2.93689 27.0298 2.93689 27.1231C3.03014 27.2163 3.10009 27.2163 3.19334 27.2862H3.23997C3.33323 27.3794 3.40317 27.3794 3.56637 27.3794C3.65962 27.3794 3.82282 27.4726 3.89276 27.4726H3.98602C4.07927 27.4726 4.14922 27.4726 4.24247 27.5658H4.98852C5.24497 27.5658 5.40817 27.4726 5.64131 27.4726H5.73457C5.82782 27.4726 5.89776 27.3794 5.99102 27.3794H6.03765C6.1309 27.3794 6.20084 27.2862 6.2941 27.2862H6.38736C6.55055 27.193 6.80701 27.0298 6.97021 26.9599L7.31991 26.6104C8.64881 25.2121 10.7937 25.2121 12.0993 26.6104C13.5914 28.1717 16.0627 28.1018 17.4615 26.354C18.4407 25.1189 18.4407 23.3012 17.4615 21.9728C16.1326 20.3182 13.7546 20.2483 12.3557 21.5534L12.1925 21.7165L11.8661 21.9728C10.5372 23.0448 8.55556 22.9516 7.31991 21.7165L7.15672 21.5534L6.90026 21.2271C5.82782 19.8988 5.92108 17.9179 7.15672 16.6828C7.90276 16.0303 8.22916 15.1214 8.22916 14.2125V13.9562C8.22916 13.1406 7.90276 12.3016 7.24997 11.719C7.24997 11.6258 7.15672 11.6258 7.15672 11.5559L6.90026 11.2296C5.82782 9.90127 5.92108 7.92042 7.15672 6.68529L7.34323 6.49886C8.67212 5.10061 10.817 5.10061 12.1226 6.49886L12.4723 6.84843C12.5656 6.84843 12.5656 6.94164 12.6355 6.94164C12.7054 6.94164 12.7288 7.03486 12.7987 7.03486C12.8686 7.03486 12.892 7.12807 12.9619 7.12807C13.0318 7.12807 13.0552 7.22129 13.1251 7.22129C13.195 7.22129 13.2183 7.31451 13.2883 7.31451C13.3582 7.31451 13.3815 7.40773 13.4515 7.40773C13.5214 7.40773 13.5447 7.40772 13.6147 7.50094C13.7079 7.50094 13.7079 7.50094 13.7779 7.59416H15.1767C15.27 7.59416 15.3399 7.59416 15.4332 7.50094H15.5964C15.6896 7.50094 15.7596 7.40773 15.8528 7.40773H15.9461C16.0393 7.40773 16.1093 7.31451 16.2725 7.24459C16.5989 7.08146 16.9253 6.82512 17.1817 6.59208L17.275 6.49886C18.6039 5.10061 20.7488 5.10061 22.0543 6.49886C23.4532 8.15346 26.0177 8.06024 27.3466 6.33573C28.2325 4.82096 28.2325 3.00323 27.2534 1.76811Z" fill="#051B52"></path><path d="M46.0674 11.9984C45.5778 11.509 45.1582 11.1828 44.5753 10.9264C44.0857 10.6701 43.5029 10.5069 42.7568 10.5069C42.104 10.5069 41.4279 10.6701 40.9383 10.9264C40.4487 11.1828 40.0291 11.509 39.7027 11.9984C39.3763 12.4179 39.1198 12.9073 38.9566 13.4899C38.7934 14.0725 38.7002 14.6551 38.7002 15.2144C38.7002 15.7737 38.7934 16.3796 39.0266 16.9389C39.1898 17.5215 39.5162 17.9177 39.8426 18.3371C40.169 18.7566 40.6586 19.0829 41.1715 19.3159C41.6611 19.5723 42.2439 19.6422 42.8967 19.6422C43.6428 19.6422 44.2256 19.4791 44.7152 19.2227C45.2048 18.9664 45.6944 18.6401 46.114 18.1507L47.8393 19.9684C47.1865 20.7142 46.4404 21.2036 45.6011 21.5298C44.7851 21.8561 43.8759 22.0192 42.8734 22.0192C41.8942 22.0192 40.8917 21.8561 40.0757 21.5298C39.2597 21.2036 38.5137 20.7142 37.9308 20.1316C37.348 19.549 36.8584 18.8032 36.532 17.9876C36.2056 17.1719 36.0424 16.1699 36.0424 15.1911C36.0424 14.2123 36.2056 13.2102 36.532 12.3946C36.8584 11.5789 37.348 10.8332 37.9308 10.1574C38.5137 9.57478 39.2597 9.08539 40.0757 8.75913C40.8917 8.43287 41.8942 8.26975 42.8734 8.26975C43.8526 8.26975 44.7618 8.43287 45.6011 8.75913C46.5104 9.08539 47.2564 9.668 47.9092 10.3205L46.0674 11.9984ZM51.6628 15.0513C51.6628 15.7038 51.756 16.3796 51.9892 16.869C52.1523 17.4516 52.4787 17.941 52.8051 18.3605C53.1315 18.7799 53.6211 19.1062 54.134 19.2693C54.6236 19.5257 55.2997 19.5956 55.9525 19.5956C56.6053 19.5956 57.1882 19.5024 57.771 19.2693C58.2606 19.013 58.7502 18.6867 59.0999 18.3605C59.4263 17.941 59.7527 17.4516 59.9159 16.869C60.0791 16.2864 60.2423 15.7038 60.2423 15.0513C60.2423 14.3987 60.149 13.7229 59.9159 13.2335C59.7527 12.6509 59.4263 12.1615 59.0999 11.7421C58.7735 11.3226 58.2839 10.9963 57.771 10.8332C57.2814 10.5769 56.6053 10.5069 55.9525 10.5069C55.2997 10.5069 54.7169 10.6002 54.134 10.8332C53.6444 11.0896 53.1549 11.4158 52.8051 11.7421C52.4787 12.1615 52.1523 12.6509 51.9892 13.2335C51.826 13.8161 51.6628 14.3987 51.6628 15.0513ZM49.0283 15.0513C49.0283 14.0725 49.1915 13.1636 49.5179 12.3247C49.8443 11.509 50.3339 10.7633 51.01 10.0875C51.6628 9.43495 52.3389 8.92226 53.2481 8.59601C54.0641 8.26975 54.9733 8.0134 55.9758 8.0134C56.9783 8.0134 57.8643 8.17653 58.7036 8.59601C59.5196 8.92226 60.2656 9.41165 60.9417 10.0875C61.5945 10.74 62.0141 11.4857 62.4338 12.3247C62.7602 13.1403 62.9234 14.0492 62.9234 15.0513C62.9234 16.03 62.7602 16.9389 62.4338 17.7778C62.1074 18.5935 61.6178 19.3392 60.9417 20.015C60.2889 20.6676 59.6128 21.087 58.7036 21.5065C57.8876 21.8328 56.9783 22.0891 55.9758 22.0891C54.9967 22.0891 54.0874 21.926 53.2481 21.5065C52.4321 21.1803 51.6861 20.6909 51.01 20.015C50.3572 19.3625 49.9375 18.6867 49.5179 17.7778C49.2847 16.9389 49.0283 16.03 49.0283 15.0513ZM65.4646 21.7396H67.9359V8.54939H65.4646V21.7396ZM64.8818 3.74873C64.8818 3.25935 65.045 2.83988 65.3714 2.4204C65.6978 2.09414 66.1174 1.8378 66.607 1.8378C67.0966 1.8378 67.5163 2.00093 67.8426 2.4204C68.169 2.74666 68.3322 3.23604 68.3322 3.74873C68.3322 4.26143 68.169 4.6576 67.8426 5.07707C67.5163 5.40333 67.0966 5.65968 66.607 5.65968C66.1174 5.65968 65.6978 5.49655 65.3714 5.07707C65.045 4.72751 64.8818 4.23812 64.8818 3.74873ZM71.3864 8.52609H73.881V10.5769H73.9742C74.3006 9.83113 74.7902 9.24852 75.6295 8.85235C76.3755 8.43288 77.2848 8.19983 78.3572 8.19983C79.01 8.19983 79.5929 8.29305 80.1757 8.52609C80.7586 8.68922 81.2482 9.01548 81.6678 9.43496C82.0875 9.85443 82.4139 10.3438 82.7403 10.9963C82.9967 11.6488 83.1599 12.3946 83.1599 13.3034V21.8095H80.642V13.9793C80.642 13.3967 80.5487 12.8141 80.3856 12.4179C80.2224 11.9984 79.9659 11.6022 79.7328 11.3459C79.4763 11.0895 79.1499 10.8565 78.7536 10.7633C78.4272 10.6701 78.0075 10.6002 77.5879 10.6002C77.0983 10.6002 76.6087 10.6934 76.189 10.8565C75.7694 11.0196 75.373 11.276 75.0233 11.6722C74.6969 11.9984 74.4405 12.4878 74.2773 13.0704C74.1141 13.653 74.0208 14.3055 74.0208 15.0513V21.9027H71.5496V8.54939L71.3864 8.52609ZM92.2757 19.6655C92.9285 19.6655 93.5113 19.5723 94.0942 19.3392C94.677 19.0829 95.0733 18.7566 95.493 18.3605C95.8194 17.941 96.1458 17.4516 96.309 16.869C96.4722 16.2864 96.6354 15.7038 96.6354 14.9813C96.6354 14.3288 96.5421 13.653 96.309 13.0937C96.1458 12.5111 95.8194 12.0217 95.493 11.6022C95.0733 11.1828 94.677 10.8565 94.0942 10.6235C93.5113 10.3671 92.9285 10.2972 92.2757 10.2972C91.6229 10.2972 91.04 10.3904 90.4572 10.6235C89.8743 10.8798 89.478 11.2061 89.0583 11.6022C88.7319 12.0217 88.4056 12.5111 88.2424 13.0937C88.0792 13.6763 87.916 14.2589 87.916 14.9813C87.916 15.6339 88.0092 16.3097 88.2424 16.869C88.4056 17.4516 88.7319 17.941 89.0583 18.3605C89.3847 18.7799 89.8743 19.1062 90.4572 19.3392C90.9468 19.5024 91.6229 19.6655 92.2757 19.6655ZM99.13 21.6463H96.6587V19.7587H96.5654C96.0758 20.5044 95.3997 20.9938 94.5837 21.4133C93.7678 21.8328 92.8585 21.9959 91.9493 21.9959C90.9701 21.9959 89.9676 21.8328 89.1516 21.5065C88.3356 21.1803 87.5896 20.6909 87.0067 20.015C86.4239 19.3625 85.9343 18.6168 85.6778 17.7778C85.3514 16.9622 85.1882 16.0533 85.1882 15.0513C85.1882 14.0492 85.3514 13.1636 85.6778 12.2548C86.0042 11.4391 86.4239 10.6934 87.0067 10.0176C87.5896 9.36504 88.3356 8.85235 89.1516 8.52609C89.9676 8.19983 90.8768 8.03671 91.9493 8.03671C92.8585 8.03671 93.7678 8.19984 94.5837 8.61931C95.3997 9.03879 96.0758 9.59808 96.4722 10.2739H96.5654V0.369629H99.0367V21.6463H99.13ZM111.743 13.9793C111.743 13.3967 111.65 12.9073 111.486 12.4179C111.323 11.9285 111.067 11.509 110.74 11.1828C110.414 10.8565 109.994 10.6002 109.575 10.3671C109.085 10.204 108.595 10.0409 107.919 10.0409C107.336 10.0409 106.754 10.1341 106.264 10.3671C105.774 10.6235 105.355 10.8565 104.935 11.276C104.609 11.6022 104.282 12.0217 104.119 12.5111C103.956 13.0005 103.793 13.42 103.793 13.8394H111.72L111.743 13.9793ZM103.839 16.03C103.839 16.6126 104.003 17.102 104.259 17.5914C104.515 18.0808 104.842 18.5003 105.238 18.8265C105.658 19.1528 106.147 19.4091 106.637 19.5723C107.22 19.7354 107.71 19.8286 108.292 19.8286C109.038 19.8286 109.784 19.6655 110.344 19.246C110.927 18.9197 111.416 18.4304 111.906 17.8478L113.794 19.3392C112.396 21.157 110.414 22.0658 107.943 22.0658C106.87 22.0658 105.961 21.9027 105.145 21.5764C104.329 21.2502 103.583 20.7608 103 20.085C102.417 19.4324 101.928 18.7566 101.671 17.8478C101.345 17.0321 101.182 16.1233 101.182 15.1212C101.182 14.1424 101.345 13.2335 101.671 12.3946C101.998 11.5789 102.487 10.8332 103.07 10.1574C103.653 9.50486 104.399 9.08539 105.215 8.66591C106.031 8.33966 106.94 8.17653 107.943 8.17653C109.108 8.17653 110.088 8.33966 110.904 8.75913C111.72 9.17861 112.396 9.668 112.885 10.3205C113.375 10.973 113.794 11.7188 114.051 12.5577C114.307 13.3734 114.377 14.2123 114.377 15.1212V16.03H103.839ZM124.123 11.8353C123.796 11.509 123.47 11.1828 123.05 10.9264C122.63 10.6701 122.071 10.5069 121.488 10.5069C120.905 10.5069 120.416 10.6701 119.926 10.9264C119.506 11.1828 119.273 11.509 119.273 11.9984C119.273 12.4179 119.436 12.7441 119.693 12.9073C119.949 13.1636 120.276 13.3268 120.602 13.4899C120.929 13.653 121.348 13.7462 121.675 13.8161C122.094 13.9094 122.421 13.9793 122.654 13.9793C123.143 14.1424 123.726 14.2356 124.146 14.4687C124.635 14.6318 125.055 14.8881 125.382 15.2144C125.708 15.5406 125.964 15.8669 126.197 16.2864C126.361 16.7059 126.524 17.1952 126.524 17.8478C126.524 18.5935 126.361 19.246 126.034 19.7354C125.708 20.2248 125.288 20.7142 124.799 21.0637C124.309 21.4133 123.726 21.6463 123.073 21.8095C122.421 21.9726 121.745 22.0658 121.185 22.0658C120.113 22.0658 119.133 21.9027 118.294 21.5764C117.478 21.2502 116.732 20.6676 116.056 19.7587L117.944 18.1973C118.364 18.6168 118.76 18.9431 119.273 19.2693C119.786 19.5956 120.346 19.7587 121.092 19.7587C121.418 19.7587 121.745 19.7587 122.071 19.6655C122.397 19.5723 122.654 19.5024 122.887 19.3392C123.143 19.1761 123.307 19.013 123.47 18.8498C123.633 18.5935 123.726 18.3604 123.726 18.1041C123.726 17.7778 123.633 17.4516 123.4 17.1952C123.143 16.9389 122.91 16.7758 122.584 16.6126C122.257 16.4495 121.931 16.3563 121.605 16.2864L120.625 16.03C120.136 15.8669 119.553 15.7737 119.133 15.6106C118.644 15.4474 118.224 15.1911 117.898 14.958C117.571 14.7017 117.245 14.3055 116.988 13.886C116.732 13.4666 116.662 12.9073 116.662 12.3247C116.662 11.6722 116.825 10.9963 117.082 10.5069C117.338 10.0176 117.735 9.59808 118.247 9.27182C118.737 8.94557 119.227 8.68922 119.809 8.52609C120.392 8.36296 121.045 8.26975 121.628 8.26975C122.537 8.26975 123.353 8.43287 124.192 8.75913C125.008 9.08539 125.685 9.66799 126.174 10.4137L124.123 11.8353ZM128.925 0.695893H131.396V14.0492L137.015 8.43287H140.396L134.381 14.3754L140.979 21.4599H137.435L131.42 14.7017V21.4599H128.949V0.695893" fill="#051B52"></path></g><defs><clipPath id="clip0"><rect width="140" height="27.3563" fill="white" transform="translate(0.978516 0.369629)"></rect></clipPath></defs></svg>