<svg xmlns="http://www.w3.org/2000/svg" width="141" height="46" viewBox="0 0 141 46" fill="none"><path d="M71.4604 15.2692C78.7421 15.2692 82.383 19.5168 82.383 19.5168L79.7824 23.4178C77.6152 21.3373 74.7545 20.1237 71.7204 20.1237C65.8257 20.1237 61.578 24.458 61.578 30.4394C61.578 36.4209 65.8257 40.8419 71.8071 40.8419C75.1879 40.7552 78.3954 39.3682 80.7359 36.941L82.9898 41.0153C79.9557 44.0494 75.7081 45.7831 71.3737 45.6964C62.3582 45.6964 55.9434 39.1949 55.9434 30.4394C55.9434 21.684 62.3582 15.2692 71.4604 15.2692Z" fill="#051B52"></path><path d="M98.6787 15.2692C107.347 15.2692 114.369 21.684 114.369 30.4394C114.369 39.1949 107.347 45.6964 98.6787 45.6964C90.01 45.6964 82.9883 39.2815 82.9883 30.4394C82.9883 21.5973 90.01 15.2692 98.6787 15.2692ZM98.6787 40.8419C104.227 40.8419 108.648 36.5076 108.648 30.4394C108.821 24.8915 104.487 20.297 98.9387 20.1237C93.3908 19.9503 88.7963 24.2846 88.623 29.8326C88.623 30.006 88.623 30.2661 88.623 30.4394C88.7096 36.5076 93.2174 40.8419 98.6787 40.8419Z" fill="#051B52"></path><path d="M117.838 20.8168H114.023V16.309H118.011V7.98706H123.386V16.3957H130.407V20.9035H123.386V33.8199C123.386 39.6279 128.5 40.3214 130.581 40.3214C131.014 40.3214 131.448 40.3214 131.881 40.2347V45.1759C131.274 45.2626 130.581 45.2626 129.974 45.2626C126.246 45.2626 117.838 44.1357 117.838 34.4267V20.8168Z" fill="#051B52"></path><path d="M134.828 4.953H140.463V10.6744H134.828V4.953ZM134.915 16.5691H140.463V45.0025H134.915V16.5691Z" fill="#051B52"></path><path d="M1.58983 14.3156C0.80964 14.3156 0.462891 14.6623 0.462891 15.3558C0.462891 15.3558 0.462891 30.9596 0.462891 33.2134C0.462891 33.9936 0.80964 34.2537 1.58983 34.2537C10.1719 34.3404 20.661 26.7119 29.3298 20.7305V0.098877C20.7477 5.99361 9.99849 14.4023 1.58983 14.3156Z" fill="#051B52"></path><path d="M46.7536 22.3776C47.5338 22.3776 47.8805 22.0308 47.8805 21.3373C47.8805 21.3373 47.8805 5.73363 47.8805 3.47976C47.8805 2.69958 47.5338 2.43951 46.7536 2.43951C38.0849 2.35283 27.6824 9.98131 19.0137 15.9627V36.5076C27.5957 30.6129 38.3449 22.2042 46.7536 22.3776Z" fill="#051B52"></path><path d="M29.3302 20.7306V8.94116C25.776 11.195 22.2219 13.6223 18.9277 15.8761V27.6656C22.5686 25.4117 26.0361 22.9845 29.3302 20.7306Z" fill="#051B52"></path></svg>