<svg xmlns="http://www.w3.org/2000/svg" width="141" height="36" viewBox="0 0 141 36" fill="none"><path d="M0.979601 8.30882L13.1966 15.8122V9.43512L6.58494 4.96528L0.979601 8.30882Z" fill="#00CF47"></path><path d="M8.22277 3.98833L13.9364 7.85107L19.7658 3.91006L14.0599 0.506531L8.22277 3.98833Z" fill="#00CF47"></path><path d="M21.4037 4.88701L14.9232 9.26813V15.6606L27.015 8.23413L21.4037 4.88701Z" fill="#00CF47"></path><path d="M28.1198 9.58189L14.9232 17.6869L14.9232 25.5272L28.1198 17.4222V9.58189Z" fill="#00CF47"></path><path d="M28.1198 19.4485L14.9232 27.5535V35.9744L28.1198 27.6397V19.4485Z" fill="#00CF47"></path><path d="M13.1966 35.9744V27.7051L0 19.6001V27.6397L13.1966 35.9744Z" fill="#00CF47"></path><path d="M0 17.5738L13.1966 25.6788L13.1966 17.8385L0 9.73348V17.5738Z" fill="#00CF47"></path><path d="M39.3535 23.2594V12.2576H42.6027C43.5749 12.2576 44.4363 12.4742 45.1869 12.9075C45.9425 13.3407 46.5268 13.9552 46.9399 14.7512C47.353 15.5471 47.5595 16.4588 47.5595 17.4865V18.0381C47.5595 19.0808 47.3504 19.9976 46.9323 20.7885C46.5193 21.5794 45.9274 22.1889 45.1566 22.6171C44.3909 23.0453 43.5119 23.2594 42.5195 23.2594H39.3535ZM41.2652 13.7991V21.733H42.512C43.5144 21.733 44.2826 21.4207 44.8166 20.7961C45.3556 20.1664 45.6302 19.2647 45.6402 18.091V17.4789C45.6402 16.2851 45.3808 15.3733 44.8619 14.7436C44.3431 14.1139 43.59 13.7991 42.6027 13.7991H41.2652Z" fill="#2E2E2E"></path><path d="M52.8866 23.4105C51.7229 23.4105 50.7784 23.0453 50.053 22.3149C49.3327 21.5794 48.9725 20.6021 48.9725 19.3831V19.1564C48.9725 18.3403 49.1286 17.6124 49.441 16.9727C49.7583 16.3279 50.2016 15.8266 50.7709 15.469C51.3401 15.1113 51.9748 14.9325 52.675 14.9325C53.7883 14.9325 54.6472 15.2876 55.2516 15.9979C55.8612 16.7082 56.1659 17.7132 56.1659 19.0128V19.7533H50.8237C50.8792 20.4283 51.1033 20.9623 51.4962 21.3552C51.8942 21.7481 52.3929 21.9446 52.9924 21.9446C53.8336 21.9446 54.5187 21.6046 55.0476 20.9245L56.0375 21.869C55.7101 22.3577 55.2718 22.738 54.7227 23.01C54.1787 23.277 53.5666 23.4105 52.8866 23.4105ZM52.6674 16.406C52.1637 16.406 51.7557 16.5823 51.4433 16.9349C51.1361 17.2875 50.9396 17.7787 50.854 18.4083H54.3525V18.2723C54.3122 17.6578 54.1484 17.1943 53.8613 16.882C53.5742 16.5646 53.1762 16.406 52.6674 16.406Z" fill="#2E2E2E"></path><path d="M60.9565 21.9446C61.4149 21.9446 61.7953 21.8111 62.0975 21.5441C62.3998 21.2771 62.561 20.9472 62.5811 20.5543H64.3115C64.2913 21.0631 64.1326 21.5391 63.8354 21.9824C63.5382 22.4206 63.1352 22.7682 62.6264 23.0251C62.1177 23.282 61.5686 23.4105 60.9792 23.4105C59.8357 23.4105 58.929 23.0402 58.259 22.2997C57.589 21.5592 57.254 20.5366 57.254 19.232V19.043C57.254 17.7988 57.5865 16.8039 58.2514 16.0584C58.9164 15.3078 59.8231 14.9325 60.9716 14.9325C61.9439 14.9325 62.7347 15.2171 63.3443 15.7863C63.9588 16.3505 64.2812 17.0936 64.3115 18.0154H62.5811C62.561 17.5469 62.3998 17.1616 62.0975 16.8593C61.8003 16.5571 61.42 16.406 60.9565 16.406C60.3621 16.406 59.9037 16.6226 59.5813 17.0558C59.2589 17.484 59.0952 18.1363 59.0902 19.0128V19.3075C59.0902 20.1941 59.2488 20.8565 59.5662 21.2948C59.8886 21.728 60.352 21.9446 60.9565 21.9446Z" fill="#2E2E2E"></path><path d="M69.2985 23.4105C68.1349 23.4105 67.1904 23.0453 66.465 22.3149C65.7446 21.5794 65.3844 20.6021 65.3844 19.3831V19.1564C65.3844 18.3403 65.5406 17.6124 65.8529 16.9727C66.1703 16.3279 66.6136 15.8266 67.1828 15.469C67.752 15.1113 68.3867 14.9325 69.0869 14.9325C70.2002 14.9325 71.0591 15.2876 71.6636 15.9979C72.2731 16.7082 72.5779 17.7132 72.5779 19.0128V19.7533H67.2357C67.2911 20.4283 67.5153 20.9623 67.9082 21.3552C68.3061 21.7481 68.8049 21.9446 69.4043 21.9446C70.2456 21.9446 70.9306 21.6046 71.4596 20.9245L72.4494 21.869C72.122 22.3577 71.6837 22.738 71.1347 23.01C70.5906 23.277 69.9786 23.4105 69.2985 23.4105ZM69.0794 16.406C68.5756 16.406 68.1676 16.5823 67.8553 16.9349C67.548 17.2875 67.3516 17.7787 67.2659 18.4083H70.7644V18.2723C70.7241 17.6578 70.5604 17.1943 70.2733 16.882C69.9861 16.5646 69.5882 16.406 69.0794 16.406Z" fill="#2E2E2E"></path><path d="M75.7137 15.0836L75.7666 16.0281C76.3711 15.2977 77.1645 14.9325 78.1468 14.9325C79.8494 14.9325 80.7159 15.9072 80.7461 17.8567V23.2594H78.9099V17.9625C78.9099 17.4437 78.7966 17.0608 78.5699 16.814C78.3483 16.5621 77.983 16.4362 77.4743 16.4362C76.7338 16.4362 76.1822 16.7712 75.8195 17.4411V23.2594H73.9833V15.0836H75.7137Z" fill="#2E2E2E"></path><path d="M84.9246 13.0964V15.0836H86.3678V16.4437H84.9246V21.0076C84.9246 21.32 84.9851 21.5466 85.106 21.6877C85.2319 21.8237 85.4536 21.8917 85.7709 21.8917C85.9825 21.8917 86.1966 21.8665 86.4132 21.8162V23.2367C85.9951 23.3526 85.5921 23.4105 85.2042 23.4105C83.7937 23.4105 83.0885 22.6322 83.0885 21.0757V16.4437H81.7435V15.0836H83.0885V13.0964H84.9246Z" fill="#2E2E2E"></path><path d="M92.0576 16.7611C91.8158 16.7208 91.5665 16.7006 91.3096 16.7006C90.4683 16.7006 89.9016 17.023 89.6094 17.6678V23.2594H87.7733V15.0836H89.5263L89.5717 15.9979C90.0149 15.2876 90.6295 14.9325 91.4154 14.9325C91.6773 14.9325 91.8939 14.9678 92.0652 15.0383L92.0576 16.7611Z" fill="#2E2E2E"></path><path d="M97.8759 23.2594C97.7953 23.1032 97.7247 22.8488 97.6643 22.4962C97.0799 23.1057 96.3646 23.4105 95.5183 23.4105C94.6972 23.4105 94.0273 23.1763 93.5084 22.7078C92.9896 22.2393 92.7301 21.66 92.7301 20.9699C92.7301 20.0984 93.0525 19.4309 93.6973 18.9675C94.3471 18.499 95.274 18.2648 96.478 18.2648H97.6038V17.7283C97.6038 17.3051 97.4855 16.9676 97.2487 16.7158C97.0119 16.4588 96.6518 16.3304 96.1682 16.3304C95.7501 16.3304 95.4075 16.4362 95.1405 16.6477C94.8736 16.8543 94.7401 17.1187 94.7401 17.4411H92.9039C92.9039 16.9928 93.0525 16.5747 93.3497 16.1868C93.6469 15.7939 94.0499 15.4866 94.5587 15.265C95.0725 15.0433 95.6443 14.9325 96.274 14.9325C97.2311 14.9325 97.9942 15.1743 98.5635 15.6579C99.1327 16.1364 99.4249 16.8115 99.44 17.6829V21.3703C99.44 22.1058 99.5433 22.6927 99.7498 23.1309V23.2594H97.8759ZM95.8584 21.9371C96.2211 21.9371 96.5611 21.8489 96.8784 21.6726C97.2008 21.4963 97.4426 21.2595 97.6038 20.9623V19.4209H96.614C95.9339 19.4209 95.4226 19.5392 95.0801 19.776C94.7375 20.0128 94.5663 20.3477 94.5663 20.781C94.5663 21.1336 94.6821 21.4157 94.9139 21.6272C95.1506 21.8338 95.4655 21.9371 95.8584 21.9371Z" fill="#2E2E2E"></path><path d="M103.316 23.2594H101.48V11.6531H103.316V23.2594Z" fill="#2E2E2E"></path><path d="M111.265 19.1715V23.2594H109.354V12.2576H113.562C114.792 12.2576 115.766 12.5775 116.487 13.2173C117.212 13.857 117.575 14.7033 117.575 15.7561C117.575 16.8341 117.22 17.6729 116.509 18.2723C115.804 18.8718 114.814 19.1715 113.54 19.1715H111.265ZM111.265 17.6376H113.562C114.242 17.6376 114.761 17.4789 115.119 17.1616C115.477 16.8392 115.655 16.3757 115.655 15.7712C115.655 15.1768 115.474 14.7033 115.111 14.3507C114.749 13.993 114.25 13.8092 113.615 13.7991H111.265V17.6376Z" fill="#2E2E2E"></path><path d="M123.869 23.2594C123.788 23.1032 123.718 22.8488 123.657 22.4962C123.073 23.1057 122.358 23.4105 121.511 23.4105C120.69 23.4105 120.02 23.1763 119.502 22.7078C118.983 22.2393 118.723 21.66 118.723 20.9699C118.723 20.0984 119.046 19.4309 119.69 18.9675C120.34 18.499 121.267 18.2648 122.471 18.2648H123.597V17.7283C123.597 17.3051 123.479 16.9676 123.242 16.7158C123.005 16.4588 122.645 16.3304 122.161 16.3304C121.743 16.3304 121.401 16.4362 121.134 16.6477C120.867 16.8543 120.733 17.1187 120.733 17.4411H118.897C118.897 16.9928 119.046 16.5747 119.343 16.1868C119.64 15.7939 120.043 15.4866 120.552 15.265C121.066 15.0433 121.637 14.9325 122.267 14.9325C123.224 14.9325 123.987 15.1743 124.557 15.6579C125.126 16.1364 125.418 16.8115 125.433 17.6829V21.3703C125.433 22.1058 125.536 22.6927 125.743 23.1309V23.2594H123.869ZM121.852 21.9371C122.214 21.9371 122.554 21.8489 122.872 21.6726C123.194 21.4963 123.436 21.2595 123.597 20.9623V19.4209H122.607C121.927 19.4209 121.416 19.5392 121.073 19.776C120.731 20.0128 120.559 20.3477 120.559 20.781C120.559 21.1336 120.675 21.4157 120.907 21.6272C121.144 21.8338 121.459 21.9371 121.852 21.9371Z" fill="#2E2E2E"></path><path d="M131.637 16.7611C131.395 16.7208 131.146 16.7006 130.889 16.7006C130.047 16.7006 129.481 17.023 129.189 17.6678V23.2594H127.352V15.0836H129.105L129.151 15.9979C129.594 15.2876 130.209 14.9325 130.994 14.9325C131.256 14.9325 131.473 14.9678 131.644 15.0383L131.637 16.7611Z" fill="#2E2E2E"></path><path d="M135.453 19.7533L134.637 20.5921V23.2594H132.8V11.6531H134.637V18.3479L135.211 17.63L137.47 15.0836H139.676L136.639 18.4914L140.001 23.2594H137.878L135.453 19.7533Z" fill="#2E2E2E"></path></svg>