<svg xmlns="http://www.w3.org/2000/svg" width="141" height="36" viewBox="0 0 141 36" fill="none"><path d="M0.979601 7.80229L13.1966 15.3056V8.92859L6.58494 4.45875L0.979601 7.80229Z" fill="#051B52"></path><path d="M8.22277 3.4818L13.9364 7.34454L19.7658 3.40353L14.0599 0L8.22277 3.4818Z" fill="#051B52"></path><path d="M21.4037 4.38048L14.9232 8.7616V15.154L27.015 7.7276L21.4037 4.38048Z" fill="#051B52"></path><path d="M28.1198 9.07536L14.9232 17.1803L14.9232 25.0206L28.1198 16.9157V9.07536Z" fill="#051B52"></path><path d="M28.1198 18.942L14.9232 27.047V35.4678L28.1198 27.1332V18.942Z" fill="#051B52"></path><path d="M13.1966 35.4678V27.1985L0 19.0936V27.1332L13.1966 35.4678Z" fill="#051B52"></path><path d="M0 17.0672L13.1966 25.1722L13.1966 17.3319L0 9.22695V17.0672Z" fill="#051B52"></path><path d="M39.3535 22.7527V11.751H42.6027C43.5749 11.751 44.4363 11.9676 45.1869 12.4008C45.9425 12.834 46.5268 13.4486 46.9399 14.2445C47.353 15.0404 47.5595 15.9522 47.5595 16.9798V17.5314C47.5595 18.5742 47.3504 19.491 46.9323 20.2819C46.5193 21.0727 45.9274 21.6823 45.1566 22.1105C44.3909 22.5386 43.5119 22.7527 42.5195 22.7527H39.3535ZM41.2652 13.2924V21.2264H42.512C43.5144 21.2264 44.2826 20.9141 44.8166 20.2894C45.3556 19.6597 45.6302 18.758 45.6402 17.5843V16.9723C45.6402 15.7784 45.3808 14.8666 44.8619 14.2369C44.3431 13.6073 43.59 13.2924 42.6027 13.2924H41.2652Z" fill="#051B52"></path><path d="M52.8866 22.9038C51.7229 22.9038 50.7784 22.5386 50.053 21.8082C49.3327 21.0727 48.9725 20.0955 48.9725 18.8764V18.6497C48.9725 17.8337 49.1286 17.1058 49.441 16.466C49.7583 15.8212 50.2016 15.32 50.7709 14.9623C51.3401 14.6047 51.9748 14.4259 52.675 14.4259C53.7883 14.4259 54.6472 14.781 55.2516 15.4913C55.8612 16.2015 56.1659 17.2065 56.1659 18.5062V19.2467H50.8237C50.8792 19.9217 51.1033 20.4557 51.4962 20.8486C51.8942 21.2415 52.3929 21.438 52.9924 21.438C53.8336 21.438 54.5187 21.0979 55.0476 20.4179L56.0375 21.3624C55.7101 21.851 55.2718 22.2313 54.7227 22.5034C54.1787 22.7704 53.5666 22.9038 52.8866 22.9038ZM52.6674 15.8993C52.1637 15.8993 51.7557 16.0756 51.4433 16.4282C51.1361 16.7808 50.9396 17.272 50.854 17.9017H54.3525V17.7657C54.3122 17.1511 54.1484 16.6877 53.8613 16.3753C53.5742 16.058 53.1762 15.8993 52.6674 15.8993Z" fill="#051B52"></path><path d="M60.9565 21.438C61.4149 21.438 61.7953 21.3045 62.0975 21.0375C62.3998 20.7705 62.561 20.4405 62.5811 20.0476H64.3115C64.2913 20.5564 64.1326 21.0324 63.8354 21.4757C63.5382 21.914 63.1352 22.2616 62.6264 22.5185C62.1177 22.7754 61.5686 22.9038 60.9792 22.9038C59.8357 22.9038 58.929 22.5336 58.259 21.7931C57.589 21.0526 57.254 20.03 57.254 18.7253V18.5364C57.254 17.2921 57.5865 16.2973 58.2514 15.5517C58.9164 14.8011 59.8231 14.4259 60.9716 14.4259C61.9439 14.4259 62.7347 14.7105 63.3443 15.2797C63.9588 15.8439 64.2812 16.5869 64.3115 17.5088H62.5811C62.561 17.0403 62.3998 16.6549 62.0975 16.3527C61.8003 16.0504 61.42 15.8993 60.9565 15.8993C60.3621 15.8993 59.9037 16.1159 59.5813 16.5491C59.2589 16.9773 59.0952 17.6297 59.0902 18.5062V18.8009C59.0902 19.6874 59.2488 20.3499 59.5662 20.7881C59.8886 21.2213 60.352 21.438 60.9565 21.438Z" fill="#051B52"></path><path d="M69.2985 22.9038C68.1349 22.9038 67.1904 22.5386 66.465 21.8082C65.7446 21.0727 65.3844 20.0955 65.3844 18.8764V18.6497C65.3844 17.8337 65.5406 17.1058 65.8529 16.466C66.1703 15.8212 66.6136 15.32 67.1828 14.9623C67.752 14.6047 68.3867 14.4259 69.0869 14.4259C70.2002 14.4259 71.0591 14.781 71.6636 15.4913C72.2731 16.2015 72.5779 17.2065 72.5779 18.5062V19.2467H67.2357C67.2911 19.9217 67.5153 20.4557 67.9082 20.8486C68.3061 21.2415 68.8049 21.438 69.4043 21.438C70.2456 21.438 70.9306 21.0979 71.4596 20.4179L72.4494 21.3624C72.122 21.851 71.6837 22.2313 71.1347 22.5034C70.5906 22.7704 69.9786 22.9038 69.2985 22.9038ZM69.0794 15.8993C68.5756 15.8993 68.1676 16.0756 67.8553 16.4282C67.548 16.7808 67.3516 17.272 67.2659 17.9017H70.7644V17.7657C70.7241 17.1511 70.5604 16.6877 70.2733 16.3753C69.9861 16.058 69.5882 15.8993 69.0794 15.8993Z" fill="#051B52"></path><path d="M75.7137 14.577L75.7666 15.5215C76.3711 14.7911 77.1645 14.4259 78.1468 14.4259C79.8494 14.4259 80.7159 15.4006 80.7461 17.3501V22.7527H78.9099V17.4559C78.9099 16.937 78.7966 16.5542 78.5699 16.3073C78.3483 16.0555 77.983 15.9295 77.4743 15.9295C76.7338 15.9295 76.1822 16.2645 75.8195 16.9345V22.7527H73.9833V14.577H75.7137Z" fill="#051B52"></path><path d="M84.9246 12.5897V14.577H86.3678V15.9371H84.9246V20.501C84.9246 20.8133 84.9851 21.04 85.106 21.181C85.2319 21.3171 85.4536 21.3851 85.7709 21.3851C85.9825 21.3851 86.1966 21.3599 86.4132 21.3095V22.7301C85.9951 22.8459 85.5921 22.9038 85.2042 22.9038C83.7937 22.9038 83.0885 22.1256 83.0885 20.569V15.9371H81.7435V14.577H83.0885V12.5897H84.9246Z" fill="#051B52"></path><path d="M92.0576 16.2544C91.8158 16.2141 91.5665 16.194 91.3096 16.194C90.4683 16.194 89.9016 16.5164 89.6094 17.1612V22.7527H87.7733V14.577H89.5263L89.5717 15.4913C90.0149 14.781 90.6295 14.4259 91.4154 14.4259C91.6773 14.4259 91.8939 14.4611 92.0652 14.5316L92.0576 16.2544Z" fill="#051B52"></path><path d="M97.8759 22.7527C97.7953 22.5966 97.7247 22.3422 97.6643 21.9896C97.0799 22.5991 96.3646 22.9038 95.5183 22.9038C94.6972 22.9038 94.0273 22.6696 93.5084 22.2011C92.9896 21.7326 92.7301 21.1533 92.7301 20.4632C92.7301 19.5917 93.0525 18.9243 93.6973 18.4608C94.3471 17.9924 95.274 17.7581 96.478 17.7581H97.6038V17.2216C97.6038 16.7985 97.4855 16.461 97.2487 16.2091C97.0119 15.9522 96.6518 15.8237 96.1682 15.8237C95.7501 15.8237 95.4075 15.9295 95.1405 16.1411C94.8736 16.3476 94.7401 16.6121 94.7401 16.9345H92.9039C92.9039 16.4862 93.0525 16.0681 93.3497 15.6802C93.6469 15.2873 94.0499 14.98 94.5587 14.7583C95.0725 14.5367 95.6443 14.4259 96.274 14.4259C97.2311 14.4259 97.9942 14.6676 98.5635 15.1512C99.1327 15.6298 99.4249 16.3048 99.44 17.1763V20.8637C99.44 21.5992 99.5433 22.186 99.7498 22.6243V22.7527H97.8759ZM95.8584 21.4304C96.2211 21.4304 96.5611 21.3422 96.8784 21.1659C97.2008 20.9896 97.4426 20.7529 97.6038 20.4557V18.9142H96.614C95.9339 18.9142 95.4226 19.0326 95.0801 19.2693C94.7375 19.5061 94.5663 19.8411 94.5663 20.2743C94.5663 20.6269 94.6821 20.909 94.9139 21.1206C95.1506 21.3271 95.4655 21.4304 95.8584 21.4304Z" fill="#051B52"></path><path d="M103.316 22.7527H101.48V11.1465H103.316V22.7527Z" fill="#051B52"></path><path d="M111.265 18.6648V22.7527H109.354V11.751H113.562C114.792 11.751 115.766 12.0709 116.487 12.7106C117.212 13.3504 117.575 14.1966 117.575 15.2495C117.575 16.3275 117.22 17.1662 116.509 17.7657C115.804 18.3651 114.814 18.6648 113.54 18.6648H111.265ZM111.265 17.131H113.562C114.242 17.131 114.761 16.9723 115.119 16.6549C115.477 16.3325 115.655 15.8691 115.655 15.2646C115.655 14.6702 115.474 14.1966 115.111 13.844C114.749 13.4864 114.25 13.3025 113.615 13.2924H111.265V17.131Z" fill="#051B52"></path><path d="M123.869 22.7527C123.788 22.5966 123.718 22.3422 123.657 21.9896C123.073 22.5991 122.358 22.9038 121.511 22.9038C120.69 22.9038 120.02 22.6696 119.502 22.2011C118.983 21.7326 118.723 21.1533 118.723 20.4632C118.723 19.5917 119.046 18.9243 119.69 18.4608C120.34 17.9924 121.267 17.7581 122.471 17.7581H123.597V17.2216C123.597 16.7985 123.479 16.461 123.242 16.2091C123.005 15.9522 122.645 15.8237 122.161 15.8237C121.743 15.8237 121.401 15.9295 121.134 16.1411C120.867 16.3476 120.733 16.6121 120.733 16.9345H118.897C118.897 16.4862 119.046 16.0681 119.343 15.6802C119.64 15.2873 120.043 14.98 120.552 14.7583C121.066 14.5367 121.637 14.4259 122.267 14.4259C123.224 14.4259 123.987 14.6676 124.557 15.1512C125.126 15.6298 125.418 16.3048 125.433 17.1763V20.8637C125.433 21.5992 125.536 22.186 125.743 22.6243V22.7527H123.869ZM121.852 21.4304C122.214 21.4304 122.554 21.3422 122.872 21.1659C123.194 20.9896 123.436 20.7529 123.597 20.4557V18.9142H122.607C121.927 18.9142 121.416 19.0326 121.073 19.2693C120.731 19.5061 120.559 19.8411 120.559 20.2743C120.559 20.6269 120.675 20.909 120.907 21.1206C121.144 21.3271 121.459 21.4304 121.852 21.4304Z" fill="#051B52"></path><path d="M131.637 16.2544C131.395 16.2141 131.146 16.194 130.889 16.194C130.047 16.194 129.481 16.5164 129.189 17.1612V22.7527H127.352V14.577H129.105L129.151 15.4913C129.594 14.781 130.209 14.4259 130.994 14.4259C131.256 14.4259 131.473 14.4611 131.644 14.5316L131.637 16.2544Z" fill="#051B52"></path><path d="M135.453 19.2467L134.637 20.0854V22.7527H132.8V11.1465H134.637V17.8412L135.211 17.1234L137.47 14.577H139.676L136.639 17.9848L140.001 22.7527H137.878L135.453 19.2467Z" fill="#051B52"></path></svg>