<svg width="141" height="28" viewBox="0 0 141 28" fill="none" xmlns="http://www.w3.org/2000/svg">
<path d="M139.679 12.7409L129.291 2.35285C127.973 1.03445 126.609 0.579834 124.495 0.579834H2.08855C1.06566 0.579834 0.224609 1.42088 0.224609 2.44377V25.6521C0.224609 26.675 1.06566 27.516 2.08855 27.516H124.495C126.609 27.516 127.973 27.0614 129.291 25.743L139.679 15.355C140.406 14.6503 140.406 13.4683 139.679 12.7409Z" fill="#6F2C91"/>
<path d="M44.2978 17.2877C46.5254 17.2877 47.1846 15.9693 47.1846 14.0599C47.1846 12.1505 46.5254 10.8321 44.2978 10.8321H42.6157V17.2877H44.2978ZM40.2289 19.4016V8.71808H44.3659C48.0711 8.71808 49.5713 10.7866 49.5713 14.0599C49.5713 17.3331 48.0484 19.4016 44.3659 19.4016H40.2289Z" fill="white"/>
<path d="M60.0731 15.0373H55.0268V17.2877H60.755V19.4016H52.6173V8.71808H60.755V10.8321H55.0268V12.946H60.0731V15.0373Z" fill="white"/>
<path d="M71.6423 19.4016L66.2096 12.6051L66.3233 19.4016H63.9365V8.71808H65.9141L71.3696 15.5146L71.2332 8.71808H73.6199V19.4016H71.6423Z" fill="white"/>
<path d="M82.1907 10.8321V19.4016H79.7812V10.8321H76.3942V8.71808H85.5776V10.8321H82.1907Z" fill="white"/>
<path d="M92.8511 10.537C90.6007 10.537 89.9188 11.8781 89.9188 14.0603C89.9188 16.2425 90.6007 17.5836 92.8511 17.5836C95.1015 17.5836 95.7834 16.2425 95.7834 14.0603C95.7834 11.8781 95.1015 10.537 92.8511 10.537ZM92.8511 8.46851C96.6017 8.46851 98.1929 10.537 98.1929 14.0603C98.1929 17.5836 96.6017 19.6521 92.8511 19.6521C89.1005 19.6521 87.5093 17.5836 87.5093 14.0603C87.5093 10.537 89.1232 8.46851 92.8511 8.46851Z" fill="white"/>
<path d="M108.921 19.4016L103.488 12.6051L103.602 19.4016H101.215V8.71808H103.193L108.626 15.5146L108.512 8.71808H110.899V19.4016H108.921Z" fill="white"/>
<path d="M116.355 11.8781C116.355 12.6736 116.946 12.8328 118.492 12.9691C121.697 13.2419 122.652 13.9238 122.652 16.1969C122.652 18.1063 121.424 19.652 117.901 19.652C116.833 19.652 114.946 19.3793 114.196 19.0383V16.8789C115.06 17.2198 116.469 17.5153 117.901 17.5153C119.651 17.5153 120.265 17.0607 120.265 16.1969C120.265 15.3332 119.719 15.0604 118.174 14.9467C114.969 14.674 114.014 13.9693 114.014 11.9008C114.014 9.78681 115.332 8.49114 118.492 8.49114C119.56 8.49114 121.22 8.67299 122.152 9.08215V11.2416C121.197 10.8779 119.879 10.6279 118.469 10.6279C116.924 10.6051 116.355 10.9915 116.355 11.8781Z" fill="white"/>
<path d="M13.0196 16.4247C12.6104 17.243 11.883 17.9022 10.8374 18.3796C9.81452 18.8569 8.88255 19.0843 8.06424 19.0843C7.13227 19.107 6.56399 18.9024 6.38215 18.516C6.2003 18.1296 6.10938 17.8341 6.10938 17.6749V17.5158C6.10938 17.4704 6.15484 17.4249 6.24576 17.4022C6.26849 17.4022 6.31395 17.4022 6.42761 17.4249C6.51853 17.4477 6.65492 17.4477 6.8595 17.4249L7.88239 17.3794C9.33717 17.3112 10.4283 16.9476 11.1329 16.2884C11.8603 15.6292 12.2695 14.9018 12.4059 14.0607L12.474 13.5834C12.4968 13.447 12.4968 13.3333 12.4968 13.2651C12.474 13.1969 12.4513 13.1515 12.3831 13.1515L12.2013 13.1742L11.4057 13.197L10.7238 13.2424L10.0191 13.3106C9.63267 13.3561 9.31444 13.4243 9.0644 13.4924C8.81436 13.5606 8.65524 13.5834 8.56432 13.5834C8.4052 13.5606 8.29155 13.5152 8.22335 13.4015C8.15516 13.2879 8.13243 13.1742 8.13243 13.0378C8.13243 12.9014 8.15516 12.7878 8.22335 12.6741C8.26882 12.5832 8.42793 12.4241 8.7007 12.1513C8.97348 11.8785 9.22352 11.7649 9.47356 11.8104L9.70087 11.8558C9.76906 11.8786 9.88271 11.9013 10.0191 11.9013C10.1555 11.9013 10.2919 11.9013 10.4055 11.9013L10.9056 11.8558H11.5875L12.1331 11.8104C12.3604 11.8104 12.4968 11.7876 12.4968 11.7649C12.5195 11.7422 12.5195 11.7194 12.5195 11.674C12.5195 11.6285 12.5195 11.6058 12.5195 11.6058L12.4968 11.4467V10.6511L12.4513 10.1056C12.4513 10.1056 12.4286 10.0146 12.4513 9.85549C12.4513 9.69638 12.4968 9.58272 12.565 9.4918C12.6332 9.40087 12.7468 9.33268 12.8832 9.28722C13.0196 9.24176 13.1105 9.21903 13.156 9.21903C13.6561 9.26449 13.9743 9.44634 14.0879 9.71911C14.2243 9.99188 14.2698 10.2419 14.2698 10.4465L14.2471 11.4694V11.6512C14.2471 11.7422 14.2471 11.7876 14.2698 11.7876C14.2698 11.8104 14.3153 11.8104 14.338 11.7876L14.6789 11.7649L15.2018 11.7876L16.3156 11.8104L17.9749 11.9468C18.2477 11.9695 18.475 12.015 18.6341 12.0604C18.7933 12.1059 18.8614 12.2422 18.8614 12.4923C18.8614 12.6969 18.7705 12.8787 18.5887 13.0378C18.4068 13.1969 17.543 13.2424 15.9746 13.1742L14.9972 13.1515L14.4289 13.1287C14.2925 13.1287 14.2243 13.1515 14.2243 13.197C14.2243 13.2424 14.2243 13.2651 14.2243 13.2651C14.2243 13.3561 14.3607 13.5379 14.6335 13.788C14.9063 14.038 15.4973 14.5153 16.4065 15.22C17.3157 15.9247 18.1795 16.4475 18.9751 16.7884C19.7934 17.1294 20.3162 17.3112 20.5435 17.3567C20.7708 17.3794 20.8845 17.4249 20.8845 17.4476C20.8845 17.4704 20.9072 17.4931 20.9072 17.5158C20.9072 17.5386 20.9072 17.584 20.9072 17.6295C20.8163 18.0159 20.5208 18.3796 19.998 18.766C19.4752 19.1297 18.9978 19.3116 18.5432 19.3116C18.2704 19.3116 18.0204 19.2207 17.8158 19.0161C17.5885 18.8342 17.1566 18.3796 16.4974 17.6749C15.8382 16.9703 15.3381 16.4247 14.9745 15.9928C14.6335 15.561 14.4062 15.3109 14.2925 15.1745C14.1789 15.0609 14.1107 14.97 14.0652 14.9245L13.9061 14.6972L13.8606 14.6745L13.7924 14.7426C13.6788 15.0381 13.4287 15.5837 13.0196 16.4247Z" fill="white"/>
<path d="M32.5921 12.9472C32.7512 12.9472 32.8876 12.9926 33.0467 13.0608C33.1831 13.1518 33.2513 13.3336 33.274 13.6746C33.274 13.9928 33.274 14.2656 33.2285 14.4701C33.1604 14.9475 33.0467 15.3567 32.8876 15.6976C32.7285 16.0386 32.6148 16.2432 32.5466 16.3568C32.4784 16.4705 32.433 16.5387 32.433 16.6069C32.433 16.675 32.5239 16.766 32.7285 16.9024C33.3649 17.3115 34.3424 17.5388 35.6608 17.5843C35.979 17.607 36.229 17.5843 36.4336 17.5388C36.6382 17.4934 36.7291 17.5388 36.7291 17.6298C36.7291 17.6752 36.7064 17.7434 36.6837 17.8571C36.6609 17.9707 36.6155 18.1526 36.5245 18.3571C36.4336 18.5845 36.2518 18.8118 35.9563 19.0618C35.6608 19.3118 35.3198 19.4937 34.9334 19.6528C34.5469 19.7892 34.2287 19.8574 34.0014 19.8574C33.6377 19.8574 33.1831 19.6528 32.6603 19.2436C32.1375 18.8345 31.751 18.5163 31.5465 18.2889C31.3419 18.0616 31.2055 17.9253 31.16 17.9253C31.1373 17.9253 30.8645 18.1298 30.3872 18.4935C29.9098 18.8572 29.2734 19.0618 28.5232 19.0618C28.3641 19.0845 28.2277 19.0618 28.1141 18.9936C28.0232 18.9481 27.9322 18.88 27.9095 18.8118C27.864 18.7436 27.8413 18.6754 27.8413 18.6072C27.8413 18.539 27.955 18.4481 28.205 18.3571C28.8869 18.0616 29.2734 17.9025 29.3188 17.8798C29.387 17.8343 29.5689 17.6979 29.8644 17.4024L30.2735 17.0615C30.3872 16.9478 30.4554 16.8796 30.4554 16.8342C30.4554 16.7887 30.4099 16.6978 30.3417 16.5387C30.2508 16.425 30.1599 16.1522 30.0235 15.7658C29.8871 15.3567 29.8189 15.0839 29.7734 14.9475C29.728 14.8111 29.6825 14.5383 29.5916 14.1292C29.5234 13.72 29.4552 13.4018 29.4325 13.1518C29.4097 12.9017 29.387 12.7426 29.3643 12.6744C29.3416 12.5835 29.2506 12.5607 29.0688 12.5607C27.7504 12.5835 26.9093 12.6062 26.5229 12.6289C26.1365 12.6744 25.9319 12.7426 25.9092 12.8562C25.8864 12.9699 25.8637 13.0608 25.8864 13.1518C25.8864 13.4245 25.9092 13.6064 25.9546 13.6518C26.0001 13.6973 26.091 13.72 26.2274 13.72H26.9093C27.3867 13.6973 27.7504 13.6518 28.0232 13.5609L28.3187 13.4473C28.5232 13.3791 28.7051 13.4245 28.9097 13.6064C29.0915 13.7655 29.2279 13.9246 29.2961 14.061C29.3643 14.1974 29.387 14.3565 29.387 14.5383C29.387 14.7202 29.387 14.9248 29.387 15.1293C29.387 15.6522 29.3416 16.0613 29.2961 16.3568C29.2279 16.6523 29.0688 17.016 28.7733 17.4706C28.4778 17.9253 28.0004 18.1526 27.364 18.1526C26.7957 18.1753 26.4093 18.0162 26.1819 17.6752L25.9774 17.2661C25.9319 17.2206 25.9092 17.1751 25.9319 17.1297C25.9319 17.0842 25.9774 17.0387 26.0683 17.0387C26.0683 17.0387 26.1365 17.0615 26.2729 17.1069C26.4093 17.1524 26.5456 17.1751 26.7502 17.1751C27.2276 17.1979 27.5685 17.016 27.7731 16.6523C27.9777 16.2886 28.0914 15.8567 28.0914 15.3794C28.0686 15.0839 28.0004 14.902 27.8868 14.7884C27.7504 14.6747 27.4776 14.652 27.0457 14.6747L26.5911 14.7202C26.2729 14.7657 26.0683 14.8111 26.0228 14.8566C25.9774 14.9248 25.9319 14.993 25.9092 15.1066C25.8864 15.2203 25.841 15.5385 25.7728 16.0613C25.7046 16.5841 25.5909 17.1069 25.3864 17.6298C25.2045 18.1526 24.8636 18.539 24.3635 18.789C23.8634 19.0391 23.477 19.1755 23.1587 19.1527C22.795 19.1527 22.4995 18.9936 22.295 18.7436C22.0904 18.4935 21.9767 18.3117 21.9767 18.2208C21.9767 18.1071 22.0904 17.9934 22.3404 17.8798L22.886 17.6979C23.2269 17.5843 23.5224 17.357 23.7725 16.9933C24.0225 16.6523 24.2271 16.3114 24.3862 15.9704C24.5453 15.6294 24.6362 15.2657 24.659 14.8793C24.7044 14.4929 24.7044 14.2428 24.7044 14.1292C24.6817 13.9928 24.6817 13.811 24.6362 13.6064C24.6135 13.4018 24.5681 13.1745 24.5226 12.9926L24.3407 12.3334C24.2953 12.1516 24.2726 11.947 24.2726 11.7197C24.2953 11.4924 24.3862 11.3333 24.5908 11.2196C24.7954 11.106 24.9772 11.0378 25.1363 11.0378C25.2954 11.0378 25.4773 11.106 25.6137 11.2196L25.8637 11.4242C25.9546 11.5151 26.0683 11.5606 26.2274 11.5606C26.3638 11.5606 26.5684 11.5606 26.8184 11.5606C27.0685 11.5379 27.3867 11.5379 27.7504 11.5151C28.1368 11.4924 28.4096 11.4924 28.6142 11.4924C28.8187 11.4924 28.9551 11.4924 29.0006 11.4924C29.1142 11.4924 29.1597 11.4697 29.1824 11.4469C29.2052 11.4242 29.2052 11.3787 29.2052 11.3105C29.2052 11.2424 29.2052 11.1969 29.2052 11.1969L29.1824 10.9241L29.1597 10.1513L29.137 9.96942C29.137 9.8785 29.137 9.8103 29.1597 9.71938C29.2279 9.26476 29.5007 9.01472 29.9553 9.01472C30.2735 9.01472 30.4781 9.10564 30.5918 9.28749C30.6827 9.46934 30.7281 9.67392 30.7281 9.92396C30.7281 10.1513 30.7054 10.4013 30.7054 10.6286C30.7054 10.8787 30.7054 11.0605 30.6827 11.1742C30.6827 11.3105 30.7054 11.4015 30.7509 11.4469C30.7963 11.4924 30.8873 11.5151 31.0009 11.5151C31.0236 11.5379 31.1146 11.5379 31.251 11.5151C31.3873 11.5151 31.6147 11.4924 31.9556 11.4924H32.7739L33.5241 11.5151H33.9559C34.2969 11.5606 34.456 11.7197 34.456 11.9925C34.456 12.1516 34.3878 12.2652 34.2742 12.3789C34.1605 12.4926 33.5013 12.538 32.2738 12.5607L31.501 12.5835H30.9782C30.8418 12.5835 30.7736 12.6062 30.7281 12.6517C30.6827 12.6971 30.6827 12.8108 30.6827 12.9926C30.6827 13.3109 30.6827 13.5836 30.7054 13.7882C30.7281 14.0155 30.7736 14.2883 30.8873 14.6065C31.0009 14.9248 31.0918 15.1748 31.1828 15.3339C31.2737 15.493 31.3419 15.584 31.3873 15.5612C31.4328 15.5612 31.501 15.4476 31.6147 15.2203L31.8192 14.7202C31.9102 14.4701 32.0011 14.1974 32.0465 13.8791C32.092 13.5836 32.1602 13.3791 32.2057 13.3109C32.3193 13.1745 32.433 13.0836 32.5921 12.9472ZM31.9102 10.4922C32.0465 10.3331 32.1375 10.2195 32.2511 10.1058C32.342 9.99215 32.433 9.92396 32.4557 9.85576L32.7967 9.37841C32.8876 9.28749 33.0012 9.24203 33.1149 9.2193C33.2285 9.2193 33.3649 9.26476 33.5695 9.35568C33.7741 9.44661 33.865 9.60572 33.865 9.8103C33.865 10.0149 33.8423 10.1513 33.7968 10.2422C33.6604 10.4468 33.3195 10.6286 32.7739 10.7877L32.2511 10.9241C32.0465 10.9923 31.9102 10.9923 31.8192 10.9468C31.751 10.9014 31.7056 10.8332 31.6828 10.765C31.6828 10.7195 31.751 10.6286 31.9102 10.4922Z" fill="white"/>
</svg>
