<svg xmlns="http://www.w3.org/2000/svg" width="141" height="28" viewBox="0 0 141 28" fill="none"><path d="M89.9208 14.0603C89.9208 11.8781 90.6027 10.537 92.8531 10.537C95.1034 10.537 95.7853 11.8781 95.7853 14.0603C95.7853 16.2425 95.1034 17.5836 92.8531 17.5836C90.6027 17.5836 89.9208 16.2425 89.9208 14.0603Z" fill="white"></path><path d="M44.2997 17.2877C46.5273 17.2877 47.1865 15.9693 47.1865 14.0599C47.1865 12.1505 46.5273 10.8321 44.2997 10.8321H42.6176V17.2877H44.2997Z" fill="white"></path><path fill-rule="evenodd" clip-rule="evenodd" d="M129.291 2.35285L139.679 12.7409C140.406 13.4683 140.406 14.6503 139.679 15.355L129.291 25.743C127.973 27.0614 126.609 27.516 124.495 27.516H2.08855C1.06566 27.516 0.224609 26.675 0.224609 25.6521V2.44377C0.224609 1.42088 1.06566 0.579834 2.08855 0.579834H124.495C126.609 0.579834 127.973 1.03445 129.291 2.35285ZM98.1948 14.0603C98.1948 10.537 96.6037 8.46851 92.8531 8.46851C89.1252 8.46851 87.5113 10.537 87.5113 14.0603C87.5113 17.5836 89.1024 19.6521 92.8531 19.6521C96.6037 19.6521 98.1948 17.5836 98.1948 14.0603ZM40.2309 19.4016V8.71808H44.3679C48.073 8.71808 49.5733 10.7866 49.5733 14.0599C49.5733 17.3331 48.0503 19.4016 44.3679 19.4016H40.2309ZM60.075 15.0373H55.0287V17.2877H60.7569V19.4016H52.6193V8.71808H60.7569V10.8321H55.0287V12.946H60.075V15.0373ZM66.2116 12.6051L71.6443 19.4016H73.6219V8.71808H71.2351L71.3715 15.5146L65.9161 8.71808H63.9385V19.4016H66.3252L66.2116 12.6051ZM82.1926 10.8321V19.4016H79.7831V10.8321H76.3962V8.71808H85.5795V10.8321H82.1926ZM108.923 19.4016L103.49 12.6051L103.604 19.4016H101.217V8.71808H103.195L108.628 15.5146L108.514 8.71808H110.901V19.4016H108.923ZM118.494 12.9691C116.948 12.8328 116.357 12.6736 116.357 11.8781C116.357 10.9915 116.925 10.6051 118.471 10.6279C119.881 10.6279 121.199 10.8779 122.154 11.2416V9.08215C121.222 8.67299 119.562 8.49114 118.494 8.49114C115.334 8.49114 114.016 9.78681 114.016 11.9008C114.016 13.9693 114.971 14.674 118.176 14.9467C119.721 15.0604 120.267 15.3332 120.267 16.1969C120.267 17.0607 119.653 17.5153 117.903 17.5153C116.471 17.5153 115.062 17.2198 114.198 16.8789V19.0383C114.948 19.3793 116.835 19.652 117.903 19.652C121.426 19.652 122.654 18.1063 122.654 16.1969C122.654 13.9238 121.699 13.2419 118.494 12.9691ZM13.0215 16.4247C12.6124 17.243 11.885 17.9022 10.8394 18.3796C9.81647 18.8569 8.88451 19.0843 8.06619 19.0843C7.13422 19.107 6.56595 18.9024 6.3841 18.516C6.20225 18.1296 6.11133 17.8341 6.11133 17.6749V17.5158C6.11133 17.4704 6.15679 17.4249 6.24771 17.4022C6.27044 17.4022 6.31591 17.4022 6.42956 17.4249C6.52048 17.4477 6.65687 17.4477 6.86145 17.4249L7.88434 17.3794C9.33912 17.3112 10.4302 16.9476 11.1349 16.2884C11.8623 15.6292 12.2714 14.9018 12.4078 14.0607L12.476 13.5834C12.4987 13.447 12.4987 13.3333 12.4987 13.2651C12.476 13.1969 12.4533 13.1515 12.3851 13.1515L12.2032 13.1742L11.4076 13.197L10.7257 13.2424L10.0211 13.3106C9.63463 13.3561 9.31639 13.4243 9.06635 13.4924C8.81631 13.5606 8.6572 13.5834 8.56627 13.5834C8.40716 13.5606 8.2935 13.5152 8.22531 13.4015C8.15711 13.2879 8.13438 13.1742 8.13438 13.0378C8.13438 12.9014 8.15711 12.7878 8.22531 12.6741C8.27077 12.5832 8.42989 12.4241 8.70266 12.1513C8.97543 11.8785 9.22547 11.7649 9.47551 11.8104L9.70282 11.8558C9.77101 11.8786 9.88467 11.9013 10.0211 11.9013H10.4075L10.9076 11.8558H11.5895L12.135 11.8104C12.3623 11.8104 12.4987 11.7876 12.4987 11.7649C12.5215 11.7422 12.5215 11.7194 12.5215 11.674V11.6058L12.4987 11.4467V10.6511L12.4533 10.1056C12.4533 10.1056 12.4305 10.0146 12.4533 9.85549C12.4533 9.69638 12.4987 9.58272 12.5669 9.4918C12.6351 9.40088 12.7488 9.33268 12.8852 9.28722C13.0215 9.24176 13.1125 9.21903 13.1579 9.21903C13.658 9.26449 13.9762 9.44634 14.0899 9.71911C14.2263 9.99188 14.2717 10.2419 14.2717 10.4465L14.249 11.4694V11.6512C14.249 11.7422 14.249 11.7876 14.2717 11.7876C14.2717 11.8104 14.3172 11.8104 14.3399 11.7876L14.6809 11.7649L15.2037 11.7876L16.3175 11.8104L17.9769 11.9468C18.2497 11.9695 18.477 12.015 18.6361 12.0604C18.7952 12.1059 18.8634 12.2422 18.8634 12.4923C18.8634 12.6969 18.7725 12.8787 18.5906 13.0378C18.4088 13.1969 17.545 13.2424 15.9766 13.1742L14.9991 13.1515L14.4309 13.1287C14.2945 13.1287 14.2263 13.1515 14.2263 13.197V13.2651C14.2263 13.3561 14.3627 13.5379 14.6354 13.788C14.9082 14.038 15.4992 14.5153 16.4085 15.22C17.3177 15.9247 18.1815 16.4475 18.9771 16.7884C19.7954 17.1294 20.3182 17.3112 20.5455 17.3567C20.7728 17.3794 20.8865 17.4249 20.8865 17.4476C20.8865 17.459 20.8921 17.4704 20.8978 17.4817C20.9035 17.4931 20.9092 17.5045 20.9092 17.5158V17.6295C20.8183 18.0159 20.5228 18.3796 19.9999 18.766C19.4771 19.1297 18.9998 19.3116 18.5452 19.3116C18.2724 19.3116 18.0224 19.2207 17.8178 19.0161C17.5905 18.8342 17.1586 18.3796 16.4994 17.6749C15.8402 16.9703 15.3401 16.4247 14.9764 15.9928C14.7254 15.6749 14.5359 15.4555 14.4081 15.3074C14.3623 15.2544 14.3245 15.2105 14.2945 15.1745C14.2249 15.1049 14.1723 15.0438 14.1316 14.9965C14.1058 14.9666 14.0848 14.9421 14.0672 14.9245L13.908 14.6972L13.8626 14.6745L13.7944 14.7426C13.6807 15.0381 13.4307 15.5837 13.0215 16.4247ZM33.0487 13.0608C32.8895 12.9926 32.7532 12.9472 32.594 12.9472L32.5346 12.9979C32.4056 13.1078 32.3066 13.1921 32.2076 13.3109C32.1621 13.3791 32.094 13.5836 32.0485 13.8791C32.003 14.1974 31.9121 14.4701 31.8212 14.7202L31.6166 15.2203C31.503 15.4476 31.4348 15.5612 31.3893 15.5612C31.3438 15.584 31.2756 15.493 31.1847 15.3339C31.0938 15.1748 31.0029 14.9248 30.8892 14.6065C30.7756 14.2883 30.7301 14.0155 30.7074 13.7882C30.6846 13.5836 30.6846 13.3109 30.6846 12.9926C30.6846 12.8108 30.6846 12.6971 30.7301 12.6517C30.7756 12.6062 30.8438 12.5835 30.9801 12.5835H31.503L32.2758 12.5607C33.5033 12.538 34.1625 12.4926 34.2761 12.3789C34.3898 12.2652 34.458 12.1516 34.458 11.9925C34.458 11.7197 34.2989 11.5606 33.9579 11.5151H33.526L32.7759 11.4924H31.9576C31.7487 11.4924 31.5825 11.5009 31.4537 11.5075C31.3723 11.5117 31.3057 11.5151 31.2529 11.5151C31.1165 11.5379 31.0256 11.5379 31.0029 11.5151C30.8892 11.5151 30.7983 11.4924 30.7528 11.4469C30.7074 11.4015 30.6846 11.3105 30.6846 11.1742C30.7074 11.0605 30.7074 10.8787 30.7074 10.6286C30.7074 10.515 30.713 10.3957 30.7187 10.2764C30.7244 10.1571 30.7301 10.0376 30.7301 9.92396C30.7301 9.67392 30.6846 9.46934 30.5937 9.28749C30.4801 9.10564 30.2755 9.01472 29.9572 9.01472C29.5026 9.01472 29.2299 9.26476 29.1617 9.71938C29.1389 9.8103 29.1389 9.8785 29.1389 9.96942L29.1617 10.1513L29.1844 10.9241L29.2071 11.1969V11.3105C29.2071 11.3787 29.2071 11.4242 29.1844 11.4469C29.1617 11.4697 29.1162 11.4924 29.0025 11.4924H28.6161C28.4115 11.4924 28.1388 11.4924 27.7523 11.5151C27.5866 11.5255 27.4304 11.5311 27.2857 11.5363C27.1129 11.5426 26.9565 11.5482 26.8204 11.5606H26.2294C26.0702 11.5606 25.9566 11.5151 25.8657 11.4242L25.6156 11.2196C25.4792 11.106 25.2974 11.0378 25.1383 11.0378C24.9792 11.0378 24.7973 11.106 24.5927 11.2196C24.3882 11.3333 24.2972 11.4924 24.2745 11.7197C24.2745 11.947 24.2972 12.1516 24.3427 12.3334L24.5245 12.9926C24.57 13.1745 24.6155 13.4018 24.6382 13.6064C24.6663 13.7327 24.677 13.8503 24.6865 13.9539C24.6923 14.0181 24.6977 14.077 24.7064 14.1292C24.7064 14.2428 24.7064 14.4929 24.6609 14.8793C24.6382 15.2657 24.5473 15.6294 24.3882 15.9704C24.229 16.3114 24.0245 16.6523 23.7744 16.9933C23.5244 17.357 23.2289 17.5843 22.8879 17.6979L22.3424 17.8798C22.0923 17.9934 21.9787 18.1071 21.9787 18.2208C21.9787 18.3117 22.0923 18.4935 22.2969 18.7436C22.5015 18.9936 22.797 19.1527 23.1607 19.1527C23.4789 19.1755 23.8653 19.0391 24.3654 18.789C24.8655 18.539 25.2065 18.1526 25.3883 17.6297C25.5929 17.1069 25.7066 16.5841 25.7747 16.0613C25.8429 15.5385 25.8884 15.2203 25.9111 15.1066C25.9339 14.993 25.9793 14.9248 26.0248 14.8566C26.0702 14.8111 26.2748 14.7657 26.5931 14.7202L27.0477 14.6747C27.4796 14.652 27.7523 14.6747 27.8887 14.7884C28.0024 14.902 28.0706 15.0839 28.0933 15.3794C28.0933 15.8567 27.9796 16.2886 27.7751 16.6523C27.5705 17.016 27.2295 17.1979 26.7522 17.1751C26.5476 17.1751 26.4112 17.1524 26.2748 17.1069L26.0702 17.0387C25.9793 17.0387 25.9339 17.0842 25.9339 17.1297C25.9111 17.1751 25.9339 17.2206 25.9793 17.2661L26.1839 17.6752C26.4112 18.0162 26.7976 18.1753 27.3659 18.1526C28.0024 18.1526 28.4797 17.9253 28.7752 17.4706C29.0707 17.016 29.2299 16.6523 29.298 16.3568C29.3435 16.0613 29.389 15.6522 29.389 15.1293V14.5383C29.389 14.3565 29.3662 14.1974 29.298 14.061C29.2299 13.9246 29.0935 13.7655 28.9116 13.6064C28.707 13.4245 28.5252 13.3791 28.3206 13.4473L28.0251 13.5609C27.7523 13.6518 27.3886 13.6973 26.9113 13.72H26.2294C26.093 13.72 26.0021 13.6973 25.9566 13.6518C25.9111 13.6064 25.8884 13.4245 25.8884 13.1518C25.8678 13.0692 25.8846 12.9867 25.9049 12.8872L25.9111 12.8562C25.9339 12.7426 26.1384 12.6744 26.5249 12.6289C26.9113 12.6062 27.7523 12.5835 29.0707 12.5607C29.2526 12.5607 29.3435 12.5835 29.3662 12.6744C29.389 12.7426 29.4117 12.9017 29.4344 13.1518C29.4497 13.3193 29.4853 13.5174 29.5277 13.753C29.5485 13.869 29.571 13.9942 29.5935 14.1292C29.6283 14.2855 29.6564 14.4219 29.6804 14.5384C29.7192 14.7268 29.7473 14.8632 29.7754 14.9475C29.792 14.9974 29.8117 15.0655 29.8366 15.1519C29.8799 15.3017 29.939 15.5064 30.0254 15.7658L30.061 15.8667C30.1781 16.1997 30.2609 16.4352 30.3437 16.5387L30.3635 16.5845L30.385 16.6337C30.4296 16.7355 30.4573 16.7987 30.4573 16.8342C30.4573 16.8796 30.3891 16.9478 30.2755 17.0615L29.8663 17.4024C29.5708 17.6979 29.389 17.8343 29.3208 17.8798C29.3015 17.8894 29.2211 17.9235 29.0829 17.9821L29.0818 17.9826C28.8937 18.0623 28.5992 18.1872 28.207 18.3571C27.9569 18.4481 27.8433 18.539 27.8433 18.6072C27.8433 18.6754 27.866 18.7436 27.9115 18.8118C27.9342 18.88 28.0251 18.9481 28.116 18.9936C28.2297 19.0618 28.3661 19.0845 28.5252 19.0618C29.2753 19.0618 29.9118 18.8572 30.3891 18.4935C30.8665 18.1298 31.1393 17.9253 31.162 17.9253C31.2074 17.9253 31.3438 18.0616 31.5484 18.2889C31.753 18.5163 32.1394 18.8345 32.6622 19.2436C33.185 19.6528 33.6397 19.8574 34.0034 19.8574C34.2307 19.8574 34.5489 19.7892 34.9353 19.6528C35.3218 19.4937 35.6627 19.3118 35.9582 19.0618C36.2537 18.8118 36.4356 18.5845 36.5265 18.3571C36.6174 18.1526 36.6629 17.9707 36.6856 17.8571C36.6943 17.8136 36.703 17.7769 36.7104 17.7455C36.7224 17.6946 36.7311 17.6578 36.7311 17.6297C36.7311 17.5388 36.6401 17.4934 36.4356 17.5388C36.231 17.5843 35.9809 17.607 35.6627 17.5843C34.3443 17.5388 33.3669 17.3115 32.7304 16.9024C32.5258 16.766 32.4349 16.6751 32.4349 16.6069C32.4349 16.5451 32.4722 16.4833 32.5299 16.3878L32.5486 16.3568C32.6168 16.2432 32.7304 16.0386 32.8895 15.6976C33.0487 15.3567 33.1623 14.9475 33.2305 14.4701C33.276 14.2656 33.276 13.9928 33.276 13.6746C33.2532 13.3336 33.185 13.1518 33.0487 13.0608ZM32.0014 10.3872C31.9736 10.4201 31.9441 10.4549 31.9121 10.4922C31.753 10.6286 31.6848 10.7195 31.6848 10.765C31.7075 10.8332 31.753 10.9014 31.8212 10.9468C31.9121 10.9923 32.0485 10.9923 32.2531 10.9241L32.7759 10.7877C33.3214 10.6286 33.6624 10.4468 33.7988 10.2422C33.8442 10.1513 33.867 10.0149 33.867 9.8103C33.867 9.60572 33.776 9.44661 33.5715 9.35568C33.3669 9.26476 33.2305 9.2193 33.1168 9.2193C33.0032 9.24203 32.8895 9.28749 32.7986 9.37841L32.4576 9.85576C32.4437 9.89758 32.4041 9.93939 32.3546 9.99168C32.3234 10.0247 32.2882 10.0618 32.2531 10.1058C32.1661 10.1928 32.0924 10.2798 32.0014 10.3872Z" fill="white"></path></svg>