<svg xmlns="http://www.w3.org/2000/svg" width="141" height="41" viewBox="0 0 141 41" fill="none"><path fill-rule="evenodd" clip-rule="evenodd" d="M55.6057 40.2523V3.3124C63.2739 1.98958 80.5459 0.943099 88.2892 7.33969C97.9682 15.3354 94.9523 34.9039 82.2573 38.6213C72.1013 41.5951 60.2579 40.9477 55.6057 40.2523ZM67.0369 33.8226V9.37365C72.1104 8.36835 82.2573 9.14012 82.2573 21.2039C82.2573 33.2676 72.3039 34.4083 67.0369 33.8226Z" fill="#051B52"></path><path d="M96.5988 2.76198V40.5986H108.074V25.712H122.573V18.5014H108.074V10.0502H123.813V2.76198H96.5988Z" fill="#051B52"></path><path d="M118.239 33.0983L117.885 40.2187C118.489 40.4398 120.255 40.882 122.484 40.882L122.576 40.882C125.467 40.8825 134.49 40.884 137.639 37.1057C139.895 34.3984 140.705 32.3464 140.705 19.4767V2.5381H129.383V22.4841C129.383 29.0295 129.207 31.3292 127.614 32.5233C126.022 33.7174 121.865 33.8501 118.239 33.0983Z" fill="#051B52"></path><path d="M10.2192 25.8349L0.705078 40.3307H52.5391L42.7342 25.3919C41.6689 33.1734 34.748 39.1272 26.443 39.1272C18.2965 39.1272 11.4816 33.3983 10.2192 25.8349Z" fill="#051B52"></path><path d="M21.8646 8.09177C23.3194 7.68569 24.856 7.46826 26.443 7.46826C28.1924 7.46826 29.8804 7.73243 31.4651 8.22221L26.6221 0.843262L21.8646 8.09177Z" fill="#051B52"></path><path d="M41.4941 26.3521C41.7097 25.3666 41.823 24.3449 41.823 23.2977C41.823 21.7358 41.5708 20.2305 41.1034 18.8173C40.9216 19.4187 40.5176 19.9576 39.9286 20.4244C40.7315 22.6286 41.039 24.93 40.7033 27.087C41.0062 26.857 41.271 26.6118 41.4941 26.3521Z" fill="#051B52"></path><path d="M41.2774 27.213C41.0627 27.4561 40.8172 27.6875 40.5427 27.9064C40.1896 29.3928 39.5117 30.7925 38.4552 32.0219C39.1914 30.8252 39.6887 29.5788 39.977 28.3131C38.6413 29.1818 36.7946 29.8154 34.6168 30.1627C33.7519 33.8272 32.0293 36.7482 29.741 37.7347C29.7324 37.7365 29.7235 37.7385 29.7146 37.7404C29.7059 37.7424 29.697 37.7443 29.6882 37.7462C35.2984 36.5879 39.7722 32.49 41.2774 27.213Z" fill="#051B52"></path><path d="M29.6763 37.7487C31.5813 36.5521 33.0037 33.7473 33.7363 30.2852C31.6342 30.537 29.2657 30.536 26.7758 30.2411C26.1919 33.0408 25.5395 35.7035 24.8772 38.0007C25.3913 38.0506 25.913 38.0762 26.4408 38.0762C27.5507 38.0762 28.6331 37.9632 29.6763 37.7487Z" fill="#051B52"></path><path d="M23.9812 37.8882C24.3343 36.0354 24.7896 33.904 25.2813 31.6045L25.295 31.5355L25.306 31.4835L25.3142 31.4496L25.347 31.3016L25.608 30.0823L25.3644 30.0441C22.827 29.6368 20.4759 28.9715 18.434 28.133C18.006 30.6859 17.9093 33.2396 18.1028 35.7187C18.0896 35.7105 18.0767 35.7023 18.0637 35.6941C18.0534 35.6876 18.043 35.681 18.0325 35.6744C17.4577 33.673 17.2095 30.8965 17.6256 27.7846C15.6101 26.8738 13.946 25.7913 12.7617 24.6291C12.3968 26.3877 12.3083 28.0169 12.3931 29.3269L12.3657 29.2682C12.1632 27.4588 12.1951 25.7977 12.415 24.276C11.8156 23.6256 11.3685 22.9539 11.0957 22.2764C11.1158 21.994 11.1431 21.7139 11.1796 21.4362C11.4488 22.1104 11.9187 22.782 12.5592 23.4334C13.0737 20.8263 14.1576 18.6529 15.57 16.8639C14.9094 16.0345 14.5883 15.1791 14.685 14.3454C13.102 16.0487 12.0464 18.0467 11.4762 20.0301C11.6596 19.2312 11.8886 18.4912 12.1568 17.8058C12.7955 16.2735 13.6942 14.8669 14.799 13.6381C14.8437 13.592 14.8894 13.5464 14.935 13.5013L15.7771 12.7432C16.6265 12.0507 17.5435 11.501 18.4896 11.0682L18.6675 10.9886C19.5023 10.621 20.3582 10.3425 21.2094 10.1354C21.5707 9.45805 22.567 8.96582 23.9429 8.71321C24.5934 8.61116 25.2597 8.54815 25.9357 8.52711C17.6741 8.7832 11.0586 15.2982 11.0586 23.2977C11.0586 30.6553 16.655 36.7571 23.9812 37.8882Z" fill="#051B52"></path><path d="M26.1402 8.52205C26.6806 8.5186 27.2483 8.54278 27.8342 8.59608L27.8069 8.57677C27.3568 8.53872 26.9012 8.51929 26.4408 8.51929C26.3404 8.51929 26.2402 8.52021 26.1402 8.52205Z" fill="#051B52"></path><path d="M27.8168 8.57761C27.8293 8.57881 27.842 8.58019 27.8546 8.58156C27.8691 8.58315 27.8837 8.58474 27.898 8.58605C27.902 8.58896 27.9057 8.59187 27.9094 8.5948C27.9125 8.59726 27.9157 8.59974 27.919 8.60224C28.1489 8.62425 28.3816 8.65083 28.617 8.68207C28.7867 8.70466 28.9573 8.72963 29.1297 8.757C28.7219 8.69234 28.3214 8.64432 27.9291 8.61011C28.3113 8.9161 28.6088 9.35233 28.8168 9.65843L28.9108 9.80042C29.0267 9.71158 29.1434 9.61566 29.2648 9.51542L29.2867 9.49706L29.4454 9.36624C29.5631 9.2701 29.6863 9.17145 29.8186 9.0728C29.8863 9.02284 29.9557 8.97288 30.0278 8.92325C29.3091 8.75831 28.5708 8.64183 27.8168 8.57761Z" fill="#051B52"></path><path d="M30.0901 8.93766C30.0021 8.9971 29.9186 9.05719 29.8378 9.11716C29.7091 9.21296 29.5896 9.30876 29.4755 9.4024L29.3177 9.53241L29.1398 9.6785L29.013 9.78035C29.0896 9.76301 29.1836 9.74568 29.2922 9.72891C29.439 9.70622 29.6115 9.68443 29.8022 9.66482L30.1051 9.63665L30.3423 9.61863L30.5759 9.60415C31.1104 9.57427 31.6933 9.56549 32.2132 9.59512C31.5286 9.32865 30.8195 9.10817 30.0901 8.93766Z" fill="#051B52"></path><path d="M32.3546 9.65092C32.3048 9.64731 32.2533 9.64404 32.2017 9.64121C32.0895 9.63482 31.9736 9.63026 31.8559 9.62741C31.6479 9.62228 31.4335 9.62228 31.22 9.62638C31.0038 9.6306 30.7875 9.63904 30.5786 9.65079C29.96 9.68535 29.4053 9.74819 29.0869 9.8124C30.1699 9.85733 31.9107 10.2844 33.5739 10.8632C33.8741 10.9677 34.1715 11.0771 34.4626 11.1901L34.6569 11.2665L34.8659 11.3513L35.1834 11.4842L35.2007 11.4915C34.9491 11.1277 34.5434 10.7687 34.0166 10.4329C33.4817 10.1416 32.9269 9.88012 32.3546 9.65092Z" fill="#051B52"></path><path d="M35.6662 11.4711C35.7831 11.5939 35.8837 11.7177 35.9698 11.8421L36.041 11.8771C36.1965 11.9534 36.3458 12.03 36.4879 12.1069C36.2218 11.8862 35.9478 11.6741 35.6662 11.4711Z" fill="#051B52"></path><path d="M36.5657 12.1718C36.5756 12.1804 36.5854 12.1889 36.5953 12.1975C36.619 12.2179 36.6427 12.2384 36.6669 12.2589C36.4671 12.1456 36.2509 12.0319 36.0209 11.9191C36.2335 12.2537 36.3302 12.592 36.291 12.9205L36.2846 12.9694C36.2299 13.3077 36.0346 13.6129 35.7217 13.8737C37.3932 15.539 38.7435 17.549 39.6358 19.678C40.258 19.1865 40.6485 18.6079 40.7534 17.9549C40.757 17.9347 40.7597 17.9145 40.7624 17.8943C39.8542 15.6742 38.4029 13.7164 36.5657 12.1718Z" fill="#051B52"></path><path d="M17.7843 26.7607C15.7908 25.9015 14.1348 24.8902 12.9487 23.8116C13.4852 21.6821 14.4341 19.4114 15.9669 17.3167C16.8993 18.292 18.2953 19.2162 20.0197 20.0051C18.8783 22.2977 18.1685 24.596 17.7843 26.7607Z" fill="#051B52"></path><path d="M25.5386 28.9528C23.0113 28.5469 20.6647 27.9048 18.6246 27.1057C19.0863 24.8313 19.8162 22.5655 20.8445 20.362C22.6455 21.0978 24.7485 21.689 27.0258 22.0546L27.2357 22.0875C26.7922 24.4422 26.3096 26.7752 25.8379 28.9996L25.5386 28.9528Z" fill="#051B52"></path><path d="M26.9966 29.1574C27.4519 26.8748 27.8588 24.522 28.1845 22.2187C30.3396 22.483 32.3842 22.5045 34.1871 22.316C34.3951 24.6992 34.2938 27.0873 33.9298 29.2659C31.8404 29.4797 29.481 29.4557 26.9966 29.1574Z" fill="#051B52"></path><path d="M40.1376 27.4723C38.8274 28.2746 36.9981 28.8514 34.8285 29.1568C35.2363 26.9724 35.3512 24.5764 35.1159 22.1971C36.8977 21.9255 38.394 21.4333 39.4579 20.7576C40.2051 22.9239 40.4879 25.218 40.1376 27.4723Z" fill="#051B52"></path><path d="M34.5201 11.2632C34.7691 11.3608 35.0128 11.4611 35.2482 11.5631C35.4452 11.8744 35.531 12.1903 35.4817 12.4951C35.4598 12.6318 35.4115 12.7615 35.3394 12.8841C35.2664 13.0091 35.1679 13.1267 35.0474 13.2368C33.2783 11.6517 31.2018 10.4476 28.9564 9.85596C30.0248 9.87079 31.8313 10.306 33.5584 10.9074C33.8841 11.0207 34.2062 11.1399 34.5201 11.2632Z" fill="#051B52"></path><path d="M28.9309 9.85573L28.9564 9.85596C31.0211 10.5634 33.011 11.8338 34.7308 13.4758C34.24 13.7863 33.5356 14.0165 32.6871 14.1474C31.7328 12.4741 30.4919 11 28.9309 9.85573Z" fill="#051B52"></path><path d="M28.9309 9.85573C30.2264 11.0725 31.2647 12.5649 32.0694 14.2231C31.1452 14.3088 30.0877 14.2913 28.9683 14.1549C29.034 12.5804 29.0267 11.128 28.9309 9.85573Z" fill="#051B52"></path><path d="M28.8998 9.85562L28.9309 9.85573C28.8414 11.2228 28.7 12.6429 28.5185 14.0941L28.3095 14.0618C27.2557 13.8925 26.2731 13.6375 25.4118 13.3255C26.4519 12.1208 27.6125 10.9603 28.8998 9.85562Z" fill="#051B52"></path><path d="M28.8889 9.85072L28.8998 9.85562C27.4227 10.8988 26.118 12.0063 24.9702 13.1564C23.9894 12.7591 23.1947 12.2888 22.671 11.7926C24.4465 10.9348 26.5058 10.2635 28.8889 9.85072Z" fill="#051B52"></path><path d="M28.8889 9.85072C27.0614 10.0098 24.7741 10.5617 22.4858 11.5987C22.3207 11.4161 22.1929 11.2317 22.1063 11.0473C21.9931 10.8061 21.9512 10.5651 21.9895 10.3286C21.9977 10.2744 22.0114 10.2215 22.0278 10.1695C24.0131 9.70439 26.2859 9.55773 28.8588 9.83771L28.8889 9.85072Z" fill="#051B52"></path><path d="M33.0621 14.8427C34.0137 14.7026 34.8075 14.4558 35.3713 14.1177C36.9789 15.8073 38.3074 17.8271 39.1759 19.9999C38.1668 20.6281 36.7308 21.0822 35.0137 21.3283C34.7062 19.059 34.0721 16.8304 33.0621 14.8427Z" fill="#051B52"></path><path d="M31.7912 14.9611C31.9955 14.9519 32.1953 14.9387 32.3906 14.9214C33.2701 16.9425 33.8248 19.1758 34.0958 21.4373C32.3605 21.6032 30.3897 21.5724 28.3086 21.3154C28.6097 19.0547 28.8287 16.8575 28.9363 14.8393C29.9463 14.9627 30.9116 15.0003 31.7912 14.9611Z" fill="#051B52"></path><path d="M28.201 14.7352L28.4318 14.7709C28.1535 16.8755 27.7968 19.0372 27.4026 21.1901L27.17 21.1537C24.9857 20.803 22.9666 20.2467 21.234 19.5597C22.2176 17.6063 23.4411 15.7077 24.9264 13.902C25.8999 14.2551 27.0094 14.5439 28.201 14.7352Z" fill="#051B52"></path><path d="M21.8718 12.2015C22.4612 12.7508 23.3444 13.2713 24.431 13.712C22.7586 15.4832 21.4439 17.345 20.4266 19.2212C18.7341 18.4699 17.3683 17.5919 16.4641 16.6694C17.8263 14.9798 19.5972 13.4317 21.8718 12.2015Z" fill="#051B52"></path><path d="M21.0771 10.5277C21.0005 11.0077 21.2149 11.5091 21.6629 11.9932C19.6593 13.0072 17.6958 14.4038 16.0846 16.2456C15.4432 15.4575 15.1448 14.6469 15.2707 13.8631C15.278 13.8176 15.2853 13.7739 15.2954 13.7291C16.8072 12.2949 18.7332 11.1194 21.1017 10.4211L21.1003 10.4267C21.0917 10.4602 21.0832 10.4932 21.0771 10.5277Z" fill="#051B52"></path><path d="M28.8469 9.83247C27.2858 9.58909 24.7804 9.44277 22.1318 9.93739C22.515 9.28185 23.5788 8.82965 25.0204 8.64353C25.5496 8.71994 26.1892 8.88827 26.8123 9.0842C27.1636 9.1946 27.5094 9.31355 27.826 9.42954C27.9619 9.47938 28.0924 9.52853 28.2155 9.5762L28.492 9.68512C28.6225 9.73781 28.742 9.78742 28.8469 9.83247Z" fill="#051B52"></path><path d="M26.8269 9.03961C26.2649 8.86295 25.6874 8.70808 25.1883 8.62277C25.983 8.53336 26.8844 8.52423 27.8442 8.60327C28.0294 8.74172 28.1946 8.91302 28.3405 9.08842C28.5139 9.29679 28.6599 9.51097 28.7767 9.68284L28.8442 9.78046C28.3716 9.57746 27.6134 9.2871 26.8269 9.03961Z" fill="#051B52"></path></svg>