<svg xmlns="http://www.w3.org/2000/svg" width="140" height="41" viewBox="0 0 140 41" fill="none"><path fill-rule="evenodd" clip-rule="evenodd" d="M54.9004 40.2523V3.31241C62.5685 1.98959 79.8406 0.94311 87.5838 7.3397C97.2629 15.3354 94.2469 34.9039 81.552 38.6213C71.396 41.5951 59.5526 40.9477 54.9004 40.2523ZM66.3316 33.8226V9.37366C71.405 8.36836 81.552 9.14013 81.552 21.2039C81.552 33.2676 71.5986 34.4083 66.3316 33.8226Z" fill="#27476B"></path><path d="M95.8935 2.76199V40.5986H107.369V25.712H121.868V18.5014H107.369V10.0502H123.108V2.76199H95.8935Z" fill="#27476B"></path><path d="M117.533 33.0983L117.179 40.2187C117.784 40.4398 119.55 40.882 121.779 40.882L121.871 40.8821C124.762 40.8825 133.785 40.884 136.933 37.1058C139.19 34.3985 140 32.3464 140 19.4767V2.53811H128.678V22.4841C128.678 29.0295 128.501 31.3293 126.909 32.5234C125.317 33.7175 121.16 33.8501 117.533 33.0983Z" fill="#27476B"></path><path d="M51.834 40.3307H0L25.917 0.843262L51.834 40.3307Z" fill="#27476B"></path><path d="M41.118 23.2977C41.118 31.4596 34.2311 38.0762 25.7357 38.0762C17.2404 38.0762 10.3535 31.4596 10.3535 23.2977C10.3535 15.1358 17.2404 8.51929 25.7357 8.51929C34.2311 8.51929 41.118 15.1358 41.118 23.2977Z" fill="url(#paint0_radial)"></path><path fill-rule="evenodd" clip-rule="evenodd" d="M42.1712 23.2978C42.1712 32.0794 34.7737 39.1272 25.738 39.1272C16.7022 39.1272 9.30469 32.0794 9.30469 23.2978C9.30469 14.5161 16.7022 7.46826 25.738 7.46826C34.7737 7.46826 42.1712 14.5161 42.1712 23.2978ZM25.738 38.0762C34.2333 38.0762 41.1202 31.4597 41.1202 23.2978C41.1202 15.1358 34.2333 8.51932 25.738 8.51932C17.2426 8.51932 10.3557 15.1358 10.3557 23.2978C10.3557 31.4597 17.2426 38.0762 25.738 38.0762Z" fill="white"></path><path fill-rule="evenodd" clip-rule="evenodd" d="M28.1117 9.65843L28.2057 9.80042C28.3216 9.71158 28.4384 9.61566 28.5597 9.51542L28.5816 9.49706L28.7404 9.36624C28.8581 9.2701 28.9812 9.17145 29.1135 9.0728C29.1819 9.02228 29.2522 8.97175 29.3252 8.92157C29.3462 8.92636 29.3681 8.93013 29.3891 8.93492C29.2996 8.99525 29.2148 9.05626 29.1327 9.11716C29.004 9.21296 28.8845 9.30876 28.7705 9.4024L28.6126 9.53241L28.4347 9.6785L28.3079 9.78035C28.3845 9.76301 28.4785 9.74568 28.5871 9.72891C28.734 9.70622 28.9064 9.68444 29.0971 9.66482L29.4 9.63665L29.6372 9.61863L29.8708 9.60415C30.4054 9.57427 30.9885 9.56548 31.5085 9.59514C31.556 9.61361 31.6034 9.6322 31.6508 9.65102C31.6007 9.64737 31.5487 9.64406 31.4966 9.64121C31.3844 9.63482 31.2686 9.63026 31.1509 9.62741C30.9428 9.62228 30.7284 9.62228 30.5149 9.62638C30.2987 9.6306 30.0825 9.63904 29.8735 9.65079C29.2549 9.68535 28.7002 9.74819 28.3818 9.8124C29.4648 9.85733 31.2056 10.2844 32.8689 10.8632C33.169 10.9677 33.4665 11.0771 33.7575 11.1901L33.9519 11.2665L34.1608 11.3513L34.4783 11.4842L34.4956 11.4915C34.2438 11.1275 33.8378 10.7682 33.3105 10.4322C33.8834 10.7442 34.4354 11.0914 34.9591 11.4689C35.0768 11.5924 35.1781 11.717 35.2648 11.8421L35.3359 11.8771C35.4929 11.9541 35.6434 12.0314 35.7866 12.109C35.8459 12.1585 35.9025 12.2085 35.9618 12.2589C35.762 12.1456 35.5458 12.0319 35.3159 11.9191C35.5284 12.2537 35.6252 12.592 35.5859 12.9205L35.5795 12.9694C35.5248 13.3077 35.3295 13.6129 35.0166 13.8737C36.6881 15.539 38.0384 17.549 38.9307 19.678C39.5529 19.1865 39.9434 18.6079 40.0484 17.9549C40.052 17.9343 40.0547 17.9136 40.0575 17.893C40.1816 18.1959 40.2956 18.5037 40.3987 18.816C40.2171 19.4179 39.813 19.9572 39.2236 20.4244C40.0265 22.6286 40.3339 24.93 39.9982 27.087C40.302 26.8563 40.5675 26.6103 40.791 26.3498C40.7272 26.6405 40.656 26.926 40.5748 27.2102C40.3595 27.4543 40.1131 27.6867 39.8376 27.9064C39.4845 29.3928 38.8066 30.7925 37.7501 32.0219C38.4864 30.8252 38.9836 29.5788 39.2719 28.3131C37.9362 29.1818 36.0896 29.8154 33.9117 30.1627C33.0468 33.8272 31.3242 36.7482 29.036 37.7347C29.015 37.7391 28.9931 37.7443 28.9712 37.7487C30.8762 36.5521 32.2986 33.7474 33.0313 30.2852C30.9291 30.537 28.5606 30.536 26.0707 30.2411C25.4868 33.0408 24.8345 35.7035 24.1721 38.0007C23.871 37.9715 23.5717 37.9339 23.2761 37.8883C23.6292 36.0355 24.0845 33.9041 24.5763 31.6045L24.59 31.5355L24.6009 31.4835L24.6091 31.4496L24.642 31.3016L24.9029 30.0823L24.6593 30.0441C22.122 29.6368 19.7708 28.9715 17.7289 28.133C17.301 30.6859 17.2043 33.2396 17.3977 35.7187C17.374 35.704 17.3512 35.6892 17.3274 35.6744C16.7526 33.673 16.5045 30.8965 16.9205 27.7846C14.9051 26.8738 13.2409 25.7913 12.0566 24.6291C11.6917 26.3877 11.6032 28.0169 11.688 29.3269C11.6789 29.3074 11.6698 29.2878 11.6607 29.2682C11.4581 27.4588 11.49 25.7977 11.7099 24.276C11.1105 23.6256 10.6634 22.9539 10.3906 22.2764C10.4107 21.994 10.4381 21.7139 10.4746 21.4362C10.7437 22.1104 11.2136 22.782 11.8541 23.4334C12.3687 20.8263 13.4526 18.6529 14.8649 16.8639C14.2044 16.0345 13.8832 15.1791 13.9799 14.3454C12.3969 16.0487 11.3413 18.0467 10.7711 20.0301C10.9545 19.2312 11.1835 18.4912 11.4517 17.8058C12.0904 16.2735 12.9891 14.8669 14.094 13.6381C14.1387 13.592 14.1843 13.5464 14.2299 13.5013L15.072 12.7432C15.9215 12.0507 16.8384 11.501 17.7845 11.0682L17.9624 10.9886C18.7973 10.621 19.6531 10.3425 20.5043 10.1354C20.8656 9.45805 21.8619 8.96582 23.2378 8.71321C23.9531 8.60099 24.6876 8.53598 25.433 8.52207C25.974 8.51853 26.5424 8.54271 27.1291 8.59608L27.1017 8.57669C27.1318 8.57932 27.1629 8.58331 27.193 8.58605C27.2003 8.59141 27.2066 8.59677 27.2139 8.60224C27.4439 8.62425 27.6765 8.65083 27.9119 8.68207C28.0816 8.70466 28.2522 8.72963 28.4247 8.757C28.0168 8.69234 27.6163 8.64432 27.224 8.61011C27.6063 8.9161 27.9037 9.35233 28.1117 9.65843ZM12.2437 23.8116C13.4298 24.8902 15.0857 25.9015 17.0793 26.7607C17.4634 24.596 18.1732 22.2977 19.3146 20.0051C17.5902 19.2162 16.1943 18.292 15.2618 17.3167C13.729 19.4114 12.7801 21.6821 12.2437 23.8116ZM17.9196 27.1057C19.9596 27.9048 22.3063 28.5469 24.8336 28.9528L25.1328 28.9996C25.6045 26.7752 26.0872 24.4423 26.5306 22.0875L26.3207 22.0546C24.0434 21.689 21.9404 21.0978 20.1394 20.362C19.1111 22.5655 18.3812 24.8313 17.9196 27.1057ZM27.4794 22.2187C27.1537 24.522 26.7468 26.8748 26.2915 29.1574C28.7759 29.4557 31.1353 29.4797 33.2247 29.2659C33.5887 27.0873 33.69 24.6992 33.482 22.316C31.6791 22.5045 29.6345 22.483 27.4794 22.2187ZM34.1234 29.1568C36.293 28.8514 38.1223 28.2746 39.4325 27.4723C39.7829 25.218 39.5 22.9239 38.7528 20.7576C37.6889 21.4333 36.1926 21.9255 34.4108 22.1971C34.6462 24.5764 34.5312 26.9724 34.1234 29.1568ZM34.5431 11.5631C34.3077 11.4611 34.0641 11.3608 33.815 11.2632C33.5011 11.1399 33.1791 11.0207 32.8533 10.9074C31.1262 10.306 29.3197 9.87079 28.2513 9.85596L28.2258 9.85573L28.1948 9.85562L28.1838 9.85072L28.1537 9.83771C25.5808 9.55773 23.3081 9.70439 21.3227 10.1695C21.3063 10.2215 21.2926 10.2744 21.2844 10.3286C21.2461 10.5651 21.2881 10.8061 21.4012 11.0473C21.4879 11.2317 21.6156 11.4161 21.7807 11.5987C24.069 10.5617 26.3563 10.0098 28.1838 9.85072C25.8007 10.2635 23.7414 10.9348 21.966 11.7926C22.4897 12.2888 23.2843 12.7591 24.2651 13.1564C25.4129 12.0063 26.7176 10.8988 28.1948 9.85562C26.9074 10.9603 25.7468 12.1208 24.7067 13.3255C25.568 13.6375 26.5506 13.8925 27.6044 14.0618L27.8134 14.0941C27.9949 12.6429 28.1364 11.2228 28.2258 9.85573C28.3216 11.128 28.3289 12.5804 28.2632 14.1549C29.3827 14.2913 30.4401 14.3088 31.3644 14.2231C30.5596 12.5649 29.5213 11.0725 28.2258 9.85573C29.7868 11 31.0277 12.4741 31.982 14.1474C32.8305 14.0165 33.5349 13.7863 34.0258 13.4758C32.3059 11.8338 30.316 10.5634 28.2513 9.85596C30.4967 10.4476 32.5732 11.6517 34.3424 13.2368C34.4628 13.1267 34.5613 13.0091 34.6343 12.8841C34.7064 12.7615 34.7547 12.6318 34.7766 12.4951C34.8259 12.1903 34.7401 11.8744 34.5431 11.5631ZM34.6662 14.1177C34.1024 14.4558 33.3086 14.7026 32.357 14.8427C33.367 16.8304 34.0011 19.059 34.3086 21.3283C36.0257 21.0822 37.4618 20.6281 38.4709 19.9999C37.6023 17.8271 36.2739 15.8073 34.6662 14.1177ZM31.6855 14.9214C31.4903 14.9387 31.2904 14.9519 31.0861 14.9611C30.2065 15.0003 29.2412 14.9627 28.2312 14.8393C28.1236 16.8575 27.9046 19.0547 27.6035 21.3154C29.6847 21.5724 31.6554 21.6032 33.3907 21.4373C33.1198 19.1758 32.565 16.9425 31.6855 14.9214ZM27.7267 14.7709L27.4959 14.7352C26.3043 14.5439 25.1949 14.2551 24.2213 13.902C22.736 15.7077 21.5125 17.6063 20.529 19.5597C22.2616 20.2467 24.2807 20.803 26.4649 21.1537L26.6975 21.1901C27.0917 19.0372 27.4484 16.8755 27.7267 14.7709ZM23.7259 13.712C22.6393 13.2713 21.7561 12.7508 21.1667 12.2015C18.8922 13.4317 17.1212 14.9798 15.7591 16.6694C16.6632 17.5919 18.029 18.4699 19.7215 19.2212C20.7388 17.345 22.0535 15.4832 23.7259 13.712ZM20.9578 11.9932C20.5098 11.5091 20.2954 11.0077 20.372 10.5277C20.3784 10.4913 20.3875 10.4565 20.3967 10.4211C18.0281 11.1194 16.1021 12.2949 14.5903 13.7291C14.5803 13.7739 14.573 13.8176 14.5657 13.8631C14.4398 14.6469 14.7381 15.4575 15.3795 16.2456C16.9908 14.4038 18.9542 13.0072 20.9578 11.9932ZM21.4267 9.93739C24.0754 9.44277 26.5808 9.58909 28.1418 9.83247C28.0369 9.78742 27.9174 9.73781 27.7869 9.68512L27.5105 9.5762C27.3873 9.52853 27.2568 9.47938 27.1209 9.42954C26.8043 9.31355 26.4585 9.1946 26.1072 9.0842C25.4841 8.88827 24.8445 8.71994 24.3153 8.64353C22.8738 8.82965 21.8099 9.28185 21.4267 9.93739ZM24.4832 8.62277C24.9823 8.70808 25.5598 8.86295 26.1218 9.03961C26.9083 9.28709 27.6665 9.57746 28.1391 9.78046L28.0716 9.68284C27.9548 9.51097 27.8088 9.29679 27.6355 9.08842C27.4895 8.91302 27.3243 8.74172 27.1391 8.60327C26.1793 8.52423 25.2779 8.53336 24.4832 8.62277Z" fill="#5D84B1"></path><defs><radialGradient id="paint0_radial" cx="0" cy="0" r="1" gradientUnits="userSpaceOnUse" gradientTransform="translate(23.6415 21.1272) rotate(82.9563) scale(17.0778 17.7756)"><stop stop-color="#EAEDF7"></stop><stop offset="0.551784" stop-color="#769DD2"></stop><stop offset="1" stop-color="#547CA7"></stop></radialGradient></defs></svg>