<svg xmlns="http://www.w3.org/2000/svg" width="141" height="53" viewBox="0 0 141 53" fill="none"><path d="M17.8595 0.102173L6.48349 16.1846L0.462891 41.8629L17.8574 52.125L35.3536 41.8683L29.4434 16.1974L17.8595 0.102173ZM28.9689 16.2756L25.9752 25.6841L18.078 12.0384V1.13685L28.9689 16.2756ZM17.8606 12.515L25.8006 26.2368L20.9625 41.4462H14.8155L10.0256 26.1297L17.8606 12.515ZM17.6464 1.14649V12.0223L9.85421 25.5631L6.9462 16.2756L17.6464 1.14649ZM6.67843 17.05L9.53288 26.1147L1.28549 40.4266L6.67843 17.05ZM9.77495 26.7552L14.3656 41.4377H1.25335L9.77495 26.7552ZM1.44615 41.8672H14.5017L17.5007 51.4331L1.44615 41.8672ZM15.0608 41.8672H20.8104L17.8606 51.1932L15.0608 41.8672ZM18.2312 51.4342L21.2742 41.8693L34.4218 41.8758L18.2312 51.4342ZM21.4113 41.4398L26.0876 26.7423L28.4269 30.7718L34.6028 41.4462L21.4113 41.4398ZM28.79 30.5436L26.2987 26.2368L29.1906 17.0479L34.6146 40.5797L28.79 30.5436Z" fill="#051B52"></path><path d="M61.6932 17.78V16.2805H49.7227V35.7154H61.6932V34.2159H51.2222V26.7526H60.4432V25.253H51.2222V17.78H61.6932Z" fill="#051B52"></path><path d="M98.0993 26.0057C98.0993 22.831 97.6377 20.1758 95.2598 18.0357C92.3368 15.4051 86.0592 15.343 83.0676 18.0357C80.662 20.2015 80.226 22.9745 80.225 26.055C80.21 29.1697 80.678 31.8849 83.0676 34.0357C86.0774 36.7445 92.339 36.6652 95.2598 34.0357C97.6773 31.8603 98.0993 29.1151 98.0993 26.0025V26.0057ZM96.5998 26.2735C96.5998 31.479 94.3633 34.5412 89.1171 34.5209C88.6973 34.5327 85.8696 34.5423 84.0702 32.9228C82.0244 31.0816 81.7234 28.7295 81.7245 26.0678C81.7245 23.434 82.0276 20.992 84.0702 19.1529C85.4026 17.9533 87.3991 17.5463 89.2114 17.558C89.6313 17.5463 92.4579 17.5355 94.2584 19.1561C96.6008 21.264 96.6008 24.2181 96.6019 25.8044L96.5998 26.2735Z" fill="#051B52"></path><path d="M117.18 34.6924V32.9615C117.34 33.0692 117.506 33.1683 117.677 33.2582C118.399 33.7402 127.233 36.6857 128.339 31.116C128.683 28.1459 126.155 27.1284 123.222 26.429C122.355 26.2222 120.904 25.8763 119.667 25.1222C118.08 24.1583 117.253 22.7412 117.275 21.0349V20.99C117.737 14.6416 126.4 15.7159 128.736 17.163V18.8628C128.182 18.5982 127.691 18.113 125.284 17.7596C122.118 17.2958 119.019 17.8592 118.771 21.0799C118.754 23.4931 121.066 24.3778 123.567 24.9744C125.152 25.3525 126.898 25.8913 128.154 26.9324C131.137 29.4066 130.127 34.3497 126.026 35.6082C123.254 36.4501 118.485 35.6478 117.18 34.6924Z" fill="#051B52"></path><path d="M135.056 19.6716V16.7701H133.953V16.2634H136.738V16.769H135.624V19.6706L135.056 19.6716ZM137.118 19.6716V16.2634H137.955L138.812 18.9851L139.644 16.2634H140.463V19.6706H139.945V16.8108L139.067 19.6706H138.552L137.637 16.769V19.6706L137.118 19.6716Z" fill="#051B52"></path></svg>