<svg xmlns="http://www.w3.org/2000/svg" width="141" height="56" viewBox="0 0 141 56" fill="none"><path d="M49.9344 29.8393C49.9344 30.0445 49.7291 30.2498 49.5238 30.2498H41.7917C41.997 32.1657 43.4339 33.9448 45.4867 33.9448C46.8552 33.9448 47.8816 33.3974 48.7027 32.3026C48.7711 32.1657 48.908 32.0973 49.0448 32.0973C49.2501 32.0973 49.4554 32.2342 49.4554 32.5079C49.4554 32.5763 49.4554 32.6447 49.387 32.7131C48.6343 34.0817 47.0605 34.7659 45.5551 34.7659C42.9549 34.7659 41.1074 32.4394 41.1074 29.9077C41.1074 27.3759 42.9549 25.0494 45.5551 25.0494C48.1553 25.0494 49.9344 27.3075 49.9344 29.8393ZM49.1133 29.4287C48.9764 27.5128 47.471 25.7337 45.4183 25.7337C43.3655 25.7337 41.9285 27.5128 41.7233 29.4287H49.1133Z" fill="#051B52"></path><path d="M59.3782 25.186C59.5835 25.186 59.7887 25.3913 59.7887 25.5966C59.7887 25.8018 59.6519 26.0071 59.3782 26.0071H57.3254V34.1498C57.3254 34.3551 57.1885 34.5604 56.9148 34.5604C56.7096 34.5604 56.5043 34.3551 56.5043 34.1498V25.9387H54.5199C54.3147 25.9387 54.1094 25.8018 54.1094 25.5281C54.1094 25.3229 54.2462 25.1176 54.5199 25.1176H56.5043V22.1068C56.5043 21.9016 56.6411 21.6963 56.9148 21.6963C57.1201 21.6963 57.3254 21.8331 57.3254 22.1068V25.1176H59.3782V25.186Z" fill="#051B52"></path><path d="M72.1052 29.1555V34.0822C72.1052 34.2874 71.8999 34.4927 71.6946 34.4927C71.4893 34.4927 71.2841 34.3559 71.2841 34.0822V29.1555C71.2841 27.5133 70.3261 25.8026 68.4786 25.8026C66.0837 25.8026 65.0573 27.8554 65.1942 30.045C65.1942 30.1135 65.1942 30.3187 65.1942 30.3872V34.0822C65.1942 34.2874 65.0573 34.4927 64.7836 34.4927C64.5783 34.4927 64.373 34.3559 64.373 34.0822V17.7968C64.373 17.5915 64.5099 17.3862 64.7836 17.3862C64.9889 17.3862 65.1942 17.5915 65.1942 17.7968V26.9659C65.8784 25.8026 67.0417 24.9815 68.4786 24.9815C70.8051 24.9815 72.1052 27.0343 72.1052 29.1555Z" fill="#051B52"></path><path d="M85.9949 29.8394C85.9949 30.0447 85.7896 30.2499 85.5844 30.2499H77.8522C78.0575 32.1659 79.4944 33.9449 81.5472 33.9449C82.9157 33.9449 83.9421 33.3975 84.7632 32.3027C84.8317 32.1659 84.9685 32.0974 85.1054 32.0974C85.3106 32.0974 85.5159 32.2343 85.5159 32.508C85.5159 32.5764 85.5159 32.6448 85.4475 32.7133C84.6948 34.0818 83.121 34.766 81.6157 34.766C79.0155 34.766 77.168 32.4396 77.168 29.9078C77.168 27.376 79.0155 25.0496 81.6157 25.0496C84.1474 24.9811 85.9949 27.3076 85.9949 29.8394ZM85.1738 29.4288C85.0369 27.5129 83.5316 25.7338 81.4788 25.7338C79.426 25.7338 77.9891 27.5129 77.7838 29.4288H85.1738Z" fill="#051B52"></path><path d="M95.5746 25.5279C95.5746 25.8016 95.4378 25.9385 95.2325 25.9385C92.9745 26.2806 91.9481 28.1281 91.9481 30.3177V34.0127C91.9481 34.218 91.8112 34.4233 91.5375 34.4233C91.3322 34.4233 91.127 34.2864 91.127 34.0127V25.5963C91.127 25.3911 91.2638 25.1858 91.5375 25.1858C91.7428 25.1858 91.9481 25.3226 91.9481 25.5963V27.307C92.5639 26.2122 93.864 25.1858 95.2325 25.1858C95.3009 25.1858 95.5746 25.3226 95.5746 25.5279Z" fill="#051B52"></path><path d="M108.304 29.8394C108.304 30.0447 108.098 30.2499 107.893 30.2499H100.161C100.366 32.1659 101.803 33.9449 103.856 33.9449C105.224 33.9449 106.251 33.3975 107.072 32.3027C107.14 32.1659 107.277 32.0974 107.414 32.0974C107.619 32.0974 107.825 32.2343 107.825 32.508C107.825 32.5764 107.825 32.6448 107.756 32.7133C107.003 34.0818 105.43 34.766 103.924 34.766C101.324 34.766 99.4766 32.4396 99.4766 29.9078C99.4766 27.376 101.324 25.0496 103.924 25.0496C106.388 24.9811 108.304 27.3076 108.304 29.8394ZM107.482 29.4288C107.346 27.5129 105.84 25.7338 103.787 25.7338C101.735 25.7338 100.298 27.5129 100.092 29.4288H107.482Z" fill="#051B52"></path><path d="M120.824 25.5965V28.2651V34.0814C120.824 34.2866 120.619 34.4919 120.413 34.4919C120.208 34.4919 120.003 34.3551 120.003 34.0814V32.4391C119.387 33.7392 118.224 34.6288 116.787 34.6288C114.46 34.6288 113.229 32.6444 113.229 30.5232V25.5281C113.229 25.3228 113.365 25.1176 113.639 25.1176C113.844 25.1176 114.05 25.3228 114.05 25.5281V30.5916C114.05 32.2339 115.008 33.9445 116.855 33.9445C119.455 33.9445 120.071 31.4812 120.071 28.8126V25.665C120.071 25.4597 120.208 25.2544 120.482 25.2544C120.619 25.2544 120.824 25.3913 120.824 25.5965Z" fill="#051B52"></path><path d="M140.463 29.0856V34.0807C140.463 34.286 140.258 34.4913 140.053 34.4913C139.848 34.4913 139.642 34.3544 139.642 34.0807V29.0856C139.642 27.4434 138.684 25.8012 136.837 25.8012C134.51 25.8012 133.621 28.3329 133.621 30.2488V34.0807C133.621 34.286 133.416 34.4913 133.21 34.4913C133.005 34.4913 132.8 34.3544 132.8 34.0807V29.0856C132.8 27.4434 131.842 25.8012 129.994 25.8012C127.599 25.8012 126.641 27.6487 126.71 30.112C126.71 30.1804 126.71 30.2488 126.71 30.3173V34.0807C126.71 34.286 126.573 34.4913 126.299 34.4913C126.094 34.4913 125.889 34.3544 125.889 34.0807V25.5959C125.889 25.3906 126.026 25.1853 126.299 25.1853C126.505 25.1853 126.71 25.3222 126.71 25.5959V27.0328C127.394 25.8696 128.557 25.0485 129.994 25.0485C131.568 25.0485 132.8 26.0749 133.279 27.5118C133.895 26.0749 135.195 25.0485 136.768 25.0485C139.163 24.98 140.463 26.9644 140.463 29.0856Z" fill="#051B52"></path><path d="M0.462891 31.5499L17.2272 55.2253V41.4717L0.462891 31.5499Z" fill="#051B52"></path><path d="M0.462891 28.3333L17.2272 38.3235V20.738L0.462891 28.3333Z" fill="#051B52"></path><path d="M0.462891 28.3336L17.2272 20.7383V0.484253L0.462891 28.3336Z" fill="#051B52"></path><path d="M34.0593 31.5499L17.2266 55.2253V41.4717L34.0593 31.5499Z" fill="#051B52"></path><path d="M34.0593 28.3333L17.2266 38.3235V20.738L34.0593 28.3333Z" fill="#051B52"></path><path d="M34.0593 28.3336L17.2266 20.7383V0.484253L34.0593 28.3336Z" fill="#051B52"></path></svg>