<svg xmlns="http://www.w3.org/2000/svg" width="141" height="25" viewBox="0 0 141 25" fill="none"><path d="M37.5268 8.52828H43.2901V10.2543H39.394V11.8363H42.6565V13.5624H39.3969V15.2885H43.5136V17.0145H37.5268V8.52828ZM47.7641 8.52828H49.8974L51.9954 14.0902H52.019L54.1523 8.52828H56.1548L52.6556 17.0145H51.1574L47.7641 8.52828ZM60.711 8.52828H66.4773V10.2543H62.5812V11.8363H65.7025V13.5624H62.5812V15.2885H66.6979V17.0145H60.711V8.52828ZM83.1337 8.52828H85.0039V17.016H83.1337V8.52828ZM90.2953 8.52828H93.4475C93.866 8.52606 94.2837 8.56596 94.6942 8.64737C95.0611 8.71609 95.4108 8.85648 95.7234 9.06051C96.0188 9.26065 96.2582 9.53292 96.4188 9.8515C96.6033 10.2426 96.6915 10.6721 96.6761 11.1041C96.6896 11.5324 96.6077 11.9582 96.4365 12.3509C96.2892 12.6708 96.0618 12.9473 95.7763 13.1537C95.477 13.3618 95.1383 13.5064 94.781 13.5786C94.3711 13.6653 93.9531 13.7077 93.5342 13.705H92.1684V17.0131H90.2953V8.52828ZM92.1654 12.1245H93.4122C93.5751 12.1248 93.7377 12.1085 93.8974 12.076C94.0454 12.047 94.1873 11.9923 94.3164 11.9142C94.439 11.8367 94.5401 11.7295 94.6104 11.6026C94.691 11.4497 94.73 11.2783 94.7236 11.1056C94.7336 10.9202 94.6819 10.7367 94.5766 10.5837C94.4762 10.4513 94.3443 10.3462 94.1929 10.2779C94.0277 10.2033 93.8514 10.1566 93.671 10.1397C93.4878 10.1204 93.3038 10.1106 93.1196 10.1103H92.161L92.1654 12.1245ZM101.512 8.52828H107.278V10.2543H103.382V11.8363H106.616V13.5624H103.382V15.2885H107.499V17.0145H101.512V8.52828ZM112.593 8.52828H115.398C116.05 8.5251 116.701 8.60163 117.335 8.75617C117.912 8.89161 118.456 9.14159 118.936 9.49129C119.398 9.8391 119.77 10.2929 120.021 10.8145C120.305 11.437 120.442 12.1167 120.421 12.8008C120.435 13.4262 120.303 14.0463 120.037 14.6121C119.788 15.1244 119.43 15.5761 118.989 15.9354C118.536 16.2977 118.02 16.572 117.467 16.744C116.882 16.9296 116.271 17.0229 115.657 17.0204H112.593V8.52828ZM114.463 15.2914H115.435C115.84 15.2942 116.244 15.2498 116.639 15.1591C116.988 15.0806 117.316 14.9304 117.604 14.718C117.88 14.5077 118.101 14.2318 118.245 13.9152C118.411 13.5316 118.491 13.1159 118.478 12.6979C118.487 12.3228 118.407 11.9509 118.245 11.6128C118.096 11.314 117.881 11.0533 117.615 10.8513C117.337 10.6441 117.021 10.4915 116.686 10.4014C116.321 10.3012 115.944 10.2518 115.566 10.2543H114.463V15.2914ZM125.264 8.52828H127.134V17.016H125.264V8.52828ZM135.224 8.52828H136.771L140.463 17.016H138.353L137.618 15.2179H134.326L133.619 17.016H131.561L135.224 8.52828ZM135.943 10.9983L134.914 13.6359H136.989L135.943 10.9983ZM73.6565 17.0145H71.7878V8.52828H75.0724C75.4854 8.52651 75.8975 8.5689 76.3015 8.65472C76.6646 8.72848 77.0104 8.87068 77.3204 9.07374C77.6147 9.2728 77.8535 9.54349 78.0143 9.86032C78.1981 10.2474 78.2863 10.673 78.2716 11.1012C78.2874 11.6483 78.1232 12.1855 77.8041 12.6303C77.4696 13.0633 76.9798 13.3491 76.4382 13.4271L78.5965 17.0116H76.3544L74.6445 13.7403C74.6029 13.6604 74.5812 13.5716 74.5813 13.4815V12.1583C74.5813 12.0627 74.5813 12.0304 74.6607 12.0304C74.843 12.0304 75.1444 12.023 75.2929 12.0128C75.4675 12.0039 75.6397 11.9677 75.8031 11.9054C75.9523 11.8474 76.0829 11.7498 76.1809 11.6231C76.2889 11.4648 76.3407 11.2748 76.328 11.0836C76.3372 10.9021 76.2911 10.7221 76.1956 10.5675C76.1109 10.4424 75.9955 10.3412 75.8604 10.2735C75.7132 10.2022 75.5552 10.1555 75.3929 10.1353C75.2219 10.1119 75.0495 10.1001 74.8768 10.1H73.6536L73.6565 17.0145ZM21.8334 4.28957C20.9951 3.31387 19.9825 2.5027 18.8474 1.89749C18.8261 1.88522 18.8012 1.88082 18.7771 1.88506C18.7529 1.88931 18.731 1.90192 18.7153 1.92068C18.6995 1.93945 18.6908 1.96318 18.6908 1.9877C18.6907 2.01223 18.6993 2.03598 18.715 2.0548C19.3152 2.86859 19.6928 3.82484 19.8104 4.82915C20.0838 6.94189 19.0047 8.28569 19.0047 8.28569C19.0047 8.28569 18.3548 9.13402 17.5741 9.05463C16.8258 8.97964 16.5861 8.62973 16.3274 8.17248C16.3163 8.15539 16.3105 8.13548 16.3105 8.11514C16.3105 8.09481 16.3163 8.0749 16.3274 8.0578C16.9993 7.13449 17.7388 6.36114 17.4712 4.21312C17.0875 1.90337 15.2085 2.39737 15.2085 2.39737C15.2085 2.39737 12.5047 2.81345 12.4783 6.97423C12.4783 10.319 14.2426 11.7952 14.8218 12.1907C14.838 12.2013 14.8508 12.2163 14.859 12.2338C14.8671 12.2514 14.8702 12.2709 14.8679 12.2901C14.8656 12.3093 14.8581 12.3275 14.846 12.3427C14.834 12.3578 14.818 12.3693 14.7998 12.3759C14.0058 12.67 11.1418 13.9344 10.2935 17.038C9.3393 20.5313 10.933 21.7899 11.0418 21.8707L11.0521 21.8796C11.1565 21.9854 12.937 23.6909 16.5479 21.5649C16.8132 21.4072 17.0676 21.2318 17.3095 21.04L17.5638 20.8136C17.5858 20.7907 17.6099 20.7701 17.6359 20.7519C17.6837 20.7102 17.7424 20.683 17.8052 20.6733C17.8679 20.6637 17.9321 20.6721 17.9902 20.6975C18.1784 20.8019 18.0034 21.2694 17.9182 21.387C17.8329 21.5046 16.8258 23.4762 13.85 24.5819C13.8274 24.5917 13.809 24.6091 13.7978 24.631C13.7866 24.653 13.7835 24.6781 13.7889 24.7022C13.7943 24.7262 13.8079 24.7476 13.8274 24.7627C13.8468 24.7777 13.871 24.7855 13.8956 24.7848C15.2666 24.6496 16.607 24.2946 17.8652 23.7335C20.3749 22.6029 22.9817 20.0579 24.1123 17.2645C24.8974 15.3267 25.3164 13.2301 24.8474 10.6484C24.2211 7.54763 22.8405 5.46282 21.8334 4.28957ZM12.3298 0.496344C12.3548 0.486023 12.3754 0.467168 12.3879 0.44312C12.4004 0.419072 12.4039 0.391384 12.3979 0.364963C12.3919 0.338542 12.3768 0.315094 12.3552 0.298775C12.3335 0.282456 12.3068 0.27432 12.2798 0.275808C10.3391 0.384606 5.22262 1.18442 2.13511 6.4376C0.604186 9.09129 0.101377 12.2149 0.722203 15.2149C1.65581 19.4698 4.69186 21.9487 6.093 22.8896C6.11562 22.901 6.1414 22.9047 6.16629 22.8999C6.19119 22.8951 6.2138 22.8822 6.2306 22.8633C6.2474 22.8443 6.25743 22.8203 6.25914 22.795C6.26084 22.7697 6.25412 22.7445 6.24002 22.7235C5.43139 21.6943 4.16845 19.3684 5.42404 15.8398C6.57524 12.6053 9.03643 11.5276 9.63481 11.3085C9.65071 11.3028 9.66516 11.2937 9.67713 11.2818C9.6891 11.2699 9.69829 11.2555 9.70405 11.2396C9.70981 11.2238 9.71199 11.2068 9.71044 11.19C9.70889 11.1732 9.70365 11.1569 9.69509 11.1424C9.3393 10.5322 7.82936 7.69318 8.72768 4.82033C9.50543 2.03128 11.3138 0.915364 12.3298 0.496344Z" fill="#051B52"></path></svg>