<svg xmlns="http://www.w3.org/2000/svg" width="141" height="50" viewBox="0 0 141 50" fill="none"><path d="M110.517 15.9103H105.743L100.742 24.5681L109.478 19.5272L110.517 15.9103Z" fill="#051B52"></path><path d="M105.743 15.9103H110.517L114.863 0.123291L105.743 15.9103Z" fill="#051B52"></path><path d="M114.863 15.9103L114.864 9.52147L114.863 0.123291L110.517 15.9103L109.478 19.5272L114.863 16.4198L114.863 15.9103Z" fill="#051B52"></path><path d="M114.864 9.52147L123 14.2439L114.863 0.123291L114.864 9.52147Z" fill="#051B52"></path><path d="M123 14.2439L114.864 9.52147L114.863 15.9103H123.982L123 14.2439Z" fill="#051B52"></path><path d="M123.982 15.9103H114.863L114.863 16.4198L128.983 24.5681L123.982 15.9103Z" fill="#051B52"></path><path d="M105.743 15.9103H110.517L114.863 0.123291L105.743 15.9103Z" fill="#051B52"></path><path d="M114.864 9.52147L123.001 14.2439L114.863 0.123291L114.864 9.52147Z" fill="#051B52"></path><path d="M123.001 14.2439L114.864 9.52142L114.863 15.9102H123.983L123.001 14.2439Z" fill="#051B52"></path><path d="M110.517 15.9109H105.743L100.742 24.5687L109.478 19.5278L110.517 15.9109Z" fill="#051B52"></path><path d="M123.983 15.9109H114.863L114.863 16.4204L128.984 24.5687L123.983 15.9109Z" fill="#051B52"></path><path d="M18.0906 14.6365H12.1613L12.9366 11.8999H18.8203L19.9606 8.02306H8.33L3.81459 24.2147H9.47025L11.1578 18.1485H17.0872L18.0906 14.6365Z" fill="#051B52"></path><path d="M20.2814 12.4014L16.9975 24.2144H22.562L25.8915 12.4014H20.2814Z" fill="#051B52"></path><path d="M27.1207 8.02136H21.5106L20.5984 11.2597H26.2085L27.1207 8.02136Z" fill="#051B52"></path><path d="M36.0182 8.02136L34.4674 13.7226C34.0113 12.856 32.8255 12.1719 31.2747 12.1719C29.4503 12.1719 27.854 12.9929 26.9874 14.5892C25.8015 16.7329 24.9805 19.7432 24.9805 21.7956C24.9805 23.62 26.1208 24.4866 27.9452 24.4866C29.724 24.4866 30.8642 23.8025 32.0045 22.8903L31.594 24.213H37.0672L41.5826 8.02136H36.0182ZM32.643 20.2905C32.415 20.4273 32.0957 20.5642 31.6852 20.5642C31.1379 20.5642 30.8186 20.1537 30.8186 19.6976C30.8186 18.7398 31.1835 17.7363 31.594 16.7329C31.8677 16.0488 32.3694 15.8663 32.8711 15.8663C33.236 15.8663 33.5552 16.0488 33.7833 16.3224L32.643 20.2905Z" fill="#051B52"></path><path d="M52.8919 19.0608C53.2112 18.103 53.4848 16.5066 53.4848 15.7769C53.4848 12.8122 51.2043 12.1281 47.7379 12.1281C45.4574 12.1281 43.0401 12.8122 41.6262 14.6822C40.4403 16.233 39.5737 19.1064 39.5737 20.8852C39.5737 24.0779 42.1735 24.534 45.4574 24.534C47.9204 24.534 51.8885 23.3938 52.5726 20.0186H47.145C46.8257 21.1589 46.4609 21.4781 45.6855 21.4781C44.9101 21.4781 44.8645 20.8852 44.8645 20.6116C44.8645 20.1098 45.0013 19.6993 45.1838 19.0608H52.8919ZM47.2818 15.0927C47.8748 15.0927 48.2397 15.2752 48.2397 15.9593C48.2397 16.1874 48.1484 16.5522 48.1028 16.7803H45.8223C46.096 15.5488 46.5977 15.0927 47.2818 15.0927Z" fill="#051B52"></path><path d="M57.4063 8.02136L52.8909 24.213H58.501L63.0164 8.02136H57.4063Z" fill="#051B52"></path><path d="M70.4083 8.02136H64.7983L63.9317 11.2597H69.4961L70.4083 8.02136Z" fill="#051B52"></path><path d="M63.6085 12.4014L60.2789 24.2144H65.889L69.2185 12.4014H63.6085Z" fill="#051B52"></path><path d="M87.099 12.4012L84.0887 18.9691L84.1799 12.4468H76.563L77.2928 9.80141H71.6827L68.6269 20.5654C68.4444 21.1583 68.3988 21.7057 68.3988 22.2074C68.3988 23.4389 69.0374 24.2142 70.6793 24.2142H75.6508L76.4718 21.2952H75.2859C74.5106 21.2952 74.3281 21.1127 74.3281 20.611C74.3281 20.3374 74.4193 19.8813 74.5106 19.562L75.7877 15.0922H78.7523L79.6189 24.2598C79.4821 24.944 79.254 25.3545 78.7979 25.5369C78.3418 25.765 77.2472 25.7194 76.8823 25.6738H76.7911L75.8789 28.8665H79.7101C81.945 28.8665 83.0853 27.7262 84.6816 25.2177L92.8459 12.4012H87.099Z" fill="#051B52"></path><path d="M0.224609 49.1883V37.3694H3.73832C7.48021 37.3694 10.3094 39.1491 10.3094 43.256C10.3094 47.2717 7.48021 49.1426 3.78396 49.1426L0.224609 49.1883ZM1.09163 38.1452V48.4582H3.6927C6.93262 48.4582 9.39679 46.9066 9.39679 43.3017C9.39679 39.6967 6.93262 38.1452 3.6927 38.1452H1.09163Z" fill="#051B52"></path><path d="M13.6861 37.3694H14.5531V49.1883H13.6861V37.3694Z" fill="#051B52"></path><path d="M24.2263 37.826C20.9863 37.826 18.8416 40.2445 18.8416 43.3019C18.8416 46.3593 20.8494 48.8234 24.2263 48.8234C25.6409 48.8234 26.7361 48.504 27.6487 48.0477V43.8951H24.7282V43.165H28.4701V48.0021L28.6526 48.4127C27.5575 49.0516 25.9603 49.5536 24.1806 49.5536C20.3931 49.5536 17.9289 46.9069 17.9289 43.3019C17.9289 39.6969 20.4844 37.0958 24.135 37.0958C25.7321 37.0958 27.1011 37.5978 28.1507 38.3279V39.3318C26.9642 38.2367 25.4584 37.826 24.2263 37.826Z" fill="#051B52"></path><path d="M32.6223 37.3694H33.4894V49.1883H32.6223V37.3694Z" fill="#051B52"></path><path d="M41.1577 49.1891H40.2906V38.146H36.3662V37.4159H45.0364V38.146H41.112V49.1891H41.1577Z" fill="#051B52"></path><path d="M53.8869 46.0396H47.4527L46.1293 49.1883H45.2167L50.3275 37.3694H51.1945L56.0773 49.1883H55.1646L53.8869 46.0396ZM47.7265 45.3095H53.5675L50.6926 38.1908L47.7265 45.3095Z" fill="#051B52"></path><path d="M58.6334 37.3694H59.4548V48.4582H65.0676V49.1883H58.6334V37.3694Z" fill="#051B52"></path><path d="M80.4004 46.0396H73.9662L72.6428 49.1883H71.7302L76.841 37.3694H77.708L82.6364 49.1883H81.7237L80.4004 46.0396ZM74.24 45.3095H80.081L77.2061 38.1908L74.24 45.3095Z" fill="#051B52"></path><path d="M92.0376 39.2863C91.0337 38.2367 89.9841 37.7348 88.8433 37.7348C87.3374 37.7348 86.0141 38.6018 86.0141 40.1989C86.0141 41.7961 87.2918 42.3893 88.7064 42.8C90.8055 43.4389 92.2658 44.169 92.2658 46.1768C92.2658 48.3216 90.5317 49.4624 88.5239 49.4624C87.0637 49.4624 85.8772 48.9604 84.9645 48.1847V47.0895C86.1966 48.2759 87.3831 48.7779 88.5239 48.7779C90.121 48.7779 91.3988 47.8196 91.3988 46.2225C91.3988 44.6253 89.9841 44.0321 88.4783 43.5758C86.4248 42.9369 85.1471 42.2068 85.1471 40.1989C85.1471 38.1455 86.8811 37.0046 88.9346 37.0046C90.1667 37.0046 91.3075 37.461 92.0833 38.1911L92.0376 39.2863Z" fill="#051B52"></path><path d="M102.213 39.2863C101.209 38.2367 100.159 37.7348 99.0186 37.7348C97.5127 37.7348 96.1893 38.6018 96.1893 40.1989C96.1893 41.7961 97.4671 42.3893 98.8817 42.8C100.981 43.4389 102.441 44.169 102.441 46.1768C102.441 48.3216 100.707 49.4624 98.6991 49.4624C97.2389 49.4624 96.0525 48.9604 95.1398 48.1847V47.0895C96.3719 48.2759 97.5583 48.7779 98.6991 48.7779C100.296 48.7779 101.574 47.8196 101.574 46.2225C101.574 44.6253 100.159 44.0321 98.6535 43.5758C96.6 42.9369 95.3223 42.2068 95.3223 40.1989C95.3223 38.1455 97.0564 37.0046 99.1098 37.0046C100.342 37.0046 101.483 37.461 102.259 38.1911L102.213 39.2863Z" fill="#051B52"></path><path d="M105.818 37.3694H112.891V38.0995H106.64V42.7084H112.481V43.4385H106.64V48.4125H113.12V49.1883H105.773L105.818 37.3694Z" fill="#051B52"></path><path d="M120.099 49.1891H119.232V38.146H115.308V37.4159H123.978V38.146H120.054L120.099 49.1891Z" fill="#051B52"></path><path d="M132.787 39.2863C131.783 38.2367 130.733 37.7348 129.593 37.7348C128.087 37.7348 126.763 38.6018 126.763 40.1989C126.763 41.7961 128.041 42.3893 129.456 42.8C131.555 43.4389 133.015 44.169 133.015 46.1768C133.015 48.3216 131.281 49.4624 129.273 49.4624C127.813 49.4624 126.626 48.9604 125.714 48.1847V47.0895C126.946 48.2759 128.132 48.7779 129.273 48.7779C130.87 48.7779 132.148 47.8196 132.148 46.2225C132.148 44.6253 130.733 44.0321 129.227 43.5758C127.174 42.9369 125.896 42.2068 125.896 40.1989C125.896 38.1455 127.63 37.0046 129.684 37.0046C130.916 37.0046 132.057 37.461 132.832 38.1911L132.787 39.2863Z" fill="#051B52"></path><path d="M136.942 47.3296C136.668 47.1471 136.394 47.0102 136.121 47.0102C135.893 47.0102 135.71 47.1471 135.71 47.3296C135.71 47.5578 135.893 47.649 136.212 47.6947C136.76 47.8316 136.988 48.0597 136.988 48.4704C136.988 49.018 136.531 49.2918 136.029 49.2918C135.71 49.2918 135.391 49.2006 135.208 49.0637V48.5161C135.482 48.7442 135.801 48.8811 136.075 48.8811C136.303 48.8811 136.531 48.7442 136.531 48.5161C136.531 48.2879 136.349 48.1966 136.029 48.1054C135.482 47.9685 135.254 47.7403 135.254 47.3296C135.254 46.8277 135.664 46.5539 136.212 46.5539C136.531 46.5539 136.805 46.6451 136.988 46.782V47.3296H136.942Z" fill="#051B52"></path><path d="M137.943 47.3751V49.2461H137.441V46.645H138.126L138.856 48.516L139.54 46.645H140.225V49.2461H139.723V47.3751L138.993 49.2461H138.627L137.943 47.3751Z" fill="#051B52"></path></svg>