<svg xmlns="http://www.w3.org/2000/svg" width="140" height="43" viewBox="0 0 140 43" fill="none"><path fill-rule="evenodd" clip-rule="evenodd" d="M17.5122 34.352L17.5122 10.285H20.0559L20.0559 34.352L17.5122 34.352Z" fill="#051B52"></path><path fill-rule="evenodd" clip-rule="evenodd" d="M111.628 34.352V10.285H114.172V34.352L111.628 34.352Z" fill="#051B52"></path><path fill-rule="evenodd" clip-rule="evenodd" d="M138.185 12.2323C139.508 13.8535 140 15.9521 140 17.7206V34.3523H138.185L137.652 31.7105C135.597 34.3523 131.979 34.7885 130.224 34.9347C129.344 35.0081 128.352 34.7544 127.461 34.3412C126.548 33.9183 125.621 33.2742 124.874 32.4317C124.125 31.5857 123.531 30.5065 123.368 29.2333C123.203 27.9456 123.495 26.5716 124.334 25.1828C125.753 22.8346 128.43 21.761 131.097 21.1445C133.244 20.6482 135.709 20.6686 137.456 20.6553V17.7206C137.456 16.3584 137.067 14.8859 136.214 13.8411C135.414 12.8614 134.105 12.1261 131.901 12.334C128.097 12.6929 126.512 14.4889 126.259 14.9783L124 13.8097C124.725 12.4077 127.171 10.2253 131.663 9.80152C134.644 9.52022 136.808 10.546 138.185 12.2323ZM137.456 22.8829C135.87 22.8962 132.832 23.144 130.901 23.5903C128.356 24.1788 127.362 25.0897 126.511 26.4982C125.932 27.4575 125.808 28.2603 125.891 28.9109C125.976 29.576 126.293 30.1967 126.778 30.7448C127.267 31.2964 127.824 31.8093 128.456 32.1019C131.796 33.6555 135.917 31.5937 137.456 28.9109V22.8829Z" fill="#051B52"></path><path fill-rule="evenodd" clip-rule="evenodd" d="M91.7116 10.2033C94.7229 9.75652 97.748 10.3572 99.6395 11.0466L100.476 11.3514V42.9613H97.9321V32.7513C96.1027 34.1732 94.2985 34.6934 92.6485 34.8412C90.3755 35.0448 88.5725 34.3722 87.1571 33.6145C86.4044 33.2115 85.431 32.6092 84.7241 31.6127C83.9933 30.5824 83.4713 29.6525 82.9629 28.0907C82.2009 24.9509 81.947 20.2503 83.7717 15.9021C85.5236 12.2187 88.6508 10.6574 91.7116 10.2033ZM97.9321 29.9254V13.1669C96.3462 12.7153 94.1818 12.4083 92.0849 12.7194C89.6392 13.0822 87.3693 14.2602 86.0688 16.9947C84.7384 20.6715 84.9799 24.07 85.3651 26.6828C85.7922 27.9952 86.3831 29.1001 86.9685 29.9254C87.5779 30.7845 88.1073 31.2379 88.3577 31.3719C89.6532 32.0655 90.9815 32.602 92.4945 32.4664C93.9107 32.3395 95.7112 32.1844 97.9321 29.9254Z" fill="#051B52"></path><path fill-rule="evenodd" clip-rule="evenodd" d="M33.3613 12.9265L32.7743 10.285H30.8176V34.352L33.3613 34.352V16.5269C33.8737 15.7602 34.7295 14.7157 35.7975 13.8338C37.021 12.8236 38.3788 12.1438 39.7205 12.1438C41.7203 12.1438 43.216 12.6551 44.1969 13.5239C45.1533 14.371 45.7861 15.7045 45.7861 17.7203V34.352H48.3298V17.7203C48.3298 15.1379 47.6914 12.9843 46.0796 11.5568C44.4924 10.151 42.5145 9.69795 40.1118 9.69795C37.9314 9.69795 35.8799 10.6592 34.4374 11.8503C34.1517 12.0862 33.6196 12.6778 33.3613 12.9265Z" fill="#051B52"></path><path fill-rule="evenodd" clip-rule="evenodd" d="M58.6708 14.1399C60.2881 11.5295 63.0375 9.60012 67.3096 9.60012C69.1187 9.60012 70.5994 10.164 71.759 11.122C72.8981 12.063 73.6588 13.3262 74.1614 14.6351C75.1574 17.2287 75.2397 20.2598 75.0315 22.2548L74.9126 23.3947H59.2504C59.3509 24.5215 59.4346 25.9809 59.8742 27.308C60.5099 29.2274 61.6449 30.7234 63.0252 31.4736C64.4709 32.2592 67.2528 32.3102 69.1684 32.004C71.0632 31.7012 71.9946 30.9407 72.9839 30.4387L74.1614 32.6889C72.7882 33.7085 71.6142 34.0868 68.6769 34.5562C66.5112 34.9023 63.9652 34.8795 61.8105 33.7085C58.8958 32.0444 58.0449 30.4434 57.3305 28.2863C56.6057 26.098 56.6457 23.5715 56.6457 22.1228C56.6457 19.7452 57.1048 16.6674 58.6708 14.1399ZM59.2394 20.851H72.5747C72.6191 19.2205 72.4306 17.2235 71.7868 15.547C71.3894 14.5119 70.844 13.6656 70.1389 13.083C69.4544 12.5175 68.5528 12.1438 67.3096 12.1438C63.9506 12.1438 62.004 13.5897 60.8331 15.4796C59.8471 17.071 59.3823 19.0364 59.2394 20.851Z" fill="#051B52"></path><path fill-rule="evenodd" clip-rule="evenodd" d="M7.14186 2.55609C6.16693 2.48845 5.21708 2.58712 4.79385 2.65393C4.06611 2.7688 3.6314 3.17714 3.26261 3.61825C2.88903 4.06509 2.54367 4.86505 2.54367 6.33675V10.1522H9.09853V12.6959H2.54367V34.415H0V6.33675C0 4.4821 0.437316 3.03185 1.31112 1.9867C2.1897 0.935828 3.36661 0.465162 4.49771 0.286618C5.23412 0.170376 5.87116 -0.0553453 6.84835 0.012455C7.84506 0.0816092 9.57404 0.463268 10.1747 0.5989L9.48986 2.94743C9.07957 2.85478 8.09726 2.62238 7.14186 2.55609Z" fill="#051B52"></path><path d="M114.859 3.63316C114.859 4.7138 113.983 5.58984 112.903 5.58984C111.822 5.58984 110.946 4.7138 110.946 3.63316C110.946 2.55252 111.822 1.67649 112.903 1.67649C113.983 1.67649 114.859 2.55252 114.859 3.63316Z" fill="#051B52"></path><path d="M20.7434 3.24183C20.7434 4.32247 19.8674 5.1985 18.7868 5.1985C17.7061 5.1985 16.8301 4.32247 16.8301 3.24183C16.8301 2.16119 17.7061 1.28516 18.7868 1.28516C19.8674 1.28516 20.7434 2.16119 20.7434 3.24183Z" fill="#051B52"></path></svg>