<svg xmlns="http://www.w3.org/2000/svg" width="140" height="44" viewBox="0 0 140 44" fill="none"><path fill-rule="evenodd" clip-rule="evenodd" d="M17.5122 34.7385L17.5122 10.6714H20.0559L20.0559 34.7385L17.5122 34.7385Z" fill="#5E5E5D"></path><path fill-rule="evenodd" clip-rule="evenodd" d="M111.628 34.7385V10.6714H114.172V34.7385L111.628 34.7385Z" fill="#5E5E5D"></path><path fill-rule="evenodd" clip-rule="evenodd" d="M138.185 12.6188C139.508 14.24 140 16.3385 140 18.107V34.7388H138.185L137.652 32.097C135.597 34.7388 131.979 35.175 130.224 35.3211C129.344 35.3945 128.352 35.1408 127.461 34.7277C126.548 34.3048 125.621 33.6607 124.874 32.8181C124.125 31.9721 123.531 30.893 123.368 29.6198C123.203 28.3321 123.495 26.958 124.334 25.5693C125.753 23.2211 128.43 22.1475 131.097 21.531C133.244 21.0346 135.709 21.0551 137.456 21.0418V18.107C137.456 16.7448 137.067 15.2724 136.214 14.2276C135.414 13.2479 134.105 12.5126 131.901 12.7204C128.097 13.0794 126.512 14.8753 126.259 15.3648L124 14.1961C124.725 12.7942 127.171 10.6117 131.663 10.188C134.644 9.90669 136.808 10.9325 138.185 12.6188ZM137.456 23.2694C135.87 23.2827 132.832 23.5305 130.901 23.9768C128.356 24.5653 127.362 25.4761 126.511 26.8847C125.932 27.844 125.808 28.6467 125.891 29.2974C125.976 29.9625 126.293 30.5832 126.778 31.1313C127.267 31.6829 127.824 32.1958 128.456 32.4883C131.796 34.042 135.917 31.9802 137.456 29.2974V23.2694Z" fill="#5E5E5D"></path><path fill-rule="evenodd" clip-rule="evenodd" d="M91.7116 10.5897C94.7229 10.143 97.748 10.7437 99.6395 11.4331L100.476 11.7379V43.3478H97.9321V33.1377C96.1027 34.5597 94.2985 35.0798 92.6485 35.2277C90.3755 35.4313 88.5725 34.7586 87.1571 34.001C86.4044 33.598 85.431 32.9956 84.7241 31.9992C83.9933 30.9689 83.4713 30.039 82.9629 28.4771C82.2009 25.3374 81.947 20.6368 83.7717 16.2886C85.5236 12.6052 88.6508 11.0438 91.7116 10.5897ZM97.9321 30.3119V13.5533C96.3462 13.1017 94.1818 12.7948 92.0849 13.1059C89.6392 13.4687 87.3693 14.6467 86.0688 17.3811C84.7384 21.058 84.9799 24.4565 85.3651 27.0693C85.7922 28.3816 86.3831 29.4866 86.9685 30.3119C87.5779 31.171 88.1073 31.6244 88.3577 31.7584C89.6532 32.4519 90.9815 32.9885 92.4945 32.8529C93.9107 32.726 95.7112 32.5709 97.9321 30.3119Z" fill="#5E5E5D"></path><path fill-rule="evenodd" clip-rule="evenodd" d="M33.3613 13.3129L32.7743 10.6714H30.8176V34.7385L33.3613 34.7385V16.9134C33.8737 16.1467 34.7295 15.1022 35.7975 14.2203C37.021 13.2101 38.3788 12.5303 39.7205 12.5303C41.7203 12.5303 43.216 13.0415 44.1969 13.9104C45.1533 14.7575 45.7861 16.091 45.7861 18.1068V34.7385H48.3298V18.1068C48.3298 15.5244 47.6914 13.3708 46.0796 11.9433C44.4924 10.5375 42.5145 10.0844 40.1118 10.0844C37.9314 10.0844 35.8799 11.0457 34.4374 12.2368C34.1517 12.4727 33.6196 13.0643 33.3613 13.3129Z" fill="#5E5E5D"></path><path fill-rule="evenodd" clip-rule="evenodd" d="M58.6708 14.5264C60.2881 11.9159 63.0375 9.98659 67.3096 9.98659C69.1187 9.98659 70.5994 10.5505 71.759 11.5085C72.8981 12.4495 73.6588 13.7127 74.1614 15.0216C75.1574 17.6152 75.2397 20.6463 75.0315 22.6413L74.9126 23.7811H59.2504C59.3509 24.908 59.4346 26.3673 59.8742 27.6945C60.5099 29.6138 61.6449 31.1099 63.0252 31.86C64.4709 32.6457 67.2528 32.6966 69.1684 32.3905C71.0632 32.0877 71.9946 31.3272 72.9839 30.8252L74.1614 33.0753C72.7882 34.095 71.6142 34.4733 68.6769 34.9427C66.5112 35.2888 63.9652 35.2659 61.8105 34.095C58.8958 32.4309 58.0449 30.8299 57.3305 28.6728C56.6057 26.4845 56.6457 23.958 56.6457 22.5093C56.6457 20.1316 57.1048 17.0538 58.6708 14.5264ZM59.2394 21.2375H72.5747C72.6191 19.607 72.4306 17.61 71.7868 15.9334C71.3894 14.8984 70.844 14.052 70.1389 13.4695C69.4544 12.904 68.5528 12.5303 67.3096 12.5303C63.9506 12.5303 62.004 13.9762 60.8331 15.8661C59.8471 17.4575 59.3823 19.4228 59.2394 21.2375Z" fill="#5E5E5D"></path><path fill-rule="evenodd" clip-rule="evenodd" d="M7.14186 2.94257C6.16693 2.87493 5.21708 2.9736 4.79385 3.0404C4.06611 3.15528 3.6314 3.56362 3.26261 4.00473C2.88903 4.45156 2.54367 5.25153 2.54367 6.72322V10.5387H9.09853V13.0823H2.54367V34.8015H0V6.72322C0 4.86858 0.437316 3.41832 1.31112 2.37318C2.1897 1.3223 3.36661 0.851636 4.49771 0.673093C5.23412 0.556851 5.87116 0.331129 6.84835 0.39893C7.84506 0.468084 9.57404 0.849742 10.1747 0.985375L9.48986 3.3339C9.07957 3.24126 8.09726 3.00886 7.14186 2.94257Z" fill="#5E5E5D"></path><path d="M114.859 4.01964C114.859 5.10028 113.983 5.97631 112.903 5.97631C111.822 5.97631 110.946 5.10028 110.946 4.01964C110.946 2.939 111.822 2.06297 112.903 2.06297C113.983 2.06297 114.859 2.939 114.859 4.01964Z" fill="#EE8031"></path><path d="M20.7434 3.6283C20.7434 4.70894 19.8674 5.58498 18.7868 5.58498C17.7061 5.58498 16.8301 4.70894 16.8301 3.6283C16.8301 2.54766 17.7061 1.67163 18.7868 1.67163C19.8674 1.67163 20.7434 2.54766 20.7434 3.6283Z" fill="#EE8031"></path></svg>