<svg xmlns="http://www.w3.org/2000/svg" width="140" height="37" viewBox="0 0 140 37" fill="none"><g clip-path="url(#clip0)"><path d="M34.7844 36.5263C32.3439 36.1709 30.2093 35.1378 28.5792 33.5233C27.2196 32.1765 26.338 30.6954 25.6881 28.666C24.6736 25.4976 24.6732 21.424 25.6872 18.3203C26.6699 15.3123 28.8826 12.6941 31.5906 11.3347C35.3408 9.4521 40.6191 9.57036 44.0924 11.6148C47.2183 13.4546 49.1118 16.7239 49.6386 21.1904C49.7994 22.5543 49.6951 25.4348 49.4417 26.6238C48.4049 31.4905 45.3852 34.8902 40.961 36.1715C40.4843 36.3096 39.745 36.4712 39.3182 36.5305C38.415 36.6561 35.6585 36.6536 34.7844 36.5263ZM40.0665 36.1505C41.8524 35.7336 43.276 35.0972 44.5487 34.1467C47.6441 31.8349 49.3402 28.2902 49.4968 23.8057C49.6512 19.3847 48.3179 15.6161 45.7397 13.1862C43.6469 11.2138 41.0096 10.2683 37.6005 10.2683C33.9868 10.2683 31.0764 11.3888 28.8374 13.6421C26.439 16.0558 25.1703 19.423 25.1703 23.375C25.1703 27.4747 26.3165 30.7842 28.5394 33.103C29.7649 34.3814 30.9579 35.1481 32.6687 35.7567C33.2736 35.9718 33.7186 36.0752 35.3359 36.3758C35.4743 36.4015 36.4028 36.4063 37.3992 36.3864C38.7482 36.3595 39.4295 36.2992 40.0665 36.1505ZM36.2476 34.7201C34.5943 33.9701 33.4219 31.6905 32.8344 28.0833C32.4619 25.7965 32.4267 20.7113 32.7661 18.2196C33.2428 14.7205 34.2496 12.6532 35.8173 11.9549C36.8919 11.4762 38.3811 11.7594 39.3386 12.6245C41.4652 14.5458 42.5386 20.009 42.0755 26.5546C41.7432 31.2517 40.7238 33.7993 38.8224 34.6846C38.1331 35.0055 36.9138 35.0224 36.2476 34.7201ZM38.4356 34.5719C39.1486 34.3602 40.0279 33.5356 40.4967 32.639C41.4647 30.7881 41.897 28.0511 41.9077 23.705C41.9211 18.2583 41.0672 14.7923 39.265 12.9775C38.5082 12.2154 37.9715 11.9788 37.0039 11.9803C34.8563 11.9838 33.4933 14.2257 32.9548 18.6403C32.7073 20.6695 32.706 25.5038 32.9525 27.2781C33.7153 32.7687 35.6849 35.3888 38.4356 34.5719ZM78.0113 36.525C77.0128 36.4237 73.9615 35.916 72.8957 35.6736L72.1583 35.506L72.2158 31.5682C72.3542 22.0874 72.3716 16.9119 72.282 11.8787C72.1942 6.94809 72.1686 6.42677 71.9785 5.69742C71.7376 4.77328 71.3898 4.12864 70.9716 3.83084C70.8091 3.71514 70.3677 3.55119 69.9907 3.46649C68.7374 3.18497 68.8055 3.23011 68.772 2.65837C68.7527 2.32904 68.7884 2.11147 68.8727 2.04471C68.9856 1.95521 79.2647 -0.00549526 79.5921 1.15779e-05C79.6862 0.00159379 79.6995 1.31592 79.6513 5.83972C79.6171 9.05044 79.6127 11.6774 79.6416 11.6774C79.6704 11.6774 80.046 11.5148 80.4762 11.316C81.7731 10.7168 82.9684 10.4568 84.7045 10.3963C85.8604 10.356 86.3958 10.3812 86.9888 10.5039C90.8661 11.3061 93.7354 14.4797 94.7381 19.0751C94.9997 20.2739 95.097 23.2532 94.9234 24.7455C94.7753 26.0174 94.353 27.7311 93.9135 28.8432C92.2552 33.0397 88.6973 35.7775 83.9773 36.489C82.8901 36.6529 79.4759 36.6735 78.0113 36.525ZM83.698 36.285C86.7555 35.8265 88.9982 34.7765 90.8974 32.9144C93.6428 30.2228 94.9651 26.4241 94.7864 21.7423C94.6944 19.3319 94.3007 17.7574 93.3017 15.804C91.9483 13.1577 89.6335 11.3015 87.0052 10.7549C85.0337 10.3449 82.497 10.666 80.5684 11.5698C80.0877 11.7951 79.6276 11.9793 79.546 11.9793C79.4163 11.9793 79.4022 11.234 79.4353 6.10866L79.4731 0.237974L79.0693 0.318917C78.8472 0.363436 76.5821 0.785494 74.0356 1.25682C71.4892 1.72815 69.3064 2.13707 69.1851 2.16554C69.0005 2.2088 68.9682 2.27913 68.988 2.59425C69.01 2.94544 69.0388 2.97721 69.41 3.05887C70.6859 3.33963 70.9131 3.43968 71.3875 3.92974C71.9687 4.53008 72.2312 5.2967 72.4034 6.89654C72.5406 8.17139 72.5711 30.1354 72.4401 33.3773L72.3624 35.2997L73.4003 35.5216C77.3304 36.3621 81.2479 36.6525 83.698 36.285ZM80.1074 34.7539C79.9041 34.7324 79.6865 34.6532 79.6239 34.5778C79.4514 34.3699 79.2645 20.707 79.3795 16.7099L79.4707 13.5394L80.2759 13.3073C81.4639 12.9648 82.7428 13.018 83.6495 13.4477C85.4703 14.3106 86.6664 16.442 87.2876 19.9306C87.49 21.067 87.4601 25.0139 87.2385 26.4183C86.7757 29.3509 85.9338 31.6143 84.7617 33.0765C84.1935 33.7853 83.2499 34.4558 82.5121 34.6749C82.0361 34.8163 81.0159 34.8498 80.1074 34.7539ZM82.0452 34.5233C82.7764 34.3846 83.3444 34.0937 83.9543 33.5453C85.4828 32.171 86.6321 29.3339 87.0841 25.8186C87.2681 24.3869 87.2433 21.1245 87.0393 19.9295C86.4874 16.6975 85.3015 14.5733 83.5714 13.7179C82.8537 13.3631 82.743 13.3381 81.8918 13.3381C81.2829 13.3381 80.7592 13.4033 80.3139 13.5345L79.6473 13.7309L79.5981 17.4095C79.535 22.1217 79.6883 33.919 79.817 34.2575C79.8992 34.4735 79.9896 34.5193 80.3971 34.5513C81.3563 34.6266 81.5149 34.6239 82.0452 34.5233ZM106.948 36.4752C101.955 35.5745 98.3837 32.0336 97.2169 26.8259C97.0668 26.1561 97.0005 25.4066 96.9628 23.9566C96.9033 21.6626 97.0899 20.2388 97.6818 18.4697C98.8185 15.0727 100.856 12.6656 103.815 11.2229C106.938 9.7001 111.209 9.60036 113.973 10.9856C117.085 12.5453 118.917 15.6595 119.381 20.1823C119.444 20.7912 119.48 21.5159 119.462 21.7927L119.429 22.2959L111.98 22.3217L104.532 22.3475L104.561 23.2275C104.627 25.2661 105.065 27.0692 105.876 28.6368C106.244 29.3494 106.537 29.7378 107.25 30.4572C108.86 32.0824 110.461 32.7116 112.987 32.7116C114.819 32.7116 116.136 32.3461 117.513 31.4556C117.899 31.2062 118.29 31.0021 118.382 31.0021C118.592 31.0021 119.076 31.6253 119.076 31.896C119.076 32.3395 117.632 33.7698 116.224 34.7212C115.07 35.5005 113.241 36.2061 111.654 36.4836C110.543 36.6779 108.047 36.6735 106.948 36.4752ZM111.424 36.2817C113.756 35.9035 116.053 34.7842 117.703 33.2212C118.607 32.3651 118.907 31.9519 118.782 31.7355C118.446 31.1579 118.461 31.1586 117.604 31.6848C116.24 32.5227 115.556 32.7537 113.954 32.9182C112.082 33.1103 110.355 32.7974 108.76 31.9771C107.701 31.4329 106.433 30.1812 105.799 29.0553C104.934 27.5189 104.465 25.7242 104.325 23.4178C104.266 22.4494 104.279 22.2081 104.392 22.1361C104.47 22.087 107.826 22.0467 111.905 22.0458L119.278 22.0443V21.753C119.278 21.091 119.06 19.3117 118.866 18.3788C118.082 14.6276 116.015 11.9529 113.067 10.8769C111.893 10.4486 110.783 10.2683 109.32 10.2683C105.853 10.2683 103.022 11.4054 100.832 13.6773C99.0858 15.4887 98.0498 17.5235 97.4175 20.3836C97.2269 21.2456 97.195 21.6935 97.195 23.5037C97.195 25.3005 97.2276 25.7639 97.4124 26.595C98.586 31.8741 102.059 35.3505 107.049 36.2411C108.313 36.4667 110.177 36.4841 111.424 36.2817ZM104.346 20.3571C104.27 20.2345 104.458 18.443 104.644 17.5151C105.092 15.2784 105.809 13.6632 106.796 12.6687C107.327 12.1337 107.57 11.9669 108.003 11.8383C108.301 11.7498 108.638 11.6776 108.753 11.678C109.215 11.6792 109.76 11.9149 110.165 12.2887C111.254 13.2922 111.877 15.447 112 18.6367L112.061 20.2112L111.014 20.2695C108.913 20.3866 104.401 20.4458 104.346 20.3571ZM110.108 20.0693L111.859 20.0084L111.796 18.7645C111.574 14.3783 110.501 11.9813 108.76 11.9832C106.868 11.9853 105.356 14.4179 104.727 18.4712C104.65 18.9694 104.586 19.5603 104.585 19.7841L104.583 20.1912L106.47 20.1607C107.508 20.144 109.145 20.1028 110.108 20.0693ZM127.078 36.5728C125.285 36.3806 122.431 35.7558 121.481 35.3473L121.017 35.1479L120.953 32.8485C120.918 31.5839 120.878 29.893 120.864 29.091L120.838 27.6328L121.116 27.4995C121.269 27.4262 121.578 27.3577 121.802 27.3473L122.21 27.3284L122.558 28.1839C123.914 31.5214 125.504 33.321 127.582 33.8683C128.374 34.0771 129.86 34.0789 130.446 33.8718C132.09 33.2918 132.991 32.0476 132.999 30.3479C133.008 28.3349 131.901 27.3677 127.721 25.7349C125.132 24.7233 124.228 24.2026 123.153 23.1016C121.992 21.9139 121.435 20.562 121.331 18.679C121.204 16.4037 121.917 14.4856 123.495 12.851C125.083 11.2061 127.144 10.3146 129.952 10.0583C132.425 9.83265 136.221 10.3572 138.21 11.1993L138.573 11.353L138.638 13.4024C138.673 14.5295 138.71 16.0405 138.72 16.7601L138.737 18.0685L138.249 18.2494C137.479 18.5355 137.428 18.4996 137 17.3641C135.799 14.1812 134.403 12.6751 132.228 12.2151C130.903 11.9347 129.795 12.2361 128.991 13.0964C128.363 13.7676 128.118 14.3636 128.059 15.3645C127.994 16.4489 128.188 17.0351 128.851 17.76C129.667 18.6536 131.005 19.4249 133.67 20.5386C136.935 21.9027 138.492 23.0608 139.339 24.7534C139.889 25.8526 140.045 26.7306 139.99 28.4206C139.948 29.6887 139.907 29.9493 139.619 30.8008C138.678 33.5768 136.555 35.4043 133.275 36.2611C132.163 36.5514 132.005 36.5664 129.795 36.5906C128.522 36.6045 127.299 36.5965 127.078 36.5728ZM131.859 36.2908C136.135 35.6413 138.896 33.3483 139.62 29.8446C139.97 28.1528 139.807 26.2715 139.201 25.0134C138.353 23.2521 136.92 22.1888 133.369 20.6875C130.731 19.5725 129.15 18.6273 128.503 17.7784C127.968 17.0772 127.794 16.538 127.801 15.6027C127.812 14.1921 128.347 13.1117 129.367 12.438C130.222 11.874 131.293 11.7364 132.54 12.0304C134.047 12.3857 135.18 13.3106 136.204 15.0205C136.529 15.5646 137.199 17.0922 137.525 18.0348C137.575 18.181 137.634 18.1872 137.985 18.0834C138.207 18.018 138.419 17.9335 138.457 17.8955C138.495 17.8575 138.492 16.4156 138.451 14.6913L138.377 11.5562L138.011 11.4016C137.395 11.1407 135.787 10.7031 134.727 10.5082C133.93 10.3616 133.229 10.3236 131.356 10.3257C129.119 10.3281 128.937 10.3428 128.013 10.5933C125.331 11.3211 123.342 12.835 122.303 14.9402C121.75 16.059 121.559 16.9214 121.566 18.2699C121.574 20.1846 122.096 21.598 123.25 22.8328C124.243 23.8954 125.534 24.6534 127.732 25.4653C129.462 26.1041 131.248 26.9961 131.925 27.5594C132.323 27.8905 132.635 28.2677 132.869 28.6979C133.2 29.3098 133.217 29.3907 133.217 30.3479C133.217 31.27 133.191 31.4109 132.898 32.0288C132.133 33.6431 130.603 34.4447 128.599 34.2808C125.876 34.0581 123.959 32.2574 122.399 28.456C121.991 27.4645 121.964 27.4439 121.345 27.6792L121.061 27.7872L121.132 31.3322C121.195 34.4784 121.222 34.8917 121.371 35.0065C121.819 35.3497 124.716 36.0373 126.726 36.2773C128.286 36.4637 130.679 36.4699 131.859 36.2908ZM0.133781 35.9679C0.0500988 35.9341 0.00796942 35.6833 0.00796942 35.2188C0.00796942 34.3849 -0.0451841 34.4222 1.56804 34.1229C2.80533 33.8933 3.248 33.6586 3.79438 32.9422C4.85374 31.5533 5.08272 28.879 5.08509 17.8673C5.08732 7.52606 4.8881 5.35062 3.79248 3.75233C3.30638 3.04322 2.4872 2.65817 1.11511 2.49387L0.0582942 2.36732L0.0291471 1.54227L0 0.717216L0.331095 0.658217C0.513198 0.625767 6.91127 0.612056 14.549 0.627746L28.4359 0.656275L28.501 1.05887C28.5368 1.2803 28.5956 3.55155 28.6316 6.10609L28.6971 10.7507L27.9811 10.9682C26.9033 11.2956 26.9098 11.2995 26.425 10.0167C25.2341 6.86556 23.8685 5.04983 21.9999 4.13296C20.7111 3.50059 20.1152 3.42414 16.4756 3.42414H13.3082L13.2536 3.95255C13.1512 4.94344 12.9895 11.3176 12.9906 14.3194L12.9917 17.3138L13.9228 17.3084C14.4348 17.3055 15.4445 17.2678 16.1666 17.2247C17.252 17.1599 17.5745 17.1022 18.0286 16.892C19.1443 16.3755 19.9033 15.2387 20.3684 13.3878L20.6084 12.4323L21.43 12.403L22.2515 12.3738V18.4209V24.468L21.4297 24.4388L20.6078 24.4095L20.3745 23.4534C19.9362 21.6568 19.0927 20.3707 18.0504 19.9096C17.569 19.6967 16.3779 19.5756 14.0737 19.5056L12.9917 19.4726V21.7444C12.9917 24.2201 13.1278 27.5692 13.3023 29.3868C13.5455 31.9206 14.193 33.3208 15.3559 33.8275C15.5779 33.9242 16.2805 34.0814 16.9171 34.1767C17.5537 34.272 18.1538 34.3909 18.2507 34.4409C18.4964 34.5678 18.5109 35.8801 18.2676 35.9735C18.0772 36.0465 0.315101 36.0411 0.133781 35.9679ZM18.2255 35.179C18.2255 34.8746 18.1983 34.6255 18.1651 34.6255C17.6855 34.6255 15.4507 34.1436 15.0915 33.9627C13.8135 33.3192 13.2226 31.7896 12.9934 28.5308C12.8304 26.2143 12.6683 19.4087 12.7735 19.3034C12.869 19.208 17.1243 19.3775 17.6216 19.4966C18.9967 19.8258 20.0566 21.1784 20.5873 23.2814L20.8212 24.2082L21.4357 24.2382L22.0502 24.2682V18.4257V12.5832H21.396C20.7844 12.5832 20.7418 12.598 20.7418 12.81C20.7418 13.1914 20.36 14.3981 19.9986 15.1592C19.4325 16.3511 18.6353 17.0705 17.6216 17.3043C17.3725 17.3617 16.1966 17.4537 15.0085 17.5087C13.3329 17.5863 12.8301 17.5813 12.7669 17.4864C12.6501 17.311 12.9163 4.05938 13.0491 3.44363L13.0991 3.21151L16.7946 3.24234L20.4901 3.27316L21.3501 3.58114C23.342 4.2945 24.7753 5.75123 25.9728 8.27941C26.2418 8.84741 26.5866 9.67447 26.7391 10.1173C26.8915 10.5602 27.0264 10.9366 27.0388 10.9538C27.0512 10.971 27.3818 10.8878 27.7735 10.7688L28.4856 10.5525L28.4355 7.26512C28.4079 5.45704 28.3593 3.287 28.3273 2.4428L28.2693 0.907899H14.2345H0.199663L0.229628 1.53651L0.259593 2.16513L1.16544 2.27843C2.37384 2.42957 2.81692 2.56122 3.30352 2.91371C4.04114 3.44804 4.49477 4.23299 4.78043 5.46929C5.22422 7.39003 5.38395 11.7216 5.30997 19.83C5.23181 28.3975 5.12375 30.1794 4.57756 31.9079C4.12834 33.3295 3.29225 34.0831 1.91124 34.3112C1.53116 34.374 0.992722 34.4741 0.714723 34.5337L0.209268 34.6421V35.1874V35.7326H9.21739H18.2255V35.179ZM49.749 35.9489C49.6572 35.8904 49.6272 35.6583 49.6483 35.17L49.6785 34.4745L50.0308 34.3995C50.2245 34.3582 50.6407 34.2763 50.9556 34.2175C51.9301 34.0354 52.4901 33.5064 52.8053 32.4704C53.062 31.6264 53.1752 28.9261 53.1811 23.5037C53.1883 16.8719 53.0502 15.3058 52.3796 14.418C52.0162 13.9369 51.7542 13.8 50.8724 13.6308C50.4372 13.5472 49.9792 13.4577 49.8546 13.4317C49.6529 13.3898 49.6282 13.324 49.6282 12.8308C49.6282 12.3512 49.6585 12.2645 49.8546 12.1838C50.1559 12.06 60.1267 10.067 60.4452 10.067H60.6937L60.645 11.5516C60.6181 12.3681 60.5753 13.557 60.5497 14.1936L60.5033 15.3511L60.8645 14.6997C62.0208 12.6144 63.3176 11.3199 65.042 10.5296C65.9886 10.0958 66.6202 9.96635 67.7897 9.96635C69.1767 9.96635 70.5632 10.4189 70.5632 10.8716C70.5632 11.176 68.1196 17.6328 67.9848 17.6845C67.9191 17.7097 67.4419 17.5272 66.9245 17.2789C65.8454 16.7611 64.833 16.5079 63.8502 16.5101C62.6263 16.5127 61.2592 16.9635 60.7195 17.5424C60.4886 17.79 60.4875 17.8049 60.4301 21.5028C60.3733 25.165 60.4954 29.632 60.7013 31.4286C60.8768 32.9591 61.2834 33.7127 62.1234 34.0635C62.4036 34.1806 64.1764 34.4235 64.755 34.4241C64.7988 34.4241 64.8215 34.7752 64.8053 35.2042L64.7759 35.9842L57.3278 36.0082C53.2314 36.0214 49.8209 35.9947 49.749 35.9489ZM64.6249 35.1876V34.6426L63.8449 34.5768C62.0458 34.4248 61.5529 34.2442 61.0804 33.5638C60.3957 32.5778 60.2467 30.7583 60.2467 23.386V17.6319L60.4962 17.3663C60.811 17.0312 61.7952 16.5636 62.4911 16.4185C63.9042 16.1238 65.7107 16.3784 67.1235 17.0713C67.529 17.2702 67.8778 17.4159 67.8986 17.3951C67.9402 17.3535 70.2607 11.2212 70.3327 10.9626C70.3654 10.8452 70.2317 10.7429 69.8414 10.5867C69.006 10.2524 68.2815 10.1378 67.3469 10.192C64.8472 10.337 62.6288 11.9977 61.0309 14.9201C60.7657 15.4052 60.4909 15.8026 60.4204 15.8031C60.3179 15.8038 60.306 15.2465 60.361 13.0302L60.43 10.2564L60.1873 10.3136C60.0539 10.345 58.0424 10.7525 55.7174 11.2191C50.7309 12.2198 50.0378 12.3657 49.9189 12.4392C49.8697 12.4696 49.8295 12.6495 49.8295 12.8389C49.8295 13.2189 49.7851 13.1969 50.9181 13.3791C52.4756 13.6296 53.0258 14.3891 53.258 16.6092C53.5609 19.5039 53.4399 30.7885 53.0895 32.3291C52.9103 33.1168 52.4474 33.8755 51.9814 34.1451C51.8087 34.245 51.2652 34.4053 50.7736 34.5013L49.8798 34.6758L49.8494 35.2042L49.8189 35.7326H57.2219H64.6249V35.1876Z" fill="#33629A"></path><path d="M18.2255 35.179C18.2255 34.8746 18.1983 34.6255 18.1651 34.6255C17.6855 34.6255 15.4507 34.1436 15.0915 33.9627C13.8135 33.3192 13.2226 31.7896 12.9934 28.5308C12.8304 26.2143 12.6683 19.4087 12.7735 19.3034C12.869 19.208 17.1243 19.3775 17.6216 19.4966C18.9967 19.8258 20.0566 21.1784 20.5873 23.2814L20.8212 24.2082L21.4357 24.2382L22.0502 24.2682V18.4257V12.5832H21.396C20.7844 12.5832 20.7418 12.598 20.7418 12.81C20.7418 13.1914 20.36 14.3981 19.9986 15.1592C19.4325 16.3511 18.6353 17.0705 17.6216 17.3043C17.3725 17.3617 16.1966 17.4537 15.0085 17.5087C13.3329 17.5863 12.8301 17.5813 12.7669 17.4864C12.6501 17.311 12.9163 4.05938 13.0491 3.44363L13.0991 3.21151L16.7946 3.24234L20.4901 3.27316L21.3501 3.58114C23.342 4.2945 24.7753 5.75123 25.9728 8.27941C26.2418 8.84741 26.5866 9.67447 26.7391 10.1173C26.8915 10.5602 27.0264 10.9366 27.0388 10.9538C27.0512 10.971 27.3818 10.8878 27.7735 10.7688L28.4856 10.5525L28.4355 7.26512C28.4079 5.45704 28.3593 3.287 28.3273 2.4428L28.2693 0.907899H14.2345H0.199663L0.229628 1.53651L0.259593 2.16513L1.16544 2.27843C2.37384 2.42957 2.81692 2.56122 3.30352 2.91371C4.04114 3.44804 4.49477 4.23299 4.78043 5.46929C5.22422 7.39003 5.38395 11.7216 5.30997 19.83C5.23181 28.3975 5.12375 30.1794 4.57756 31.9079C4.12834 33.3295 3.29225 34.0831 1.91124 34.3112C1.53116 34.374 0.992722 34.4741 0.714723 34.5337L0.209268 34.6421V35.1874V35.7326H9.21739H18.2255V35.179Z" fill="#33629A"></path><path fill-rule="evenodd" clip-rule="evenodd" d="M40.0665 36.1505C41.8524 35.7336 43.276 35.0972 44.5487 34.1467C47.6441 31.8349 49.3402 28.2902 49.4968 23.8057C49.6512 19.3847 48.3179 15.6161 45.7397 13.1862C43.6469 11.2138 41.0096 10.2683 37.6005 10.2683C33.9868 10.2683 31.0764 11.3888 28.8374 13.6421C26.439 16.0558 25.1703 19.423 25.1703 23.375C25.1703 27.4747 26.3165 30.7842 28.5394 33.103C29.7649 34.3814 30.9579 35.1481 32.6687 35.7567C33.2736 35.9718 33.7186 36.0752 35.3359 36.3758C35.4743 36.4015 36.4028 36.4063 37.3992 36.3864C38.7482 36.3595 39.4295 36.2992 40.0665 36.1505ZM32.8344 28.0833C33.4219 31.6905 34.5943 33.9701 36.2476 34.7201C36.9138 35.0224 38.1331 35.0055 38.8224 34.6846C40.7238 33.7993 41.7432 31.2517 42.0755 26.5546C42.5386 20.009 41.4652 14.5458 39.3386 12.6245C38.3811 11.7594 36.8919 11.4762 35.8173 11.9549C34.2496 12.6532 33.2428 14.7205 32.7661 18.2196C32.4267 20.7113 32.4619 25.7965 32.8344 28.0833Z" fill="#33629A"></path><path d="M64.6249 35.1876V34.6426L63.8449 34.5768C62.0458 34.4248 61.5529 34.2442 61.0804 33.5638C60.3957 32.5778 60.2467 30.7583 60.2467 23.386V17.6319L60.4962 17.3663C60.811 17.0312 61.7952 16.5636 62.4911 16.4185C63.9042 16.1238 65.7107 16.3784 67.1235 17.0713C67.529 17.2702 67.8778 17.4159 67.8986 17.3951C67.9402 17.3535 70.2607 11.2212 70.3327 10.9626C70.3654 10.8452 70.2317 10.7429 69.8414 10.5867C69.006 10.2524 68.2815 10.1378 67.3469 10.192C64.8472 10.337 62.6288 11.9977 61.0309 14.9201C60.7657 15.4052 60.4909 15.8026 60.4204 15.8031C60.3179 15.8038 60.306 15.2465 60.361 13.0302L60.43 10.2564L60.1873 10.3136C60.0539 10.345 58.0424 10.7525 55.7174 11.2191C50.7309 12.2198 50.0378 12.3657 49.9189 12.4392C49.8697 12.4696 49.8295 12.6495 49.8295 12.8389C49.8295 13.2189 49.7851 13.1969 50.9181 13.3791C52.4756 13.6296 53.0258 14.3891 53.258 16.6092C53.5609 19.5039 53.4399 30.7885 53.0895 32.3291C52.9103 33.1168 52.4474 33.8755 51.9814 34.1451C51.8087 34.245 51.2652 34.4053 50.7736 34.5013L49.8798 34.6758L49.8494 35.2042L49.8189 35.7326H57.2219H64.6249V35.1876Z" fill="#33629A"></path><path fill-rule="evenodd" clip-rule="evenodd" d="M83.698 36.285C86.7555 35.8265 88.9982 34.7765 90.8974 32.9144C93.6428 30.2228 94.9651 26.4241 94.7864 21.7423C94.6944 19.3319 94.3007 17.7574 93.3017 15.804C91.9483 13.1577 89.6335 11.3015 87.0052 10.7549C85.0337 10.3449 82.497 10.666 80.5684 11.5698C80.0877 11.7951 79.6276 11.9793 79.546 11.9793C79.4163 11.9793 79.4022 11.234 79.4353 6.10866L79.4731 0.237974L79.0693 0.318917C78.8472 0.363436 76.5821 0.785494 74.0356 1.25682C71.4892 1.72815 69.3064 2.13707 69.1851 2.16554C69.0005 2.2088 68.9682 2.27913 68.988 2.59425C69.01 2.94544 69.0388 2.97721 69.41 3.05887C70.6859 3.33963 70.9131 3.43968 71.3875 3.92974C71.9687 4.53008 72.2312 5.2967 72.4034 6.89654C72.5406 8.17139 72.5711 30.1354 72.4401 33.3773L72.3624 35.2997L73.4003 35.5216C77.3304 36.3621 81.2479 36.6525 83.698 36.285ZM79.6239 34.5778C79.6865 34.6532 79.9041 34.7324 80.1074 34.7539C81.0159 34.8498 82.0361 34.8163 82.5121 34.6749C83.2499 34.4558 84.1935 33.7853 84.7617 33.0765C85.9338 31.6143 86.7757 29.3509 87.2385 26.4183C87.4601 25.0139 87.49 21.067 87.2876 19.9306C86.6664 16.442 85.4703 14.3106 83.6495 13.4477C82.7428 13.018 81.4639 12.9648 80.2759 13.3073L79.4707 13.5394L79.3795 16.7099C79.2645 20.707 79.4514 34.3699 79.6239 34.5778Z" fill="#33629A"></path><path fill-rule="evenodd" clip-rule="evenodd" d="M111.424 36.2817C113.756 35.9035 116.053 34.7842 117.703 33.2212C118.607 32.3651 118.907 31.9519 118.782 31.7355C118.446 31.1579 118.461 31.1586 117.604 31.6848C116.24 32.5227 115.556 32.7537 113.954 32.9182C112.082 33.1103 110.355 32.7974 108.76 31.9771C107.701 31.4329 106.433 30.1812 105.799 29.0553C104.934 27.5189 104.465 25.7242 104.325 23.4178C104.266 22.4494 104.279 22.2081 104.392 22.1361C104.47 22.087 107.826 22.0467 111.905 22.0458L119.278 22.0443V21.753C119.278 21.091 119.06 19.3117 118.866 18.3788C118.082 14.6276 116.015 11.9529 113.067 10.8769C111.893 10.4486 110.783 10.2683 109.32 10.2683C105.853 10.2683 103.022 11.4054 100.832 13.6773C99.0858 15.4887 98.0498 17.5235 97.4175 20.3836C97.2269 21.2456 97.195 21.6935 97.195 23.5037C97.195 25.3005 97.2276 25.7639 97.4124 26.595C98.586 31.8741 102.059 35.3505 107.049 36.2411C108.313 36.4667 110.177 36.4841 111.424 36.2817ZM104.644 17.5151C104.458 18.443 104.27 20.2345 104.346 20.3571C104.401 20.4458 108.913 20.3866 111.014 20.2695L112.061 20.2112L112 18.6367C111.877 15.447 111.254 13.2922 110.165 12.2887C109.76 11.9149 109.215 11.6792 108.753 11.678C108.638 11.6776 108.301 11.7498 108.003 11.8383C107.57 11.9669 107.327 12.1337 106.796 12.6687C105.809 13.6632 105.092 15.2784 104.644 17.5151Z" fill="#33629A"></path><path d="M131.859 36.2908C136.135 35.6413 138.896 33.3483 139.62 29.8446C139.97 28.1528 139.807 26.2715 139.201 25.0134C138.353 23.2521 136.92 22.1888 133.369 20.6875C130.731 19.5725 129.15 18.6273 128.503 17.7784C127.968 17.0772 127.794 16.538 127.801 15.6027C127.812 14.1921 128.347 13.1117 129.367 12.438C130.222 11.874 131.293 11.7364 132.54 12.0304C134.047 12.3857 135.18 13.3106 136.204 15.0205C136.529 15.5646 137.199 17.0922 137.525 18.0348C137.575 18.181 137.634 18.1872 137.985 18.0834C138.207 18.018 138.419 17.9335 138.457 17.8955C138.495 17.8575 138.492 16.4156 138.451 14.6913L138.377 11.5562L138.011 11.4016C137.395 11.1407 135.787 10.7031 134.727 10.5082C133.93 10.3616 133.229 10.3236 131.356 10.3257C129.119 10.3281 128.937 10.3428 128.013 10.5933C125.331 11.3211 123.342 12.835 122.303 14.9402C121.75 16.059 121.559 16.9214 121.566 18.2699C121.574 20.1846 122.096 21.598 123.25 22.8328C124.243 23.8954 125.534 24.6534 127.732 25.4653C129.462 26.1041 131.248 26.9961 131.925 27.5594C132.323 27.8905 132.635 28.2677 132.869 28.6979C133.2 29.3098 133.217 29.3907 133.217 30.3479C133.217 31.27 133.191 31.4109 132.898 32.0288C132.133 33.6431 130.603 34.4447 128.599 34.2808C125.876 34.0581 123.959 32.2574 122.399 28.456C121.991 27.4645 121.964 27.4439 121.345 27.6792L121.061 27.7872L121.132 31.3322C121.195 34.4784 121.222 34.8917 121.371 35.0065C121.819 35.3497 124.716 36.0373 126.726 36.2773C128.286 36.4637 130.679 36.4699 131.859 36.2908Z" fill="#33629A"></path></g><defs><clipPath id="clip0"><rect width="140" height="36.6267" fill="white"></rect></clipPath></defs></svg>