<svg width="141" height="45" viewBox="0 0 141 45" fill="none" xmlns="http://www.w3.org/2000/svg">
<path d="M34.7113 16.3791C35.5513 14.5124 37.3012 13.2291 39.6346 13.2291C41.9446 13.2291 43.6712 14.3024 44.3946 16.3791H34.7113ZM39.5879 8.42244C33.8246 8.42244 29.2046 13.0658 29.2046 18.8058C29.2046 24.5691 33.5212 29.1891 39.7512 29.1891C44.1846 29.1891 47.3579 26.9957 49.0612 23.8691L44.6979 21.2791C43.8112 23.1924 41.9679 24.4057 39.7746 24.4057C36.9046 24.4057 35.1079 22.9591 34.4546 20.7657H49.8779V18.7591C49.9012 13.0191 45.7246 8.42244 39.5879 8.42244ZM63.2712 8.42244C60.9846 8.42244 59.0246 9.42577 57.7646 11.0591V8.8191H52.3279V28.8157H57.8112V17.8958C57.8112 14.5358 59.5379 13.0891 61.6146 13.0891C64.0412 13.0891 65.3012 14.6524 65.3012 17.3358V28.8157H70.8546V16.6124C70.8312 11.4558 67.9846 8.42244 63.2712 8.42244ZM78.6712 16.3791C79.5112 14.5124 81.2612 13.2291 83.5946 13.2291C85.9045 13.2291 87.6312 14.3024 88.3545 16.3791H78.6712ZM83.5479 8.42244C77.7845 8.42244 73.1646 13.0658 73.1646 18.8058C73.1646 24.5691 77.4812 29.1891 83.7112 29.1891C88.1445 29.1891 91.3179 26.9957 93.0212 23.8691L88.6579 21.2791C87.7712 23.1924 85.9279 24.4057 83.7346 24.4057C80.8646 24.4057 79.0679 22.9591 78.4146 20.7657H93.8379V18.7591C93.8612 13.0191 89.6612 8.42244 83.5479 8.42244ZM105.621 16.3324C102.635 15.7258 101.468 15.4224 101.468 14.5358C101.468 13.6491 102.261 12.9024 104.058 12.9024C105.855 12.9024 107.208 13.7891 107.745 15.0958L112.575 13.0658C111.128 10.2658 108.585 8.39911 104.105 8.42244C99.1579 8.46911 95.9145 11.3391 95.9145 14.6991C95.9145 18.9691 99.5079 20.2057 103.101 20.8591C105.411 21.2791 107.371 21.6291 107.371 22.7024C107.371 23.6591 106.415 24.4991 104.618 24.4991C102.658 24.4991 101.141 23.6124 100.418 21.7691L95.1912 23.7991C96.6379 27.3224 99.5545 29.1657 104.385 29.1891C110.148 29.2357 112.855 25.4324 112.855 22.5157C112.855 18.1991 108.981 17.0091 105.621 16.3324ZM115.071 28.7924H120.555V8.79577H115.071V28.7924ZM132.991 16.3324C129.981 15.7258 128.838 15.4224 128.838 14.5358C128.838 13.6491 129.631 12.9024 131.428 12.9024C133.225 12.9024 134.578 13.7891 135.115 15.0958L139.944 13.0658C138.498 10.2658 135.955 8.39911 131.475 8.42244C126.528 8.46911 123.285 11.3391 123.285 14.6991C123.285 18.9691 126.878 20.2057 130.471 20.8591C132.781 21.2791 134.741 21.6291 134.741 22.7024C134.741 23.6591 133.785 24.4991 131.988 24.4991C130.028 24.4991 128.511 23.6124 127.788 21.7691L122.561 23.7991C124.008 27.3224 126.925 29.1657 131.755 29.1891C137.518 29.2357 140.225 25.4324 140.225 22.5157C140.248 18.1991 136.351 17.0091 132.991 16.3324ZM15.0179 18.1758H20.9913V12.3658H15.0179V18.1758ZM20.9913 22.0257C19.4046 23.1691 17.3746 23.7524 15.0879 23.7524C10.0479 23.7524 6.50127 19.9491 6.50127 14.7691V14.6991C6.50127 9.89244 10.0946 5.87911 14.6446 5.87911C17.9113 5.87911 19.8479 6.92911 21.9946 8.72577L25.7746 4.17578C22.8579 1.70245 19.8479 0.349121 14.8313 0.349121C6.3846 0.349121 0.224609 6.85911 0.224609 14.7924V14.8624C0.224609 23.0991 6.1746 29.2124 14.8779 29.2124C19.9646 29.2124 23.9079 27.2291 26.7779 24.8024V18.1758H20.9679V22.0257H20.9913ZM115.071 6.81244H120.555V1.49245H115.071V6.81244Z" fill="#00000A"/>
<path d="M34.7113 16.3791C35.5513 14.5124 37.3012 13.2291 39.6346 13.2291C41.9446 13.2291 43.6712 14.3024 44.3946 16.3791H34.7113ZM39.5879 8.42244C33.8246 8.42244 29.2046 13.0658 29.2046 18.8058C29.2046 24.5691 33.5212 29.1891 39.7512 29.1891C44.1846 29.1891 47.3579 26.9957 49.0612 23.8691L44.6979 21.2791C43.8112 23.1924 41.9679 24.4057 39.7746 24.4057C36.9046 24.4057 35.1079 22.9591 34.4546 20.7657H49.8779V18.7591C49.9012 13.0191 45.7246 8.42244 39.5879 8.42244ZM63.2712 8.42244C60.9846 8.42244 59.0246 9.42577 57.7646 11.0591V8.8191H52.3279V28.8157H57.8112V17.8958C57.8112 14.5358 59.5379 13.0891 61.6146 13.0891C64.0412 13.0891 65.3012 14.6524 65.3012 17.3358V28.8157H70.8546V16.6124C70.8312 11.4558 67.9846 8.42244 63.2712 8.42244ZM78.6712 16.3791C79.5112 14.5124 81.2612 13.2291 83.5946 13.2291C85.9045 13.2291 87.6312 14.3024 88.3545 16.3791H78.6712ZM83.5479 8.42244C77.7845 8.42244 73.1646 13.0658 73.1646 18.8058C73.1646 24.5691 77.4812 29.1891 83.7112 29.1891C88.1445 29.1891 91.3179 26.9957 93.0212 23.8691L88.6579 21.2791C87.7712 23.1924 85.9279 24.4057 83.7346 24.4057C80.8646 24.4057 79.0679 22.9591 78.4146 20.7657H93.8379V18.7591C93.8612 13.0191 89.6612 8.42244 83.5479 8.42244ZM105.621 16.3324C102.635 15.7258 101.468 15.4224 101.468 14.5358C101.468 13.6491 102.261 12.9024 104.058 12.9024C105.855 12.9024 107.208 13.7891 107.745 15.0958L112.575 13.0658C111.128 10.2658 108.585 8.39911 104.105 8.42244C99.1579 8.46911 95.9145 11.3391 95.9145 14.6991C95.9145 18.9691 99.5079 20.2057 103.101 20.8591C105.411 21.2791 107.371 21.6291 107.371 22.7024C107.371 23.6591 106.415 24.4991 104.618 24.4991C102.658 24.4991 101.141 23.6124 100.418 21.7691L95.1912 23.7991C96.6379 27.3224 99.5545 29.1657 104.385 29.1891C110.148 29.2357 112.855 25.4324 112.855 22.5157C112.855 18.1991 108.981 17.0091 105.621 16.3324ZM115.071 28.7924H120.555V8.79577H115.071V28.7924ZM132.991 16.3324C129.981 15.7258 128.838 15.4224 128.838 14.5358C128.838 13.6491 129.631 12.9024 131.428 12.9024C133.225 12.9024 134.578 13.7891 135.115 15.0958L139.944 13.0658C138.498 10.2658 135.955 8.39911 131.475 8.42244C126.528 8.46911 123.285 11.3391 123.285 14.6991C123.285 18.9691 126.878 20.2057 130.471 20.8591C132.781 21.2791 134.741 21.6291 134.741 22.7024C134.741 23.6591 133.785 24.4991 131.988 24.4991C130.028 24.4991 128.511 23.6124 127.788 21.7691L122.561 23.7991C124.008 27.3224 126.925 29.1657 131.755 29.1891C137.518 29.2357 140.225 25.4324 140.225 22.5157C140.248 18.1991 136.351 17.0091 132.991 16.3324ZM15.0179 18.1758H20.9913V12.3658H15.0179V18.1758ZM20.9913 22.0257C19.4046 23.1691 17.3746 23.7524 15.0879 23.7524C10.0479 23.7524 6.50127 19.9491 6.50127 14.7691V14.6991C6.50127 9.89244 10.0946 5.87911 14.6446 5.87911C17.9113 5.87911 19.8479 6.92911 21.9946 8.72577L25.7746 4.17578C22.8579 1.70245 19.8479 0.349121 14.8313 0.349121C6.3846 0.349121 0.224609 6.85911 0.224609 14.7924V14.8624C0.224609 23.0991 6.1746 29.2124 14.8779 29.2124C19.9646 29.2124 23.9079 27.2291 26.7779 24.8024V18.1758H20.9679V22.0257H20.9913ZM115.071 6.81244H120.555V1.49245H115.071V6.81244Z" fill="#00000A"/>
<path d="M6.10502 43.5159H5.42836L4.77502 42.0459H1.76502L1.11169 43.5159H0.481691L3.00169 37.9159H3.58502L6.10502 43.5159ZM3.28169 38.6626L2.02169 41.4859H4.54169L3.28169 38.6626Z" fill="#00000A"/>
<path d="M11.4946 43.5153H9.55793V37.9619H11.4946C13.2446 37.9619 14.4346 39.1519 14.4346 40.7386C14.4579 42.3019 13.2446 43.5153 11.4946 43.5153ZM11.4946 38.5452H10.1879V42.9319H11.4946C12.8946 42.9319 13.7813 41.9753 13.7813 40.7386C13.8046 39.5019 12.9179 38.5452 11.4946 38.5452Z" fill="#00000A"/>
<path d="M15.6937 37.8454H16.3937V38.5221H15.6937V37.8454ZM15.7171 39.4088H16.3237V43.5155H15.7171V39.4088Z" fill="#00000A"/>
<path d="M19.5684 44.7993C18.8917 44.7993 18.2617 44.6126 17.7017 44.2393L17.9817 43.7726C18.4484 44.1226 18.9617 44.2859 19.5684 44.2859C20.4784 44.2859 21.0617 43.796 21.0617 42.8393V42.3493C20.7117 42.816 20.1984 43.2126 19.4517 43.2126C18.4717 43.2126 17.515 42.4893 17.515 41.276C17.515 40.0626 18.4717 39.3393 19.4517 39.3393C20.2217 39.3393 20.7117 39.7126 21.0617 40.156V39.4093H21.6684V42.7926C21.645 44.1226 20.8284 44.7993 19.5684 44.7993ZM19.5684 39.876C18.7984 39.876 18.145 40.4126 18.145 41.2526C18.145 42.0926 18.7984 42.6526 19.5684 42.6526C20.3384 42.6526 21.085 42.0926 21.085 41.2526C21.0617 40.4126 20.3384 39.876 19.5684 39.876Z" fill="#00000A"/>
<path d="M23.0221 37.8454H23.7221V38.5221H23.0221V37.8454ZM23.0688 39.4088H23.6754V43.5155H23.0688V39.4088Z" fill="#00000A"/>
<path d="M25.915 42.3495C25.915 42.8395 26.195 43.0262 26.615 43.0262C26.825 43.0262 26.9883 42.9795 27.2217 42.8862V43.3995C27.0117 43.5162 26.7783 43.5862 26.475 43.5862C25.8217 43.5862 25.3083 43.2595 25.3083 42.4195V39.9461H24.7483V39.4095H25.3083V38.1728H25.915V39.4095H27.2217V39.9461H25.915V42.3495Z" fill="#00000A"/>
<path d="M28.5279 40.202L28.3412 39.712C28.7846 39.502 29.2279 39.362 29.8346 39.362C30.9546 39.362 31.5846 39.922 31.5846 41.0186V43.5153H31.0012V42.9086C30.7212 43.282 30.2312 43.6086 29.5079 43.6086C28.7379 43.6086 27.9912 43.1886 27.9912 42.3253C27.9912 41.462 28.7146 40.9953 29.7412 40.9953C30.2546 40.9953 30.6279 41.0653 31.0012 41.1586V41.0186C31.0012 40.272 30.5579 39.8986 29.7879 39.8986C29.2979 39.8986 28.9246 40.0153 28.5279 40.202ZM28.5979 42.302C28.5979 42.8153 29.0646 43.1186 29.6246 43.1186C30.3712 43.1186 31.0012 42.652 31.0012 41.9986V41.602C30.6979 41.5086 30.3012 41.4386 29.7879 41.4386C29.0412 41.4386 28.5979 41.7653 28.5979 42.302Z" fill="#00000A"/>
<path d="M33.5454 37.729H32.9388V43.5156H33.5454V37.729Z" fill="#00000A"/>
<path d="M39.9846 43.6094C38.3746 43.6094 37.2079 42.3494 37.2079 40.7394C37.2079 39.1527 38.3746 37.8694 40.0079 37.8694C41.0113 37.8694 41.6179 38.2194 42.1779 38.756L41.7579 39.2227C41.2913 38.7794 40.7779 38.4527 40.0079 38.4527C38.7713 38.4527 37.8613 39.4327 37.8613 40.7394C37.8613 42.0227 38.7946 43.026 40.0079 43.026C40.7779 43.026 41.2679 42.7227 41.8046 42.2327L42.2246 42.6294C41.6179 43.2127 40.9879 43.6094 39.9846 43.6094Z" fill="#00000A"/>
<path d="M46.0975 39.4086H46.7041V43.5153H46.0975V42.7919C45.8175 43.2353 45.3975 43.5853 44.6975 43.5853C43.7175 43.5853 43.1341 42.9086 43.1341 41.9519V39.4086H43.7408V41.8119C43.7408 42.5819 44.1608 43.0486 44.8841 43.0486C45.5841 43.0486 46.1208 42.5352 46.1208 41.7652V39.4086H46.0975Z" fill="#00000A"/>
<path d="M48.6646 43.5155H48.0579V39.4088H48.6646V40.4822C48.9679 39.8055 49.5513 39.3155 50.3446 39.3388V39.9922H50.2979C49.4113 39.9922 48.6646 40.6455 48.6646 41.8588V43.5155Z" fill="#00000A"/>
<path d="M51.8838 43.5155H51.2771V39.4088H51.8838V40.4822C52.1871 39.8055 52.7704 39.3155 53.5638 39.3388V39.9922H53.5171C52.6304 39.9922 51.8838 40.6455 51.8838 41.8588V43.5155Z" fill="#00000A"/>
<path d="M56.2942 43.0727C56.8542 43.0727 57.2508 42.8393 57.5775 42.4893L57.9508 42.8393C57.5308 43.306 57.0408 43.6093 56.2709 43.6093C55.1509 43.6093 54.2175 42.746 54.2175 41.4627C54.2175 40.2727 55.0575 39.316 56.1775 39.316C57.3909 39.316 58.0908 40.2727 58.0908 41.486C58.0908 41.5327 58.0908 41.6027 58.0908 41.6727H54.8475C54.9408 42.5827 55.5709 43.0727 56.2942 43.0727ZM57.4842 41.2293C57.4142 40.4827 56.9942 39.8293 56.1775 39.8293C55.4542 39.8293 54.9175 40.4127 54.8475 41.2293H57.4842Z" fill="#00000A"/>
<path d="M59.7716 43.516H59.1649V39.4093H59.7716V40.1326C60.0516 39.6893 60.4716 39.3393 61.1716 39.3393C62.1516 39.3393 62.7349 40.016 62.7349 40.9726V43.516H62.1283V41.1126C62.1283 40.3426 61.7083 39.876 60.985 39.876C60.285 39.876 59.7483 40.3893 59.7483 41.1593V43.516H59.7716Z" fill="#00000A"/>
<path d="M65.8842 43.6093C64.6942 43.6093 63.7842 42.6293 63.7842 41.486C63.7842 40.3193 64.6942 39.3393 65.8842 39.3393C66.6542 39.3393 67.1442 39.666 67.5175 40.0626L67.1208 40.4826C66.7942 40.1326 66.4208 39.876 65.8842 39.876C65.0442 39.876 64.4142 40.576 64.4142 41.4626C64.4142 42.3493 65.0675 43.0726 65.9075 43.0726C66.4208 43.0726 66.8408 42.816 67.1675 42.466L67.5641 42.8393C67.1441 43.2826 66.6542 43.6093 65.8842 43.6093Z" fill="#00000A"/>
<path d="M70.5754 43.6552C70.2254 44.4952 69.8288 44.8219 69.2221 44.8219C68.8721 44.8219 68.6388 44.7519 68.3588 44.6119L68.5688 44.1219C68.7554 44.2152 68.9421 44.2619 69.1988 44.2619C69.5721 44.2619 69.7821 44.0752 70.0388 43.4919L68.1721 39.4086H68.8488L70.3421 42.8152L71.6488 39.4086H72.3021L70.5754 43.6552Z" fill="#00000A"/>
<path d="M78.2979 43.6094C76.5479 43.6094 75.4746 42.3494 75.4746 40.7394C75.4746 39.1994 76.5946 37.8694 78.2512 37.8694C79.1845 37.8694 79.7679 38.1494 80.3279 38.616L79.9312 39.0827C79.5112 38.7094 79.0212 38.4527 78.2512 38.4527C77.0146 38.4527 76.1512 39.4794 76.1512 40.7394C76.1512 42.0694 76.9912 43.0494 78.3446 43.0494C78.9745 43.0494 79.5579 42.7927 79.9545 42.4894V41.1127H78.2746V40.5527H80.5612V42.7694C80.0245 43.2127 79.2312 43.6094 78.2979 43.6094Z" fill="#00000A"/>
<path d="M82.4504 43.5155H81.8438V39.4088H82.4504V40.4822C82.7538 39.8055 83.3371 39.3155 84.1304 39.3388V39.9922H84.0838C83.1971 39.9922 82.4504 40.6455 82.4504 41.8588V43.5155Z" fill="#00000A"/>
<path d="M86.9075 43.6093C85.6709 43.6093 84.7842 42.6526 84.7842 41.486C84.7842 40.3193 85.6942 39.3393 86.9309 39.3393C88.1675 39.3393 89.0542 40.296 89.0542 41.4626C89.0542 42.6293 88.1442 43.6093 86.9075 43.6093ZM86.9075 39.876C86.0209 39.876 85.4142 40.576 85.4142 41.4626C85.4142 42.3493 86.0675 43.0726 86.9309 43.0726C87.8175 43.0726 88.4242 42.3726 88.4242 41.486C88.4242 40.576 87.7709 39.876 86.9075 39.876Z" fill="#00000A"/>
<path d="M93.0687 39.4086H93.6754V43.5153H93.0687V42.7919C92.7887 43.2353 92.3687 43.5853 91.6687 43.5853C90.6887 43.5853 90.1054 42.9086 90.1054 41.9519V39.4086H90.7121V41.8119C90.7121 42.5819 91.1321 43.0486 91.8554 43.0486C92.5554 43.0486 93.0921 42.5352 93.0921 41.7652V39.4086H93.0687Z" fill="#00000A"/>
<path d="M97.2208 43.6093C96.4508 43.6093 95.9608 43.1893 95.6575 42.746V44.7993H95.0508V39.4326H95.6575V40.2493C95.9841 39.7593 96.4741 39.3393 97.2208 39.3393C98.2008 39.3393 99.1808 40.1093 99.1808 41.4626C99.1808 42.816 98.2008 43.6093 97.2208 43.6093ZM97.1041 39.876C96.3341 39.876 95.6108 40.506 95.6108 41.4626C95.6108 42.4193 96.3341 43.0493 97.1041 43.0493C97.8975 43.0493 98.5508 42.466 98.5508 41.4626C98.5508 40.4826 97.8741 39.876 97.1041 39.876Z" fill="#00000A"/>
<path d="M105.318 43.6094C103.708 43.6094 102.541 42.3494 102.541 40.7394C102.541 39.1527 103.708 37.8694 105.341 37.8694C106.345 37.8694 106.951 38.2194 107.511 38.756L107.091 39.2227C106.625 38.7794 106.111 38.4527 105.341 38.4527C104.105 38.4527 103.195 39.4327 103.195 40.7394C103.195 42.0227 104.128 43.026 105.341 43.026C106.111 43.026 106.601 42.7227 107.138 42.2327L107.558 42.6294C106.951 43.2127 106.321 43.6094 105.318 43.6094Z" fill="#00000A"/>
<path d="M110.381 43.6093C109.145 43.6093 108.258 42.6526 108.258 41.486C108.258 40.3193 109.168 39.3393 110.405 39.3393C111.641 39.3393 112.528 40.296 112.528 41.4626C112.528 42.6293 111.618 43.6093 110.381 43.6093ZM110.381 39.876C109.495 39.876 108.888 40.576 108.888 41.4626C108.888 42.3493 109.541 43.0726 110.405 43.0726C111.291 43.0726 111.898 42.3726 111.898 41.486C111.921 40.576 111.245 39.876 110.381 39.876Z" fill="#00000A"/>
<path d="M118.338 39.3393C119.272 39.3393 119.855 39.9693 119.855 40.996V43.516H119.248V41.1126C119.248 40.3193 118.852 39.876 118.198 39.876C117.592 39.876 117.055 40.3426 117.055 41.136V43.516H116.448V41.1126C116.448 40.3426 116.052 39.8993 115.398 39.8993C114.745 39.8993 114.255 40.436 114.255 41.1826V43.516H113.648V39.4326H114.255V40.1326C114.535 39.736 114.885 39.3626 115.585 39.3626C116.238 39.3626 116.682 39.7126 116.892 40.1793C117.172 39.6893 117.615 39.3393 118.338 39.3393Z" fill="#00000A"/>
<path d="M123.354 43.6093C122.584 43.6093 122.094 43.1893 121.791 42.746V44.7993H121.184V39.4326H121.791V40.2493C122.117 39.7593 122.607 39.3393 123.354 39.3393C124.334 39.3393 125.314 40.1093 125.314 41.4626C125.314 42.816 124.334 43.6093 123.354 43.6093ZM123.237 39.876C122.467 39.876 121.744 40.506 121.744 41.4626C121.744 42.4193 122.467 43.0493 123.237 43.0493C124.031 43.0493 124.684 42.466 124.684 41.4626C124.684 40.4826 124.007 39.876 123.237 39.876Z" fill="#00000A"/>
<path d="M126.668 40.202L126.482 39.712C126.925 39.502 127.368 39.362 127.975 39.362C129.095 39.362 129.725 39.922 129.725 41.0186V43.5153H129.142V42.9086C128.862 43.282 128.372 43.6086 127.648 43.6086C126.878 43.6086 126.132 43.1886 126.132 42.3253C126.132 41.462 126.855 40.9953 127.882 40.9953C128.395 40.9953 128.768 41.0653 129.142 41.1586V41.0186C129.142 40.272 128.698 39.8986 127.928 39.8986C127.438 39.8986 127.042 40.0153 126.668 40.202ZM126.738 42.302C126.738 42.8153 127.205 43.1186 127.765 43.1186C128.512 43.1186 129.142 42.652 129.142 41.9986V41.602C128.838 41.5086 128.442 41.4386 127.928 41.4386C127.158 41.4386 126.738 41.7653 126.738 42.302Z" fill="#00000A"/>
<path d="M131.615 43.516H131.008V39.4093H131.615V40.1326C131.895 39.6893 132.315 39.3393 133.015 39.3393C133.995 39.3393 134.578 40.016 134.578 40.9726V43.516H133.971V41.1126C133.971 40.3426 133.551 39.876 132.828 39.876C132.128 39.876 131.591 40.3893 131.591 41.1593V43.516H131.615Z" fill="#00000A"/>
<path d="M137.892 43.6552C137.542 44.4952 137.145 44.8219 136.539 44.8219C136.189 44.8219 135.955 44.7519 135.675 44.6119L135.885 44.1219C136.072 44.2152 136.259 44.2619 136.515 44.2619C136.889 44.2619 137.122 44.0752 137.355 43.4919L135.489 39.4086H136.165L137.659 42.8152L138.965 39.4086H139.619L137.892 43.6552Z" fill="#00000A"/>
</svg>
