<svg xmlns="http://www.w3.org/2000/svg" width="141" height="42" viewBox="0 0 141 42" fill="none"><path d="M51.7955 39.2212L53.7378 36.3355C55.8466 37.7229 57.7888 38.4443 59.5092 38.4443C61.1185 38.4443 62.3948 38.1668 63.3382 37.6119C64.2816 37.0569 64.7256 36.3355 64.7256 35.5031C64.7256 33.8383 63.5602 33.0614 61.174 33.0614C60.7855 33.0614 60.0086 33.1724 58.9542 33.3389C57.8998 33.5608 57.0674 33.6163 56.457 33.6163C53.5713 33.6163 52.1285 32.5065 52.1285 30.3422C52.1285 29.6763 52.4614 29.0658 53.1274 28.5109C53.7933 27.956 54.6257 27.5675 55.6246 27.3455C52.7944 26.0137 51.3516 23.6829 51.3516 20.3533C51.3516 18.2446 52.073 16.4688 53.5713 15.0259C55.0696 13.6386 56.8454 12.9171 59.0652 12.9171C61.063 12.9171 62.6168 13.3056 63.7267 14.138L65.5025 11.9738L67.8332 14.1935L65.669 15.8028C66.6124 17.0237 67.0563 18.5775 67.0563 20.5198C67.0563 22.5731 66.3904 24.2934 65.1695 25.6807C63.8932 27.0681 62.2283 27.845 60.1751 28.067L57.1784 28.3444C56.8454 28.3999 56.346 28.5109 55.7356 28.7329C55.1251 28.9549 54.8477 29.2878 54.8477 29.6763C54.8477 30.1757 55.4581 30.4532 56.679 30.4532C57.2339 30.4532 58.0663 30.3422 59.2317 30.1757C60.3971 30.0092 61.2295 29.8982 61.7844 29.8982C63.7822 29.8982 65.336 30.3977 66.4459 31.3411C67.5557 32.2845 68.1107 33.6163 68.1107 35.3366C68.1107 37.2234 67.2783 38.7218 65.6135 39.8871C63.9487 41.0525 61.8399 41.6074 59.2872 41.6074C57.9553 41.6074 56.568 41.3855 55.1251 40.886C53.8488 40.4421 52.6834 39.8871 51.7955 39.2212ZM59.4537 15.8583C58.2328 15.8583 57.1784 16.3023 56.4015 17.1902C55.6246 18.0781 55.2361 19.1325 55.2361 20.4088C55.2361 21.7962 55.6246 23.017 56.4015 23.9049C57.1784 24.8483 58.1773 25.2923 59.5092 25.2923C60.7855 25.2923 61.7844 24.8483 62.5058 23.9604C63.2272 23.0725 63.5602 21.8516 63.5602 20.4088C63.5602 19.1325 63.1717 18.0781 62.3948 17.1902C61.5624 16.3023 60.619 15.8583 59.4537 15.8583Z" fill="#051A29"></path><path d="M71.3848 27.9004V5.03699H74.9919V27.29C74.9919 28.3999 75.3248 29.2323 75.9353 29.8427C76.5457 30.4531 77.3781 30.7861 78.377 30.7861V34.0047C73.7155 34.0047 71.3848 32.007 71.3848 27.9004Z" fill="#051A29"></path><path d="M79.4316 23.4613C79.4316 20.3537 80.264 17.801 81.9843 15.8587C83.7047 13.9164 85.8689 12.973 88.6436 12.973C91.5293 12.973 93.8045 13.9164 95.4139 15.7477C97.0232 17.579 97.8001 20.1872 97.8001 23.4613C97.8001 26.7355 96.9677 29.2882 95.3584 31.175C93.6935 33.0618 91.4738 34.0052 88.6436 34.0052C85.7579 34.0052 83.4827 33.0618 81.8734 31.1195C80.2086 29.2882 79.4316 26.68 79.4316 23.4613ZM83.2052 23.4613C83.2052 28.5668 84.981 31.1195 88.5881 31.1195C90.2529 31.1195 91.5848 30.4536 92.5282 29.0662C93.4716 27.6789 93.971 25.8476 93.971 23.4613C93.971 18.4669 92.1952 15.9142 88.5881 15.9142C86.9233 15.9142 85.6469 16.5801 84.6481 17.912C83.7047 19.2438 83.2052 21.1306 83.2052 23.4613Z" fill="#051A29"></path><path d="M104.626 32.1734L103.35 34.0047H101.574V5.03699H105.181V14.8594C105.514 14.4154 106.18 13.9715 107.124 13.583C108.067 13.1946 109.01 12.9726 109.898 12.9726C112.673 12.9726 114.948 13.916 116.669 15.8583C118.389 17.8006 119.277 20.1868 119.277 23.128C119.277 26.5131 118.389 29.1768 116.669 31.1191C114.948 33.0613 112.617 34.0047 109.621 34.0047C108.677 34.0047 107.734 33.8383 106.791 33.4498C105.792 33.1168 105.126 32.6729 104.626 32.1734ZM105.181 17.5786V29.2878C105.181 29.5097 105.625 29.8427 106.513 30.2867C107.401 30.7306 108.067 30.9526 108.566 30.9526C111.008 30.9526 112.784 30.3422 113.838 29.1768C114.893 28.0114 115.448 26.0136 115.448 23.2389C115.448 20.9637 114.837 19.1324 113.616 17.8561C112.396 16.5797 110.731 15.9138 108.622 15.9138C108.178 15.9138 107.568 16.0803 106.791 16.4687C105.903 16.9682 105.403 17.3011 105.181 17.5786Z" fill="#051A29"></path><path d="M140.253 23.8498H125.603C125.603 26.236 126.268 28.0673 127.545 29.3437C128.71 30.4536 130.153 31.0085 131.984 31.0085C134.038 31.0085 135.758 30.3981 137.145 29.2327L138.644 31.8409C138.089 32.3958 137.256 32.8953 136.091 33.2837C134.648 33.8387 133.039 34.0607 131.263 34.0607C128.71 34.0607 126.546 33.1728 124.77 31.4525C122.772 29.5657 121.773 26.9575 121.773 23.7388C121.773 20.4092 122.772 17.69 124.826 15.6922C126.657 13.9164 128.821 12.973 131.263 12.973C134.149 12.973 136.424 13.8054 138.033 15.4147C139.642 16.9686 140.419 19.0773 140.419 21.6301C140.53 22.4625 140.419 23.1839 140.253 23.8498ZM131.54 16.0252C129.931 16.0252 128.599 16.5246 127.489 17.579C126.435 18.5779 125.88 19.7988 125.713 21.2416H136.979C136.979 19.7988 136.535 18.5779 135.591 17.6345C134.592 16.5246 133.261 16.0252 131.54 16.0252Z" fill="#051A29"></path><path d="M39.8642 15.6912H29.8199H20.4414V24.6812H29.9308C28.266 28.2883 24.6589 30.7855 20.4414 30.7855V40.2749C31.4847 40.2749 40.4192 31.3404 40.4192 20.2971V15.6912H39.8642Z" fill="#051A29"></path><path d="M20.4407 0.319824C9.39739 0.319824 0.462891 9.25432 0.462891 20.2421H9.95233C9.95233 14.4707 14.6693 9.80926 20.4407 9.80926V0.319824Z" fill="#051A29"></path></svg>