<svg xmlns="http://www.w3.org/2000/svg" width="141" height="46" viewBox="0 0 141 46" fill="none"><path d="M109.389 4.94005C111.465 3.74156 113.636 2.80426 115.917 2.12071C119.022 1.1899 122.197 0.764143 125.437 0.828024C126.947 0.857856 129.465 1.10884 129.884 1.25832C129.894 1.2974 129.86 1.29999 129.839 1.30859C129.688 1.36858 129.536 1.42386 129.386 1.48645C126.718 2.6029 124.813 4.95626 124.269 7.80462C124.18 8.27043 124.136 8.74029 124.121 9.21404C124.099 9.93132 124.033 10.6419 123.836 11.3372C123.127 13.8515 121.062 15.8158 118.513 16.3928C115.171 17.1495 111.8 15.503 110.345 12.4066C110.264 12.2336 110.206 12.0571 110.164 11.8722C109.924 10.8242 109.738 9.76659 109.61 8.69943C109.467 7.51764 109.39 6.33148 109.389 5.14077C109.389 5.08029 109.389 5.01965 109.389 4.94005Z" fill="white"></path><path d="M133.296 24.3662C133.324 24.0568 133.356 23.775 133.372 23.4925C133.461 21.8797 133.115 20.3631 132.344 18.9457C131.611 17.5979 130.585 16.5253 129.276 15.7242C129.155 15.6501 129.033 15.5784 128.913 15.5025C127.121 14.3682 126.004 12.7617 125.614 10.6791C124.91 6.92324 127.285 3.28578 131.001 2.38967C132.307 2.07481 133.601 2.11956 134.882 2.52116C135.935 2.8511 136.947 3.28221 137.945 3.74802C138.637 4.07099 139.314 4.42364 139.98 4.79897C140.056 4.84194 140.131 4.88766 140.215 4.93711C140.218 4.99629 140.224 5.05595 140.224 5.11578C140.224 5.98141 140.181 6.84493 140.106 7.70732C139.994 8.97439 139.805 10.2295 139.536 11.4727C138.746 15.1319 137.327 18.5299 135.294 21.6722C134.729 22.5467 134.118 23.3892 133.465 24.2005C133.42 24.2558 133.385 24.3244 133.296 24.3662Z" fill="white"></path><path d="M124.827 31.6142C124.586 31.517 123.83 31.0553 123.05 30.5314C121.275 29.3409 119.641 27.982 118.148 26.4539C116.654 24.9258 115.333 23.2614 114.185 21.4593C113.121 19.7899 112.226 18.0347 111.504 16.1916C111.487 16.1496 111.477 16.1051 111.453 16.0247C111.526 16.0721 111.57 16.0961 111.609 16.1265C112.173 16.5643 112.779 16.9291 113.432 17.2157C114.262 17.5799 115.126 17.8105 116.029 17.8965C117.867 18.0723 119.586 17.6992 121.198 16.7939C122.041 16.3203 122.945 16.0126 123.912 15.8918C127.294 15.4691 130.671 17.4794 131.721 20.9823C132.261 22.7841 132.086 24.5369 131.272 26.2287C131.167 26.4479 131.055 26.6639 130.944 26.8807C130.877 27.0139 130.792 27.1343 130.682 27.238C128.962 28.8665 127.086 30.2892 125.044 31.4903C124.969 31.5347 124.893 31.5765 124.827 31.6142Z" fill="white"></path><path d="M0.224609 16.4471H8.19054V20.4626C8.64419 19.8649 9.14226 19.2925 9.68411 18.7469C10.2255 18.2019 10.8281 17.7187 11.4922 17.296C12.1553 16.8737 12.8892 16.5395 13.6932 16.2929C14.4966 16.0463 15.4047 15.9229 16.4183 15.9229C19.4577 15.9229 21.807 16.849 23.4667 18.7004C25.1258 20.5525 25.956 23.1025 25.956 26.3515V44.5365H17.9904V28.9056C17.9904 27.0239 17.5709 25.6031 16.7327 24.6452C15.8941 23.687 14.7059 23.2071 13.1688 23.2071C11.6312 23.2071 10.4174 23.687 9.52652 24.6452C8.63592 25.6031 8.19022 27.0239 8.19022 28.9056V44.5365H0.224609V16.4471Z" fill="white"></path><path d="M45.6014 45.1654C43.5054 45.1654 41.557 44.8157 39.7583 44.1174C37.9583 43.4188 36.4043 42.4231 35.0942 41.1301C33.7839 39.8381 32.7619 38.3093 32.0285 36.5445C31.2946 34.7806 30.9277 32.8156 30.9277 30.6488V30.5441C30.9277 28.5528 31.2684 26.666 31.9495 24.8845C32.6311 23.1027 33.5825 21.5485 34.806 20.2204C36.0284 18.8929 37.4868 17.8448 39.1819 17.076C40.8759 16.3078 42.7536 15.9229 44.8156 15.9229C47.156 15.9229 49.1825 16.342 50.8946 17.1806C52.6061 18.0191 54.0303 19.1456 55.1658 20.5609C56.3008 21.9757 57.1393 23.6006 57.6813 25.4345C58.2227 27.2685 58.4938 29.1817 58.4938 31.173C58.4938 31.4874 58.4847 31.8199 58.4677 32.1687C58.4495 32.5184 58.4234 32.8851 58.3892 33.2694H38.8413C39.2252 35.0863 40.0202 36.4581 41.2256 37.3832C42.4311 38.3093 43.9247 38.7719 45.7065 38.7719C47.0337 38.7719 48.222 38.5454 49.27 38.0906C50.3184 37.6369 51.4006 36.9033 52.5193 35.8895L57.0785 39.9248C55.7503 41.5674 54.1439 42.8513 52.2573 43.7769C50.3708 44.7021 48.1515 45.1654 45.6014 45.1654ZM50.7375 28.2906C50.4925 26.5089 49.8636 25.0676 48.8509 23.9672C47.8371 22.8664 46.4925 22.3162 44.8156 22.3162C43.1383 22.3162 41.784 22.8585 40.7541 23.9411C39.7233 25.0243 39.0508 26.4745 38.7364 28.2906H50.7375Z" fill="white"></path><path d="M63.465 16.4471H71.4309V20.4626C71.8846 19.8649 72.3827 19.2925 72.9245 18.7469C73.4659 18.2019 74.0685 17.7187 74.7326 17.296C75.3957 16.8737 76.1383 16.5395 76.9598 16.2929C77.7804 16.0463 78.6974 15.9229 79.7113 15.9229C81.5627 15.9229 83.161 16.3101 84.5063 17.084C85.8511 17.8586 86.891 18.9663 87.6245 20.4093C88.847 18.9321 90.2097 17.8144 91.7122 17.0578C93.2142 16.3013 94.9263 15.9229 96.8481 15.9229C99.8172 15.9229 102.141 16.7968 103.818 18.5431C105.495 20.2908 106.334 22.8586 106.334 26.2469V44.5365H98.3679V28.9056C98.3679 27.0239 97.966 25.6031 97.1625 24.6452C96.3584 23.687 95.2054 23.2071 93.7037 23.2071C92.201 23.2071 91.0218 23.687 90.1661 24.6452C89.3097 25.6031 88.8822 27.0239 88.8822 28.9056V44.5365H80.9165V28.9056C80.9165 27.0239 80.5146 25.6031 79.7111 24.6452C78.9071 23.687 77.754 23.2071 76.2523 23.2071C74.7496 23.2071 73.5705 23.687 72.7147 24.6452C71.8583 25.6031 71.4308 27.0239 71.4308 28.9056V44.5365H63.4648V16.4471H63.465Z" fill="white"></path></svg>