<svg xmlns="http://www.w3.org/2000/svg" width="141" height="33" viewBox="0 0 141 33" fill="none"><path fill-rule="evenodd" clip-rule="evenodd" d="M91.9253 8.53699L91.9253 25.057L90.9453 25.057L90.9453 8.53699L91.9253 8.53699Z" fill="#EB1E22"></path><path d="M54.8257 12.8772V20.6472H53.8457V12.8772H54.8257Z" fill="#EB1E22"></path><path fill-rule="evenodd" clip-rule="evenodd" d="M70.0857 12.8772H66.0257V20.6472H67.0057V17.7422H70.0857C70.743 17.7422 71.2757 17.2094 71.2757 16.5522V14.0672C71.2757 13.41 70.743 12.8772 70.0857 12.8772ZM70.0857 16.7622H67.0057V13.8572H70.0857C70.2017 13.8572 70.2957 13.9512 70.2957 14.0672V16.5522C70.2957 16.6682 70.2017 16.7622 70.0857 16.7622Z" fill="#EB1E22"></path><path d="M73.6558 19.4572V12.9472H74.6358V19.4572C74.6358 19.5732 74.7298 19.6672 74.8458 19.6672H78.3458C78.4617 19.6672 78.5558 19.5732 78.5558 19.4572V12.9472H79.5358V19.4572C79.5358 20.1144 79.003 20.6472 78.3458 20.6472H74.8458C74.1885 20.6472 73.6558 20.1144 73.6558 19.4572Z" fill="#EB1E22"></path><path d="M81.0758 13.9272H83.4558V20.6472H84.4358V13.9272H86.8158V12.9472H81.0758V13.9272Z" fill="#EB1E22"></path><path d="M62.4557 12.8772V18.9526L58.4244 12.8772H57.4857V20.6472H58.4657V14.7119L62.3576 20.6472H63.4357V12.8772H62.4557Z" fill="#EB1E22"></path><path fill-rule="evenodd" clip-rule="evenodd" d="M120.065 12.8772H124.125C124.782 12.8772 125.315 13.41 125.315 14.0672V16.5522C125.315 17.2094 124.782 17.7422 124.125 17.7422H121.045V20.6472H120.065V12.8772ZM121.045 16.7622H124.125C124.241 16.7622 124.335 16.6682 124.335 16.5522V14.0672C124.335 13.9512 124.241 13.8572 124.125 13.8572H121.045V16.7622Z" fill="#1D1D1B"></path><path fill-rule="evenodd" clip-rule="evenodd" d="M127.765 19.4572V12.8772H128.745V19.4572C128.745 19.5732 128.839 19.6672 128.955 19.6672H132.455C132.571 19.6672 132.665 19.5732 132.665 19.4572V12.8772H133.645V19.4572C133.645 20.1144 133.112 20.6472 132.455 20.6472H128.955C128.298 20.6472 127.765 20.1144 127.765 19.4572Z" fill="#1D1D1B"></path><path fill-rule="evenodd" clip-rule="evenodd" d="M97.7349 13.9272C97.6189 13.9272 97.5249 14.0212 97.5249 14.1372V19.4572C97.5249 19.5732 97.6189 19.6672 97.7349 19.6672H101.375C101.491 19.6672 101.585 19.5732 101.585 19.4572V14.1372C101.585 14.0212 101.491 13.9272 101.375 13.9272H97.7349ZM96.5449 14.1372C96.5449 13.48 97.0777 12.9472 97.7349 12.9472H101.375C102.032 12.9472 102.565 13.48 102.565 14.1372V19.4572C102.565 20.1144 102.032 20.6472 101.375 20.6472H97.7349C97.0777 20.6472 96.5449 20.1144 96.5449 19.4572V14.1372Z" fill="#1D1D1B"></path><path fill-rule="evenodd" clip-rule="evenodd" d="M105.225 19.4572V12.8772H106.205V19.4572C106.205 19.5732 106.299 19.6672 106.415 19.6672H110.055C110.171 19.6672 110.265 19.5732 110.265 19.4572V12.8772H111.245V19.4572C111.245 20.1144 110.712 20.6472 110.055 20.6472H106.415C105.758 20.6472 105.225 20.1144 105.225 19.4572Z" fill="#1D1D1B"></path><path fill-rule="evenodd" clip-rule="evenodd" d="M137.565 13.8572H135.185V12.8772H140.225V13.8572H138.545V20.6472H137.565V13.8572Z" fill="#1D1D1B"></path><path fill-rule="evenodd" clip-rule="evenodd" d="M115.095 13.8572H112.715V12.8772H118.455V13.8572H116.075V20.6472H115.095V13.8572Z" fill="#1D1D1B"></path><path fill-rule="evenodd" clip-rule="evenodd" d="M1.55461 0.627197C0.820072 0.627197 0.224609 1.22266 0.224609 1.9572C0.224609 2.69174 0.820072 3.2872 1.55461 3.2872C2.21699 3.2872 2.76627 2.803 2.86781 2.16924C8.2229 2.23481 13.0549 3.87817 16.5655 6.49267C19.8048 8.90518 21.9104 12.1363 22.2847 15.716C20.193 11.7093 14.3649 5.61614 5.38725 5.94166C5.28425 5.30963 4.73577 4.82721 4.07462 4.82721C3.34008 4.82721 2.74462 5.42267 2.74462 6.15721C2.74462 6.89175 3.34008 7.48722 4.07462 7.48722C4.73956 7.48722 5.29053 6.99925 5.38897 6.36188C14.1238 6.03904 19.8155 11.9442 21.8786 15.8453C20.8057 14.8781 19.1761 13.6433 17.205 12.5534C14.6399 11.1352 11.4782 9.95229 8.19737 9.93737C8.12747 9.26856 7.56193 8.74722 6.87463 8.74722C6.14009 8.74722 5.54462 9.34268 5.54462 10.0772C5.54462 10.8118 6.14009 11.4072 6.87463 11.4072C7.51309 11.4072 8.04649 10.9573 8.17509 10.3573C11.3676 10.367 14.4664 11.5192 17.0018 12.921C19.0143 14.0337 20.6603 15.2973 21.703 16.2532C18.9954 15.2852 14.2068 13.9268 10.7095 13.6559C10.6125 13.0169 10.0608 12.5272 9.39464 12.5272C8.66009 12.5272 8.06463 13.1227 8.06463 13.8572C8.06463 14.5918 8.66009 15.1872 9.39464 15.1872C10.0543 15.1872 10.6018 14.707 10.7066 14.077C14.0789 14.3436 18.6853 15.6353 21.3885 16.5872H14.0682C13.9675 15.9525 13.4177 15.4672 12.7546 15.4672C12.0201 15.4672 11.4246 16.0627 11.4246 16.7972C11.4246 17.5318 12.0201 18.1272 12.7546 18.1272C13.4177 18.1272 13.9675 17.642 14.0682 17.0072H21.3885C18.6853 17.9592 14.0789 19.2509 10.7066 19.5175C10.6018 18.8875 10.0543 18.4072 9.39464 18.4072C8.66009 18.4072 8.06463 19.0027 8.06463 19.7372C8.06463 20.4718 8.66009 21.0673 9.39464 21.0673C10.0608 21.0673 10.6125 20.5776 10.7095 19.9385C14.2068 19.6677 18.9954 18.3093 21.703 17.3413C20.6603 18.2972 19.0143 19.5607 17.0018 20.6735C14.4664 22.0753 11.3676 23.2275 8.17509 23.2372C8.04649 22.6371 7.51309 22.1873 6.87463 22.1873C6.14009 22.1873 5.54462 22.7827 5.54462 23.5173C5.54462 24.2518 6.14009 24.8473 6.87463 24.8473C7.56193 24.8473 8.12747 24.3259 8.19737 23.6571C11.4782 23.6422 14.6399 22.4593 17.205 21.041C19.1761 19.9512 20.8057 18.7164 21.8786 17.7492C19.8155 21.6503 14.1238 27.5554 5.38897 27.2326C5.29053 26.5952 4.73956 26.1073 4.07462 26.1073C3.34008 26.1073 2.74462 26.7027 2.74462 27.4373C2.74462 28.1718 3.34008 28.7673 4.07462 28.7673C4.73577 28.7673 5.28425 28.2849 5.38725 27.6528C14.3649 27.9783 20.193 21.8852 22.2847 17.8785C21.9104 21.4582 19.8048 24.6893 16.5655 27.1018C13.0549 29.7163 8.2229 31.3597 2.86781 31.4252C2.76627 30.7915 2.21699 30.3073 1.55461 30.3073C0.820072 30.3073 0.224609 30.9027 0.224609 31.6373C0.224609 32.3718 0.820072 32.9673 1.55461 32.9673C2.2184 32.9673 2.76861 32.481 2.86845 31.8453C8.30534 31.7796 13.2271 30.1118 16.8164 27.4387C20.4382 24.7412 22.7136 21.0102 22.7638 16.8672H22.7647C22.7647 16.8439 22.7646 16.8206 22.7645 16.7972C22.7646 16.7739 22.7647 16.7506 22.7647 16.7272H22.7638C22.7136 12.5843 20.4382 8.85323 16.8164 6.15583C13.2271 3.48268 8.30534 1.81492 2.86845 1.74922C2.76861 1.11347 2.2184 0.627197 1.55461 0.627197ZM0.644611 1.9572C0.644611 1.45462 1.05203 1.0472 1.55461 1.0472C2.05719 1.0472 2.46462 1.45462 2.46462 1.9572C2.46462 2.45978 2.05719 2.8672 1.55461 2.8672C1.05203 2.8672 0.644611 2.45978 0.644611 1.9572ZM4.07462 5.24721C3.57204 5.24721 3.16462 5.65463 3.16462 6.15721C3.16462 6.65979 3.57204 7.06721 4.07462 7.06721C4.5772 7.06721 4.98462 6.65979 4.98462 6.15721C4.98462 5.65463 4.5772 5.24721 4.07462 5.24721ZM5.96463 10.0772C5.96463 9.57464 6.37205 9.16722 6.87463 9.16722C7.37721 9.16722 7.78463 9.57464 7.78463 10.0772C7.78463 10.5798 7.37721 10.9872 6.87463 10.9872C6.37205 10.9872 5.96463 10.5798 5.96463 10.0772ZM9.39464 12.9472C8.89205 12.9472 8.48463 13.3547 8.48463 13.8572C8.48463 14.3598 8.89205 14.7672 9.39464 14.7672C9.89722 14.7672 10.3046 14.3598 10.3046 13.8572C10.3046 13.3547 9.89722 12.9472 9.39464 12.9472ZM11.8446 16.7972C11.8446 16.2947 12.2521 15.8872 12.7546 15.8872C13.2572 15.8872 13.6646 16.2947 13.6646 16.7972C13.6646 17.2998 13.2572 17.7072 12.7546 17.7072C12.2521 17.7072 11.8446 17.2998 11.8446 16.7972ZM1.55461 32.5473C1.05203 32.5473 0.644611 32.1399 0.644611 31.6373C0.644611 31.1347 1.05203 30.7273 1.55461 30.7273C2.05719 30.7273 2.46462 31.1347 2.46462 31.6373C2.46462 32.1399 2.05719 32.5473 1.55461 32.5473ZM3.16462 27.4373C3.16462 27.9398 3.57204 28.3473 4.07462 28.3473C4.5772 28.3473 4.98462 27.9398 4.98462 27.4373C4.98462 26.9347 4.5772 26.5273 4.07462 26.5273C3.57204 26.5273 3.16462 26.9347 3.16462 27.4373ZM6.87463 24.4273C6.37205 24.4273 5.96463 24.0198 5.96463 23.5173C5.96463 23.0147 6.37205 22.6073 6.87463 22.6073C7.37721 22.6073 7.78463 23.0147 7.78463 23.5173C7.78463 24.0198 7.37721 24.4273 6.87463 24.4273ZM8.48463 19.7372C8.48463 20.2398 8.89205 20.6473 9.39464 20.6473C9.89722 20.6473 10.3046 20.2398 10.3046 19.7372C10.3046 19.2347 9.89722 18.8272 9.39464 18.8272C8.89205 18.8272 8.48463 19.2347 8.48463 19.7372Z" fill="#EB1E22"></path><path fill-rule="evenodd" clip-rule="evenodd" d="M44.5362 0.627197C45.2708 0.627197 45.8662 1.22266 45.8662 1.9572C45.8662 2.69174 45.2708 3.2872 44.5362 3.2872C43.8739 3.2872 43.3246 2.803 43.223 2.16924C37.8679 2.23481 33.0359 3.87817 29.5253 6.49267C26.286 8.90518 24.1804 12.1363 23.8061 15.716C25.8978 11.7093 31.7259 5.61614 40.7036 5.94166C40.8066 5.30963 41.3551 4.82721 42.0162 4.82721C42.7508 4.82721 43.3462 5.42267 43.3462 6.15721C43.3462 6.89175 42.7508 7.48722 42.0162 7.48722C41.3513 7.48722 40.8003 6.99925 40.7019 6.36188C31.9671 6.03904 26.2754 11.9442 24.2123 15.8453C25.2851 14.8781 26.9147 13.6433 28.8858 12.5534C31.4509 11.1352 34.6126 9.95229 37.8935 9.93737C37.9634 9.26856 38.5289 8.74722 39.2162 8.74722C39.9508 8.74722 40.5462 9.34268 40.5462 10.0772C40.5462 10.8118 39.9508 11.4072 39.2162 11.4072C38.5777 11.4072 38.0444 10.9573 37.9158 10.3573C34.7233 10.367 31.6244 11.5192 29.089 12.921C27.0765 14.0337 25.4306 15.2973 24.3878 16.2532C27.0955 15.2852 31.8841 13.9268 35.3813 13.6559C35.4784 13.0169 36.0301 12.5272 36.6962 12.5272C37.4307 12.5272 38.0262 13.1227 38.0262 13.8572C38.0262 14.5918 37.4307 15.1872 36.6962 15.1872C36.0365 15.1872 35.489 14.707 35.3843 14.077C32.012 14.3436 27.4056 15.6353 24.7023 16.5872H32.0227C32.1234 15.9525 32.6731 15.4672 33.3362 15.4672C34.0707 15.4672 34.6662 16.0627 34.6662 16.7972C34.6662 17.5318 34.0707 18.1272 33.3362 18.1272C32.6731 18.1272 32.1234 17.642 32.0227 17.0072H24.7023C27.4056 17.9592 32.012 19.2509 35.3843 19.5175C35.489 18.8875 36.0365 18.4072 36.6962 18.4072C37.4307 18.4072 38.0262 19.0027 38.0262 19.7372C38.0262 20.4718 37.4307 21.0673 36.6962 21.0673C36.0301 21.0673 35.4784 20.5776 35.3813 19.9385C31.8841 19.6677 27.0955 18.3093 24.3878 17.3413C25.4306 18.2972 27.0765 19.5607 29.089 20.6735C31.6244 22.0753 34.7233 23.2275 37.9158 23.2372C38.0444 22.6371 38.5777 22.1873 39.2162 22.1873C39.9508 22.1873 40.5462 22.7827 40.5462 23.5173C40.5462 24.2518 39.9508 24.8473 39.2162 24.8473C38.5289 24.8473 37.9634 24.3259 37.8935 23.6571C34.6126 23.6422 31.4509 22.4593 28.8858 21.041C26.9147 19.9512 25.2851 18.7164 24.2123 17.7492C26.2754 21.6503 31.9671 27.5554 40.7019 27.2326C40.8003 26.5952 41.3513 26.1073 42.0162 26.1073C42.7508 26.1073 43.3462 26.7027 43.3462 27.4373C43.3462 28.1718 42.7508 28.7673 42.0162 28.7673C41.3551 28.7673 40.8066 28.2849 40.7036 27.6528C31.7259 27.9783 25.8978 21.8852 23.8061 17.8785C24.1804 21.4582 26.286 24.6893 29.5253 27.1018C33.0359 29.7163 37.8679 31.3597 43.223 31.4252C43.3246 30.7915 43.8739 30.3073 44.5362 30.3073C45.2708 30.3073 45.8662 30.9027 45.8662 31.6373C45.8662 32.3718 45.2708 32.9673 44.5362 32.9673C43.8724 32.9673 43.3222 32.481 43.2224 31.8453C37.7855 31.7796 32.8638 30.1118 29.2745 27.4387C25.6526 24.7412 23.3772 21.0102 23.327 16.8672H23.3262C23.3262 16.8439 23.3262 16.8206 23.3264 16.7972C23.3262 16.7739 23.3262 16.7506 23.3262 16.7272H23.327C23.3772 12.5843 25.6526 8.85323 29.2745 6.15583C32.8638 3.48268 37.7855 1.81492 43.2224 1.74922C43.3222 1.11347 43.8724 0.627197 44.5362 0.627197ZM45.4462 1.9572C45.4462 1.45462 45.0388 1.0472 44.5362 1.0472C44.0337 1.0472 43.6262 1.45462 43.6262 1.9572C43.6262 2.45978 44.0337 2.8672 44.5362 2.8672C45.0388 2.8672 45.4462 2.45978 45.4462 1.9572ZM42.0162 5.24721C42.5188 5.24721 42.9262 5.65463 42.9262 6.15721C42.9262 6.65979 42.5188 7.06721 42.0162 7.06721C41.5136 7.06721 41.1062 6.65979 41.1062 6.15721C41.1062 5.65463 41.5136 5.24721 42.0162 5.24721ZM40.1262 10.0772C40.1262 9.57464 39.7188 9.16722 39.2162 9.16722C38.7136 9.16722 38.3062 9.57464 38.3062 10.0772C38.3062 10.5798 38.7136 10.9872 39.2162 10.9872C39.7188 10.9872 40.1262 10.5798 40.1262 10.0772ZM36.6962 12.9472C37.1988 12.9472 37.6062 13.3547 37.6062 13.8572C37.6062 14.3598 37.1988 14.7672 36.6962 14.7672C36.1936 14.7672 35.7862 14.3598 35.7862 13.8572C35.7862 13.3547 36.1936 12.9472 36.6962 12.9472ZM34.2462 16.7972C34.2462 16.2947 33.8388 15.8872 33.3362 15.8872C32.8336 15.8872 32.4262 16.2947 32.4262 16.7972C32.4262 17.2998 32.8336 17.7072 33.3362 17.7072C33.8388 17.7072 34.2462 17.2998 34.2462 16.7972ZM44.5362 32.5473C45.0388 32.5473 45.4462 32.1399 45.4462 31.6373C45.4462 31.1347 45.0388 30.7273 44.5362 30.7273C44.0337 30.7273 43.6262 31.1347 43.6262 31.6373C43.6262 32.1399 44.0337 32.5473 44.5362 32.5473ZM42.9262 27.4373C42.9262 27.9398 42.5188 28.3473 42.0162 28.3473C41.5136 28.3473 41.1062 27.9398 41.1062 27.4373C41.1062 26.9347 41.5136 26.5273 42.0162 26.5273C42.5188 26.5273 42.9262 26.9347 42.9262 27.4373ZM39.2162 24.4273C39.7188 24.4273 40.1262 24.0198 40.1262 23.5173C40.1262 23.0147 39.7188 22.6073 39.2162 22.6073C38.7136 22.6073 38.3062 23.0147 38.3062 23.5173C38.3062 24.0198 38.7136 24.4273 39.2162 24.4273ZM37.6062 19.7372C37.6062 20.2398 37.1988 20.6473 36.6962 20.6473C36.1936 20.6473 35.7862 20.2398 35.7862 19.7372C35.7862 19.2347 36.1936 18.8272 36.6962 18.8272C37.1988 18.8272 37.6062 19.2347 37.6062 19.7372Z" fill="#1D1D1B"></path></svg>