<svg xmlns="http://www.w3.org/2000/svg" width="141" height="38" viewBox="0 0 141 38" fill="none"><path d="M57.48 26.4803H50.3412V21.3245H48.5215V33.4324H50.3412V28.1833H57.48V33.4324H59.2997V21.3245H57.48V26.4803Z" fill="#94928E"></path><path d="M68.2116 29.1867C68.2116 30.8431 67.1151 32.0329 65.622 32.0329C64.059 32.0329 62.9625 30.8665 62.9625 29.1867C62.9625 27.507 64.059 26.3406 65.622 26.3406C67.1151 26.3406 68.2116 27.5537 68.2116 29.1867ZM68.165 26.1073C67.8384 25.6407 66.9752 24.7542 65.3188 24.7542C63.2658 24.7542 61.1895 26.2706 61.1895 29.1867C61.1895 31.7996 62.8925 33.6193 65.3188 33.6193C66.9052 33.6193 67.7684 32.7795 68.165 32.2196V33.4327H69.868V24.9408H68.165V26.1073Z" fill="#94928E"></path><path d="M76.7262 28.37C76.4229 28.3467 76.1897 28.3 75.9564 28.2767C75.6297 28.23 75.3265 28.2067 74.9299 28.16C73.7401 28.0201 73.6001 27.5301 73.6001 27.1802C73.6001 26.5736 74.3 26.2237 75.3965 26.2237C76.8895 26.2237 77.4728 26.9236 77.6827 27.1569L77.7061 27.1802H79.5024L79.4558 27.0635C79.2225 26.3637 78.3826 24.7073 75.3965 24.7073C73.2968 24.7073 71.897 25.7104 71.897 27.2269C71.897 28.6733 72.9002 29.5831 74.6966 29.7931L76.4696 30.0031C77.6361 30.143 77.8694 30.5396 77.8694 31.0995C77.8694 31.7528 77.0995 32.1727 75.863 32.1727C74.16 32.1727 73.5301 31.2628 73.4368 31.0295L73.4135 30.9596H71.5938L71.6171 31.0762C71.6404 31.1929 72.2936 33.6891 75.8397 33.6891C78.056 33.6891 79.5491 32.6393 79.5491 31.0995C79.6191 29.4898 78.6859 28.6266 76.7262 28.37Z" fill="#94928E"></path><path d="M85.9658 24.7775C84.566 24.7775 83.6562 25.594 83.2362 26.2472V20.9048H81.5332V33.456H83.2362V28.8835C83.2362 27.3904 84.1928 26.3872 85.5925 26.3872C86.969 26.3872 87.8788 27.367 87.8788 28.8835V33.456H89.6052V28.6035C89.5819 26.3405 88.0888 24.7775 85.9658 24.7775Z" fill="#94928E"></path><path d="M95.9264 32.0563C94.3633 32.0563 93.2202 30.8665 93.2202 29.2101C93.2202 27.5304 94.34 26.3406 95.9264 26.3406C97.5128 26.3406 98.6093 27.5304 98.6093 29.2101C98.6093 30.8665 97.4662 32.0563 95.9264 32.0563ZM98.5626 26.1073C98.1427 25.524 97.1862 24.7542 95.6231 24.7542C93.1502 24.7542 91.4238 26.5972 91.4238 29.2101C91.4238 31.823 93.1502 33.6427 95.6231 33.6427C97.1629 33.6427 98.1194 32.8495 98.5626 32.2429V33.3394C98.5626 34.9025 97.5595 35.8123 95.8331 35.8123C94.6666 35.8123 93.8034 35.3924 93.3602 34.6458L93.3368 34.5992H91.4938L91.5171 34.7158C91.5405 34.8325 92.2404 37.3987 95.8331 37.3987C98.5626 37.3987 100.266 35.8356 100.266 33.3394V24.9408H98.5626V26.1073Z" fill="#94928E"></path><path d="M104.535 26.2002V24.9637H102.832V33.4556H104.535V28.6731C104.535 27.18 105.305 26.6201 107.311 26.6201H109.528V24.917H107.358C105.655 24.8937 104.885 25.6403 104.535 26.2002Z" fill="#94928E"></path><path d="M117.389 29.1867C117.389 30.8431 116.293 32.0329 114.8 32.0329C113.237 32.0329 112.14 30.8665 112.14 29.1867C112.14 27.507 113.237 26.3406 114.8 26.3406C116.293 26.3406 117.389 27.5537 117.389 29.1867ZM117.343 26.1073C117.016 25.6407 116.153 24.7542 114.496 24.7542C112.444 24.7542 110.367 26.2706 110.367 29.1867C110.367 31.7996 112.07 33.6193 114.496 33.6193C116.083 33.6193 116.946 32.7795 117.343 32.2196V33.4327H119.046V24.9408H117.343V26.1073Z" fill="#94928E"></path><path d="M125.976 26.3406C127.562 26.3406 128.682 27.507 128.682 29.1867C128.682 30.8665 127.562 32.0329 125.976 32.0329C124.389 32.0329 123.27 30.8665 123.27 29.1867C123.27 27.507 124.389 26.3406 125.976 26.3406ZM126.256 24.7542C124.669 24.7542 123.713 25.594 123.316 26.1539V24.9641H121.613V37.2121H123.316V32.3362C123.736 32.8728 124.763 33.666 126.256 33.666C128.705 33.666 130.432 31.8463 130.432 29.2334C130.408 26.5739 128.705 24.7542 126.256 24.7542Z" fill="#94928E"></path><path d="M136.823 24.7775C135.423 24.7775 134.514 25.594 134.094 26.2472V20.9048H132.391V33.456H134.094V28.8835C134.094 27.3904 135.05 26.3872 136.45 26.3872C137.826 26.3872 138.736 27.367 138.736 28.8835V33.456H140.463V28.6035C140.439 26.3405 138.946 24.7775 136.823 24.7775Z" fill="#94928E"></path><path d="M22.6731 16.915H13.668V19.1547H22.6731V16.915Z" fill="#4A4846"></path><path d="M18.0766 0.561279C8.34824 0.561279 0.462891 8.44664 0.462891 18.175C0.462891 27.9034 8.34824 35.7887 18.0766 35.7887C27.805 35.7887 35.6904 27.9034 35.6904 18.175C35.6904 8.44664 27.805 0.561279 18.0766 0.561279ZM24.6322 25.1505H22.5792V20.8112H13.574V25.1505H11.5444V11.0595H13.5974V15.3055H22.6025V11.0595H24.6555V25.1505H24.6322Z" fill="#4A4846"></path><path d="M57.48 7.74712H50.3412V2.59131H48.5215V14.6993H50.3412V9.45016H57.48V14.6993H59.2997V2.59131H57.48V7.74712Z" fill="#4A4846"></path><path d="M65.5523 7.51359C66.7421 7.51359 67.5586 8.12016 67.9552 9.28663H63.1027C63.4526 8.14349 64.3391 7.51359 65.5523 7.51359ZM65.5523 6.02051C63.1027 6.02051 61.2363 7.93352 61.2363 10.4531C61.2363 12.996 63.1493 14.8857 65.6923 14.8857C68.6084 14.8857 69.6349 12.926 69.7749 12.2495L69.7982 12.1328H68.1185L68.0952 12.1795C68.0719 12.2261 67.512 13.2993 65.7156 13.2993C64.2225 13.2993 63.126 12.2495 62.986 10.7331H69.8916V10.6397C69.8916 7.93352 68.0952 6.02051 65.5523 6.02051Z" fill="#4A4846"></path><path d="M75.6998 13.2989C74.0901 13.2989 72.9936 12.1325 72.9936 10.4527C72.9936 8.77303 74.1134 7.60655 75.6998 7.60655C77.2862 7.60655 78.3827 8.77303 78.3827 10.4527C78.3827 12.1325 77.2629 13.2989 75.6998 13.2989ZM78.3361 7.37326C77.9161 6.79002 76.9596 6.02015 75.3966 6.02015C72.9236 6.02015 71.1973 7.83985 71.1973 10.4527C71.1973 13.0656 72.9236 14.8853 75.3966 14.8853C77.0763 14.8853 77.9861 13.9522 78.3361 13.4622V14.6754H80.0391V2.14746H78.3361V7.37326Z" fill="#4A4846"></path><path d="M86.3863 7.51359C87.5761 7.51359 88.3926 8.12016 88.7892 9.28663H83.9367C84.2633 8.14349 85.1498 7.51359 86.3863 7.51359ZM86.3863 6.02051C83.9367 6.02051 82.0703 7.93352 82.0703 10.4531C82.0703 12.996 83.9833 14.8857 86.5262 14.8857C89.4424 14.8857 90.4689 12.926 90.6089 12.2495L90.6322 12.1328H88.9525L88.9292 12.1795C88.9058 12.2261 88.3459 13.2993 86.5496 13.2993C85.0565 13.2993 83.96 12.2495 83.82 10.7331H90.7255V10.6397C90.7022 7.93352 88.9292 6.02051 86.3863 6.02051Z" fill="#4A4846"></path><path d="M94.3398 7.44352V6.20706H92.6367V14.699H94.3398V9.91644C94.3398 8.42335 95.1096 7.86345 97.116 7.86345H99.3323V6.1604H97.1626C95.4596 6.1604 94.6897 6.90694 94.3398 7.44352Z" fill="#4A4846"></path><path d="M106.938 10.4531C106.938 12.1095 105.842 13.2993 104.349 13.2993C102.786 13.2993 101.689 12.1328 101.689 10.4531C101.689 8.77338 102.786 7.60691 104.349 7.60691C105.842 7.60691 106.938 8.82004 106.938 10.4531ZM106.892 7.37361C106.565 6.90702 105.702 6.02051 104.045 6.02051C101.992 6.02051 99.916 7.53692 99.916 10.4531C99.916 13.066 101.619 14.8857 104.045 14.8857C105.632 14.8857 106.495 14.0458 106.892 13.4859V14.6991H108.595V6.20714H106.892V7.37361Z" fill="#4A4846"></path><path d="M110.273 6.4636H110.74V7.53676H110.903V6.4636H111.37V6.30029H110.273V6.4636Z" fill="#4A4846"></path><path d="M112.724 6.30029L112.327 7.28013L111.93 6.30029H111.65V7.53676H111.814V6.4636L112.257 7.53676H112.374L112.817 6.48693V7.53676H113.003V6.30029H112.724Z" fill="#4A4846"></path></svg>