<svg xmlns="http://www.w3.org/2000/svg" width="141" height="41" viewBox="0 0 141 41" fill="none"><g clip-path="url(#clip0)"><path d="M133.718 19.3981C133.718 19.28 133.671 19.255 133.624 19.255C133.483 19.255 133.296 19.6094 132.757 19.6094C132.383 19.6094 132.005 19.3822 132.005 18.7553V10.3642C132.005 7.79733 130.241 5.53941 126.366 5.53941C122.159 5.53941 120.258 7.79733 120.258 9.65318C120.247 9.99677 120.305 10.339 120.428 10.6594C120.551 10.9799 120.736 11.272 120.973 11.5183C121.21 11.7646 121.494 11.9601 121.807 12.0932C122.12 12.2262 122.457 12.2941 122.797 12.2927C123.135 12.2963 123.471 12.2319 123.784 12.1032C124.098 11.9745 124.383 11.7841 124.624 11.543C124.864 11.3019 125.055 11.015 125.185 10.6987C125.315 10.3825 125.381 10.0433 125.381 9.70089C125.383 9.26275 125.275 8.83127 125.065 8.4481C124.855 8.06492 124.551 7.74299 124.182 7.51339C125.589 7.34756 127.352 8.01313 127.352 9.8917C127.352 11.0275 127.046 11.8884 125.284 12.6494L122.981 13.6488C120.821 14.6006 119.928 15.9067 119.928 17.8103V18.0375C119.928 20.2704 121.288 22.1739 123.968 22.1739C125.847 22.1739 127.071 20.9359 127.399 19.9024C127.61 21.2653 128.746 22.1739 130.407 22.1739C132.497 22.1808 133.718 20.7769 133.718 19.3981ZM59.0555 2.58868H56.0002C56.0002 4.7739 55.2952 5.91649 53.0413 5.91649H52.8999V9.20115H54.3569V18.5667C54.3569 20.7997 55.7891 22.1808 58.0678 22.1808C60.6068 22.1808 61.9224 20.5407 61.9224 18.5463C61.9224 18.4282 61.8528 18.4032 61.8056 18.4032C61.6395 18.4032 61.2646 18.9983 60.3733 18.9983C59.4821 18.9983 59.0578 18.4282 59.0578 17.6195V9.21478H61.8775C62.3018 9.21478 62.4881 9.40558 62.4881 9.78493V16.904C62.4881 18.4713 62.6295 19.5185 63.0965 20.3726C63.8036 21.706 65.1169 22.1898 66.3876 22.1898C68.1723 22.1898 70.0064 20.9519 70.5699 17.8148V21.8468H75.7333V18.5667H75.1699C74.7007 18.5667 74.5615 18.4236 74.5615 17.9966V5.91876H68.6887V9.20115H69.2993C69.7685 9.20115 69.8605 9.39196 69.8605 9.7713V16.1884C69.8605 17.2833 69.3913 17.9489 68.4529 17.9489C67.7009 17.9489 67.1845 17.4264 67.1845 16.4746V5.91876H59.0555V2.58868ZM81.5725 9.20115H84.0127V5.91876H81.5725V2.59095H78.5081C78.5081 4.77618 77.8032 5.91876 75.547 5.91876H75.4056V9.20115H76.8581V18.5667C76.8581 20.7997 78.2903 22.1808 80.569 22.1808C83.1058 22.1808 84.4213 20.5407 84.4213 18.5463C84.4213 18.4282 84.3517 18.4032 84.3046 18.4032C84.1407 18.4032 83.7658 18.9983 82.8723 18.9983C81.9788 18.9983 81.5725 18.4236 81.5725 17.615V9.20115ZM42.9457 9.20115H45.3883V5.91876H42.9368V2.59095H39.8836C39.8836 4.77618 39.1787 5.91876 36.9248 5.91876H36.7833V9.20115H38.2448V18.5667C38.2448 20.7997 39.6771 22.1808 41.9557 22.1808C44.4948 22.1808 45.8103 20.5407 45.8103 18.5463C45.8103 18.4282 45.7407 18.4032 45.6936 18.4032C45.5274 18.4032 45.1548 18.9983 44.2613 18.9983C43.3678 18.9983 42.9457 18.4282 42.9457 17.6195V9.20115ZM64.0214 36.73C64.0214 38.9629 65.4537 40.344 67.7323 40.344C70.2714 40.344 71.5869 38.704 71.5869 36.7096C71.5869 36.5914 71.5173 36.5665 71.4702 36.5665C71.304 36.5665 70.9291 37.1616 70.0379 37.1616C69.1466 37.1616 68.7223 36.5892 68.7223 35.7828V27.3781H71.1648V24.082H68.7111V22.3693C68.7111 22.2739 68.664 22.2512 68.6191 22.2512C68.5742 22.2512 68.5248 22.2989 68.3609 22.5124C68.0243 22.9665 67.5794 23.3267 67.0678 23.5596C66.4572 23.8435 65.6108 24.082 63.9249 24.082H62.5644V27.3622H64.0214V36.73ZM0.978516 3.63813H2.0112C2.62182 3.63813 2.66897 3.78124 2.66897 4.30369V17.8989C2.66897 18.4236 2.62182 18.5645 2.0112 18.5645H0.978516V21.8468H2.0112C2.62182 21.8468 2.66897 21.9899 2.66897 22.4647V36.0599C2.66897 36.5369 2.62182 36.7255 2.0112 36.7255H0.978516V40.0056H9.76528V36.7277H8.7326C8.12197 36.7277 8.07482 36.5369 8.07482 36.0622V22.467C8.07482 21.9899 8.12197 21.8491 8.7326 21.8491H9.76528V18.5667H8.7326C8.12197 18.5667 8.07482 18.4236 8.07482 17.9012V4.30369C8.07482 3.77897 8.12197 3.63813 8.7326 3.63813H9.76528V0.355748H0.978516V3.63813ZM93.6616 29.1226C94.1725 29.1226 94.672 28.9693 95.0969 28.6821C95.5218 28.3949 95.853 27.9867 96.0486 27.5091C96.2442 27.0315 96.2955 26.5059 96.196 25.9988C96.0965 25.4917 95.8506 25.0258 95.4895 24.6601C95.1283 24.2943 94.6681 24.0452 94.167 23.944C93.6659 23.8429 93.1465 23.8943 92.6743 24.0919C92.2021 24.2894 91.7984 24.6242 91.5142 25.0538C91.23 25.4835 91.0781 25.9888 91.0776 26.5058C91.0764 26.8496 91.1424 27.1902 91.2718 27.5081C91.4013 27.826 91.5915 28.1148 91.8316 28.358C92.0718 28.6012 92.3571 28.794 92.6712 28.9252C92.9852 29.0564 93.3218 29.1235 93.6616 29.1226ZM88.2826 5.29636C88.7937 5.29636 89.2933 5.14302 89.7182 4.85573C90.1431 4.56844 90.4743 4.1601 90.6699 3.68236C90.8655 3.20461 90.9166 2.67891 90.8169 2.17174C90.7172 1.66456 90.4711 1.1987 90.1098 0.833046C89.7484 0.467394 89.288 0.218383 88.7867 0.1175C88.2855 0.0166168 87.766 0.0683936 87.2938 0.266283C86.8217 0.464172 86.4181 0.799285 86.1342 1.22925C85.8502 1.65921 85.6987 2.1647 85.6987 2.68181C85.6975 3.02549 85.7635 3.36602 85.893 3.68377C86.0224 4.00153 86.2127 4.29023 86.4529 4.53325C86.693 4.77628 86.9784 4.96882 87.2924 5.09978C87.6064 5.23075 87.943 5.29756 88.2826 5.29636ZM90.678 17.992V5.91876H84.8411V9.20115H85.4518C85.876 9.20115 85.9681 9.39196 85.9681 9.7713V17.9966C85.9681 18.4259 85.876 18.5667 85.4518 18.5667H84.8411V21.8468H91.8005V18.5667H91.1899C90.7768 18.5667 90.678 18.4236 90.678 17.9966V17.992ZM118.379 17.992V10.6731C118.379 9.01033 118.12 7.98814 117.602 7.13177C116.944 6.03915 115.839 5.54169 114.618 5.54169C112.975 5.54169 111.094 6.54117 110.53 9.58276V5.91876H105.127V9.20115H105.69C106.161 9.20115 106.254 9.34425 106.254 9.7713V17.9966C106.254 18.3759 106.161 18.5667 105.69 18.5667H105.127V21.8468H112.221V18.5667H111.516C111.047 18.5667 110.952 18.3759 110.952 17.9966V11.6249C110.952 10.4891 111.424 9.6759 112.409 9.6759C113.208 9.6759 113.68 10.2483 113.68 11.2455V21.8468H119.553V18.5667H118.989C118.471 18.5667 118.379 18.3759 118.379 17.9966V17.992ZM23.6032 17.992V10.6731C23.6032 9.01033 23.345 7.98814 22.8287 7.13177C22.1709 6.03915 21.0664 5.54169 19.8451 5.54169C18.2018 5.54169 16.3206 6.54117 15.7571 9.58276V5.91876H10.3535V9.20115H10.9147C11.3861 9.20115 11.4804 9.34425 11.4804 9.7713V17.9966C11.4804 18.3759 11.3861 18.5667 10.9147 18.5667H10.3535V21.8468H17.4475V18.5667H16.7426C16.2712 18.5667 16.1791 18.3759 16.1791 17.9966V11.6249C16.1791 10.4891 16.6483 9.6759 17.6361 9.6759C18.4353 9.6759 18.9045 10.2483 18.9045 11.2455V21.8468H24.7751V18.5667H24.2138C23.6975 18.5667 23.6032 18.3759 23.6032 17.9966V17.992ZM49.6582 5.29636C50.1691 5.29591 50.6685 5.14219 51.0931 4.85462C51.5177 4.56706 51.8486 4.15857 52.0438 3.68078C52.239 3.203 52.2899 2.67737 52.1899 2.17035C52.09 1.66332 51.8437 1.19767 51.4822 0.832244C51.1208 0.46682 50.6604 0.218034 50.1592 0.117335C49.658 0.0166358 49.1386 0.0685451 48.6666 0.266501C48.1945 0.464456 47.7911 0.799571 47.5073 1.22948C47.2235 1.65939 47.072 2.1648 47.072 2.68181C47.0708 3.02569 47.1369 3.3664 47.2665 3.6843C47.396 4.0022 47.5865 4.29101 47.8269 4.53406C48.0673 4.77711 48.3529 4.96961 48.6672 5.10044C48.9815 5.23127 49.3183 5.29786 49.6582 5.29636ZM52.0535 17.992V5.91876H46.2166V9.20115H46.8273C47.2493 9.20115 47.3436 9.39196 47.3436 9.7713V17.9966C47.3436 18.4259 47.2493 18.5667 46.8273 18.5667H46.2166V21.8468H53.176V18.5667H52.5654C52.1478 18.5667 52.0535 18.4236 52.0535 17.9966V17.992ZM77.9671 36.6778C77.123 36.6778 76.5595 36.0599 76.5595 34.4448V29.6019C76.5595 27.9868 77.123 27.369 77.9671 27.369C78.8112 27.369 79.3746 27.9868 79.3746 29.6019V34.4516C79.3769 36.0622 78.8157 36.68 77.9671 36.68V36.6778ZM77.9671 23.6981C75.8995 23.6981 73.8318 24.4114 72.752 26.2173C72 27.453 71.6722 29.1703 71.6722 32.0165C71.6722 34.8628 72 36.5801 72.752 37.8181C73.8318 39.624 75.895 40.3372 77.9671 40.3372C80.0392 40.3372 82.1023 39.6217 83.1821 37.8181C83.9364 36.5801 84.2642 34.8651 84.2642 32.0165C84.2642 29.168 83.9364 27.453 83.1821 26.2173C82.1023 24.4137 80.0347 23.6959 77.9671 23.6959V23.6981ZM98.4545 18.519C97.6104 18.519 97.047 17.9012 97.047 16.2861V11.4295C97.047 9.81446 97.6104 9.1966 98.4545 9.1966C99.2986 9.1966 99.8644 9.81446 99.8644 11.4295V16.2838C99.8644 17.8989 99.3076 18.519 98.4545 18.519ZM98.4545 5.53941C96.3869 5.53941 94.3193 6.25268 93.2395 8.05856C92.4874 9.29428 92.1597 11.0116 92.1597 13.8601C92.1597 16.7086 92.4874 18.4236 93.2395 19.6593C94.3193 21.4766 96.3824 22.1785 98.4545 22.1785C100.527 22.1785 102.592 21.4652 103.672 19.6593C104.424 18.4236 104.752 16.7063 104.752 13.8601C104.752 11.0138 104.424 9.29428 103.672 8.05856C102.59 6.25041 100.522 5.53941 98.4545 5.53941ZM29.8756 9.85535C29.8756 9.18979 30.347 8.76274 31.0497 8.76274C31.9477 8.76274 32.4124 9.4283 32.4124 10.58V11.2024H36.1705V5.91876H33.1173V8.96263C32.9287 7.1136 31.8018 5.53941 29.4895 5.53941C27.2445 5.53941 25.0355 7.24989 25.0355 10.2938C25.0355 12.7175 26.5171 14.169 27.9247 14.8823L30.4862 16.1884C31.4269 16.6654 32.0375 17.097 32.0375 17.8058C32.0375 18.5667 31.5212 18.9938 30.7691 18.9938C29.8711 18.9938 29.2178 18.3282 29.2178 17.0925V16.4269H25.3632V21.8468H28.5578V18.8507C29.1213 21.1813 30.814 22.1808 32.693 22.1808C35.0906 22.1808 37.0168 20.6111 37.0168 17.4741C37.0168 14.955 35.5598 13.5739 34.0108 12.7652L31.144 11.291C30.3448 10.8639 29.8756 10.4823 29.8756 9.86444V9.85535ZM44.4431 36.6596C43.269 36.6596 42.8941 35.8986 42.8941 35.1854V33.0092H50.3159V30.7377C50.3159 28.6933 50.0914 27.2667 49.3753 26.2218C48.2528 24.4046 46.3693 23.7027 44.3488 23.7027C42.2812 23.7027 40.2608 24.4637 39.1854 26.2718C38.4334 27.5075 38.0113 29.2248 38.0113 32.1188C38.0113 34.9014 38.3413 36.5642 39.0934 37.7976C40.2159 39.6512 42.0522 40.3645 44.3556 40.3645C47.3144 40.3645 50.1341 39.1038 50.1341 35.3966C50.1221 35.0303 50.0914 34.6648 50.042 34.3017H46.0011V35.1808C45.9921 35.8963 45.6172 36.6573 44.4409 36.6573L44.4431 36.6596ZM127.307 17.8535C127.31 18.0211 127.28 18.1876 127.217 18.3426C127.153 18.4975 127.059 18.6375 126.94 18.7537C126.82 18.8699 126.678 18.9597 126.523 19.0174C126.367 19.0752 126.201 19.0996 126.036 19.0892C125.873 19.0988 125.71 19.0733 125.558 19.0146C125.405 18.9559 125.267 18.8652 125.152 18.7485C125.036 18.6318 124.947 18.4917 124.888 18.3374C124.83 18.1832 124.805 18.0182 124.815 17.8535V16.5928C124.815 15.5933 125.003 14.9754 125.8 14.5007L126.458 14.1213C126.833 13.9055 127.21 13.5966 127.304 13.2649L127.307 17.8535ZM45.853 30.406H42.8919V29.3111C42.8919 28.1754 43.3611 27.3644 44.3937 27.3644C45.3815 27.3644 45.8507 28.1254 45.8507 29.3111L45.853 30.406ZM38.2201 24.082H32.2014V27.3622H32.9983C33.2812 27.3622 33.4226 27.5053 33.3283 27.8846L31.7771 34.7787H31.7344L30.1383 27.8846C30.044 27.5053 30.1832 27.3622 30.5132 27.3622H31.2181V24.082H23.9781V27.3622H24.5887C24.8693 27.3622 25.013 27.4099 25.1051 27.7415L28.3962 40.0078H33.7055L37.1335 27.7415C37.2278 27.4099 37.3221 27.3622 37.6521 27.3622H38.2156L38.2201 24.082ZM90.5276 36.1598V24.082H84.6907V27.3622H85.2564C85.7256 27.3622 85.8648 27.5053 85.8648 27.9323V36.1576C85.8648 36.5369 85.7234 36.7277 85.2564 36.7277H84.6436V40.0078H92.2113V36.7277H91.0888C90.6556 36.7277 90.5141 36.5392 90.5141 36.1576L90.5276 36.1598ZM61.9448 24.082H58.8984V27.1259C58.7098 25.2723 57.5829 23.7027 55.2795 23.7027C53.0166 23.6959 50.8166 25.4132 50.8166 28.4661C50.8166 30.8899 52.2982 32.3414 53.7058 33.0524L56.2673 34.3608C57.2079 34.8378 57.8186 35.2694 57.8186 35.9781C57.8186 36.7391 57.3022 37.1661 56.5502 37.1661C55.6522 37.1661 54.9989 36.5006 54.9989 35.2626V34.5993H51.1376V40.0192H54.3322V37.0139C54.8956 39.3446 56.5883 40.344 58.4674 40.344C60.865 40.344 62.7912 38.7744 62.7912 35.6351C62.7912 33.116 61.3342 31.7371 59.7829 30.9285L56.9161 29.4542C56.1191 29.0249 55.6477 28.6456 55.6477 28.0277C55.6477 27.3622 56.1191 26.9351 56.8218 26.9351C57.7198 26.9351 58.1845 27.6007 58.1845 28.741V29.3588H61.9426L61.9448 24.082ZM23.6009 36.1598V28.8364C23.6009 27.1736 23.3428 26.1514 22.8264 25.295C22.1687 24.2024 21.0641 23.705 19.8429 23.705C18.1996 23.705 16.3183 24.7044 15.7548 27.746V24.082H10.3535V27.3622H10.9147C11.3861 27.3622 11.4804 27.5053 11.4804 27.9323V36.1576C11.4804 36.5369 11.3861 36.7277 10.9147 36.7277H10.3535V40.0078H17.4475V36.7277H16.7426C16.2712 36.7277 16.1791 36.5369 16.1791 36.1576V29.7859C16.1791 28.6501 16.6483 27.8369 17.6361 27.8369C18.4353 27.8369 18.9045 28.4071 18.9045 29.4065V40.0101H24.7751V36.7277H24.2138C23.6975 36.7277 23.6032 36.5392 23.6032 36.1576L23.6009 36.1598ZM140.368 18.5667C139.899 18.5667 139.804 18.4236 139.804 17.9966V0.355748H133.932V3.63813H134.54C135.011 3.63813 135.103 3.78124 135.103 4.20829V17.9966C135.103 18.4259 135.011 18.5667 134.54 18.5667H134.024V21.8468H140.983V18.5667H140.368Z" fill="#051B52"></path></g><defs><clipPath id="clip0"><rect width="140" height="40.2927" fill="white" transform="translate(0.978516 0.0771484)"></rect></clipPath></defs></svg>