<svg xmlns="http://www.w3.org/2000/svg" width="141" height="41" viewBox="0 0 141 41" fill="none"><g clip-path="url(#clip0)"><path d="M133.308 19.3981C133.308 19.28 133.261 19.255 133.214 19.255C133.072 19.255 132.886 19.6094 132.347 19.6094C131.972 19.6094 131.595 19.3822 131.595 18.7553V10.3642C131.595 7.79733 129.831 5.53941 125.956 5.53941C121.749 5.53941 119.847 7.79733 119.847 9.65318C119.837 9.99677 119.895 10.339 120.018 10.6594C120.141 10.9799 120.326 11.272 120.563 11.5183C120.8 11.7646 121.084 11.9601 121.397 12.0932C121.71 12.2262 122.047 12.2941 122.386 12.2927C122.725 12.2963 123.061 12.2319 123.374 12.1032C123.688 11.9745 123.973 11.7841 124.214 11.543C124.454 11.3019 124.645 11.015 124.775 10.6987C124.904 10.3825 124.971 10.0433 124.97 9.70089C124.973 9.26275 124.864 8.83127 124.654 8.4481C124.444 8.06492 124.14 7.74299 123.772 7.51339C125.179 7.34756 126.941 8.01313 126.941 9.8917C126.941 11.0275 126.636 11.8884 124.874 12.6494L122.571 13.6488C120.411 14.6006 119.517 15.9067 119.517 17.8103V18.0375C119.517 20.2704 120.878 22.1739 123.558 22.1739C125.437 22.1739 126.661 20.9359 126.989 19.9024C127.2 21.2653 128.336 22.1739 129.997 22.1739C132.087 22.1808 133.308 20.7769 133.308 19.3981ZM58.6454 2.58868H55.59C55.59 4.7739 54.8851 5.91649 52.6312 5.91649H52.4897V9.20115H53.9467V18.5667C53.9467 20.7997 55.379 22.1808 57.6576 22.1808C60.1967 22.1808 61.5122 20.5407 61.5122 18.5463C61.5122 18.4282 61.4426 18.4032 61.3955 18.4032C61.2293 18.4032 60.8544 18.9983 59.9632 18.9983C59.0719 18.9983 58.6476 18.4282 58.6476 17.6195V9.21478H61.4673C61.8916 9.21478 62.0779 9.40558 62.0779 9.78493V16.904C62.0779 18.4713 62.2194 19.5185 62.6863 20.3726C63.3935 21.706 64.7068 22.1898 65.9774 22.1898C67.7622 22.1898 69.5963 20.9519 70.1598 17.8148V21.8468H75.3232V18.5667H74.7597C74.2905 18.5667 74.1513 18.4236 74.1513 17.9966V5.91876H68.2785V9.20115H68.8891C69.3583 9.20115 69.4504 9.39196 69.4504 9.7713V16.1884C69.4504 17.2833 68.9812 17.9489 68.0428 17.9489C67.2907 17.9489 66.7744 17.4264 66.7744 16.4746V5.91876H58.6454V2.58868ZM81.1623 9.20115H83.6026V5.91876H81.1623V2.59095H78.0979C78.0979 4.77618 77.393 5.91876 75.1368 5.91876H74.9954V9.20115H76.4479V18.5667C76.4479 20.7997 77.8802 22.1808 80.1588 22.1808C82.6956 22.1808 84.0112 20.5407 84.0112 18.5463C84.0112 18.4282 83.9416 18.4032 83.8944 18.4032C83.7305 18.4032 83.3556 18.9983 82.4621 18.9983C81.5686 18.9983 81.1623 18.4236 81.1623 17.615V9.20115ZM42.5356 9.20115H44.9781V5.91876H42.5266V2.59095H39.4735C39.4735 4.77618 38.7685 5.91876 36.5146 5.91876H36.3732V9.20115H37.8346V18.5667C37.8346 20.7997 39.2669 22.1808 41.5456 22.1808C44.0846 22.1808 45.4001 20.5407 45.4001 18.5463C45.4001 18.4282 45.3306 18.4032 45.2834 18.4032C45.1173 18.4032 44.7446 18.9983 43.8511 18.9983C42.9576 18.9983 42.5356 18.4282 42.5356 17.6195V9.20115ZM63.6112 36.73C63.6112 38.9629 65.0435 40.344 67.3222 40.344C69.8612 40.344 71.1767 38.704 71.1767 36.7096C71.1767 36.5914 71.1071 36.5665 71.06 36.5665C70.8939 36.5665 70.519 37.1616 69.6277 37.1616C68.7365 37.1616 68.3122 36.5892 68.3122 35.7828V27.3781H70.7547V24.082H68.3009V22.3693C68.3009 22.2739 68.2538 22.2512 68.2089 22.2512C68.164 22.2512 68.1146 22.2989 67.9507 22.5124C67.6141 22.9665 67.1692 23.3267 66.6576 23.5596C66.047 23.8435 65.2007 24.082 63.5147 24.082H62.1543V27.3622H63.6112V36.73ZM0.568359 3.63813H1.60104C2.21167 3.63813 2.25881 3.78124 2.25881 4.30369V17.8989C2.25881 18.4236 2.21167 18.5645 1.60104 18.5645H0.568359V21.8468H1.60104C2.21167 21.8468 2.25881 21.9899 2.25881 22.4647V36.0599C2.25881 36.5369 2.21167 36.7255 1.60104 36.7255H0.568359V40.0056H9.35512V36.7277H8.32244C7.71181 36.7277 7.66467 36.5369 7.66467 36.0622V22.467C7.66467 21.9899 7.71181 21.8491 8.32244 21.8491H9.35512V18.5667H8.32244C7.71181 18.5667 7.66467 18.4236 7.66467 17.9012V4.30369C7.66467 3.77897 7.71181 3.63813 8.32244 3.63813H9.35512V0.355748H0.568359V3.63813ZM93.2514 29.1226C93.7624 29.1226 94.2618 28.9693 94.6867 28.6821C95.1116 28.3949 95.4428 27.9867 95.6384 27.5091C95.8341 27.0315 95.8854 26.5059 95.7859 25.9988C95.6863 25.4917 95.4405 25.0258 95.0793 24.6601C94.7182 24.2943 94.258 24.0452 93.7569 23.944C93.2558 23.8429 92.7363 23.8943 92.2641 24.0919C91.7919 24.2894 91.3882 24.6242 91.104 25.0538C90.8198 25.4835 90.6679 25.9888 90.6675 26.5058C90.6663 26.8496 90.7323 27.1902 90.8617 27.5081C90.9911 27.826 91.1814 28.1148 91.4215 28.358C91.6616 28.6012 91.947 28.794 92.261 28.9252C92.575 29.0564 92.9116 29.1235 93.2514 29.1226ZM87.8725 5.29636C88.3835 5.29636 88.8831 5.14302 89.308 4.85573C89.733 4.56844 90.0642 4.1601 90.2597 3.68236C90.4553 3.20461 90.5065 2.67891 90.4068 2.17174C90.3071 1.66456 90.061 1.1987 89.6996 0.833046C89.3382 0.467394 88.8778 0.218383 88.3766 0.1175C87.8754 0.0166168 87.3558 0.0683936 86.8837 0.266283C86.4115 0.464172 86.0079 0.799285 85.724 1.22925C85.4401 1.65921 85.2885 2.1647 85.2885 2.68181C85.2874 3.02549 85.3534 3.36602 85.4828 3.68377C85.6123 4.00153 85.8025 4.29023 86.0427 4.53325C86.2829 4.77628 86.5682 4.96882 86.8822 5.09978C87.1963 5.23075 87.5328 5.29756 87.8725 5.29636ZM90.2679 17.992V5.91876H84.431V9.20115H85.0416C85.4659 9.20115 85.5579 9.39196 85.5579 9.7713V17.9966C85.5579 18.4259 85.4659 18.5667 85.0416 18.5667H84.431V21.8468H91.3903V18.5667H90.7797C90.3666 18.5667 90.2679 18.4236 90.2679 17.9966V17.992ZM117.968 17.992V10.6731C117.968 9.01033 117.71 7.98814 117.192 7.13177C116.534 6.03915 115.429 5.54169 114.208 5.54169C112.565 5.54169 110.683 6.54117 110.12 9.58276V5.91876H104.716V9.20115H105.28C105.751 9.20115 105.843 9.34425 105.843 9.7713V17.9966C105.843 18.3759 105.751 18.5667 105.28 18.5667H104.716V21.8468H111.81V18.5667H111.106C110.636 18.5667 110.542 18.3759 110.542 17.9966V11.6249C110.542 10.4891 111.013 9.6759 111.999 9.6759C112.798 9.6759 113.27 10.2483 113.27 11.2455V21.8468H119.142V18.5667H118.579C118.06 18.5667 117.968 18.3759 117.968 17.9966V17.992ZM23.193 17.992V10.6731C23.193 9.01033 22.9349 7.98814 22.4185 7.13177C21.7608 6.03915 20.6562 5.54169 19.435 5.54169C17.7917 5.54169 15.9104 6.54117 15.3469 9.58276V5.91876H9.9433V9.20115H10.5045C10.976 9.20115 11.0703 9.34425 11.0703 9.7713V17.9966C11.0703 18.3759 10.976 18.5667 10.5045 18.5667H9.9433V21.8468H17.0374V18.5667H16.3324C15.861 18.5667 15.769 18.3759 15.769 17.9966V11.6249C15.769 10.4891 16.2382 9.6759 17.2259 9.6759C18.0251 9.6759 18.4943 10.2483 18.4943 11.2455V21.8468H24.3649V18.5667H23.8037C23.2873 18.5667 23.193 18.3759 23.193 17.9966V17.992ZM49.248 5.29636C49.759 5.29591 50.2583 5.14219 50.683 4.85462C51.1076 4.56706 51.4384 4.15857 51.6337 3.68078C51.8289 3.203 51.8797 2.67737 51.7798 2.17035C51.6798 1.66332 51.4336 1.19767 51.0721 0.832244C50.7106 0.46682 50.2502 0.218034 49.749 0.117335C49.2479 0.0166358 48.7284 0.0685451 48.2564 0.266501C47.7844 0.464456 47.381 0.799571 47.0971 1.22948C46.8133 1.65939 46.6618 2.1648 46.6618 2.68181C46.6606 3.02569 46.7267 3.3664 46.8563 3.6843C46.9859 4.0022 47.1764 4.29101 47.4168 4.53406C47.6572 4.77711 47.9428 4.96961 48.2571 5.10044C48.5714 5.23127 48.9082 5.29786 49.248 5.29636ZM51.6434 17.992V5.91876H45.8065V9.20115H46.4171C46.8392 9.20115 46.9335 9.39196 46.9335 9.7713V17.9966C46.9335 18.4259 46.8392 18.5667 46.4171 18.5667H45.8065V21.8468H52.7659V18.5667H52.1552C51.7377 18.5667 51.6434 18.4236 51.6434 17.9966V17.992ZM77.5569 36.6778C76.7128 36.6778 76.1493 36.0599 76.1493 34.4448V29.6019C76.1493 27.9868 76.7128 27.369 77.5569 27.369C78.401 27.369 78.9645 27.9868 78.9645 29.6019V34.4516C78.9667 36.0622 78.4055 36.68 77.5569 36.68V36.6778ZM77.5569 23.6981C75.4893 23.6981 73.4217 24.4114 72.3419 26.2173C71.5898 27.453 71.262 29.1703 71.262 32.0165C71.262 34.8628 71.5898 36.5801 72.3419 37.8181C73.4217 39.624 75.4848 40.3372 77.5569 40.3372C79.629 40.3372 81.6921 39.6217 82.7719 37.8181C83.5263 36.5801 83.854 34.8651 83.854 32.0165C83.854 29.168 83.5263 27.453 82.7719 26.2173C81.6921 24.4137 79.6245 23.6959 77.5569 23.6959V23.6981ZM98.0444 18.519C97.2003 18.519 96.6368 17.9012 96.6368 16.2861V11.4295C96.6368 9.81446 97.2003 9.1966 98.0444 9.1966C98.8885 9.1966 99.4542 9.81446 99.4542 11.4295V16.2838C99.4542 17.8989 98.8975 18.519 98.0444 18.519ZM98.0444 5.53941C95.9768 5.53941 93.9092 6.25268 92.8293 8.05856C92.0773 9.29428 91.7495 11.0116 91.7495 13.8601C91.7495 16.7086 92.0773 18.4236 92.8293 19.6593C93.9092 21.4766 95.9723 22.1785 98.0444 22.1785C100.116 22.1785 102.182 21.4652 103.262 19.6593C104.014 18.4236 104.341 16.7063 104.341 13.8601C104.341 11.0138 104.014 9.29428 103.262 8.05856C102.18 6.25041 100.112 5.53941 98.0444 5.53941ZM29.4654 9.85535C29.4654 9.18979 29.9369 8.76274 30.6396 8.76274C31.5375 8.76274 32.0022 9.4283 32.0022 10.58V11.2024H35.7603V5.91876H32.7072V8.96263C32.5186 7.1136 31.3916 5.53941 29.0793 5.53941C26.8344 5.53941 24.6253 7.24989 24.6253 10.2938C24.6253 12.7175 26.107 14.169 27.5146 14.8823L30.0761 16.1884C31.0167 16.6654 31.6273 17.097 31.6273 17.8058C31.6273 18.5667 31.111 18.9938 30.3589 18.9938C29.461 18.9938 28.8077 18.3282 28.8077 17.0925V16.4269H24.9531V21.8468H28.1477V18.8507C28.7111 21.1813 30.4038 22.1808 32.2829 22.1808C34.6805 22.1808 36.6067 20.6111 36.6067 17.4741C36.6067 14.955 35.1497 13.5739 33.6007 12.7652L30.7338 11.291C29.9346 10.8639 29.4654 10.4823 29.4654 9.86444V9.85535ZM44.033 36.6596C42.8589 36.6596 42.4839 35.8986 42.4839 35.1854V33.0092H49.9058V30.7377C49.9058 28.6933 49.6813 27.2667 48.9651 26.2218C47.8427 24.4046 45.9591 23.7027 43.9387 23.7027C41.8711 23.7027 39.8506 24.4637 38.7753 26.2718C38.0232 27.5075 37.6012 29.2248 37.6012 32.1188C37.6012 34.9014 37.9312 36.5642 38.6832 37.7976C39.8057 39.6512 41.6421 40.3645 43.9454 40.3645C46.9043 40.3645 49.7239 39.1038 49.7239 35.3966C49.712 35.0303 49.6813 34.6648 49.6319 34.3017H45.591V35.1808C45.582 35.8963 45.2071 36.6573 44.0307 36.6573L44.033 36.6596ZM126.897 17.8535C126.9 18.0211 126.87 18.1876 126.806 18.3426C126.743 18.4975 126.649 18.6375 126.529 18.7537C126.41 18.8699 126.268 18.9597 126.112 19.0174C125.957 19.0752 125.791 19.0996 125.626 19.0892C125.463 19.0988 125.3 19.0733 125.148 19.0146C124.995 18.9559 124.857 18.8652 124.741 18.7485C124.626 18.6318 124.536 18.4917 124.478 18.3374C124.42 18.1832 124.395 18.0182 124.405 17.8535V16.5928C124.405 15.5933 124.593 14.9754 125.39 14.5007L126.048 14.1213C126.423 13.9055 126.8 13.5966 126.894 13.2649L126.897 17.8535ZM45.4428 30.406H42.4817V29.3111C42.4817 28.1754 42.9509 27.3644 43.9836 27.3644C44.9714 27.3644 45.4406 28.1254 45.4406 29.3111L45.4428 30.406ZM37.8099 24.082H31.7912V27.3622H32.5882C32.871 27.3622 33.0125 27.5053 32.9182 27.8846L31.3669 34.7787H31.3243L29.7281 27.8846C29.6338 27.5053 29.773 27.3622 30.103 27.3622H30.8079V24.082H23.5679V27.3622H24.1786C24.4592 27.3622 24.6029 27.4099 24.6949 27.7415L27.986 40.0078H33.2953L36.7234 27.7415C36.8177 27.4099 36.912 27.3622 37.242 27.3622H37.8055L37.8099 24.082ZM90.1174 36.1598V24.082H84.2806V27.3622H84.8463C85.3155 27.3622 85.4547 27.5053 85.4547 27.9323V36.1576C85.4547 36.5369 85.3132 36.7277 84.8463 36.7277H84.2334V40.0078H91.8012V36.7277H90.6787C90.2454 36.7277 90.104 36.5392 90.104 36.1576L90.1174 36.1598ZM61.5347 24.082H58.4882V27.1259C58.2997 25.2723 57.1727 23.7027 54.8694 23.7027C52.6065 23.6959 50.4064 25.4132 50.4064 28.4661C50.4064 30.8899 51.8881 32.3414 53.2957 33.0524L55.8572 34.3608C56.7978 34.8378 57.4084 35.2694 57.4084 35.9781C57.4084 36.7391 56.8921 37.1661 56.14 37.1661C55.242 37.1661 54.5888 36.5006 54.5888 35.2626V34.5993H50.7274V40.0192H53.922V37.0139C54.4855 39.3446 56.1782 40.344 58.0572 40.344C60.4548 40.344 62.381 38.7744 62.381 35.6351C62.381 33.116 60.924 31.7371 59.3728 30.9285L56.5059 29.4542C55.709 29.0249 55.2375 28.6456 55.2375 28.0277C55.2375 27.3622 55.709 26.9351 56.4117 26.9351C57.3096 26.9351 57.7743 27.6007 57.7743 28.741V29.3588H61.5324L61.5347 24.082ZM23.1908 36.1598V28.8364C23.1908 27.1736 22.9326 26.1514 22.4163 25.295C21.7585 24.2024 20.654 23.705 19.4327 23.705C17.7894 23.705 15.9081 24.7044 15.3447 27.746V24.082H9.9433V27.3622H10.5045C10.976 27.3622 11.0703 27.5053 11.0703 27.9323V36.1576C11.0703 36.5369 10.976 36.7277 10.5045 36.7277H9.9433V40.0078H17.0374V36.7277H16.3324C15.861 36.7277 15.769 36.5369 15.769 36.1576V29.7859C15.769 28.6501 16.2382 27.8369 17.2259 27.8369C18.0251 27.8369 18.4943 28.4071 18.4943 29.4065V40.0101H24.3649V36.7277H23.8037C23.2873 36.7277 23.193 36.5392 23.193 36.1576L23.1908 36.1598ZM139.958 18.5667C139.489 18.5667 139.394 18.4236 139.394 17.9966V0.355748H133.521V3.63813H134.13C134.601 3.63813 134.693 3.78124 134.693 4.20829V17.9966C134.693 18.4259 134.601 18.5667 134.13 18.5667H133.613V21.8468H140.573V18.5667H139.958Z" fill="#1D1D1B"></path></g><defs><clipPath id="clip0"><rect width="140" height="40.2927" fill="white" transform="translate(0.568359 0.0771484)"></rect></clipPath></defs></svg>