<svg xmlns="http://www.w3.org/2000/svg" width="141" height="38" viewBox="0 0 141 38" fill="none"><g clip-path="url(#clip0)"><path d="M140.223 0.705561C137.343 4.54475 134.46 8.38166 131.574 12.2163C131.224 12.679 131.523 12.947 131.745 13.2492C134.249 16.6297 136.753 20.0079 139.257 23.3839C139.458 23.6553 139.653 23.9336 139.982 24.3912C138.827 24.3912 137.831 24.4048 136.836 24.3826C136.546 24.3826 136.453 24.0634 136.308 23.8704C134.281 21.0943 132.257 18.3148 130.237 15.5319C129.679 14.7636 129.692 14.7636 129.119 15.5541C127.116 18.3131 125.105 21.0653 123.109 23.8312C122.819 24.2341 122.501 24.4526 121.979 24.427C121.161 24.3878 120.34 24.4168 119.43 24.4168C119.676 23.7339 120.125 23.3019 120.481 22.8187C125.789 15.6104 131.101 8.4067 136.419 1.20751C136.769 0.732878 137.126 0.475073 137.749 0.524586C138.57 0.584342 139.399 0.539951 140.223 0.538244V0.705561Z" fill="white"></path><path d="M119.146 0.536377C120.227 0.536377 121.13 0.548328 122.034 0.536377C122.402 0.536377 122.595 0.731011 122.786 0.995645C124.323 3.1315 125.86 5.28272 127.444 7.38443C127.956 8.06736 128.001 8.53516 127.427 9.21638C126.403 10.432 126.452 10.4678 125.494 9.17541C123.505 6.48695 121.513 3.79963 119.519 1.11345C119.425 0.975158 119.341 0.83345 119.146 0.536377Z" fill="white"></path><path d="M0.224609 3.26659C0.612171 2.92513 1.0151 2.6605 1.59046 2.72025C2.23754 2.78684 2.56534 3.12147 2.61485 3.74464C2.63193 3.94269 2.6251 4.14245 2.6251 4.3405C2.6251 10.6803 2.6251 17.0196 2.6251 23.3583C2.6251 23.9576 2.70022 24.6149 1.99681 24.8949C1.32754 25.1561 0.724854 24.9495 0.226317 24.439L0.224609 3.26659Z" fill="white"></path><path d="M75.4433 24.9528C74.2482 24.9528 73.053 25.0074 71.8579 24.9408C69.8006 24.8247 68.4843 23.633 68.0626 21.6491C67.9174 20.9662 68.0626 20.4335 68.7643 20.2252C69.4284 20.0289 70.1199 20.1467 70.2889 20.8945C70.6304 22.3901 71.6735 22.5745 72.9284 22.5591C74.7484 22.5369 76.5684 22.5711 78.3918 22.5438C79.1823 22.5318 80.0991 22.5625 80.4406 21.6594C80.8435 20.5769 80.905 19.4245 80.3074 18.366C80.036 17.8828 79.493 17.765 78.9672 17.7565C77.347 17.7308 75.7233 17.7257 74.1065 17.7069C73.4816 17.7069 72.8533 17.7069 72.2284 17.6557C69.6982 17.4389 68.4331 16.1721 68.2094 13.6623C68.1399 12.8672 68.1975 12.0661 68.3801 11.2891C68.7779 9.58182 70.0874 8.4806 72.044 8.41401C74.3165 8.33718 76.594 8.33377 78.8733 8.41401C80.876 8.48401 82.194 9.70304 82.5816 11.5708C82.7233 12.2538 82.5167 12.6943 81.8713 12.9025C81.226 13.1108 80.5567 13.0033 80.3826 12.3238C80.0189 10.8982 79.0167 10.7684 77.8216 10.7872C76.145 10.8077 74.4667 10.7872 72.7884 10.7974C71.1101 10.8077 70.6918 11.2243 70.6645 12.9265C70.6645 13.0682 70.6645 13.2116 70.6645 13.3533C70.7431 14.8182 71.117 15.2313 72.5767 15.2689C74.284 15.3133 75.9913 15.2689 77.6987 15.2945C78.3263 15.2963 78.9533 15.3334 79.5767 15.4055C80.4082 15.5079 81.2072 15.7725 81.7962 16.3855C83.4626 18.1133 83.3772 20.1996 82.8121 22.2928C82.3682 23.9404 80.9682 24.8401 78.9399 24.9357C77.7772 24.9904 76.6094 24.946 75.4433 24.946V24.9528Z" fill="white"></path><path d="M12.0386 10.3638C15.0469 7.83869 18.3745 7.95308 21.7447 9.03381C23.6228 9.63478 24.4338 11.2875 24.6096 13.1314C24.9511 16.6758 24.7223 20.2372 24.7342 23.7919C24.7342 24.6097 24.2528 24.9767 23.4691 24.9545C22.6855 24.9323 22.3116 24.5892 22.3047 23.7014C22.2842 20.7989 22.3047 17.8965 22.2928 14.9941C22.3119 14.3405 22.2604 13.6868 22.1391 13.0443C21.883 11.8799 21.1694 11.1662 20.022 10.9955C18.0381 10.6916 16.0474 10.6984 14.1079 11.2943C12.4774 11.8014 12.0045 12.4792 12.0045 14.1575C12.0045 17.316 12.0045 20.4745 12.0045 23.6314C12.0045 24.584 11.5998 24.9818 10.7428 24.9648C9.97619 24.9494 9.59375 24.5687 9.59375 23.797C9.59375 22.3184 9.59375 20.8382 9.59375 19.358C9.59375 16.2575 9.59375 13.1564 9.59375 10.0548C9.59375 8.85966 9.93521 8.38503 10.7889 8.38503C11.6169 8.38503 11.984 8.88869 12.0062 10.0667C12.0164 10.1538 12.0267 10.2375 12.0386 10.3638Z" fill="white"></path><path d="M36.1682 21.1337C37.9455 17.2479 39.6631 13.5089 41.3704 9.76984C41.4858 9.4799 41.6251 9.20007 41.787 8.93325C42.1284 8.42106 42.6116 8.27764 43.1989 8.53716C43.7862 8.79667 44.1021 9.2235 43.9314 9.88594C43.876 10.0766 43.8047 10.2622 43.718 10.4408C41.6919 14.8798 39.6642 19.3189 37.6348 23.7579C37.6228 23.7835 37.616 23.8108 37.604 23.8381C37.3087 24.5108 36.8733 24.9769 36.0675 24.9598C35.2838 24.9428 34.9253 24.4476 34.6538 23.8074C33.2538 20.485 31.8492 17.1648 30.4401 13.8469C29.9279 12.6518 29.4157 11.4464 28.9155 10.2394C28.5535 9.35667 28.7243 8.8735 29.4635 8.55594C30.2523 8.21447 30.7457 8.42277 31.1316 9.32252C32.6739 12.9227 34.2105 16.5263 35.7414 20.1333C35.8489 20.4252 35.9787 20.7086 36.1682 21.1337Z" fill="white"></path><path d="M92.0768 6.72248C92.0768 8.38712 92.0768 8.38712 93.7602 8.38712C94.5285 8.38712 95.2968 8.36834 96.0634 8.38712C96.83 8.4059 97.2995 8.90956 97.3012 9.62151C97.3029 10.3335 96.859 10.7774 96.0378 10.7893C94.928 10.8064 93.8183 10.8132 92.7102 10.7893C92.251 10.7774 92.0615 10.8798 92.0666 11.3903C92.0939 14.0639 92.0478 16.7376 92.0973 19.4147C92.1383 21.5454 93.0705 22.44 95.2012 22.551C95.4846 22.5664 95.7697 22.551 96.0549 22.5732C96.8095 22.6176 97.1936 23.0222 97.1902 23.7786C97.1868 24.5349 96.7839 24.9293 96.031 24.9618C95.0346 25.0124 94.0372 24.8817 93.0876 24.5759C90.9466 23.8742 89.7429 22.0832 89.6934 19.3993C89.6456 16.8127 89.6542 14.2227 89.6934 11.6344C89.702 10.972 89.5398 10.6937 88.8534 10.7944C88.5416 10.823 88.2279 10.823 87.9161 10.7944C87.0625 10.7603 86.6749 10.3932 86.6817 9.61809C86.6886 8.84297 87.1086 8.43834 87.9059 8.3837C88.4676 8.34444 89.2171 8.63297 89.5449 8.26931C89.9307 7.84078 89.6388 7.07419 89.6746 6.46126C89.6934 6.14883 89.6746 5.83468 89.6746 5.52224C89.7088 4.66858 90.0827 4.29639 90.8698 4.29639C91.6568 4.29639 92.0324 4.67883 92.0649 5.52395C92.0905 5.92517 92.0768 6.32126 92.0768 6.72248Z" fill="white"></path><path d="M64.2858 35.9534C63.9385 35.9461 63.5918 35.9181 63.2478 35.8698C62.6758 35.7622 62.3736 35.3798 62.3275 34.801C62.3156 34.6576 62.3275 34.5039 62.5102 34.4595C62.5444 34.4488 62.5805 34.4452 62.6161 34.4492C62.6517 34.4531 62.6862 34.4644 62.7172 34.4824C62.7482 34.5004 62.7751 34.5247 62.7962 34.5537C62.8173 34.5827 62.8321 34.6157 62.8397 34.6508C62.9165 35.0742 63.1556 35.3337 63.579 35.3337C64.2619 35.3337 64.9636 35.5232 65.5936 35.2039C66.0461 34.9734 65.9641 34.4783 65.8941 34.0566C65.8292 33.6673 65.5748 33.4761 65.1736 33.4761C64.6905 33.4761 64.2056 33.4966 63.7258 33.4505C62.8722 33.3686 62.5307 32.9127 62.5307 32.001C62.5307 31.0893 62.9114 30.6454 63.7617 30.589C64.2439 30.5633 64.7272 30.5633 65.2095 30.589C65.6585 30.6078 66.0631 30.7803 66.2612 31.1986C66.3653 31.4171 66.6522 31.7415 66.2851 31.9395C65.918 32.1376 65.9436 31.7073 65.7866 31.5383C65.1941 30.8844 64.4207 31.2071 63.7122 31.2122C63.2836 31.2122 63.1692 31.5537 63.1487 31.931C63.1146 32.4944 63.3024 32.8751 63.9392 32.8905C64.4224 32.9008 64.9073 32.8905 65.3853 32.9417C66.1878 33.0322 66.5805 33.5427 66.5805 34.422C66.5805 35.3012 66.1844 35.7981 65.3853 35.8971C65.0353 35.9432 64.6922 35.9364 64.2858 35.9534Z" fill="white"></path><path d="M107.317 31.9582C107.846 31.9787 108.416 31.8524 108.816 32.3475C108.959 32.5182 109.108 32.7521 108.91 32.9519C108.711 33.1517 108.594 32.9656 108.423 32.829C107.805 32.3321 107.078 32.5848 106.396 32.6343C106.137 32.6531 106.115 32.9604 106.145 33.1926C106.151 33.3083 106.201 33.4172 106.286 33.4965C106.37 33.5757 106.482 33.6192 106.598 33.6178C107.079 33.6348 107.562 33.6314 108.044 33.6382C108.78 33.6502 109.128 34.0548 109.145 34.7617C109.162 35.4685 108.836 35.9192 108.11 35.9568C107.518 35.9841 106.915 35.9312 106.328 35.9021C106.17 35.9001 106.017 35.8522 105.886 35.7643C105.755 35.6764 105.652 35.5522 105.591 35.407C105.514 35.2363 105.41 35.0109 105.633 34.8743C105.804 34.7736 105.93 34.8897 106.063 35.0246C106.364 35.3285 107.912 35.5248 108.283 35.3319C108.522 35.2056 108.542 34.9785 108.537 34.748C108.537 34.4543 108.385 34.2443 108.088 34.2256C107.636 34.1948 107.182 34.2119 106.722 34.1965C105.881 34.1675 105.555 33.8551 105.553 33.0851C105.551 32.3151 105.869 32.0026 106.717 31.9651C106.919 31.9514 107.117 31.9599 107.317 31.9582Z" fill="white"></path><path d="M74.3206 33.8921C74.3206 32.1199 75.7138 31.2781 77.3306 32.0635C77.5387 32.156 77.7095 32.316 77.8155 32.5177C77.8923 32.6696 77.9691 32.8403 77.7745 32.9599C77.7459 32.9816 77.7132 32.9973 77.6784 33.0061C77.6435 33.0148 77.6073 33.0163 77.5718 33.0106C77.5363 33.0048 77.5024 32.9919 77.4721 32.9726C77.4418 32.9533 77.4157 32.9281 77.3955 32.8984C77.3301 32.7715 77.2294 32.6662 77.1054 32.5953C76.9815 32.5244 76.8397 32.4909 76.6972 32.4989C76.1457 32.5262 75.4287 32.265 75.1043 32.7942C74.715 33.4277 74.8482 34.2335 75.0274 34.9455C75.1452 35.4133 76.6596 35.555 77.1906 35.1879C77.3887 35.0513 77.5696 34.5716 77.8155 34.9984C78.0067 35.3313 77.6704 35.6813 77.3357 35.7633C75.6301 36.1782 74.097 36.0928 74.3206 33.8921Z" fill="white"></path><path d="M83.554 34.067C83.554 34.5485 83.554 35.0317 83.554 35.5131C83.554 35.6839 83.4703 35.9758 83.3372 35.8836C82.6542 35.4243 82.0533 36.027 81.3976 35.9485C80.3733 35.8273 79.9669 35.4943 79.9328 34.4665C79.9106 33.8434 79.9157 33.2185 79.9328 32.5885C79.9328 32.3563 79.832 31.9943 80.1957 31.9773C80.5593 31.9602 80.4842 32.3187 80.4893 32.5578C80.503 33.1809 80.4996 33.8058 80.4893 34.4358C80.4893 35.2724 81.0152 35.4056 81.6845 35.356C82.3128 35.31 82.9906 35.3373 82.9803 34.4085C82.9803 33.7256 82.9803 33.0426 82.9803 32.3597C82.9803 32.148 83.0384 31.9397 83.3064 31.967C83.5199 31.9892 83.5403 32.1839 83.5421 32.358C83.5557 32.9317 83.554 33.4985 83.554 34.067Z" fill="white"></path><path d="M48.8135 35.9206C47.8813 35.883 47.4477 35.4562 47.376 34.7033C47.3264 34.1911 47.3572 33.6789 47.3486 33.1667C47.3486 32.8389 47.4391 32.4599 46.8911 32.4564C46.6845 32.4564 46.5991 32.1269 46.7016 32.0979C47.2411 31.9459 47.4169 31.5959 47.4272 31.0855C47.4272 31.0377 47.6081 30.9506 47.7003 30.9574C47.7362 30.9612 47.771 30.9721 47.8025 30.9897C47.834 31.0073 47.8616 31.0311 47.8837 31.0597C47.9057 31.0883 47.9217 31.121 47.9307 31.156C47.9397 31.1909 47.9415 31.2274 47.936 31.263C47.8677 31.8742 48.2023 31.9801 48.7042 31.9289C48.9023 31.9084 49.1584 31.9289 49.1738 32.173C49.1942 32.494 48.9125 32.5145 48.6855 32.4838C48.0486 32.3967 47.8984 32.716 47.953 33.2725C47.9754 33.6136 47.9754 33.9558 47.953 34.2969C47.9325 34.8757 48.0811 35.3213 48.7623 35.3521C48.9825 35.364 49.184 35.4306 49.1379 35.6935C49.1322 35.73 49.1191 35.765 49.0995 35.7964C49.08 35.8277 49.0543 35.8548 49.024 35.876C48.9937 35.8972 48.9595 35.9121 48.9233 35.9198C48.8871 35.9274 48.8498 35.9277 48.8135 35.9206Z" fill="white"></path><path d="M94.21 35.9051C93.6346 35.8847 93.2317 35.4305 93.1549 34.6912C93.1019 34.179 93.1344 33.6668 93.1241 33.1649C93.1241 32.8388 93.2129 32.4615 92.6717 32.4581C92.4702 32.4581 92.3746 32.1285 92.4719 32.1166C93.1088 31.9988 93.0439 31.4337 93.271 31.0478C93.4246 30.7815 93.7268 31.0205 93.7132 31.2646C93.6773 31.8537 93.9488 31.9971 94.4678 31.9476C94.6812 31.9254 94.98 31.9151 94.9509 32.2532C94.9322 32.5178 94.6761 32.5281 94.4883 32.4956C93.7797 32.3761 93.6875 32.7637 93.7388 33.3322C93.7614 33.6995 93.7614 34.0678 93.7388 34.4351C93.7217 34.9644 93.9095 35.3144 94.4848 35.3639C94.7239 35.3844 94.9834 35.4151 94.9151 35.7327C94.8673 35.9598 94.618 35.9256 94.21 35.9051Z" fill="white"></path><path d="M56.7362 32.818C56.7362 32.1351 56.7362 31.4522 56.7362 30.7812C56.7362 30.5712 56.7686 30.339 57.0008 30.3202C57.3064 30.2963 57.3423 30.561 57.3423 30.7966C57.3423 31.9917 57.3423 33.1732 57.3423 34.3615C57.3423 34.8395 57.2637 35.3671 57.9927 35.4046C58.0283 35.4084 58.0627 35.4196 58.0937 35.4375C58.1246 35.4554 58.1515 35.4797 58.1724 35.5087C58.1934 35.5377 58.2079 35.5708 58.2152 35.6058C58.2225 35.6408 58.2223 35.677 58.2147 35.7119C58.1857 35.8827 58.044 35.9032 57.8903 35.9236C57.2808 36.0124 56.784 35.5822 56.7464 34.8549C56.7105 34.1719 56.7464 33.489 56.7464 32.818H56.7362Z" fill="white"></path><path d="M85.9306 33.9133C85.9306 33.4011 85.9306 32.8889 85.9306 32.3767C85.9306 32.1616 86.1389 31.8645 86.2259 31.9857C86.692 32.6225 87.0967 32.0899 87.5286 32.0011C87.7916 31.9464 88.1791 31.803 88.2594 32.1718C88.3516 32.6055 87.9025 32.5286 87.6601 32.5577C86.8064 32.6601 86.4872 33.1467 86.523 33.9577C86.5418 34.3828 86.5418 34.8113 86.523 35.2364C86.5094 35.4908 86.6408 35.8955 86.2003 35.8835C85.8264 35.8733 85.9425 35.5096 85.9357 35.274C85.922 34.8233 85.9306 34.3674 85.9306 33.9133Z" fill="white"></path><path d="M96.9538 33.87C96.9538 33.4739 96.9367 33.0744 96.9538 32.6749C96.9691 32.4188 96.8257 32.009 97.2269 31.9919C97.6623 31.968 97.5275 32.388 97.5309 32.639C97.5462 33.4927 97.5497 34.3463 97.5309 35.1898C97.5309 35.439 97.6897 35.8727 97.2696 35.8727C96.783 35.8727 96.9777 35.4151 96.9572 35.1454C96.9299 34.7219 96.9538 34.2951 96.9538 33.87Z" fill="white"></path><path d="M90.0292 33.9538C90.0292 33.4416 90.0292 32.9294 90.0292 32.4257C90.0292 32.2243 90.0394 31.9972 90.299 31.9733C90.5858 31.9477 90.5909 32.1935 90.5926 32.3865C90.6006 33.404 90.6006 34.4221 90.5926 35.4408C90.5926 35.6303 90.6097 35.8796 90.3314 35.8864C89.9985 35.8864 90.0292 35.6184 90.0258 35.3964C90.019 34.915 90.0292 34.4352 90.0292 33.9538Z" fill="white"></path><path d="M35.954 33.995C35.954 34.4764 35.954 34.9562 35.954 35.4376C35.954 35.6272 35.9779 35.8696 35.6996 35.8884C35.4214 35.9072 35.3906 35.6989 35.3906 35.4872C35.3906 34.4411 35.3906 33.3946 35.3906 32.3474C35.3906 32.1767 35.4418 31.9906 35.6501 31.9735C35.9387 31.9513 35.9455 32.1869 35.9489 32.3816C35.9591 32.9194 35.954 33.4572 35.954 33.995Z" fill="white"></path><path d="M44.2539 33.9181C44.2539 33.4059 44.2539 32.8937 44.2539 32.3917C44.2539 32.1902 44.271 31.9666 44.5476 31.9734C44.7661 31.9734 44.8037 32.1681 44.8054 32.3405C44.8054 33.415 44.8054 34.4894 44.8054 35.5639C44.8054 35.7449 44.7405 35.9054 44.5168 35.8951C44.2932 35.8849 44.2573 35.7073 44.2556 35.5298C44.2522 34.992 44.2556 34.4559 44.2539 33.9181Z" fill="white"></path><path d="M97.2013 31.2665C96.911 31.2922 96.8137 31.1197 96.8017 30.8551C96.7881 30.5392 96.9195 30.389 97.2508 30.4009C97.5308 30.4112 97.6742 30.5375 97.6759 30.8107C97.6861 31.1163 97.5427 31.2904 97.2013 31.2665Z" fill="white"></path><path d="M44.9577 30.8446C44.9577 31.1861 44.7767 31.28 44.4728 31.268C44.1689 31.2561 44.0972 31.0819 44.0938 30.8241C44.0938 30.4827 44.2764 30.3905 44.5803 30.4041C44.8842 30.4178 44.9696 30.5783 44.9577 30.8446Z" fill="white"></path><path d="M35.6481 30.4064C35.911 30.391 36.0835 30.4764 36.092 30.7752C36.1005 31.0739 36.0288 31.2754 35.6788 31.2686C35.4193 31.2686 35.2434 31.1866 35.2264 30.893C35.2093 30.5993 35.3135 30.3944 35.6481 30.4064Z" fill="white"></path><path d="M90.7264 30.8413C90.7264 31.106 90.6257 31.2648 90.332 31.2699C90.0384 31.275 89.8574 31.1521 89.8574 30.8277C89.8574 30.5033 90.0503 30.4008 90.3474 30.4043C90.6445 30.4077 90.7333 30.5818 90.7264 30.8413Z" fill="white"></path><path d="M115.954 13.1366C115.72 10.6354 114.223 9.01855 111.793 8.61221C109.487 8.22182 107.128 8.26931 104.839 8.75221C103.222 9.09367 101.978 9.96099 101.448 11.6393C101.24 12.3017 101.191 12.8771 101.95 13.21C102.674 13.5276 103.376 13.2988 103.702 12.5271C104.132 11.5027 104.938 11.0793 105.954 10.97C107.623 10.7763 109.307 10.7712 110.977 10.9547C112.522 11.1356 113.236 11.8339 113.552 13.3449C113.687 13.9937 113.617 14.3027 112.804 14.2976C110.274 14.2805 107.74 14.1661 105.215 14.3625C103.081 14.5332 101.713 15.6447 101.216 17.5944C100.877 18.9237 100.873 20.3163 101.204 21.6476C101.628 23.3907 102.707 24.5944 104.496 24.789C107.677 25.1305 110.938 25.5983 113.644 22.8376C113.644 23.2644 113.632 23.5393 113.644 23.8125C113.685 24.5517 114.045 24.9649 114.822 24.9717C115.599 24.9786 116.082 24.6183 116.078 23.7971C116.061 20.2407 116.287 16.6793 115.954 13.1366ZM113.639 17.3656C113.626 17.564 113.626 17.7631 113.639 17.9615C113.639 21.0347 112.49 22.3117 109.418 22.532C108.141 22.6091 106.86 22.6148 105.582 22.549C104.202 22.4927 103.685 21.9703 103.458 20.5856C103.418 20.3598 103.393 20.1317 103.381 19.9027C103.28 17.4373 103.946 16.7356 106.418 16.6998C107.385 16.6878 108.353 16.6998 109.321 16.6998C110.543 16.6998 111.768 16.7254 112.988 16.6878C113.516 16.6673 113.705 16.85 113.639 17.3656Z" fill="white"></path><path d="M50.3901 17.644C52.2101 17.6731 54.0301 17.6543 55.8535 17.6543C57.7316 17.6543 59.6096 17.6645 61.4877 17.6543C62.384 17.6543 62.7272 17.3009 62.7443 16.4165C62.7596 15.5628 62.7613 14.7092 62.7204 13.8555C62.5684 10.7072 60.9567 8.94013 57.8357 8.52184C56.084 8.30925 54.3142 8.29093 52.5584 8.4672C49.4852 8.73867 47.8599 10.1028 47.4365 12.8909C47.0707 15.4291 47.0707 18.0066 47.4365 20.5448C47.7779 23.0357 49.1438 24.4118 51.6279 24.825C54.0719 25.2483 56.5727 25.2211 59.0069 24.7448C60.885 24.3674 62.1535 23.2526 62.5838 21.2994C62.7425 20.5806 62.7169 19.9745 61.9162 19.7031C61.1155 19.4316 60.5162 19.7918 60.2618 20.7001C59.9716 21.7365 59.2955 22.2367 58.2762 22.4228C56.7772 22.6909 55.2696 22.556 53.7655 22.5645C50.5421 22.5799 49.6252 21.6016 49.6679 18.3628C49.6628 17.7806 49.8438 17.6355 50.3901 17.644ZM49.6969 14.4872C49.7192 13.9476 49.7895 13.4111 49.9069 12.884C50.2143 11.7845 50.9194 11.1016 52.0479 10.9599C53.9971 10.712 55.9703 10.7189 57.9177 10.9804C59.625 11.2143 60.7774 13.2272 60.325 14.9687C60.2208 15.3682 59.946 15.2418 59.7257 15.2435C58.1618 15.2555 56.5962 15.2435 55.0323 15.2435C53.8799 15.2435 52.7274 15.2265 51.575 15.2435C51.1914 15.2435 50.8078 15.2509 50.4243 15.2657C49.796 15.2845 49.6406 15.0609 49.6969 14.4872Z" fill="white"></path><path d="M41.8175 32.0727C41.6093 31.8183 41.1346 32.0488 40.7539 31.9925C39.9976 31.8781 39.1422 31.6937 38.519 32.3971C38.0939 32.8768 38.0785 34.7873 38.4541 35.3542C38.8041 35.8783 39.8319 36.0951 40.7351 35.822C40.9642 35.7357 41.1888 35.6377 41.4078 35.5283C41.2815 36.061 41.6417 36.7405 41.1176 36.8429C40.3715 36.9898 39.5076 37.2476 38.799 36.609C38.6863 36.5083 38.5771 36.4229 38.4302 36.5015C38.239 36.6039 38.2595 36.7934 38.3141 36.9505C38.4644 37.3807 38.8263 37.5481 39.2429 37.5668C39.7244 37.5873 40.2075 37.5856 40.689 37.5668C41.6366 37.5464 41.9166 37.2868 41.9388 36.3581C41.9604 35.394 41.9604 34.4294 41.9388 33.4642C41.9268 32.9998 42.1249 32.4432 41.8175 32.0727ZM39.9395 35.3559C38.8758 35.3559 38.7871 35.2466 38.7888 33.9029C38.7888 32.6259 38.9032 32.5064 40.1017 32.5149C41.3002 32.5234 41.3651 32.6327 41.3634 34.0515C41.36 35.1749 41.1705 35.3559 39.9378 35.3576L39.9395 35.3559Z" fill="white"></path><path d="M33.131 32.0352C33.0422 31.1167 32.4788 30.6386 31.5364 30.584C30.8859 30.5464 30.232 30.5942 29.5815 30.5567C29.0454 30.5259 28.8866 30.7547 28.9105 31.2567C28.9412 31.9072 28.9105 32.5594 28.9105 33.2116C28.9105 33.2969 28.9105 33.3817 28.9105 33.466C28.9105 36.126 28.9105 36.126 31.5551 35.8869C32.4907 35.8016 33.0422 35.3389 33.1259 34.4084C33.2012 33.6192 33.2029 32.8247 33.131 32.0352ZM32.6068 33.7425C32.6564 34.3913 32.6068 35.1357 31.7532 35.2791C31.1437 35.3782 30.5103 35.3269 29.8871 35.3423C29.5593 35.3423 29.5371 35.1255 29.5371 34.883C29.5371 34.3139 29.5371 33.7448 29.5371 33.1757C29.5291 33.0341 29.5291 32.8922 29.5371 32.7506C29.5951 32.2247 29.2742 31.4394 29.6788 31.226C30.2968 30.9016 31.1471 30.9545 31.8283 31.226C33.061 31.704 32.5385 32.8564 32.6068 33.7477V33.7425Z" fill="white"></path><path d="M54.4727 35.1743C54.4966 34.9217 54.4727 34.6621 54.4727 34.4077C54.4727 34.1807 54.4813 33.9536 54.4727 33.7248C54.442 33.0675 54.4574 32.3487 53.684 32.0909C52.8559 31.816 52.004 31.8246 51.2186 32.2719C50.9676 32.4153 50.7457 32.7141 50.9557 32.9804C51.2101 33.3014 51.3466 32.9258 51.531 32.7824C52.1354 32.3129 52.8098 32.4409 53.4722 32.6236C53.5857 32.6512 53.6836 32.7224 53.7447 32.8219C53.8058 32.9214 53.8251 33.041 53.7983 33.1546C53.7352 33.4278 53.474 33.2997 53.2981 33.3082C52.8166 33.3287 52.3301 33.2895 51.8503 33.3373C51.0871 33.4141 50.7849 33.928 50.7952 34.6382C50.8054 35.3485 51.0803 35.8573 51.8725 35.9068C52.4103 35.9392 52.9498 35.9887 53.4569 35.7258C53.5662 35.6695 53.6771 35.4936 53.8205 35.6199C54.6554 36.3695 54.4352 35.5687 54.4727 35.1743ZM52.6561 35.3451C51.572 35.4099 51.1639 35.0787 51.4474 34.3412C51.7035 33.6702 52.3335 34.1021 52.803 33.9331C53.1 34.1909 53.841 33.5217 53.8274 34.4453C53.8222 35.2119 53.2418 35.3024 52.6561 35.3451Z" fill="white"></path><path d="M72.1251 34.6626C72.0938 34.6453 72.0593 34.6347 72.0238 34.6312C71.9882 34.6277 71.9523 34.6315 71.9183 34.6424C71.8843 34.6533 71.8528 34.671 71.8258 34.6944C71.7989 34.7178 71.7769 34.7465 71.7614 34.7787C71.2492 35.7416 70.3751 35.3028 69.6393 35.2909C69.2346 35.2806 69.1561 34.876 69.1578 34.5106C69.1578 34.0172 69.5368 34.193 69.7758 34.1828C70.428 34.1555 71.0802 34.1521 71.7324 34.1572C72.1165 34.1572 72.3044 34.0206 72.2975 33.6091C72.2873 32.9621 72.2463 32.3457 71.548 32.035C70.8241 31.714 69.2056 31.8643 68.888 32.3423C68.3161 33.2165 68.4066 34.2016 68.7019 35.1252C68.9597 35.9328 69.7263 35.8867 70.4212 35.8901C71.1161 35.8935 71.8775 35.9448 72.2275 35.1099C72.2924 34.9562 72.3334 34.7633 72.1251 34.6626ZM69.6768 32.5728C70.1207 32.4913 70.5747 32.4797 71.0222 32.5387C71.1151 32.5396 71.2067 32.5602 71.2911 32.5991C71.3754 32.6379 71.4506 32.6942 71.5117 32.7642C71.5728 32.8341 71.6184 32.9162 71.6456 33.0051C71.6727 33.0939 71.6808 33.1875 71.6692 33.2796C71.6487 33.7918 71.2151 33.5477 70.9522 33.5938C70.9042 33.602 70.8557 33.6071 70.807 33.6091C70.6602 33.6091 70.51 33.6006 70.3614 33.6006H70.0644C69.9653 33.6006 69.8663 33.6006 69.769 33.6006C69.5146 33.5818 69.1561 33.7133 69.1646 33.2455C69.1715 32.904 69.3063 32.6599 69.6768 32.5813V32.5728Z" fill="white"></path><path d="M101.011 34.181C101.634 34.1486 102.259 34.1605 102.889 34.1503C103.142 34.1503 103.402 34.1691 103.514 33.843C103.712 33.2625 103.388 32.2278 102.823 32.081C101.09 31.6286 99.5311 31.7396 99.7633 33.8925C99.7633 34.0342 99.7633 34.1759 99.7633 34.3176C99.7633 34.9903 99.9186 35.6322 100.656 35.7756C101.532 35.9464 102.461 36.1359 103.243 35.4461C103.339 35.3418 103.41 35.2168 103.449 35.0808C103.497 34.9527 103.55 34.8008 103.398 34.7C103.365 34.6724 103.326 34.6529 103.284 34.6432C103.242 34.6334 103.198 34.6337 103.156 34.6441C103.114 34.6544 103.075 34.6744 103.043 34.7025C103.01 34.7306 102.984 34.766 102.968 34.8059C102.466 35.7227 101.623 35.3078 100.919 35.3044C100.465 35.3044 100.363 34.8708 100.376 34.4798C100.383 34.0034 100.772 34.193 101.011 34.181ZM100.868 32.5864C101.311 32.5001 101.766 32.4869 102.213 32.5471C102.644 32.5915 102.888 32.8288 102.867 33.271C102.843 33.7952 102.425 33.563 102.162 33.6125C102.065 33.6258 101.967 33.6304 101.868 33.6261C101.769 33.6261 101.67 33.6261 101.571 33.6261H101.423C101.275 33.6346 101.127 33.6346 100.979 33.6261C100.75 33.6056 100.402 33.7491 100.368 33.3734C100.337 33.0081 100.444 32.682 100.868 32.5864Z" fill="white"></path></g><defs><clipPath id="clip0"><rect width="140" height="37.0676" fill="white" transform="translate(0.224609 0.516113)"></rect></clipPath></defs></svg>