<svg xmlns="http://www.w3.org/2000/svg" width="140" height="33" viewBox="0 0 140 33" fill="none"><path fill-rule="evenodd" clip-rule="evenodd" d="M91.7007 7.91016L91.7007 24.4302L90.7207 24.4302L90.7207 7.91016L91.7007 7.91016Z" fill="#051B52"></path><path d="M54.5991 12.25V20.02H53.6191V12.25H54.5991Z" fill="#051B52"></path><path fill-rule="evenodd" clip-rule="evenodd" d="M69.8591 12.25H65.7991V20.02H66.7791V17.115H69.8591C70.5164 17.115 71.0491 16.5822 71.0491 15.925V13.44C71.0491 12.7828 70.5164 12.25 69.8591 12.25ZM69.8591 16.135H66.7791V13.23H69.8591C69.9751 13.23 70.0691 13.324 70.0691 13.44V15.925C70.0691 16.041 69.9751 16.135 69.8591 16.135Z" fill="#051B52"></path><path d="M73.4291 18.83V12.32H74.4091V18.83C74.4091 18.946 74.5032 19.04 74.6191 19.04H78.1191C78.2351 19.04 78.3291 18.946 78.3291 18.83V12.32H79.3091V18.83C79.3091 19.4872 78.7764 20.02 78.1191 20.02H74.6191C73.9619 20.02 73.4291 19.4872 73.4291 18.83Z" fill="#051B52"></path><path d="M80.8491 13.3H83.2291V20.02H84.2091V13.3H86.5891V12.32H80.8491V13.3Z" fill="#051B52"></path><path d="M62.2291 12.25V18.3254L58.1978 12.25H57.2591V20.02H58.2391V14.0847L62.131 20.02H63.2091V12.25H62.2291Z" fill="#051B52"></path><path fill-rule="evenodd" clip-rule="evenodd" d="M119.84 12.25H123.9C124.558 12.25 125.09 12.7828 125.09 13.44V15.925C125.09 16.5822 124.558 17.115 123.9 17.115H120.82V20.02H119.84V12.25ZM120.82 16.135H123.9C124.016 16.135 124.11 16.041 124.11 15.925V13.44C124.11 13.324 124.016 13.23 123.9 13.23H120.82V16.135Z" fill="#051B52"></path><path fill-rule="evenodd" clip-rule="evenodd" d="M127.54 18.83V12.25H128.52V18.83C128.52 18.946 128.614 19.04 128.73 19.04H132.23C132.346 19.04 132.44 18.946 132.44 18.83V12.25H133.42V18.83C133.42 19.4872 132.888 20.02 132.23 20.02H128.73C128.073 20.02 127.54 19.4872 127.54 18.83Z" fill="#051B52"></path><path fill-rule="evenodd" clip-rule="evenodd" d="M97.5103 13.3C97.3943 13.3 97.3003 13.394 97.3003 13.51V18.83C97.3003 18.946 97.3943 19.04 97.5103 19.04H101.15C101.266 19.04 101.36 18.946 101.36 18.83V13.51C101.36 13.394 101.266 13.3 101.15 13.3H97.5103ZM96.3203 13.51C96.3203 12.8528 96.8531 12.32 97.5103 12.32H101.15C101.808 12.32 102.34 12.8528 102.34 13.51V18.83C102.34 19.4872 101.808 20.02 101.15 20.02H97.5103C96.8531 20.02 96.3203 19.4872 96.3203 18.83V13.51Z" fill="#051B52"></path><path fill-rule="evenodd" clip-rule="evenodd" d="M105 18.83V12.25H105.98V18.83C105.98 18.946 106.074 19.04 106.19 19.04H109.83C109.946 19.04 110.04 18.946 110.04 18.83V12.25H111.02V18.83C111.02 19.4872 110.488 20.02 109.83 20.02H106.19C105.533 20.02 105 19.4872 105 18.83Z" fill="#051B52"></path><path fill-rule="evenodd" clip-rule="evenodd" d="M137.34 13.23H134.96V12.25H140V13.23H138.32V20.02H137.34V13.23Z" fill="#051B52"></path><path fill-rule="evenodd" clip-rule="evenodd" d="M114.87 13.23H112.49V12.25H118.23V13.23H115.85V20.02H114.87V13.23Z" fill="#051B52"></path><path fill-rule="evenodd" clip-rule="evenodd" d="M1.33 0C0.595461 0 0 0.595461 0 1.33C0 2.06454 0.595461 2.66 1.33 2.66C1.99237 2.66 2.54165 2.1758 2.64319 1.54204C7.99827 1.60761 12.8303 3.25096 16.3408 5.86546C19.5802 8.27796 21.6857 11.509 22.06 15.0887C19.9684 11.0821 14.1403 4.98893 5.16262 5.31445C5.05962 4.68242 4.51115 4.2 3.85 4.2C3.11546 4.2 2.52 4.79546 2.52 5.53C2.52 6.26454 3.11546 6.86 3.85 6.86C4.51494 6.86 5.06591 6.37204 5.16435 5.73467C13.8991 5.41183 19.5908 11.317 21.6539 15.218C20.5811 14.2508 18.9515 13.0161 16.9804 11.9262C14.4153 10.508 11.2536 9.32507 7.97274 9.31014C7.90284 8.64134 7.33731 8.12 6.65 8.12C5.91546 8.12 5.32 8.71546 5.32 9.45C5.32 10.1845 5.91546 10.78 6.65 10.78C7.28847 10.78 7.82186 10.3301 7.95046 9.73006C11.1429 9.73973 14.2418 10.892 16.7771 12.2938C18.7897 13.4065 20.4356 14.6701 21.4783 15.626C18.7707 14.6579 13.9821 13.2996 10.4849 13.0287C10.3879 12.3897 9.83612 11.9 9.17 11.9C8.43546 11.9 7.84 12.4955 7.84 13.23C7.84 13.9645 8.43546 14.56 9.17 14.56C9.82968 14.56 10.3772 14.0797 10.4819 13.4498C13.8542 13.7163 18.4606 15.0081 21.1639 15.96H13.8435C13.7428 15.3252 13.1931 14.84 12.53 14.84C11.7955 14.84 11.2 15.4355 11.2 16.17C11.2 16.9045 11.7955 17.5 12.53 17.5C13.1931 17.5 13.7428 17.0148 13.8435 16.38H21.1639C18.4606 17.3319 13.8542 18.6237 10.4819 18.8902C10.3772 18.2603 9.82968 17.78 9.17 17.78C8.43546 17.78 7.84 18.3755 7.84 19.11C7.84 19.8445 8.43546 20.44 9.17 20.44C9.83612 20.44 10.3879 19.9503 10.4849 19.3113C13.9821 19.0404 18.7707 17.6821 21.4783 16.714C20.4356 17.6699 18.7897 18.9335 16.7771 20.0462C14.2418 21.448 11.1429 22.6003 7.95046 22.6099C7.82186 22.0099 7.28847 21.56 6.65 21.56C5.91546 21.56 5.32 22.1555 5.32 22.89C5.32 23.6245 5.91546 24.22 6.65 24.22C7.33731 24.22 7.90284 23.6987 7.97274 23.0299C11.2536 23.0149 14.4153 21.832 16.9804 20.4138C18.9515 19.3239 20.5811 18.0892 21.6539 17.122C19.5908 21.023 13.8991 26.9282 5.16435 26.6053C5.06591 25.968 4.51494 25.48 3.85 25.48C3.11546 25.48 2.52 26.0755 2.52 26.81C2.52 27.5445 3.11546 28.14 3.85 28.14C4.51115 28.14 5.05962 27.6576 5.16262 27.0256C14.1403 27.3511 19.9684 21.2579 22.06 17.2513C21.6857 20.831 19.5802 24.062 16.3408 26.4745C12.8303 29.089 7.99827 30.7324 2.64319 30.798C2.54165 30.1642 1.99237 29.68 1.33 29.68C0.595461 29.68 0 30.2755 0 31.01C0 31.7445 0.595461 32.34 1.33 32.34C1.99378 32.34 2.54399 31.8537 2.64383 31.218C8.08071 31.1523 13.0024 29.4845 16.5917 26.8114C20.2136 24.114 22.489 20.3829 22.5392 16.24H22.54C22.54 16.2167 22.5399 16.1933 22.5398 16.17C22.5399 16.1467 22.54 16.1234 22.54 16.1H22.5392C22.489 11.9571 20.2136 8.22602 16.5917 5.52862C13.0024 2.85548 8.08071 1.18772 2.64383 1.12202C2.54399 0.486271 1.99378 0 1.33 0ZM0.42 1.33C0.42 0.827421 0.827421 0.42 1.33 0.42C1.83258 0.42 2.24 0.827421 2.24 1.33C2.24 1.83258 1.83258 2.24 1.33 2.24C0.827421 2.24 0.42 1.83258 0.42 1.33ZM3.85 4.62C3.34742 4.62 2.94 5.02742 2.94 5.53C2.94 6.03258 3.34742 6.44 3.85 6.44C4.35258 6.44 4.76 6.03258 4.76 5.53C4.76 5.02742 4.35258 4.62 3.85 4.62ZM5.74 9.45C5.74 8.94742 6.14742 8.54 6.65 8.54C7.15258 8.54 7.56 8.94742 7.56 9.45C7.56 9.95258 7.15258 10.36 6.65 10.36C6.14742 10.36 5.74 9.95258 5.74 9.45ZM9.17 12.32C8.66742 12.32 8.26 12.7274 8.26 13.23C8.26 13.7326 8.66742 14.14 9.17 14.14C9.67258 14.14 10.08 13.7326 10.08 13.23C10.08 12.7274 9.67258 12.32 9.17 12.32ZM11.62 16.17C11.62 15.6674 12.0274 15.26 12.53 15.26C13.0326 15.26 13.44 15.6674 13.44 16.17C13.44 16.6726 13.0326 17.08 12.53 17.08C12.0274 17.08 11.62 16.6726 11.62 16.17ZM1.33 31.92C0.827421 31.92 0.42 31.5126 0.42 31.01C0.42 30.5074 0.827421 30.1 1.33 30.1C1.83258 30.1 2.24 30.5074 2.24 31.01C2.24 31.5126 1.83258 31.92 1.33 31.92ZM2.94 26.81C2.94 27.3126 3.34742 27.72 3.85 27.72C4.35258 27.72 4.76 27.3126 4.76 26.81C4.76 26.3074 4.35258 25.9 3.85 25.9C3.34742 25.9 2.94 26.3074 2.94 26.81ZM6.65 23.8C6.14742 23.8 5.74 23.3926 5.74 22.89C5.74 22.3874 6.14742 21.98 6.65 21.98C7.15258 21.98 7.56 22.3874 7.56 22.89C7.56 23.3926 7.15258 23.8 6.65 23.8ZM8.26 19.11C8.26 19.6126 8.66742 20.02 9.17 20.02C9.67258 20.02 10.08 19.6126 10.08 19.11C10.08 18.6074 9.67258 18.2 9.17 18.2C8.66742 18.2 8.26 18.6074 8.26 19.11Z" fill="#051B52"></path><path fill-rule="evenodd" clip-rule="evenodd" d="M44.3096 0C45.0442 0 45.6396 0.595461 45.6396 1.33C45.6396 2.06454 45.0442 2.66 44.3096 2.66C43.6472 2.66 43.098 2.1758 42.9964 1.54204C37.6413 1.60761 32.8093 3.25096 29.2988 5.86546C26.0594 8.27796 23.9539 11.509 23.5796 15.0887C25.6712 11.0821 31.4994 4.98893 40.477 5.31445C40.58 4.68242 41.1285 4.2 41.7896 4.2C42.5242 4.2 43.1196 4.79546 43.1196 5.53C43.1196 6.26454 42.5242 6.86 41.7896 6.86C41.1247 6.86 40.5737 6.37204 40.4753 5.73467C31.7405 5.41183 26.0488 11.317 23.9857 15.218C25.0585 14.2508 26.6881 13.0161 28.6592 11.9262C31.2243 10.508 34.386 9.32507 37.6669 9.31014C37.7368 8.64134 38.3023 8.12 38.9896 8.12C39.7242 8.12 40.3196 8.71546 40.3196 9.45C40.3196 10.1845 39.7242 10.78 38.9896 10.78C38.3511 10.78 37.8178 10.3301 37.6892 9.73006C34.4967 9.73973 31.3978 10.892 28.8625 12.2938C26.8499 13.4065 25.204 14.6701 24.1613 15.626C26.8689 14.6579 31.6575 13.2996 35.1547 13.0287C35.2518 12.3897 35.8035 11.9 36.4696 11.9C37.2042 11.9 37.7996 12.4955 37.7996 13.23C37.7996 13.9645 37.2042 14.56 36.4696 14.56C35.8099 14.56 35.2624 14.0797 35.1577 13.4498C31.7854 13.7163 27.179 15.0081 24.4757 15.96H31.7961C31.8968 15.3252 32.4465 14.84 33.1096 14.84C33.8442 14.84 34.4396 15.4355 34.4396 16.17C34.4396 16.9045 33.8442 17.5 33.1096 17.5C32.4465 17.5 31.8968 17.0148 31.7961 16.38H24.4757C27.179 17.3319 31.7854 18.6237 35.1577 18.8902C35.2624 18.2603 35.8099 17.78 36.4696 17.78C37.2042 17.78 37.7996 18.3755 37.7996 19.11C37.7996 19.8445 37.2042 20.44 36.4696 20.44C35.8035 20.44 35.2518 19.9503 35.1547 19.3113C31.6575 19.0404 26.8689 17.6821 24.1613 16.714C25.204 17.6699 26.8499 18.9335 28.8625 20.0462C31.3978 21.448 34.4967 22.6003 37.6892 22.6099C37.8178 22.0099 38.3511 21.56 38.9896 21.56C39.7242 21.56 40.3196 22.1555 40.3196 22.89C40.3196 23.6245 39.7242 24.22 38.9896 24.22C38.3023 24.22 37.7368 23.6987 37.6669 23.0299C34.386 23.0149 31.2243 21.832 28.6592 20.4138C26.6881 19.3239 25.0585 18.0892 23.9857 17.122C26.0488 21.023 31.7405 26.9282 40.4753 26.6053C40.5737 25.968 41.1247 25.48 41.7896 25.48C42.5242 25.48 43.1196 26.0755 43.1196 26.81C43.1196 27.5445 42.5242 28.14 41.7896 28.14C41.1285 28.14 40.58 27.6576 40.477 27.0256C31.4994 27.3511 25.6712 21.2579 23.5796 17.2513C23.9539 20.831 26.0594 24.062 29.2988 26.4745C32.8093 29.089 37.6413 30.7324 42.9964 30.798C43.098 30.1642 43.6472 29.68 44.3096 29.68C45.0442 29.68 45.6396 30.2755 45.6396 31.01C45.6396 31.7445 45.0442 32.34 44.3096 32.34C43.6458 32.34 43.0956 31.8537 42.9958 31.218C37.5589 31.1523 32.6372 29.4845 29.0479 26.8114C25.426 24.114 23.1506 20.3829 23.1005 16.24H23.0996C23.0996 16.2167 23.0997 16.1933 23.0998 16.17C23.0997 16.1467 23.0996 16.1233 23.0996 16.1H23.1005C23.1506 11.9571 25.426 8.22602 29.0479 5.52862C32.6372 2.85548 37.5589 1.18772 42.9958 1.12202C43.0956 0.486271 43.6458 0 44.3096 0ZM45.2196 1.33C45.2196 0.827421 44.8122 0.42 44.3096 0.42C43.807 0.42 43.3996 0.827421 43.3996 1.33C43.3996 1.83258 43.807 2.24 44.3096 2.24C44.8122 2.24 45.2196 1.83258 45.2196 1.33ZM41.7896 4.62C42.2922 4.62 42.6996 5.02742 42.6996 5.53C42.6996 6.03258 42.2922 6.44 41.7896 6.44C41.287 6.44 40.8796 6.03258 40.8796 5.53C40.8796 5.02742 41.287 4.62 41.7896 4.62ZM39.8996 9.45C39.8996 8.94742 39.4922 8.54 38.9896 8.54C38.487 8.54 38.0796 8.94742 38.0796 9.45C38.0796 9.95258 38.487 10.36 38.9896 10.36C39.4922 10.36 39.8996 9.95258 39.8996 9.45ZM36.4696 12.32C36.9722 12.32 37.3796 12.7274 37.3796 13.23C37.3796 13.7326 36.9722 14.14 36.4696 14.14C35.967 14.14 35.5596 13.7326 35.5596 13.23C35.5596 12.7274 35.967 12.32 36.4696 12.32ZM34.0196 16.17C34.0196 15.6674 33.6122 15.26 33.1096 15.26C32.607 15.26 32.1996 15.6674 32.1996 16.17C32.1996 16.6726 32.607 17.08 33.1096 17.08C33.6122 17.08 34.0196 16.6726 34.0196 16.17ZM44.3096 31.92C44.8122 31.92 45.2196 31.5126 45.2196 31.01C45.2196 30.5074 44.8122 30.1 44.3096 30.1C43.807 30.1 43.3996 30.5074 43.3996 31.01C43.3996 31.5126 43.807 31.92 44.3096 31.92ZM42.6996 26.81C42.6996 27.3126 42.2922 27.72 41.7896 27.72C41.287 27.72 40.8796 27.3126 40.8796 26.81C40.8796 26.3074 41.287 25.9 41.7896 25.9C42.2922 25.9 42.6996 26.3074 42.6996 26.81ZM38.9896 23.8C39.4922 23.8 39.8996 23.3926 39.8996 22.89C39.8996 22.3874 39.4922 21.98 38.9896 21.98C38.487 21.98 38.0796 22.3874 38.0796 22.89C38.0796 23.3926 38.487 23.8 38.9896 23.8ZM37.3796 19.11C37.3796 19.6126 36.9722 20.02 36.4696 20.02C35.967 20.02 35.5596 19.6126 35.5596 19.11C35.5596 18.6074 35.967 18.2 36.4696 18.2C36.9722 18.2 37.3796 18.6074 37.3796 19.11Z" fill="#051B52"></path></svg>