<svg xmlns="http://www.w3.org/2000/svg" width="141" height="23" viewBox="0 0 141 23" fill="none"><path d="M13.2354 0.67917C15.6633 0.515754 18.1379 1.006 20.309 2.10322C23.5307 3.6907 26.0986 6.53882 27.2892 9.90053C27.8262 11.3946 28.1063 12.9587 28.1063 14.5462V20.4059C28.1063 20.6393 28.1063 20.8961 28.0596 21.1296C27.9196 21.7132 27.4993 22.2501 26.9391 22.5069C26.5422 22.6937 26.0986 22.717 25.7018 22.647C24.8146 22.4836 24.1143 21.6432 24.1143 20.7327C24.1143 18.9118 24.1143 17.0909 24.1143 15.2699C24.1376 14.7563 24.1376 14.196 23.8575 13.7525C23.4139 12.9121 22.2934 12.5152 21.4296 12.8654C20.6825 13.1222 20.1456 13.8926 20.1223 14.6863C20.1223 16.5306 20.1223 18.3748 20.1223 20.2191C20.1223 20.5693 20.1456 20.9195 20.0289 21.2463C19.8421 21.9 19.3052 22.4136 18.6515 22.6003C17.7877 22.8338 16.8072 22.4602 16.387 21.6665C16.0835 21.1996 16.1069 20.616 16.1302 20.079C16.1302 18.2348 16.1302 16.4138 16.1302 14.5696C16.1069 13.6358 15.3365 12.7953 14.426 12.6786C13.8191 12.5852 13.1887 12.7953 12.7452 13.2155C12.3483 13.5891 12.1382 14.126 12.1382 14.6629V20.009C12.1382 20.4526 12.1849 20.9195 12.0215 21.3397C11.7647 22.1101 10.9943 22.6703 10.1772 22.647C9.33678 22.6937 8.51969 22.1101 8.2629 21.3397C8.12283 20.9428 8.14617 20.5459 8.14617 20.1257C8.14617 18.2815 8.14617 16.4372 8.14617 14.5929C8.14617 13.6824 7.42247 12.842 6.53535 12.6786C5.71827 12.5152 4.83115 12.9121 4.41094 13.6591C4.24752 13.9626 4.15414 14.3128 4.15414 14.6629V20.6627C4.15414 21.2463 3.89734 21.8299 3.45378 22.2034C2.77677 22.7871 1.67955 22.8338 0.979192 22.2968C0.465597 21.9466 0.162109 21.3397 0.162109 20.7094V14.6396C0.162109 12.3518 0.74574 10.0639 1.84296 8.03291C2.73008 6.3754 3.96738 4.90465 5.43813 3.73739C7.60923 1.91646 10.3873 0.842587 13.2354 0.67917Z" fill="#051B52"></path><path d="M67.7912 7.70626H64.7563C64.8731 5.58185 65.3166 3.66754 67.2543 2.45359C69.1919 1.26299 71.3163 0.982844 73.5341 1.16961C74.7247 1.26299 75.9154 1.51979 77.0126 2.03338C78.9502 2.9205 79.9074 4.43794 79.9074 6.56235C79.9074 10.3209 79.9074 14.0795 79.9074 17.8381C79.9074 19.2155 80.1875 19.4723 81.5649 19.3322C81.705 19.3088 81.8684 19.2855 82.0084 19.2621C82.0318 19.3322 82.0318 19.4022 82.0318 19.4489V21.7367C80.9346 22.1103 79.814 22.227 78.7168 21.9235C77.8997 21.69 77.3861 21.1064 77.106 20.336C76.9659 19.9392 76.8725 19.5189 76.7558 19.0754C76.6391 19.2155 76.5457 19.3322 76.4289 19.4489C74.0244 21.8768 71.1763 22.904 67.8146 22.0402C65.4333 21.4333 63.7992 19.2621 63.7292 16.7876C63.7058 15.9938 63.7758 15.2001 63.9626 14.4297C64.4062 12.6555 65.6668 11.5816 67.2543 10.8579C68.3748 10.3443 69.5888 10.2042 70.8028 10.0408C72.2268 9.85402 73.6275 9.69061 75.0516 9.4805C76.0087 9.34043 76.499 8.82684 76.6391 7.86968C76.9425 5.93203 76.0788 4.64805 74.2112 4.18114C73.0906 3.901 71.9467 3.85431 70.8028 4.06442C69.1219 4.36791 68.1881 5.32506 67.8613 6.98257C67.8846 7.21602 67.8379 7.44947 67.7912 7.70626ZM76.7324 11.4415C75.3317 12.1885 73.9777 12.3753 72.6003 12.5854C71.4564 12.7722 70.2892 12.9356 69.1686 13.2858C67.6978 13.776 67.0208 14.99 67.1609 16.6241C67.2776 17.9782 68.1881 19.0754 69.6588 19.3088C71.9233 19.6824 73.931 19.052 75.5185 17.3712C75.9854 16.8809 76.3589 16.1806 76.4523 15.5269C76.6624 14.2196 76.6391 12.8889 76.7324 11.4415ZM119.991 15.3635C119.921 15.6903 119.874 15.9705 119.804 16.2273C118.497 20.2193 115.836 21.9235 112.614 22.297C107.035 22.904 103.836 19.2621 103.019 15.3868C102.365 12.3053 102.459 9.24705 103.813 6.35224C105.097 3.62086 107.151 1.82327 110.209 1.28633C113.875 0.632666 119.057 2.45359 119.921 8.17317C120.155 9.64392 120.201 11.1614 120.341 12.7021H106.147C106.264 14.8032 106.591 16.7642 108.132 18.2816C108.762 18.912 109.579 19.2155 110.466 19.3789C113.338 19.8925 115.719 18.5151 116.653 15.737C116.746 15.4335 116.886 15.3402 117.19 15.3635C118.1 15.3635 119.011 15.3635 119.991 15.3635ZM106.264 9.9941H116.886C116.769 8.7568 116.559 7.61288 115.976 6.539C115.415 5.51181 114.598 4.76477 113.478 4.39125C109.813 3.13061 106.031 6.04876 106.264 9.9941ZM127.625 21.62H124.403V1.58982H127.462V4.39125C127.695 4.13445 127.835 3.97104 127.975 3.80762C130.17 1.30968 132.924 0.656013 136.053 1.4264C138.224 1.96334 139.438 3.50413 139.858 5.65189C140.021 6.53901 140.138 7.44947 140.138 8.33659C140.161 12.6321 140.161 16.9276 140.161 21.2231C140.161 21.3399 140.138 21.4566 140.138 21.5967H136.846V21.0597C136.846 17.0443 136.87 13.029 136.823 9.0136C136.823 8.12648 136.683 7.21602 136.426 6.35224C136.006 4.95153 134.885 4.20449 133.415 4.13445C130.73 4.04107 128.605 5.46513 127.952 7.84634C127.718 8.71011 127.648 9.62057 127.648 10.531C127.625 14.0562 127.625 17.5579 127.625 21.0364V21.62ZM85.1601 1.58982H88.265V10.0875C88.4517 9.90072 88.5685 9.80733 88.6852 9.69061C91.2298 7.09929 93.7744 4.48463 96.3191 1.89331C96.5292 1.65986 96.7393 1.56648 97.0661 1.56648C98.2567 1.58982 99.4707 1.56648 100.778 1.56648C100.591 1.75324 100.498 1.86996 100.381 1.98669C98.14 4.22783 95.9222 6.49232 93.6577 8.71011C93.4009 8.96691 93.4009 9.13033 93.5643 9.41047C96.0156 13.3091 98.4435 17.2078 100.871 21.1064C100.965 21.2465 101.035 21.3866 101.152 21.5967C100.988 21.62 100.871 21.62 100.731 21.62C99.6107 21.62 98.5135 21.62 97.3929 21.62C97.0895 21.62 96.9494 21.5033 96.786 21.2698C94.9183 18.1416 93.0507 15.0133 91.1831 11.8617C91.0897 11.7216 91.0197 11.5816 90.903 11.4182C90.0392 12.2819 89.1988 13.099 88.3583 13.9628C88.2416 14.0795 88.2183 14.2896 88.2183 14.453C88.2183 16.6475 88.2183 18.8419 88.2183 21.0364V21.5967C87.6113 21.5967 87.0043 21.5967 86.4207 21.5967C86.0005 21.5967 85.4169 21.7134 85.1834 21.4799C84.9733 21.2932 85.09 20.6862 85.09 20.266V2.12676C85.16 2.01003 85.1601 1.82328 85.1601 1.58982ZM49.3252 1.56648C46.8039 4.06441 44.3526 6.51566 41.878 8.96691C44.5394 13.2157 47.1307 17.3712 49.7687 21.62C49.5586 21.62 49.4185 21.6434 49.2785 21.6434C48.2046 21.6434 47.1074 21.6434 46.0335 21.6434C45.73 21.6434 45.5432 21.5266 45.3798 21.2698C43.5122 18.1416 41.6446 15.0133 39.777 11.8617C39.7069 11.7216 39.6136 11.6049 39.4968 11.4182C39.0299 11.9084 38.6097 12.4453 38.0961 12.8189C37.0456 13.6126 36.7421 14.5931 36.8121 15.9004C36.9289 17.6046 36.8355 19.3322 36.8355 21.0364V21.5967H33.7539V1.58982H36.8355V9.9474C36.9055 9.9941 36.9755 10.0408 37.0222 10.0875C37.1156 9.94741 37.1623 9.78399 37.2557 9.66727C39.777 7.07595 42.3216 4.50797 44.8429 1.89331C45.0763 1.65986 45.2864 1.54313 45.6366 1.56648C46.6872 1.58982 47.7377 1.56648 48.7882 1.56648C48.9516 1.56648 49.0917 1.56648 49.3252 1.56648ZM55.4883 4.90484C57.0524 2.61701 58.7099 0.702708 61.7915 1.26299V4.69473C60.9744 4.74142 60.1573 4.71808 59.3869 4.8815C57.496 5.27837 56.0252 7.00591 55.7217 9.10698C55.6751 9.52719 55.6284 9.94741 55.6284 10.3676C55.6284 13.9394 55.6284 17.5113 55.6284 21.0831V21.6434H52.4534V1.63651H55.4883C55.4883 2.68704 55.4883 3.73758 55.4883 4.90484Z" fill="#051B52"></path></svg>