<svg xmlns="http://www.w3.org/2000/svg" width="140" height="23" viewBox="0 0 140 23" fill="none"><path d="M13.0733 0.67917C15.5012 0.515754 17.9758 1.006 20.1469 2.10322C23.3686 3.6907 25.9365 6.53882 27.1271 9.90053C27.6641 11.3946 27.9442 12.9587 27.9442 14.5462V20.4059C27.9442 20.6393 27.9442 20.8961 27.8975 21.1296C27.7575 21.7132 27.3372 22.2501 26.777 22.5069C26.3801 22.6937 25.9365 22.717 25.5397 22.647C24.6525 22.4836 23.9522 21.6432 23.9522 20.7327C23.9522 18.9118 23.9522 17.0909 23.9522 15.2699C23.9755 14.7563 23.9755 14.196 23.6954 13.7525C23.2518 12.9121 22.1313 12.5152 21.2675 12.8654C20.5204 13.1222 19.9835 13.8926 19.9602 14.6863C19.9602 16.5306 19.9602 18.3748 19.9602 20.2191C19.9602 20.5693 19.9835 20.9195 19.8668 21.2463C19.68 21.9 19.1431 22.4136 18.4894 22.6003C17.6256 22.8338 16.6451 22.4602 16.2249 21.6665C15.9214 21.1996 15.9448 20.616 15.9681 20.079C15.9681 18.2348 15.9681 16.4138 15.9681 14.5696C15.9448 13.6358 15.1744 12.7953 14.2639 12.6786C13.6569 12.5852 13.0266 12.7953 12.5831 13.2155C12.1862 13.5891 11.9761 14.126 11.9761 14.6629V20.009C11.9761 20.4526 12.0228 20.9195 11.8594 21.3397C11.6026 22.1101 10.8322 22.6703 10.0151 22.647C9.17467 22.6937 8.35758 22.1101 8.10079 21.3397C7.96072 20.9428 7.98406 20.5459 7.98406 20.1257C7.98406 18.2815 7.98406 16.4372 7.98406 14.5929C7.98406 13.6824 7.26036 12.842 6.37324 12.6786C5.55616 12.5152 4.66904 12.9121 4.24883 13.6591C4.08541 13.9626 3.99203 14.3128 3.99203 14.6629V20.6627C3.99203 21.2463 3.73523 21.8299 3.29167 22.2034C2.61466 22.7871 1.51744 22.8338 0.817082 22.2968C0.303488 21.9466 0 21.3397 0 20.7094V14.6396C0 12.3518 0.58363 10.0639 1.68086 8.03291C2.56797 6.3754 3.80527 4.90465 5.27602 3.73739C7.44712 1.91646 10.2252 0.842587 13.0733 0.67917Z" fill="#5741D9"></path><path d="M67.6291 7.70626H64.5942C64.711 5.58185 65.1545 3.66754 67.0922 2.45359C69.0298 1.26299 71.1542 0.982844 73.372 1.16961C74.5626 1.26299 75.7532 1.51979 76.8505 2.03338C78.7881 2.9205 79.7453 4.43794 79.7453 6.56235C79.7453 10.3209 79.7453 14.0795 79.7453 17.8381C79.7453 19.2155 80.0254 19.4723 81.4028 19.3322C81.5429 19.3088 81.7063 19.2855 81.8463 19.2621C81.8697 19.3322 81.8697 19.4022 81.8697 19.4489V21.7367C80.7725 22.1103 79.6519 22.227 78.5547 21.9235C77.7376 21.69 77.224 21.1064 76.9438 20.336C76.8038 19.9392 76.7104 19.5189 76.5937 19.0754C76.4769 19.2155 76.3836 19.3322 76.2668 19.4489C73.8623 21.8768 71.0142 22.904 67.6525 22.0402C65.2712 21.4333 63.6371 19.2621 63.567 16.7876C63.5437 15.9938 63.6137 15.2001 63.8005 14.4297C64.2441 12.6555 65.5047 11.5816 67.0922 10.8579C68.2127 10.3443 69.4267 10.2042 70.6406 10.0408C72.0647 9.85402 73.4654 9.69061 74.8895 9.4805C75.8466 9.34043 76.3369 8.82684 76.4769 7.86968C76.7804 5.93203 75.9167 4.64805 74.049 4.18114C72.9285 3.901 71.7846 3.85431 70.6406 4.06442C68.9598 4.36791 68.026 5.32506 67.6991 6.98257C67.7225 7.21602 67.6758 7.44947 67.6291 7.70626ZM76.5703 11.4415C75.1696 12.1885 73.8156 12.3753 72.4382 12.5854C71.2943 12.7722 70.127 12.9356 69.0065 13.2858C67.5357 13.776 66.8587 14.99 66.9988 16.6241C67.1155 17.9782 68.026 19.0754 69.4967 19.3088C71.7612 19.6824 73.7689 19.052 75.3564 17.3712C75.8233 16.8809 76.1968 16.1806 76.2902 15.5269C76.5003 14.2196 76.4769 12.8889 76.5703 11.4415ZM119.829 15.3635C119.759 15.6903 119.712 15.9705 119.642 16.2273C118.335 20.2193 115.674 21.9235 112.452 22.297C106.872 22.904 103.674 19.2621 102.857 15.3868C102.203 12.3053 102.297 9.24705 103.651 6.35224C104.935 3.62086 106.989 1.82327 110.047 1.28633C113.713 0.632666 118.895 2.45359 119.759 8.17317C119.992 9.64392 120.039 11.1614 120.179 12.7021H105.985C106.102 14.8032 106.429 16.7642 107.97 18.2816C108.6 18.912 109.417 19.2155 110.304 19.3789C113.176 19.8925 115.557 18.5151 116.491 15.737C116.584 15.4335 116.724 15.3402 117.028 15.3635C117.938 15.3635 118.848 15.3635 119.829 15.3635ZM106.102 9.9941H116.724C116.607 8.7568 116.397 7.61288 115.814 6.539C115.253 5.51181 114.436 4.76477 113.316 4.39125C109.65 3.13061 105.869 6.04876 106.102 9.9941ZM127.463 21.62H124.241V1.58982H127.299V4.39125C127.533 4.13445 127.673 3.97104 127.813 3.80762C130.007 1.30968 132.762 0.656013 135.89 1.4264C138.062 1.96334 139.276 3.50413 139.696 5.65189C139.859 6.53901 139.976 7.44947 139.976 8.33659C139.999 12.6321 139.999 16.9276 139.999 21.2231C139.999 21.3399 139.976 21.4566 139.976 21.5967H136.684V21.0597C136.684 17.0443 136.708 13.029 136.661 9.0136C136.661 8.12648 136.521 7.21602 136.264 6.35224C135.844 4.95153 134.723 4.20449 133.252 4.13445C130.568 4.04107 128.443 5.46513 127.79 7.84634C127.556 8.71011 127.486 9.62057 127.486 10.531C127.463 14.0562 127.463 17.5579 127.463 21.0364V21.62ZM84.9979 1.58982H88.1029V10.0875C88.2896 9.90072 88.4063 9.80733 88.5231 9.69061C91.0677 7.09929 93.6123 4.48463 96.157 1.89331C96.3671 1.65986 96.5772 1.56648 96.904 1.56648C98.0946 1.58982 99.3086 1.56648 100.616 1.56648C100.429 1.75324 100.336 1.86996 100.219 1.98669C97.9779 4.22783 95.7601 6.49232 93.4956 8.71011C93.2388 8.96691 93.2388 9.13033 93.4022 9.41047C95.8535 13.3091 98.2814 17.2078 100.709 21.1064C100.803 21.2465 100.873 21.3866 100.989 21.5967C100.826 21.62 100.709 21.62 100.569 21.62C99.4486 21.62 98.3514 21.62 97.2308 21.62C96.9273 21.62 96.7873 21.5033 96.6239 21.2698C94.7562 18.1416 92.8886 15.0133 91.021 11.8617C90.9276 11.7216 90.8576 11.5816 90.7409 11.4182C89.8771 12.2819 89.0367 13.099 88.1962 13.9628C88.0795 14.0795 88.0562 14.2896 88.0562 14.453C88.0562 16.6475 88.0562 18.8419 88.0562 21.0364V21.5967C87.4492 21.5967 86.8422 21.5967 86.2586 21.5967C85.8384 21.5967 85.2547 21.7134 85.0213 21.4799C84.8112 21.2932 84.9279 20.6862 84.9279 20.266V2.12676C84.9979 2.01003 84.9979 1.82328 84.9979 1.58982ZM49.1631 1.56648C46.6418 4.06441 44.1905 6.51566 41.7159 8.96691C44.3773 13.2157 46.9686 17.3712 49.6066 21.62C49.3965 21.62 49.2564 21.6434 49.1164 21.6434C48.0425 21.6434 46.9453 21.6434 45.8714 21.6434C45.5679 21.6434 45.3811 21.5266 45.2177 21.2698C43.3501 18.1416 41.4825 15.0133 39.6149 11.8617C39.5448 11.7216 39.4514 11.6049 39.3347 11.4182C38.8678 11.9084 38.4476 12.4453 37.934 12.8189C36.8835 13.6126 36.58 14.5931 36.65 15.9004C36.7667 17.6046 36.6734 19.3322 36.6734 21.0364V21.5967H33.5918V1.58982H36.6734V9.9474C36.7434 9.9941 36.8134 10.0408 36.8601 10.0875C36.9535 9.94741 37.0002 9.78399 37.0936 9.66727C39.6149 7.07595 42.1595 4.50797 44.6808 1.89331C44.9142 1.65986 45.1243 1.54313 45.4745 1.56648C46.525 1.58982 47.5756 1.56648 48.6261 1.56648C48.7895 1.56648 48.9296 1.56648 49.1631 1.56648ZM55.3262 4.90484C56.8903 2.61701 58.5478 0.702708 61.6294 1.26299V4.69473C60.8123 4.74142 59.9952 4.71808 59.2248 4.8815C57.3339 5.27837 55.8631 7.00591 55.5596 9.10698C55.5129 9.52719 55.4663 9.94741 55.4663 10.3676C55.4663 13.9394 55.4663 17.5113 55.4663 21.0831V21.6434H52.2913V1.63651H55.3262C55.3262 2.68704 55.3262 3.73758 55.3262 4.90484Z" fill="#5741D9"></path></svg>