<svg xmlns="http://www.w3.org/2000/svg" width="141" height="121" viewBox="0 0 141 121" fill="none"><path d="M103.765 31.9342C107.482 31.0885 111.287 30.7586 114.918 29.6567C118.626 28.5727 122.066 26.7277 125.017 24.24C118.5 26.1908 112.366 27.629 105.795 24.8807C110.471 21.6678 115.776 19.7267 118.23 14.4702C114.841 16.3024 111.367 17.7471 107.103 18.3365C110.406 14.909 112.434 11.2381 113.812 6.80486C111.052 8.98946 108.752 11.3663 105.137 12.1735C107.325 8.55062 109.208 5.12637 109.568 0.933343C107.013 3.42545 105.342 6.56142 102.254 8.51538C102.254 6.19304 102.576 3.76179 99.9505 2.94817C98.5078 2.50293 97.4667 3.73617 96.5317 4.93738C97.0233 5.02707 97.3446 5.0559 97.6499 5.14559C99.2886 5.62287 99.4975 6.28273 98.4339 7.66012C98.1375 8.03633 97.8155 8.39167 97.4699 8.72359C97.1807 9.00548 96.9205 9.33541 97.1679 9.68456C98.2283 11.2573 97.6788 12.9134 97.3575 14.4894C96.2168 20.047 93.553 24.4162 87.795 26.2837C86.646 26.7091 85.5199 27.1935 84.4211 27.7348C80.6456 29.41 78.2164 31.8253 79.28 36.4155C79.5402 37.5494 79.2029 38.882 77.8244 39.2984C76.4459 39.7148 75.5045 38.898 74.9325 37.6391C74.1228 35.8453 73.3259 34.0483 72.4744 32.2673C71.0381 29.2114 71.0285 29.2179 74.2899 28.1031C76.3656 27.4048 76.4523 27.4401 77.3231 29.3107C78.6084 26.8635 78.4574 24.9095 76.6805 23.8653C73.9203 22.2412 71.0413 20.8158 67.9373 19.9733C66.0801 19.4704 64.1843 19.5025 62.4749 20.7261C64.5249 20.6844 66.5782 20.5275 68.6989 21.9497C67.3526 21.9497 66.3629 22.001 65.3764 21.9497C63.6542 21.8408 62.2275 22.3693 61.1125 23.6955C60.6659 23.9742 60.2353 24.2593 60.2642 24.9223C60.9069 24.839 61.196 24.4322 61.4917 24.0254C62.9023 23.2374 64.4125 23.1926 66.199 23.42C63.6059 25.5245 62.8605 28.1127 63.4646 31.1366C64.0815 31.1366 63.9915 30.2012 64.7498 30.3454C64.3835 32.5492 63.8887 34.7306 64.3803 37.1234C64.9619 36.5821 65.2511 35.9126 66.0319 35.6692C66.0596 36.2027 66.0596 36.7373 66.0319 37.2708C65.8777 38.6994 64.8816 39.2664 63.6092 39.3465C62.25 39.4297 61.7455 38.456 61.5945 37.3156C61.5463 36.68 61.5776 36.0408 61.6877 35.4129C61.8708 33.901 61.8291 32.4723 60.9133 31.1238C59.3709 28.8591 56.9225 28.007 54.6218 26.9115C52.9413 26.1107 51.0873 25.6943 49.5321 24.618C45.8498 22.0779 44.1885 18.3589 43.427 14.1403C43.2053 12.907 42.7201 11.6257 43.382 10.3861C43.8287 9.55323 43.7258 8.96384 43.0029 8.31678C42.3602 7.73059 41.4991 7.03549 41.8333 6.03288C42.1546 5.10074 43.2182 5.20004 44.0279 5.00144C44.0825 5.00144 44.105 4.85089 44.1789 4.69714C43.2696 3.73617 42.2863 2.50293 40.8597 2.94497C38.1766 3.77461 38.6747 6.31797 38.514 8.49937C35.4068 6.47493 33.736 3.29092 31.1686 0.827637C31.657 5.04309 33.4757 8.54742 35.6864 12.2055C32.1519 11.3054 29.8351 9.03111 27.2839 7.19245C28.4374 11.3566 30.5196 14.8802 33.1833 18.1283C29.2471 17.5965 25.7287 16.2224 22.0945 14.0217C25.0346 19.6178 30.2882 21.7255 35.0759 24.8839C28.4117 27.6835 22.1556 26.1492 15.5846 24.2112C18.9102 26.7418 22.1909 28.5612 25.8668 29.6567C29.5427 30.7522 33.389 31.0917 37.187 31.9918C35.0855 34.3238 27.843 37.1394 20.4558 38.6578C27.7594 39.5611 35.063 41.0442 42.6462 38.2478C39.2177 44.7311 33.2026 47.3225 27.2839 50.5481C34.6357 50.9133 40.5576 47.851 46.5438 44.5517C43.7226 50.4905 44.3267 56.6887 44.6159 62.8934C47.3503 57.9636 49.2011 52.5021 53.8507 48.5525C54.2234 54.5105 53.992 60.3628 55.9971 65.9172C55.9714 66.308 55.9971 66.6572 56.5465 66.6668C56.5465 65.866 56.5465 65.0844 56.5465 64.3028C56.6911 58.4089 58.0214 54.1518 60.3285 52.0088C63.3585 57.0763 62.4781 62.2591 60.4634 67.3843C60.509 67.4273 60.5628 67.4606 60.6217 67.482C60.6806 67.5035 60.7433 67.5127 60.8059 67.5091C60.8685 67.5055 60.9298 67.4892 60.9858 67.4611C61.0418 67.433 61.0915 67.3938 61.1318 67.3459C64.1503 64.512 66.0821 60.7169 66.5942 56.6151C66.6424 56.2755 66.4079 55.7726 66.9156 55.6829C67.3397 55.6092 67.5293 56.0609 67.7124 56.3748C67.9242 56.7418 68.1006 57.1279 68.2394 57.528C69.3447 60.6511 68.882 63.6141 67.2594 66.4362C64.9876 70.3665 61.903 73.6755 58.7315 77.3271C60.4859 76.8114 61.5013 75.5333 63.1432 74.8895L60.3638 83.1122L60.7141 83.2595L65.7106 77.5129C65.1611 81.155 63.9947 84.1628 63.5995 87.3917L68.098 79.7039L70.2541 93.1575L70.54 93.1223L72.6704 79.6687C74.2256 82.2313 75.3599 84.6049 77.246 86.6005L74.8168 77.1798L80.2407 83.4325L80.5331 83.3076L77.5513 74.6589L81.465 77.1285C80.6617 75.7223 79.627 74.5499 78.6405 73.3359C76.3913 70.5651 73.9589 67.8904 72.6576 64.5014C71.5972 61.7242 71.6936 58.9726 73.0881 56.3108C73.2584 55.9904 73.4641 55.606 73.9011 55.6317C74.2513 55.6541 74.2224 55.9936 74.2224 56.2531C74.2384 59.2609 75.7262 61.7659 77.0982 64.2804C77.7551 65.5337 78.7811 66.5565 80.0383 67.2113C78.3321 61.9773 77.5352 56.8361 80.5685 51.8358C83.3607 55.4042 84.238 59.5524 84.2701 63.9601C84.1132 64.9042 84.146 65.8699 84.3665 66.8013C84.7231 66.481 84.9031 66.2376 84.8228 65.8884C86.8535 60.3308 86.5675 54.4529 87.0013 48.5557C91.6701 52.4989 93.4277 58.0117 96.3485 63.313C96.4706 56.5862 97.1293 50.3592 94.2021 44.4716C97.3318 46.0732 100.237 47.7581 103.392 48.9145C106.547 50.0709 109.777 50.7371 113.183 50.3784C110.308 48.9957 107.548 47.3891 104.928 45.5735C102.232 43.7093 99.7063 41.6944 98.3696 38.283C105.57 40.9609 112.688 39.5643 119.818 38.6353C116.997 37.8025 114.172 37.0882 111.428 36.1016C106.557 34.3622 104.729 33.3756 103.765 31.9342Z" fill="#051B52"></path><path d="M16.8773 113.957C16.7289 112.785 16.6003 111.61 16.4717 110.434C16.2683 108.572 16.0439 106.71 15.8802 104.844C15.7634 103.477 16.1631 103.032 17.5109 102.864C17.5819 102.851 17.6521 102.835 17.7213 102.814L17.7458 102.635C17.5523 102.603 17.3572 102.582 17.1614 102.571C15.7786 102.565 14.3946 102.589 13.0118 102.553C12.5957 102.543 12.4402 102.683 12.3104 103.062C11.5507 105.362 10.764 107.654 9.98434 109.949C9.91187 110.164 9.82069 110.372 9.68159 110.73C9.54951 110.409 9.47119 110.239 9.40924 110.064C8.59101 107.724 7.77279 105.382 6.93001 103.049C6.85988 102.853 6.63078 102.575 6.47064 102.575C4.87393 102.544 3.27605 102.559 1.67817 102.575C1.56128 102.575 1.45374 102.662 1.34152 102.71C1.48807 102.813 1.65934 102.873 1.83714 102.885C2.85057 103.039 3.21059 103.46 3.21994 104.51C3.23456 104.825 3.22831 105.141 3.20124 105.455C2.94564 107.49 2.68264 109.525 2.41223 111.559C2.28132 112.535 2.14689 113.514 1.9587 114.48C1.81493 115.217 1.32282 115.627 0.572392 115.71C0.430371 115.743 0.292663 115.793 0.162109 115.858L0.200683 115.977H5.07731L5.09602 115.792C4.86224 115.759 4.62846 115.713 4.39468 115.693C3.20124 115.599 2.85057 115.207 2.89265 114.002C2.89265 113.865 2.90901 113.726 2.92421 113.589C3.06526 112.294 3.20747 110.999 3.35086 109.704C3.53866 107.988 3.72646 106.271 3.91426 104.554L4.06622 104.526L8.32334 115.992L8.45308 115.984L12.4355 104.625L12.5898 104.648C12.6155 104.834 12.6459 105.02 12.667 105.207C12.8166 106.559 12.9697 107.912 13.1111 109.264C13.2865 110.951 13.4793 112.636 13.6079 114.326C13.6827 115.301 13.3835 115.589 12.4285 115.714C12.2757 115.751 12.1275 115.806 11.9867 115.876L12.0287 115.982H18.8913C18.6575 115.831 18.5722 115.745 18.4775 115.725C17.1917 115.441 17.0445 115.292 16.8773 113.957Z" fill="#051B52"></path><path d="M88.0283 113.227C87.0663 112.287 86.545 111.101 86.3849 109.774C86.1628 107.929 86.2925 106.14 87.486 104.597C89.1224 102.483 92.0926 102.54 93.6215 104.731C93.9558 105.205 94.1943 105.76 94.4736 106.279C94.559 106.437 94.6326 106.6 94.7074 106.761C94.702 105.767 94.6066 104.775 94.4222 103.798C94.3887 103.666 94.3286 103.543 94.2457 103.435C94.1628 103.328 94.0589 103.239 93.9406 103.175C91.8261 102.193 89.6554 102.126 87.4778 102.928C83.8881 104.246 82.0249 107.986 83.1248 111.618C84.2247 115.251 88.5017 117.169 92.2995 115.782C94.1136 115.119 95.1282 113.886 95.3749 111.8C95.1738 112.112 95.0628 112.29 94.9459 112.464C93.3725 114.829 90.0494 115.203 88.0283 113.227Z" fill="#051B52"></path><path d="M77.9022 114.345C77.9022 112.746 77.9151 111.145 77.894 109.549C77.8956 109.096 77.8346 108.645 77.7128 108.209C77.3271 106.928 76.129 106.298 74.9075 106.775C74.2809 107.019 73.7199 107.434 73.1319 107.777C72.9589 107.878 72.7976 108 72.5264 108.184V106.6L68.9905 107.987C69.6684 108.762 69.7245 109.629 69.6918 110.536C69.6556 111.603 69.7187 112.67 69.6719 113.737C69.6369 114.516 70.0366 115.444 69.0664 116.003H73.1003C72.904 115.647 72.5755 115.324 72.5673 114.993C72.5159 112.922 72.5276 110.845 72.5486 108.778C72.5486 108.626 72.7742 108.376 72.9297 108.341C74.0495 108.104 74.7929 108.654 74.9414 109.963C75.0624 111.08 75.0979 112.205 75.0477 113.328C75.0115 114.234 75.4802 115.296 74.316 115.978H78.6351C77.9034 115.358 77.9034 115.358 77.9022 114.345Z" fill="#051B52"></path><path d="M27.4458 114.065C27.4621 112.25 27.4832 110.434 27.4995 108.613C27.4995 107.991 27.4995 107.369 27.4995 106.762L23.8865 107.506C24.6299 108.226 24.6299 108.226 24.6299 109.292C24.6299 109.885 24.6299 110.478 24.6299 111.07V114.626C23.1384 114.931 22.4756 114.538 22.3622 113.134C22.2453 111.624 22.2968 110.098 22.2804 108.58C22.2734 107.979 22.2804 107.38 22.2804 106.774L18.672 107.5C19.4131 107.798 19.44 108.393 19.4377 109.041C19.4318 110.74 19.3991 112.44 19.4844 114.138C19.5627 115.71 20.8532 116.565 22.3295 116.072C22.914 115.877 23.4493 115.536 24.001 115.251C24.1822 115.157 24.3517 115.027 24.6241 114.845L24.5364 116.193L28.2079 115.266C27.4691 115.017 27.4423 114.547 27.4458 114.065Z" fill="#051B52"></path><path d="M32.2153 114.336C32.2036 110.78 32.2094 107.225 32.2094 103.669C32.2094 102.848 32.2094 102.025 32.2094 101.19L28.5765 102.313C29.618 103.252 29.3597 104.438 29.3643 105.563C29.376 108.269 29.3924 110.976 29.3526 113.681C29.341 114.473 29.7559 115.432 28.5543 115.974H32.8652C32.0072 115.662 32.2176 114.937 32.2153 114.336Z" fill="#051B52"></path><path d="M136.043 115.981H140.162C139.242 115.614 139.569 114.819 139.517 114.175C139.495 113.9 139.517 113.622 139.517 113.345C139.517 109.302 139.517 105.26 139.517 101.187L135.837 102.332C136.839 103.124 136.674 104.148 136.675 105.129C136.675 108.052 136.691 110.976 136.666 113.9C136.654 114.627 136.992 115.502 136.043 115.981Z" fill="#051B52"></path><path d="M124.754 114.286C124.251 114.276 123.85 114.008 123.848 113.411C123.842 111.735 123.848 110.058 123.841 108.382C123.841 108.079 123.939 107.946 124.244 107.96C124.712 107.982 125.179 107.992 125.647 107.998C126.431 108.007 126.729 107.7 126.754 106.856H123.892V104.882C123.241 105.413 122.665 105.905 122.066 106.367C121.468 106.829 120.853 107.256 120.229 107.71C120.31 107.84 120.4 107.964 120.498 108.082C120.9 108.495 121.042 108.957 121.017 109.562C120.956 111.039 121 112.525 120.996 113.998C120.996 114.817 121.297 115.454 122.024 115.849C123.636 116.722 126.03 116.001 126.872 114.17C126.202 114.212 125.471 114.302 124.754 114.286Z" fill="#051B52"></path><path d="M37.7681 114.284C37.2877 114.273 36.8915 114.005 36.8868 113.443C36.8728 111.745 36.8728 110.048 36.8973 108.347C36.8973 108.217 37.1241 107.991 37.2573 107.978C37.76 107.945 38.2684 107.991 38.7769 107.995C39.4782 107.995 39.8289 107.583 39.7611 106.862H36.9265V104.885C36.2813 105.41 35.7085 105.901 35.1124 106.362C34.5163 106.823 33.8921 107.252 33.2574 107.707C33.4678 107.957 33.6629 108.219 33.8418 108.493C33.96 108.687 34.0279 108.908 34.0394 109.136C34.051 110.755 34.0323 112.374 34.0394 113.996C34.0394 115.049 34.5069 115.694 35.4876 116.04C37.1241 116.621 39.1603 115.732 39.9294 114.171C39.2187 114.215 38.4928 114.299 37.7681 114.284Z" fill="#051B52"></path><path d="M48.3375 112.685C47.6899 111.316 47.5836 109.895 48.2206 108.513C48.4415 108.039 48.9044 107.609 49.3579 107.328C49.8652 107.014 50.265 107.228 50.549 107.779C50.7022 108.076 50.7653 108.451 50.985 108.673C51.2504 108.941 51.6501 109.254 51.9693 109.231C52.2884 109.209 52.7442 108.851 52.8483 108.539C52.9523 108.227 52.8085 107.673 52.5689 107.446C52.1802 107.093 51.7078 106.848 51.1978 106.735C48.0219 106.036 45.0424 108.603 45.0634 111.974C45.0774 114.076 46.4275 115.79 48.3492 116.143C50.4427 116.529 52.3164 115.482 53.1346 113.372C51.3112 115.087 49.0423 114.169 48.3375 112.685Z" fill="#051B52"></path><path d="M43.8885 114.385C43.8885 111.921 43.8979 109.457 43.9026 106.992C43.8963 106.861 43.8834 106.732 43.864 106.603L40.3409 107.985C41.0119 108.749 41.0528 109.618 41.0259 110.521C40.992 111.644 41.0458 112.773 41.0084 113.892C40.9838 114.618 41.3368 115.482 40.4239 115.992H44.4999L44.6635 115.849C43.6851 115.664 43.8897 114.969 43.8885 114.385Z" fill="#051B52"></path><path d="M119.17 114.391C119.159 112.694 119.17 110.996 119.17 109.294V106.6L115.605 107.992C116.338 108.761 116.354 109.64 116.329 110.544C116.303 111.55 116.37 112.558 116.308 113.562C116.258 114.392 116.733 115.386 115.545 115.971H119.82L119.955 115.852C118.988 115.673 119.173 114.981 119.17 114.391Z" fill="#051B52"></path><path d="M67.7537 114.691C67.7537 112.502 67.7537 110.313 67.7537 108.125C67.7537 107.624 67.7537 107.123 67.7537 106.598L64.2295 107.984C64.8771 108.744 64.9554 109.601 64.9308 110.508C64.8922 111.749 64.925 112.997 64.9191 114.234C64.9191 114.879 65.0921 115.601 64.2996 115.973H68.4118L68.5521 115.837C67.7724 115.736 67.7537 115.216 67.7537 114.691Z" fill="#051B52"></path><path d="M42.52 105.226C42.9419 105.221 43.3452 105.049 43.6441 104.747C43.943 104.445 44.1138 104.037 44.1202 103.609C44.1168 103.191 43.9505 102.791 43.6576 102.497C43.3646 102.202 42.9687 102.037 42.5562 102.037C42.352 102.034 42.1492 102.073 41.9598 102.151C41.7704 102.228 41.5983 102.344 41.4536 102.49C41.309 102.636 41.1946 102.81 41.1174 103.002C41.0402 103.194 41.0016 103.4 41.004 103.607C40.9951 104.025 41.1495 104.429 41.4334 104.732C41.7173 105.036 42.1079 105.213 42.52 105.226Z" fill="#051B52"></path><path d="M117.836 105.227C118.247 105.215 118.639 105.045 118.93 104.75C119.222 104.455 119.391 104.058 119.403 103.641C119.407 103.429 119.368 103.219 119.289 103.023C119.211 102.827 119.094 102.648 118.946 102.499C118.798 102.349 118.622 102.231 118.428 102.152C118.235 102.073 118.027 102.034 117.818 102.038C117.614 102.037 117.412 102.079 117.224 102.16C117.036 102.241 116.866 102.359 116.724 102.508C116.582 102.657 116.471 102.834 116.398 103.027C116.325 103.221 116.291 103.427 116.299 103.634C116.296 104.051 116.456 104.453 116.744 104.752C117.032 105.05 117.424 105.221 117.836 105.227Z" fill="#051B52"></path><path d="M66.4505 105.227C66.862 105.213 67.2524 105.039 67.5399 104.74C67.8273 104.441 67.9894 104.041 67.9922 103.623C67.995 103.411 67.9555 103.201 67.876 103.006C67.7964 102.81 67.6786 102.633 67.5296 102.484C67.3805 102.336 67.2034 102.22 67.0089 102.143C66.8144 102.066 66.6065 102.03 66.3979 102.037C65.5165 102.057 64.8935 102.732 64.9052 103.652C64.903 103.858 64.9414 104.063 65.0182 104.255C65.095 104.447 65.2086 104.621 65.3524 104.767C65.4963 104.914 65.6674 105.03 65.8559 105.109C66.0444 105.188 66.2466 105.228 66.4505 105.227Z" fill="#051B52"></path><path d="M114.739 109.011C114 106.784 111.638 105.939 109.676 107.188C109.209 107.483 108.78 107.83 108.265 108.202V106.603L104.685 107.992C105.556 108.873 105.394 109.925 105.396 110.943C105.396 113.606 105.411 116.271 105.387 118.934C105.382 119.645 105.68 120.493 104.768 120.949H109.573L109.603 120.786C109.405 120.73 109.203 120.694 108.998 120.68C108.477 120.693 108.248 120.431 108.237 119.93C108.226 119.378 108.215 118.826 108.212 118.271C108.212 117.509 108.212 116.747 108.212 115.922C109.645 116.271 110.569 116.278 111.505 115.971C113.904 115.177 115.145 112.934 115.012 110.445C114.984 109.957 114.892 109.475 114.739 109.011ZM111.454 114.489C111.305 114.808 111.089 115.091 110.823 115.319C109.98 116.03 108.802 115.711 108.476 114.652C108.305 114.096 108.264 113.492 108.223 112.906C108.218 112.832 108.214 112.758 108.212 112.684C108.19 112.167 108.212 111.648 108.212 111.13C108.212 110.38 108.227 109.63 108.205 108.878C108.193 108.48 108.33 108.327 108.728 108.292C110.219 108.158 111.266 108.82 111.703 110.273C112.137 111.706 112.075 113.125 111.455 114.488L111.454 114.489Z" fill="#051B52"></path><path d="M59.1156 106.641C56.1478 106.239 53.4488 108.627 53.492 111.619C53.5283 114.144 55.7433 116.177 58.4949 116.248C58.973 116.177 59.4639 116.15 59.9291 116.026C62.5007 115.345 64.0202 112.931 63.5164 110.366C63.1295 108.418 61.3949 106.946 59.1156 106.641ZM60.0507 114.489C59.98 114.735 59.8664 114.966 59.7152 115.172C59.084 116.096 57.9619 116.083 57.4487 115.088C57.1284 114.46 56.9075 113.785 56.7942 113.088C56.5549 111.726 56.5851 110.329 56.883 108.979C56.9887 108.5 57.1749 108.042 57.4335 107.627C57.9817 106.781 59.07 106.746 59.5527 107.618C59.9431 108.32 60.1804 109.139 60.3371 109.936C60.4867 110.699 60.4446 111.5 60.4914 112.363C60.3558 113.032 60.219 113.765 60.046 114.488L60.0507 114.489Z" fill="#051B52"></path><path d="M102.996 113.221C103.016 111.762 103.05 110.303 103.104 108.846C103.139 107.909 102.685 107.319 101.893 106.949C99.8052 105.958 96.6247 107.588 96.1256 109.887C96.0227 110.362 96.1372 110.487 96.6188 110.397C97.7994 110.174 97.8029 110.192 97.7223 108.993C97.6743 108.281 98.0227 107.926 98.7357 107.964C99.6813 108.012 100.238 108.585 100.261 109.543C100.269 109.878 100.235 110.217 100.27 110.548C100.313 110.953 100.142 111.14 99.7854 111.291C98.7482 111.733 97.7231 112.201 96.71 112.694C96.467 112.803 96.2619 112.983 96.1216 113.212C95.9813 113.441 95.9122 113.707 95.9233 113.976C95.9233 114.813 96.2226 115.495 96.959 115.893C97.7293 116.31 98.5054 116.248 99.1998 115.695C99.5504 115.416 99.8473 115.08 100.205 114.736C100.818 115.85 101.702 116.405 102.957 116.067C103.341 115.963 103.684 115.742 103.94 115.434C104.196 115.126 104.353 114.745 104.39 114.344C103.286 114.618 102.981 114.383 102.996 113.221ZM100.201 114.247C100.201 114.358 99.866 114.58 99.776 114.541C99.4429 114.395 99.0408 114.23 98.8596 113.948C98.7084 113.723 98.635 113.454 98.6509 113.183C98.6667 112.911 98.771 112.652 98.9473 112.447C99.2746 112.058 99.7071 111.759 100.223 111.307C100.217 112.419 100.238 113.334 100.201 114.248V114.247Z" fill="#051B52"></path><path d="M134.309 113.223C134.328 111.801 134.384 110.379 134.402 108.965C134.419 107.789 133.983 107.194 132.883 106.817C130.831 106.115 127.988 107.701 127.464 109.838C127.326 110.402 127.393 110.479 127.944 110.387C129.128 110.19 129.128 110.19 129.038 108.987C128.988 108.31 129.328 107.949 130.004 107.962C130.971 107.981 131.563 108.573 131.584 109.548C131.591 109.883 131.557 110.222 131.594 110.554C131.638 110.964 131.458 111.141 131.103 111.292C130.065 111.736 129.037 112.204 128.02 112.698C127.786 112.803 127.588 112.975 127.45 113.193C127.311 113.411 127.24 113.665 127.243 113.925C127.22 114.786 127.521 115.488 128.282 115.897C129.077 116.325 129.873 116.244 130.567 115.652C130.889 115.378 131.144 115.021 131.477 114.649C132.136 115.854 133.022 116.405 134.282 116.063C134.665 115.958 135.006 115.738 135.261 115.43C135.517 115.123 135.673 114.744 135.709 114.344C134.614 114.625 134.294 114.381 134.309 113.223ZM131.52 114.214C131.52 114.332 131.154 114.582 131.07 114.54C130.73 114.369 130.321 114.175 130.148 113.867C130.007 113.626 129.95 113.344 129.987 113.066C130.024 112.788 130.152 112.531 130.35 112.336C130.668 112.003 131.051 111.736 131.541 111.328C131.543 112.416 131.561 113.315 131.521 114.214H131.52Z" fill="#051B52"></path></svg>