<svg xmlns="http://www.w3.org/2000/svg" width="140" height="121" viewBox="0 0 140 121" fill="none"><path d="M103.603 31.9342C107.32 31.0885 111.125 30.7586 114.756 29.6567C118.464 28.5727 121.904 26.7277 124.855 24.24C118.338 26.1908 112.204 27.629 105.633 24.8807C110.308 21.6678 115.613 19.7267 118.068 14.4702C114.678 16.3024 111.205 17.7471 106.941 18.3365C110.244 14.909 112.272 11.2381 113.65 6.80486C110.89 8.98946 108.589 11.3663 104.975 12.1735C107.163 8.55062 109.046 5.12637 109.406 0.933343C106.851 3.42545 105.18 6.56142 102.092 8.51538C102.092 6.19304 102.414 3.76179 99.7884 2.94817C98.3457 2.50293 97.3046 3.73617 96.3696 4.93738C96.8612 5.02707 97.1825 5.0559 97.4878 5.14559C99.1265 5.62287 99.3354 6.28273 98.2718 7.66012C97.9754 8.03633 97.6533 8.39167 97.3078 8.72359C97.0186 9.00548 96.7584 9.33541 97.0058 9.68456C98.0661 11.2573 97.5167 12.9134 97.1954 14.4894C96.0547 20.047 93.3909 24.4162 87.6329 26.2837C86.4839 26.7091 85.3578 27.1935 84.259 27.7348C80.4835 29.41 78.0543 31.8253 79.1179 36.4155C79.3781 37.5494 79.0407 38.882 77.6623 39.2984C76.2838 39.7148 75.3423 38.898 74.7704 37.6391C73.9607 35.8453 73.1638 34.0483 72.3123 32.2673C70.876 29.2114 70.8663 29.2179 74.1277 28.1031C76.2035 27.4048 76.2902 27.4401 77.161 29.3107C78.4463 26.8635 78.2953 24.9095 76.5184 23.8653C73.7582 22.2412 70.8792 20.8158 67.7752 19.9733C65.918 19.4704 64.0222 19.5025 62.3128 20.7261C64.3628 20.6844 66.4161 20.5275 68.5368 21.9497C67.1904 21.9497 66.2008 22.001 65.2143 21.9497C63.492 21.8408 62.0654 22.3693 60.9504 23.6955C60.5038 23.9742 60.0732 24.2593 60.1021 24.9223C60.7447 24.839 61.0339 24.4322 61.3296 24.0254C62.7401 23.2374 64.2504 23.1926 66.0369 23.42C63.4438 25.5245 62.6984 28.1127 63.3025 31.1366C63.9194 31.1366 63.8294 30.2012 64.5877 30.3454C64.2214 32.5492 63.7266 34.7306 64.2182 37.1234C64.7998 36.5821 65.089 35.9126 65.8698 35.6692C65.8975 36.2027 65.8975 36.7373 65.8698 37.2708C65.7156 38.6994 64.7195 39.2664 63.4471 39.3465C62.0879 39.4297 61.5834 38.456 61.4324 37.3156C61.3842 36.68 61.4155 36.0408 61.5256 35.4129C61.7087 33.901 61.6669 32.4723 60.7512 31.1238C59.2088 28.8591 56.7604 28.007 54.4597 26.9115C52.7792 26.1107 50.9252 25.6943 49.37 24.618C45.6877 22.0779 44.0264 18.3589 43.2649 14.1403C43.0432 12.907 42.558 11.6257 43.2199 10.3861C43.6665 9.55323 43.5637 8.96384 42.8408 8.31678C42.1981 7.73059 41.337 7.03549 41.6712 6.03288C41.9925 5.10074 43.056 5.20004 43.8658 5.00144C43.9204 5.00144 43.9429 4.85089 44.0168 4.69714C43.1075 3.73617 42.1242 2.50293 40.6975 2.94497C38.0145 3.77461 38.5126 6.31797 38.3519 8.49937C35.2447 6.47493 33.5739 3.29092 31.0065 0.827637C31.4949 5.04309 33.3136 8.54742 35.5243 12.2055C31.9898 11.3054 29.673 9.03111 27.1217 7.19245C28.2753 11.3566 30.3574 14.8802 33.0212 18.1283C29.085 17.5965 25.5666 16.2224 21.9324 14.0217C24.8725 19.6178 30.1261 21.7255 34.9138 24.8839C28.2496 27.6835 21.9935 26.1492 15.4225 24.2112C18.7481 26.7418 22.0288 28.5612 25.7047 29.6567C29.3806 30.7522 33.2268 31.0917 37.0248 31.9918C34.9234 34.3238 27.6808 37.1394 20.2937 38.6578C27.5973 39.5611 34.9009 41.0442 42.4841 38.2478C39.0556 44.7311 33.0405 47.3225 27.1217 50.5481C34.4736 50.9133 40.3955 47.851 46.3817 44.5517C43.5605 50.4905 44.1646 56.6887 44.4538 62.8934C47.1882 57.9636 49.039 52.5021 53.6885 48.5525C54.0613 54.5105 53.8299 60.3628 55.835 65.9172C55.8093 66.308 55.835 66.6572 56.3844 66.6668C56.3844 65.866 56.3844 65.0844 56.3844 64.3028C56.529 58.4089 57.8593 54.1518 60.1664 52.0088C63.1964 57.0763 62.316 62.2591 60.3013 67.3843C60.3469 67.4273 60.4007 67.4606 60.4596 67.482C60.5185 67.5035 60.5812 67.5127 60.6438 67.5091C60.7064 67.5055 60.7677 67.4892 60.8237 67.4611C60.8797 67.433 60.9294 67.3938 60.9697 67.3459C63.9881 64.512 65.92 60.7169 66.4321 56.6151C66.4803 56.2755 66.2458 55.7726 66.7534 55.6829C67.1776 55.6092 67.3672 56.0609 67.5503 56.3748C67.7621 56.7418 67.9385 57.1279 68.0773 57.528C69.1826 60.6511 68.7199 63.6141 67.0973 66.4362C64.8255 70.3665 61.7408 73.6755 58.5694 77.3271C60.3238 76.8114 61.3392 75.5333 62.9811 74.8895L60.2017 83.1122L60.552 83.2595L65.5485 77.5129C64.999 81.155 63.8326 84.1628 63.4374 87.3917L67.9359 79.7039L70.092 93.1575L70.3779 93.1223L72.5083 79.6687C74.0635 82.2313 75.1977 84.6049 77.0839 86.6005L74.6547 77.1798L80.0786 83.4325L80.371 83.3076L77.3892 74.6589L81.3028 77.1285C80.4995 75.7223 79.4649 74.5499 78.4784 73.3359C76.2292 70.5651 73.7968 67.8904 72.4954 64.5014C71.4351 61.7242 71.5315 58.9726 72.926 56.3108C73.0963 55.9904 73.302 55.606 73.739 55.6317C74.0892 55.6541 74.0603 55.9936 74.0603 56.2531C74.0763 59.2609 75.5641 61.7659 76.9361 64.2804C77.593 65.5337 78.619 66.5565 79.8762 67.2113C78.17 61.9773 77.3731 56.8361 80.4064 51.8358C83.1986 55.4042 84.0758 59.5524 84.108 63.9601C83.9511 64.9042 83.9838 65.8699 84.2044 66.8013C84.561 66.481 84.741 66.2376 84.6607 65.8884C86.6914 60.3308 86.4054 54.4529 86.8392 48.5557C91.508 52.4989 93.2656 58.0117 96.1864 63.313C96.3085 56.5862 96.9672 50.3592 94.04 44.4716C97.1697 46.0732 100.074 47.7581 103.23 48.9145C106.385 50.0709 109.614 50.7371 113.02 50.3784C110.146 48.9957 107.386 47.3891 104.766 45.5735C102.07 43.7093 99.5442 41.6944 98.2075 38.283C105.408 40.9609 112.526 39.5643 119.656 38.6353C116.834 37.8025 114.01 37.0882 111.266 36.1016C106.395 34.3622 104.566 33.3756 103.603 31.9342Z" fill="#132A42"></path><path d="M16.7152 113.957C16.5668 112.785 16.4382 111.61 16.3096 110.434C16.1062 108.572 15.8818 106.71 15.7181 104.844C15.6012 103.477 16.001 103.032 17.3487 102.864C17.4197 102.851 17.49 102.835 17.5591 102.814L17.5837 102.635C17.3902 102.603 17.1951 102.582 16.9992 102.571C15.6164 102.565 14.2325 102.589 12.8497 102.553C12.4335 102.543 12.2781 102.683 12.1483 103.062C11.3885 105.362 10.6019 107.654 9.82223 109.949C9.74976 110.164 9.65858 110.372 9.51948 110.73C9.3874 110.409 9.30908 110.239 9.24713 110.064C8.42891 107.724 7.61068 105.382 6.7679 103.049C6.69777 102.853 6.46867 102.575 6.30853 102.575C4.71182 102.544 3.11394 102.559 1.51606 102.575C1.39917 102.575 1.29163 102.662 1.17942 102.71C1.32596 102.813 1.49723 102.873 1.67503 102.885C2.68846 103.039 3.04848 103.46 3.05783 104.51C3.07245 104.825 3.06621 105.141 3.03913 105.455C2.78353 107.49 2.52053 109.525 2.25012 111.559C2.11921 112.535 1.98478 113.514 1.79659 114.48C1.65282 115.217 1.16071 115.627 0.410282 115.71C0.268262 115.743 0.130553 115.793 0 115.858L0.0385736 115.977H4.91521L4.93391 115.792C4.70013 115.759 4.46635 115.713 4.23257 115.693C3.03913 115.599 2.68846 115.207 2.73054 114.002C2.73054 113.865 2.7469 113.726 2.7621 113.589C2.90315 112.294 3.04536 110.999 3.18875 109.704C3.37655 107.988 3.56435 106.271 3.75215 104.554L3.90411 104.526L8.16123 115.992L8.29098 115.984L12.2734 104.625L12.4277 104.648C12.4534 104.834 12.4838 105.02 12.5048 105.207C12.6545 106.559 12.8076 107.912 12.949 109.264C13.1244 110.951 13.3172 112.636 13.4458 114.326C13.5206 115.301 13.2214 115.589 12.2664 115.714C12.1136 115.751 11.9654 115.806 11.8245 115.876L11.8666 115.982H18.7292C18.4954 115.831 18.4101 115.745 18.3154 115.725C17.0296 115.441 16.8824 115.292 16.7152 113.957Z" fill="#132A42"></path><path d="M87.8662 113.227C86.9042 112.287 86.3829 111.101 86.2228 109.774C86.0007 107.929 86.1304 106.14 87.3239 104.597C88.9603 102.483 91.9305 102.54 93.4594 104.731C93.7937 105.205 94.0322 105.76 94.3115 106.279C94.3969 106.437 94.4705 106.6 94.5453 106.761C94.5399 105.767 94.4445 104.775 94.2601 103.798C94.2265 103.666 94.1665 103.543 94.0836 103.435C94.0007 103.328 93.8968 103.239 93.7785 103.175C91.664 102.193 89.4933 102.126 87.3157 102.928C83.726 104.246 81.8628 107.986 82.9627 111.618C84.0626 115.251 88.3396 117.169 92.1374 115.782C93.9515 115.119 94.9661 113.886 95.2128 111.8C95.0117 112.112 94.9007 112.29 94.7838 112.464C93.2104 114.829 89.8873 115.203 87.8662 113.227Z" fill="#132A42"></path><path d="M77.7401 114.345C77.7401 112.746 77.753 111.145 77.7319 109.549C77.7335 109.096 77.6725 108.645 77.5507 108.209C77.165 106.928 75.9669 106.298 74.7454 106.775C74.1188 107.019 73.5578 107.434 72.9698 107.777C72.7968 107.878 72.6355 108 72.3643 108.184V106.6L68.8284 107.987C69.5063 108.762 69.5624 109.629 69.5297 110.536C69.4935 111.603 69.5566 112.67 69.5098 113.737C69.4748 114.516 69.8745 115.444 68.9043 116.003H72.9382C72.7419 115.647 72.4134 115.324 72.4052 114.993C72.3538 112.922 72.3655 110.845 72.3865 108.778C72.3865 108.626 72.6121 108.376 72.7676 108.341C73.8874 108.104 74.6308 108.654 74.7793 109.963C74.9003 111.08 74.9358 112.205 74.8856 113.328C74.8494 114.234 75.3181 115.296 74.1539 115.978H78.473C77.7413 115.358 77.7413 115.358 77.7401 114.345Z" fill="#132A42"></path><path d="M27.2837 114.065C27.3 112.25 27.3211 110.434 27.3374 108.613C27.3374 107.991 27.3374 107.369 27.3374 106.762L23.7244 107.506C24.4678 108.226 24.4678 108.226 24.4678 109.292C24.4678 109.885 24.4678 110.478 24.4678 111.07V114.626C22.9763 114.931 22.3135 114.538 22.2001 113.134C22.0832 111.624 22.1347 110.098 22.1183 108.58C22.1113 107.979 22.1183 107.38 22.1183 106.774L18.5099 107.5C19.251 107.798 19.2779 108.393 19.2756 109.041C19.2697 110.74 19.237 112.44 19.3223 114.138C19.4006 115.71 20.6911 116.565 22.1674 116.072C22.7518 115.877 23.2872 115.536 23.8389 115.251C24.0201 115.157 24.1896 115.027 24.4619 114.845L24.3743 116.193L28.0458 115.266C27.307 115.017 27.2801 114.547 27.2837 114.065Z" fill="#132A42"></path><path d="M32.0532 114.336C32.0415 110.78 32.0473 107.225 32.0473 103.669C32.0473 102.848 32.0473 102.025 32.0473 101.19L28.4144 102.313C29.4559 103.252 29.1975 104.438 29.2022 105.563C29.2139 108.269 29.2303 110.976 29.1905 113.681C29.1788 114.473 29.5938 115.432 28.3922 115.974H32.7031C31.8451 115.662 32.0555 114.937 32.0532 114.336Z" fill="#132A42"></path><path d="M135.881 115.981H140C139.08 115.614 139.407 114.819 139.355 114.175C139.333 113.9 139.355 113.622 139.355 113.345C139.355 109.302 139.355 105.26 139.355 101.187L135.675 102.332C136.677 103.124 136.512 104.148 136.513 105.129C136.513 108.052 136.528 110.976 136.504 113.9C136.492 114.627 136.83 115.502 135.881 115.981Z" fill="#132A42"></path><path d="M124.592 114.286C124.089 114.276 123.688 114.008 123.686 113.411C123.68 111.735 123.686 110.058 123.679 108.382C123.679 108.079 123.777 107.946 124.082 107.96C124.55 107.982 125.017 107.992 125.485 107.998C126.269 108.007 126.567 107.7 126.592 106.856H123.73V104.882C123.079 105.413 122.503 105.905 121.904 106.367C121.306 106.829 120.691 107.256 120.067 107.71C120.148 107.84 120.238 107.964 120.336 108.082C120.738 108.495 120.88 108.957 120.855 109.562C120.794 111.039 120.838 112.525 120.834 113.998C120.834 114.817 121.135 115.454 121.862 115.849C123.474 116.722 125.868 116.001 126.71 114.17C126.04 114.212 125.309 114.302 124.592 114.286Z" fill="#132A42"></path><path d="M37.606 114.284C37.1256 114.273 36.7294 114.005 36.7247 113.443C36.7106 111.745 36.7106 110.048 36.7352 108.347C36.7352 108.217 36.962 107.991 37.0952 107.978C37.5978 107.945 38.1063 107.991 38.6148 107.995C39.3161 107.995 39.6668 107.583 39.599 106.862H36.7644V104.885C36.1192 105.41 35.5464 105.901 34.9503 106.362C34.3542 106.823 33.73 107.252 33.0953 107.707C33.3056 107.957 33.5008 108.219 33.6797 108.493C33.7979 108.687 33.8658 108.908 33.8772 109.136C33.8889 110.755 33.8702 112.374 33.8772 113.996C33.8772 115.049 34.3448 115.694 35.3255 116.04C36.962 116.621 38.9982 115.732 39.7673 114.171C39.0566 114.215 38.3307 114.299 37.606 114.284Z" fill="#132A42"></path><path d="M48.1754 112.685C47.5278 111.316 47.4215 109.895 48.0585 108.513C48.2794 108.039 48.7423 107.609 49.1958 107.328C49.7031 107.014 50.1029 107.228 50.3869 107.779C50.5401 108.076 50.6032 108.451 50.8229 108.673C51.0883 108.941 51.488 109.254 51.8071 109.231C52.1263 109.209 52.5821 108.851 52.6862 108.539C52.7902 108.227 52.6464 107.673 52.4068 107.446C52.0181 107.093 51.5457 106.848 51.0357 106.735C47.8598 106.036 44.8803 108.603 44.9013 111.974C44.9153 114.076 46.2654 115.79 48.1871 116.143C50.2806 116.529 52.1543 115.482 52.9725 113.372C51.1491 115.087 48.8802 114.169 48.1754 112.685Z" fill="#132A42"></path><path d="M43.7264 114.385C43.7264 111.921 43.7358 109.457 43.7404 106.992C43.7342 106.861 43.7213 106.732 43.7019 106.603L40.1788 107.985C40.8498 108.749 40.8907 109.618 40.8638 110.521C40.8299 111.644 40.8837 112.773 40.8463 113.892C40.8217 114.618 41.1747 115.482 40.2618 115.992H44.3378L44.5014 115.849C43.523 115.664 43.7276 114.969 43.7264 114.385Z" fill="#132A42"></path><path d="M119.008 114.391C118.997 112.694 119.008 110.996 119.008 109.294V106.6L115.443 107.992C116.176 108.761 116.192 109.64 116.167 110.544C116.14 111.55 116.208 112.558 116.146 113.562C116.096 114.392 116.571 115.386 115.383 115.971H119.658L119.793 115.852C118.825 115.673 119.011 114.981 119.008 114.391Z" fill="#132A42"></path><path d="M67.5916 114.691C67.5916 112.502 67.5916 110.313 67.5916 108.125C67.5916 107.624 67.5916 107.123 67.5916 106.598L64.0674 107.984C64.7149 108.744 64.7933 109.601 64.7687 110.508C64.7301 111.749 64.7629 112.997 64.757 114.234C64.757 114.879 64.93 115.601 64.1375 115.973H68.2497L68.3899 115.837C67.6103 115.736 67.5916 115.216 67.5916 114.691Z" fill="#132A42"></path><path d="M42.3579 105.226C42.7798 105.221 43.1831 105.049 43.482 104.747C43.7809 104.445 43.9517 104.037 43.9581 103.609C43.9547 103.191 43.7884 102.791 43.4954 102.497C43.2025 102.202 42.8066 102.037 42.3941 102.037C42.1899 102.034 41.9871 102.073 41.7977 102.151C41.6083 102.228 41.4362 102.344 41.2915 102.49C41.1469 102.636 41.0325 102.81 40.9553 103.002C40.8781 103.194 40.8395 103.4 40.8419 103.607C40.833 104.025 40.9874 104.429 41.2713 104.732C41.5552 105.036 41.9458 105.213 42.3579 105.226Z" fill="#132A42"></path><path d="M117.674 105.227C118.085 105.215 118.477 105.045 118.768 104.75C119.06 104.455 119.229 104.058 119.241 103.641C119.244 103.429 119.206 103.219 119.127 103.023C119.048 102.827 118.932 102.648 118.784 102.499C118.636 102.349 118.46 102.231 118.266 102.152C118.073 102.073 117.865 102.034 117.656 102.038C117.452 102.037 117.25 102.079 117.062 102.16C116.874 102.241 116.704 102.359 116.562 102.508C116.42 102.657 116.309 102.834 116.236 103.027C116.163 103.221 116.129 103.427 116.137 103.634C116.134 104.051 116.293 104.453 116.581 104.752C116.869 105.05 117.262 105.221 117.674 105.227Z" fill="#132A42"></path><path d="M66.2884 105.227C66.6999 105.213 67.0903 105.039 67.3778 104.74C67.6652 104.441 67.8273 104.041 67.8301 103.623C67.8329 103.411 67.7934 103.201 67.7139 103.006C67.6343 102.81 67.5165 102.633 67.3675 102.484C67.2184 102.336 67.0413 102.22 66.8468 102.143C66.6523 102.066 66.4444 102.03 66.2358 102.037C65.3544 102.057 64.7314 102.732 64.7431 103.652C64.7409 103.858 64.7793 104.063 64.8561 104.255C64.9329 104.447 65.0465 104.621 65.1903 104.767C65.3342 104.914 65.5053 105.03 65.6938 105.109C65.8823 105.188 66.0844 105.228 66.2884 105.227Z" fill="#132A42"></path><path d="M114.577 109.011C113.838 106.784 111.475 105.939 109.514 107.188C109.046 107.483 108.618 107.83 108.103 108.202V106.603L104.523 107.992C105.394 108.873 105.232 109.925 105.234 110.943C105.234 113.606 105.249 116.271 105.225 118.934C105.22 119.645 105.518 120.493 104.606 120.949H109.411L109.44 120.786C109.243 120.73 109.041 120.694 108.836 120.68C108.315 120.693 108.086 120.431 108.075 119.93C108.063 119.378 108.053 118.826 108.049 118.271C108.049 117.509 108.049 116.747 108.049 115.922C109.482 116.271 110.407 116.278 111.343 115.971C113.742 115.177 114.983 112.934 114.85 110.445C114.822 109.957 114.73 109.475 114.577 109.011ZM111.292 114.489C111.142 114.808 110.927 115.091 110.661 115.319C109.818 116.03 108.64 115.711 108.314 114.652C108.143 114.096 108.102 113.492 108.061 112.906C108.056 112.832 108.052 112.758 108.049 112.684C108.028 112.167 108.049 111.648 108.049 111.13C108.049 110.38 108.065 109.63 108.042 108.878C108.031 108.48 108.167 108.327 108.566 108.292C110.056 108.158 111.104 108.82 111.541 110.273C111.975 111.706 111.913 113.125 111.293 114.488L111.292 114.489Z" fill="#132A42"></path><path d="M58.9535 106.641C55.9857 106.239 53.2867 108.627 53.3299 111.619C53.3662 114.144 55.5812 116.177 58.3328 116.248C58.8109 116.177 59.3018 116.15 59.767 116.026C62.3386 115.345 63.8581 112.931 63.3543 110.366C62.9674 108.418 61.2328 106.946 58.9535 106.641ZM59.8886 114.489C59.8179 114.735 59.7043 114.966 59.5531 115.172C58.9219 116.096 57.7998 116.083 57.2866 115.088C56.9662 114.46 56.7453 113.785 56.632 113.088C56.3928 111.726 56.423 110.329 56.7209 108.979C56.8266 108.5 57.0128 108.042 57.2714 107.627C57.8196 106.781 58.9079 106.746 59.3906 107.618C59.781 108.32 60.0183 109.139 60.175 109.936C60.3246 110.699 60.2825 111.5 60.3292 112.363C60.1936 113.032 60.0569 113.765 59.8839 114.488L59.8886 114.489Z" fill="#132A42"></path><path d="M102.834 113.221C102.854 111.762 102.888 110.303 102.942 108.846C102.977 107.909 102.523 107.319 101.731 106.949C99.6431 105.958 96.4626 107.588 95.9634 109.887C95.8606 110.362 95.9751 110.487 96.4567 110.397C97.6373 110.174 97.6408 110.192 97.5602 108.993C97.5122 108.281 97.8606 107.926 98.5736 107.964C99.5192 108.012 100.076 108.585 100.099 109.543C100.107 109.878 100.073 110.217 100.108 110.548C100.15 110.953 99.9798 111.14 99.6233 111.291C98.5861 111.733 97.5609 112.201 96.5479 112.694C96.3049 112.803 96.0998 112.983 95.9595 113.212C95.8192 113.441 95.7501 113.707 95.7612 113.976C95.7612 114.813 96.0605 115.495 96.7969 115.893C97.5672 116.31 98.3433 116.248 99.0376 115.695C99.3883 115.416 99.6852 115.08 100.043 114.736C100.655 115.85 101.54 116.405 102.794 116.067C103.178 115.963 103.522 115.742 103.778 115.434C104.034 115.126 104.191 114.745 104.228 114.344C103.124 114.618 102.819 114.383 102.834 113.221ZM100.039 114.247C100.039 114.358 99.7039 114.58 99.6139 114.541C99.2808 114.395 98.8787 114.23 98.6975 113.948C98.5463 113.723 98.4729 113.454 98.4887 113.183C98.5046 112.911 98.6089 112.652 98.7852 112.447C99.1125 112.058 99.545 111.759 100.06 111.307C100.055 112.419 100.076 113.334 100.039 114.248V114.247Z" fill="#132A42"></path><path d="M134.147 113.223C134.166 111.801 134.222 110.379 134.24 108.965C134.257 107.789 133.821 107.194 132.721 106.817C130.669 106.115 127.825 107.701 127.302 109.838C127.164 110.402 127.23 110.479 127.782 110.387C128.966 110.19 128.966 110.19 128.876 108.987C128.826 108.31 129.166 107.949 129.842 107.962C130.808 107.981 131.401 108.573 131.422 109.548C131.429 109.883 131.395 110.222 131.431 110.554C131.476 110.964 131.296 111.141 130.941 111.292C129.903 111.736 128.875 112.204 127.858 112.698C127.624 112.803 127.426 112.975 127.288 113.193C127.149 113.411 127.077 113.665 127.081 113.925C127.057 114.786 127.359 115.488 128.12 115.897C128.915 116.325 129.711 116.244 130.405 115.652C130.727 115.378 130.981 115.021 131.315 114.649C131.974 115.854 132.86 116.405 134.12 116.063C134.502 115.958 134.844 115.738 135.099 115.43C135.354 115.123 135.511 114.744 135.547 114.344C134.452 114.625 134.132 114.381 134.147 113.223ZM131.358 114.214C131.358 114.332 130.992 114.582 130.908 114.54C130.568 114.369 130.159 114.175 129.986 113.867C129.845 113.626 129.788 113.344 129.825 113.066C129.862 112.788 129.99 112.531 130.188 112.336C130.506 112.003 130.889 111.736 131.379 111.328C131.381 112.416 131.399 113.315 131.359 114.214H131.358Z" fill="#132A42"></path></svg>