<svg xmlns="http://www.w3.org/2000/svg" width="141" height="38" viewBox="0 0 141 38" fill="none"><path d="M70.5463 8.6417V30.1336C70.5463 30.2974 70.4235 30.4611 70.2188 30.4611H67.9673C66.9439 30.4611 65.9614 29.9289 65.3883 29.0693L55.2359 13.3904L55.5634 21.2094V30.1746C55.5634 30.3383 55.4406 30.5021 55.2359 30.5021H52.2884C52.1247 30.5021 51.9609 30.3793 51.9609 30.1746V8.6417C51.9609 8.47796 52.0837 8.31421 52.2884 8.31421H54.499C55.5225 8.31421 56.5049 8.84639 57.0781 9.70607L67.2304 25.344L66.9029 17.525V8.6417C66.9029 8.47796 67.0258 8.31421 67.2304 8.31421H70.1779C70.4235 8.31421 70.5463 8.43702 70.5463 8.6417Z" fill="#051B52"></path><path d="M100.757 30.4202H97.646C97.4413 30.4202 97.2775 30.2155 97.3594 30.0108L105.629 8.60077C105.711 8.43702 105.874 8.31421 106.038 8.31421H109.968C110.173 8.31421 110.336 8.43702 110.377 8.60077L118.688 30.0108C118.769 30.2155 118.606 30.4202 118.401 30.4202H115.29C115.167 30.4202 115.044 30.3383 115.003 30.2155L108.331 12.6126C108.249 12.367 107.839 12.367 107.757 12.6126L101.085 30.2155C101.003 30.3383 100.88 30.4202 100.757 30.4202Z" fill="#051B52"></path><path d="M140.387 29.9289L134.164 21.9872C137.685 21.3322 139.732 18.9578 139.732 15.3144C139.732 11.1389 137.03 8.31421 132.199 8.31421H123.521C123.275 8.31421 123.07 8.51889 123.07 8.76452C123.07 10.402 124.38 11.712 126.018 11.712H131.872C134.778 11.712 136.17 13.1857 136.17 15.3554C136.17 17.525 134.819 18.9988 131.872 18.9988H123.602C123.357 18.9988 123.152 19.2035 123.152 19.4491V30.0927C123.152 30.2564 123.275 30.4202 123.48 30.4202H126.427C126.591 30.4202 126.755 30.2974 126.755 30.0927V22.1919H130.152L135.556 29.233C136.129 30.0108 137.03 30.4202 138.012 30.4202H140.264C140.428 30.4202 140.55 30.1336 140.387 29.9289Z" fill="#051B52"></path><path d="M91.424 8.31421H77.7102C77.4645 8.31421 77.3008 8.47796 77.3008 8.72358C77.3008 10.3611 78.6517 11.712 80.2892 11.712H91.424C91.5878 11.712 91.7515 11.5892 91.7515 11.3845V8.60077C91.7106 8.43702 91.5878 8.31421 91.424 8.31421ZM91.424 27.0224H81.1898C81.026 27.0224 80.8623 26.8996 80.8623 26.6949V21.1684C80.8623 21.0047 80.9851 20.8409 81.1898 20.8409H90.6462C90.81 20.8409 90.9737 20.7181 90.9737 20.5134V17.7297C90.9737 17.566 90.8509 17.4022 90.6462 17.4022H77.7511C77.5055 17.4022 77.3008 17.6069 77.3008 17.8525V29.9289C77.3008 30.1746 77.5055 30.3793 77.7511 30.3793H91.424C91.5878 30.3793 91.7515 30.2564 91.7515 30.0518V27.268C91.7106 27.1452 91.5878 27.0224 91.424 27.0224Z" fill="#051B52"></path><path d="M30.0194 2.8289L22.3233 14.2503C21.7911 15.0281 22.8145 15.9697 23.5514 15.3147L31.1247 8.72383C31.3294 8.56008 31.6159 8.68289 31.6159 8.96945V29.5608C31.6159 29.8473 31.2475 29.9701 31.0838 29.7655L8.15905 2.33766C7.42218 1.43704 6.35782 0.945801 5.17065 0.945801H4.35191C2.22318 0.945801 0.462891 2.70609 0.462891 4.87575V33.8592C0.462891 36.0288 2.22318 37.7891 4.39284 37.7891C5.74376 37.7891 7.01281 37.0932 7.74968 35.906L15.4458 24.4846C15.978 23.7068 14.9546 22.7652 14.2177 23.4202L6.64438 29.9701C6.43969 30.1339 6.15313 30.0111 6.15313 29.7245V9.17414C6.15313 8.88758 6.52157 8.76477 6.68532 8.96945L29.61 36.3972C30.3469 37.2979 31.4522 37.7891 32.5984 37.7891H33.4172C35.5868 37.7891 37.3471 36.0288 37.3471 33.8592V4.87575C37.3062 2.70609 35.5459 0.945801 33.3762 0.945801C32.0253 0.945801 30.7563 1.64173 30.0194 2.8289Z" fill="#051B52"></path></svg>