<svg xmlns="http://www.w3.org/2000/svg" width="140" height="59" viewBox="0 0 140 59" fill="none"><path d="M2.36517 48.7815C2.30067 48.8501 2.2407 48.9559 2.2407 49.1373V57.8193H0V49.1373C0 46.1903 4.26942 45.4146 5.40558 48.1552L8.44186 55.4793C8.51178 55.648 8.60835 55.7254 8.69477 55.7665C8.79381 55.8137 8.92601 55.8334 9.06763 55.8077C9.20924 55.7819 9.32458 55.7172 9.3985 55.6387C9.46301 55.5701 9.52298 55.4643 9.52298 55.2829V46.8679H11.7637V55.2829C11.7637 58.2299 7.49425 59.0056 6.3581 56.2649L3.32182 48.9409C3.25189 48.7722 3.15532 48.6948 3.0689 48.6537C2.96987 48.6065 2.83766 48.5868 2.69605 48.6125C2.55443 48.6382 2.43909 48.7029 2.36517 48.7815Z" fill="#1D1D1B"></path><path d="M74.7164 48.7815C74.6519 48.8501 74.5919 48.9559 74.5919 49.1373V57.5522H72.3512V49.1373C72.3512 46.1903 76.6206 45.4146 77.7568 48.1552L80.7931 55.4793C80.863 55.648 80.9596 55.7254 81.046 55.7665C81.145 55.8137 81.2772 55.8334 81.4188 55.8077C81.5604 55.7819 81.6758 55.7172 81.7497 55.6387C81.8142 55.5701 81.8742 55.4643 81.8742 55.2829V46.6029H84.1149V55.2829C84.1149 58.2299 79.8455 59.0056 78.7093 56.2649L75.673 48.9409C75.6031 48.7722 75.5065 48.6948 75.4201 48.6537C75.3211 48.6065 75.1889 48.5868 75.0472 48.6125C74.9056 48.6382 74.7903 48.7029 74.7164 48.7815Z" fill="#1D1D1B"></path><path d="M93.9243 46.6029H86.3337V48.83H89.0086V57.5522H91.2493V48.83H93.9243V46.6029Z" fill="#1D1D1B"></path><path d="M95.7276 54.3965V46.6029H97.9683V54.3965C97.9683 54.9865 98.4699 55.4649 99.0886 55.4649H102.287C102.906 55.4649 103.407 54.9865 103.407 54.3965V46.6029H105.648V54.3965C105.648 56.1667 104.143 57.6017 102.287 57.6017H99.0886C97.2324 57.6017 95.7276 56.1667 95.7276 54.3965Z" fill="#1D1D1B"></path><path d="M14.0044 50.0732C14.0044 48.303 15.5092 46.8679 17.3654 46.8679H22.9672V49.0048H17.3654C16.7467 49.0048 16.2451 49.4831 16.2451 50.0732C16.2451 50.6633 16.7467 51.1416 17.3654 51.1416H22.9672V53.2785H17.3654C16.7467 53.2785 16.2451 53.7568 16.2451 54.3469C16.2451 54.937 16.7467 55.4153 17.3654 55.4153H22.9672V57.5522H17.3654C15.5092 57.5522 14.0044 56.1171 14.0044 54.3469C14.0044 53.526 14.328 52.7771 14.8602 52.21C14.328 51.643 14.0044 50.8941 14.0044 50.0732Z" fill="#1D1D1B"></path><path d="M122.512 46.8679C120.656 46.8679 119.151 48.303 119.151 50.0732C119.151 50.8941 119.475 51.643 120.007 52.21C119.475 52.7771 119.151 53.526 119.151 54.3469C119.151 56.1171 120.656 57.5522 122.512 57.5522H128.114V55.4153H122.512C121.893 55.4153 121.392 54.937 121.392 54.3469C121.392 53.7568 121.893 53.2785 122.512 53.2785H128.114V51.1416H122.512C121.893 51.1416 121.392 50.6633 121.392 50.0732C121.392 49.4831 121.893 49.0048 122.512 49.0048H128.114V46.8679H122.512Z" fill="#1D1D1B"></path><path d="M61.0591 50.0732C61.0591 48.303 62.5639 46.8679 64.4201 46.8679H70.0219V49.0048H64.4201C63.8014 49.0048 63.2998 49.4831 63.2998 50.0732C63.2998 50.6633 63.8014 51.1416 64.4201 51.1416H70.0219V53.2785H64.4201C63.8014 53.2785 63.2998 53.7568 63.2998 54.3469C63.2998 54.937 63.8014 55.4153 64.4201 55.4153H70.0219V57.5522H64.4201C62.5639 57.5522 61.0591 56.1171 61.0591 54.3469C61.0591 53.526 61.3827 52.7771 61.9149 52.21C61.3827 51.643 61.0591 50.8941 61.0591 50.0732Z" fill="#1D1D1B"></path><path d="M133.27 46.883H138.88V49.0199H133.27C132.656 49.0199 132.158 49.4949 132.158 50.0808C132.158 50.6667 132.656 51.1416 133.27 51.1416H136.639C138.495 51.1416 140 52.5767 140 54.3469C140 56.1172 138.495 57.5522 136.639 57.5522H131.037V55.4154H136.639C137.258 55.4154 137.759 54.937 137.759 54.3469C137.759 53.7568 137.258 53.2785 136.639 53.2785H133.27C131.418 53.2785 129.917 51.8468 129.917 50.0808C129.917 48.3147 131.418 46.883 133.27 46.883Z" fill="#1D1D1B"></path><path d="M27.5372 48.7703C27.5372 48.5862 27.5983 48.4801 27.6631 48.4121C27.7377 48.3337 27.8545 48.2692 27.998 48.2446C28.1416 48.2199 28.2746 48.2414 28.3732 48.29C28.4588 48.3322 28.5549 48.4113 28.6223 48.5838L31.6596 56.3593C32.5314 58.5911 36.0001 57.995 36.0001 55.6134V48.7703C36.0001 48.5862 36.0612 48.4801 36.1259 48.4121C36.2006 48.3337 36.3174 48.2692 36.4609 48.2446C36.6044 48.2199 36.7375 48.2414 36.8361 48.29C36.9217 48.3322 37.0178 48.4113 37.0852 48.5838L40.5884 57.5522H42.9796L39.1849 47.8379C38.0952 45.0482 33.7594 45.7933 33.7594 48.7703V55.6134L30.722 47.8379C29.6323 45.0482 25.2965 45.7933 25.2965 48.7703V57.5522H27.5372V48.7703Z" fill="#1D1D1B"></path><path d="M55.613 56.763C54.8358 58.5233 52.2122 58.5011 51.4678 56.728L47.3282 46.8679H49.7418L53.548 55.9337L57.5511 46.8679H59.9823L55.613 56.763Z" fill="#1D1D1B"></path><path d="M108.182 46.6029H114.029C115.886 46.6029 117.39 48.0379 117.39 49.8082V50.4509C117.39 51.7908 116.528 52.9387 115.304 53.4176L117.69 57.5522H115.133L112.884 53.6562H109.918V57.5522H107.677V52.5877C107.677 51.9977 108.179 51.5193 108.798 51.5193H114.029C114.648 51.5193 115.15 51.041 115.15 50.4509V49.8082C115.15 49.2181 114.648 48.7397 114.029 48.7397H108.182V46.6029Z" fill="#1D1D1B"></path><path fill-rule="evenodd" clip-rule="evenodd" d="M63.0188 29.8106L58.7727 27.4724L54.5254 29.8106V34.4866L58.7727 36.8248L63.0188 34.4866V33.7301H73.4696V30.5666H63.0188V29.8106Z" fill="#00C4B4"></path><path fill-rule="evenodd" clip-rule="evenodd" d="M77.535 29.8893L77.535 34.5654L81.7814 36.9035L86.0279 34.5654L86.0279 29.8893L81.7814 27.5512L81.0946 27.9294L75.8692 19.2982L72.9962 20.88L78.2216 29.5112L77.535 29.8893Z" fill="#5AB3E8"></path><path fill-rule="evenodd" clip-rule="evenodd" d="M80.1053 18.8276L70.3511 24.1982L68.1176 22.9685L69.238 21.1179L70.3511 21.7308L77.8646 17.5939L77.8646 9.32015L70.3511 5.18327L62.8376 9.32015L62.8376 17.5939L63.9508 18.2068L62.8304 20.0574L60.5969 18.8276L60.5969 8.08643L70.3511 2.71584L80.1053 8.08643L80.1053 18.8276Z" fill="black"></path><path fill-rule="evenodd" clip-rule="evenodd" d="M70.3491 18.1332L74.5955 15.7952L74.5955 11.1191L70.3491 8.78099L66.1026 11.1191L66.1026 15.7952L66.7895 16.1734L61.5641 24.8046L64.437 26.3864L69.6625 17.7552L70.3491 18.1332Z" fill="#F6A704"></path><path fill-rule="evenodd" clip-rule="evenodd" d="M72.0272 37.5971L72.0272 26.8559L74.2607 25.6262L75.3811 27.4768L74.2679 28.0897L74.2679 36.3634L81.7814 40.5003L89.2949 36.3634L89.2949 28.0897L81.7814 23.9528L80.6682 24.5657L79.5479 22.7151L81.7814 21.4853L91.5356 26.8559L91.5356 37.5971L81.7814 42.9677L72.0272 37.5971Z" fill="black"></path><path fill-rule="evenodd" clip-rule="evenodd" d="M58.7757 21.407L68.5299 26.7776V29.2371H66.2892V28.0113L58.7757 23.8744L51.2622 28.0113V36.285L58.7757 40.4219L66.2892 36.285V35.0592H68.5299V37.5188L58.7757 42.8894L49.0215 37.5188V26.7776L58.7757 21.407Z" fill="black"></path></svg>