<svg xmlns="http://www.w3.org/2000/svg" width="140" height="59" viewBox="0 0 140 59" fill="none"><path d="M2.36517 48.304C2.30067 48.3759 2.2407 48.4868 2.2407 48.677V57.781H0V48.677C0 45.5868 4.26942 44.7734 5.40558 47.6472L8.44186 55.3273C8.51178 55.5041 8.60835 55.5853 8.69477 55.6284C8.79381 55.6779 8.92601 55.6986 9.06763 55.6716C9.20924 55.6446 9.32458 55.5767 9.3985 55.4944C9.46301 55.4225 9.52298 55.3115 9.52298 55.1213V46.2974H11.7637V55.1213C11.7637 58.2115 7.49425 59.0249 6.3581 56.1511L3.32182 48.4711C3.25189 48.2942 3.15532 48.213 3.0689 48.1699C2.96987 48.1205 2.83766 48.0998 2.69605 48.1267C2.55443 48.1537 2.43909 48.2216 2.36517 48.304Z" fill="#051B52"></path><path d="M74.7164 48.304C74.6519 48.3759 74.5919 48.4868 74.5919 48.677V57.5009H72.3512V48.677C72.3512 45.5868 76.6206 44.7734 77.7568 47.6472L80.7931 55.3273C80.863 55.5041 80.9596 55.5853 81.046 55.6284C81.145 55.6779 81.2772 55.6986 81.4188 55.6716C81.5604 55.6446 81.6758 55.5767 81.7497 55.4944C81.8142 55.4225 81.8742 55.3115 81.8742 55.1213V46.0195H84.1149V55.1213C84.1149 58.2115 79.8455 59.0249 78.7093 56.1511L75.673 48.4711C75.6031 48.2942 75.5065 48.213 75.4201 48.1699C75.3211 48.1205 75.1889 48.0998 75.0472 48.1267C74.9056 48.1537 74.7903 48.2216 74.7164 48.304Z" fill="#051B52"></path><path d="M93.9243 46.0195H86.3337V48.3548H89.0086V57.5009H91.2493V48.3548H93.9243V46.0195Z" fill="#051B52"></path><path d="M95.7276 54.1918V46.0195H97.9683V54.1918C97.9683 54.8105 98.4699 55.3121 99.0886 55.3121H102.287C102.906 55.3121 103.407 54.8105 103.407 54.1918V46.0195H105.648V54.1918C105.648 56.048 104.143 57.5528 102.287 57.5528H99.0886C97.2324 57.5528 95.7276 56.048 95.7276 54.1918Z" fill="#051B52"></path><path d="M14.0044 49.6584C14.0044 47.8022 15.5092 46.2974 17.3654 46.2974H22.9672V48.5381H17.3654C16.7467 48.5381 16.2451 49.0397 16.2451 49.6584C16.2451 50.2772 16.7467 50.7788 17.3654 50.7788H22.9672V53.0195H17.3654C16.7467 53.0195 16.2451 53.5211 16.2451 54.1398C16.2451 54.7586 16.7467 55.2602 17.3654 55.2602H22.9672V57.5009H17.3654C15.5092 57.5009 14.0044 55.9961 14.0044 54.1398C14.0044 53.279 14.328 52.4937 14.8602 51.8991C14.328 51.3045 14.0044 50.5192 14.0044 49.6584Z" fill="#051B52"></path><path d="M122.512 46.2974C120.656 46.2974 119.151 47.8022 119.151 49.6584C119.151 50.5192 119.475 51.3045 120.007 51.8991C119.475 52.4937 119.151 53.279 119.151 54.1398C119.151 55.9961 120.656 57.5009 122.512 57.5009H128.114V55.2602H122.512C121.893 55.2602 121.392 54.7586 121.392 54.1398C121.392 53.5211 121.893 53.0195 122.512 53.0195H128.114V50.7788H122.512C121.893 50.7788 121.392 50.2772 121.392 49.6584C121.392 49.0397 121.893 48.5381 122.512 48.5381H128.114V46.2974H122.512Z" fill="#051B52"></path><path d="M61.0591 49.6584C61.0591 47.8022 62.5639 46.2974 64.4201 46.2974H70.0219V48.5381H64.4201C63.8014 48.5381 63.2998 49.0397 63.2998 49.6584C63.2998 50.2772 63.8014 50.7788 64.4201 50.7788H70.0219V53.0195H64.4201C63.8014 53.0195 63.2998 53.5211 63.2998 54.1398C63.2998 54.7586 63.8014 55.2602 64.4201 55.2602H70.0219V57.5009H64.4201C62.5639 57.5009 61.0591 55.9961 61.0591 54.1398C61.0591 53.279 61.3827 52.4937 61.9149 51.8991C61.3827 51.3045 61.0591 50.5192 61.0591 49.6584Z" fill="#051B52"></path><path d="M133.27 46.3132H138.88V48.5539H133.27C132.656 48.5539 132.158 49.052 132.158 49.6664C132.158 50.2807 132.656 50.7788 133.27 50.7788H136.639C138.495 50.7788 140 52.2836 140 54.1398C140 55.9961 138.495 57.5009 136.639 57.5009H131.037V55.2602H136.639C137.258 55.2602 137.759 54.7586 137.759 54.1398C137.759 53.5211 137.258 53.0195 136.639 53.0195H133.27C131.418 53.0195 129.917 51.5182 129.917 49.6664C129.917 47.8145 131.418 46.3132 133.27 46.3132Z" fill="#051B52"></path><path d="M27.5372 48.2922C27.5372 48.0991 27.5983 47.988 27.6631 47.9166C27.7377 47.8344 27.8545 47.7668 27.998 47.7409C28.1416 47.7151 28.2746 47.7377 28.3732 47.7886C28.4588 47.8329 28.5549 47.9157 28.6223 48.0967L31.6596 56.2501C32.5314 58.5903 36.0001 57.9652 36.0001 55.4679V48.2922C36.0001 48.0991 36.0612 47.988 36.1259 47.9166C36.2006 47.8344 36.3174 47.7668 36.4609 47.7409C36.6044 47.7151 36.7375 47.7377 36.8361 47.7886C36.9217 47.8329 37.0178 47.9157 37.0852 48.0967L40.5884 57.5009H42.9796L39.1849 47.3145C38.0952 44.3892 33.7594 45.1706 33.7594 48.2922V55.4679L30.722 47.3145C29.6323 44.3892 25.2965 45.1706 25.2965 48.2922V57.5009H27.5372V48.2922Z" fill="#051B52"></path><path d="M55.613 56.6734C54.8358 58.5191 52.2122 58.4959 51.4678 56.6366L47.3282 46.2974H49.7418L53.548 55.8038L57.5511 46.2974H59.9823L55.613 56.6734Z" fill="#051B52"></path><path d="M108.182 46.0195H114.029C115.886 46.0195 117.39 47.5243 117.39 49.3805V50.0545C117.39 51.4595 116.528 52.6632 115.304 53.1654L117.69 57.5009H115.133L112.884 53.4155H109.918V57.5009H107.677V52.2952C107.677 51.6764 108.179 51.1748 108.798 51.1748H114.029C114.648 51.1748 115.15 50.6732 115.15 50.0545V49.3805C115.15 48.7618 114.648 48.2602 114.029 48.2602H108.182V46.0195Z" fill="#051B52"></path><path fill-rule="evenodd" clip-rule="evenodd" d="M63.0188 28.4118L58.7727 25.96L54.5254 28.4118V33.315L58.7727 35.7669L63.0188 33.315V32.5218H73.4696V29.2045H63.0188V28.4118Z" fill="#051B52"></path><path fill-rule="evenodd" clip-rule="evenodd" d="M77.5349 28.4945V33.3979L81.7813 35.8496L86.0278 33.3979L86.0278 28.4945L81.7813 26.0428L81.0945 26.4394L75.8691 17.3887L72.9961 19.0474L78.2215 28.0981L77.5349 28.4945Z" fill="#051B52"></path><path fill-rule="evenodd" clip-rule="evenodd" d="M80.1041 16.8948L70.3499 22.5264L68.1164 21.2368L69.2367 19.2963L70.3499 19.939L77.8634 15.6011L77.8634 6.92526L70.3499 2.58734L62.8364 6.92526L62.8364 15.6011L63.9496 16.2438L62.8292 18.1843L60.5957 16.8948L60.5957 5.63159L70.3499 0L80.1041 5.63159V16.8948Z" fill="#051B52"></path><path fill-rule="evenodd" clip-rule="evenodd" d="M70.3495 16.1671L74.5959 13.7154V8.81204L70.3495 6.36035L66.103 8.81204V13.7154L66.7899 14.112L61.5645 23.1627L64.4374 24.8214L69.6629 15.7707L70.3495 16.1671Z" fill="#051B52"></path><path fill-rule="evenodd" clip-rule="evenodd" d="M72.0273 36.5764L72.0273 25.3132L74.2609 24.0237L75.3812 25.9642L74.268 26.6069L74.268 35.2827L81.7815 39.6207L89.295 35.2827L89.295 26.6069L81.7815 22.269L80.6684 22.9117L79.548 20.9712L81.7815 19.6816L91.5357 25.3132V36.5764L81.7815 42.208L72.0273 36.5764Z" fill="#051B52"></path><path fill-rule="evenodd" clip-rule="evenodd" d="M58.7757 19.5996L68.5299 25.2312V27.8102H66.2892V26.5249L58.7757 22.1869L51.2622 26.5249V35.2007L58.7757 39.5386L66.2892 35.2007V33.9153H68.5299V36.4944L58.7757 42.126L49.0215 36.4944V25.2312L58.7757 19.5996Z" fill="#051B52"></path></svg>