<svg xmlns="http://www.w3.org/2000/svg" width="140" height="25" viewBox="0 0 140 25" fill="none"><path fill-rule="evenodd" clip-rule="evenodd" d="M32.9648 0.00019068C30.2145 -0.0151735 27.3934 0.897769 25.4097 2.80636C22.9773 5.15263 21.8508 8.55457 21.8018 11.8416C21.7028 14.6455 22.2672 17.5161 23.8062 19.9209C24.9731 21.8397 26.8274 23.3231 28.9868 24.0531C31.3633 24.845 34.006 24.8943 36.4185 24.2381C39.0318 23.5055 41.2664 21.6699 42.4934 19.3042C44.0812 16.384 44.395 12.9183 43.9119 9.68301C43.505 7.09756 42.3957 4.53118 40.4273 2.71385C38.5133 0.920219 35.8693 0.0459873 33.2423 0.0310277C33.1504 0.0271891 33.0567 0.00402927 32.9648 0.00019068ZM0 0.925301V23.8064H3.94714V8.41869L15.9427 23.8064H19.2115V0.925301H15.4802V13.5376L5.51982 0.925301H0ZM51.652 0.925301L43.2643 23.8064H47.3348L52.978 8.32618L58.7445 23.8064H64.8811L56.185 0.925301H51.652ZM60.3789 0.925301L58.9295 4.8416L60.9956 10.2998L61.7357 8.32618L67.348 23.8064H73.793L65.1586 0.925301H60.3789ZM74.348 0.925301C74.3609 6.22653 74.3028 11.5368 74.348 16.8372C74.451 18.9264 75.1368 21.0647 76.7533 22.5112C78.4044 24.0283 80.7435 24.5735 82.9515 24.6698C85.0547 24.7476 87.219 24.5359 89.1189 23.5905C90.8988 22.7093 92.1814 21.0175 92.696 19.15C93.3446 16.9943 93.0242 14.7331 93.0969 12.52C93.0969 8.65306 93.0969 4.79225 93.0969 0.925301C91.6897 0.925301 90.3103 0.925301 88.9031 0.925301C88.9031 5.91907 88.9031 10.9183 88.9031 15.9121C88.8887 17.3912 88.7543 19.0413 87.6079 20.1368C86.4301 21.1742 84.7115 21.1679 83.2291 20.9694C81.8356 20.7888 80.7012 19.6797 80.4229 18.3482C79.9459 16.5432 80.2141 14.6709 80.1454 12.8284C80.1454 8.86344 80.1454 4.89024 80.1454 0.925301C78.2092 0.925301 76.2842 0.925301 74.348 0.925301ZM96.9207 0.925301C96.9207 8.55242 96.9207 16.1792 96.9207 23.8064C98.8471 23.8064 100.761 23.8064 102.687 23.8064C102.687 17.2521 102.687 10.6866 102.687 4.13235C103.913 4.17998 105.181 4.0272 106.388 4.2557C107.56 4.47052 108.569 5.28605 108.916 6.41429C109.345 7.6154 109.362 9.01107 108.885 10.2072C108.395 11.3583 107.17 11.9335 105.987 12.1808C105.232 12.3534 104.445 12.4213 103.674 12.4892C105.66 16.2636 107.67 20.032 109.656 23.8064C111.713 23.8064 113.768 23.8064 115.824 23.8064C114.007 20.4513 112.182 17.0777 110.366 13.7227C111.902 13.1683 113.441 12.3306 114.22 10.8548C114.926 9.59723 115.069 8.09891 114.96 6.69182C114.753 4.79313 113.663 2.98913 111.969 2.0046C110.533 1.07431 108.757 0.845707 107.066 0.925301C103.678 0.925301 100.309 0.925301 96.9207 0.925301ZM125.476 0.925301L116.41 23.8064H120.357L122.824 17.4848H131.119L133.648 23.8064H140L130.811 0.925301H125.476ZM33.1189 3.14557C33.4701 3.15683 33.8266 3.21893 34.1674 3.33059C36.061 3.90738 37.2584 5.68515 37.8062 7.46275C38.418 9.24404 38.5317 11.146 38.4846 13.0134C38.4009 15.5082 37.9092 18.1733 36.1718 20.1059C35.3259 20.9555 34.2081 21.597 32.9648 21.5553C30.8168 21.5882 29.1268 19.8153 28.4009 17.9782C27.3733 15.4646 27.2455 12.6876 27.5374 10.0222C27.8201 7.88889 28.4807 5.62883 30.1894 4.16319C31.0001 3.49776 32.0654 3.11174 33.1189 3.14557ZM126.956 7.03103L129.793 14.2161H124.119L126.956 7.03103ZM54.5815 15.8196L51.652 23.8064H55.3524L56.4626 20.7843L54.5815 15.8196Z" fill="#C3231F"></path></svg>