<svg xmlns="http://www.w3.org/2000/svg" width="141" height="25" viewBox="0 0 141 25" fill="none"><path fill-rule="evenodd" clip-rule="evenodd" d="M33.1269 0.00019068C30.3766 -0.0151735 27.5555 0.897769 25.5718 2.80636C23.1394 5.15263 22.0129 8.55457 21.9639 11.8416C21.8649 14.6455 22.4293 17.5161 23.9683 19.9209C25.1352 21.8397 26.9895 23.3231 29.1489 24.0531C31.5254 24.845 34.1681 24.8943 36.5806 24.2381C39.1939 23.5055 41.4285 21.6699 42.6555 19.3042C44.2433 16.384 44.5571 12.9183 44.074 9.68301C43.6671 7.09756 42.5578 4.53118 40.5894 2.71385C38.6754 0.920219 36.0314 0.0459873 33.4044 0.0310277C33.3125 0.0271891 33.2188 0.00402927 33.1269 0.00019068ZM0.162109 0.925301V23.8064H4.10925V8.41869L16.1048 23.8064H19.3736V0.925301H15.6423V13.5376L5.68193 0.925301H0.162109ZM51.8141 0.925301L43.4264 23.8064H47.4969L53.1401 8.32618L58.9066 23.8064H65.0432L56.3471 0.925301H51.8141ZM60.541 0.925301L59.0916 4.8416L61.1577 10.2998L61.8978 8.32618L67.5101 23.8064H73.9551L65.3207 0.925301H60.541ZM74.5101 0.925301C74.523 6.22653 74.4649 11.5368 74.5101 16.8372C74.6131 18.9264 75.2989 21.0647 76.9154 22.5112C78.5666 24.0283 80.9056 24.5735 83.1137 24.6698C85.2168 24.7476 87.3811 24.5359 89.2811 23.5905C91.0609 22.7093 92.3435 21.0175 92.8581 19.15C93.5067 16.9943 93.1863 14.7331 93.259 12.52C93.259 8.65306 93.259 4.79225 93.259 0.925301C91.8518 0.925301 90.4724 0.925301 89.0652 0.925301C89.0652 5.91907 89.0652 10.9183 89.0652 15.9121C89.0509 17.3912 88.9164 19.0413 87.77 20.1368C86.5922 21.1742 84.8736 21.1679 83.3912 20.9694C81.9977 20.7888 80.8633 19.6797 80.585 18.3482C80.108 16.5432 80.3762 14.6709 80.3075 12.8284C80.3075 8.86344 80.3075 4.89024 80.3075 0.925301C78.3713 0.925301 76.4463 0.925301 74.5101 0.925301ZM97.0828 0.925301C97.0828 8.55242 97.0828 16.1792 97.0828 23.8064C99.0092 23.8064 100.923 23.8064 102.849 23.8064C102.849 17.2521 102.849 10.6866 102.849 4.13235C104.075 4.17998 105.343 4.0272 106.55 4.2557C107.722 4.47052 108.731 5.28605 109.078 6.41429C109.507 7.6154 109.524 9.01107 109.048 10.2072C108.557 11.3583 107.332 11.9335 106.149 12.1808C105.394 12.3534 104.607 12.4213 103.836 12.4892C105.822 16.2636 107.832 20.032 109.818 23.8064C111.875 23.8064 113.93 23.8064 115.986 23.8064C114.169 20.4513 112.344 17.0777 110.528 13.7227C112.064 13.1683 113.603 12.3306 114.382 10.8548C115.088 9.59723 115.231 8.09891 115.122 6.69182C114.915 4.79313 113.825 2.98913 112.131 2.0046C110.695 1.07431 108.919 0.845707 107.228 0.925301C103.84 0.925301 100.471 0.925301 97.0828 0.925301ZM125.638 0.925301L116.572 23.8064H120.519L122.986 17.4848H131.281L133.81 23.8064H140.162L130.973 0.925301H125.638ZM33.2811 3.14557C33.6322 3.15683 33.9887 3.21893 34.3295 3.33059C36.2231 3.90738 37.4205 5.68515 37.9683 7.46275C38.5801 9.24404 38.6939 11.146 38.6467 13.0134C38.563 15.5082 38.0713 18.1733 36.3339 20.1059C35.488 20.9555 34.3702 21.597 33.1269 21.5553C30.9789 21.5882 29.289 19.8153 28.563 17.9782C27.5354 15.4646 27.4076 12.6876 27.6996 10.0222C27.9822 7.88889 28.6428 5.62883 30.3515 4.16319C31.1622 3.49776 32.2275 3.11174 33.2811 3.14557ZM127.118 7.03103L129.955 14.2161H124.281L127.118 7.03103ZM54.7436 15.8196L51.8141 23.8064H55.5145L56.6247 20.7843L54.7436 15.8196Z" fill="#051B52"></path></svg>