<svg xmlns="http://www.w3.org/2000/svg" width="140" height="54" viewBox="0 0 140 54" fill="none"><path d="M117.082 45.6303C117.73 45.6303 118.256 45.1049 118.256 44.4567C118.256 43.8086 117.73 43.2832 117.082 43.2832C116.434 43.2832 115.909 43.8086 115.909 44.4567C115.909 45.1049 116.434 45.6303 117.082 45.6303Z" fill="#051B52"></path><path d="M89.2314 44.0809C88.2406 45.0672 88.235 46.6688 89.2179 47.6624L90.4521 48.9101L92.0693 50.3358C92.4677 50.7556 92.4304 51.4704 91.8226 51.9195C91.7887 51.9446 91.7496 51.9676 91.7063 51.9883C91.6793 52.0014 91.6504 52.0132 91.6197 52.0242C91.4373 52.0891 91.1958 52.1152 90.9179 52.0721C90.5438 52.0139 90.2292 51.8487 90.0491 51.6591L89.5092 50.8126L88.1029 51.7094L88.7093 52.6604L88.7465 52.7039C89.2337 53.2777 89.9616 53.6116 90.662 53.7203C91.3605 53.8287 92.174 53.7338 92.8139 53.2609C94.103 52.3078 94.4911 50.404 93.2351 49.1426L91.5979 47.6966L90.4037 46.4894C90.0668 46.149 90.0691 45.6006 90.4084 45.2629C90.7462 44.9262 91.2926 44.9253 91.6318 45.2606L92.6505 46.2677L93.8233 45.0814L92.8041 44.0743C91.8133 43.0952 90.2185 43.098 89.2314 44.0809Z" fill="#051B52"></path><path fill-rule="evenodd" clip-rule="evenodd" d="M82.6807 43.4242V53.4317H81.0128V52.9466C80.4311 53.3286 79.7354 53.5509 78.9875 53.5509C76.9477 53.5509 75.2942 51.8974 75.2942 49.8576C75.2942 47.8179 76.9477 46.1644 78.9875 46.1644C79.7354 46.1644 80.4311 46.3866 81.0128 46.7687V43.4242H82.6807ZM78.9875 47.8323C80.1063 47.8323 81.0128 48.7391 81.0128 49.8576C81.0128 50.9761 80.1063 51.8829 78.9875 51.8829C77.8687 51.8829 76.9622 50.9761 76.9622 49.8576C76.9622 48.7391 77.8687 47.8323 78.9875 47.8323Z" fill="#051B52"></path><path d="M58.0194 43.9008H53.1348V53.4317H54.8027V49.0237H58.0194V47.3557H54.8027V45.5687H58.0194V43.9008Z" fill="#051B52"></path><path fill-rule="evenodd" clip-rule="evenodd" d="M96.57 50.6176H102.495V49.7836C102.495 47.6205 100.817 45.9973 98.6772 45.9973C96.5258 45.9973 94.7815 47.7415 94.7815 49.8932C94.7815 52.0447 96.5258 53.7889 98.6772 53.7889C99.9356 53.7889 101.054 53.1916 101.765 52.2685L100.444 51.251C100.035 51.7815 99.3962 52.121 98.6772 52.121C97.7004 52.121 96.8706 51.4923 96.57 50.6176ZM98.6772 47.6652C97.7841 47.6652 97.0139 48.1909 96.6584 48.9497H100.67C100.36 48.1762 99.6135 47.6652 98.6772 47.6652Z" fill="#051B52"></path><path fill-rule="evenodd" clip-rule="evenodd" d="M134.04 50.6176H128.116C128.416 51.4923 129.246 52.121 130.223 52.121C130.942 52.121 131.581 51.7815 131.989 51.251L133.311 52.2685C132.6 53.1916 131.481 53.7889 130.223 53.7889C128.071 53.7889 126.327 52.0447 126.327 49.8932C126.327 47.7415 128.071 45.9973 130.223 45.9973C132.363 45.9973 134.04 47.6205 134.04 49.7836V50.6176ZM128.204 48.9497C128.56 48.1909 129.33 47.6652 130.223 47.6652C131.159 47.6652 131.905 48.1762 132.216 48.9497H128.204Z" fill="#051B52"></path><path d="M122.761 47.6652C121.531 47.6652 120.534 48.6627 120.534 49.8932C120.534 51.1237 121.531 52.121 122.761 52.121C123.48 52.121 124.119 51.7815 124.528 51.251L125.85 52.2685C125.139 53.1916 124.02 53.7889 122.761 53.7889C120.61 53.7889 118.866 52.0447 118.866 49.8932C118.866 47.7415 120.61 45.9973 122.761 45.9973C124.098 45.9973 125.271 46.6309 125.956 47.6671L124.565 48.5869C124.2 48.0343 123.558 47.6652 122.761 47.6652Z" fill="#051B52"></path><path d="M69.3374 49.0904V53.4317H67.6695V46.2835H69.3374V47.1221C69.8028 46.586 70.4594 46.1644 71.3637 46.1644C71.9081 46.1644 72.4014 46.2393 72.8217 46.4378C73.2652 46.6472 73.5779 46.9711 73.7776 47.3699C73.8288 47.4728 73.8716 47.5782 73.9074 47.6848C73.9353 47.7678 73.9586 47.8518 73.9786 47.9358C74.0261 48.1371 74.0535 48.3393 74.0708 48.5329C74.1038 48.905 74.1038 49.3161 74.1038 49.7154V53.4317H72.4359V49.7385C72.4359 49.311 72.435 48.9713 72.4094 48.6804C72.3386 47.8837 71.8016 47.755 71.0486 47.755C70.2402 47.755 69.5957 48.5068 69.3374 49.0904Z" fill="#051B52"></path><path d="M117.916 53.4317V46.2835H116.248V53.4317H117.916Z" fill="#051B52"></path><path d="M61.2361 46.2835V50.6916C61.2361 51.4811 61.876 52.1212 62.6657 52.1212C63.4555 52.1212 64.0954 51.4811 64.0954 50.6916V46.2835H65.7633V50.6916C65.7633 52.4023 64.3765 53.7891 62.6657 53.7891C60.955 53.7891 59.5682 52.4023 59.5682 50.6916V46.2835H61.2361Z" fill="#051B52"></path><path d="M105.8 47.9447C105.589 48.0596 105.436 48.2109 105.354 48.4033V53.4317H103.686V46.2835H105.354V46.8401C106.045 45.8684 106.7 45.9971 107.41 46.2128L106.926 47.8088C106.607 47.7117 106.158 47.7506 105.8 47.9447Z" fill="#051B52"></path><path d="M112.16 53.4329H110.868L107.926 46.29H109.729L111.522 50.649L113.348 46.29H115.156L112.16 53.4329Z" fill="#051B52"></path><path d="M137.801 47.8567C137.497 47.6247 137.104 47.6264 136.806 47.8551C136.794 47.8642 136.757 47.9007 136.729 47.9612C136.705 48.0142 136.691 48.0794 136.702 48.1615C136.707 48.1969 136.727 48.263 136.828 48.3737C136.935 48.4913 137.087 48.6099 137.292 48.7551L137.674 49.025L138.645 49.5677L138.664 49.5784C138.848 49.6812 139.184 49.8685 139.433 50.188C140.237 51.2205 139.926 52.7216 138.748 53.3943C137.72 53.9804 136.289 53.8801 135.404 53.0829L134.721 52.4947L135.81 51.2312L136.508 51.8331L136.516 51.8406C136.826 52.1217 137.468 52.2041 137.921 51.9455C138.093 51.8471 138.181 51.7068 138.205 51.5669C138.22 51.4718 138.206 51.3768 138.168 51.2952C138.154 51.2658 138.137 51.2384 138.118 51.2133C138.113 51.2079 138.097 51.1884 138.048 51.1539C137.996 51.1172 137.931 51.0797 137.831 51.0236L136.783 50.4379L136.33 50.1173C136.114 49.9649 135.833 49.7585 135.595 49.4972C135.351 49.2293 135.115 48.8636 135.049 48.3879C134.933 47.5384 135.355 46.8666 135.789 46.5329C136.689 45.8407 137.915 45.8453 138.813 46.5308L139.734 47.2338L138.722 48.5597L137.801 47.8567Z" fill="#051B52"></path><path fill-rule="evenodd" clip-rule="evenodd" d="M117.082 43.4023C116.5 43.4023 116.028 43.8744 116.028 44.4567C116.028 45.0391 116.5 45.5112 117.082 45.5112C117.664 45.5112 118.137 45.0392 118.137 44.4567C118.137 43.8744 117.664 43.4023 117.082 43.4023ZM115.79 44.4567C115.79 43.7428 116.368 43.1641 117.082 43.1641C117.796 43.1641 118.375 43.7428 118.375 44.4567C118.375 45.1707 117.796 45.7495 117.082 45.7495C116.368 45.7495 115.79 45.1707 115.79 44.4567ZM92.7204 44.1591C91.7761 43.2259 90.2562 43.2286 89.3155 44.1653C88.3712 45.1053 88.3659 46.6317 89.3026 47.5786L90.5339 48.8234L92.1521 50.2499L92.1557 50.2538C92.6091 50.7315 92.5519 51.5288 91.8934 52.0153C91.8934 52.0153 91.8935 52.0153 91.8934 52.0153C91.8525 52.0456 91.8067 52.0724 91.7577 52.0958C91.7578 52.0958 91.758 52.0957 91.7581 52.0956L91.7063 51.9883L91.7577 52.0958C91.7264 52.1109 91.6937 52.1243 91.6597 52.1364C91.4563 52.2088 91.1944 52.2355 90.8997 52.1898C90.5044 52.1284 90.164 51.9532 89.9627 51.7411L89.9548 51.7328L89.4728 50.9771L89.5733 50.913L89.5092 50.8126L89.4088 50.8766L89.4728 50.9771L88.2674 51.7457L88.2033 51.6453L88.1029 51.7093L88.1669 51.8098L88.2674 51.7457L88.8052 52.5892L88.7998 52.5829L88.7093 52.6603L88.8097 52.5963L88.8052 52.5892L88.837 52.6264L88.8373 52.6267C89.3021 53.1741 90.0014 53.4972 90.6802 53.6025C91.3576 53.7077 92.136 53.6137 92.7431 53.1651C92.7431 53.1651 92.7431 53.1651 92.7431 53.1651C93.9844 52.2473 94.3451 50.4294 93.1533 49.2293L93.1562 49.2318L93.2351 49.1426L93.1506 49.2266C93.1515 49.2275 93.1524 49.2284 93.1533 49.2293L91.516 47.7833L90.319 46.5732C89.9359 46.1861 89.9385 45.5624 90.3243 45.1785C90.3243 45.1785 90.3243 45.1785 90.3243 45.1785C90.7086 44.7956 91.3298 44.7946 91.7156 45.1759L92.6496 46.0992L92.5658 46.1839L92.6505 46.2677L92.7343 46.1829L92.6496 46.0992L93.6548 45.0824L93.7396 45.1662L93.8233 45.0814L93.7386 44.9977L93.6548 45.0824L92.7204 44.1591ZM89.1473 43.9964C90.1808 42.9674 91.8506 42.9645 92.8879 43.9896L93.9918 45.0804L92.6515 46.4362L91.5481 45.3453C91.2553 45.056 90.7839 45.0568 90.4924 45.3473C90.1997 45.6386 90.1977 46.1119 90.4884 46.4056L91.6797 47.61L93.3168 49.0558L93.3195 49.0585C94.6366 50.3812 94.2207 52.369 92.8847 53.3567C92.212 53.8538 91.3634 53.9497 90.6437 53.838C89.9217 53.726 89.1654 53.3813 88.6557 52.781L88.6133 52.7315L87.9384 51.6729L89.5456 50.6481L90.1431 51.585C90.3035 51.7492 90.5888 51.9004 90.9362 51.9544C91.1971 51.9948 91.4184 51.9694 91.5798 51.9119C91.6071 51.9022 91.6319 51.892 91.6545 51.8811L91.6549 51.8809C91.6924 51.8629 91.7248 51.8436 91.7518 51.8237C92.307 51.4134 92.3261 50.7839 91.9864 50.4215L90.3703 48.9968L89.1332 47.7462C88.1042 46.706 88.11 45.0291 89.1473 43.9964ZM80.8937 43.3051H82.7999V53.5509H80.8937V53.16C80.3328 53.4844 79.6817 53.67 78.9875 53.67C76.8819 53.67 75.1751 51.9632 75.1751 49.8576C75.1751 47.7521 76.8819 46.0452 78.9875 46.0452C79.6817 46.0452 80.3328 46.2308 80.8937 46.5552V43.3051ZM81.132 43.5433V46.9894L80.9474 46.8682C80.3845 46.4985 79.7114 46.2835 78.9875 46.2835C77.0135 46.2835 75.4134 47.8836 75.4134 49.8576C75.4134 51.8316 77.0135 53.4317 78.9875 53.4317C79.7114 53.4317 80.3845 53.2167 80.9474 52.847L81.132 52.7258V53.3126H82.5616V43.5433H81.132ZM53.0156 43.7816H58.1385V45.6878H54.9218V47.2366H58.1385V49.1428H54.9218V53.5509H53.0156V43.7816ZM53.2539 44.0199V53.3126H54.6835V48.9045H57.9002V47.4749H54.6835V45.4495H57.9002V44.0199H53.2539ZM98.6772 46.1164C96.5916 46.1164 94.9007 47.8073 94.9007 49.8932C94.9007 51.9789 96.5915 53.6698 98.6772 53.6698C99.8541 53.6698 100.905 53.1309 101.597 52.2891L100.463 51.4162C100.032 51.9215 99.392 52.2401 98.6772 52.2401C97.6479 52.2401 96.774 51.5776 96.4573 50.6563L96.403 50.4984H102.376V49.7836C102.376 47.6881 100.753 46.1164 98.6772 46.1164ZM94.6624 49.8932C94.6624 47.6757 96.4599 45.8782 98.6772 45.8782C100.882 45.8782 102.614 47.553 102.614 49.7836V50.7367H96.7441C97.0696 51.4815 97.8127 52.0018 98.6772 52.0018C99.3577 52.0018 99.9624 51.6807 100.349 51.1783L100.422 51.0839L101.933 52.2468L101.86 52.3412C101.127 53.2923 99.9741 53.908 98.6772 53.908C96.46 53.908 94.6624 52.1105 94.6624 49.8932ZM118.747 49.8932C118.747 47.6757 120.544 45.8782 122.761 45.8782C124.136 45.8782 125.348 46.5306 126.056 47.6014L126.121 47.7007L124.532 48.752L124.466 48.6526C124.123 48.1345 123.519 47.7843 122.761 47.7843C121.597 47.7843 120.653 48.7285 120.653 49.8932C120.653 51.0579 121.597 52.0018 122.761 52.0018C123.442 52.0018 124.047 51.6807 124.434 51.1783L124.506 51.0839L126.017 52.2468L125.944 52.3412C125.211 53.2923 124.058 53.908 122.761 53.908C120.544 53.908 118.747 52.1105 118.747 49.8932ZM122.761 46.1164C120.676 46.1164 118.985 47.8073 118.985 49.8932C118.985 51.9789 120.676 53.6698 122.761 53.6698C123.938 53.6698 124.989 53.1309 125.681 52.2891L124.547 51.4162C124.116 51.9215 123.476 52.2401 122.761 52.2401C121.465 52.2401 120.415 51.1895 120.415 49.8932C120.415 48.597 121.465 47.5461 122.761 47.5461C123.549 47.5461 124.199 47.8914 124.596 48.4237L125.79 47.6345C125.119 46.6911 124.016 46.1164 122.761 46.1164ZM126.208 49.8932C126.208 47.6757 128.006 45.8782 130.223 45.8782C132.427 45.8782 134.16 47.553 134.16 49.7836V50.7367H128.29C128.615 51.4815 129.358 52.0018 130.223 52.0018C130.903 52.0018 131.508 51.6807 131.895 51.1783L131.968 51.0839L133.478 52.2468L133.406 52.3412C132.673 53.2923 131.52 53.908 130.223 53.908C128.006 53.908 126.208 52.1105 126.208 49.8932ZM130.223 46.1164C128.137 46.1164 126.446 47.8073 126.446 49.8932C126.446 51.9789 128.137 53.6698 130.223 53.6698C131.4 53.6698 132.451 53.1309 133.143 52.2891L132.009 51.4162C131.577 51.9215 130.938 52.2401 130.223 52.2401C129.194 52.2401 128.32 51.5776 128.003 50.6563L127.949 50.4984H133.921V49.7836C133.921 47.6881 132.299 46.1164 130.223 46.1164ZM135.717 46.4385C136.66 45.7131 137.945 45.7183 138.885 46.4361L139.901 47.2114L138.744 48.7267L137.729 47.9514C137.468 47.7521 137.134 47.7538 136.88 47.9489C136.879 47.9493 136.879 47.9499 136.878 47.9508C136.875 47.9533 136.871 47.9574 136.867 47.9631C136.858 47.9743 136.847 47.9905 136.838 48.0111C136.822 48.0451 136.812 48.0875 136.82 48.1455L136.82 48.146C136.821 48.1497 136.825 48.1941 136.916 48.2935C137.014 48.4006 137.156 48.513 137.361 48.6578L137.738 48.9241L138.703 49.4637L138.722 49.4743L138.722 49.4745L138.726 49.4765C138.911 49.5797 139.264 49.7766 139.527 50.1148C140.378 51.207 140.045 52.7907 138.807 53.4977C137.739 54.107 136.252 54.0059 135.325 53.1725C135.325 53.1721 135.324 53.1718 135.324 53.1715L134.553 52.5072L135.797 51.0632L136.588 51.7446L136.59 51.7464L136.596 51.7524C136.597 51.7526 136.597 51.7528 136.597 51.753C136.728 51.8713 136.938 51.9551 137.176 51.9768C137.412 51.9984 137.66 51.957 137.862 51.8421C138.005 51.7602 138.07 51.6495 138.087 51.5474C138.099 51.4764 138.088 51.4058 138.06 51.3456C138.05 51.3245 138.038 51.3051 138.025 51.2878C138.022 51.2851 138.01 51.2729 137.979 51.2513C137.933 51.2186 137.874 51.1839 137.773 51.1277L136.72 50.5389L136.261 50.2146C136.045 50.0617 135.754 49.849 135.507 49.5774C135.253 49.2984 135.001 48.9113 134.931 48.4041C134.808 47.5049 135.255 46.7934 135.717 46.4385ZM136.878 47.9504L136.879 47.9495C136.878 47.9498 136.878 47.9501 136.878 47.9504ZM138.741 46.6256C137.885 45.9724 136.719 45.9683 135.862 46.6274C135.455 46.9398 135.058 47.5718 135.167 48.3718C135.228 48.8159 135.45 49.1602 135.683 49.417C135.912 49.668 136.184 49.8681 136.398 50.02L136.847 50.337L137.889 50.9196C137.989 50.9755 138.059 51.0157 138.116 51.0566C138.172 51.0956 138.198 51.1228 138.211 51.1398L138.212 51.1401C138.237 51.1724 138.258 51.2073 138.275 51.2439L138.276 51.2447C138.324 51.3478 138.342 51.4671 138.322 51.5865C138.293 51.7641 138.181 51.934 137.98 52.049C137.728 52.1925 137.429 52.2393 137.154 52.2141C136.88 52.189 136.615 52.0912 136.436 51.9288L136.435 51.9273L136.431 51.9234L135.822 51.3992L134.889 52.4822L135.483 52.9943C136.328 53.7544 137.702 53.8535 138.689 53.2908C139.807 52.6524 140.097 51.2339 139.339 50.2613C139.107 49.9629 138.791 49.7855 138.606 49.6824L138.606 49.6823L138.587 49.6717L137.61 49.126L137.224 48.8525M106.353 45.964C106.724 45.8959 107.091 45.9911 107.445 46.0988L107.559 46.1334L107.005 47.9574L106.891 47.9228C106.604 47.8355 106.188 47.8697 105.857 48.0493C105.672 48.1501 105.544 48.2762 105.473 48.4286V53.5509H103.567V46.1644H105.473V46.4994C105.76 46.1803 106.052 46.0195 106.353 45.964ZM106.396 46.1983C106.096 46.2535 105.784 46.4406 105.451 46.9091L105.235 47.2132V46.4026H103.805V53.3126H105.235V48.379L105.244 48.3566C105.339 48.1338 105.515 47.9645 105.743 47.84C106.087 47.6536 106.508 47.5991 106.845 47.6659L107.262 46.2929C106.952 46.2036 106.671 46.1479 106.396 46.1983ZM69.4565 46.8236C69.9222 46.3756 70.5463 46.0452 71.3637 46.0452C71.9179 46.0452 72.4306 46.1213 72.8726 46.33C73.3412 46.5513 73.673 46.8949 73.8841 47.3166L73.8842 47.3168C73.9381 47.425 73.9829 47.5355 74.0203 47.6468C74.0496 47.7339 74.0738 47.8214 74.0945 47.9082L74.0946 47.9085C74.1437 48.1169 74.1719 48.3251 74.1894 48.5224C74.2229 48.8997 74.2229 49.3152 74.2229 49.7123V53.5509H72.3167V49.7385C72.3167 49.3096 72.3157 48.9755 72.2907 48.6909C72.258 48.3225 72.1221 48.1315 71.927 48.0231C71.7189 47.9075 71.4241 47.8742 71.0486 47.8742C70.6826 47.8742 70.3463 48.0445 70.0657 48.2931C69.7927 48.5349 69.5809 48.8438 69.4565 49.116V53.5509H67.5503V46.1644H69.4565V46.8236ZM71.3637 46.2835C70.5017 46.2835 69.8758 46.6837 69.4274 47.2002L69.2183 47.4411V46.4026H67.7886V53.3126H69.2183V49.0652L69.2284 49.0422C69.3639 48.7362 69.5993 48.3879 69.9077 48.1147C70.2161 47.8415 70.6062 47.6359 71.0486 47.6359C71.426 47.6359 71.7763 47.6668 72.0427 47.8148C72.3219 47.9699 72.49 48.2416 72.528 48.6699C72.5542 48.967 72.555 49.3125 72.555 49.7385V53.3126H73.9847V49.7154C73.9847 49.3149 73.9846 48.9093 73.9521 48.5434C73.9521 48.5434 73.9521 48.5434 73.9521 48.5434C73.9352 48.3536 73.9085 48.1574 73.8627 47.9634L73.9786 47.9358L73.8627 47.9632C73.8627 47.9633 73.8627 47.9633 73.8627 47.9634C73.8434 47.8822 73.8211 47.8018 73.7945 47.7227C73.7602 47.6208 73.7194 47.5205 73.6709 47.423C73.671 47.4231 73.671 47.4232 73.671 47.4233L73.7776 47.3699L73.6709 47.423C73.4827 47.0472 73.1891 46.743 72.7708 46.5455C72.3723 46.3573 71.8984 46.2835 71.3637 46.2835ZM59.449 46.1644H61.3552V50.6916C61.3552 51.4153 61.9418 52.0021 62.6657 52.0021C63.3897 52.0021 63.9762 51.4153 63.9762 50.6916V46.1644H65.8824V50.6916C65.8824 52.4681 64.4423 53.9083 62.6657 53.9083C60.8892 53.9083 59.449 52.4681 59.449 50.6916V46.1644ZM59.6873 46.4026V50.6916C59.6873 52.3365 61.0208 53.67 62.6657 53.67C64.3107 53.67 65.6441 52.3365 65.6441 50.6916V46.4026H64.2145V50.6916C64.2145 51.5469 63.5213 52.2403 62.6657 52.2403C61.8102 52.2403 61.1169 51.5469 61.1169 50.6916V46.4026H59.6873ZM116.129 46.1644H118.035V53.5509H116.129V46.1644ZM116.367 46.4026V53.3126H117.797V46.4026H116.367ZM107.748 46.1709H109.809L111.523 50.3382L113.269 46.1709H115.335L112.239 53.552H110.788L107.748 46.1709ZM108.104 46.4091L110.948 53.3137H112.081L114.977 46.4091H113.427L111.521 50.9597L109.649 46.4091H108.104ZM138.741 46.6256L139.567 47.2562L138.741 46.6256ZM139.567 47.2562L138.699 48.3927L137.873 47.762C137.527 47.4977 137.074 47.4989 136.734 47.7602C136.705 47.7821 136.657 47.8345 136.621 47.9113L136.621 47.9117C136.588 47.9837 136.569 48.0715 136.584 48.1776C136.584 48.1774 136.584 48.1772 136.584 48.1771L136.702 48.1615L136.584 48.1776M96.8554 48.8305H100.485C100.159 48.1965 99.4989 47.7843 98.6772 47.7843C97.9004 47.7843 97.2215 48.2045 96.8554 48.8305ZM96.5505 48.8991C96.9249 48.1001 97.7362 47.5461 98.6772 47.5461C99.6595 47.5461 100.451 48.0841 100.781 48.9052L100.847 49.0688H96.471L96.5505 48.8991ZM128.096 48.8991C128.471 48.1001 129.282 47.5461 130.223 47.5461C131.205 47.5461 131.997 48.0841 132.327 48.9052L132.392 49.0688H128.017L128.096 48.8991ZM128.401 48.8305H132.031C131.705 48.1965 131.045 47.7843 130.223 47.7843C129.446 47.7843 128.767 48.2045 128.401 48.8305ZM76.843 49.8576C76.843 48.6733 77.8029 47.7131 78.9875 47.7131C80.1721 47.7131 81.132 48.6733 81.132 49.8576C81.132 51.0419 80.1721 52.0021 78.9875 52.0021C77.8029 52.0021 76.843 51.0419 76.843 49.8576ZM78.9875 47.9514C77.9345 47.9514 77.0813 48.8049 77.0813 49.8576C77.0813 50.9104 77.9345 51.7638 78.9875 51.7638C80.0405 51.7638 80.8937 50.9104 80.8937 49.8576C80.8937 48.8049 80.0405 47.9514 78.9875 47.9514Z" fill="#051B52"></path><path fill-rule="evenodd" clip-rule="evenodd" d="M18.4662 4.70498C10.7679 4.70498 4.5272 10.9457 4.5272 18.644C4.5272 26.3423 10.7679 32.583 18.4662 32.583C26.1645 32.583 32.4053 26.3423 32.4053 18.644C32.4053 10.9457 26.1645 4.70498 18.4662 4.70498ZM0 18.644C0 8.44539 8.26761 0.177775 18.4662 0.177775C28.6649 0.177775 36.9325 8.44539 36.9325 18.644C36.9325 28.8426 28.6649 37.1102 18.4662 37.1102C8.26761 37.1102 0 28.8426 0 18.644Z" fill="#051B52"></path><path fill-rule="evenodd" clip-rule="evenodd" d="M115.948 5.76094C115.025 6.61755 114.446 7.93135 114.6 9.62177C114.767 11.4467 115.307 12.3269 116.017 13.003C116.761 13.7118 117.721 14.2489 119.193 15.0733C119.484 15.2361 119.795 15.4102 120.128 15.5989C120.551 15.8353 121.014 16.0811 121.498 16.3383C123.061 17.1684 124.847 18.1175 126.25 19.252C128.272 20.8884 129.86 23.153 129.86 26.507C129.86 32.4448 124.791 37.1102 119.018 37.1102C115.956 37.1102 112.565 35.9801 108.536 32.2107L111.629 28.9046C114.986 32.0452 117.314 32.583 119.018 32.583C122.457 32.583 125.332 29.7809 125.332 26.507C125.332 24.8572 124.656 23.786 123.402 22.7716C122.368 21.9347 121.151 21.2874 119.708 20.5193C119.145 20.2199 118.548 19.9022 117.914 19.5477L117.908 19.5444L117.902 19.5412C117.645 19.3956 117.383 19.2496 117.116 19.1017C115.654 18.2893 114.092 17.422 112.895 16.2814C111.297 14.7598 110.346 12.8141 110.092 10.0341C109.815 7.01075 110.87 4.29788 112.868 2.44316C114.853 0.599599 117.631 -0.26994 120.59 0.0736962C121.817 0.216187 123.195 0.48243 124.758 1.20596C126.305 1.92204 127.931 3.03791 129.749 4.76247L126.634 8.0473C125.086 6.57899 123.859 5.77882 122.856 5.31442C121.869 4.85748 120.999 4.67881 120.068 4.57067C118.311 4.3667 116.883 4.89316 115.948 5.76094Z" fill="#051B52"></path><path fill-rule="evenodd" clip-rule="evenodd" d="M81.8471 1.13087V21.7416C81.8471 25.3162 82.8918 27.9794 84.5795 29.7361C86.2554 31.4806 88.8064 32.583 92.3312 32.583C95.9893 32.583 98.6379 31.4716 100.371 29.7234C102.107 27.9715 103.173 25.3288 103.173 21.7879V1.25001H107.7V21.7879C107.7 26.2459 106.339 30.1325 103.586 32.9103C100.829 35.6917 96.9254 37.1102 92.3312 37.1102C87.8286 37.1102 84.0058 35.6737 81.3147 32.8725C78.6354 30.0836 77.3199 26.1942 77.3199 21.7416V1.13087H81.8471Z" fill="#051B52"></path><path fill-rule="evenodd" clip-rule="evenodd" d="M56.8283 4.70498C49.1735 4.70498 43.1275 10.9017 43.1275 18.644C43.1275 26.3863 49.1735 32.583 56.8283 32.583C64.5266 32.583 70.7673 26.3423 70.7673 18.644C70.7673 10.9457 64.5266 4.70498 56.8283 4.70498ZM38.6003 18.636C38.6045 8.48507 46.5888 0.177775 56.8283 0.177775C67.0269 0.177775 75.2945 8.44539 75.2945 18.644C75.2945 28.8426 67.0269 37.1102 56.8283 37.1102C51.2599 37.1102 46.3585 34.6535 43.0447 30.7796L42.8892 53.5666L38.3621 53.5357L38.6003 18.644C38.6003 18.6414 38.6003 18.6387 38.6003 18.636Z" fill="#051B52"></path></svg>