<svg xmlns="http://www.w3.org/2000/svg" width="140" height="125" viewBox="0 0 140 125" fill="none"><path d="M15.8789 41.8919H17.6356V1.75676H138.311V122.365H17.6356V82.2297H15.8789V124.122H140V0H15.8789V41.8919Z" fill="#305766"></path><path d="M25.8108 76.351L27.1622 75.3375L27.2973 75.2024C28.5135 74.0537 29.3243 73.1753 29.8649 72.4997C32.0946 69.324 33.2432 65.878 33.2432 62.2969V61.6888C33.2432 58.7159 32.3649 55.7429 30.7432 52.8375C30.2027 51.9591 29.3919 50.9456 28.2432 49.6618C24.8649 46.4861 21.0135 44.8645 16.6216 44.8645C12.5 44.8645 8.71622 46.351 5.4054 49.3915L5.33784 49.4591C1.75676 53.0402 0 57.2294 0 62.0942C0 66.8915 1.75676 71.0807 5.33784 74.6618C8.64865 77.7024 12.4324 79.2564 16.6216 79.2564C19.8649 79.1888 22.9054 78.2429 25.8108 76.351ZM14.0541 73.7834C12.8378 73.4456 12.3649 73.2429 12.2297 73.1078L11.8919 72.9726C11.4865 72.8375 10.5405 72.3645 8.91892 70.878C6.48649 68.3105 5.27027 65.4051 5.27027 62.0267C5.27027 58.9186 6.28378 56.2834 8.31081 53.7834C10.7432 51.2159 13.4459 49.9321 16.6216 49.9321C19.7297 49.9321 22.4324 51.1483 24.7297 53.4456C26.9595 55.9456 28.0405 58.7159 28.0405 61.824V62.1618C28.0405 64.7969 27.2297 67.1618 25.6081 69.5267C25.4054 69.7969 24.8649 70.4726 23.4459 71.7564C21.2838 73.3105 19.1216 74.1213 16.9595 74.1213H16.2838C15.6081 74.0537 14.8649 73.9861 14.0541 73.7834Z" fill="#305766"></path><path d="M34.2578 70.2705L35.2713 72.5678C35.6091 73.2434 35.9469 73.7164 36.2172 74.0543C36.555 74.5948 37.0956 75.2705 37.974 76.1488C38.5821 76.6894 38.9875 77.0272 39.3253 77.2975C41.555 78.8515 44.1226 79.6624 46.8929 79.6624C48.5821 79.6624 50.2037 79.3921 51.7578 78.784C54.1226 77.838 55.9469 76.3515 57.1632 74.3245C58.1091 72.7029 58.5821 71.0137 58.5821 69.3245V69.0543C58.5821 67.6353 58.2442 66.2164 57.501 64.7299C57.1632 64.1218 56.8253 63.6488 56.4875 63.2434C56.3523 63.0407 56.0821 62.7705 55.2037 61.9597C54.4605 61.4191 53.7172 60.9461 53.0415 60.6083C52.4334 60.338 51.6902 60.0678 50.7442 59.7975C49.055 59.4597 47.7037 59.1218 46.6226 58.784C44.9334 58.311 43.7172 57.838 42.9064 57.3651C42.6361 57.2299 42.2307 56.9597 41.8929 56.6218C41.555 56.284 41.0821 55.7434 41.0821 54.5272C41.0821 53.4461 41.4199 52.5002 42.1632 51.6218C42.4334 51.3516 42.7037 51.0137 43.1091 50.7434C44.2578 49.9326 45.6091 49.5272 47.2983 49.5272C48.8523 49.5272 50.1361 49.9326 51.3523 50.811C51.6226 51.0137 51.9605 51.284 52.2307 51.6218C52.6361 52.0272 52.9064 52.4326 53.1091 52.7705L53.8523 54.1894L58.7172 52.1624L57.9064 50.5407C57.6361 50.0678 57.2983 49.5272 56.8253 48.9867C56.6902 48.784 56.3523 48.3786 55.4064 47.4326C54.7983 46.8921 54.2578 46.4867 53.7848 46.2164C51.8253 45.0678 49.7307 44.4597 47.501 44.4597H47.2307C46.2172 44.4597 45.0686 44.5948 43.9199 44.8651H43.8523C43.1091 45.0678 42.4334 45.338 41.6902 45.6759C41.2172 45.9461 40.7442 46.2164 40.474 46.3516C40.0686 46.5543 39.6632 46.8921 38.9199 47.6353C38.5821 48.0407 38.2442 48.3786 37.974 48.7164C36.6902 50.4732 36.0145 52.4326 36.0145 54.5948C36.0145 57.3651 37.2983 59.7299 39.7307 61.284C40.4064 61.6894 41.0821 62.0948 41.7578 62.3651C43.5821 63.1759 46.2172 63.9191 49.5956 64.6624C50.0686 64.7975 50.4064 64.9326 50.7442 65.0002C51.0145 65.1353 51.3523 65.2705 51.5551 65.4732L51.7578 65.6083C51.8929 65.6759 52.0956 65.8786 52.2983 66.0813C53.1091 66.9597 53.5145 67.9056 53.5145 69.1218C53.5145 69.7299 53.4469 70.2705 53.2442 70.8786C53.0415 71.5543 52.6361 72.1624 52.1632 72.6353C51.6226 73.1083 51.4199 73.311 51.2848 73.311C50.001 74.1218 48.6496 74.4597 47.1632 74.4597C45.6091 74.4597 44.2578 74.0543 42.9064 73.1759C42.8388 73.1759 42.6361 73.0407 42.0956 72.5002C41.6226 72.0272 41.2848 71.6894 41.0821 71.4191C40.6767 70.8786 40.3388 70.338 40.1361 69.7975L39.6632 68.784L39.528 68.311L37.3659 69.1218C37.3659 69.1218 37.2983 69.1218 37.2983 69.1894L36.6226 69.4597C36.4875 69.5272 36.4199 69.5272 36.2848 69.5948L34.2578 70.2705Z" fill="#305766"></path><path d="M62.0273 44.8645V79.1888H82.1624V74.1213H67.2976V44.8645H62.0273Z" fill="#305766"></path></svg>