<svg xmlns="http://www.w3.org/2000/svg" width="141" height="27" viewBox="0 0 141 27" fill="none"><path fill-rule="evenodd" clip-rule="evenodd" d="M34.0176 9.13194C34.0176 8.74922 34.3278 8.43896 34.7106 8.43896H39.0273C40.6496 8.43896 41.9648 9.75409 41.9648 11.3764C41.9648 12.9987 40.6496 14.3138 39.0273 14.3138H35.4035V17.4937C35.4035 17.8764 35.0933 18.1867 34.7106 18.1867C34.3278 18.1867 34.0176 17.8764 34.0176 17.4937V9.13194ZM35.4035 12.9278H39.0273C39.8842 12.9278 40.5788 12.2332 40.5788 11.3764C40.5788 10.5195 39.8842 9.82491 39.0273 9.82491H35.4035V12.9278Z" fill="#051B52"></path><path fill-rule="evenodd" clip-rule="evenodd" d="M47.3746 8.43896C47.7573 8.43896 48.0676 8.74922 48.0676 9.13194V12.3335H54.4012V9.13194C54.4012 8.74922 54.7114 8.43896 55.0941 8.43896C55.4768 8.43896 55.7871 8.74922 55.7871 9.13194V17.4937C55.7871 17.8764 55.4768 18.1867 55.0941 18.1867C54.7114 18.1867 54.4012 17.8764 54.4012 17.4937V13.7194H48.0676V17.4937C48.0676 17.8764 47.7573 18.1867 47.3746 18.1867C46.9919 18.1867 46.6816 17.8764 46.6816 17.4937V9.13194C46.6816 8.74922 46.9919 8.43896 47.3746 8.43896Z" fill="#051B52"></path><path fill-rule="evenodd" clip-rule="evenodd" d="M61.6988 8.43896C62.0816 8.43896 62.3918 8.74922 62.3918 9.13194V13.3637C62.3918 15.2619 63.9306 16.8007 65.8289 16.8007C67.7271 16.8007 69.2659 15.2619 69.2659 13.3637V9.13194C69.2659 8.74922 69.5762 8.43896 69.9589 8.43896C70.3416 8.43896 70.6519 8.74922 70.6519 9.13194V13.3637C70.6519 16.0273 68.4925 18.1867 65.8289 18.1867C63.1652 18.1867 61.0059 16.0273 61.0059 13.3637V9.13194C61.0059 8.74922 61.3161 8.43896 61.6988 8.43896Z" fill="#051B52"></path><path fill-rule="evenodd" clip-rule="evenodd" d="M76.1094 8.49093C76.3694 8.38417 76.6681 8.44501 76.8657 8.64496L83.9398 15.8062V9.13196C83.9398 8.74924 84.25 8.43899 84.6327 8.43899C85.0155 8.43899 85.3257 8.74924 85.3257 9.13196V17.4937C85.3257 17.7748 85.1559 18.028 84.896 18.1348C84.636 18.2415 84.3373 18.1807 84.1397 17.9807L77.0656 10.8195V17.4937C77.0656 17.8764 76.7554 18.1867 76.3727 18.1867C75.9899 18.1867 75.6797 17.8764 75.6797 17.4937V9.13196C75.6797 8.85091 75.8494 8.59769 76.1094 8.49093Z" fill="#051B52"></path><path fill-rule="evenodd" clip-rule="evenodd" d="M91.7008 8.43896C92.0835 8.43896 92.3938 8.74922 92.3938 9.13194V15.8207L95.3408 12.8737C95.6114 12.603 96.0502 12.603 96.3208 12.8737L99.2679 15.8207V9.13194C99.2679 8.74922 99.5781 8.43896 99.9609 8.43896C100.344 8.43896 100.654 8.74922 100.654 9.13194V17.4937C100.654 17.774 100.485 18.0267 100.226 18.1339C99.9671 18.2412 99.669 18.1819 99.4708 17.9837L95.8308 14.3437L92.1908 17.9837C91.9926 18.1819 91.6945 18.2412 91.4356 18.1339C91.1767 18.0267 91.0078 17.774 91.0078 17.4937V9.13194C91.0078 8.74922 91.3181 8.43896 91.7008 8.43896Z" fill="#051B52"></path><path fill-rule="evenodd" clip-rule="evenodd" d="M114.021 8.49576C114.275 8.60538 114.44 8.85543 114.44 9.13195V17.4937C114.44 17.8764 114.129 18.1867 113.747 18.1867C113.364 18.1867 113.054 17.8764 113.054 17.4937V15.0192H108.508L105.346 17.9981C105.067 18.2606 104.629 18.2475 104.366 17.9689C104.104 17.6903 104.117 17.2518 104.396 16.9893L113.272 8.62755C113.473 8.43794 113.768 8.38614 114.021 8.49576ZM109.979 13.6333H113.054V10.7368L109.979 13.6333Z" fill="#051B52"></path><path fill-rule="evenodd" clip-rule="evenodd" d="M119.311 9.13194C119.311 8.74922 119.621 8.43896 120.004 8.43896H124.513C126.135 8.43896 127.451 9.75409 127.451 11.3764C127.451 12.8436 126.375 14.0595 124.969 14.2786L127.587 17.0146C127.852 17.2911 127.842 17.7298 127.566 17.9944C127.289 18.259 126.85 18.2493 126.586 17.9728L123.085 14.3138H120.696V17.4937C120.696 17.8764 120.386 18.1867 120.004 18.1867C119.621 18.1867 119.311 17.8764 119.311 17.4937V9.13194ZM120.696 12.9278H124.513C125.37 12.9278 126.065 12.2332 126.065 11.3764C126.065 10.5195 125.37 9.82491 124.513 9.82491H120.696V12.9278Z" fill="#051B52"></path><path fill-rule="evenodd" clip-rule="evenodd" d="M132.322 9.13194C132.322 8.74922 132.633 8.43896 133.015 8.43896H139.769C140.152 8.43896 140.462 8.74922 140.462 9.13194C140.462 9.51466 140.152 9.82491 139.769 9.82491H133.708V12.3119H138.182C138.565 12.3119 138.875 12.6221 138.875 13.0048C138.875 13.3876 138.565 13.6978 138.182 13.6978H133.708V16.8007H139.769C140.152 16.8007 140.462 17.111 140.462 17.4937C140.462 17.8764 140.152 18.1867 139.769 18.1867H133.015C132.633 18.1867 132.322 17.8764 132.322 17.4937V9.13194Z" fill="#051B52"></path><path fill-rule="evenodd" clip-rule="evenodd" d="M13.5926 1.56942C7.10672 1.56942 1.84884 6.8273 1.84884 13.3132C1.84884 19.7991 7.10672 25.057 13.5926 25.057C20.0786 25.057 25.3364 19.7991 25.3364 13.3132C25.3364 6.8273 20.0786 1.56942 13.5926 1.56942ZM0.462891 13.3132C0.462891 6.06186 6.34128 0.183472 13.5926 0.183472C20.844 0.183472 26.7224 6.06186 26.7224 13.3132C26.7224 20.5646 20.844 26.443 13.5926 26.443C6.34128 26.443 0.462891 20.5646 0.462891 13.3132Z" fill="#051B52"></path><path fill-rule="evenodd" clip-rule="evenodd" d="M9.4707 7.45848C9.4707 7.07576 9.78096 6.7655 10.1637 6.7655H15.0424C16.5618 6.7655 17.7935 7.9972 17.7935 9.51658C17.7935 11.036 16.5618 12.2677 15.0425 12.2677H10.8567V17.0238L13.1421 14.7383C13.2721 14.6083 13.4483 14.5353 13.6321 14.5353C13.8159 14.5353 13.9922 14.6083 14.1221 14.7383L16.4076 17.0238V13.7021C16.4076 13.3194 16.7178 13.0091 17.1006 13.0091C17.4833 13.0091 17.7935 13.3194 17.7935 13.7021V18.6967C17.7935 18.977 17.6247 19.2297 17.3657 19.337C17.1068 19.4442 16.8087 19.3849 16.6105 19.1868L13.6321 16.2083L10.6537 19.1868C10.4555 19.3849 10.1574 19.4442 9.89849 19.337C9.63954 19.2297 9.4707 18.977 9.4707 18.6967V7.45848ZM10.8567 10.8817H15.0425C15.7964 10.8817 16.4076 10.2705 16.4076 9.51658C16.4076 8.76264 15.7964 8.15145 15.0424 8.15145H10.8567V10.8817Z" fill="#051B52"></path></svg>