<svg xmlns="http://www.w3.org/2000/svg" width="140" height="108" viewBox="0 0 140 108" fill="none"><path d="M139.999 46.447H89.0762V33.3036H139.999V46.447Z" fill="#E669A2"></path><path d="M133.385 46.4469H89.0762V13.574H133.385V46.4469Z" fill="#F3BE26"></path><path d="M115.079 46.4469H89.0762V0.4375H115.079V46.4469Z" fill="#EE9C34"></path><path d="M120.195 46.4473H89.0762V5.57178H120.195V46.4473Z" fill="#F3BC87"></path><path d="M89.0684 5.57935V46.4429H115.076V5.57935H89.0684Z" fill="#E3721C"></path><path d="M63.0039 46.447H89.0788V53.0194H63.0039V46.447Z" fill="#AD1B02"></path><path d="M89.0684 13.5664V46.4424H120.209V13.5664H89.0684Z" fill="#E88D14"></path><path d="M89.0684 13.5664V46.4424H115.076V13.5664H89.0684Z" fill="#D85604"></path><path d="M105.337 46.4467H89.0762V26.7158H105.337V46.4467Z" fill="#C14303"></path><path d="M89.0684 33.3127V46.4426H133.399V33.3127H89.0684Z" fill="#DB4E18"></path><path d="M89.0684 33.3127V46.4426H120.209V33.3127H89.0684Z" fill="#D1390D"></path><path d="M89.0684 33.3127V46.4426H115.076V33.3127H89.0684Z" fill="#C22303"></path><path d="M89.0684 33.3127V46.4426H105.353V33.3127H89.0684Z" fill="#AD1B02"></path><path d="M94.749 71.2018C90.3124 71.9972 87.9461 75.3774 87.9461 81.2432C87.9461 87.2083 91.1011 91.1851 95.7349 91.1851C98.0025 91.1851 99.9744 90.3897 104.115 88.3019C104.115 93.1735 104.115 93.1735 104.115 93.1735C99.087 95.5595 96.1293 96.156 92.1856 96.156C87.749 96.156 84.594 95.0624 82.1292 92.3781C79.5658 89.7932 78.1855 86.4129 78.1855 82.5356C78.1855 74.085 84.4954 68.2192 93.6645 68.2192C99.6786 68.2192 103.918 71.1024 103.918 75.1786C103.918 77.8629 101.946 79.7519 99.087 79.7519C97.6082 79.7519 96.4251 79.2548 94.749 78.36" fill="black"></path><path d="M72.5637 82.5356C76.606 77.4652 78.0849 75.3774 78.0849 72.8919C78.0849 70.4065 76.113 68.2192 73.3525 68.2192C71.775 68.2192 70.2961 69.114 69.606 69.9094C69.606 80.3484 69.606 80.3484 69.606 80.3484C63.0003 89.2961 63.0003 89.2961 63.0003 89.2961C63.0003 69.0146 63.0003 69.0146 63.0003 69.0146C56.6904 69.0146 56.6904 69.0146 56.6904 69.0146C46.2397 86.413 46.2397 86.413 46.2397 86.413C46.2397 69.0146 46.2397 69.0146 46.2397 69.0146C42.6904 69.0146 42.6904 69.0146 42.6904 69.0146C33.127 71.2018 33.127 71.2018 33.127 71.2018C33.127 73.6873 33.127 73.6873 33.127 73.6873C38.3523 74.1844 38.3523 74.1844 38.3523 74.1844C38.3523 95.7584 38.3523 95.7584 38.3523 95.7584C44.958 95.7584 44.958 95.7584 44.958 95.7584C55.0144 79.0559 55.0144 79.0559 55.0144 79.0559C55.0144 95.7584 55.0144 95.7584 55.0144 95.7584C62.4088 95.7584 62.4088 95.7584 62.4088 95.7584" fill="black"></path><path d="M13.1127 92.3786C13.9015 92.3786 14.0987 92.3786 14.5916 92.3786C19.9156 92.3786 22.8733 89.0978 22.8733 82.5361C22.8733 77.0681 20.5071 74.0855 16.0705 74.0855C15.4789 74.0855 14.5916 74.1849 13.1127 74.4832V92.3786ZM13.1127 104.11C17.4508 105.104 17.4508 105.104 17.4508 105.104C17.4508 107.59 17.4508 107.59 17.4508 107.59C0.394367 107.59 0.394369 107.59 0.394369 107.59C0.394369 105.104 0.394369 105.104 0.394369 105.104C4.33805 104.11 4.33805 104.11 4.33805 104.11C4.33805 74.0855 4.33805 74.0855 4.33805 74.0855C-5.3406e-07 74.0855 0 74.0855 0 74.0855C0 71.6 0 71.6 0 71.6C10.3522 68.4186 10.3522 68.4186 10.3522 68.4186C13.1127 68.4186 13.1127 68.4186 13.1127 68.4186C13.1127 71.9977 13.1127 71.9977 13.1127 71.9977C17.9437 69.0151 19.6198 68.518 22.1832 68.518C27.9015 68.518 32.2396 73.8866 32.2396 81.3431C32.2396 89.8931 26.4226 95.7589 17.5494 95.7589C16.5635 95.7589 14.8874 95.6594 13.1127 95.56" fill="black"></path></svg>