<svg xmlns="http://www.w3.org/2000/svg" width="141" height="108" viewBox="0 0 141 108" fill="none"><path d="M140.161 46.447H89.2383V33.3036H140.161V46.447Z" fill="#051B52"></path><path d="M133.547 46.4469H89.2383V13.574H133.547V46.4469Z" fill="#051B52"></path><path d="M115.241 46.4469H89.2383V0.4375H115.241V46.4469Z" fill="#051B52"></path><path d="M120.357 46.4473H89.2383V5.57178H120.357V46.4473Z" fill="#051B52"></path><path d="M89.2305 5.57935V46.4429H115.238V5.57935H89.2305Z" fill="#051B52"></path><path d="M63.166 46.447H89.2409V53.0194H63.166V46.447Z" fill="#051B52"></path><path d="M89.2305 13.5664V46.4424H120.371V13.5664H89.2305Z" fill="#051B52"></path><path d="M89.2305 13.5664V46.4424H115.238V13.5664H89.2305Z" fill="#051B52"></path><path d="M105.499 46.4467H89.2383V26.7158H105.499V46.4467Z" fill="#051B52"></path><path d="M89.2305 33.3127V46.4426H133.562V33.3127H89.2305Z" fill="#051B52"></path><path d="M89.2305 33.3127V46.4426H120.371V33.3127H89.2305Z" fill="#051B52"></path><path d="M89.2305 33.3127V46.4426H115.238V33.3127H89.2305Z" fill="#051B52"></path><path d="M89.2305 33.3127V46.4426H105.515V33.3127H89.2305Z" fill="#051B52"></path><path d="M94.9111 71.2018C90.4745 71.9972 88.1083 75.3774 88.1083 81.2432C88.1083 87.2083 91.2632 91.1851 95.897 91.1851C98.1646 91.1851 100.136 90.3897 104.277 88.3019C104.277 93.1735 104.277 93.1735 104.277 93.1735C99.2491 95.5595 96.2914 96.156 92.3477 96.156C87.9111 96.156 84.7561 95.0624 82.2913 92.3781C79.7279 89.7932 78.3477 86.4129 78.3477 82.5356C78.3477 74.085 84.6575 68.2192 93.8266 68.2192C99.8407 68.2192 104.08 71.1024 104.08 75.1786C104.08 77.8629 102.108 79.7519 99.2492 79.7519C97.7703 79.7519 96.5872 79.2548 94.9111 78.36" fill="#051B52"></path><path d="M72.7258 82.5356C76.7681 77.4652 78.247 75.3774 78.247 72.8919C78.247 70.4065 76.2752 68.2192 73.5146 68.2192C71.9371 68.2192 70.4582 69.114 69.7681 69.9094C69.7681 80.3484 69.7681 80.3484 69.7681 80.3484C63.1624 89.2961 63.1624 89.2961 63.1624 89.2961C63.1624 69.0146 63.1624 69.0146 63.1624 69.0146C56.8525 69.0146 56.8525 69.0146 56.8525 69.0146C46.4018 86.413 46.4018 86.413 46.4018 86.413C46.4018 69.0146 46.4018 69.0146 46.4018 69.0146C42.8525 69.0146 42.8525 69.0146 42.8525 69.0146C33.2891 71.2018 33.2891 71.2018 33.2891 71.2018C33.2891 73.6873 33.2891 73.6873 33.2891 73.6873C38.5144 74.1844 38.5144 74.1844 38.5144 74.1844C38.5144 95.7584 38.5144 95.7584 38.5144 95.7584C45.1201 95.7584 45.1201 95.7584 45.1201 95.7584C55.1765 79.0559 55.1765 79.0559 55.1765 79.0559C55.1765 95.7584 55.1765 95.7584 55.1765 95.7584C62.5709 95.7584 62.5709 95.7584 62.5709 95.7584" fill="#051B52"></path><path d="M13.2748 92.3786C14.0636 92.3786 14.2608 92.3786 14.7537 92.3786C20.0777 92.3786 23.0354 89.0978 23.0354 82.5361C23.0354 77.0681 20.6692 74.0855 16.2326 74.0855C15.641 74.0855 14.7537 74.1849 13.2748 74.4832V92.3786ZM13.2748 104.11C17.6129 105.104 17.6129 105.104 17.6129 105.104C17.6129 107.59 17.6129 107.59 17.6129 107.59C0.556476 107.59 0.556478 107.59 0.556478 107.59C0.556478 105.104 0.556478 105.104 0.556478 105.104C4.50016 104.11 4.50016 104.11 4.50016 104.11C4.50016 74.0855 4.50016 74.0855 4.50016 74.0855C0.162109 74.0855 0.162109 74.0855 0.162109 74.0855C0.162109 71.6 0.162109 71.6 0.162109 71.6C10.5143 68.4186 10.5143 68.4186 10.5143 68.4186C13.2748 68.4186 13.2748 68.4186 13.2748 68.4186C13.2748 71.9977 13.2748 71.9977 13.2748 71.9977C18.1058 69.0151 19.7819 68.518 22.3453 68.518C28.0636 68.518 32.4017 73.8866 32.4017 81.3431C32.4017 89.8931 26.5848 95.7589 17.7115 95.7589C16.7256 95.7589 15.0495 95.6594 13.2748 95.56" fill="#051B52"></path></svg>