<svg xmlns="http://www.w3.org/2000/svg" width="141" height="73" viewBox="0 0 141 73" fill="none"><path d="M69.9487 72.0627C47.0247 72.0627 24.1025 72.0627 1.18225 72.0627C0.526467 72.0627 0.326879 71.9144 0.361094 71.2472C0.423822 70.1067 0.389607 69.0119 0.361094 67.8942C0.361094 67.5121 0.469442 67.3239 0.862914 67.3924C1.05282 67.404 1.24326 67.404 1.43316 67.3924H138.544C138.681 67.4022 138.818 67.4022 138.955 67.3924C139.428 67.3239 139.582 67.5064 139.571 67.9626C139.536 69.1487 139.571 70.3349 139.571 71.521C139.571 71.9087 139.462 72.0912 139.069 72.0228C138.909 72.0129 138.749 72.0129 138.59 72.0228L69.9487 72.0627Z" fill="#051B52"></path><path d="M0.224609 61.8374C0.224609 61.5409 0.253122 61.2672 0.253122 60.9536C0.253122 52.0691 0.253122 43.1846 0.253122 34.3001C0.412792 34.0435 0.663702 34.0549 0.920314 34.0549C3.42941 34.0549 5.93852 34.0549 8.44191 34.0549C8.65612 34.0322 8.87072 34.094 9.04006 34.2271C9.20939 34.3602 9.3201 34.5542 9.34861 34.7677C10.8256 39.5578 12.7245 44.2053 14.0247 49.0581C14.076 49.252 14.0931 49.5086 14.3668 49.4915C14.6405 49.4744 14.6405 49.2121 14.6861 49.0239C15.8266 44.097 17.8738 39.4779 19.3565 34.665C19.3953 34.4743 19.5054 34.3055 19.6643 34.1932C19.8233 34.0809 20.0191 34.0334 20.2119 34.0606C22.721 34.0606 25.2282 34.0606 27.7335 34.0606C28.3037 34.0606 28.4976 34.283 28.4919 34.8361C28.4919 43.6826 28.4919 52.5291 28.4919 61.3755C28.4919 61.9458 28.2866 62.1568 27.7335 62.1511C26.114 62.1511 24.4945 62.1511 22.8749 62.1511C22.3389 62.1511 22.088 61.9743 22.0937 61.3983C22.1507 56.2661 21.9682 51.1852 22.2933 46.0814C22.3503 45.2204 22.4644 44.3707 22.5385 43.4925C22.5385 43.2758 22.6697 42.9736 22.3845 42.8937C22.0994 42.8139 22.0538 43.1332 21.9739 43.3328C20.343 47.4158 18.8262 51.5444 17.4861 55.7358C17.161 56.7565 17.1553 56.7565 16.0662 56.7565C14.8116 56.7565 13.5571 56.7223 12.3025 56.7565C12.1812 56.776 12.0572 56.7715 11.9376 56.7431C11.8181 56.7146 11.7053 56.6629 11.6057 56.5909C11.5062 56.5189 11.4218 56.428 11.3574 56.3233C11.293 56.2186 11.2499 56.1023 11.2304 55.981C9.86754 51.801 8.37918 47.6667 6.76538 43.5723C6.65703 43.2986 6.63992 42.7968 6.24645 42.888C5.85298 42.9793 6.08108 43.4583 6.11529 43.7263C6.64563 48.2883 6.60001 52.8503 6.5886 57.4123C6.5886 58.7353 6.5886 60.0583 6.5886 61.404C6.5886 61.9743 6.39472 62.191 5.83017 62.1853C4.18785 62.1853 2.54553 62.1853 0.903207 62.1853C0.652297 62.134 0.367172 62.1568 0.224609 61.8374Z" fill="#051B52"></path><path d="M86.7951 15.0707C86.7951 19.4046 86.7951 23.7385 86.7951 28.0724C86.7951 28.962 86.7609 28.9962 85.8713 28.9962H81.3549C80.4425 28.9962 80.414 28.962 80.414 28.0154C80.414 24.7079 80.414 21.4005 80.414 18.093C80.414 17.5228 80.2657 17.3688 79.6955 17.3745C76.7302 17.4049 73.7649 17.4049 70.7996 17.3745C70.2293 17.3745 70.1153 17.5228 70.121 18.0588C70.121 21.3891 70.121 24.7193 70.121 28.0496C70.121 28.9506 70.0754 28.9962 69.2086 28.9962C67.6347 28.9962 66.0608 28.9962 64.4869 28.9962C63.9167 28.9962 63.6772 28.8023 63.6772 28.2036C63.6772 19.3761 63.6772 10.5486 63.6772 1.72116C63.6772 1.15091 63.8825 0.905702 64.4755 0.917107C66.095 0.943719 67.7145 0.943719 69.3341 0.917107C69.9385 0.917107 70.1267 1.16231 70.1267 1.73827C70.1267 4.86324 70.1267 8.01102 70.1267 11.1132C70.1267 11.6093 70.2351 11.769 70.7597 11.7633C73.7478 11.7367 76.7359 11.7367 79.724 11.7633C80.2486 11.7633 80.4197 11.6492 80.4197 11.0904C80.4197 8.01102 80.4197 4.93167 80.4197 1.85232C80.4197 0.979834 80.4767 0.928512 81.3549 0.928512C82.8832 0.928512 84.4115 0.928512 85.9169 0.928512C86.567 0.928512 86.7951 1.1338 86.7894 1.80099C86.7951 6.22043 86.7951 10.6456 86.7951 15.0707Z" fill="#051B52"></path><path d="M91.9272 14.957C91.9272 10.6269 91.9272 6.2949 91.9272 1.961C91.9272 0.98587 91.9785 0.934548 92.9138 0.934548H111.11C111.989 0.934548 112.097 1.06571 111.875 1.88687C111.521 3.18133 111.133 4.4701 110.814 5.77597C110.66 6.40895 110.335 6.59143 109.702 6.59143C106.166 6.59143 102.637 6.59143 99.101 6.59143C98.5307 6.59143 98.3482 6.70548 98.3711 7.29284C98.4167 8.59301 98.4053 9.89318 98.3711 11.1933C98.3711 11.6895 98.5307 11.7978 98.9926 11.7921C101.844 11.7921 104.741 11.7921 107.609 11.7921C108.522 11.7921 108.596 11.8605 108.596 12.7558C108.596 14.0332 108.596 15.3106 108.596 16.5879C108.596 17.2209 108.356 17.4319 107.752 17.4262C104.9 17.4262 102.004 17.4262 99.1352 17.4262C98.4851 17.4262 98.3482 17.6201 98.3596 18.2302C98.3996 19.7585 98.3939 21.2868 98.3596 22.7922C98.3596 23.3055 98.4851 23.4423 99.004 23.4423C102.95 23.4423 106.891 23.4423 110.837 23.4423C111.766 23.4423 111.846 23.5279 111.852 24.4574C111.852 25.7119 111.852 26.9665 111.852 28.221C111.852 28.8996 111.561 29.065 110.934 29.065C104.889 29.065 98.8501 29.065 92.8054 29.065C91.9843 29.065 91.9101 28.9909 91.9101 28.164C91.9215 23.7388 91.9272 19.3365 91.9272 14.957Z" fill="#051B52"></path><path d="M37.9583 14.9283C37.9096 12.5198 38.3479 10.1263 39.2471 7.89138C41.2544 3.1583 44.9496 0.820275 49.9792 0.478125C52.8365 0.33097 55.6928 0.787587 58.3619 1.81821C58.8694 2.0064 58.972 2.26871 58.8124 2.75342C58.3733 4.0707 57.9399 5.39368 57.5464 6.74517C57.3696 7.34964 57.0617 7.4922 56.4915 7.27551C54.7457 6.59701 52.89 6.24522 51.0171 6.23765C48.297 6.23765 46.3581 7.4808 45.3659 9.98419C44.0842 13.151 44.0699 16.6895 45.326 19.8666C46.3467 22.5525 48.4452 23.7899 51.325 23.7101C53.0324 23.596 54.7155 23.2447 56.3261 22.6666C57.21 22.3928 57.2328 22.4099 57.5578 23.2881C58.014 24.5313 58.4645 25.7687 58.9264 27.0119C59.0747 27.4053 59.0633 27.6962 58.5843 27.8729C55.9123 28.9528 53.0487 29.4786 50.1674 29.4183C44.06 29.1332 39.7888 25.552 38.4602 19.5302C38.2882 18.7508 38.1587 17.9627 38.0724 17.1693C37.9925 16.4451 37.9925 15.681 37.9583 14.9283Z" fill="#051B52"></path><path d="M67.0926 58.4954C67.3777 54.4409 66.2087 50.7514 64.3098 47.2329C62.12 43.1841 59.9702 39.1126 57.8032 35.0524C57.347 34.197 57.4326 34.0544 58.4305 34.0544C60.1412 34.0544 61.852 34.0544 63.5627 34.0544C63.7768 34.0368 63.9909 34.0868 64.175 34.1973C64.3592 34.3077 64.504 34.4732 64.5892 34.6703C66.5109 38.2173 68.5809 41.6901 69.9039 45.5051C69.9781 45.7218 70.0465 45.967 70.3373 45.9556C70.6281 45.9442 70.6452 45.7104 70.7137 45.5222C72.0367 41.6844 74.1352 38.2173 75.9999 34.6532C76.0844 34.4556 76.2291 34.2896 76.4134 34.179C76.5977 34.0684 76.8122 34.0188 77.0263 34.0373C78.7827 34.0373 80.5391 34.0373 82.2955 34.0373C83.128 34.0373 83.2193 34.2084 82.8144 34.9725C80.7273 38.8959 78.6915 42.8477 76.5416 46.7368C74.3173 50.5684 73.2627 54.967 73.5079 59.3907C73.5478 60.0521 73.5079 60.7136 73.5079 61.3751C73.5079 61.8941 73.314 62.1279 72.7894 62.1222C71.1471 62.1222 69.5047 62.1222 67.8624 62.1222C67.2922 62.1222 67.0698 61.9055 67.0812 61.3523C67.104 60.4114 67.0926 59.4534 67.0926 58.4954Z" fill="#051B52"></path><path d="M118.101 0.934214C118.99 0.934214 119.88 0.934214 120.77 0.934214C120.961 0.914802 121.154 0.956116 121.321 1.05231C121.488 1.14851 121.62 1.29471 121.699 1.47025C123.621 5.0172 125.691 8.48432 127.031 12.305C127.111 12.5331 127.156 12.841 127.481 12.8296C127.806 12.8182 127.835 12.5046 127.915 12.2594C129.255 8.40449 131.336 4.92026 133.258 1.33909C133.323 1.21085 133.424 1.10429 133.549 1.03241C133.673 0.960519 133.816 0.926403 133.959 0.934214C135.853 0.934214 137.746 0.934214 139.662 0.934214C140.284 0.934214 140.363 1.15091 140.033 1.77818C137.934 5.72431 135.824 9.65904 133.76 13.6109C132.471 16.0572 131.302 18.5549 130.909 21.3378C130.697 23.5398 130.624 25.7529 130.692 27.9641C130.692 28.9791 130.692 28.9905 129.654 28.9905C128.149 28.9905 126.643 28.9905 125.138 28.9905C124.465 28.9905 124.277 28.7453 124.277 28.1066C124.277 25.7857 124.402 23.4534 124.054 21.1382C123.601 18.6426 122.724 16.2432 121.46 14.0443C119.298 9.98979 117.103 5.93531 114.936 1.87513C114.508 1.07678 114.594 0.939917 115.506 0.934214H118.101Z" fill="#051B52"></path><path d="M33.6532 15.008C33.6532 19.3381 33.6532 23.6701 33.6532 28.004C33.6532 28.9734 33.6532 28.9962 32.6439 28.9962C31.0928 28.9962 29.5417 28.9962 27.9907 28.9962C27.4204 28.9962 27.1923 28.7795 27.1923 28.1922C27.1923 19.3685 27.1923 10.5448 27.1923 1.72116C27.1923 1.15091 27.3976 0.905702 27.9964 0.917107C29.5931 0.917107 31.1898 0.945619 32.7865 0.917107C33.448 0.917107 33.6646 1.15091 33.6646 1.79529C33.6418 6.18051 33.6532 10.6057 33.6532 15.008Z" fill="#051B52"></path><path d="M23.1035 28.0666C22.3508 26.2304 21.5752 24.4056 20.8225 22.5694C19.9671 20.4708 18.935 18.5149 16.9163 17.2774C16.5684 17.0664 16.6369 16.8554 16.9619 16.7072C17.1045 16.6331 17.2527 16.576 17.3953 16.5019C20.4005 14.8881 21.8946 12.3847 21.7178 8.96319C21.541 5.54169 19.9614 3.15234 16.8136 1.82936C15.3511 1.23381 13.7851 0.933418 12.206 0.945474C8.46517 0.916961 4.72433 0.934069 0.98919 0.934069C0.71547 0.934069 0.430345 0.888449 0.253567 1.17357C0.253567 10.1493 0.253567 19.125 0.253567 28.1008C0.253567 28.3061 0.253567 28.5114 0.253567 28.7167C0.41894 29.0702 0.743982 28.9904 1.02911 28.9961H5.51698C6.60045 28.9961 6.60045 28.9961 6.60045 27.8556C6.60045 25.1184 6.60045 22.3812 6.60045 19.644C6.60045 19.376 6.475 19.0338 6.97682 19.0224C10.5808 18.9312 12.6109 19.6326 14.2019 23.0712C14.4015 23.5046 14.5954 23.9437 14.7721 24.3885C15.3082 25.6715 15.8613 26.9489 16.3517 28.249C16.414 28.4929 16.5662 28.7042 16.7777 28.8406C16.9892 28.977 17.2444 29.0285 17.4922 28.9847C19.1574 28.9505 20.8225 28.9847 22.4876 28.9847C23.3088 28.9904 23.4171 28.8364 23.1035 28.0666ZM14.9432 11.592C14.7534 12.0082 14.4662 12.3727 14.1059 12.6545C13.7457 12.9364 13.3228 13.1275 12.8732 13.2116C11.7995 13.4213 10.7032 13.4923 9.61137 13.4225C8.81302 13.4225 8.01467 13.3883 7.22202 13.4225C6.68599 13.4511 6.56624 13.2572 6.58334 12.7611C6.61756 11.8315 6.58334 10.8963 6.58334 9.96113C6.58334 9.02592 6.58334 8.05079 6.58334 7.10988C6.58334 6.75632 6.63467 6.56814 7.05665 6.57384C8.67046 6.57384 10.29 6.53963 11.9038 6.60235C15.1599 6.75062 15.713 9.71022 14.9432 11.592Z" fill="#051B52"></path><path d="M59.3772 61.1982C58.6245 59.1454 57.8546 57.0981 57.0962 55.0395C54.6441 48.2935 51.9297 41.6444 50.1848 34.6588C50.1526 34.4666 50.0459 34.2948 49.888 34.1806C49.73 34.0664 49.5334 34.019 49.3408 34.0486C48.2003 34.0486 47.0142 34.0486 45.8509 34.0486C44.6876 34.0486 43.6155 34.0772 42.4978 34.0486C42.3754 34.0277 42.2499 34.0324 42.1293 34.0625C42.0088 34.0927 41.8959 34.1476 41.7977 34.2237C41.6996 34.2999 41.6183 34.3957 41.5592 34.5049C41.5001 34.6142 41.4643 34.7346 41.4542 34.8584C40.5644 38.3706 39.4831 41.8315 38.2152 45.2255C36.2707 50.5574 34.2919 55.8721 32.3302 61.1925C32.0394 61.9795 32.1421 62.1278 32.9803 62.1335C34.6911 62.1335 36.3562 62.1335 38.0442 62.1335C38.2492 62.16 38.4567 62.1093 38.6264 61.9912C38.7961 61.8732 38.9158 61.6962 38.9623 61.4948C39.2531 60.6052 39.6009 59.7384 39.8918 58.8488C39.9195 58.7077 39.9996 58.5822 40.1159 58.4977C40.2322 58.413 40.3762 58.3755 40.519 58.3926C44.0774 58.3926 47.6339 58.3926 51.1884 58.3926C51.3313 58.3738 51.4761 58.4098 51.5935 58.4934C51.7109 58.577 51.7924 58.7019 51.8214 58.8431C52.1065 59.7099 52.4487 60.5539 52.7224 61.4263C52.768 61.6496 52.896 61.8475 53.0809 61.9806C53.2659 62.1138 53.4941 62.1724 53.7203 62.1449C55.3855 62.1449 57.0506 62.1449 58.7157 62.1449C59.5597 62.1278 59.6623 61.9795 59.3772 61.1982ZM42.11 52.77C42.6404 51.2474 43.1593 49.7704 43.6668 48.2878C44.3895 46.2484 44.995 44.1692 45.4802 42.0607C45.5258 41.8497 45.5372 41.5645 45.8281 41.536C46.1189 41.5075 46.1816 41.7641 46.2272 41.9922C46.9401 45.4137 48.1889 48.7212 49.3579 52.0286C49.4377 52.2624 49.5119 52.4962 49.6031 52.7757L42.11 52.77Z" fill="#051B52"></path><path d="M115.564 61.9457C111.219 62.2821 107.757 58.8606 107.198 55.1027C106.503 50.4438 109.177 46.2695 113.471 45.1632C114.609 44.9129 115.781 44.857 116.938 44.9979C118.205 45.091 119.465 45.2566 120.713 45.494C121.284 45.6137 121.506 45.8589 121.506 46.4463C121.506 47.3302 121.58 48.2198 121.626 49.1037C121.64 49.1771 121.638 49.2527 121.621 49.3254C121.604 49.3982 121.571 49.4666 121.526 49.5262C121.481 49.5858 121.424 49.6353 121.359 49.6716C121.293 49.7078 121.221 49.73 121.147 49.7366C120.827 49.7766 120.656 49.5998 120.542 49.3033C119.675 47.1078 117.919 46.2752 115.701 46.2068C113.483 46.1384 111.943 47.2903 111.139 49.2462C109.782 52.4681 109.936 55.6501 111.931 58.604C113.642 61.1074 117.68 61.5066 119.693 59.4366C120.159 58.9019 120.501 58.2711 120.696 57.589C120.862 57.1157 121.124 56.8876 121.603 57.0187C122.082 57.1499 121.934 57.589 121.865 57.9254C121.723 58.6154 121.512 59.2883 121.398 59.984C121.358 60.2851 121.228 60.567 121.024 60.7922C120.82 61.0173 120.553 61.175 120.257 61.2443C118.746 61.7511 117.157 61.9885 115.564 61.9457Z" fill="#051B52"></path><path d="M137.94 48.5391C136.952 47.0167 135.467 45.8843 133.738 45.3351C132.008 44.786 130.142 44.8542 128.457 45.5282C126.893 46.1862 125.565 47.2997 124.643 48.7236C123.722 50.1476 123.25 51.816 123.29 53.5117C123.213 55.4984 123.859 57.4458 125.109 58.9918C127.39 61.997 131.787 62.9835 134.98 61.2214C136.051 60.6245 136.986 59.8103 137.724 58.8311C138.462 57.8518 138.987 56.7291 139.266 55.535C139.545 54.3409 139.571 53.1017 139.342 51.8969C139.114 50.6922 138.636 49.5484 137.94 48.5391ZM135.265 58.4158C133.828 61.4952 130.133 61.5066 128.257 58.9861C127.231 57.5543 126.637 55.8582 126.546 54.099C126.359 52.3332 126.612 50.5485 127.282 48.904C127.563 48.1061 128.087 47.4165 128.781 46.9325C129.474 46.4485 130.303 46.1947 131.148 46.2068C132.922 46.2068 134.199 47.3473 135.14 48.9383C135.814 50.2572 136.18 51.7116 136.212 53.1923C136.36 54.9864 136.034 56.7878 135.265 58.4158Z" fill="#051B52"></path><path d="M101.171 60.8507C100.831 60.8941 100.485 60.8568 100.162 60.7419C99.8392 60.6269 99.5478 60.4376 99.3116 60.1892C98.7413 59.5619 98.1711 58.9461 97.6008 58.3416C97.4917 58.2624 97.4168 58.1447 97.3914 58.0123C97.3659 57.8799 97.3919 57.7427 97.464 57.6288C97.809 56.9163 98.0565 56.1606 98.1996 55.382C98.4733 54.0248 99.1234 53.101 100.612 53.101C101.022 53.101 101.085 52.89 101.085 52.5307C101.085 52.1715 100.857 52.1031 100.555 52.1088C99.5055 52.1088 98.4562 52.1088 97.407 52.1088C96.9394 52.1088 96.8367 52.2741 96.8367 52.679C96.8922 53.8622 96.7886 55.0475 96.5288 56.2032C96.4832 56.4084 96.5288 56.7278 96.3064 56.8076C96.084 56.8875 95.9357 56.5966 95.7875 56.4427C94.7097 55.3022 93.6604 54.1617 92.5655 53.0953C92.1664 52.6961 92.1835 52.525 92.7081 52.3141C93.6858 51.9433 94.5684 51.3588 95.2913 50.6033C96.62 49.1378 96.1752 46.4576 94.3903 45.6307C93.5719 45.2494 92.6785 45.0561 91.7756 45.065C90.8728 45.0739 89.9833 45.2847 89.1725 45.682C88.6812 45.9052 88.2647 46.2655 87.9734 46.7198C87.682 47.174 87.5281 47.7028 87.5302 48.2425C87.467 49.5779 87.9273 50.8852 88.8133 51.8864C89.241 52.411 89.1212 52.5878 88.5681 52.8387C86.4924 53.791 85.4203 55.3877 85.6142 57.72C85.6188 58.3886 85.7807 59.0467 86.0868 59.6411C86.3929 60.2355 86.8347 60.7495 87.3763 61.1415C88.6483 61.9354 90.1459 62.2895 91.6387 62.1494C93.1316 62.0092 94.5371 61.3827 95.6392 60.366C96.1068 59.8984 96.3406 59.9839 96.677 60.4458C97.4583 61.5236 98.3479 61.8201 99.8704 61.9741C100.281 61.9741 100.692 61.9741 101.102 61.9741C101.513 61.9741 101.786 61.9741 101.781 61.4038C101.775 60.8336 101.541 60.8336 101.171 60.8507ZM91.8584 46.2181C93.2213 46.2181 94.0026 47.0221 94.0026 48.4649C94.071 50.1756 92.7195 51.0823 91.5733 51.5898C91.515 51.6264 91.4451 51.6396 91.3774 51.627C91.3098 51.6143 91.2494 51.5766 91.2083 51.5214C90.4841 50.6147 89.72 49.7422 89.7485 48.4649C89.777 47.0792 90.5526 46.2295 91.8584 46.2181ZM94.9834 59.2768C94.3197 59.9865 93.4548 60.4761 92.5048 60.68C91.5547 60.8838 90.5651 60.7922 89.6687 60.4173C88.3457 59.8014 87.9579 58.6438 87.9579 57.1384C87.9232 56.4483 88.0775 55.7618 88.4041 55.1528C88.7307 54.5439 89.2172 54.0356 89.8112 53.6827C90.0849 53.4888 90.2617 53.4717 90.5012 53.7283C91.9915 55.3592 93.4893 56.9806 94.9948 58.5925C95.2457 58.8605 95.2229 59.0202 94.9891 59.2768H94.9834Z" fill="#051B52"></path></svg>