<svg xmlns="http://www.w3.org/2000/svg" width="141" height="21" viewBox="0 0 141 21" fill="none"><path d="M81.7842 17.3773C81.7842 18.1731 81.1391 18.8182 80.3433 18.8182C79.5475 18.8182 78.9023 18.1731 78.9023 17.3773C78.9023 16.5815 79.5475 15.9363 80.3433 15.9363C81.1391 15.9363 81.7842 16.5815 81.7842 17.3773Z" fill="#051B52"></path><path d="M6.078 16.8397C6.078 17.7785 5.31697 18.5395 4.3782 18.5395C3.43942 18.5395 2.67839 17.7785 2.67839 16.8397C2.67839 15.9009 3.43942 15.1399 4.3782 15.1399C5.31697 15.1399 6.078 15.9009 6.078 16.8397Z" fill="#051B52"></path><path d="M18.0917 2.50793C18.0917 3.44671 17.3307 4.20774 16.3919 4.20774C15.4531 4.20774 14.6921 3.44671 14.6921 2.50793C14.6921 1.56916 15.4531 0.80813 16.3919 0.80813C17.3307 0.80813 18.0917 1.56916 18.0917 2.50793Z" fill="#051B52"></path><path fill-rule="evenodd" clip-rule="evenodd" d="M10.5673 1.46917C5.71694 1.46917 1.78496 5.40115 1.78496 10.2515C1.78496 11.8522 2.21262 13.3511 2.95948 14.6422L1.81508 15.3042C0.954961 13.8173 0.462891 12.0908 0.462891 10.2515C0.462891 4.67099 4.98678 0.147095 10.5673 0.147095C11.7723 0.147095 12.9294 0.358316 14.0028 0.746317L13.5533 1.98964C12.622 1.65299 11.6169 1.46917 10.5673 1.46917ZM19.3496 10.2515C19.3496 8.50363 18.8397 6.87689 17.9607 5.50951L19.0729 4.79464C20.0848 6.36885 20.6717 8.24264 20.6717 10.2515C20.6717 15.832 16.1478 20.3559 10.5673 20.3559C9.13145 20.3559 7.76391 20.056 6.52528 19.5148L7.0546 18.3033C8.12945 18.773 9.31704 19.0338 10.5673 19.0338C15.4176 19.0338 19.3496 15.1018 19.3496 10.2515Z" fill="#051B52"></path><path fill-rule="evenodd" clip-rule="evenodd" d="M23.1484 5.50706C23.1484 3.76511 24.5606 2.35298 26.3025 2.35298H30.4189C32.1608 2.35298 33.573 3.76511 33.573 5.50706V7.32041H31.7976V5.50706C31.7976 4.7456 31.1803 4.12833 30.4189 4.12833H26.3025C25.5411 4.12833 24.9238 4.74561 24.9238 5.50706V7.2451C24.9238 8.6324 26.0484 9.75703 27.4357 9.75703H29.2857C31.6535 9.75703 33.573 11.6765 33.573 14.0443V15.7824C33.573 17.5243 32.1608 18.9364 30.4189 18.9364H26.3025C24.5606 18.9364 23.1484 17.5243 23.1484 15.7824V13.969H24.9238V15.7824C24.9238 16.5438 25.5411 17.1611 26.3025 17.1611H30.4189C31.1803 17.1611 31.7976 16.5438 31.7976 15.7824V14.0443C31.7976 12.657 30.673 11.5324 29.2857 11.5324H27.4357C25.0679 11.5324 23.1484 9.6129 23.1484 7.2451V5.50706Z" fill="#051B52"></path><path fill-rule="evenodd" clip-rule="evenodd" d="M50.3874 5.50706C50.3874 3.76511 51.7995 2.35298 53.5414 2.35298H57.6578C59.3998 2.35298 60.8119 3.76511 60.8119 5.50706V7.32041H59.0365V5.50706C59.0365 4.7456 58.4193 4.12833 57.6578 4.12833H53.5414C52.78 4.12833 52.1627 4.74561 52.1627 5.50706V15.7824C52.1627 16.5438 52.78 17.1611 53.5414 17.1611H57.6578C58.4193 17.1611 59.0365 16.5438 59.0365 15.7824V13.5035H60.8119V15.7824C60.8119 17.5243 59.3998 18.9364 57.6578 18.9364H53.5414C51.7995 18.9364 50.3874 17.5243 50.3874 15.7824V5.50706Z" fill="#051B52"></path><path fill-rule="evenodd" clip-rule="evenodd" d="M66.4082 2.30465V15.7826C66.4082 16.5441 67.0255 17.1613 67.7869 17.1613H71.9033C72.6647 17.1613 73.282 16.5441 73.282 15.7826V2.30465H75.0574V15.7826C75.0574 17.5246 73.6452 18.9367 71.9033 18.9367H67.7869C66.0449 18.9367 64.6328 17.5246 64.6328 15.7826V2.30465H66.4082Z" fill="#051B52"></path><path fill-rule="evenodd" clip-rule="evenodd" d="M96.0581 2.30465V18.9124H94.2828V2.30465H96.0581Z" fill="#051B52"></path><path fill-rule="evenodd" clip-rule="evenodd" d="M113.319 2.30465V18.9124H111.543V2.30465H113.319Z" fill="#051B52"></path><path fill-rule="evenodd" clip-rule="evenodd" d="M98.6643 2.20837H108.793V3.98373H104.626V18.9126H102.85V3.98373H98.6643V2.20837Z" fill="#051B52"></path><path fill-rule="evenodd" clip-rule="evenodd" d="M37.3939 2.35298H46.1223V4.12833H39.1692V9.75703H45.3159V11.5324H39.1692V17.1611H46.1223V18.9364H37.3939V2.35298Z" fill="#051B52"></path><path fill-rule="evenodd" clip-rule="evenodd" d="M131.734 2.35298H140.462V4.12833H133.509V9.75703H139.656V11.5324H133.509V17.1611H140.462V18.9364H131.734V2.35298Z" fill="#051B52"></path><path fill-rule="evenodd" clip-rule="evenodd" d="M89.9993 5.50706C89.9993 3.76511 88.5871 2.35298 86.8452 2.35298H79.5747V14.4136H81.3501V12.2879H85.4941L88.4075 18.9124H90.347L87.3811 12.1685C88.8888 11.7659 89.9993 10.3906 89.9993 8.75603V5.50706ZM86.4674 10.5125C87.4375 10.5125 88.2239 9.7261 88.2239 8.75603V5.50706C88.2239 4.7456 87.6066 4.12833 86.8452 4.12833H81.3501V10.5125H86.4674Z" fill="#051B52"></path><path d="M118.096 4.12833V2.35298H128.135V3.69547L119.699 17.1611H127.992V18.9364H117.513V17.3072L125.769 4.12833H118.096Z" fill="#051B52"></path><path fill-rule="evenodd" clip-rule="evenodd" d="M10.9457 16.673C14.7009 16.673 17.7449 13.629 17.7449 9.87374C17.7449 6.11853 14.7009 3.07452 10.9457 3.07452C7.19049 3.07452 4.14648 6.11853 4.14648 9.87374C4.14648 13.629 7.19049 16.673 10.9457 16.673ZM9.9844 13.0981C10.247 13.1546 10.5149 13.1826 10.7886 13.1826C11.2585 13.1826 11.6606 13.1011 11.9948 12.9384C12.329 12.7691 12.5843 12.5341 12.7613 12.2331C12.9384 11.9262 13.0269 11.5628 13.0269 11.1427C13.0269 10.8797 12.9886 10.6477 12.9126 10.4474C12.8373 10.2404 12.7185 10.0619 12.5562 9.91137C12.3998 9.75496 12.1969 9.617 11.9491 9.49785C11.7012 9.3787 11.4083 9.27542 11.0689 9.18762C10.7804 9.1061 10.5532 9.0279 10.3865 8.95265C10.2242 8.87112 10.1083 8.78038 10.0375 8.68004C9.96669 8.57971 9.93128 8.45761 9.93128 8.31338C9.93128 8.05036 10.022 7.84342 10.2043 7.69292C10.3865 7.53651 10.6314 7.45794 10.9398 7.45794C11.2135 7.45794 11.4813 7.51438 11.7447 7.62726C12.0073 7.74013 12.2604 7.9124 12.5031 8.14443L12.8823 7.09164C12.7407 6.9286 12.5666 6.79063 12.3593 6.67776C12.1519 6.56525 11.924 6.47745 11.6761 6.41474C11.4334 6.35203 11.1833 6.32068 10.925 6.32068C10.7229 6.32068 10.5326 6.3406 10.354 6.38044C10.1526 6.42581 9.96595 6.49664 9.79406 6.59328C9.47534 6.77514 9.22524 7.02561 9.04301 7.34543C8.86595 7.65861 8.77742 8.01274 8.77742 8.40744C8.77742 8.68336 8.81283 8.92756 8.88366 9.14078C8.93604 9.29386 9.01129 9.43367 9.10794 9.55946C9.14187 9.60335 9.17876 9.64541 9.21786 9.68598C9.37427 9.84239 9.57715 9.98035 9.82504 10.0995C10.0729 10.2186 10.371 10.3219 10.7199 10.4097C10.9981 10.485 11.2209 10.5602 11.3876 10.6351C11.5551 10.7104 11.6761 10.7982 11.7521 10.8985C11.7963 10.9568 11.8273 11.0228 11.8458 11.0958C11.8591 11.1486 11.8657 11.205 11.8657 11.2652C11.8657 11.5094 11.772 11.7004 11.5853 11.8384C11.4031 11.9764 11.1397 12.0453 10.7959 12.0453C10.4772 12.0453 10.174 11.9889 9.88554 11.876C9.59707 11.7632 9.31894 11.5909 9.05113 11.3592L8.6638 12.412C8.83054 12.5747 9.02826 12.7156 9.25549 12.8348C9.48346 12.9476 9.72618 13.0354 9.9844 13.0981Z" fill="#051B52"></path></svg>