<svg xmlns="http://www.w3.org/2000/svg" width="141" height="25" viewBox="0 0 141 25" fill="none"><path d="M32.9184 6.34009L33.2684 12.6634L25.5218 13.1067L25.1484 6.78342L32.9184 6.34009Z" fill="#051B52"></path><path d="M29.2333 12.6632C29.1867 12.6632 29.0933 12.6632 29 12.6632C28.9067 12.6632 28.8367 12.6632 28.8367 12.6632H25.5V17.7265H27.5067V14.5999H29.1167C31.31 14.5999 32.9433 12.8499 32.9433 10.6799C32.92 12.3832 30.2833 12.6165 29.2333 12.6632Z" fill="#051B52"></path><path d="M4.66406 8.67259L10.6607 2.62927L16.7507 8.64926L10.754 14.6926L4.66406 8.67259Z" fill="#051B52"></path><path d="M4.68555 16.3733L9.65553 9.09332L17.8222 14.67L12.8522 21.95L4.68555 16.3733Z" fill="#051B52"></path><path d="M7.39258 9.76993C7.39258 11.8699 9.02591 12.4299 10.4959 12.8966C10.7059 12.9666 10.9159 13.0133 11.1259 13.0833C11.1259 13.0833 11.4292 13.1766 11.4526 13.1766C12.5026 13.5266 15.6526 14.7632 14.0892 16.6532C14.6492 16.0466 14.9526 15.2532 14.9526 14.4366C14.9526 12.3366 13.2726 11.6833 11.8026 11.1933C11.4526 11.0766 11.1026 10.9599 10.7759 10.8433C10.7292 10.8199 10.3792 10.6799 10.3792 10.6799C9.21257 10.1433 6.73925 8.74326 8.95591 7.17993C7.97591 7.76326 7.39258 8.6966 7.39258 9.76993Z" fill="#051B52"></path><path d="M47.5723 15.9062L49.4156 14.4129C49.9289 15.3462 50.7689 15.8829 51.7023 15.8829C52.7289 15.8829 53.2889 15.1829 53.2889 14.4362C53.2889 13.5262 52.2389 13.2462 51.0956 12.8962C49.6723 12.4529 48.1089 11.8696 48.1089 9.76956C48.1089 8.01956 49.5789 6.61957 51.6323 6.61957C53.3589 6.61957 54.3389 7.29624 55.2022 8.20623L53.5456 9.51289C53.1022 8.83623 52.4956 8.48623 51.6556 8.48623C50.7223 8.48623 50.2089 9.0229 50.2089 9.69956C50.2089 10.5396 51.2123 10.8196 52.3556 11.2162C53.7789 11.7062 55.4122 12.3596 55.4122 14.4595C55.4122 16.2095 54.0822 17.8895 51.7489 17.8895C49.7889 17.8895 48.5289 17.0495 47.5723 15.9062Z" fill="#051B52"></path><path d="M63.3228 13.2462H59.3328V17.7262H57.3262V6.75952H59.3328V11.2395H63.3228V6.75952H65.3295V17.7262H63.3228V13.2462Z" fill="#051B52"></path><path d="M70.6962 6.75952H72.7262L76.4829 17.7262H74.3829L73.7529 15.8128H69.6929L69.0629 17.7262H66.9629L70.6962 6.75952ZM70.3462 13.8295H73.0762L71.7229 9.74618L70.3462 13.8295Z" fill="#051B52"></path><path d="M75.8535 6.75952H79.1668C81.5935 6.75952 83.0635 8.36951 83.0635 10.4462C83.0635 11.8228 82.4335 13.1528 81.0335 13.7128L83.4368 17.7495H81.1268L77.9535 12.3362H78.9335C80.4968 12.3362 81.0335 11.2628 81.0335 10.4695C81.0335 9.37285 80.4502 8.74285 78.9335 8.74285H75.8535V6.75952Z" fill="#051B52"></path><path d="M85.2324 6.75952H91.5091V8.76618H87.2624V11.2162H91.5091V13.2228H87.2624V15.7428H91.5091V17.7262H85.2324V6.75952Z" fill="#051B52"></path><path d="M92.9551 15.9062L94.7984 14.4129C95.3117 15.3462 96.1517 15.8829 97.0851 15.8829C98.1117 15.8829 98.6717 15.1829 98.6717 14.4362C98.6717 13.5262 97.6217 13.2462 96.4784 12.8962C95.0551 12.4529 93.4917 11.8696 93.4917 9.76956C93.4917 8.01956 94.9617 6.61957 97.0151 6.61957C98.7417 6.61957 99.7217 7.29624 100.585 8.20623L98.9284 9.51289C98.4851 8.83623 97.8784 8.48623 97.0384 8.48623C96.1051 8.48623 95.5917 9.0229 95.5917 9.69956C95.5917 10.5396 96.5951 10.8196 97.7384 11.2162C99.1617 11.7062 100.795 12.3596 100.795 14.4595C100.795 16.2095 99.4651 17.8895 97.1317 17.8895C95.1951 17.8895 93.9117 17.0495 92.9551 15.9062Z" fill="#051B52"></path><path d="M106.349 6.75952H102.709V8.69618H106.209C107.352 8.69618 108.122 9.58284 108.122 10.6795C108.122 11.7762 107.352 12.6628 106.209 12.6628H102.709V17.7262H104.716V14.5995H106.326C108.519 14.5995 110.152 12.8495 110.152 10.6795C110.152 8.50951 108.542 6.75952 106.349 6.75952Z" fill="#051B52"></path><path d="M111.67 12.2429C111.67 9.13956 114.073 6.61957 117.06 6.61957C120.07 6.61957 122.473 9.13956 122.473 12.2429C122.473 15.3695 120.07 17.8662 117.06 17.8662C114.073 17.8895 111.67 15.3695 111.67 12.2429ZM120.49 12.2429C120.49 10.2829 118.973 8.6729 117.083 8.6729C115.193 8.6729 113.677 10.2829 113.677 12.2429C113.677 14.2029 115.193 15.8129 117.083 15.8129C118.973 15.8129 120.49 14.2262 120.49 12.2429Z" fill="#051B52"></path><path d="M123.57 15.9062L125.414 14.4129C125.927 15.3462 126.767 15.8829 127.7 15.8829C128.727 15.8829 129.287 15.1829 129.287 14.4362C129.287 13.5262 128.237 13.2462 127.094 12.8962C125.67 12.4529 124.107 11.8696 124.107 9.76956C124.107 8.01956 125.577 6.61957 127.63 6.61957C129.357 6.61957 130.337 7.29624 131.2 8.20623L129.544 9.51289C129.1 8.83623 128.494 8.48623 127.654 8.48623C126.72 8.48623 126.207 9.0229 126.207 9.69956C126.207 10.5396 127.21 10.8196 128.354 11.2162C129.777 11.7062 131.41 12.3596 131.41 14.4595C131.41 16.2095 130.08 17.8895 127.747 17.8895C125.81 17.8895 124.527 17.0495 123.57 15.9062Z" fill="#051B52"></path><path d="M135.632 8.76618H132.832V6.75952H140.462V8.76618H137.639V17.7262H135.632V8.76618Z" fill="#051B52"></path><path d="M0.462891 24.3066H39.3594V0.203308H0.462891V24.3066ZM37.2594 22.2066H2.53955V2.27997H37.2594V22.2066Z" fill="#051B52"></path><path d="M21.2524 4.37994H19.1758V20.1066H21.2524V4.37994Z" fill="#051B52"></path></svg>