<svg xmlns="http://www.w3.org/2000/svg" width="141" height="36" viewBox="0 0 141 36" fill="none"><path d="M0.462891 18.0332V35.8569H33.8005V31.7509H4.49887V4.24558H33.8005V0.209595H0.462891V18.0332Z" fill="black"></path><path d="M32.0972 7.02111C29.1577 7.39438 27.0581 8.93412 26.2649 11.2904C26.0782 11.8736 26.0549 12.0602 26.0083 12.9001C25.9383 14.8831 26.3582 16.0962 27.5013 17.2394C28.6211 18.3592 30.0909 18.9891 33.0537 19.5723C34.9667 19.9456 35.8299 20.2489 36.5065 20.7621C37.323 21.392 37.603 22.6518 37.1364 23.6316C36.9031 24.1215 36.3432 24.6581 35.8299 24.8914C34.6168 25.428 32.5171 25.3347 31.2807 24.7048C30.7441 24.4248 30.1609 23.8416 29.8576 23.2817C29.601 22.7684 29.3677 21.9286 29.3677 21.4387V21.0654H25.2617V21.3453C25.2617 22.8384 25.7516 24.5648 26.5215 25.7079C26.9181 26.3145 27.7346 27.1543 28.2945 27.5276C29.9743 28.6708 32.2839 29.2073 34.6868 28.9974C37.0197 28.8107 38.6761 28.1109 39.8892 26.8511C40.6824 26.0112 41.1723 25.0547 41.3823 23.8882C41.5456 23.0017 41.499 21.0187 41.289 20.2955C40.7524 18.4758 39.376 17.286 36.9264 16.4695C36.4831 16.3295 35.7366 16.1196 35.27 16.0262C33.637 15.6996 32.3538 15.373 31.8639 15.1631C30.6741 14.6731 30.1842 14.0432 30.1842 13.0634C30.1842 11.9669 30.8374 11.2671 32.1439 10.9404C32.8904 10.7538 34.2669 10.7771 34.8967 11.0104C36.0865 11.4304 36.8797 12.3635 37.0664 13.5067L37.1364 13.9733H41.1723L41.1257 13.2967C41.0324 11.8969 40.7291 11.0104 40.0292 9.96061C39.0727 8.56085 37.5563 7.60434 35.5733 7.18441C35.1067 7.09109 34.6401 7.04444 33.6603 7.02111C32.9138 6.99778 32.2139 7.02111 32.0972 7.02111ZM50.924 18.0092V28.6241H54.96V7.39438H50.924V18.0092ZM63.0086 7.95429C62.7987 8.25757 61.5622 10.2172 60.2091 12.3169L57.7595 16.0962V19.9456L60.6524 24.2615L63.5452 28.6008H68.4677L68.3277 28.4141C68.2577 28.2975 66.6713 25.9646 64.805 23.2117C62.1688 19.3623 61.3989 18.1492 61.3989 18.0092C61.3989 17.8693 62.2154 16.5395 64.7117 12.6901C66.5314 9.86729 68.0478 7.51103 68.0711 7.46437C68.1178 7.39438 67.6278 7.37105 65.7615 7.37105H63.3819L63.0086 7.95429ZM80.5523 7.44104C80.5523 7.4877 75.6531 28.0642 75.5598 28.3908L75.5132 28.6008H79.7824L80.2957 26.3611C80.5756 25.1247 80.8089 24.0749 80.8323 24.0282C80.8556 23.9582 81.6021 23.9349 84.4017 23.9582L87.9244 23.9816L88.4376 26.2678L88.9509 28.5541L91.0972 28.5774C93.1268 28.6008 93.2435 28.5774 93.1968 28.4841C93.1735 28.4141 92.0537 23.7016 90.7006 18.0326C89.3475 12.3402 88.2277 7.62767 88.2043 7.53435L88.181 7.39438H84.3783C82.2553 7.39438 80.5523 7.41771 80.5523 7.44104ZM84.5883 9.47069C84.5883 9.49402 85.1249 11.827 85.7781 14.6965L86.9445 19.8989L84.355 19.9222C82.9319 19.9222 81.7654 19.9222 81.7421 19.9222C81.7188 19.8989 83.0485 14.0432 83.9351 10.2406L84.1217 9.47069H84.355C84.495 9.44736 84.5883 9.44736 84.5883 9.47069ZM103.695 18.0092V28.6241H117.389V24.7981H107.731V7.41771H103.695V18.0092ZM126.628 18.0092V28.6241H140.462V24.7981H130.664V11.3137H140.462V7.41771H126.628V18.0092Z" fill="black"></path><path d="M133.463 18.0336V19.9933H137.359V16.0973H133.463V18.0336Z" fill="black"></path></svg>