<svg xmlns="http://www.w3.org/2000/svg" width="141" height="46" viewBox="0 0 141 46" fill="none"><path d="M21.7132 45.0688C18.5166 45.0688 16.1834 44.2983 14.7136 42.7572C13.3521 41.4527 12.562 39.6618 12.516 37.776C12.4995 37.203 12.6321 36.6357 12.901 36.1296C13.1517 35.6924 13.514 35.3295 13.9507 35.0782C14.4583 34.8248 15.0178 34.693 15.5851 34.693C16.1524 34.693 16.7119 34.8248 17.2195 35.0782C17.6554 35.3286 18.016 35.6917 18.2633 36.1296C18.5399 36.6332 18.6776 37.2015 18.6621 37.776C18.6906 38.462 18.494 39.1386 18.1022 39.7023C17.7756 40.1624 17.3088 40.5043 16.7718 40.6766C17.297 41.3457 18.04 41.8093 18.8716 41.9866C19.8019 42.2571 20.7655 42.3961 21.7343 42.3998C23.0169 42.411 24.2731 42.0351 25.3391 41.3211C26.4449 40.5392 27.2695 39.4216 27.6908 38.1339C28.2248 36.6013 28.4854 34.9867 28.4607 33.3638C28.5038 31.6718 28.2186 29.9875 27.6208 28.4042C27.1711 27.1379 26.3177 26.0548 25.192 25.3221C24.1457 24.6594 22.9311 24.3118 21.6929 24.3205C20.614 24.4119 19.5736 24.7654 18.6621 25.3502L16.4147 26.4779V25.3502L26.5148 11.7903H12.516V25.8615C12.4764 26.877 12.7449 27.8806 13.2859 28.7405C13.5477 29.1152 13.9018 29.4159 14.3138 29.6135C14.7258 29.8111 15.1818 29.8988 15.6377 29.8682C16.4799 29.8511 17.2945 29.5639 17.9613 29.0487C18.7172 28.4943 19.375 27.8171 19.9073 27.0452C19.9552 26.9099 20.0435 26.7926 20.1603 26.7092C20.2541 26.6281 20.3738 26.5833 20.4978 26.5831C20.741 26.6053 20.9711 26.7033 21.1558 26.8631C21.3897 27.1248 21.5171 27.4647 21.5127 27.8158C21.4856 28.0517 21.4436 28.2857 21.3867 28.5162C20.8894 29.7208 20.0558 30.7565 18.9857 31.4993C17.9919 32.1724 16.818 32.5292 15.618 32.5232C12.5871 32.5232 10.4875 31.9254 9.31895 30.7299C8.71834 30.0692 8.25545 29.2951 7.95739 28.4532C7.65932 27.6112 7.53206 26.7182 7.58306 25.8264V11.7903H0.462891V9.17585H7.61624V3.21471L5.97849 1.57456V0.237793H10.7309L12.516 1.16256V9.17585L31.0082 9.11957L32.8493 10.9688L21.5101 22.3719C22.1952 22.0962 22.9166 21.9215 23.6518 21.8535C25.107 21.9173 26.5267 22.3229 27.7962 23.0374C29.2663 23.7368 30.5053 24.8432 31.3662 26.2257C32.1375 27.396 32.6836 28.7003 32.9761 30.0714C33.2166 31.1529 33.3456 32.2562 33.3611 33.3641C33.3685 35.4783 32.8896 37.5659 31.9612 39.4651C31.0808 41.3042 29.599 42.7871 27.7614 43.6682C25.8803 44.5958 23.8102 45.0752 21.7132 45.0688Z" fill="#2C7DF7"></path><path fill-rule="evenodd" clip-rule="evenodd" d="M44.6973 11.1829C44.6973 9.98702 45.6667 9.01758 46.8626 9.01758H64.4706C65.6665 9.01758 66.6359 9.98702 66.6359 11.1829V13.4098H64.9933V11.1829C64.9933 10.8942 64.7593 10.6602 64.4706 10.6602H56.4879V35.5849H54.8453V10.6602H46.8626C46.5739 10.6602 46.3399 10.8942 46.3399 11.1829V13.4098H44.6973V11.1829Z" fill="#2C7DF7"></path><path fill-rule="evenodd" clip-rule="evenodd" d="M67.5783 25.9131H82.8836V25.0917C82.8836 22.8584 82.4445 20.7001 81.2625 19.061C80.0516 17.3817 78.14 16.3564 75.4546 16.2766C72.7814 16.1972 70.3899 17.1126 68.6661 18.8165C66.9419 20.5208 65.9355 22.9642 65.9355 25.8513C65.9355 28.7146 66.7614 30.76 67.8559 32.2362C68.9397 33.698 70.2529 34.5536 71.1359 35.0917C72.1859 35.7315 74.1023 36.1425 76.1658 36.0226C78.2597 35.9009 80.6434 35.2263 82.5995 33.5347L81.5251 32.2922C79.9101 33.6887 77.9036 34.2762 76.0705 34.3827C74.2069 34.491 72.6593 34.0964 71.9907 33.689C71.1551 33.1798 70.0651 32.4578 69.1754 31.2578C68.3035 30.0819 67.59 28.3995 67.5783 25.9131ZM69.8209 19.9848C68.7463 21.0469 67.9848 22.4997 67.7008 24.2704H81.218C81.1204 22.5661 80.7084 21.1011 79.9301 20.0217C79.0584 18.8127 77.654 17.9853 75.4059 17.9185C73.1456 17.8514 71.2004 18.6211 69.8209 19.9848Z" fill="#2C7DF7"></path><path d="M88.8506 16.673C87.6547 16.673 86.6853 17.6424 86.6853 18.8383V20.7302H88.3279V18.8383C88.3279 18.5496 88.5619 18.3156 88.8506 18.3156H99.3532L86.6445 34.2307V35.6664H100.398C101.594 35.6664 102.563 34.697 102.563 33.5011V31.6372H100.92V33.5011C100.92 33.7898 100.686 34.0238 100.398 34.0238H88.9119L101.772 17.9189V16.673H88.8506Z" fill="#2C7DF7"></path><path fill-rule="evenodd" clip-rule="evenodd" d="M114.541 18.0369C110.056 18.0369 106.42 21.6727 106.42 26.1577C106.42 30.6426 110.056 34.2784 114.541 34.2784C119.026 34.2784 122.661 30.6426 122.661 26.1577C122.661 21.6727 119.026 18.0369 114.541 18.0369ZM104.777 26.1577C104.777 20.7655 109.149 16.3943 114.541 16.3943C119.933 16.3943 124.304 20.7655 124.304 26.1577C124.304 31.5498 119.933 35.9211 114.541 35.9211C109.149 35.9211 104.777 31.5498 104.777 26.1577Z" fill="#2C7DF7"></path><path fill-rule="evenodd" clip-rule="evenodd" d="M133.753 16.2999C135.051 16.3002 136.603 16.3399 137.803 16.9564C138.436 17.2817 138.982 17.7708 139.343 18.4839C139.699 19.186 139.845 20.0447 139.79 21.067L138.15 20.9798C138.194 20.1548 138.068 19.6022 137.878 19.2263C137.693 18.8614 137.418 18.6058 137.052 18.4173C136.257 18.0086 135.102 17.9426 133.74 17.9426H133.726L133.712 17.9421C132.508 17.9019 131.318 18.3762 130.525 19.1138C129.739 19.8449 129.413 20.751 129.678 21.6469L129.687 21.6767L129.693 21.707C129.952 22.9058 131.019 23.7777 132.619 24.5541C133.378 24.9223 134.196 25.2407 135.013 25.559L135.081 25.5854C135.903 25.9055 136.738 26.2326 137.433 26.5984L137.453 26.6091L137.473 26.621C139.509 27.8441 140.497 29.4434 140.462 31.1102C140.428 32.7374 139.421 34.1709 138.027 35.1C135.201 36.9833 130.509 37.0243 127.01 32.7592L128.28 31.7173C131.239 35.324 134.986 35.1523 137.116 33.733C138.2 33.0108 138.8 32.0204 138.82 31.0758C138.839 30.1742 138.331 29.0586 136.647 28.0411C136.054 27.7309 135.317 27.4404 134.485 27.116C134.455 27.1043 134.424 27.0925 134.394 27.0807C133.594 26.7692 132.722 26.4297 131.902 26.032C130.25 25.2303 128.537 24.0676 128.094 22.0836C127.624 20.4505 128.298 18.9418 129.406 17.9111C130.511 16.8835 132.115 16.2493 133.753 16.2999Z" fill="#2C7DF7"></path></svg>