<svg width="152" height="152" viewBox="0 0 152 152" fill="none" xmlns="http://www.w3.org/2000/svg">
<circle cx="76" cy="76" r="76" fill="#C4C4C4"/>
<circle cx="76" cy="76" r="76" fill="url(#paint0_linear)"/>
<path d="M46.5619 72.8079C43.6584 69.9044 38.951 69.9044 36.0475 72.8079C33.144 75.7114 33.144 80.4188 36.0475 83.3223L46.5619 72.8079ZM65.6743 102.435L60.4171 107.692C63.3205 110.595 68.028 110.595 70.9314 107.692L65.6743 102.435ZM117.605 61.0179C120.509 58.1145 120.509 53.407 117.605 50.5036C114.702 47.6001 109.994 47.6001 107.091 50.5036L117.605 61.0179ZM36.0475 83.3223L60.4171 107.692L70.9314 97.1775L46.5619 72.8079L36.0475 83.3223ZM70.9314 107.692L117.605 61.0179L107.091 50.5036L60.4171 97.1775L70.9314 107.692Z" fill="white"/>
<defs>
<linearGradient id="paint0_linear" x1="56.8417" y1="48.0937" x2="123.266" y2="134.732" gradientUnits="userSpaceOnUse">
<stop stop-color="#3351FF"/>
<stop offset="1" stop-color="#0222DB"/>
</linearGradient>
</defs>
</svg>
