<svg width="141" height="30" viewBox="0 0 141 30" fill="none" xmlns="http://www.w3.org/2000/svg">
<g clip-path="url(#clip0)">
<path d="M32.6297 24.2038C30.8309 24.2379 29.0617 23.7435 27.5411 22.782C26.0205 21.8205 24.8153 20.4341 24.0748 18.7945C23.3344 17.1548 23.0911 15.334 23.3752 13.5575C23.6593 11.7809 24.4583 10.1268 25.6731 8.79982C26.888 7.47287 28.4655 6.53143 30.2101 6.09209C31.9547 5.65275 33.7899 5.73482 35.4883 6.32812C37.1868 6.92142 38.6739 7.9999 39.7655 9.42999C40.8571 10.8601 41.5052 12.579 41.6296 14.3737V14.5641H46.8166V14.3422C46.6793 10.6631 45.1274 7.17886 42.4845 4.61571C39.8415 2.05255 36.3113 0.608227 32.6297 0.58374C32.286 0.58374 31.9423 0.58374 31.5986 0.61524H0.224609V5.33954H9.28681V29.1185H14.3492V5.33954H22.0989C19.5474 8.18236 18.2185 11.9158 18.3998 15.7314C18.5811 19.547 20.2581 23.1376 23.0677 25.7256C25.6734 28.1273 29.0861 29.4627 32.6297 29.4671H33.3486V24.2038H32.6297Z" fill="#2E7DF2"/>
<path d="M40.3811 19.4795L37.8184 22.745L44.8184 28.6418L47.3811 25.4393L40.3811 19.4795Z" fill="#2E7DF2"/>
<path d="M65.0658 28.1674C64.3766 28.2042 63.6879 28.0867 63.05 27.8234C62.412 27.5602 61.8408 27.1578 61.3782 26.6456C60.435 25.4488 59.9575 23.9507 60.0342 22.4288V11.5851H56.5664V10.2551H60.0349V4.38843H61.472V10.2537H67.8469V11.5837H61.472V22.1432C61.3744 23.3887 61.7051 24.6302 62.4093 25.6621C62.7634 26.0585 63.2042 26.3677 63.6974 26.5658C64.1906 26.7638 64.7228 26.8453 65.2527 26.8038C65.6637 26.798 66.0726 26.745 66.4714 26.6456C66.9298 26.5311 67.379 26.3828 67.8154 26.2018L68.1276 27.5017C67.1671 27.9431 66.1221 28.1703 65.0651 28.1674H65.0658ZM85.2839 24.4259C84.9215 25.6258 84.1467 26.6589 83.0964 27.3428C81.8183 28.013 80.3809 28.32 78.9405 28.2304C78.067 28.2832 77.1918 28.1619 76.3656 27.8735C75.5395 27.5851 74.7789 27.1353 74.128 26.5504C73.0031 25.4409 72.4095 23.7602 72.4095 21.5412V16.7847C72.4095 14.502 73.0031 12.8213 74.2218 11.6803C75.5594 10.5882 77.2347 9.99425 78.9615 10C80.6884 10.0057 82.3597 10.6108 83.69 11.7118C84.88 12.8535 85.4715 14.5972 85.4715 16.9751V19.2578H73.8781V21.5384C73.8781 23.4088 74.2841 24.7724 75.1283 25.6285C75.9725 26.4846 77.222 26.8969 78.9405 26.8969C80.0891 26.9895 81.2399 26.7463 82.2529 26.1969C83.002 25.6206 83.5666 24.8382 83.8776 23.9457L85.2839 24.421V24.4259ZM73.8781 16.7847V18.0209H84.0064V17.0409C84.0064 15.0753 83.5689 13.6165 82.7254 12.6974C81.8819 11.7783 80.6002 11.3338 78.9132 11.3338C78.2253 11.2807 77.5339 11.3715 76.883 11.6005C76.2322 11.8295 75.6363 12.1916 75.1332 12.6638C74.3205 13.5514 73.883 14.915 73.883 16.7854L73.8781 16.7847ZM103.096 27.9147H91.2213V26.5784L101.471 11.5851H91.2213V10.2551H103.096V11.5851L92.8152 26.5784H103.096V27.9147ZM115.377 28.2003C113.283 28.2003 111.659 27.6298 110.534 26.4881C109.409 25.3464 108.846 23.6979 108.846 21.5419V16.7847C108.846 14.597 109.408 12.917 110.534 11.7447C111.659 10.5715 113.283 10.001 115.377 10.001C117.471 10.001 119.065 10.5715 120.189 11.7447C121.314 12.9179 121.877 14.5979 121.877 16.7847V21.5384C121.877 23.6944 121.315 25.3432 120.189 26.4846C119.095 27.6284 117.471 28.1989 115.377 28.1989V28.2003ZM115.377 26.9004C117.127 26.9004 118.408 26.4566 119.221 25.6005C120.033 24.7444 120.439 23.3815 120.439 21.5405V16.7847C120.439 14.9143 120.033 13.5507 119.221 12.6631C118.408 11.7755 117.127 11.3331 115.377 11.3331C113.627 11.3331 112.346 11.7769 111.533 12.6631C110.721 13.5493 110.315 14.9143 110.315 16.7847V21.5384C110.315 23.3773 110.721 24.7087 111.533 25.5984C112.346 26.4552 113.627 26.899 115.377 26.899V26.9004ZM134.095 28.2003C132.717 28.1958 131.348 27.982 130.035 27.5661C128.725 27.1401 127.506 26.4735 126.441 25.6005L127.191 24.3958C129.109 26.0254 131.548 26.9139 134.066 26.9004C135.28 26.9686 136.485 26.6466 137.503 25.9813C137.905 25.702 138.23 25.3263 138.448 24.8887C138.667 24.451 138.772 23.9655 138.753 23.4767C138.784 23.0259 138.695 22.5751 138.498 22.1688C138.3 21.7625 138 21.4149 137.626 21.1604C136.877 20.6529 135.439 20.2091 133.314 19.7968C131.095 19.3845 129.47 18.7825 128.501 18.0216C128.024 17.6536 127.641 17.1767 127.385 16.6306C127.13 16.0846 127.008 15.4853 127.031 14.8828C127.006 14.2144 127.131 13.5488 127.396 12.9345C127.661 12.3202 128.059 11.7727 128.562 11.3317C129.685 10.4093 131.11 9.93552 132.562 10.0017C133.79 10.0016 135.009 10.2272 136.156 10.6674C137.304 11.1174 138.378 11.7373 139.343 12.5063L138.655 13.648C137.777 12.962 136.81 12.3969 135.781 11.968C134.764 11.5292 133.668 11.3027 132.561 11.3023C131.487 11.2326 130.423 11.5472 129.56 12.1899C129.202 12.4779 128.917 12.846 128.727 13.2645C128.537 13.6829 128.448 14.1402 128.467 14.5993C128.43 15.0776 128.513 15.5576 128.71 15.9952C128.906 16.4329 129.21 16.8141 129.592 17.1039C130.342 17.6429 131.779 18.0863 133.904 18.4339C136.154 18.8147 137.748 19.3852 138.748 20.1461C139.231 20.516 139.618 20.9977 139.874 21.55C140.13 22.1022 140.248 22.7084 140.218 23.3164C140.237 23.9996 140.095 24.6777 139.801 25.295C139.508 25.9123 139.072 26.4512 138.53 26.8675C137.25 27.8107 135.683 28.2812 134.095 28.1989V28.2003Z" fill="#123262"/>
</g>
<defs>
<clipPath id="clip0">
<rect width="140" height="28.8834" fill="white" transform="translate(0.224609 0.58374)"/>
</clipPath>
</defs>
</svg>
