<svg xmlns="http://www.w3.org/2000/svg" width="141" height="29" viewBox="0 0 141 29" fill="none"><path d="M8.60621 1.44649C3.09955 0.979823 0.462891 0.233154 0.462891 0.233154C5.57288 18.3165 18.2662 28.3264 18.2662 28.3264C18.2662 28.3264 20.4362 26.5998 23.3529 23.3098C19.0595 19.2498 12.6895 11.9465 8.60621 1.44649Z" fill="#051B52"></path><path d="M18.2661 1.8429C15.2794 1.8429 12.7128 1.74958 10.4961 1.58624C14.4161 11.2462 20.4127 18.1296 24.4727 22.0029C25.8494 20.3462 27.3427 18.3862 28.8127 16.1229C25.5227 12.6462 21.8361 7.88623 18.7794 1.8429H18.2661Z" fill="#051B52"></path><path d="M36.0709 0.232788C36.0709 0.232788 33.4342 0.979457 27.9275 1.44612C26.9475 4.12945 25.8742 6.50945 24.8242 8.56278C26.4809 10.8728 28.1609 12.9028 29.7709 14.6294C32.1742 10.6394 34.4842 5.83278 36.0709 0.232788Z" fill="#051B52"></path><path d="M51.9128 25.4793H51.5628L44.1895 9.28595H47.2928L51.7961 19.9259L56.2528 9.28595H59.2861L51.9128 25.4793Z" fill="#051B52"></path><path d="M104.366 9.28595H104.716L112.112 25.4793H108.986L104.506 14.8393L100.026 25.4793H96.9922L104.366 9.28595Z" fill="#051B52"></path><path d="M61.7129 25.2693V9.28595H71.4429V11.7826H64.4196V15.9593H70.7662V18.3626H64.4196V22.7726H71.4429V25.2693H61.7129Z" fill="#051B52"></path><path d="M93.9828 11.7826V25.2693H91.2761V11.7826H86.1895V9.28595H99.0461V11.7826H93.9828Z" fill="#051B52"></path><path d="M113.957 25.2693V9.28595H116.687V22.7726H123.71V25.2693H113.957Z" fill="#051B52"></path><path d="M132.32 25.5262C127.7 25.5262 124.316 22.0263 124.316 17.2896C124.316 12.5296 127.84 9.0296 132.46 9.0296C137.08 9.0296 140.463 12.5296 140.463 17.2896C140.463 22.0029 136.94 25.5262 132.32 25.5262ZM132.39 11.4563C129.333 11.4563 127.233 13.9529 127.233 17.2663C127.233 20.5796 129.356 23.0762 132.39 23.0762C135.423 23.0762 137.523 20.5796 137.523 17.2663C137.546 13.9529 135.423 11.4563 132.39 11.4563Z" fill="#051B52"></path><path d="M82.0129 18.8294C83.9962 17.966 85.1396 16.286 85.1396 14.2094C85.1396 11.386 83.1329 9.16937 78.6062 9.16937C76.9962 9.16937 75.6662 9.28603 74.4062 9.42603V25.246H77.1129V21.256V19.4594V17.1727V16.6127V11.7127C77.6496 11.596 78.2796 11.5727 78.9329 11.5727C81.0329 11.5727 82.2462 12.6927 82.2462 14.3027C82.2462 15.8894 81.3362 16.9394 79.5396 17.196V19.4827L83.0162 25.246H86.1662L82.0129 18.8294Z" fill="#051B52"></path></svg>