<svg xmlns="http://www.w3.org/2000/svg" width="140" height="88" viewBox="0 0 140 88" fill="none"><path fill-rule="evenodd" clip-rule="evenodd" d="M112.533 75.0061C112.518 75.0176 112.504 75.0281 112.49 75.0395L112.109 74.5833C104.26 81.0387 94.2907 84.5303 84.0025 84.5303C72.2295 84.5303 61.1989 80.0861 52.9264 71.9373C44.654 63.8955 40.0925 53.1017 40.0925 41.6723C40.0925 32.8897 42.7444 24.3181 47.9411 17.122C53.0326 10.0318 60.0327 4.74089 68.3052 1.6721L67.9876 0.825439C59.6079 4.00018 52.3964 9.39705 47.3049 16.5932C42.002 24.0003 39.1387 32.6778 39.1387 41.6723C39.1387 53.3127 43.8054 64.3183 52.2902 72.5721C53.0881 73.3491 53.9185 74.0812 54.7633 74.7914L53.6688 76.0647C62.0475 83.1549 72.8657 87.0703 84.0025 87.0703C94.9269 87.0703 105.427 83.2608 113.806 76.4885L112.533 75.0061Z" fill="#004B86"></path><path fill-rule="evenodd" clip-rule="evenodd" d="M48.366 15.2175C48.1546 14.4767 48.0484 13.842 48.0484 13.1013C48.0484 9.92654 50.1694 7.0687 53.9875 7.0687C54.8361 7.0687 55.5785 7.17465 56.2147 7.38656C56.8509 6.85775 57.5933 6.32799 58.3357 5.90514C57.0633 5.16443 55.5785 4.74158 53.9875 4.74158C49.3208 4.74158 45.3965 8.44512 45.3965 13.1013C45.3965 14.6887 45.9274 16.276 46.6689 17.5455C46.8813 17.2286 47.0936 16.9108 47.3051 16.6989C47.6236 16.1691 48.0484 15.6413 48.366 15.2175Z" fill="#141414"></path><path fill-rule="evenodd" clip-rule="evenodd" d="M59.8154 6.96313C59.0731 7.38599 58.4369 7.8098 57.8007 8.3386C59.1792 9.39717 59.9216 11.1955 59.9216 13.1007C59.9216 16.2755 57.5883 19.0264 53.9825 19.0264C51.9668 19.0264 50.3758 18.1797 49.3158 16.8043C49.1034 17.1221 48.891 17.334 48.6787 17.6509C48.361 18.0747 48.0434 18.4976 47.8301 18.9204C49.422 20.4028 51.543 21.3554 53.9825 21.3554C58.7545 21.3554 62.5736 17.7569 62.5736 13.1007C62.5736 10.6667 61.5126 8.44455 59.8154 6.96313Z" fill="#141414"></path><path fill-rule="evenodd" clip-rule="evenodd" d="M44.6553 34.6887C44.6553 37.2287 43.1705 39.4508 40.9434 40.2975V41.6729V42.8375C44.5491 41.8848 47.3063 38.7101 47.3063 34.6887C47.3063 31.8318 45.7163 29.2918 43.3829 27.7045C43.0643 28.5511 42.852 29.2918 42.5343 30.0325C43.9129 31.1971 44.6553 32.8904 44.6553 34.6887Z" fill="#141414"></path><path fill-rule="evenodd" clip-rule="evenodd" d="M39.2441 40.7204H38.7141C35.1083 40.7204 32.6678 37.9695 32.6678 34.6888C32.6678 31.62 34.7898 28.7631 38.7141 28.7631C39.5627 28.7631 40.4113 28.8681 41.0465 29.186C41.2598 28.4443 41.4713 27.7045 41.7898 26.9638C40.8351 26.646 39.7741 26.4341 38.7141 26.4341C33.9412 26.4341 30.123 30.1386 30.123 34.6888C30.123 39.4509 33.9412 43.0485 38.7141 43.0485H39.2441C39.2441 42.6256 39.1379 42.0959 39.1379 41.673C39.1379 41.3552 39.2441 41.0383 39.2441 40.7204Z" fill="#141414"></path><path fill-rule="evenodd" clip-rule="evenodd" d="M44.8653 50.5616C48.6834 50.5616 50.8044 53.4185 50.8044 56.4873C50.8044 59.2382 49.1082 61.6722 46.4563 62.3079C46.8801 63.0487 47.3049 63.6834 47.7287 64.4241C51.0168 63.2606 53.4563 60.2968 53.4563 56.4873C53.4563 51.9371 49.532 48.2335 44.8653 48.2335C43.6991 48.2335 42.5319 48.4454 41.5781 48.8683C41.6834 49.609 41.7896 50.4556 42.0019 51.1964C42.8505 50.7735 43.8043 50.5616 44.8653 50.5616Z" fill="#141414"></path><path fill-rule="evenodd" clip-rule="evenodd" d="M38.9244 56.4877C38.9244 54.9003 39.4554 53.4189 40.5154 52.2553C40.303 51.4087 40.0916 50.562 39.9854 49.7153C37.7582 51.1968 36.2734 53.7367 36.2734 56.4877C36.2734 61.2507 40.0916 64.8474 44.8645 64.8474C45.1821 64.8474 45.6069 64.8474 45.9255 64.7424C45.5007 64.0017 44.9707 63.261 44.5459 62.5202C41.1525 62.3083 38.9244 59.7684 38.9244 56.4877Z" fill="#141414"></path><path fill-rule="evenodd" clip-rule="evenodd" d="M86.5451 48.5514V58.1816C86.5451 60.4037 85.8027 62.5199 82.9393 62.5199C80.075 62.5199 79.3326 60.4037 79.3326 58.1816V48.5514H76.6816V58.7104C76.6816 62.202 78.9088 64.8479 82.9393 64.8479C86.9698 64.8479 89.1961 62.202 89.1961 58.7104V48.5514H86.5451Z" fill="#141414"></path><path fill-rule="evenodd" clip-rule="evenodd" d="M88.6676 18.8152H95.88V21.0373H86.0156V5.05859H88.6676V18.8152Z" fill="#141414"></path><path fill-rule="evenodd" clip-rule="evenodd" d="M0 26.7518H9.33343V29.079H2.65098V32.8894H9.22724V35.2175H2.65098V40.4025H9.33343V42.7305H0V26.7518Z" fill="#141414"></path><path fill-rule="evenodd" clip-rule="evenodd" d="M52.7109 25.9055L63.7415 37.2281V26.7522H66.3925V43.3656L55.3619 32.255V42.7309H52.7109V25.9055Z" fill="#141414"></path><path fill-rule="evenodd" clip-rule="evenodd" d="M118.471 26.7518H121.123V42.7305H118.471V26.7518Z" fill="#141414"></path><path fill-rule="evenodd" clip-rule="evenodd" d="M25.7721 50.8795V54.689H31.4988V56.9121H25.7721V64.5301H23.1211V48.5514H31.7121V50.8795H25.7721Z" fill="#141414"></path><path fill-rule="evenodd" clip-rule="evenodd" d="M36.3766 15.0058H36.4828L39.0275 5.0587H41.5742L37.119 21.6731L31.4975 9.71486L25.8769 21.6731L21.3164 5.0587H23.9674L26.5131 15.0058L31.4975 4.74084L36.3766 15.0058Z" fill="#141414"></path><path fill-rule="evenodd" clip-rule="evenodd" d="M97.6811 32.7833H97.5749L95.0292 42.7304H92.4844L96.9387 26.1169L102.56 38.1802L108.182 26.1169L112.742 42.7304H110.09L107.545 32.7833H107.438L102.56 43.1542L97.6811 32.7833Z" fill="#141414"></path><path fill-rule="evenodd" clip-rule="evenodd" d="M99.06 54.5825L96.5143 64.5296H93.8633L98.3176 47.9152L104.045 59.8734L109.667 47.9152L114.12 64.5296H111.469L108.923 54.5825L104.045 64.8474L99.06 54.5825Z" fill="#141414"></path><path fill-rule="evenodd" clip-rule="evenodd" d="M63.4243 48.5514C64.9091 48.5514 66.6062 48.5514 67.8786 49.2921C69.2582 50.0328 70.1058 51.6202 70.1058 53.1016C70.1058 55.4297 68.5158 57.3349 66.1815 57.5458L71.273 64.5301H68.3034L63.5305 57.7578H61.7271V64.5301H59.0762V48.5514H63.4243ZM61.7271 55.6416H62.8943C65.0153 55.6416 67.561 55.7466 67.561 53.2075C67.561 50.6676 64.9091 50.7735 62.7881 50.7735H61.7271V55.6416Z" fill="#141414"></path><path fill-rule="evenodd" clip-rule="evenodd" d="M72.4399 5.05859C73.9247 5.05859 75.6219 5.05859 76.8943 5.7993C78.2738 6.54001 79.0152 8.12738 79.0152 9.6088C79.0152 11.9378 77.5314 13.8421 75.0919 14.0531L80.2886 21.0373H77.319L72.4399 14.265H70.7428V21.0373H68.0918V5.05859H72.4399ZM70.7428 12.1488H71.9099C74.0309 12.1488 76.4705 12.2547 76.4705 9.71475C76.4705 7.17477 73.8185 7.28168 71.8037 7.28168H70.7428V12.1488Z" fill="#141414"></path><path fill-rule="evenodd" clip-rule="evenodd" d="M103.199 18.8152H104.684C108.184 18.8152 111.471 17.5447 111.471 12.9945C111.471 8.33833 108.184 7.28072 104.684 7.28072H103.199V18.8152ZM100.547 5.05859H104.895C109.987 5.05859 114.123 7.49167 114.123 12.9945C114.123 18.4973 110.093 21.0373 104.895 21.0373H100.547V5.05859Z" fill="#141414"></path><path fill-rule="evenodd" clip-rule="evenodd" d="M138.621 39.9797C137.773 40.5085 136.818 40.7204 135.652 40.7204C132.151 40.7204 129.712 38.0745 129.712 34.7938C129.712 31.62 131.833 28.7622 135.652 28.7622C136.818 28.7622 137.773 28.9741 138.621 29.3969L139.894 27.4926C138.727 26.8579 137.243 26.4341 135.652 26.4341C130.985 26.4341 127.061 30.1386 127.061 34.7938C127.061 39.4509 130.985 43.0485 135.652 43.0485C137.243 43.0485 138.727 42.7306 140 41.9899L138.621 39.9797Z" fill="#141414"></path><path fill-rule="evenodd" clip-rule="evenodd" d="M25.8782 39.9797C25.0297 40.5085 24.0749 40.7204 23.0149 40.7204C19.4082 40.7204 16.9686 38.0745 16.9686 34.7938C16.9686 31.62 19.0896 28.7622 23.0149 28.7622C24.0749 28.7622 25.0297 28.9741 25.8782 29.3969L27.2568 27.4926C25.9844 26.8579 24.4987 26.4341 23.0149 26.4341C18.242 26.4341 14.4238 30.1386 14.4238 34.7938C14.4238 39.4509 18.242 43.0485 23.0149 43.0485C24.4987 43.0485 25.9844 42.7306 27.2568 41.9899L25.8782 39.9797Z" fill="#141414"></path><path fill-rule="evenodd" clip-rule="evenodd" d="M86.4403 34.7944C86.4403 31.6197 84.3193 28.7628 80.5012 28.7628C76.5769 28.7628 74.4549 31.6197 74.4549 34.7944C74.4549 38.0751 76.8945 40.7201 80.5012 40.7201C84.0008 40.7201 86.4403 38.0751 86.4403 34.7944ZM89.0923 34.7944C89.0923 39.4506 85.167 43.0491 80.5012 43.0491C75.7283 43.0491 71.9102 39.4506 71.9102 34.7944C71.9102 30.1382 75.7283 26.4347 80.5012 26.4347C85.167 26.4347 89.0923 30.1382 89.0923 34.7944Z" fill="#141414"></path></svg>