<svg xmlns="http://www.w3.org/2000/svg" width="141" height="88" viewBox="0 0 141 88" fill="none"><path fill-rule="evenodd" clip-rule="evenodd" d="M112.695 75.0061C112.681 75.0176 112.666 75.0281 112.652 75.0395L112.271 74.5833C104.422 81.0387 94.4528 84.5303 84.1646 84.5303C72.3916 84.5303 61.361 80.0861 53.0885 71.9373C44.8161 63.8955 40.2546 53.1017 40.2546 41.6723C40.2546 32.8897 42.9065 24.3181 48.1033 17.122C53.1947 10.0318 60.1948 4.74089 68.4673 1.6721L68.1497 0.825439C59.7701 4.00018 52.5585 9.39705 47.4671 16.5932C42.1641 24.0003 39.3008 32.6778 39.3008 41.6723C39.3008 53.3127 43.9675 64.3183 52.4524 72.5721C53.2502 73.3491 54.0806 74.0812 54.9254 74.7914L53.8309 76.0647C62.2096 83.1549 73.0278 87.0703 84.1646 87.0703C95.089 87.0703 105.589 83.2608 113.968 76.4885L112.695 75.0061Z" fill="#051B52"></path><path fill-rule="evenodd" clip-rule="evenodd" d="M48.5281 15.2175C48.3167 14.4767 48.2105 13.842 48.2105 13.1013C48.2105 9.92654 50.3315 7.0687 54.1496 7.0687C54.9982 7.0687 55.7406 7.17465 56.3768 7.38656C57.013 6.85775 57.7554 6.32799 58.4978 5.90514C57.2254 5.16443 55.7406 4.74158 54.1496 4.74158C49.4829 4.74158 45.5586 8.44512 45.5586 13.1013C45.5586 14.6887 46.0896 16.276 46.831 17.5455C47.0434 17.2286 47.2558 16.9108 47.4672 16.6989C47.7858 16.1691 48.2105 15.6413 48.5281 15.2175Z" fill="#051B52"></path><path fill-rule="evenodd" clip-rule="evenodd" d="M59.9776 6.96313C59.2352 7.38599 58.599 7.8098 57.9628 8.3386C59.3414 9.39717 60.0837 11.1955 60.0837 13.1007C60.0837 16.2755 57.7504 19.0264 54.1446 19.0264C52.1289 19.0264 50.5379 18.1797 49.4779 16.8043C49.2655 17.1221 49.0531 17.334 48.8408 17.6509C48.5231 18.0747 48.2055 18.4976 47.9922 18.9204C49.5841 20.4028 51.7051 21.3554 54.1446 21.3554C58.9166 21.3554 62.7357 17.7569 62.7357 13.1007C62.7357 10.6667 61.6747 8.44455 59.9776 6.96313Z" fill="#051B52"></path><path fill-rule="evenodd" clip-rule="evenodd" d="M44.8174 34.6887C44.8174 37.2287 43.3326 39.4508 41.1055 40.2975V41.6729V42.8375C44.7112 41.8848 47.4684 38.7101 47.4684 34.6887C47.4684 31.8318 45.8784 29.2918 43.545 27.7045C43.2264 28.5511 43.0141 29.2918 42.6964 30.0325C44.075 31.1971 44.8174 32.8904 44.8174 34.6887Z" fill="#051B52"></path><path fill-rule="evenodd" clip-rule="evenodd" d="M39.4062 40.7204H38.8762C35.2704 40.7204 32.8299 37.9695 32.8299 34.6888C32.8299 31.62 34.9519 28.7631 38.8762 28.7631C39.7248 28.7631 40.5734 28.8681 41.2086 29.186C41.4219 28.4443 41.6334 27.7045 41.9519 26.9638C40.9972 26.646 39.9362 26.4341 38.8762 26.4341C34.1033 26.4341 30.2852 30.1386 30.2852 34.6888C30.2852 39.4509 34.1033 43.0485 38.8762 43.0485H39.4062C39.4062 42.6256 39.3 42.0959 39.3 41.673C39.3 41.3552 39.4062 41.0383 39.4062 40.7204Z" fill="#051B52"></path><path fill-rule="evenodd" clip-rule="evenodd" d="M45.0274 50.5616C48.8455 50.5616 50.9665 53.4185 50.9665 56.4873C50.9665 59.2382 49.2703 61.6722 46.6184 62.3079C47.0422 63.0487 47.467 63.6834 47.8908 64.4241C51.1789 63.2606 53.6185 60.2968 53.6185 56.4873C53.6185 51.9371 49.6941 48.2335 45.0274 48.2335C43.8612 48.2335 42.6941 48.4454 41.7402 48.8683C41.8455 49.609 41.9517 50.4556 42.164 51.1964C43.0126 50.7735 43.9664 50.5616 45.0274 50.5616Z" fill="#051B52"></path><path fill-rule="evenodd" clip-rule="evenodd" d="M39.0865 56.4877C39.0865 54.9003 39.6175 53.4189 40.6775 52.2553C40.4651 51.4087 40.2537 50.562 40.1475 49.7153C37.9203 51.1968 36.4355 53.7367 36.4355 56.4877C36.4355 61.2507 40.2537 64.8474 45.0266 64.8474C45.3442 64.8474 45.769 64.8474 46.0876 64.7424C45.6628 64.0017 45.1328 63.261 44.708 62.5202C41.3146 62.3083 39.0865 59.7684 39.0865 56.4877Z" fill="#051B52"></path><path fill-rule="evenodd" clip-rule="evenodd" d="M86.7072 48.5514V58.1816C86.7072 60.4037 85.9648 62.5199 83.1014 62.5199C80.2371 62.5199 79.4947 60.4037 79.4947 58.1816V48.5514H76.8438V58.7104C76.8438 62.202 79.0709 64.8479 83.1014 64.8479C87.132 64.8479 89.3582 62.202 89.3582 58.7104V48.5514H86.7072Z" fill="#051B52"></path><path fill-rule="evenodd" clip-rule="evenodd" d="M88.8297 18.8152H96.0421V21.0373H86.1777V5.05859H88.8297V18.8152Z" fill="#051B52"></path><path fill-rule="evenodd" clip-rule="evenodd" d="M0.162109 26.7518H9.49554V29.079H2.81309V32.8894H9.38935V35.2175H2.81309V40.4025H9.49554V42.7305H0.162109V26.7518Z" fill="#051B52"></path><path fill-rule="evenodd" clip-rule="evenodd" d="M52.873 25.9055L63.9036 37.2281V26.7522H66.5546V43.3656L55.524 32.255V42.7309H52.873V25.9055Z" fill="#051B52"></path><path fill-rule="evenodd" clip-rule="evenodd" d="M118.633 26.7518H121.285V42.7305H118.633V26.7518Z" fill="#051B52"></path><path fill-rule="evenodd" clip-rule="evenodd" d="M25.9342 50.8795V54.689H31.6609V56.9121H25.9342V64.5301H23.2832V48.5514H31.8743V50.8795H25.9342Z" fill="#051B52"></path><path fill-rule="evenodd" clip-rule="evenodd" d="M36.5387 15.0058H36.6449L39.1897 5.0587H41.7364L37.2811 21.6731L31.6596 9.71486L26.039 21.6731L21.4785 5.0587H24.1295L26.6752 15.0058L31.6596 4.74084L36.5387 15.0058Z" fill="#051B52"></path><path fill-rule="evenodd" clip-rule="evenodd" d="M97.8432 32.7833H97.737L95.1913 42.7304H92.6465L97.1008 26.1169L102.722 38.1802L108.344 26.1169L112.904 42.7304H110.252L107.707 32.7833H107.6L102.722 43.1542L97.8432 32.7833Z" fill="#051B52"></path><path fill-rule="evenodd" clip-rule="evenodd" d="M99.2221 54.5825L96.6764 64.5296H94.0254L98.4797 47.9152L104.207 59.8734L109.829 47.9152L114.282 64.5296H111.631L109.086 54.5825L104.207 64.8474L99.2221 54.5825Z" fill="#051B52"></path><path fill-rule="evenodd" clip-rule="evenodd" d="M63.5864 48.5514C65.0712 48.5514 66.7684 48.5514 68.0408 49.2921C69.4203 50.0328 70.2679 51.6202 70.2679 53.1016C70.2679 55.4297 68.6779 57.3349 66.3436 57.5458L71.4351 64.5301H68.4655L63.6926 57.7578H61.8893V64.5301H59.2383V48.5514H63.5864ZM61.8893 55.6416H63.0564C65.1774 55.6416 67.7231 55.7466 67.7231 53.2075C67.7231 50.6676 65.0712 50.7735 62.9502 50.7735H61.8893V55.6416Z" fill="#051B52"></path><path fill-rule="evenodd" clip-rule="evenodd" d="M72.602 5.05859C74.0868 5.05859 75.784 5.05859 77.0564 5.7993C78.4359 6.54001 79.1774 8.12738 79.1774 9.6088C79.1774 11.9378 77.6935 13.8421 75.254 14.0531L80.4507 21.0373H77.4812L72.602 14.265H70.9049V21.0373H68.2539V5.05859H72.602ZM70.9049 12.1488H72.072C74.193 12.1488 76.6326 12.2547 76.6326 9.71475C76.6326 7.17477 73.9806 7.28168 71.9659 7.28168H70.9049V12.1488Z" fill="#051B52"></path><path fill-rule="evenodd" clip-rule="evenodd" d="M103.361 18.8152H104.846C108.346 18.8152 111.633 17.5447 111.633 12.9945C111.633 8.33833 108.346 7.28072 104.846 7.28072H103.361V18.8152ZM100.709 5.05859H105.057C110.149 5.05859 114.285 7.49167 114.285 12.9945C114.285 18.4973 110.255 21.0373 105.057 21.0373H100.709V5.05859Z" fill="#051B52"></path><path fill-rule="evenodd" clip-rule="evenodd" d="M138.783 39.9797C137.935 40.5085 136.98 40.7204 135.814 40.7204C132.313 40.7204 129.875 38.0745 129.875 34.7938C129.875 31.62 131.996 28.7622 135.814 28.7622C136.98 28.7622 137.935 28.9741 138.783 29.3969L140.056 27.4926C138.889 26.8579 137.405 26.4341 135.814 26.4341C131.147 26.4341 127.223 30.1386 127.223 34.7938C127.223 39.4509 131.147 43.0485 135.814 43.0485C137.405 43.0485 138.889 42.7306 140.162 41.9899L138.783 39.9797Z" fill="#051B52"></path><path fill-rule="evenodd" clip-rule="evenodd" d="M26.0403 39.9797C25.1918 40.5085 24.237 40.7204 23.177 40.7204C19.5703 40.7204 17.1307 38.0745 17.1307 34.7938C17.1307 31.62 19.2517 28.7622 23.177 28.7622C24.237 28.7622 25.1918 28.9741 26.0403 29.3969L27.4189 27.4926C26.1465 26.8579 24.6608 26.4341 23.177 26.4341C18.4041 26.4341 14.5859 30.1386 14.5859 34.7938C14.5859 39.4509 18.4041 43.0485 23.177 43.0485C24.6608 43.0485 26.1465 42.7306 27.4189 41.9899L26.0403 39.9797Z" fill="#051B52"></path><path fill-rule="evenodd" clip-rule="evenodd" d="M86.6024 34.7944C86.6024 31.6197 84.4814 28.7628 80.6633 28.7628C76.739 28.7628 74.6171 31.6197 74.6171 34.7944C74.6171 38.0751 77.0566 40.7201 80.6633 40.7201C84.1629 40.7201 86.6024 38.0751 86.6024 34.7944ZM89.2544 34.7944C89.2544 39.4506 85.3291 43.0491 80.6633 43.0491C75.8904 43.0491 72.0723 39.4506 72.0723 34.7944C72.0723 30.1382 75.8904 26.4347 80.6633 26.4347C85.3291 26.4347 89.2544 30.1382 89.2544 34.7944Z" fill="#051B52"></path></svg>