<?xml version="1.0" standalone="no"?>
<!DOCTYPE svg PUBLIC "-//W3C//DTD SVG 1.1//EN" "http://www.w3.org/Graphics/SVG/1.1/DTD/svg11.dtd" >
<svg>
<metadata>
Created by FontForge 20120731 at Tue Feb 14 09:01:56 2023
 By fw_worker
Copyright \(c\) 2019 by Nick Losacco. All rights reserved.
</metadata>
<defs>
<font id="Telegraf-UltraBold" horiz-adv-x="0" >
  <font-face 
    font-family="Telegraf UltraBold"
    font-weight="800"
    font-stretch="normal"
    units-per-em="1000"
    panose-1="0 0 9 0 0 0 0 0 0 0"
    ascent="800"
    descent="-200"
    x-height="500"
    cap-height="665"
    bbox="-508 -375 1453 1022"
    underline-thickness="30"
    underline-position="-50"
    stemh="130"
    stemv="172"
    unicode-range="U+0020-25CF"
  />
<missing-glyph horiz-adv-x="450" 
d="M369 700v-900h-285v900h285zM300 640h-149v-30h59v-33h-60v-30h150v30h-60v33h60v30zM240 524h-90v-94h150v31h-60v63zM210 493v-32h-30v32h30zM300 406h-150v-30h60v-33h-60v-30h90v63h60v30zM300 352h-30v-60h-120v-30h150v90zM300 242h-90v-50h30v20h30v-42h-90v72
h-30v-102h150v102zM300 86h-150v-102h150v102zM270 57v-43h-90v43h90zM300 -36h-150v-30h63l-63 -42v-30h150v30h-92l63 42h29v30z" />
    <glyph glyph-name="f_f" unicode="ff" horiz-adv-x="769" 
d="M769 576h-168v-76h143v-129h-116v-371h-172v371h-180v-371h-172v371h-91v80l91 50v33c0 100 51 166 177 166h109v-124h-140v-76h206v26c0 108 50 174 176 174h137v-124z" />
    <glyph glyph-name="f_f_i" unicode="ffi" horiz-adv-x="1011" 
d="M601 576v-76h131v-129h-104v-371h-172v371h-180v-371h-172v371h-91v80l91 50v33c0 100 51 166 177 166h109v-124h-140v-76h206v26c0 108 50 174 176 174h329v-124h-360zM791 500h172v-500h-172v500z" />
    <glyph glyph-name="f_f_l" unicode="ffl" horiz-adv-x="1031" 
d="M980 700v-700h-172v576h-206v-76h131v-129h-105v-371h-172v371h-180v-371h-172v371h-91v80l91 50v33c0 100 51 166 177 166h109v-124h-140v-76h206v26c0 108 51 174 177 174h347z" />
    <glyph glyph-name="f_i" unicode="fi" horiz-adv-x="670" 
d="M104 0v371h-91v80l91 50v25c0 108 51 174 177 174h329v-124h-360v-76h131v-129h-105v-371h-172zM440 0v500h172v-500h-172z" />
    <glyph glyph-name="f_l" unicode="fl" horiz-adv-x="679" 
d="M628 700v-700h-172v576h-206v-76h131v-129h-105v-371h-172v371h-91v80l91 50v25c0 108 51 174 177 174h347z" />
    <glyph glyph-name=".notdef" horiz-adv-x="450" 
d="M369 700v-900h-285v900h285zM300 640h-149v-30h59v-33h-60v-30h150v30h-60v33h60v30zM240 524h-90v-94h150v31h-60v63zM210 493v-32h-30v32h30zM300 406h-150v-30h60v-33h-60v-30h90v63h60v30zM300 352h-30v-60h-120v-30h150v90zM300 242h-90v-50h30v20h30v-42h-90v72
h-30v-102h150v102zM300 86h-150v-102h150v102zM270 57v-43h-90v43h90zM300 -36h-150v-30h63l-63 -42v-30h150v30h-92l63 42h29v30z" />
    <glyph glyph-name="space" unicode=" " horiz-adv-x="257" 
 />
    <glyph glyph-name="A" unicode="A" horiz-adv-x="780" 
d="M576 0l-43 125h-286l-43 -125h-176l227 665h271l227 -665h-177zM292 258h196l-98 285z" />
    <glyph glyph-name="Aacute" unicode="&#xc1;" horiz-adv-x="780" 
d="M543 742l-294 -21l-10 42l274 84zM576 0l-43 125h-286l-43 -125h-176l227 665h271l227 -665h-177zM292 258h196l-98 285z" />
    <glyph glyph-name="Abreve" unicode="&#x102;" horiz-adv-x="780" 
d="M391 720c-122 0 -154 59 -156 108h95c2 -27 24 -46 61 -46s60 19 62 46h94c-2 -49 -34 -108 -156 -108zM576 0l-43 125h-286l-43 -125h-176l227 665h271l227 -665h-177zM292 258h196l-98 285z" />
    <glyph glyph-name="uni01CD" unicode="&#x1cd;" horiz-adv-x="780" 
d="M430 715h-77l-128 74l51 56l115 -64l116 64l50 -56zM576 0l-43 125h-286l-43 -125h-176l227 665h271l227 -665h-177zM292 258h196l-98 285z" />
    <glyph glyph-name="Acircumflex" unicode="&#xc2;" horiz-adv-x="780" 
d="M391 789l-115 -64l-51 56l128 74h77l127 -74l-50 -56zM576 0l-43 125h-286l-43 -125h-176l227 665h271l227 -665h-177zM292 258h196l-98 285z" />
    <glyph glyph-name="Adieresis" unicode="&#xc4;" horiz-adv-x="780" 
d="M362 833v-105h-146v105h146zM566 833v-105h-146v105h146zM576 0l-43 125h-286l-43 -125h-176l227 665h271l227 -665h-177zM292 258h196l-98 285z" />
    <glyph glyph-name="Agrave" unicode="&#xc0;" horiz-adv-x="780" 
d="M543 763l-11 -42l-293 21l29 105zM576 0l-43 125h-286l-43 -125h-176l227 665h271l227 -665h-177zM292 258h196l-98 285z" />
    <glyph glyph-name="Amacron" unicode="&#x100;" horiz-adv-x="780" 
d="M599 833v-100h-415v100h415zM576 0l-43 125h-286l-43 -125h-176l227 665h271l227 -665h-177zM292 258h196l-98 285z" />
    <glyph glyph-name="Aogonek" unicode="&#x104;" horiz-adv-x="780" 
d="M652 -95c19 0 34 2 49 7l2 -104c-16 -8 -40 -12 -68 -12c-86 0 -147 50 -147 127c0 50 23 96 69 131l-24 71h-286l-43 -125h-176l227 665h271l227 -665h-155c-5 -11 -7 -23 -7 -35c0 -40 30 -60 61 -60zM292 258h196l-98 285z" />
    <glyph glyph-name="Aring" unicode="&#xc5;" horiz-adv-x="780" 
d="M391 698c-75 0 -118 53 -118 116c0 61 43 114 118 114s118 -53 118 -114c0 -63 -43 -116 -118 -116zM391 854c-20 0 -39 -12 -39 -40s19 -41 39 -41s39 13 39 41s-19 40 -39 40zM576 0l-43 125h-286l-43 -125h-176l227 665h271l227 -665h-177zM292 258h196l-98 285z" />
    <glyph glyph-name="Atilde" unicode="&#xc3;" horiz-adv-x="780" 
d="M305 733v-12h-102v29c0 65 40 90 97 90c75 0 109 -49 151 -49c19 0 26 13 26 35v12h102v-26c0 -65 -40 -93 -97 -93c-71 0 -113 49 -150 49c-20 0 -27 -13 -27 -35zM576 0l-43 125h-286l-43 -125h-176l227 665h271l227 -665h-177zM292 258h196l-98 285z" />
    <glyph glyph-name="AE" unicode="&#xc6;" horiz-adv-x="1115" 
d="M711 139h359v-139h-535v125h-259l-78 -125h-173v6l413 659h629v-139h-356v-123h326v-129h-326v-135zM360 258h175v279z" />
    <glyph glyph-name="B" unicode="B" horiz-adv-x="688" 
d="M504 343c84 -15 149 -53 149 -162c0 -114 -76 -181 -218 -181h-381v665h388c142 0 201 -74 201 -164c0 -98 -59 -141 -139 -158zM386 533h-156v-137h155c57 0 74 30 74 69c0 43 -21 68 -73 68zM390 132c60 0 79 31 79 74s-21 75 -84 75h-155v-149h160z" />
    <glyph glyph-name="C" unicode="C" horiz-adv-x="779" 
d="M393 -16c-257 0 -353 165 -353 348c0 178 97 350 354 350c238 0 332 -95 346 -286h-181c-8 90 -46 142 -162 142c-121 0 -173 -69 -173 -206c0 -135 48 -205 168 -205c119 0 162 50 169 147h183c-16 -204 -107 -290 -351 -290z" />
    <glyph glyph-name="Cacute" unicode="&#x106;" horiz-adv-x="779" 
d="M541 742l-294 -21l-10 42l274 84zM393 -16c-257 0 -353 165 -353 348c0 178 97 350 354 350c238 0 332 -95 346 -286h-181c-8 90 -46 142 -162 142c-121 0 -173 -69 -173 -206c0 -135 48 -205 168 -205c119 0 162 50 169 147h183c-16 -204 -107 -290 -351 -290z" />
    <glyph glyph-name="Ccaron" unicode="&#x10c;" horiz-adv-x="779" 
d="M223 789l51 56l115 -64l116 64l50 -56l-127 -74h-77zM393 -16c-257 0 -353 165 -353 348c0 178 97 350 354 350c238 0 332 -95 346 -286h-181c-8 90 -46 142 -162 142c-121 0 -173 -69 -173 -206c0 -135 48 -205 168 -205c119 0 162 50 169 147h183
c-16 -204 -107 -290 -351 -290z" />
    <glyph glyph-name="Ccedilla" unicode="&#xc7;" horiz-adv-x="779" 
d="M744 274c-14 -181 -87 -269 -273 -287l16 -77c11 -56 -18 -102 -83 -102h-114v105h80l-17 72c-227 17 -313 174 -313 347c0 178 97 350 354 350c238 0 332 -95 346 -286h-181c-8 90 -46 142 -162 142c-121 0 -173 -69 -173 -206c0 -135 48 -205 168 -205
c119 0 162 50 169 147h183z" />
    <glyph glyph-name="Cdotaccent" unicode="&#x10a;" horiz-adv-x="779" 
d="M300 728v105h178v-105h-178zM393 -16c-257 0 -353 165 -353 348c0 178 97 350 354 350c238 0 332 -95 346 -286h-181c-8 90 -46 142 -162 142c-121 0 -173 -69 -173 -206c0 -135 48 -205 168 -205c119 0 162 50 169 147h183c-16 -204 -107 -290 -351 -290z" />
    <glyph glyph-name="D" unicode="D" horiz-adv-x="740" 
d="M390 665c216 0 315 -158 315 -331s-99 -334 -315 -334h-336v665h336zM350 139c121 0 171 67 171 195c0 130 -51 192 -171 192h-120v-387h120z" />
    <glyph glyph-name="Eth" unicode="&#xd0;" horiz-adv-x="818" 
d="M468 665c216 0 316 -158 316 -331s-100 -334 -316 -334h-336v274h-106v116h106v275h336zM428 139c122 0 172 67 172 195c0 130 -52 192 -172 192h-119v-136h147v-116h-147v-135h119z" />
    <glyph glyph-name="Dcaron" unicode="&#x10e;" horiz-adv-x="740" 
d="M409 715h-77l-128 74l51 56l115 -64l116 64l50 -56zM390 665c216 0 315 -158 315 -331s-99 -334 -315 -334h-336v665h336zM350 139c121 0 171 67 171 195c0 130 -51 192 -171 192h-120v-387h120z" />
    <glyph glyph-name="Dcroat" unicode="&#x110;" horiz-adv-x="818" 
d="M468 665c216 0 316 -158 316 -331s-100 -334 -316 -334h-336v274h-106v116h106v275h336zM428 139c122 0 172 67 172 195c0 130 -52 192 -172 192h-119v-136h147v-116h-147v-135h119z" />
    <glyph glyph-name="E" unicode="E" horiz-adv-x="634" 
d="M230 139h359v-139h-535v665h532v-139h-356v-123h326v-129h-326v-135z" />
    <glyph glyph-name="Eacute" unicode="&#xc9;" horiz-adv-x="634" 
d="M470 742l-294 -21l-10 42l274 84zM230 139h359v-139h-535v665h532v-139h-356v-123h326v-129h-326v-135z" />
    <glyph glyph-name="Ecaron" unicode="&#x11a;" horiz-adv-x="634" 
d="M357 715h-77l-128 74l51 56l115 -64l116 64l50 -56zM230 139h359v-139h-535v665h532v-139h-356v-123h326v-129h-326v-135z" />
    <glyph glyph-name="Ecircumflex" unicode="&#xca;" horiz-adv-x="634" 
d="M318 789l-115 -64l-51 56l128 74h77l127 -74l-50 -56zM230 139h359v-139h-535v665h532v-139h-356v-123h326v-129h-326v-135z" />
    <glyph glyph-name="Edieresis" unicode="&#xcb;" horiz-adv-x="634" 
d="M289 833v-105h-146v105h146zM493 833v-105h-146v105h146zM230 139h359v-139h-535v665h532v-139h-356v-123h326v-129h-326v-135z" />
    <glyph glyph-name="Edotaccent" unicode="&#x116;" horiz-adv-x="634" 
d="M407 833v-105h-178v105h178zM230 139h359v-139h-535v665h532v-139h-356v-123h326v-129h-326v-135z" />
    <glyph glyph-name="Egrave" unicode="&#xc8;" horiz-adv-x="634" 
d="M470 763l-11 -42l-293 21l29 105zM230 139h359v-139h-535v665h532v-139h-356v-123h326v-129h-326v-135z" />
    <glyph glyph-name="Emacron" unicode="&#x112;" horiz-adv-x="634" 
d="M526 833v-100h-415v100h415zM230 139h359v-139h-535v665h532v-139h-356v-123h326v-129h-326v-135z" />
    <glyph glyph-name="Eogonek" unicode="&#x118;" horiz-adv-x="634" 
d="M589 0h-114c-5 -11 -7 -23 -7 -35c0 -40 30 -60 61 -60c19 0 34 2 49 7l2 -104c-16 -8 -40 -12 -68 -12c-86 0 -147 50 -147 127c0 27 7 53 21 77h-332v665h532v-139h-356v-123h326v-129h-326v-135h359v-139z" />
    <glyph glyph-name="F" unicode="F" horiz-adv-x="618" 
d="M581 526h-351v-138h315v-129h-315v-259h-176v665h527v-139z" />
    <glyph glyph-name="G" unicode="G" horiz-adv-x="794" 
d="M354 -16c-217 0 -314 159 -314 348c0 193 107 350 366 350c230 0 320 -107 329 -237h-176c-8 58 -57 101 -152 101c-119 0 -183 -64 -183 -214c0 -141 53 -212 172 -212c120 0 160 59 171 134h-215v111h382v-365h-147v122c-26 -71 -87 -138 -233 -138z" />
    <glyph glyph-name="Gbreve" unicode="&#x11e;" horiz-adv-x="794" 
d="M239 828h95c2 -27 24 -46 61 -46s60 19 62 46h94c-2 -49 -34 -108 -156 -108s-154 59 -156 108zM354 -16c-217 0 -314 159 -314 348c0 193 107 350 366 350c230 0 320 -107 329 -237h-176c-8 58 -57 101 -152 101c-119 0 -183 -64 -183 -214c0 -141 53 -212 172 -212
c120 0 160 59 171 134h-215v111h382v-365h-147v122c-26 -71 -87 -138 -233 -138z" />
    <glyph glyph-name="uni0122" unicode="&#x122;" horiz-adv-x="794" 
d="M354 -16c-217 0 -314 159 -314 348c0 193 107 350 366 350c230 0 320 -107 329 -237h-176c-8 58 -57 101 -152 101c-119 0 -183 -64 -183 -214c0 -141 53 -212 172 -212c120 0 160 59 171 134h-215v111h382v-365h-147v122c-26 -71 -87 -138 -233 -138zM318 -189v142h154
v-217c0 -64 -20 -111 -116 -111h-38v88h59v98h-59z" />
    <glyph glyph-name="Gdotaccent" unicode="&#x120;" horiz-adv-x="794" 
d="M307 728v105h178v-105h-178zM354 -16c-217 0 -314 159 -314 348c0 193 107 350 366 350c230 0 320 -107 329 -237h-176c-8 58 -57 101 -152 101c-119 0 -183 -64 -183 -214c0 -141 53 -212 172 -212c120 0 160 59 171 134h-215v111h382v-365h-147v122
c-26 -71 -87 -138 -233 -138z" />
    <glyph glyph-name="H" unicode="H" horiz-adv-x="738" 
d="M508 665h176v-665h-176v269h-278v-269h-176v665h176v-259h278v259z" />
    <glyph glyph-name="Hbar" unicode="&#x126;" horiz-adv-x="872" 
d="M845 599v-116h-104v-483h-176v269h-278v-269h-176v483h-85v116h85v66h176v-66h278v66h176v-66h104zM565 406v77h-278v-77h278z" />
    <glyph glyph-name="I" unicode="I" horiz-adv-x="518" 
d="M464 526h-117v-387h117v-139h-410v139h117v387h-117v139h410v-139z" />
    <glyph glyph-name="Iacute" unicode="&#xcd;" horiz-adv-x="518" 
d="M411 742l-294 -21l-10 42l274 84zM464 526h-117v-387h117v-139h-410v139h117v387h-117v139h410v-139z" />
    <glyph glyph-name="uni01CF" unicode="&#x1cf;" horiz-adv-x="518" 
d="M298 715h-77l-128 74l51 56l115 -64l116 64l50 -56zM464 526h-117v-387h117v-139h-410v139h117v387h-117v139h410v-139z" />
    <glyph glyph-name="Icircumflex" unicode="&#xce;" horiz-adv-x="518" 
d="M259 789l-115 -64l-51 56l128 74h77l127 -74l-50 -56zM464 526h-117v-387h117v-139h-410v139h117v387h-117v139h410v-139z" />
    <glyph glyph-name="Idieresis" unicode="&#xcf;" horiz-adv-x="518" 
d="M230 833v-105h-146v105h146zM434 833v-105h-146v105h146zM464 526h-117v-387h117v-139h-410v139h117v387h-117v139h410v-139z" />
    <glyph glyph-name="Idotaccent" unicode="&#x130;" horiz-adv-x="518" 
d="M348 833v-105h-178v105h178zM464 526h-117v-387h117v-139h-410v139h117v387h-117v139h410v-139z" />
    <glyph glyph-name="Igrave" unicode="&#xcc;" horiz-adv-x="518" 
d="M411 763l-11 -42l-293 21l29 105zM464 526h-117v-387h117v-139h-410v139h117v387h-117v139h410v-139z" />
    <glyph glyph-name="Imacron" unicode="&#x12a;" horiz-adv-x="518" 
d="M51 833h415v-100h-415v100zM54 526v139h410v-139h-117v-387h117v-139h-410v139h117v387h-117z" />
    <glyph glyph-name="Iogonek" unicode="&#x12e;" horiz-adv-x="518" 
d="M466 -88l2 -104c-16 -8 -40 -12 -68 -12c-86 0 -147 50 -147 127c0 27 7 53 21 77h-220v139h117v387h-117v139h410v-139h-117v-387h117v-139h-101c-5 -11 -7 -23 -7 -35c0 -40 30 -60 61 -60c19 0 34 2 49 7z" />
    <glyph glyph-name="J" unicode="J" horiz-adv-x="465" 
d="M32 0v139h207v526h176v-423c0 -174 -65 -242 -240 -242h-143z" />
    <glyph glyph-name="K" unicode="K" horiz-adv-x="723" 
d="M446 383l255 -374v-9h-211l-161 253l-99 -109v-144h-176v665h176v-294l242 294h228z" />
    <glyph glyph-name="uni0136" unicode="&#x136;" horiz-adv-x="723" 
d="M446 383l255 -374v-9h-211l-161 253l-99 -109v-144h-176v665h176v-294l242 294h228zM284 -189v142h154v-217c0 -64 -20 -111 -116 -111h-38v88h59v98h-59z" />
    <glyph glyph-name="L" unicode="L" horiz-adv-x="555" 
d="M232 139h299v-139h-477v665h178v-526z" />
    <glyph glyph-name="Lacute" unicode="&#x139;" horiz-adv-x="555" 
d="M266 847l30 -105l-294 -21l-11 42zM232 139h299v-139h-477v665h178v-526z" />
    <glyph glyph-name="Lcaron" unicode="&#x13d;" horiz-adv-x="555" 
d="M437 555h-112l-14 278h140zM232 139h299v-139h-477v665h178v-526z" />
    <glyph glyph-name="uni013B" unicode="&#x13b;" horiz-adv-x="555" 
d="M232 139h299v-139h-477v665h178v-526zM205 -189v142h154v-217c0 -64 -20 -111 -116 -111h-38v88h59v98h-59z" />
    <glyph glyph-name="Lslash" unicode="&#x141;" horiz-adv-x="638" 
d="M315 139h298v-139h-476v243l-111 -43v131l111 43v291h178v-221l168 66v-131l-168 -66v-174z" />
    <glyph glyph-name="M" unicode="M" horiz-adv-x="978" 
d="M924 665v-665h-176v551l-160 -551h-197l-161 555v-555h-176v665h303l135 -483l136 483h296z" />
    <glyph glyph-name="N" unicode="N" horiz-adv-x="782" 
d="M560 665h168v-665h-289l-185 434c-13 30 -23 62 -32 94v-528h-168v665h289l187 -443c11 -26 21 -56 30 -86v529z" />
    <glyph glyph-name="Nacute" unicode="&#x143;" horiz-adv-x="782" 
d="M544 742l-294 -21l-10 42l274 84zM560 665h168v-665h-289l-185 434c-13 30 -23 62 -32 94v-528h-168v665h289l187 -443c11 -26 21 -56 30 -86v529z" />
    <glyph glyph-name="Ncaron" unicode="&#x147;" horiz-adv-x="782" 
d="M430 715h-77l-128 74l51 56l115 -64l116 64l50 -56zM560 665h168v-665h-289l-185 434c-13 30 -23 62 -32 94v-528h-168v665h289l187 -443c11 -26 21 -56 30 -86v529z" />
    <glyph glyph-name="uni0145" unicode="&#x145;" horiz-adv-x="782" 
d="M560 665h168v-665h-289l-185 434c-13 30 -23 62 -32 94v-528h-168v665h289l187 -443c11 -26 21 -56 30 -86v529zM314 -189v142h154v-217c0 -64 -20 -111 -116 -111h-38v88h59v98h-59z" />
    <glyph glyph-name="Eng" unicode="&#x14a;" horiz-adv-x="782" 
d="M560 665h168v-691c0 -129 -48 -197 -200 -197h-92v137h124v86h-121l-185 434c-13 30 -23 62 -32 94v-528h-168v665h289l187 -443c11 -26 21 -56 30 -86v529z" />
    <glyph glyph-name="Ntilde" unicode="&#xd1;" horiz-adv-x="782" 
d="M305 733v-12h-102v29c0 65 40 90 97 90c75 0 109 -49 151 -49c19 0 26 13 26 35v12h102v-26c0 -65 -40 -93 -97 -93c-71 0 -113 49 -150 49c-20 0 -27 -13 -27 -35zM560 665h168v-665h-289l-185 434c-13 30 -23 62 -32 94v-528h-168v665h289l187 -443
c11 -26 21 -56 30 -86v529z" />
    <glyph glyph-name="O" unicode="O" horiz-adv-x="795" 
d="M397 -16c-262 0 -357 170 -357 348c0 175 95 350 357 350c264 0 358 -176 358 -350c0 -177 -94 -348 -358 -348zM224 332c0 -130 36 -205 173 -205c139 0 174 75 174 205c0 132 -35 206 -174 206c-137 0 -173 -74 -173 -206z" />
    <glyph glyph-name="Oacute" unicode="&#xd3;" horiz-adv-x="795" 
d="M550 742l-294 -21l-10 42l274 84zM397 -16c-262 0 -357 170 -357 348c0 175 95 350 357 350c264 0 358 -176 358 -350c0 -177 -94 -348 -358 -348zM224 332c0 -130 36 -205 173 -205c139 0 174 75 174 205c0 132 -35 206 -174 206c-137 0 -173 -74 -173 -206z" />
    <glyph glyph-name="uni01D1" unicode="&#x1d1;" horiz-adv-x="795" 
d="M231 789l51 56l115 -64l116 64l50 -56l-127 -74h-77zM397 -16c-262 0 -357 170 -357 348c0 175 95 350 357 350c264 0 358 -176 358 -350c0 -177 -94 -348 -358 -348zM224 332c0 -130 36 -205 173 -205c139 0 174 75 174 205c0 132 -35 206 -174 206
c-137 0 -173 -74 -173 -206z" />
    <glyph glyph-name="Ocircumflex" unicode="&#xd4;" horiz-adv-x="795" 
d="M231 781l128 74h77l127 -74l-50 -56l-116 64l-115 -64zM397 -16c-262 0 -357 170 -357 348c0 175 95 350 357 350c264 0 358 -176 358 -350c0 -177 -94 -348 -358 -348zM224 332c0 -130 36 -205 173 -205c139 0 174 75 174 205c0 132 -35 206 -174 206
c-137 0 -173 -74 -173 -206z" />
    <glyph glyph-name="Odieresis" unicode="&#xd6;" horiz-adv-x="795" 
d="M222 728v105h146v-105h-146zM426 728v105h146v-105h-146zM397 -16c-262 0 -357 170 -357 348c0 175 95 350 357 350c264 0 358 -176 358 -350c0 -177 -94 -348 -358 -348zM224 332c0 -130 36 -205 173 -205c139 0 174 75 174 205c0 132 -35 206 -174 206
c-137 0 -173 -74 -173 -206z" />
    <glyph glyph-name="Ograve" unicode="&#xd2;" horiz-adv-x="795" 
d="M246 742l29 105l275 -84l-11 -42zM397 -16c-262 0 -357 170 -357 348c0 175 95 350 357 350c264 0 358 -176 358 -350c0 -177 -94 -348 -358 -348zM224 332c0 -130 36 -205 173 -205c139 0 174 75 174 205c0 132 -35 206 -174 206c-137 0 -173 -74 -173 -206z" />
    <glyph glyph-name="Ohungarumlaut" unicode="&#x150;" horiz-adv-x="795" 
d="M615 793l-171 -87l-30 31l126 135zM393 787l-172 -88l-29 32l126 134zM397 -16c-262 0 -357 170 -357 348c0 175 95 350 357 350c264 0 358 -176 358 -350c0 -177 -94 -348 -358 -348zM224 332c0 -130 36 -205 173 -205c139 0 174 75 174 205c0 132 -35 206 -174 206
c-137 0 -173 -74 -173 -206z" />
    <glyph glyph-name="Omacron" unicode="&#x14c;" horiz-adv-x="795" 
d="M190 833h415v-100h-415v100zM397 -16c-262 0 -357 170 -357 348c0 175 95 350 357 350c264 0 358 -176 358 -350c0 -177 -94 -348 -358 -348zM224 332c0 -130 36 -205 173 -205c139 0 174 75 174 205c0 132 -35 206 -174 206c-137 0 -173 -74 -173 -206z" />
    <glyph glyph-name="Oslash" unicode="&#xd8;" horiz-adv-x="795" 
d="M580 645c126 -61 175 -187 175 -313c0 -177 -94 -348 -358 -348c-27 0 -53 2 -76 5l-68 -171l-105 39l65 164c-124 60 -173 183 -173 311c0 175 95 350 357 350c27 0 51 -2 75 -5l49 125l105 -40zM224 332c0 -74 12 -130 47 -164l146 369c-7 1 -13 1 -20 1
c-137 0 -173 -74 -173 -206zM397 127c139 0 174 75 174 205c0 76 -12 133 -49 168l-147 -372c7 -1 14 -1 22 -1z" />
    <glyph glyph-name="Otilde" unicode="&#xd5;" horiz-adv-x="795" 
d="M488 719c-71 0 -113 49 -150 49c-20 0 -27 -13 -27 -35v-12h-102v29c0 65 40 90 97 90c75 0 109 -49 151 -49c19 0 26 13 26 35v12h102v-26c0 -65 -40 -93 -97 -93zM397 -16c-262 0 -357 170 -357 348c0 175 95 350 357 350c264 0 358 -176 358 -350
c0 -177 -94 -348 -358 -348zM224 332c0 -130 36 -205 173 -205c139 0 174 75 174 205c0 132 -35 206 -174 206c-137 0 -173 -74 -173 -206z" />
    <glyph glyph-name="OE" unicode="&#x152;" horiz-adv-x="1168" 
d="M764 139h359v-139h-535v87c-40 -62 -109 -103 -224 -103c-229 0 -324 170 -324 348c0 175 95 350 324 350c115 0 184 -42 224 -105v88h532v-139h-356v-123h326v-129h-326v-135zM397 127c139 0 174 75 174 205c0 132 -35 206 -174 206c-137 0 -173 -74 -173 -206
c0 -130 36 -205 173 -205z" />
    <glyph glyph-name="P" unicode="P" horiz-adv-x="665" 
d="M426 665c153 0 214 -99 214 -220c0 -129 -61 -228 -214 -228h-194v-217h-178v665h372zM367 353c64 0 89 39 89 91c0 51 -24 86 -87 86h-137v-177h135z" />
    <glyph glyph-name="Thorn" unicode="&#xde;" horiz-adv-x="665" 
d="M426 557c153 0 214 -99 214 -220c0 -130 -61 -228 -214 -228h-194v-109h-178v665h178v-108h194zM367 244c64 0 89 39 89 91c0 51 -24 86 -87 86h-137v-177h135z" />
    <glyph glyph-name="Q" unicode="Q" horiz-adv-x="802" 
d="M40 334c0 174 89 348 355 348s353 -173 353 -308c0 -124 -57 -205 -143 -243h166v-131h-376c-266 0 -355 157 -355 334zM224 341c0 -120 31 -197 171 -197c142 0 172 77 172 197c0 122 -30 197 -172 197c-140 0 -171 -75 -171 -197z" />
    <glyph glyph-name="R" unicode="R" horiz-adv-x="684" 
d="M628 157v-37c0 -54 6 -82 13 -120h-178c-8 27 -12 65 -12 120v27c0 64 -41 94 -98 94h-121v-241h-178v665h368c150 0 223 -77 223 -184c0 -95 -61 -159 -144 -176c69 -15 127 -50 127 -148zM375 367c61 0 86 28 86 85c0 52 -26 78 -85 78h-144v-163h143z" />
    <glyph glyph-name="Racute" unicode="&#x154;" horiz-adv-x="684" 
d="M494 742l-294 -21l-10 42l274 84zM628 157v-37c0 -54 6 -82 13 -120h-178c-8 27 -12 65 -12 120v27c0 64 -41 94 -98 94h-121v-241h-178v665h368c150 0 223 -77 223 -184c0 -95 -61 -159 -144 -176c69 -15 127 -50 127 -148zM375 367c61 0 86 28 86 85
c0 52 -26 78 -85 78h-144v-163h143z" />
    <glyph glyph-name="Rcaron" unicode="&#x158;" horiz-adv-x="684" 
d="M381 715h-77l-128 74l51 56l115 -64l116 64l50 -56zM628 157v-37c0 -54 6 -82 13 -120h-178c-8 27 -12 65 -12 120v27c0 64 -41 94 -98 94h-121v-241h-178v665h368c150 0 223 -77 223 -184c0 -95 -61 -159 -144 -176c69 -15 127 -50 127 -148zM375 367c61 0 86 28 86 85
c0 52 -26 78 -85 78h-144v-163h143z" />
    <glyph glyph-name="uni0156" unicode="&#x156;" horiz-adv-x="684" 
d="M628 157v-37c0 -54 6 -82 13 -120h-178c-8 27 -12 65 -12 120v27c0 64 -41 94 -98 94h-121v-241h-178v665h368c150 0 223 -77 223 -184c0 -95 -61 -159 -144 -176c69 -15 127 -50 127 -148zM375 367c61 0 86 28 86 85c0 52 -26 78 -85 78h-144v-163h143zM265 -189v142
h154v-217c0 -64 -20 -111 -116 -111h-38v88h59v98h-59z" />
    <glyph glyph-name="S" unicode="S" horiz-adv-x="671" 
d="M35 216h171c5 -55 41 -105 134 -105c85 0 117 30 117 76c0 44 -26 66 -76 73l-145 16c-120 14 -189 82 -189 195c0 125 94 211 286 211c205 0 287 -98 296 -216h-174c-7 53 -47 88 -122 88c-68 0 -108 -27 -108 -71c0 -34 20 -59 71 -65l127 -13
c146 -14 212 -83 212 -203c0 -131 -82 -219 -298 -219c-219 0 -295 114 -302 233z" />
    <glyph glyph-name="Sacute" unicode="&#x15a;" horiz-adv-x="671" 
d="M489 742l-294 -21l-10 42l274 84zM35 216h171c5 -55 41 -105 134 -105c85 0 117 30 117 76c0 44 -26 66 -76 73l-145 16c-120 14 -189 82 -189 195c0 125 94 211 286 211c205 0 287 -98 296 -216h-174c-7 53 -47 88 -122 88c-68 0 -108 -27 -108 -71c0 -34 20 -59 71 -65
l127 -13c146 -14 212 -83 212 -203c0 -131 -82 -219 -298 -219c-219 0 -295 114 -302 233z" />
    <glyph glyph-name="Scaron" unicode="&#x160;" horiz-adv-x="671" 
d="M170 789l51 56l115 -64l116 64l50 -56l-127 -74h-77zM35 216h171c5 -55 41 -105 134 -105c85 0 117 30 117 76c0 44 -26 66 -76 73l-145 16c-120 14 -189 82 -189 195c0 125 94 211 286 211c205 0 287 -98 296 -216h-174c-7 53 -47 88 -122 88c-68 0 -108 -27 -108 -71
c0 -34 20 -59 71 -65l127 -13c146 -14 212 -83 212 -203c0 -131 -82 -219 -298 -219c-219 0 -295 114 -302 233z" />
    <glyph glyph-name="Scedilla" unicode="&#x15e;" horiz-adv-x="671" 
d="M635 202c0 -113 -61 -194 -217 -214l16 -78c11 -56 -18 -102 -83 -102h-114v105h80l-17 71c-191 12 -258 120 -265 232h171c5 -55 41 -105 134 -105c85 0 117 30 117 76c0 44 -26 66 -76 73l-145 16c-120 14 -189 82 -189 195c0 125 94 211 286 211
c205 0 287 -98 296 -216h-174c-7 53 -47 88 -122 88c-68 0 -108 -27 -108 -71c0 -34 20 -59 71 -65l127 -13c146 -14 212 -83 212 -203z" />
    <glyph glyph-name="uni0218" unicode="&#x218;" horiz-adv-x="671" 
d="M35 216h171c5 -55 41 -105 134 -105c85 0 117 30 117 76c0 44 -26 66 -76 73l-145 16c-120 14 -189 82 -189 195c0 125 94 211 286 211c205 0 287 -98 296 -216h-174c-7 53 -47 88 -122 88c-68 0 -108 -27 -108 -71c0 -34 20 -59 71 -65l127 -13
c146 -14 212 -83 212 -203c0 -131 -82 -219 -298 -219c-219 0 -295 114 -302 233zM259 -189v142h154v-217c0 -64 -20 -111 -116 -111h-38v88h59v98h-59z" />
    <glyph glyph-name="T" unicode="T" horiz-adv-x="666" 
d="M635 665v-139h-213v-526h-177v526h-214v139h604z" />
    <glyph glyph-name="Tbar" unicode="&#x166;" horiz-adv-x="666" 
d="M635 526h-213v-148h213v-139h-213v-239h-177v239h-214v139h214v148h-214v139h604v-139z" />
    <glyph glyph-name="Tcaron" unicode="&#x164;" horiz-adv-x="666" 
d="M373 715h-77l-128 74l51 56l115 -64l116 64l50 -56zM635 665v-139h-213v-526h-177v526h-214v139h604z" />
    <glyph glyph-name="uni0162" unicode="&#x162;" horiz-adv-x="666" 
d="M422 526v-526h-12l19 -89c11 -56 -18 -102 -83 -102h-114v105h80l-20 86h-47v526h-214v139h604v-139h-213z" />
    <glyph glyph-name="uni021A" unicode="&#x21a;" horiz-adv-x="666" 
d="M635 665v-139h-213v-526h-177v526h-214v139h604zM253 -188v142h154v-217c0 -64 -20 -111 -116 -111h-38v88h59v98h-59z" />
    <glyph glyph-name="U" unicode="U" horiz-adv-x="719" 
d="M50 253v412h177v-389c0 -116 42 -148 132 -148c91 0 134 32 134 148v389h176v-412c0 -177 -104 -269 -310 -269c-204 0 -309 91 -309 269z" />
    <glyph glyph-name="Uacute" unicode="&#xda;" horiz-adv-x="719" 
d="M512 742l-294 -21l-10 42l274 84zM50 253v412h177v-389c0 -116 42 -148 132 -148c91 0 134 32 134 148v389h176v-412c0 -177 -104 -269 -310 -269c-204 0 -309 91 -309 269z" />
    <glyph glyph-name="uni01D3" unicode="&#x1d3;" horiz-adv-x="719" 
d="M193 789l51 56l115 -64l116 64l50 -56l-127 -74h-77zM50 253v412h177v-389c0 -116 42 -148 132 -148c91 0 134 32 134 148v389h176v-412c0 -177 -104 -269 -310 -269c-204 0 -309 91 -309 269z" />
    <glyph glyph-name="Ucircumflex" unicode="&#xdb;" horiz-adv-x="719" 
d="M193 781l128 74h77l127 -74l-50 -56l-116 64l-115 -64zM50 253v412h177v-389c0 -116 42 -148 132 -148c91 0 134 32 134 148v389h176v-412c0 -177 -104 -269 -310 -269c-204 0 -309 91 -309 269z" />
    <glyph glyph-name="Udieresis" unicode="&#xdc;" horiz-adv-x="719" 
d="M184 728v105h146v-105h-146zM388 728v105h146v-105h-146zM50 253v412h177v-389c0 -116 42 -148 132 -148c91 0 134 32 134 148v389h176v-412c0 -177 -104 -269 -310 -269c-204 0 -309 91 -309 269z" />
    <glyph glyph-name="uni01D7" unicode="&#x1d7;" horiz-adv-x="719" 
d="M512 910l-294 -21l-10 42l274 84zM184 728v105h146v-105h-146zM388 728v105h146v-105h-146zM50 253v412h177v-389c0 -116 42 -148 132 -148c91 0 134 32 134 148v389h176v-412c0 -177 -104 -269 -310 -269c-204 0 -309 91 -309 269z" />
    <glyph glyph-name="uni01D9" unicode="&#x1d9;" horiz-adv-x="719" 
d="M193 957l51 56l115 -64l116 64l50 -56l-127 -74h-77zM184 728v105h146v-105h-146zM388 728v105h146v-105h-146zM50 253v412h177v-389c0 -116 42 -148 132 -148c91 0 134 32 134 148v389h176v-412c0 -177 -104 -269 -310 -269c-204 0 -309 91 -309 269z" />
    <glyph glyph-name="uni01DB" unicode="&#x1db;" horiz-adv-x="719" 
d="M208 910l29 105l275 -84l-11 -42zM184 728v105h146v-105h-146zM388 728v105h146v-105h-146zM50 253v412h177v-389c0 -116 42 -148 132 -148c91 0 134 32 134 148v389h176v-412c0 -177 -104 -269 -310 -269c-204 0 -309 91 -309 269z" />
    <glyph glyph-name="uni01D5" unicode="&#x1d5;" horiz-adv-x="719" 
d="M152 1001h415v-100h-415v100zM184 728v105h146v-105h-146zM388 728v105h146v-105h-146zM50 253v412h177v-389c0 -116 42 -148 132 -148c91 0 134 32 134 148v389h176v-412c0 -177 -104 -269 -310 -269c-204 0 -309 91 -309 269z" />
    <glyph glyph-name="Ugrave" unicode="&#xd9;" horiz-adv-x="719" 
d="M208 742l29 105l275 -84l-11 -42zM50 253v412h177v-389c0 -116 42 -148 132 -148c91 0 134 32 134 148v389h176v-412c0 -177 -104 -269 -310 -269c-204 0 -309 91 -309 269z" />
    <glyph glyph-name="Uhungarumlaut" unicode="&#x170;" horiz-adv-x="719" 
d="M577 793l-171 -87l-30 31l126 135zM355 787l-172 -88l-29 32l126 134zM50 253v412h177v-389c0 -116 42 -148 132 -148c91 0 134 32 134 148v389h176v-412c0 -177 -104 -269 -310 -269c-204 0 -309 91 -309 269z" />
    <glyph glyph-name="Umacron" unicode="&#x16a;" horiz-adv-x="719" 
d="M152 833h415v-100h-415v100zM50 253v412h177v-389c0 -116 42 -148 132 -148c91 0 134 32 134 148v389h176v-412c0 -177 -104 -269 -310 -269c-204 0 -309 91 -309 269z" />
    <glyph glyph-name="Uogonek" unicode="&#x172;" horiz-adv-x="719" 
d="M669 253c0 -103 -35 -177 -105 -221c-18 -21 -27 -44 -27 -67c0 -40 30 -60 61 -60c19 0 34 2 49 7l2 -104c-16 -8 -40 -12 -68 -12c-86 0 -147 50 -147 127c0 24 5 47 16 68c-28 -5 -58 -7 -91 -7c-204 0 -309 91 -309 269v412h177v-389c0 -116 42 -148 132 -148
c91 0 134 32 134 148v389h176v-412z" />
    <glyph glyph-name="Uring" unicode="&#x16e;" horiz-adv-x="719" 
d="M360 698c-75 0 -118 53 -118 116c0 61 43 114 118 114s118 -53 118 -114c0 -63 -43 -116 -118 -116zM321 814c0 -28 19 -41 39 -41s39 13 39 41s-19 40 -39 40s-39 -12 -39 -40zM50 253v412h177v-389c0 -116 42 -148 132 -148c91 0 134 32 134 148v389h176v-412
c0 -177 -104 -269 -310 -269c-204 0 -309 91 -309 269z" />
    <glyph glyph-name="V" unicode="V" horiz-adv-x="754" 
d="M546 665h177l-216 -665h-260l-216 665h182l136 -419c11 -35 21 -70 30 -105c9 35 19 70 30 105z" />
    <glyph glyph-name="W" unicode="W" horiz-adv-x="1109" 
d="M895 665h173l-114 -665h-299l-101 524l-100 -524h-298l-115 665h173l96 -558l113 558h262l114 -561z" />
    <glyph glyph-name="Wacute" unicode="&#x1e82;" horiz-adv-x="1109" 
d="M707 742l-294 -21l-10 42l274 84zM895 665h173l-114 -665h-299l-101 524l-100 -524h-298l-115 665h173l96 -558l113 558h262l114 -561z" />
    <glyph glyph-name="Wcircumflex" unicode="&#x174;" horiz-adv-x="1109" 
d="M555 789l-115 -64l-51 56l128 74h77l127 -74l-50 -56zM895 665h173l-114 -665h-299l-101 524l-100 -524h-298l-115 665h173l96 -558l113 558h262l114 -561z" />
    <glyph glyph-name="Wdieresis" unicode="&#x1e84;" horiz-adv-x="1109" 
d="M525 833v-105h-146v105h146zM729 833v-105h-146v105h146zM895 665h173l-114 -665h-299l-101 524l-100 -524h-298l-115 665h173l96 -558l113 558h262l114 -561z" />
    <glyph glyph-name="Wgrave" unicode="&#x1e80;" horiz-adv-x="1109" 
d="M707 763l-11 -42l-293 21l29 105zM895 665h173l-114 -665h-299l-101 524l-100 -524h-298l-115 665h173l96 -558l113 558h262l114 -561z" />
    <glyph glyph-name="X" unicode="X" horiz-adv-x="795" 
d="M770 0h-219l-160 204l-146 -204h-214l258 334l-259 331h216l157 -199l143 199h212l-253 -329z" />
    <glyph glyph-name="Y" unicode="Y" horiz-adv-x="718" 
d="M501 665h195l-248 -473v-192h-177v192l-250 473h198l95 -218c16 -38 31 -75 44 -113c14 38 29 75 45 113z" />
    <glyph glyph-name="Yacute" unicode="&#xdd;" horiz-adv-x="718" 
d="M512 742l-294 -21l-10 42l274 84zM501 665h195l-248 -473v-192h-177v192l-250 473h198l95 -218c16 -38 31 -75 44 -113c14 38 29 75 45 113z" />
    <glyph glyph-name="Ycircumflex" unicode="&#x176;" horiz-adv-x="718" 
d="M359 789l-115 -64l-51 56l128 74h77l127 -74l-50 -56zM501 665h195l-248 -473v-192h-177v192l-250 473h198l95 -218c16 -38 31 -75 44 -113c14 38 29 75 45 113z" />
    <glyph glyph-name="Ydieresis" unicode="&#x178;" horiz-adv-x="718" 
d="M330 833v-105h-146v105h146zM534 833v-105h-146v105h146zM501 665h195l-248 -473v-192h-177v192l-250 473h198l95 -218c16 -38 31 -75 44 -113c14 38 29 75 45 113z" />
    <glyph glyph-name="Ygrave" unicode="&#x1ef2;" horiz-adv-x="718" 
d="M512 763l-11 -42l-293 21l29 105zM501 665h195l-248 -473v-192h-177v192l-250 473h198l95 -218c16 -38 31 -75 44 -113c14 38 29 75 45 113z" />
    <glyph glyph-name="Z" unicode="Z" horiz-adv-x="688" 
d="M280 139h374v-139h-603v139l370 387h-360v139h590v-139z" />
    <glyph glyph-name="Zacute" unicode="&#x179;" horiz-adv-x="688" 
d="M497 742l-294 -21l-10 42l274 84zM280 139h374v-139h-603v139l370 387h-360v139h590v-139z" />
    <glyph glyph-name="Zcaron" unicode="&#x17d;" horiz-adv-x="688" 
d="M384 715h-77l-128 74l51 56l115 -64l116 64l50 -56zM280 139h374v-139h-603v139l370 387h-360v139h590v-139z" />
    <glyph glyph-name="Zdotaccent" unicode="&#x17b;" horiz-adv-x="688" 
d="M434 833v-105h-178v105h178zM280 139h374v-139h-603v139l370 387h-360v139h590v-139z" />
    <glyph glyph-name="G.ss03" horiz-adv-x="794" 
d="M354 -16c-217 0 -314 159 -314 348c0 193 107 350 366 350c230 0 320 -107 329 -237h-176c-8 58 -57 101 -152 101c-119 0 -183 -64 -183 -214c0 -141 53 -212 172 -212c120 0 160 59 171 134h-215v111h256c82 0 126 -45 126 -127v-238h-147v122
c-26 -71 -87 -138 -233 -138z" />
    <glyph glyph-name="Gbreve.ss03" horiz-adv-x="794" 
d="M239 828h95c2 -27 24 -46 61 -46s60 19 62 46h94c-2 -49 -34 -108 -156 -108s-154 59 -156 108zM354 -16c-217 0 -314 159 -314 348c0 193 107 350 366 350c230 0 320 -107 329 -237h-176c-8 58 -57 101 -152 101c-119 0 -183 -64 -183 -214c0 -141 53 -212 172 -212
c120 0 160 59 171 134h-215v111h256c82 0 126 -45 126 -127v-238h-147v122c-26 -71 -87 -138 -233 -138z" />
    <glyph glyph-name="uni0122.ss03" horiz-adv-x="794" 
d="M354 -16c-217 0 -314 159 -314 348c0 193 107 350 366 350c230 0 320 -107 329 -237h-176c-8 58 -57 101 -152 101c-119 0 -183 -64 -183 -214c0 -141 53 -212 172 -212c120 0 160 59 171 134h-215v111h256c82 0 126 -45 126 -127v-238h-147v122
c-26 -71 -87 -138 -233 -138zM318 -189v142h154v-217c0 -64 -20 -111 -116 -111h-38v88h59v98h-59z" />
    <glyph glyph-name="Gdotaccent.ss03" horiz-adv-x="794" 
d="M307 728v105h178v-105h-178zM354 -16c-217 0 -314 159 -314 348c0 193 107 350 366 350c230 0 320 -107 329 -237h-176c-8 58 -57 101 -152 101c-119 0 -183 -64 -183 -214c0 -141 53 -212 172 -212c120 0 160 59 171 134h-215v111h256c82 0 126 -45 126 -127v-238h-147
v122c-26 -71 -87 -138 -233 -138z" />
    <glyph glyph-name="Q.ss03" horiz-adv-x="795" 
d="M755 332c0 -107 -34 -211 -119 -277l65 -84l-119 -75l-69 101c-34 -8 -73 -13 -116 -13c-262 0 -357 170 -357 348c0 175 95 350 357 350c264 0 358 -176 358 -350zM397 127c9 0 18 0 26 1l-57 84l100 63l71 -92c26 35 34 85 34 149c0 132 -35 206 -174 206
c-137 0 -173 -74 -173 -206c0 -130 36 -205 173 -205z" />
    <glyph glyph-name="R.ss03" horiz-adv-x="683" 
d="M465 245l47 -105h129v-140h-182c-49 0 -78 23 -95 70l-63 171h-69v-241h-178v665h368c150 0 223 -78 223 -201c0 -129 -56 -202 -180 -219zM232 530v-163h142c61 0 87 28 87 84c0 53 -26 79 -85 79h-144z" />
    <glyph glyph-name="Racute.ss03" horiz-adv-x="683" 
d="M494 742l-294 -21l-10 42l274 84zM465 245l47 -105h129v-140h-182c-49 0 -78 23 -95 70l-63 171h-69v-241h-178v665h368c150 0 223 -78 223 -201c0 -129 -56 -202 -180 -219zM232 530v-163h142c61 0 87 28 87 84c0 53 -26 79 -85 79h-144z" />
    <glyph glyph-name="Rcaron.ss03" horiz-adv-x="683" 
d="M381 715h-77l-128 74l51 56l115 -64l116 64l50 -56zM465 245l47 -105h129v-140h-182c-49 0 -78 23 -95 70l-63 171h-69v-241h-178v665h368c150 0 223 -78 223 -201c0 -129 -56 -202 -180 -219zM232 530v-163h142c61 0 87 28 87 84c0 53 -26 79 -85 79h-144z" />
    <glyph glyph-name="uni0156.ss03" horiz-adv-x="683" 
d="M465 245l47 -105h129v-140h-182c-49 0 -78 23 -95 70l-63 171h-69v-241h-178v665h368c150 0 223 -78 223 -201c0 -129 -56 -202 -180 -219zM232 530v-163h142c61 0 87 28 87 84c0 53 -26 79 -85 79h-144zM265 -189v142h154v-217c0 -64 -20 -111 -116 -111h-38v88h59v98
h-59z" />
    <glyph glyph-name="a" unicode="a" horiz-adv-x="590" 
d="M204 -13c-100 0 -166 57 -166 145c0 80 33 133 171 156l113 20c46 8 58 20 58 46c0 30 -18 48 -75 48c-60 0 -89 -24 -90 -68h-167c5 106 97 182 255 182s236 -65 236 -179v-199c0 -53 3 -97 9 -138h-148c-5 29 -8 63 -8 104c-25 -73 -87 -117 -188 -117zM269 99
c65 0 111 46 111 136v19c-24 -18 -47 -24 -78 -32l-29 -7c-48 -12 -66 -29 -66 -63c0 -35 27 -53 62 -53z" />
    <glyph glyph-name="aacute" unicode="&#xe1;" horiz-adv-x="590" 
d="M451 576l-293 -21l-11 41l275 84zM204 -13c-100 0 -166 57 -166 145c0 80 33 133 171 156l113 20c46 8 58 20 58 46c0 30 -18 48 -75 48c-60 0 -89 -24 -90 -68h-167c5 106 97 182 255 182s236 -65 236 -179v-199c0 -53 3 -97 9 -138h-148c-5 29 -8 63 -8 104
c-25 -73 -87 -117 -188 -117zM269 99c65 0 111 46 111 136v19c-24 -18 -47 -24 -78 -32l-29 -7c-48 -12 -66 -29 -66 -63c0 -35 27 -53 62 -53z" />
    <glyph glyph-name="abreve" unicode="&#x103;" horiz-adv-x="590" 
d="M135 665h95c2 -27 24 -46 61 -46s60 19 62 46h94c-2 -49 -34 -108 -156 -108s-154 59 -156 108zM204 -13c-100 0 -166 57 -166 145c0 80 33 133 171 156l113 20c46 8 58 20 58 46c0 30 -18 48 -75 48c-60 0 -89 -24 -90 -68h-167c5 106 97 182 255 182s236 -65 236 -179
v-199c0 -53 3 -97 9 -138h-148c-5 29 -8 63 -8 104c-25 -73 -87 -117 -188 -117zM269 99c65 0 111 46 111 136v19c-24 -18 -47 -24 -78 -32l-29 -7c-48 -12 -66 -29 -66 -63c0 -35 27 -53 62 -53z" />
    <glyph glyph-name="uni01CE" unicode="&#x1ce;" horiz-adv-x="590" 
d="M133 631l51 56l115 -64l116 64l50 -56l-127 -74h-77zM204 -13c-100 0 -166 57 -166 145c0 80 33 133 171 156l113 20c46 8 58 20 58 46c0 30 -18 48 -75 48c-60 0 -89 -24 -90 -68h-167c5 106 97 182 255 182s236 -65 236 -179v-199c0 -53 3 -97 9 -138h-148
c-5 29 -8 63 -8 104c-25 -73 -87 -117 -188 -117zM269 99c65 0 111 46 111 136v19c-24 -18 -47 -24 -78 -32l-29 -7c-48 -12 -66 -29 -66 -63c0 -35 27 -53 62 -53z" />
    <glyph glyph-name="acircumflex" unicode="&#xe2;" horiz-adv-x="590" 
d="M133 602l128 74h77l127 -74l-50 -56l-116 64l-115 -64zM204 -13c-100 0 -166 57 -166 145c0 80 33 133 171 156l113 20c46 8 58 20 58 46c0 30 -18 48 -75 48c-60 0 -89 -24 -90 -68h-167c5 106 97 182 255 182s236 -65 236 -179v-199c0 -53 3 -97 9 -138h-148
c-5 29 -8 63 -8 104c-25 -73 -87 -117 -188 -117zM269 99c65 0 111 46 111 136v19c-24 -18 -47 -24 -78 -32l-29 -7c-48 -12 -66 -29 -66 -63c0 -35 27 -53 62 -53z" />
    <glyph glyph-name="adieresis" unicode="&#xe4;" horiz-adv-x="590" 
d="M117 561v104h146v-104h-146zM334 561v104h146v-104h-146zM204 -13c-100 0 -166 57 -166 145c0 80 33 133 171 156l113 20c46 8 58 20 58 46c0 30 -18 48 -75 48c-60 0 -89 -24 -90 -68h-167c5 106 97 182 255 182s236 -65 236 -179v-199c0 -53 3 -97 9 -138h-148
c-5 29 -8 63 -8 104c-25 -73 -87 -117 -188 -117zM269 99c65 0 111 46 111 136v19c-24 -18 -47 -24 -78 -32l-29 -7c-48 -12 -66 -29 -66 -63c0 -35 27 -53 62 -53z" />
    <glyph glyph-name="agrave" unicode="&#xe0;" horiz-adv-x="590" 
d="M148 576l29 104l275 -84l-11 -41zM204 -13c-100 0 -166 57 -166 145c0 80 33 133 171 156l113 20c46 8 58 20 58 46c0 30 -18 48 -75 48c-60 0 -89 -24 -90 -68h-167c5 106 97 182 255 182s236 -65 236 -179v-199c0 -53 3 -97 9 -138h-148c-5 29 -8 63 -8 104
c-25 -73 -87 -117 -188 -117zM269 99c65 0 111 46 111 136v19c-24 -18 -47 -24 -78 -32l-29 -7c-48 -12 -66 -29 -66 -63c0 -35 27 -53 62 -53z" />
    <glyph glyph-name="amacron" unicode="&#x101;" horiz-adv-x="590" 
d="M107 665h383v-93h-383v93zM204 -13c-100 0 -166 57 -166 145c0 80 33 133 171 156l113 20c46 8 58 20 58 46c0 30 -18 48 -75 48c-60 0 -89 -24 -90 -68h-167c5 106 97 182 255 182s236 -65 236 -179v-199c0 -53 3 -97 9 -138h-148c-5 29 -8 63 -8 104
c-25 -73 -87 -117 -188 -117zM269 99c65 0 111 46 111 136v19c-24 -18 -47 -24 -78 -32l-29 -7c-48 -12 -66 -29 -66 -63c0 -35 27 -53 62 -53z" />
    <glyph glyph-name="aogonek" unicode="&#x105;" horiz-adv-x="590" 
d="M577 -88l2 -104c-16 -8 -40 -12 -68 -12c-86 0 -147 50 -147 127c0 35 11 67 33 96c-3 24 -5 53 -5 85c-25 -73 -87 -117 -188 -117c-100 0 -166 57 -166 145c0 80 33 133 171 156l113 20c46 8 58 20 58 46c0 30 -18 48 -75 48c-60 0 -89 -24 -90 -68h-167
c5 106 97 182 255 182s236 -65 236 -179v-199c0 -53 3 -97 9 -138h-74c-5 -11 -7 -23 -7 -35c0 -40 30 -60 61 -60c19 0 34 2 49 7zM380 235v19c-24 -18 -47 -24 -78 -32l-29 -7c-48 -12 -66 -29 -66 -63c0 -35 27 -53 62 -53c65 0 111 46 111 136z" />
    <glyph glyph-name="aring" unicode="&#xe5;" horiz-adv-x="590" 
d="M299 551c-57 0 -90 41 -90 88s33 87 90 87c56 0 90 -40 90 -87s-34 -88 -90 -88zM269 639c0 -21 14 -32 30 -32s30 11 30 32c0 22 -14 32 -30 32s-30 -10 -30 -32zM204 -13c-100 0 -166 57 -166 145c0 80 33 133 171 156l113 20c46 8 58 20 58 46c0 30 -18 48 -75 48
c-60 0 -89 -24 -90 -68h-167c5 106 97 182 255 182s236 -65 236 -179v-199c0 -53 3 -97 9 -138h-148c-5 29 -8 63 -8 104c-25 -73 -87 -117 -188 -117zM269 99c65 0 111 46 111 136v19c-24 -18 -47 -24 -78 -32l-29 -7c-48 -12 -66 -29 -66 -63c0 -35 27 -53 62 -53z" />
    <glyph glyph-name="atilde" unicode="&#xe3;" horiz-adv-x="590" 
d="M390 554c-71 0 -113 49 -150 49c-20 0 -27 -13 -27 -35v-12h-102v29c0 65 40 90 97 90c75 0 109 -49 151 -49c19 0 26 13 26 35v12h102v-26c0 -65 -40 -93 -97 -93zM204 -13c-100 0 -166 57 -166 145c0 80 33 133 171 156l113 20c46 8 58 20 58 46c0 30 -18 48 -75 48
c-60 0 -89 -24 -90 -68h-167c5 106 97 182 255 182s236 -65 236 -179v-199c0 -53 3 -97 9 -138h-148c-5 29 -8 63 -8 104c-25 -73 -87 -117 -188 -117zM269 99c65 0 111 46 111 136v19c-24 -18 -47 -24 -78 -32l-29 -7c-48 -12 -66 -29 -66 -63c0 -35 27 -53 62 -53z" />
    <glyph glyph-name="ae" unicode="&#xe6;" horiz-adv-x="957" 
d="M660 99c52 0 83 22 97 52h167c-17 -86 -85 -167 -267 -167c-115 0 -189 42 -230 103c-45 -62 -120 -100 -206 -100c-99 0 -183 57 -183 145c0 80 33 133 171 156l113 20c46 8 58 20 58 46c0 30 -18 48 -75 48c-60 0 -89 -24 -90 -68h-167c5 106 97 182 255 182
c79 0 134 -20 166 -57c45 36 107 57 188 57c204 0 268 -129 268 -268c0 -16 0 -31 -2 -42h-375c10 -80 49 -107 112 -107zM659 403c-63 0 -98 -25 -109 -97h212c-5 63 -36 97 -103 97zM380 235v19c-24 -18 -47 -24 -78 -32l-29 -7c-48 -12 -66 -29 -66 -63
c0 -35 27 -53 62 -53c65 0 111 46 111 136z" />
    <glyph glyph-name="b" unicode="b" horiz-adv-x="657" 
d="M397 516c164 0 229 -126 229 -265c0 -143 -65 -267 -229 -267c-85 0 -142 31 -176 85v-69h-172v700h172v-269c34 53 91 85 176 85zM339 118c85 0 115 39 115 132s-30 132 -115 132c-88 0 -118 -43 -118 -132s30 -132 118 -132z" />
    <glyph glyph-name="c" unicode="c" horiz-adv-x="619" 
d="M33 250c0 135 76 266 283 266c181 0 269 -102 273 -227h-169c-5 59 -35 93 -102 93c-72 0 -113 -32 -113 -132s39 -132 110 -132s101 39 107 94h169c-4 -119 -87 -228 -273 -228c-207 0 -285 131 -285 266z" />
    <glyph glyph-name="cacute" unicode="&#x107;" horiz-adv-x="619" 
d="M462 576l-293 -21l-11 41l275 84zM33 250c0 135 76 266 283 266c181 0 269 -102 273 -227h-169c-5 59 -35 93 -102 93c-72 0 -113 -32 -113 -132s39 -132 110 -132s101 39 107 94h169c-4 -119 -87 -228 -273 -228c-207 0 -285 131 -285 266z" />
    <glyph glyph-name="ccaron" unicode="&#x10d;" horiz-adv-x="619" 
d="M144 631l51 56l115 -64l116 64l50 -56l-127 -74h-77zM33 250c0 135 76 266 283 266c181 0 269 -102 273 -227h-169c-5 59 -35 93 -102 93c-72 0 -113 -32 -113 -132s39 -132 110 -132s101 39 107 94h169c-4 -119 -87 -228 -273 -228c-207 0 -285 131 -285 266z" />
    <glyph glyph-name="ccedilla" unicode="&#xe7;" horiz-adv-x="619" 
d="M591 212c-3 -102 -65 -197 -200 -222l17 -80c11 -56 -18 -102 -83 -102h-114v105h80l-17 73c-174 17 -241 139 -241 264c0 135 76 266 283 266c181 0 269 -102 273 -227h-169c-5 59 -35 93 -102 93c-72 0 -113 -32 -113 -132s39 -132 110 -132s101 39 107 94h169z" />
    <glyph glyph-name="cdotaccent" unicode="&#x10b;" horiz-adv-x="619" 
d="M221 561v104h178v-104h-178zM33 250c0 135 76 266 283 266c181 0 269 -102 273 -227h-169c-5 59 -35 93 -102 93c-72 0 -113 -32 -113 -132s39 -132 110 -132s101 39 107 94h169c-4 -119 -87 -228 -273 -228c-207 0 -285 131 -285 266z" />
    <glyph glyph-name="d" unicode="d" horiz-adv-x="657" 
d="M436 700h172v-700h-172v68c-35 -53 -91 -84 -175 -84c-165 0 -230 124 -230 267c0 139 65 265 230 265c84 0 140 -31 175 -84v268zM318 118c88 0 118 43 118 132s-30 132 -118 132c-85 0 -114 -39 -114 -132s29 -132 114 -132z" />
    <glyph glyph-name="eth" unicode="&#xf0;" horiz-adv-x="638" 
d="M470 670c92 -78 137 -188 137 -353c0 -225 -88 -333 -287 -333c-209 0 -289 124 -289 267c0 139 65 254 229 254c84 0 141 -32 176 -86c0 63 -29 115 -75 157l-59 -50l-48 53l47 40c-21 13 -45 25 -69 35l75 109c38 -15 72 -32 103 -50l59 50l48 -53zM318 118
c88 0 118 43 118 132s-30 132 -118 132c-85 0 -115 -39 -115 -132s30 -132 115 -132z" />
    <glyph glyph-name="dcaron" unicode="&#x10f;" horiz-adv-x="846" 
d="M683 833h140l-14 -278h-112zM436 432v268h172v-700h-172v68c-35 -53 -91 -84 -175 -84c-165 0 -230 124 -230 267c0 139 65 265 230 265c84 0 140 -31 175 -84zM318 118c88 0 118 43 118 132s-30 132 -118 132c-85 0 -114 -39 -114 -132s29 -132 114 -132z" />
    <glyph glyph-name="dcroat" unicode="&#x111;" horiz-adv-x="687" 
d="M687 647v-90h-79v-557h-172v68c-35 -53 -91 -84 -175 -84c-165 0 -230 124 -230 267c0 139 65 265 230 265c84 0 140 -31 175 -84v125h-172v90h172v53h172v-53h79zM318 118c88 0 118 43 118 132s-30 132 -118 132c-85 0 -114 -39 -114 -132s29 -132 114 -132z" />
    <glyph glyph-name="e" unicode="e" horiz-adv-x="609" 
d="M313 99c51 0 82 22 96 52h167c-17 -86 -85 -167 -267 -167c-204 0 -276 130 -276 267c0 145 84 265 276 265c204 0 269 -129 269 -268c0 -16 -1 -31 -3 -42h-375c10 -80 49 -107 113 -107zM311 403c-62 0 -98 -25 -109 -97h213c-6 63 -37 97 -104 97z" />
    <glyph glyph-name="eacute" unicode="&#xe9;" horiz-adv-x="609" 
d="M457 576l-293 -21l-11 41l275 84zM313 99c51 0 82 22 96 52h167c-17 -86 -85 -167 -267 -167c-204 0 -276 130 -276 267c0 145 84 265 276 265c204 0 269 -129 269 -268c0 -16 -1 -31 -3 -42h-375c10 -80 49 -107 113 -107zM311 403c-62 0 -98 -25 -109 -97h213
c-6 63 -37 97 -104 97z" />
    <glyph glyph-name="ecaron" unicode="&#x11b;" horiz-adv-x="609" 
d="M344 557h-77l-128 74l51 56l115 -64l116 64l50 -56zM313 99c51 0 82 22 96 52h167c-17 -86 -85 -167 -267 -167c-204 0 -276 130 -276 267c0 145 84 265 276 265c204 0 269 -129 269 -268c0 -16 -1 -31 -3 -42h-375c10 -80 49 -107 113 -107zM311 403
c-62 0 -98 -25 -109 -97h213c-6 63 -37 97 -104 97z" />
    <glyph glyph-name="ecircumflex" unicode="&#xea;" horiz-adv-x="609" 
d="M305 610l-115 -64l-51 56l128 74h77l127 -74l-50 -56zM313 99c51 0 82 22 96 52h167c-17 -86 -85 -167 -267 -167c-204 0 -276 130 -276 267c0 145 84 265 276 265c204 0 269 -129 269 -268c0 -16 -1 -31 -3 -42h-375c10 -80 49 -107 113 -107zM311 403
c-62 0 -98 -25 -109 -97h213c-6 63 -37 97 -104 97z" />
    <glyph glyph-name="edieresis" unicode="&#xeb;" horiz-adv-x="609" 
d="M269 665v-104h-146v104h146zM486 665v-104h-146v104h146zM313 99c51 0 82 22 96 52h167c-17 -86 -85 -167 -267 -167c-204 0 -276 130 -276 267c0 145 84 265 276 265c204 0 269 -129 269 -268c0 -16 -1 -31 -3 -42h-375c10 -80 49 -107 113 -107zM311 403
c-62 0 -98 -25 -109 -97h213c-6 63 -37 97 -104 97z" />
    <glyph glyph-name="edotaccent" unicode="&#x117;" horiz-adv-x="609" 
d="M394 665v-104h-178v104h178zM313 99c51 0 82 22 96 52h167c-17 -86 -85 -167 -267 -167c-204 0 -276 130 -276 267c0 145 84 265 276 265c204 0 269 -129 269 -268c0 -16 -1 -31 -3 -42h-375c10 -80 49 -107 113 -107zM311 403c-62 0 -98 -25 -109 -97h213
c-6 63 -37 97 -104 97z" />
    <glyph glyph-name="egrave" unicode="&#xe8;" horiz-adv-x="609" 
d="M458 596l-11 -41l-293 21l29 104zM313 99c51 0 82 22 96 52h167c-17 -86 -85 -167 -267 -167c-204 0 -276 130 -276 267c0 145 84 265 276 265c204 0 269 -129 269 -268c0 -16 -1 -31 -3 -42h-375c10 -80 49 -107 113 -107zM311 403c-62 0 -98 -25 -109 -97h213
c-6 63 -37 97 -104 97z" />
    <glyph glyph-name="emacron" unicode="&#x113;" horiz-adv-x="609" 
d="M496 665v-93h-383v93h383zM313 99c51 0 82 22 96 52h167c-17 -86 -85 -167 -267 -167c-204 0 -276 130 -276 267c0 145 84 265 276 265c204 0 269 -129 269 -268c0 -16 -1 -31 -3 -42h-375c10 -80 49 -107 113 -107zM311 403c-62 0 -98 -25 -109 -97h213
c-6 63 -37 97 -104 97z" />
    <glyph glyph-name="eogonek" unicode="&#x119;" horiz-adv-x="609" 
d="M576 151c-10 -52 -40 -103 -102 -135c-11 -16 -16 -33 -16 -51c0 -40 30 -60 61 -60c19 0 34 2 49 7l2 -104c-16 -8 -40 -12 -68 -12c-86 0 -147 50 -147 127c0 23 5 44 14 64c-18 -2 -38 -3 -60 -3c-204 0 -276 130 -276 267c0 145 84 265 276 265
c204 0 269 -129 269 -268c0 -16 -1 -31 -3 -42h-375c10 -80 49 -107 113 -107c51 0 82 22 96 52h167zM311 403c-62 0 -98 -25 -109 -97h213c-6 63 -37 97 -104 97z" />
    <glyph glyph-name="f" unicode="f" horiz-adv-x="418" 
d="M104 0v371h-91v80l91 50v33c0 100 51 166 177 166h137v-124h-168v-76h143v-129h-117v-371h-172z" />
    <glyph glyph-name="g" unicode="g" horiz-adv-x="661" 
d="M440 500h172v-471c0 -162 -81 -240 -292 -240c-181 0 -263 84 -270 192h167c6 -44 38 -74 112 -74c76 0 111 28 111 95v89c-34 -48 -89 -76 -171 -76c-165 0 -232 118 -232 250c0 135 67 250 232 250c82 0 137 -28 171 -75v60zM328 141c84 0 112 40 112 121
c0 80 -28 120 -112 120c-86 0 -119 -34 -119 -120c0 -87 33 -121 119 -121z" />
    <glyph glyph-name="gbreve" unicode="&#x11f;" horiz-adv-x="661" 
d="M323 557c-122 0 -154 59 -156 108h95c2 -27 24 -46 61 -46s60 19 62 46h94c-2 -49 -34 -108 -156 -108zM440 500h172v-471c0 -162 -81 -240 -292 -240c-181 0 -263 84 -270 192h167c6 -44 38 -74 112 -74c76 0 111 28 111 95v89c-34 -48 -89 -76 -171 -76
c-165 0 -232 118 -232 250c0 135 67 250 232 250c82 0 137 -28 171 -75v60zM328 141c84 0 112 40 112 121c0 80 -28 120 -112 120c-86 0 -119 -34 -119 -120c0 -87 33 -121 119 -121z" />
    <glyph glyph-name="uni0123" unicode="&#x123;" horiz-adv-x="661" 
d="M408 698v-142h-155v217c0 64 21 111 117 111h38v-88h-59v-98h59zM440 500h172v-471c0 -162 -81 -240 -292 -240c-181 0 -263 84 -270 192h167c6 -44 38 -74 112 -74c76 0 111 28 111 95v89c-34 -48 -89 -76 -171 -76c-165 0 -232 118 -232 250c0 135 67 250 232 250
c82 0 137 -28 171 -75v60zM328 141c84 0 112 40 112 121c0 80 -28 120 -112 120c-86 0 -119 -34 -119 -120c0 -87 33 -121 119 -121z" />
    <glyph glyph-name="gdotaccent" unicode="&#x121;" horiz-adv-x="661" 
d="M420 665v-104h-178v104h178zM440 500h172v-471c0 -162 -81 -240 -292 -240c-181 0 -263 84 -270 192h167c6 -44 38 -74 112 -74c76 0 111 28 111 95v89c-34 -48 -89 -76 -171 -76c-165 0 -232 118 -232 250c0 135 67 250 232 250c82 0 137 -28 171 -75v60zM328 141
c84 0 112 40 112 121c0 80 -28 120 -112 120c-86 0 -119 -34 -119 -120c0 -87 33 -121 119 -121z" />
    <glyph glyph-name="h" unicode="h" horiz-adv-x="637" 
d="M403 516c131 0 188 -81 188 -212v-304h-172v275c0 66 -27 102 -87 102c-69 0 -109 -44 -109 -142v-235h-172v700h172v-293c33 66 91 109 180 109z" />
    <glyph glyph-name="hbar" unicode="&#x127;" horiz-adv-x="665" 
d="M431 516c131 0 188 -81 188 -212v-304h-172v275c0 66 -27 102 -87 102c-69 0 -109 -44 -109 -142v-235h-172v557h-79v90h79v53h172v-53h172v-90h-172v-150c33 66 91 109 180 109z" />
    <glyph glyph-name="i" unicode="i" horiz-adv-x="275" 
d="M48 561v104h178v-104h-178zM51 0v500h172v-500h-172z" />
    <glyph glyph-name="dotlessi" unicode="&#x131;" horiz-adv-x="275" 
d="M51 0v500h172v-500h-172z" />
    <glyph glyph-name="iacute" unicode="&#xed;" horiz-adv-x="275" 
d="M289 576l-293 -21l-11 41l275 84zM51 0v500h172v-500h-172z" />
    <glyph glyph-name="uni01D0" unicode="&#x1d0;" horiz-adv-x="275" 
d="M-29 631l51 56l115 -64l116 64l50 -56l-127 -74h-77zM51 0v500h172v-500h-172z" />
    <glyph glyph-name="icircumflex" unicode="&#xee;" horiz-adv-x="275" 
d="M-29 602l128 74h77l127 -74l-50 -56l-116 64l-115 -64zM51 0v500h172v-500h-172z" />
    <glyph glyph-name="idieresis" unicode="&#xef;" horiz-adv-x="275" 
d="M-45 561v104h146v-104h-146zM172 561v104h146v-104h-146zM51 0v500h172v-500h-172z" />
    <glyph glyph-name="i.loclTRK" horiz-adv-x="275" 
d="M48 561v104h178v-104h-178zM51 0v500h172v-500h-172z" />
    <glyph glyph-name="igrave" unicode="&#xec;" horiz-adv-x="275" 
d="M-15 576l30 104l275 -84l-11 -41zM51 0v500h172v-500h-172z" />
    <glyph glyph-name="imacron" unicode="&#x12b;" horiz-adv-x="275" 
d="M-55 665h383v-93h-383v93zM51 0v500h172v-500h-172z" />
    <glyph glyph-name="iogonek" unicode="&#x12f;" horiz-adv-x="275" 
d="M226 665v-104h-178v104h178zM237 -88l2 -104c-16 -8 -40 -12 -68 -12c-86 0 -147 50 -147 127c0 31 9 61 27 87v490h172v-500h-89c-5 -11 -7 -23 -7 -35c0 -40 30 -60 61 -60c19 0 34 2 49 7z" />
    <glyph glyph-name="j" unicode="j" horiz-adv-x="282" 
d="M57 561v104h178v-104h-178zM-90 -200v136h150v564h172v-504c0 -128 -51 -196 -203 -196h-119z" />
    <glyph glyph-name="uni0237" unicode="&#x237;" horiz-adv-x="282" 
d="M-90 -200v136h150v564h172v-504c0 -128 -51 -196 -203 -196h-119z" />
    <glyph glyph-name="k" unicode="k" horiz-adv-x="625" 
d="M424 0l-130 179l-71 -69v-110h-172v700h172v-425c17 25 36 49 53 70l138 155h203v-4l-214 -210l224 -286h-203z" />
    <glyph glyph-name="uni0137" unicode="&#x137;" horiz-adv-x="625" 
d="M403 286l224 -286h-203l-130 179l-71 -69v-110h-172v700h172v-425c17 25 36 49 53 70l138 155h203v-4zM236 -189v142h154v-217c0 -64 -20 -111 -116 -111h-38v88h59v98h-59z" />
    <glyph glyph-name="l" unicode="l" horiz-adv-x="275" 
d="M51 0v700h172v-700h-172z" />
    <glyph glyph-name="lacute" unicode="&#x13a;" horiz-adv-x="275" 
d="M290 777l-294 -21l-11 42l275 84zM51 0v700h172v-700h-172z" />
    <glyph glyph-name="lcaron" unicode="&#x13e;" horiz-adv-x="461" 
d="M299 833h140l-14 -278h-113zM51 0v700h172v-700h-172z" />
    <glyph glyph-name="uni013C" unicode="&#x13c;" horiz-adv-x="275" 
d="M51 0v700h172v-700h-172zM60 -189v142h154v-217c0 -64 -20 -111 -116 -111h-38v88h59v98h-59z" />
    <glyph glyph-name="lslash" unicode="&#x142;" horiz-adv-x="464" 
d="M438 500v-131l-120 -46v-323h-172v256l-120 -46v131l120 46v313h172v-246z" />
    <glyph glyph-name="m" unicode="m" horiz-adv-x="972" 
d="M735 516c131 0 191 -81 191 -212v-304h-172v278c0 64 -25 99 -82 99c-68 0 -99 -44 -99 -142v-235h-169v278c0 64 -25 99 -82 99c-67 0 -99 -44 -99 -142v-235h-172v500h172v-85c31 62 84 101 170 101s140 -41 165 -111c31 67 86 111 177 111z" />
    <glyph glyph-name="n" unicode="n" horiz-adv-x="637" 
d="M403 516c131 0 188 -81 188 -212v-304h-172v275c0 66 -27 102 -87 102c-69 0 -109 -44 -109 -142v-235h-172v500h172v-93c33 66 91 109 180 109z" />
    <glyph glyph-name="nacute" unicode="&#x144;" horiz-adv-x="637" 
d="M471 576l-293 -21l-11 41l275 84zM403 516c131 0 188 -81 188 -212v-304h-172v275c0 66 -27 102 -87 102c-69 0 -109 -44 -109 -142v-235h-172v500h172v-93c33 66 91 109 180 109z" />
    <glyph glyph-name="ncaron" unicode="&#x148;" horiz-adv-x="637" 
d="M358 557h-77l-128 74l51 56l115 -64l116 64l50 -56zM403 516c131 0 188 -81 188 -212v-304h-172v275c0 66 -27 102 -87 102c-69 0 -109 -44 -109 -142v-235h-172v500h172v-93c33 66 91 109 180 109z" />
    <glyph glyph-name="uni0146" unicode="&#x146;" horiz-adv-x="637" 
d="M403 516c131 0 188 -81 188 -212v-304h-172v275c0 66 -27 102 -87 102c-69 0 -109 -44 -109 -142v-235h-172v500h172v-93c33 66 91 109 180 109zM242 -189v142h154v-217c0 -64 -20 -111 -116 -111h-38v88h59v98h-59z" />
    <glyph glyph-name="eng" unicode="&#x14b;" horiz-adv-x="637" 
d="M400 516c131 0 191 -81 191 -212v-308c0 -128 -48 -196 -201 -196h-91v136h120v339c0 66 -28 102 -89 102c-67 0 -107 -44 -107 -142v-235h-172v500h172v-91c32 65 89 107 177 107z" />
    <glyph glyph-name="ntilde" unicode="&#xf1;" horiz-adv-x="637" 
d="M233 568v-12h-102v29c0 65 40 90 97 90c75 0 109 -49 151 -49c19 0 26 13 26 35v12h102v-26c0 -65 -40 -93 -97 -93c-71 0 -113 49 -150 49c-20 0 -27 -13 -27 -35zM403 516c131 0 188 -81 188 -212v-304h-172v275c0 66 -27 102 -87 102c-69 0 -109 -44 -109 -142v-235
h-172v500h172v-93c33 66 91 109 180 109z" />
    <glyph glyph-name="o" unicode="o" horiz-adv-x="638" 
d="M319 -16c-212 0 -286 131 -286 266c0 134 74 266 286 266s287 -132 287 -266s-75 -266 -287 -266zM205 250c0 -100 32 -132 114 -132s114 32 114 132s-32 132 -114 132s-114 -32 -114 -132z" />
    <glyph glyph-name="oacute" unicode="&#xf3;" horiz-adv-x="638" 
d="M471 576l-293 -21l-11 41l275 84zM319 -16c-212 0 -286 131 -286 266c0 134 74 266 286 266s287 -132 287 -266s-75 -266 -287 -266zM205 250c0 -100 32 -132 114 -132s114 32 114 132s-32 132 -114 132s-114 -32 -114 -132z" />
    <glyph glyph-name="uni01D2" unicode="&#x1d2;" horiz-adv-x="638" 
d="M153 631l51 56l115 -64l116 64l50 -56l-127 -74h-77zM319 -16c-212 0 -286 131 -286 266c0 134 74 266 286 266s287 -132 287 -266s-75 -266 -287 -266zM205 250c0 -100 32 -132 114 -132s114 32 114 132s-32 132 -114 132s-114 -32 -114 -132z" />
    <glyph glyph-name="ocircumflex" unicode="&#xf4;" horiz-adv-x="638" 
d="M153 602l128 74h77l127 -74l-50 -56l-116 64l-115 -64zM319 -16c-212 0 -286 131 -286 266c0 134 74 266 286 266s287 -132 287 -266s-75 -266 -287 -266zM205 250c0 -100 32 -132 114 -132s114 32 114 132s-32 132 -114 132s-114 -32 -114 -132z" />
    <glyph glyph-name="odieresis" unicode="&#xf6;" horiz-adv-x="638" 
d="M137 561v104h146v-104h-146zM354 561v104h146v-104h-146zM319 -16c-212 0 -286 131 -286 266c0 134 74 266 286 266s287 -132 287 -266s-75 -266 -287 -266zM205 250c0 -100 32 -132 114 -132s114 32 114 132s-32 132 -114 132s-114 -32 -114 -132z" />
    <glyph glyph-name="ograve" unicode="&#xf2;" horiz-adv-x="638" 
d="M168 576l29 104l275 -84l-11 -41zM319 -16c-212 0 -286 131 -286 266c0 134 74 266 286 266s287 -132 287 -266s-75 -266 -287 -266zM205 250c0 -100 32 -132 114 -132s114 32 114 132s-32 132 -114 132s-114 -32 -114 -132z" />
    <glyph glyph-name="ohungarumlaut" unicode="&#x151;" horiz-adv-x="638" 
d="M557 642l-172 -88l-29 32l126 134zM335 635l-172 -87l-29 31l126 134zM319 -16c-212 0 -286 131 -286 266c0 134 74 266 286 266s287 -132 287 -266s-75 -266 -287 -266zM205 250c0 -100 32 -132 114 -132s114 32 114 132s-32 132 -114 132s-114 -32 -114 -132z" />
    <glyph glyph-name="omacron" unicode="&#x14d;" horiz-adv-x="638" 
d="M127 665h383v-93h-383v93zM319 -16c-212 0 -286 131 -286 266c0 134 74 266 286 266s287 -132 287 -266s-75 -266 -287 -266zM205 250c0 -100 32 -132 114 -132s114 32 114 132s-32 132 -114 132s-114 -32 -114 -132z" />
    <glyph glyph-name="oslash" unicode="&#xf8;" horiz-adv-x="638" 
d="M460 490c106 -44 146 -142 146 -240c0 -134 -75 -266 -287 -266c-20 0 -39 1 -57 3l-58 -147l-81 30l55 139c-105 45 -145 142 -145 241c0 134 74 266 286 266c21 0 40 -1 58 -4l48 121l80 -29zM205 250c0 -51 8 -84 27 -104l94 236h-7c-82 0 -114 -32 -114 -132z
M319 118c82 0 114 32 114 132c0 50 -8 83 -27 104l-92 -236h5z" />
    <glyph glyph-name="otilde" unicode="&#xf5;" horiz-adv-x="638" 
d="M410 554c-71 0 -113 49 -150 49c-20 0 -27 -13 -27 -35v-12h-102v29c0 65 40 90 97 90c75 0 109 -49 151 -49c19 0 26 13 26 35v12h102v-26c0 -65 -40 -93 -97 -93zM319 -16c-212 0 -286 131 -286 266c0 134 74 266 286 266s287 -132 287 -266s-75 -266 -287 -266z
M205 250c0 -100 32 -132 114 -132s114 32 114 132s-32 132 -114 132s-114 -32 -114 -132z" />
    <glyph glyph-name="oe" unicode="&#x153;" horiz-adv-x="978" 
d="M682 99c51 0 82 22 96 52h167c-16 -86 -85 -167 -259 -167c-89 0 -147 23 -185 60c-38 -37 -97 -60 -189 -60c-205 0 -279 131 -279 266c0 134 74 266 279 266c89 0 150 -29 190 -74c42 46 105 74 191 74c189 0 254 -129 254 -268c0 -16 -1 -31 -3 -42h-375
c10 -80 50 -107 113 -107zM681 403c-63 0 -99 -25 -110 -97h213c-6 63 -37 97 -103 97zM319 118c82 0 114 32 114 132s-32 132 -114 132s-114 -32 -114 -132s32 -132 114 -132z" />
    <glyph glyph-name="p" unicode="p" horiz-adv-x="657" 
d="M397 516c164 0 229 -123 229 -267c0 -139 -65 -265 -229 -265c-85 0 -142 32 -176 86v-270h-172v700h172v-68c34 53 91 84 176 84zM339 118c85 0 115 39 115 132s-30 132 -115 132c-88 0 -118 -43 -118 -132s30 -132 118 -132z" />
    <glyph glyph-name="thorn" unicode="&#xfe;" horiz-adv-x="657" 
d="M397 516c164 0 229 -123 229 -267c0 -139 -65 -265 -229 -265c-85 0 -142 32 -176 86v-270h-172v900h172v-268c34 53 91 84 176 84zM339 118c85 0 115 39 115 132s-30 132 -115 132c-88 0 -118 -43 -118 -132s30 -132 118 -132z" />
    <glyph glyph-name="q" unicode="q" horiz-adv-x="657" 
d="M436 500h172v-700h-172v269c-35 -53 -91 -85 -175 -85c-165 0 -230 126 -230 265c0 144 65 267 230 267c84 0 140 -31 175 -83v67zM318 118c88 0 118 43 118 132s-30 132 -118 132c-85 0 -114 -39 -114 -132s29 -132 114 -132z" />
    <glyph glyph-name="r" unicode="r" horiz-adv-x="420" 
d="M360 508h42v-167h-61c-83 0 -118 -40 -118 -141v-200h-172v500h167v-102c20 71 61 110 142 110z" />
    <glyph glyph-name="racute" unicode="&#x155;" horiz-adv-x="420" 
d="M362 576l-293 -21l-11 41l275 84zM360 508h42v-167h-61c-83 0 -118 -40 -118 -141v-200h-172v500h167v-102c20 71 61 110 142 110z" />
    <glyph glyph-name="rcaron" unicode="&#x159;" horiz-adv-x="420" 
d="M249 557h-77l-128 74l51 56l115 -64l116 64l50 -56zM360 508h42v-167h-61c-83 0 -118 -40 -118 -141v-200h-172v500h167v-102c20 71 61 110 142 110z" />
    <glyph glyph-name="uni0157" unicode="&#x157;" horiz-adv-x="420" 
d="M360 508h42v-167h-61c-83 0 -118 -40 -118 -141v-200h-172v500h167v-102c20 71 61 110 142 110zM60 -189v142h154v-217c0 -64 -20 -111 -116 -111h-38v88h59v98h-59z" />
    <glyph glyph-name="s" unicode="s" horiz-adv-x="548" 
d="M22 161h156c4 -41 38 -74 102 -74c56 0 78 18 78 47c0 25 -9 46 -67 53l-106 12c-97 11 -149 63 -149 150c0 119 102 167 236 167c138 0 234 -47 244 -164h-156c-5 39 -32 62 -87 62c-58 0 -80 -21 -80 -49c0 -21 12 -40 59 -45l103 -10c118 -12 167 -60 167 -156
c0 -95 -59 -170 -245 -170c-183 0 -251 85 -255 177z" />
    <glyph glyph-name="sacute" unicode="&#x15b;" horiz-adv-x="548" 
d="M425 576l-293 -21l-11 41l275 84zM22 161h156c4 -41 38 -74 102 -74c56 0 78 18 78 47c0 25 -9 46 -67 53l-106 12c-97 11 -149 63 -149 150c0 119 102 167 236 167c138 0 234 -47 244 -164h-156c-5 39 -32 62 -87 62c-58 0 -80 -21 -80 -49c0 -21 12 -40 59 -45l103 -10
c118 -12 167 -60 167 -156c0 -95 -59 -170 -245 -170c-183 0 -251 85 -255 177z" />
    <glyph glyph-name="scaron" unicode="&#x161;" horiz-adv-x="548" 
d="M107 631l51 56l115 -64l116 64l50 -56l-127 -74h-77zM22 161h156c4 -41 38 -74 102 -74c56 0 78 18 78 47c0 25 -9 46 -67 53l-106 12c-97 11 -149 63 -149 150c0 119 102 167 236 167c138 0 234 -47 244 -164h-156c-5 39 -32 62 -87 62c-58 0 -80 -21 -80 -49
c0 -21 12 -40 59 -45l103 -10c118 -12 167 -60 167 -156c0 -95 -59 -170 -245 -170c-183 0 -251 85 -255 177z" />
    <glyph glyph-name="scedilla" unicode="&#x15f;" horiz-adv-x="548" 
d="M522 154c0 -80 -42 -146 -168 -165l17 -79c11 -56 -18 -102 -83 -102h-114v105h80l-17 72c-153 12 -211 91 -215 176h156c4 -41 38 -74 102 -74c56 0 78 18 78 47c0 25 -9 46 -67 53l-106 12c-97 11 -149 63 -149 150c0 119 102 167 236 167c138 0 234 -47 244 -164h-156
c-5 39 -32 62 -87 62c-58 0 -80 -21 -80 -49c0 -21 12 -40 59 -45l103 -10c118 -12 167 -60 167 -156z" />
    <glyph glyph-name="uni0219" unicode="&#x219;" horiz-adv-x="548" 
d="M22 161h156c4 -41 38 -74 102 -74c56 0 78 18 78 47c0 25 -9 46 -67 53l-106 12c-97 11 -149 63 -149 150c0 119 102 167 236 167c138 0 234 -47 244 -164h-156c-5 39 -32 62 -87 62c-58 0 -80 -21 -80 -49c0 -21 12 -40 59 -45l103 -10c118 -12 167 -60 167 -156
c0 -95 -59 -170 -245 -170c-183 0 -251 85 -255 177zM196 -189v142h154v-217c0 -64 -20 -111 -116 -111h-38v88h59v98h-59z" />
    <glyph glyph-name="germandbls" unicode="&#xdf;" horiz-adv-x="685" 
d="M54 0v431c0 167 101 250 310 250c203 0 276 -84 276 -182c0 -90 -57 -139 -139 -156c85 -15 149 -53 149 -162c0 -114 -75 -181 -218 -181h-127v132h82c60 0 79 31 79 74s-21 75 -83 75h-78v128h72c57 0 80 31 80 69c0 50 -33 71 -98 71c-79 0 -129 -36 -129 -123v-426
h-176z" />
    <glyph glyph-name="t" unicode="t" horiz-adv-x="430" 
d="M297 0c-153 0 -201 68 -201 197v174h-88v80l102 45l71 125h87v-121h136v-129h-136v-235h120v-136h-91z" />
    <glyph glyph-name="tbar" unicode="&#x167;" horiz-adv-x="430" 
d="M404 371h-136v-55h136v-99h-136v-81h120v-136h-91c-153 0 -201 68 -201 197v20h-88v99h88v55h-88v80l102 45l71 125h87v-121h136v-129z" />
    <glyph glyph-name="tcaron" unicode="&#x165;" horiz-adv-x="485" 
d="M319 833h140l-13 -278h-113zM297 0c-153 0 -201 68 -201 197v174h-88v80l102 45l71 125h87v-121h136v-129h-136v-235h120v-136h-91z" />
    <glyph glyph-name="uni0163" unicode="&#x163;" horiz-adv-x="430" 
d="M404 371h-136v-235h120v-136h-75l19 -90c11 -56 -18 -102 -83 -102h-114v105h80l-24 103c-70 27 -95 89 -95 181v174h-88v80l102 45l71 125h87v-121h136v-129z" />
    <glyph glyph-name="uni021B" unicode="&#x21b;" horiz-adv-x="430" 
d="M297 0c-153 0 -201 68 -201 197v174h-88v80l102 45l71 125h87v-121h136v-129h-136v-235h120v-136h-91zM157 -189v142h154v-217c0 -64 -20 -111 -116 -111h-38v88h59v98h-59z" />
    <glyph glyph-name="u" unicode="u" horiz-adv-x="637" 
d="M414 500h172v-500h-172v91c-32 -65 -89 -107 -177 -107c-131 0 -190 81 -190 212v304h172v-274c0 -67 27 -103 88 -103c67 0 107 46 107 142v235z" />
    <glyph glyph-name="uacute" unicode="&#xfa;" horiz-adv-x="637" 
d="M469 576l-293 -21l-11 41l275 84zM414 500h172v-500h-172v91c-32 -65 -89 -107 -177 -107c-131 0 -190 81 -190 212v304h172v-274c0 -67 27 -103 88 -103c67 0 107 46 107 142v235z" />
    <glyph glyph-name="uni01D4" unicode="&#x1d4;" horiz-adv-x="637" 
d="M356 557h-77l-128 74l51 56l115 -64l116 64l50 -56zM414 500h172v-500h-172v91c-32 -65 -89 -107 -177 -107c-131 0 -190 81 -190 212v304h172v-274c0 -67 27 -103 88 -103c67 0 107 46 107 142v235z" />
    <glyph glyph-name="ucircumflex" unicode="&#xfb;" horiz-adv-x="637" 
d="M317 610l-115 -64l-51 56l128 74h77l127 -74l-50 -56zM414 500h172v-500h-172v91c-32 -65 -89 -107 -177 -107c-131 0 -190 81 -190 212v304h172v-274c0 -67 27 -103 88 -103c67 0 107 46 107 142v235z" />
    <glyph glyph-name="udieresis" unicode="&#xfc;" horiz-adv-x="637" 
d="M281 665v-104h-146v104h146zM498 665v-104h-146v104h146zM414 500h172v-500h-172v91c-32 -65 -89 -107 -177 -107c-131 0 -190 81 -190 212v304h172v-274c0 -67 27 -103 88 -103c67 0 107 46 107 142v235z" />
    <glyph glyph-name="uni01D8" unicode="&#x1d8;" horiz-adv-x="637" 
d="M469 741l-293 -21l-11 41l275 84zM281 665v-104h-146v104h146zM352 561v104h146v-104h-146zM414 500h172v-500h-172v91c-32 -65 -89 -107 -177 -107c-131 0 -190 81 -190 212v304h172v-274c0 -67 27 -103 88 -103c67 0 107 46 107 142v235z" />
    <glyph glyph-name="uni01DA" unicode="&#x1da;" horiz-adv-x="637" 
d="M356 722h-77l-128 74l51 56l115 -64l116 64l50 -56zM281 665v-104h-146v104h146zM352 561v104h146v-104h-146zM414 500h172v-500h-172v91c-32 -65 -89 -107 -177 -107c-131 0 -190 81 -190 212v304h172v-274c0 -67 27 -103 88 -103c67 0 107 46 107 142v235z" />
    <glyph glyph-name="uni01DC" unicode="&#x1dc;" horiz-adv-x="637" 
d="M470 761l-11 -41l-293 21l29 104zM281 665v-104h-146v104h146zM352 561v104h146v-104h-146zM414 500h172v-500h-172v91c-32 -65 -89 -107 -177 -107c-131 0 -190 81 -190 212v304h172v-274c0 -67 27 -103 88 -103c67 0 107 46 107 142v235z" />
    <glyph glyph-name="uni01D6" unicode="&#x1d6;" horiz-adv-x="637" 
d="M508 830v-93h-383v93h383zM281 561h-146v104h146v-104zM498 561h-146v104h146v-104zM414 500h172v-500h-172v91c-32 -65 -89 -107 -177 -107c-131 0 -190 81 -190 212v304h172v-274c0 -67 27 -103 88 -103c67 0 107 46 107 142v235z" />
    <glyph glyph-name="ugrave" unicode="&#xf9;" horiz-adv-x="637" 
d="M470 596l-11 -41l-293 21l29 104zM414 500h172v-500h-172v91c-32 -65 -89 -107 -177 -107c-131 0 -190 81 -190 212v304h172v-274c0 -67 27 -103 88 -103c67 0 107 46 107 142v235z" />
    <glyph glyph-name="uhungarumlaut" unicode="&#x171;" horiz-adv-x="637" 
d="M555 642l-172 -88l-29 32l126 134zM333 635l-172 -87l-29 31l126 134zM414 500h172v-500h-172v91c-32 -65 -89 -107 -177 -107c-131 0 -190 81 -190 212v304h172v-274c0 -67 27 -103 88 -103c67 0 107 46 107 142v235z" />
    <glyph glyph-name="umacron" unicode="&#x16b;" horiz-adv-x="637" 
d="M508 665v-93h-383v93h383zM414 500h172v-500h-172v91c-32 -65 -89 -107 -177 -107c-131 0 -190 81 -190 212v304h172v-274c0 -67 27 -103 88 -103c67 0 107 46 107 142v235z" />
    <glyph glyph-name="uogonek" unicode="&#x173;" horiz-adv-x="637" 
d="M597 -88l2 -104c-16 -8 -40 -12 -68 -12c-86 0 -147 50 -147 127c0 33 10 64 30 92v76c-32 -65 -89 -107 -177 -107c-131 0 -190 81 -190 212v304h172v-274c0 -67 27 -103 88 -103c67 0 107 46 107 142v235h172v-500h-92c-5 -11 -7 -23 -7 -35c0 -40 30 -60 61 -60
c19 0 34 2 49 7z" />
    <glyph glyph-name="uring" unicode="&#x16f;" horiz-adv-x="637" 
d="M317 551c-57 0 -90 41 -90 88s33 87 90 87c56 0 90 -40 90 -87s-34 -88 -90 -88zM317 671c-16 0 -30 -10 -30 -32c0 -21 14 -32 30 -32s30 11 30 32c0 22 -14 32 -30 32zM414 500h172v-500h-172v91c-32 -65 -89 -107 -177 -107c-131 0 -190 81 -190 212v304h172v-274
c0 -67 27 -103 88 -103c67 0 107 46 107 142v235z" />
    <glyph glyph-name="v" unicode="v" horiz-adv-x="584" 
d="M418 500h163l-166 -500h-246l-166 500h175l120 -370z" />
    <glyph glyph-name="w" unicode="w" horiz-adv-x="922" 
d="M751 500h160l-123 -500h-238l-88 329l-89 -329h-239l-122 500h173l83 -369l111 369h181l111 -370z" />
    <glyph glyph-name="wacute" unicode="&#x1e83;" horiz-adv-x="922" 
d="M613 576l-293 -21l-11 41l275 84zM751 500h160l-123 -500h-238l-88 329l-89 -329h-239l-122 500h173l83 -369l111 369h181l111 -370z" />
    <glyph glyph-name="wcircumflex" unicode="&#x175;" horiz-adv-x="922" 
d="M462 610l-115 -64l-51 56l128 74h77l127 -74l-50 -56zM751 500h160l-123 -500h-238l-88 329l-89 -329h-239l-122 500h173l83 -369l111 369h181l111 -370z" />
    <glyph glyph-name="wdieresis" unicode="&#x1e85;" horiz-adv-x="922" 
d="M426 665v-104h-146v104h146zM643 665v-104h-146v104h146zM751 500h160l-123 -500h-238l-88 329l-89 -329h-239l-122 500h173l83 -369l111 369h181l111 -370z" />
    <glyph glyph-name="wgrave" unicode="&#x1e81;" horiz-adv-x="922" 
d="M614 596l-11 -41l-293 21l29 104zM751 500h160l-123 -500h-238l-88 329l-89 -329h-239l-122 500h173l83 -369l111 369h181l111 -370z" />
    <glyph glyph-name="x" unicode="x" horiz-adv-x="570" 
d="M4 0l182 241l-187 259h201l92 -143l87 143h183l-177 -249l187 -251h-201l-90 139l-88 -139h-189z" />
    <glyph glyph-name="y" unicode="y" horiz-adv-x="590" 
d="M425 500h163l-159 -501c-40 -130 -92 -199 -249 -199h-144v136h215l26 78h-109l-162 486h175l97 -290l29 -93l26 93z" />
    <glyph glyph-name="yacute" unicode="&#xfd;" horiz-adv-x="590" 
d="M447 576l-293 -21l-11 41l275 84zM425 500h163l-159 -501c-40 -130 -92 -199 -249 -199h-144v136h215l26 78h-109l-162 486h175l97 -290l29 -93l26 93z" />
    <glyph glyph-name="ycircumflex" unicode="&#x177;" horiz-adv-x="590" 
d="M295 610l-115 -64l-51 56l128 74h77l127 -74l-50 -56zM425 500h163l-159 -501c-40 -130 -92 -199 -249 -199h-144v136h215l26 78h-109l-162 486h175l97 -290l29 -93l26 93z" />
    <glyph glyph-name="ydieresis" unicode="&#xff;" horiz-adv-x="590" 
d="M259 665v-104h-146v104h146zM476 665v-104h-146v104h146zM425 500h163l-159 -501c-40 -130 -92 -199 -249 -199h-144v136h215l26 78h-109l-162 486h175l97 -290l29 -93l26 93z" />
    <glyph glyph-name="ygrave" unicode="&#x1ef3;" horiz-adv-x="590" 
d="M448 596l-11 -41l-293 21l29 104zM425 500h163l-159 -501c-40 -130 -92 -199 -249 -199h-144v136h215l26 78h-109l-162 486h175l97 -290l29 -93l26 93z" />
    <glyph glyph-name="z" unicode="z" horiz-adv-x="549" 
d="M245 125h270v-125h-480v125l272 250h-269v125h475v-125z" />
    <glyph glyph-name="zacute" unicode="&#x17a;" horiz-adv-x="549" 
d="M435 576l-293 -21l-11 41l275 84zM245 125h270v-125h-480v125l272 250h-269v125h475v-125z" />
    <glyph glyph-name="zcaron" unicode="&#x17e;" horiz-adv-x="549" 
d="M322 557h-77l-128 74l51 56l115 -64l116 64l50 -56zM245 125h270v-125h-480v125l272 250h-269v125h475v-125z" />
    <glyph glyph-name="zdotaccent" unicode="&#x17c;" horiz-adv-x="549" 
d="M372 665v-104h-178v104h178zM245 125h270v-125h-480v125l272 250h-269v125h475v-125z" />
    <glyph glyph-name="a.ss01" horiz-adv-x="645" 
d="M421 500h172v-500h-172v69c-32 -53 -87 -85 -170 -85c-166 0 -220 127 -220 266c0 143 54 266 220 266c83 0 138 -31 170 -84v68zM310 118c78 0 111 33 111 132s-33 132 -111 132c-80 0 -109 -34 -109 -132s29 -132 109 -132z" />
    <glyph glyph-name="aacute.ss01" horiz-adv-x="645" 
d="M474 576l-293 -21l-11 41l275 84zM421 500h172v-500h-172v69c-32 -53 -87 -85 -170 -85c-166 0 -220 127 -220 266c0 143 54 266 220 266c83 0 138 -31 170 -84v68zM310 118c78 0 111 33 111 132s-33 132 -111 132c-80 0 -109 -34 -109 -132s29 -132 109 -132z" />
    <glyph glyph-name="abreve.ss01" horiz-adv-x="645" 
d="M315 557c-122 0 -154 59 -156 108h95c2 -27 24 -46 61 -46s60 19 62 46h94c-2 -49 -34 -108 -156 -108zM421 500h172v-500h-172v69c-32 -53 -87 -85 -170 -85c-166 0 -220 127 -220 266c0 143 54 266 220 266c83 0 138 -31 170 -84v68zM310 118c78 0 111 33 111 132
s-33 132 -111 132c-80 0 -109 -34 -109 -132s29 -132 109 -132z" />
    <glyph glyph-name="acircumflex.ss01" horiz-adv-x="645" 
d="M322 610l-115 -64l-51 56l128 74h77l127 -74l-50 -56zM421 500h172v-500h-172v69c-32 -53 -87 -85 -170 -85c-166 0 -220 127 -220 266c0 143 54 266 220 266c83 0 138 -31 170 -84v68zM310 118c78 0 111 33 111 132s-33 132 -111 132c-80 0 -109 -34 -109 -132
s29 -132 109 -132z" />
    <glyph glyph-name="adieresis.ss01" horiz-adv-x="645" 
d="M286 665v-104h-146v104h146zM503 665v-104h-146v104h146zM421 500h172v-500h-172v69c-32 -53 -87 -85 -170 -85c-166 0 -220 127 -220 266c0 143 54 266 220 266c83 0 138 -31 170 -84v68zM310 118c78 0 111 33 111 132s-33 132 -111 132c-80 0 -109 -34 -109 -132
s29 -132 109 -132z" />
    <glyph glyph-name="agrave.ss01" horiz-adv-x="645" 
d="M475 596l-11 -41l-293 21l29 104zM421 500h172v-500h-172v69c-32 -53 -87 -85 -170 -85c-166 0 -220 127 -220 266c0 143 54 266 220 266c83 0 138 -31 170 -84v68zM310 118c78 0 111 33 111 132s-33 132 -111 132c-80 0 -109 -34 -109 -132s29 -132 109 -132z" />
    <glyph glyph-name="amacron.ss01" horiz-adv-x="645" 
d="M514 665v-93h-383v93h383zM421 500h172v-500h-172v69c-32 -53 -87 -85 -170 -85c-166 0 -220 127 -220 266c0 143 54 266 220 266c83 0 138 -31 170 -84v68zM310 118c78 0 111 33 111 132s-33 132 -111 132c-80 0 -109 -34 -109 -132s29 -132 109 -132z" />
    <glyph glyph-name="aogonek.ss01" horiz-adv-x="645" 
d="M608 -88l2 -104c-16 -8 -40 -12 -68 -12c-86 0 -147 50 -147 127c0 31 9 60 26 86v60c-32 -53 -87 -85 -170 -85c-166 0 -220 127 -220 266c0 143 54 266 220 266c83 0 138 -31 170 -84v68h172v-500h-88c-5 -11 -7 -23 -7 -35c0 -40 30 -60 61 -60c19 0 34 2 49 7z
M310 118c78 0 111 33 111 132s-33 132 -111 132c-80 0 -109 -34 -109 -132s29 -132 109 -132z" />
    <glyph glyph-name="aring.ss01" horiz-adv-x="645" 
d="M323 551c-57 0 -90 41 -90 88s33 87 90 87c56 0 90 -40 90 -87s-34 -88 -90 -88zM323 671c-16 0 -30 -10 -30 -32c0 -21 14 -32 30 -32s30 11 30 32c0 22 -14 32 -30 32zM421 500h172v-500h-172v69c-32 -53 -87 -85 -170 -85c-166 0 -220 127 -220 266
c0 143 54 266 220 266c83 0 138 -31 170 -84v68zM310 118c78 0 111 33 111 132s-33 132 -111 132c-80 0 -109 -34 -109 -132s29 -132 109 -132z" />
    <glyph glyph-name="atilde.ss01" horiz-adv-x="645" 
d="M236 568v-12h-102v29c0 65 40 90 97 90c75 0 109 -49 151 -49c19 0 26 13 26 35v12h102v-26c0 -65 -40 -93 -97 -93c-71 0 -113 49 -150 49c-20 0 -27 -13 -27 -35zM421 500h172v-500h-172v69c-32 -53 -87 -85 -170 -85c-166 0 -220 127 -220 266c0 143 54 266 220 266
c83 0 138 -31 170 -84v68zM310 118c78 0 111 33 111 132s-33 132 -111 132c-80 0 -109 -34 -109 -132s29 -132 109 -132z" />
    <glyph glyph-name="g.ss02" horiz-adv-x="631" 
d="M437 77c109 0 170 -47 170 -134c0 -112 -117 -158 -309 -158c-174 0 -254 40 -254 115c0 43 24 72 66 85c-44 17 -64 52 -64 87c0 56 47 92 107 104c-72 29 -110 81 -110 153c0 127 99 177 220 177c93 0 152 -42 178 -86v80h147v-173c0 -95 -53 -192 -263 -195h-71
c-30 0 -43 -10 -43 -29c0 -18 12 -26 38 -26h188zM314 390c-68 0 -99 -24 -99 -72c0 -45 30 -70 99 -70c75 0 101 25 101 70c0 46 -28 72 -101 72zM310 -129c93 0 124 19 124 52c0 26 -18 40 -53 40h-148c-30 0 -43 -16 -43 -37c0 -39 39 -55 120 -55z" />
    <glyph glyph-name="gbreve.ss02" horiz-adv-x="631" 
d="M308 557c-122 0 -154 59 -156 108h95c2 -27 24 -46 61 -46s60 19 62 46h94c-2 -49 -34 -108 -156 -108zM437 77c109 0 170 -47 170 -134c0 -112 -117 -158 -309 -158c-174 0 -254 40 -254 115c0 43 24 72 66 85c-44 17 -64 52 -64 87c0 56 47 92 107 104
c-72 29 -110 81 -110 153c0 127 99 177 220 177c93 0 152 -42 178 -86v80h147v-173c0 -95 -53 -192 -263 -195h-71c-30 0 -43 -10 -43 -29c0 -18 12 -26 38 -26h188zM314 390c-68 0 -99 -24 -99 -72c0 -45 30 -70 99 -70c75 0 101 25 101 70c0 46 -28 72 -101 72zM310 -129
c93 0 124 19 124 52c0 26 -18 40 -53 40h-148c-30 0 -43 -16 -43 -37c0 -39 39 -55 120 -55z" />
    <glyph glyph-name="uni0123.ss02" horiz-adv-x="631" 
d="M393 698v-142h-155v217c0 64 21 111 117 111h38v-88h-59v-98h59zM437 77c109 0 170 -47 170 -134c0 -112 -117 -158 -309 -158c-174 0 -254 40 -254 115c0 43 24 72 66 85c-44 17 -64 52 -64 87c0 56 47 92 107 104c-72 29 -110 81 -110 153c0 127 99 177 220 177
c93 0 152 -42 178 -86v80h147v-173c0 -95 -53 -192 -263 -195h-71c-30 0 -43 -10 -43 -29c0 -18 12 -26 38 -26h188zM314 390c-68 0 -99 -24 -99 -72c0 -45 30 -70 99 -70c75 0 101 25 101 70c0 46 -28 72 -101 72zM310 -129c93 0 124 19 124 52c0 26 -18 40 -53 40h-148
c-30 0 -43 -16 -43 -37c0 -39 39 -55 120 -55z" />
    <glyph glyph-name="gdotaccent.ss02" horiz-adv-x="631" 
d="M405 665v-104h-178v104h178zM437 77c109 0 170 -47 170 -134c0 -112 -117 -158 -309 -158c-174 0 -254 40 -254 115c0 43 24 72 66 85c-44 17 -64 52 -64 87c0 56 47 92 107 104c-72 29 -110 81 -110 153c0 127 99 177 220 177c93 0 152 -42 178 -86v80h147v-173
c0 -95 -53 -192 -263 -195h-71c-30 0 -43 -10 -43 -29c0 -18 12 -26 38 -26h188zM314 390c-68 0 -99 -24 -99 -72c0 -45 30 -70 99 -70c75 0 101 25 101 70c0 46 -28 72 -101 72zM310 -129c93 0 124 19 124 52c0 26 -18 40 -53 40h-148c-30 0 -43 -16 -43 -37
c0 -39 39 -55 120 -55z" />
    <glyph glyph-name="f_f_j" horiz-adv-x="1014" 
d="M732 500v-129h-104v-371h-172v371h-180v-371h-172v371h-91v80l91 50v33c0 100 51 166 177 166h109v-124h-140v-76h206v26c0 108 50 174 176 174h329v-124h-360v-76h131zM795 500h172v-504c0 -128 -51 -196 -203 -196h-119v136h150v564z" />
    <glyph glyph-name="f_f_t" horiz-adv-x="1112" 
d="M1087 371h-136v-235h120v-136h-92c-152 0 -200 68 -200 197v181h-151v-378h-172v378h-180v-378h-172v371h-91v80l91 50v33c0 100 51 166 177 166h109v-124h-140v-76h204l2 1v33c0 100 50 166 176 166h103v-124h-134v-76h194l68 121h88v-121h136v-129z" />
    <glyph glyph-name="f_j" horiz-adv-x="694" 
d="M104 0v371h-91v80l91 50v33c0 100 51 166 177 166h360v-124h-391v-76h164v-129h-138v-371h-172zM325 -200v136h150v564h172v-504c0 -128 -51 -196 -203 -196h-119z" />
    <glyph glyph-name="f_t" horiz-adv-x="761" 
d="M735 371h-136v-235h120v-136h-91c-153 0 -201 68 -201 197v181h-151v-378h-172v371h-91v80l91 50v33c0 100 51 166 177 166h103v-124h-134v-76h194l68 121h87v-121h136v-129z" />
    <glyph glyph-name="r_t" horiz-adv-x="791" 
d="M765 371h-136v-235h120v-136h-92c-152 0 -200 68 -200 197v275l84 149h88v-121h136v-129zM218 398c20 71 61 110 142 110h42v-167h-61c-83 0 -118 -40 -118 -141v-200h-172v500h167v-102z" />
    <glyph glyph-name="r_t_t" horiz-adv-x="1151" 
d="M1125 371h-136v-235h120v-136h-92c-152 0 -200 68 -200 197v174h-188v-235h120v-136h-92c-152 0 -200 68 -200 197v275l84 149h88v-121h204l68 121h88v-121h136v-129zM218 398c20 71 61 110 142 110h42v-167h-61c-83 0 -118 -40 -118 -141v-200h-172v500h167v-102z" />
    <glyph glyph-name="t_t" horiz-adv-x="790" 
d="M764 371h-136v-235h120v-136h-91c-153 0 -201 68 -201 197v181h-188v-242h120v-136h-91c-153 0 -201 68 -201 197v174h-88v80l102 45l71 125h87v-121h205l68 121h87v-121h136v-129z" />
    <glyph glyph-name="uni0394" unicode="&#x394;" horiz-adv-x="755" 
d="M503 665l202 -531v-134h-655v134l202 531h251zM231 133h292l-146 393z" />
    <glyph glyph-name="uni03A9" unicode="&#x3a9;" horiz-adv-x="814" 
d="M31 0v131h166c-86 38 -143 119 -143 243c0 135 87 308 353 308s353 -173 353 -308c0 -124 -56 -205 -142 -243h165v-131h-752zM407 160c142 0 172 77 172 197c0 123 -30 197 -172 197s-172 -74 -172 -197c0 -120 30 -197 172 -197z" />
    <glyph glyph-name="pi" unicode="&#x3c0;" horiz-adv-x="798" 
d="M749 371h-129v-235h113v-136h-84c-153 0 -201 68 -201 197v174h-96v-371h-172v371h-131v129h700v-129z" />
    <glyph glyph-name="zero" unicode="0" horiz-adv-x="725" 
d="M362 -16c-243 0 -331 170 -331 348c0 175 88 350 331 350s331 -176 331 -350c0 -177 -88 -348 -331 -348zM215 332c0 -130 29 -205 147 -205s147 75 147 205c0 132 -29 206 -147 206s-147 -74 -147 -206z" />
    <glyph glyph-name="one" unicode="1" horiz-adv-x="534" 
d="M54 0v137h148v391h-134v137h137c124 0 172 -61 172 -146v-382h128v-137h-451z" />
    <glyph glyph-name="two" unicode="2" horiz-adv-x="708" 
d="M61 0v137l336 225c51 34 70 68 70 107c0 44 -28 80 -99 80c-105 0 -137 -69 -140 -151h-177c3 142 91 284 325 284c203 0 270 -89 270 -196c0 -89 -55 -168 -223 -267l-128 -82h365v-137h-599z" />
    <glyph glyph-name="three" unicode="3" horiz-adv-x="673" 
d="M35 217h177c4 -70 49 -105 121 -105c73 0 116 37 116 104c0 69 -48 105 -108 105c-45 0 -73 -11 -102 -26l-62 107l220 126h-332v137h527v-137l-229 -132c17 3 36 6 73 6c69 0 196 -32 196 -191c0 -136 -89 -227 -297 -227c-190 0 -298 80 -300 233z" />
    <glyph glyph-name="four" unicode="4" horiz-adv-x="697" 
d="M566 273h105v-137h-105v-136h-176v136h-363v137l280 392h259v-392zM170 273h220v297z" />
    <glyph glyph-name="five" unicode="5" horiz-adv-x="675" 
d="M401 436c137 0 239 -68 239 -213c0 -152 -102 -239 -310 -239c-200 0 -283 96 -287 205h184c7 -39 38 -75 115 -75c85 0 122 36 122 110c0 70 -37 105 -111 105c-66 0 -99 -28 -118 -55h-172l25 391h519v-137h-378l-11 -149c37 34 96 57 183 57z" />
    <glyph glyph-name="six" unicode="6" horiz-adv-x="670" 
d="M410 429c112 0 221 -57 221 -203c0 -145 -115 -242 -289 -242c-177 0 -308 85 -308 343c0 255 143 355 315 355c173 0 265 -80 279 -200h-175c-8 39 -37 71 -102 71c-104 0 -141 -72 -141 -182v-17c44 49 118 75 200 75zM335 112c87 0 117 41 117 104
c0 65 -32 105 -114 105c-84 0 -119 -43 -119 -105c0 -58 28 -104 116 -104z" />
    <glyph glyph-name="seven" unicode="7" horiz-adv-x="588" 
d="M25 528v137h541v-101c-114 -112 -223 -237 -241 -564h-176c11 226 123 403 242 528h-366z" />
    <glyph glyph-name="eight" unicode="8" horiz-adv-x="654" 
d="M327 -16c-221 0 -292 96 -292 195c0 67 35 131 121 163c-70 34 -102 85 -102 154c0 91 65 185 273 185s273 -94 273 -185c0 -68 -34 -119 -102 -153c86 -33 121 -97 121 -164c0 -98 -71 -195 -292 -195zM327 390c78 0 109 32 109 87s-30 86 -109 86
c-78 0 -109 -31 -109 -86s31 -87 109 -87zM327 102c82 0 116 33 116 93c0 58 -34 93 -116 93c-81 0 -115 -35 -115 -93c0 -60 34 -93 115 -93z" />
    <glyph glyph-name="nine" unicode="9" horiz-adv-x="670" 
d="M328 682c177 0 308 -84 308 -343c0 -255 -143 -355 -315 -355c-173 0 -265 80 -279 200h175c8 -39 37 -71 102 -71c104 0 141 72 141 182v18c-44 -49 -118 -76 -200 -76c-112 0 -221 57 -221 204c0 145 115 241 289 241zM332 346c84 0 119 43 119 104
c0 58 -28 104 -116 104c-87 0 -117 -41 -117 -104c0 -65 32 -104 114 -104z" />
    <glyph glyph-name="period" unicode="." horiz-adv-x="208" 
d="M23 0v150h162v-150h-162z" />
    <glyph glyph-name="comma" unicode="," horiz-adv-x="200" 
d="M23 8v142h154v-217c0 -65 -20 -112 -116 -112h-38v89h59v98h-59z" />
    <glyph glyph-name="colon" unicode=":" horiz-adv-x="208" 
d="M23 350v150h162v-150h-162zM23 0v150h162v-150h-162z" />
    <glyph glyph-name="semicolon" unicode=";" horiz-adv-x="208" 
d="M23 350v150h162v-150h-162zM23 8v142h154v-217c0 -65 -20 -112 -116 -112h-38v89h59v98h-59z" />
    <glyph glyph-name="ellipsis" unicode="&#x2026;" horiz-adv-x="668" 
d="M23 0v150h162v-150h-162zM253 0v150h162v-150h-162zM483 0v150h162v-150h-162z" />
    <glyph glyph-name="exclam" unicode="!" horiz-adv-x="262" 
d="M74 225l-30 440h174l-30 -440h-114zM50 0v150h162v-150h-162z" />
    <glyph glyph-name="exclamdown" unicode="&#xa1;" horiz-adv-x="262" 
d="M50 500h162v-150h-162v150zM74 275h114l30 -440h-174z" />
    <glyph glyph-name="question" unicode="?" horiz-adv-x="691" 
d="M270 231v107h56c105 0 138 50 138 109c0 55 -35 96 -106 96c-86 0 -125 -45 -129 -121h-178c6 117 76 261 317 261c197 0 276 -100 276 -230c0 -135 -90 -222 -263 -222h-111zM272 0v150h162v-150h-162z" />
    <glyph glyph-name="questiondown" unicode="&#xbf;" horiz-adv-x="691" 
d="M420 500v-150h-163v150h163zM422 269v-107h-57c-104 0 -137 -49 -137 -108c0 -56 35 -97 105 -97c86 0 125 45 130 121h177c-6 -117 -75 -261 -317 -261c-197 0 -275 100 -275 230c0 135 89 222 262 222h112z" />
    <glyph glyph-name="periodcentered" unicode="&#xb7;" horiz-adv-x="208" 
d="M23 175v150h162v-150h-162z" />
    <glyph glyph-name="bullet" unicode="&#x2022;" horiz-adv-x="398" 
d="M199 132c-70 0 -118 48 -118 118s48 118 118 118s117 -48 117 -118s-47 -118 -117 -118z" />
    <glyph glyph-name="asterisk" unicode="*" horiz-adv-x="417" 
d="M30 542l37 61l119 -81l-13 143h71l-13 -143l119 81l35 -61l-128 -60l130 -64l-37 -62l-119 83l13 -144h-71l13 144l-119 -83l-35 62l128 61z" />
    <glyph glyph-name="numbersign" unicode="#" horiz-adv-x="926" 
d="M876 394h-179l-44 -117h152v-107h-193l-64 -170h-143l64 170h-152l-64 -170h-143l64 170h-124v107h165l44 117h-137v106h177l63 165h143l-63 -165h152l63 165h143l-63 -165h139v-106zM510 277l44 117h-152l-44 -117h152z" />
    <glyph glyph-name="slash" unicode="/" horiz-adv-x="430" 
d="M10 0l252 665h158l-252 -665h-158z" />
    <glyph glyph-name="backslash" unicode="\" horiz-adv-x="430" 
d="M420 0h-158l-252 665h158z" />
    <glyph glyph-name="asterisk.case" horiz-adv-x="765" 
d="M715 277h-85l-218 44l185 -124l60 -60l-78 -78l-60 60l-124 184l43 -218v-85h-111v85l44 218l-124 -184l-60 -60l-78 78l60 60l184 124l-218 -44h-85v111h85l218 -43l-184 124l-60 60l78 78l60 -60l124 -185l-44 218v85h111v-85l-43 -217l124 184l60 60l78 -78l-60 -60
l-184 -124l217 43h85v-111z" />
    <glyph glyph-name="parenleft" unicode="(" horiz-adv-x="432" 
d="M40 283c0 273 174 440 296 512l66 -61c-107 -101 -191 -243 -191 -451s84 -350 191 -451l-66 -61c-122 72 -296 240 -296 512z" />
    <glyph glyph-name="parenright" unicode=")" horiz-adv-x="432" 
d="M392 283c0 -272 -173 -440 -296 -512l-66 61c107 101 191 243 191 451s-84 350 -191 451l66 61c123 -72 296 -239 296 -512z" />
    <glyph glyph-name="braceleft" unicode="{" horiz-adv-x="465" 
d="M40 215v136h29c57 0 78 28 78 90v135c0 128 89 212 292 212v-71c-85 -3 -127 -48 -127 -158v-131c0 -70 -30 -115 -107 -129v-31c77 -14 107 -59 107 -129v-132c0 -110 42 -155 127 -158v-71c-203 0 -292 84 -292 212v135c0 62 -21 90 -78 90h-29z" />
    <glyph glyph-name="braceright" unicode="}" horiz-adv-x="466" 
d="M425 215h-29c-57 0 -78 -28 -78 -90v-135c0 -128 -88 -212 -291 -212v71c85 3 127 48 127 158v132c0 70 29 115 106 129v31c-77 14 -106 59 -106 129v131c0 110 -42 155 -127 158v71c203 0 291 -84 291 -212v-135c0 -62 21 -90 78 -90h29v-136z" />
    <glyph glyph-name="bracketleft" unicode="[" horiz-adv-x="558" 
d="M513 640h-260v-705h260v-135h-429v975h429v-135z" />
    <glyph glyph-name="bracketright" unicode="]" horiz-adv-x="558" 
d="M474 775v-975h-429v135h260v705h-260v135h429z" />
    <glyph glyph-name="hyphen" unicode="-" horiz-adv-x="483" 
d="M26 317h430v-114h-430v114z" />
    <glyph glyph-name="endash" unicode="&#x2013;" horiz-adv-x="590" 
d="M26 317h538v-114h-538v114z" />
    <glyph glyph-name="emdash" unicode="&#x2014;" horiz-adv-x="805" 
d="M26 317h752v-114h-752v114z" />
    <glyph glyph-name="underscore" unicode="_" horiz-adv-x="483" 
d="M26 0h430v-114h-430v114z" />
    <glyph glyph-name="quotesinglbase" unicode="&#x201a;" horiz-adv-x="200" 
d="M23 8v142h154v-217c0 -65 -20 -112 -116 -112h-38v89h59v98h-59z" />
    <glyph glyph-name="quotedblbase" unicode="&#x201e;" horiz-adv-x="200" 
d="M23 8v142h154v-217c0 -65 -20 -112 -116 -112h-38v89h59v98h-59z" />
    <glyph glyph-name="quotedblleft" unicode="&#x201c;" horiz-adv-x="413" 
d="M177 479v-142h-154v216c0 65 20 112 116 112h38v-89h-59v-97h59zM391 479v-142h-155v216c0 65 21 112 117 112h38v-89h-59v-97h59z" />
    <glyph glyph-name="quotedblright" unicode="&#x201d;" horiz-adv-x="413" 
d="M23 523v142h154v-217c0 -64 -20 -111 -116 -111h-38v88h59v98h-59zM236 523v142h155v-217c0 -64 -21 -111 -117 -111h-38v88h59v98h-59z" />
    <glyph glyph-name="quoteleft" unicode="&#x2018;" horiz-adv-x="200" 
d="M177 479v-142h-154v216c0 65 20 112 116 112h38v-89h-59v-97h59z" />
    <glyph glyph-name="quoteright" unicode="&#x2019;" horiz-adv-x="200" 
d="M23 523v142h154v-217c0 -64 -20 -111 -116 -111h-38v88h59v98h-59z" />
    <glyph glyph-name="guillemotleft" unicode="&#xab;" horiz-adv-x="787" 
d="M52 239v23l195 238h177l-213 -250l213 -250h-177zM365 239v23l196 238h176l-212 -250l212 -250h-176z" />
    <glyph glyph-name="guillemotright" unicode="&#xbb;" horiz-adv-x="787" 
d="M422 239l-196 -239h-176l213 250l-213 250h176l196 -238v-23zM735 239l-195 -239h-176l212 250l-212 250h176l195 -238v-23z" />
    <glyph glyph-name="guilsinglleft" unicode="&#x2039;" horiz-adv-x="473" 
d="M51 239v23l196 238h176l-212 -250l212 -250h-176z" />
    <glyph glyph-name="guilsinglright" unicode="&#x203a;" horiz-adv-x="473" 
d="M422 239l-196 -239h-176l213 250l-213 250h176l196 -238v-23z" />
    <glyph glyph-name="quotedbl" unicode="&#x22;" horiz-adv-x="368" 
d="M23 665h140l-14 -278h-113zM205 665h141l-14 -278h-113z" />
    <glyph glyph-name="quotesingle" unicode="'" horiz-adv-x="185" 
d="M23 665h140l-14 -278h-113z" />
    <glyph glyph-name="cent" unicode="&#xa2;" horiz-adv-x="553" 
d="M473 420c-2 -72 -43 -134 -130 -154v-73h-130v74c-94 24 -133 98 -133 179s38 157 133 180v74h130v-73c84 -20 127 -81 129 -153h-121c-3 42 -26 64 -70 64c-51 0 -78 -24 -78 -92c0 -67 25 -91 76 -91c48 0 70 25 74 65h120z" />
    <glyph glyph-name="dollar" unicode="$" horiz-adv-x="548" 
d="M522 236c0 -79 -39 -144 -164 -162v-109h-164v110c-122 21 -169 93 -172 170h156c4 -42 36 -75 99 -75c57 0 81 19 81 48c0 25 -9 46 -67 53l-106 12c-97 11 -149 62 -149 150c0 94 65 143 158 160v107h164v-107c91 -17 150 -65 158 -157h-156c-5 38 -31 62 -86 62
c-57 0 -81 -21 -81 -49c0 -22 12 -40 59 -45l106 -10c115 -11 164 -60 164 -158z" />
    <glyph glyph-name="Euro" unicode="&#x20ac;" horiz-adv-x="933" 
d="M544 440v-84h-464v84h83c34 133 137 242 341 242c237 0 331 -95 346 -286h-181c-8 90 -46 142 -162 142c-83 0 -134 -33 -157 -98h194zM671 274h182c-15 -204 -107 -290 -350 -290c-206 0 -310 100 -341 236h-82v84h464v-84h-196c21 -65 70 -93 154 -93
c119 0 161 50 169 147z" />
    <glyph glyph-name="florin" unicode="&#x192;" horiz-adv-x="631" 
d="M551 564h-149v-196h127v-129h-127v-243c0 -128 -51 -196 -203 -196h-119v136h150v303h-127v129h127v136c0 128 50 196 203 196h118v-136z" />
    <glyph glyph-name="sterling" unicode="&#xa3;" horiz-adv-x="629" 
d="M328 122h236v-122h-499v122h91v95h-74v99h74v56h-74v100h74v32c0 128 51 196 203 196h172v-136h-203v-92h150v-100h-150v-56h150v-99h-150v-95z" />
    <glyph glyph-name="yen" unicode="&#xa5;" horiz-adv-x="718" 
d="M696 665l-182 -348h92v-89h-139l-19 -36v-5h158v-89h-158v-98h-177v98h-158v89h158v5l-19 36h-139v89h92l-184 348h198l95 -218c17 -41 31 -82 44 -123c13 41 27 82 45 123l98 218h195z" />
    <glyph glyph-name="plus" unicode="+" horiz-adv-x="600" 
d="M515 317v-114h-154v-158h-122v158h-154v114h154v159h122v-159h154z" />
    <glyph glyph-name="minus" unicode="&#x2212;" horiz-adv-x="600" 
d="M85 317h430v-114h-430v114z" />
    <glyph glyph-name="multiply" unicode="&#xd7;" horiz-adv-x="633" 
d="M548 415l-154 -154l152 -151l-77 -77l-151 152l-153 -153l-80 81l152 152l-150 150l76 77l151 -150l154 154z" />
    <glyph glyph-name="divide" unicode="&#xf7;" horiz-adv-x="658" 
d="M329 371c-48 0 -76 35 -76 76c0 39 28 74 76 74s76 -35 76 -74c0 -41 -28 -76 -76 -76zM85 318h487v-114h-487v114zM329 0c-48 0 -76 35 -76 75s28 75 76 75s76 -35 76 -75s-28 -75 -76 -75z" />
    <glyph glyph-name="equal" unicode="=" horiz-adv-x="564" 
d="M85 416h392v-114h-392v114zM85 211h392v-114h-392v114z" />
    <glyph glyph-name="notequal" unicode="&#x2260;" horiz-adv-x="564" 
d="M477 302h-124l-35 -91h159v-114h-202l-34 -89h-107l34 89h-83v114h126l35 91h-161v114h204l33 87h107l-33 -87h81v-114z" />
    <glyph glyph-name="greater" unicode="&#x3e;" horiz-adv-x="533" 
d="M85 466l363 -138v-144l-363 -138v108l271 102l-271 103v107z" />
    <glyph glyph-name="less" unicode="&#x3c;" horiz-adv-x="533" 
d="M448 466v-107l-271 -103l271 -102v-108l-363 138v144z" />
    <glyph glyph-name="greaterequal" unicode="&#x2265;" horiz-adv-x="604" 
d="M85 496l434 -78v-160l-434 -78v99l366 59l-366 59v99zM85 44v99h434v-99h-434z" />
    <glyph glyph-name="lessequal" unicode="&#x2264;" horiz-adv-x="604" 
d="M519 496v-99l-366 -59l366 -59v-99l-434 78v160zM85 44v99h434v-99h-434z" />
    <glyph glyph-name="plusminus" unicode="&#xb1;" horiz-adv-x="601" 
d="M358 394h158v-99h-158v-104h-115v104h-158v99h158v106h115v-106zM85 44v99h431v-99h-431z" />
    <glyph glyph-name="approxequal" unicode="&#x2248;" horiz-adv-x="551" 
d="M370 299c-89 0 -130 79 -171 79c-19 0 -27 -13 -27 -36v-34h-87v77c0 65 46 91 96 91c90 0 127 -80 171 -80c19 0 27 13 27 36v34h87v-73c0 -65 -48 -94 -96 -94zM370 58c-89 0 -130 79 -171 79c-19 0 -27 -13 -27 -36v-34h-87v77c0 65 46 91 96 91c90 0 127 -80 171 -80
c19 0 27 13 27 36v34h87v-73c0 -65 -48 -94 -96 -94z" />
    <glyph glyph-name="asciitilde" unicode="~" horiz-adv-x="551" 
d="M370 160c-89 0 -130 79 -171 79c-19 0 -27 -13 -27 -36v-34h-87v77c0 65 46 91 96 91c90 0 127 -80 171 -80c19 0 27 13 27 36v34h87v-73c0 -65 -48 -94 -96 -94z" />
    <glyph glyph-name="logicalnot" unicode="&#xac;" horiz-adv-x="600" 
d="M515 317v-222h-115v108h-315v114h430z" />
    <glyph glyph-name="asciicircum" unicode="^" horiz-adv-x="578" 
d="M493 356h-107l-97 218l-97 -218h-107l138 309h133z" />
    <glyph glyph-name="infinity" unicode="&#x221e;" horiz-adv-x="935" 
d="M268 77c-118 0 -188 86 -188 187c0 96 70 182 188 182c120 0 190 -86 190 -182c0 -101 -70 -187 -190 -187zM666 77c-118 0 -188 86 -188 187c0 96 70 182 188 182c119 0 189 -86 189 -182c0 -101 -70 -187 -189 -187zM187 262c0 -51 37 -84 81 -84c46 0 83 33 83 84
c0 54 -37 82 -83 82c-44 0 -81 -28 -81 -82zM584 262c0 -51 38 -84 82 -84c45 0 82 33 82 84c0 54 -37 82 -82 82c-44 0 -82 -28 -82 -82z" />
    <glyph glyph-name="integral" unicode="&#x222b;" horiz-adv-x="748" 
d="M80 -200v139h157l101 640c20 128 51 196 203 196h127v-139h-157l-101 -640c-20 -128 -50 -196 -203 -196h-127z" />
    <glyph glyph-name="product" unicode="&#x220f;" horiz-adv-x="875" 
d="M796 775v-133h-132v-842h-153v842h-142v-842h-153v842h-132v133h712z" />
    <glyph glyph-name="summation" unicode="&#x2211;" horiz-adv-x="708" 
d="M628 775v-133h-376l273 -354l-273 -355h376v-133h-548v133l273 355l-273 354v133h548z" />
    <glyph glyph-name="radical" unicode="&#x221a;" horiz-adv-x="1024" 
d="M964 745v-133h-190l-281 -812h-220l-193 434h141l158 -356l300 867h285z" />
    <glyph glyph-name="uni00B5" unicode="&#xb5;" horiz-adv-x="637" 
d="M414 500h172v-500h-172v89c-32 -64 -87 -105 -174 -105c-10 0 -20 1 -30 3v-187h-163v700h172v-274c0 -67 27 -103 88 -103c67 0 107 46 107 142v235z" />
    <glyph glyph-name="partialdiff" unicode="&#x2202;" horiz-adv-x="638" 
d="M31 251c0 139 65 254 229 254c84 0 141 -32 176 -86c0 101 -89 187 -204 235l75 109c201 -80 300 -227 300 -446c0 -225 -88 -333 -287 -333c-209 0 -289 124 -289 267zM203 250c0 -93 30 -132 115 -132c88 0 118 43 118 132s-30 132 -118 132c-85 0 -115 -39 -115 -132z
" />
    <glyph glyph-name="percent" unicode="%" horiz-adv-x="862" 
d="M43 0v12l557 559h-223v-194h-302v288h653c36 0 57 -15 57 -46c0 -18 -7 -34 -35 -62l-541 -557h-166zM175 472h104v99h-104v-99zM509 0v287h302v-287h-302zM609 95h104v99h-104v-99z" />
    <glyph glyph-name="perthousand" unicode="&#x2030;" horiz-adv-x="1237" 
d="M43 0v12l557 559h-223v-194h-302v288h653c36 0 57 -15 57 -46c0 -18 -7 -34 -35 -62l-541 -557h-166zM175 472h104v99h-104v-99zM509 0v287h302v-287h-302zM885 0v287h302v-287h-302zM609 95h104v99h-104v-99zM985 95h104v99h-104v-99z" />
    <glyph glyph-name="percent.alt" horiz-adv-x="794" 
d="M191 386c-97 0 -148 70 -148 148c0 76 51 148 148 148s149 -72 149 -148c0 -78 -52 -148 -149 -148zM55 0v12l505 653h150v-12l-504 -653h-151zM191 471c41 0 58 22 58 63c0 43 -17 63 -58 63c-42 0 -57 -20 -57 -63c0 -41 15 -63 57 -63zM596 -6c-97 0 -149 71 -149 149
c0 76 52 147 149 147s148 -71 148 -147c0 -78 -51 -149 -148 -149zM596 80c41 0 57 21 57 63s-16 62 -57 62c-42 0 -58 -20 -58 -62s16 -63 58 -63z" />
    <glyph glyph-name="arrowup" unicode="&#x2191;" horiz-adv-x="723" 
d="M673 338l-78 -78l-175 176v-436h-117v435l-175 -175l-78 78l312 311z" />
    <glyph glyph-name="uni2197" unicode="&#x2197;" horiz-adv-x="600" 
d="M110 500h440v-440h-110v247l-307 -307l-83 83l307 307h-247v110z" />
    <glyph glyph-name="arrowright" unicode="&#x2192;" horiz-adv-x="749" 
d="M388 593l311 -311l-311 -312l-78 78l177 177h-437v114h437l-177 176z" />
    <glyph glyph-name="uni2198" unicode="&#x2198;" horiz-adv-x="600" 
d="M440 440h110v-440h-440v110h247l-307 308l83 82l307 -307v247z" />
    <glyph glyph-name="arrowdown" unicode="&#x2193;" horiz-adv-x="723" 
d="M595 360l78 -78l-311 -312l-312 312l78 78l175 -175v434h117v-435z" />
    <glyph glyph-name="uni2199" unicode="&#x2199;" horiz-adv-x="600" 
d="M550 418l-307 -308h247v-110h-440v440h110v-247l308 307z" />
    <glyph glyph-name="arrowleft" unicode="&#x2190;" horiz-adv-x="749" 
d="M699 339v-114h-437l177 -177l-78 -78l-311 312l311 311l78 -78l-177 -176h437z" />
    <glyph glyph-name="uni2196" unicode="&#x2196;" horiz-adv-x="600" 
d="M550 83l-82 -83l-308 307v-247h-110v440h440v-110h-247z" />
    <glyph glyph-name="uni2197.case" horiz-adv-x="600" 
d="M110 665h440v-440h-110v247l-307 -307l-83 83l307 307h-247v110z" />
    <glyph glyph-name="uni2196.case" horiz-adv-x="600" 
d="M550 248l-82 -83l-308 307v-247h-110v440h440v-110h-247z" />
    <glyph glyph-name="uni25CF" unicode="&#x25cf;" horiz-adv-x="801" 
d="M402 -18c-196 0 -352 156 -352 352c0 193 156 349 352 349c193 0 349 -156 349 -349c0 -196 -156 -352 -349 -352z" />
    <glyph glyph-name="lozenge" unicode="&#x25ca;" horiz-adv-x="718" 
d="M491 665l147 -332l-147 -333h-264l-147 333l147 332h264zM359 63l119 270l-119 269l-119 -269z" />
    <glyph glyph-name="filledbox" unicode="&#x25a0;" horiz-adv-x="766" 
d="M50 665h666v-665h-666v665z" />
    <glyph glyph-name="triagup" unicode="&#x25b2;" horiz-adv-x="844" 
d="M422 665l372 -665h-744z" />
    <glyph glyph-name="at" unicode="@" horiz-adv-x="1087" 
d="M557 -200c-317 0 -504 154 -504 444c0 276 166 467 485 467c313 0 497 -138 497 -432c0 -197 -106 -271 -262 -271h-127l-6 84c-29 -58 -88 -88 -166 -88c-156 0 -205 115 -205 246c0 135 49 251 205 251c78 0 127 -27 158 -78v63h162v-376h17c58 0 111 49 111 179
c0 223 -126 333 -384 333c-249 0 -372 -150 -372 -369c0 -243 142 -358 390 -358h224v-95h-223zM531 130c73 0 103 29 103 122s-30 123 -103 123c-75 0 -100 -31 -100 -123s25 -122 100 -122z" />
    <glyph glyph-name="ampersand" unicode="&#x26;" horiz-adv-x="737" 
d="M705 269h-94c-6 -43 -17 -82 -33 -117l112 -94l-80 -88l-101 85c-52 -46 -122 -72 -211 -72c-148 0 -247 68 -247 188c0 82 40 138 114 182c-41 48 -59 94 -59 146c0 118 92 183 230 183c131 0 210 -60 210 -158c0 -70 -36 -122 -120 -164l-59 -30l117 -99
c5 15 8 30 10 46c8 68 46 100 111 100h100v-108zM334 573c-52 0 -85 -26 -85 -73c0 -30 9 -57 34 -90l48 23c46 22 77 41 77 78c0 36 -22 62 -74 62zM309 95c44 0 81 14 109 36l-165 139c-41 -26 -59 -58 -59 -91c0 -51 40 -84 115 -84z" />
    <glyph glyph-name="paragraph" unicode="&#xb6;" horiz-adv-x="874" 
d="M545 665v-865h-178v417h-93c-153 0 -214 99 -214 228c0 121 61 220 214 220h271zM616 665h178v-865h-178v865z" />
    <glyph glyph-name="section" unicode="&#xa7;" horiz-adv-x="633" 
d="M79 -31h138c4 -44 33 -81 103 -81c62 0 92 20 92 58c0 33 -20 50 -59 55l-114 13c-95 11 -150 66 -150 156c0 101 75 161 232 167c65 2 86 20 86 57c0 33 -21 51 -59 55l-114 13c-94 11 -150 66 -150 156c0 100 78 167 227 167c158 0 227 -74 234 -171h-140
c-5 42 -37 68 -93 68c-52 0 -85 -20 -85 -54c0 -26 15 -46 55 -50l100 -10c117 -12 168 -68 168 -161c0 -106 -66 -166 -237 -175c-58 -4 -81 -19 -81 -52c0 -27 16 -45 55 -49l100 -11c116 -12 167 -68 167 -162c0 -106 -66 -174 -236 -174c-167 0 -233 86 -239 185z" />
    <glyph glyph-name="copyright" unicode="&#xa9;" horiz-adv-x="891" 
d="M446 -18c-210 0 -367 156 -367 351c0 192 157 350 367 350c209 0 366 -158 366 -350c0 -195 -157 -351 -366 -351zM446 90c149 0 250 107 250 243c0 134 -101 242 -250 242s-251 -108 -251 -242c0 -136 102 -243 251 -243zM264 334c0 89 53 172 184 172
c115 0 174 -65 175 -149h-110c-3 40 -23 59 -64 59c-47 0 -71 -21 -71 -82c0 -62 22 -82 70 -82c42 0 62 21 66 59h111c-2 -80 -58 -149 -175 -149c-132 0 -186 82 -186 172z" />
    <glyph glyph-name="registered" unicode="&#xae;" horiz-adv-x="639" 
d="M319 683c143 0 260 -116 260 -257c0 -145 -118 -261 -260 -261c-143 0 -259 116 -259 261c0 141 115 257 259 257zM320 251c97 0 167 79 167 175c0 95 -70 173 -167 173c-100 0 -168 -78 -168 -173s68 -175 168 -175zM433 478c0 -35 -24 -56 -63 -61c40 -4 57 -20 57 -53
v-11c0 -19 1 -28 6 -47h-73c-4 9 -6 23 -6 48v9c0 18 -9 25 -26 25h-36v-82h-74v239h133c50 0 82 -26 82 -67zM331 443c17 0 26 7 26 23c0 14 -9 20 -25 20h-40v-43h39z" />
    <glyph glyph-name="trademark" unicode="&#x2122;" horiz-adv-x="1507" 
d="M1453 665v-665h-176v551l-160 -551h-197l-161 555v-555h-176v526h-161v-526h-177v526h-214v139h855l135 -483l136 483h296z" />
    <glyph glyph-name="degree" unicode="&#xb0;" horiz-adv-x="468" 
d="M233 347c-118 0 -188 87 -188 187c0 97 70 182 188 182c120 0 190 -85 190 -182c0 -100 -70 -187 -190 -187zM152 533c0 -52 37 -85 81 -85c46 0 83 33 83 85c0 53 -37 81 -83 81c-44 0 -81 -28 -81 -81z" />
    <glyph glyph-name="bar" unicode="|" horiz-adv-x="339" 
d="M85 -200v975h169v-975h-169z" />
    <glyph glyph-name="brokenbar" unicode="&#xa6;" horiz-adv-x="339" 
d="M85 369v406h169v-406h-169zM85 -200v406h169v-406h-169z" />
    <glyph glyph-name="dagger" unicode="&#x2020;" horiz-adv-x="639" 
d="M554 612v-133h-157v-312h-153v312h-159v133h159v163h153v-163h157z" />
    <glyph glyph-name="daggerdbl" unicode="&#x2021;" horiz-adv-x="639" 
d="M554 504h-157v-112h157v-132h-157v-138h-153v138h-159v132h159v112h-159v133h159v138h153v-138h157v-133z" />
    <glyph glyph-name="uni0308" unicode="&#x308;" 
d="M-436 561v104h146v-104h-146zM-219 561v104h146v-104h-146z" />
    <glyph glyph-name="uni0307" unicode="&#x307;" 
d="M-227 561v104h178v-104h-178z" />
    <glyph glyph-name="gravecomb" unicode="&#x300;" 
d="M-333 576l29 104l275 -84l-11 -41z" />
    <glyph glyph-name="acutecomb" unicode="&#x301;" 
d="M-31 576l-293 -21l-11 41l275 84z" />
    <glyph glyph-name="uni030B" unicode="&#x30b;" 
d="M-81 642l-172 -88l-29 32l126 134zM-303 635l-172 -87l-29 31l126 134z" />
    <glyph glyph-name="uni0302" unicode="&#x302;" 
d="M-377 602l128 74h77l127 -74l-50 -56l-116 64l-115 -64z" />
    <glyph glyph-name="uni030C" unicode="&#x30c;" 
d="M-417 631l51 56l115 -64l116 64l50 -56l-127 -74h-77z" />
    <glyph glyph-name="uni0306" unicode="&#x306;" 
d="M-418 665h95c2 -27 24 -46 61 -46s60 19 62 46h94c-2 -49 -34 -108 -156 -108s-154 59 -156 108z" />
    <glyph glyph-name="uni030A" unicode="&#x30a;" 
d="M-175 551c-57 0 -90 41 -90 88s33 87 90 87c56 0 90 -40 90 -87s-34 -88 -90 -88zM-205 639c0 -21 14 -32 30 -32s30 11 30 32c0 22 -14 32 -30 32s-30 -10 -30 -32z" />
    <glyph glyph-name="tildecomb" unicode="&#x303;" 
d="M-180 554c-71 0 -113 49 -150 49c-20 0 -27 -13 -27 -35v-12h-102v29c0 65 40 90 97 90c75 0 109 -49 151 -49c19 0 26 13 26 35v12h102v-26c0 -65 -40 -93 -97 -93z" />
    <glyph glyph-name="uni0304" unicode="&#x304;" 
d="M-472 665h383v-93h-383v93z" />
    <glyph glyph-name="uni0312" unicode="&#x312;" 
d="M-85 698v-142h-155v217c0 64 21 111 117 111h38v-88h-59v-98h59z" />
    <glyph glyph-name="uni0326" unicode="&#x326;" 
d="M-222 -189v142h154v-217c0 -64 -20 -111 -116 -111h-38v88h59v98h-59z" />
    <glyph glyph-name="uni0327" unicode="&#x327;" 
d="M-243 -192v105h80l-30 129h119l28 -132c11 -56 -18 -102 -83 -102h-114z" />
    <glyph glyph-name="uni0328" unicode="&#x328;" 
d="M-149 -204c-86 0 -147 50 -147 127c0 66 40 124 120 162l41 -25c-39 -29 -58 -61 -58 -95c0 -40 30 -60 61 -60c19 0 34 2 49 7l2 -104c-16 -8 -40 -12 -68 -12z" />
    <glyph glyph-name="acute" unicode="&#xb4;" horiz-adv-x="600" 
d="M333 576l-293 -21l-11 41l275 84z" />
    <glyph glyph-name="breve" unicode="&#x2d8;" horiz-adv-x="600" 
d="M90 665h95c2 -27 24 -46 61 -46s60 19 62 46h94c-2 -49 -34 -108 -156 -108s-154 59 -156 108z" />
    <glyph glyph-name="caron" unicode="&#x2c7;" horiz-adv-x="600" 
d="M85 631l51 56l115 -64l116 64l50 -56l-127 -74h-77z" />
    <glyph glyph-name="cedilla" unicode="&#xb8;" horiz-adv-x="600" 
d="M44 -192v105h80l-30 129h119l28 -132c11 -56 -18 -102 -83 -102h-114z" />
    <glyph glyph-name="circumflex" unicode="&#x2c6;" horiz-adv-x="600" 
d="M45 602l128 74h77l127 -74l-50 -56l-116 64l-115 -64z" />
    <glyph glyph-name="dieresis" unicode="&#xa8;" horiz-adv-x="600" 
d="M74 561v104h146v-104h-146zM291 561v104h146v-104h-146z" />
    <glyph glyph-name="dotaccent" unicode="&#x2d9;" horiz-adv-x="600" 
d="M49 561v104h178v-104h-178z" />
    <glyph glyph-name="grave" unicode="`" horiz-adv-x="600" 
d="M31 576l29 104l275 -84l-11 -41z" />
    <glyph glyph-name="hungarumlaut" unicode="&#x2dd;" horiz-adv-x="600" 
d="M504 642l-172 -88l-29 32l126 134zM282 635l-172 -87l-29 31l126 134z" />
    <glyph glyph-name="macron" unicode="&#xaf;" horiz-adv-x="600" 
d="M88 665h383v-93h-383v93z" />
    <glyph glyph-name="ogonek" unicode="&#x2db;" horiz-adv-x="600" 
d="M225 -204c-86 0 -147 50 -147 127c0 66 40 124 120 162l41 -25c-39 -29 -58 -61 -58 -95c0 -40 30 -60 61 -60c19 0 34 2 49 7l2 -104c-16 -8 -40 -12 -68 -12z" />
    <glyph glyph-name="ring" unicode="&#x2da;" horiz-adv-x="350" 
d="M175 551c-57 0 -90 41 -90 88s33 87 90 87c56 0 90 -40 90 -87s-34 -88 -90 -88zM145 639c0 -21 14 -32 30 -32s30 11 30 32c0 22 -14 32 -30 32s-30 -10 -30 -32z" />
    <glyph glyph-name="tilde" unicode="&#x2dc;" horiz-adv-x="600" 
d="M364 554c-71 0 -113 49 -150 49c-20 0 -27 -13 -27 -35v-12h-102v29c0 65 40 90 97 90c75 0 109 -49 151 -49c19 0 26 13 26 35v12h102v-26c0 -65 -40 -93 -97 -93z" />
    <glyph glyph-name="uni0308.case" 
d="M-403 728v105h146v-105h-146zM-199 728v105h146v-105h-146z" />
    <glyph glyph-name="uni0307.case" 
d="M-227 728v105h178v-105h-178z" />
    <glyph glyph-name="gravecomb.case" 
d="M-333 742l29 105l275 -84l-11 -42z" />
    <glyph glyph-name="acutecomb.case" 
d="M-29 742l-294 -21l-10 42l274 84z" />
    <glyph glyph-name="uni030B.case" 
d="M-85 793l-171 -87l-30 31l126 135zM-307 787l-172 -88l-29 32l126 134z" />
    <glyph glyph-name="uni0302.case" 
d="M-377 781l128 74h77l127 -74l-50 -56l-116 64l-115 -64z" />
    <glyph glyph-name="uni030C.case" 
d="M-417 789l51 56l115 -64l116 64l50 -56l-127 -74h-77z" />
    <glyph glyph-name="uni0306.case" 
d="M-418 828h95c2 -27 24 -46 61 -46s60 19 62 46h94c-2 -49 -34 -108 -156 -108s-154 59 -156 108z" />
    <glyph glyph-name="uni030A.case" 
d="M-175 698c-75 0 -118 53 -118 116c0 61 43 114 118 114s118 -53 118 -114c0 -63 -43 -116 -118 -116zM-214 814c0 -28 19 -41 39 -41s39 13 39 41s-19 40 -39 40s-39 -12 -39 -40z" />
    <glyph glyph-name="tildecomb.case" 
d="M-180 719c-71 0 -113 49 -150 49c-20 0 -27 -13 -27 -35v-12h-102v29c0 65 40 90 97 90c75 0 109 -49 151 -49c19 0 26 13 26 35v12h102v-26c0 -65 -40 -93 -97 -93z" />
    <glyph glyph-name="uni0304.case" 
d="M-500 833h415v-100h-415v100z" />
    <glyph glyph-name="uni0312.case" 
d="M-85 836v-143h-155v217c0 65 21 112 117 112h38v-89h-59v-97h59z" />
    </font>
</defs>
</svg>
