<?xml version="1.0" standalone="no"?>
<!DOCTYPE svg PUBLIC "-//W3C//DTD SVG 1.1//EN" "http://www.w3.org/Graphics/SVG/1.1/DTD/svg11.dtd" >
<svg>
<metadata>
Created by FontForge 20120731 at Tue Feb 14 08:57:50 2023
 By fw_worker
Copyright \(c\) 2019 by Nick Losacco. All rights reserved.
</metadata>
<defs>
<font id="Telegraf-UltraLight" horiz-adv-x="0" >
  <font-face 
    font-family="Telegraf UltraLight"
    font-weight="200"
    font-stretch="normal"
    units-per-em="1000"
    panose-1="0 0 3 0 0 0 0 0 0 0"
    ascent="800"
    descent="-200"
    x-height="500"
    cap-height="665"
    bbox="-415 -243 1241 979"
    underline-thickness="30"
    underline-position="-50"
    stemh="33"
    stemv="40"
    unicode-range="U+0020-25CF"
  />
<missing-glyph horiz-adv-x="450" 
d="M369 700v-900h-285v900h285zM300 640h-149v-30h59v-33h-60v-30h150v30h-60v33h60v30zM240 524h-90v-94h150v31h-60v63zM210 493v-32h-30v32h30zM300 406h-150v-30h60v-33h-60v-30h90v63h60v30zM300 352h-30v-60h-120v-30h150v90zM300 242h-90v-50h30v20h30v-42h-90v72
h-30v-102h150v102zM300 86h-150v-102h150v102zM270 57v-43h-90v43h90zM300 -36h-150v-30h63l-63 -42v-30h150v30h-92l63 42h29v30z" />
    <glyph glyph-name="f_f" unicode="ff" horiz-adv-x="614" 
d="M614 666h-183v-166h160v-34h-159v-466h-40v466h-242v-466h-40v466h-80v29l80 5v144c0 39 15 56 60 56h149v-34h-170v-166h243v144c0 39 15 56 60 56h162v-34z" />
    <glyph glyph-name="f_f_i" unicode="ffi" horiz-adv-x="790" 
d="M452 700h267v-34h-288v-166h160v-34h-159v-466h-40v466h-242v-466h-40v466h-80v29l80 5v144c0 39 15 56 60 56h149v-34h-170v-166h243v144c0 39 15 56 60 56zM679 0v500h40v-500h-40z" />
    <glyph glyph-name="f_f_l" unicode="ffl" horiz-adv-x="803" 
d="M727 700v-700h-40v666h-256v-166h155v-34h-154v-466h-40v466h-242v-466h-40v466h-80v29l80 5v144c0 39 15 56 60 56h149v-34h-170v-166h243v144c0 39 15 56 60 56h275z" />
    <glyph glyph-name="f_i" unicode="fi" horiz-adv-x="518" 
d="M110 0v466h-80v29l80 5v144c0 39 15 56 60 56h267v-34h-288v-166h160v-34h-159v-466h-40zM397 0v500h40v-500h-40z" />
    <glyph glyph-name="f_l" unicode="fl" horiz-adv-x="521" 
d="M445 700v-700h-40v666h-256v-166h155v-34h-154v-466h-40v466h-80v29l80 5v144c0 39 15 56 60 56h275z" />
    <glyph glyph-name=".notdef" horiz-adv-x="450" 
d="M369 700v-900h-285v900h285zM300 640h-149v-30h59v-33h-60v-30h150v30h-60v33h60v30zM240 524h-90v-94h150v31h-60v63zM210 493v-32h-30v32h30zM300 406h-150v-30h60v-33h-60v-30h90v63h60v30zM300 352h-30v-60h-120v-30h150v90zM300 242h-90v-50h30v20h30v-42h-90v72
h-30v-102h150v102zM300 86h-150v-102h150v102zM270 57v-43h-90v43h90zM300 -36h-150v-30h63l-63 -42v-30h150v30h-92l63 42h29v30z" />
    <glyph glyph-name="space" unicode=" " horiz-adv-x="184" 
 />
    <glyph glyph-name="A" unicode="A" horiz-adv-x="665" 
d="M581 0l-77 194h-344l-77 -194h-43l263 665h59l263 -665h-44zM174 230h316l-158 400z" />
    <glyph glyph-name="Aacute" unicode="&#xc1;" horiz-adv-x="665" 
d="M445 805l-217 -78l-9 24l210 93zM581 0l-77 194h-344l-77 -194h-43l263 665h59l263 -665h-44zM174 230h316l-158 400z" />
    <glyph glyph-name="Abreve" unicode="&#x102;" horiz-adv-x="665" 
d="M333 740c-68 0 -93 50 -94 95h25c5 -36 28 -62 69 -62s64 26 69 62h25c-1 -45 -26 -95 -94 -95zM581 0l-77 194h-344l-77 -194h-43l263 665h59l263 -665h-44zM174 230h316l-158 400z" />
    <glyph glyph-name="uni01CD" unicode="&#x1cd;" horiz-adv-x="665" 
d="M346 732h-26l-117 94l24 20l106 -78l106 78l24 -20zM581 0l-77 194h-344l-77 -194h-43l263 665h59l263 -665h-44zM174 230h316l-158 400z" />
    <glyph glyph-name="Acircumflex" unicode="&#xc2;" horiz-adv-x="665" 
d="M333 808l-106 -78l-24 20l117 94h26l117 -94l-24 -20zM581 0l-77 194h-344l-77 -194h-43l263 665h59l263 -665h-44zM174 230h316l-158 400z" />
    <glyph glyph-name="Adieresis" unicode="&#xc4;" horiz-adv-x="665" 
d="M293 813v-68h-58v68h58zM430 813v-68h-58v68h58zM581 0l-77 194h-344l-77 -194h-43l263 665h59l263 -665h-44zM174 230h316l-158 400z" />
    <glyph glyph-name="Agrave" unicode="&#xc0;" horiz-adv-x="665" 
d="M446 751l-9 -24l-217 78l16 39zM581 0l-77 194h-344l-77 -194h-43l263 665h59l263 -665h-44zM174 230h316l-158 400z" />
    <glyph glyph-name="Amacron" unicode="&#x100;" horiz-adv-x="665" 
d="M498 807v-34h-330v34h330zM581 0l-77 194h-344l-77 -194h-43l263 665h59l263 -665h-44zM174 230h316l-158 400z" />
    <glyph glyph-name="Aogonek" unicode="&#x104;" horiz-adv-x="665" 
d="M645 -122c10 0 25 1 43 7v-34c-16 -5 -32 -7 -50 -7c-61 0 -101 31 -101 92c0 38 15 65 36 85l-69 173h-344l-77 -194h-43l263 665h59l263 -665h-35c-12 -15 -20 -34 -20 -58c0 -43 30 -64 75 -64zM174 230h316l-158 400z" />
    <glyph glyph-name="Aring" unicode="&#xc5;" horiz-adv-x="665" 
d="M333 719c-43 0 -68 31 -68 67c0 35 25 66 68 66s68 -31 68 -66c0 -36 -25 -67 -68 -67zM333 826c-21 0 -39 -15 -39 -40s18 -41 39 -41s39 16 39 41s-18 40 -39 40zM581 0l-77 194h-344l-77 -194h-43l263 665h59l263 -665h-44zM174 230h316l-158 400z" />
    <glyph glyph-name="Atilde" unicode="&#xc3;" horiz-adv-x="665" 
d="M247 774v-19h-32v19c0 40 25 57 56 57c57 0 87 -50 121 -50c20 0 27 7 27 29v19h32v-19c0 -40 -25 -57 -56 -57c-51 0 -89 50 -121 50c-20 0 -27 -7 -27 -29zM581 0l-77 194h-344l-77 -194h-43l263 665h59l263 -665h-44zM174 230h316l-158 400z" />
    <glyph glyph-name="AE" unicode="&#xc6;" horiz-adv-x="1033" 
d="M533 36h432v-36h-474v195h-293l-130 -195h-43v3l441 662h496v-36h-429v-265h399v-36h-399v-292zM222 231h269v404z" />
    <glyph glyph-name="B" unicode="B" horiz-adv-x="638" 
d="M451 345c62 -7 127 -53 127 -169c0 -111 -57 -176 -193 -176h-310v665h302c148 0 186 -72 186 -170c0 -92 -41 -138 -112 -150zM373 629h-256v-266h250c111 0 151 50 151 132c0 95 -34 134 -145 134zM386 36c113 0 147 50 147 144c0 92 -43 146 -159 146h-257v-290h269z
" />
    <glyph glyph-name="C" unicode="C" horiz-adv-x="738" 
d="M378 -17c-216 0 -323 140 -323 351c0 209 107 349 323 349c191 0 289 -103 308 -269h-43c-16 163 -109 233 -265 233c-183 0 -278 -102 -278 -313c0 -212 95 -315 278 -315c165 0 259 90 267 259h43c-10 -171 -109 -295 -310 -295z" />
    <glyph glyph-name="Cacute" unicode="&#x106;" horiz-adv-x="738" 
d="M480 805l-217 -78l-9 24l210 93zM378 -17c-216 0 -323 140 -323 351c0 209 107 349 323 349c191 0 289 -103 308 -269h-43c-16 163 -109 233 -265 233c-183 0 -278 -102 -278 -313c0 -212 95 -315 278 -315c165 0 259 90 267 259h43c-10 -171 -109 -295 -310 -295z" />
    <glyph glyph-name="Ccaron" unicode="&#x10c;" horiz-adv-x="738" 
d="M238 826l24 20l106 -78l106 78l24 -20l-117 -94h-26zM378 -17c-216 0 -323 140 -323 351c0 209 107 349 323 349c191 0 289 -103 308 -269h-43c-16 163 -109 233 -265 233c-183 0 -278 -102 -278 -313c0 -212 95 -315 278 -315c165 0 259 90 267 259h43
c-10 -171 -109 -295 -310 -295z" />
    <glyph glyph-name="Ccedilla" unicode="&#xc7;" horiz-adv-x="738" 
d="M688 278c-10 -164 -101 -285 -285 -294l22 -80c12 -44 -9 -60 -46 -60h-71v34h86l-28 105c-208 5 -311 144 -311 351c0 209 107 349 323 349c191 0 289 -103 308 -269h-43c-16 163 -109 233 -265 233c-183 0 -278 -102 -278 -313c0 -212 95 -315 278 -315
c165 0 259 90 267 259h43z" />
    <glyph glyph-name="Cdotaccent" unicode="&#x10a;" horiz-adv-x="738" 
d="M339 745v68h58v-68h-58zM378 -17c-216 0 -323 140 -323 351c0 209 107 349 323 349c191 0 289 -103 308 -269h-43c-16 163 -109 233 -265 233c-183 0 -278 -102 -278 -313c0 -212 95 -315 278 -315c165 0 259 90 267 259h43c-10 -171 -109 -295 -310 -295z" />
    <glyph glyph-name="D" unicode="D" horiz-adv-x="690" 
d="M325 665c220 0 305 -147 305 -331c0 -187 -85 -334 -305 -334h-250v665h250zM322 36c201 0 263 122 263 298c0 175 -61 295 -263 295h-205v-593h205z" />
    <glyph glyph-name="Eth" unicode="&#xd0;" horiz-adv-x="780" 
d="M415 665c220 0 305 -147 305 -331c0 -187 -85 -334 -305 -334h-250v314h-125v36h125v315h250zM412 36c201 0 263 122 263 298c0 175 -61 295 -263 295h-205v-279h233v-36h-233v-278h205z" />
    <glyph glyph-name="Dcaron" unicode="&#x10e;" horiz-adv-x="690" 
d="M358 732h-26l-117 94l24 20l106 -78l106 78l24 -20zM325 665c220 0 305 -147 305 -331c0 -187 -85 -334 -305 -334h-250v665h250zM322 36c201 0 263 122 263 298c0 175 -61 295 -263 295h-205v-593h205z" />
    <glyph glyph-name="Dcroat" unicode="&#x110;" horiz-adv-x="780" 
d="M415 665c220 0 305 -147 305 -331c0 -187 -85 -334 -305 -334h-250v314h-125v36h125v315h250zM412 36c201 0 263 122 263 298c0 175 -61 295 -263 295h-205v-279h233v-36h-233v-278h205z" />
    <glyph glyph-name="E" unicode="E" horiz-adv-x="617" 
d="M117 36h432v-36h-474v665h471v-36h-429v-265h399v-36h-399v-292z" />
    <glyph glyph-name="Eacute" unicode="&#xc9;" horiz-adv-x="617" 
d="M412 805l-217 -78l-9 24l210 93zM117 36h432v-36h-474v665h471v-36h-429v-265h399v-36h-399v-292z" />
    <glyph glyph-name="Ecaron" unicode="&#x11a;" horiz-adv-x="617" 
d="M313 732h-26l-117 94l24 20l106 -78l106 78l24 -20zM117 36h432v-36h-474v665h471v-36h-429v-265h399v-36h-399v-292z" />
    <glyph glyph-name="Ecircumflex" unicode="&#xca;" horiz-adv-x="617" 
d="M300 808l-106 -78l-24 20l117 94h26l117 -94l-24 -20zM117 36h432v-36h-474v665h471v-36h-429v-265h399v-36h-399v-292z" />
    <glyph glyph-name="Edieresis" unicode="&#xcb;" horiz-adv-x="617" 
d="M260 813v-68h-58v68h58zM397 813v-68h-58v68h58zM117 36h432v-36h-474v665h471v-36h-429v-265h399v-36h-399v-292z" />
    <glyph glyph-name="Edotaccent" unicode="&#x116;" horiz-adv-x="617" 
d="M329 813v-68h-58v68h58zM117 36h432v-36h-474v665h471v-36h-429v-265h399v-36h-399v-292z" />
    <glyph glyph-name="Egrave" unicode="&#xc8;" horiz-adv-x="617" 
d="M413 751l-9 -24l-217 78l16 39zM117 36h432v-36h-474v665h471v-36h-429v-265h399v-36h-399v-292z" />
    <glyph glyph-name="Emacron" unicode="&#x112;" horiz-adv-x="617" 
d="M465 807v-34h-330v34h330zM117 36h432v-36h-474v665h471v-36h-429v-265h399v-36h-399v-292z" />
    <glyph glyph-name="Eogonek" unicode="&#x118;" horiz-adv-x="617" 
d="M508 -122c10 0 25 1 43 7v-34c-16 -5 -32 -7 -50 -7c-61 0 -101 31 -101 92c0 26 7 47 19 64h-344v665h471v-36h-429v-265h399v-36h-399v-292h432v-36h-96c-12 -15 -20 -34 -20 -58c0 -43 30 -64 75 -64z" />
    <glyph glyph-name="F" unicode="F" horiz-adv-x="603" 
d="M543 629h-426v-267h396v-36h-396v-326h-42v665h468v-36z" />
    <glyph glyph-name="G" unicode="G" horiz-adv-x="772" 
d="M374 -17c-210 0 -319 140 -319 351c0 209 111 349 328 349c184 0 288 -91 307 -264h-43c-22 163 -105 228 -264 228c-184 0 -283 -97 -283 -313c0 -215 97 -315 281 -315c154 0 236 95 265 264h-336v35h380v-316h-40v205c-25 -98 -78 -224 -276 -224z" />
    <glyph glyph-name="Gbreve" unicode="&#x11e;" horiz-adv-x="772" 
d="M282 835h25c5 -36 28 -62 69 -62s64 26 69 62h25c-1 -45 -26 -95 -94 -95s-93 50 -94 95zM374 -17c-210 0 -319 140 -319 351c0 209 111 349 328 349c184 0 288 -91 307 -264h-43c-22 163 -105 228 -264 228c-184 0 -283 -97 -283 -313c0 -215 97 -315 281 -315
c154 0 236 95 265 264h-336v35h380v-316h-40v205c-25 -98 -78 -224 -276 -224z" />
    <glyph glyph-name="uni0122" unicode="&#x122;" horiz-adv-x="772" 
d="M374 -17c-210 0 -319 140 -319 351c0 209 111 349 328 349c184 0 288 -91 307 -264h-43c-22 163 -105 228 -264 228c-184 0 -283 -97 -283 -313c0 -215 97 -315 281 -315c154 0 236 95 265 264h-336v35h380v-316h-40v205c-25 -98 -78 -224 -276 -224zM339 -119v61h74
v-115c0 -55 -13 -70 -69 -70h-5v40h39v84h-39z" />
    <glyph glyph-name="Gdotaccent" unicode="&#x120;" horiz-adv-x="772" 
d="M347 745v68h58v-68h-58zM374 -17c-210 0 -319 140 -319 351c0 209 111 349 328 349c184 0 288 -91 307 -264h-43c-22 163 -105 228 -264 228c-184 0 -283 -97 -283 -313c0 -215 97 -315 281 -315c154 0 236 95 265 264h-336v35h380v-316h-40v205
c-25 -98 -78 -224 -276 -224z" />
    <glyph glyph-name="H" unicode="H" horiz-adv-x="678" 
d="M561 665h42v-665h-42v327h-444v-327h-42v665h42v-302h444v302z" />
    <glyph glyph-name="Hbar" unicode="&#x126;" horiz-adv-x="803" 
d="M763 544v-36h-99v-508h-42v327h-444v-327h-42v508h-96v36h96v121h42v-121h444v121h42v-121h99zM622 363v145h-444v-145h444z" />
    <glyph glyph-name="I" unicode="I" horiz-adv-x="484" 
d="M414 629h-151v-593h151v-36h-344v36h151v593h-151v36h344v-36z" />
    <glyph glyph-name="Iacute" unicode="&#xcd;" horiz-adv-x="484" 
d="M354 805l-217 -78l-9 24l210 93zM414 629h-151v-593h151v-36h-344v36h151v593h-151v36h344v-36z" />
    <glyph glyph-name="uni01CF" unicode="&#x1cf;" horiz-adv-x="484" 
d="M255 732h-26l-117 94l24 20l106 -78l106 78l24 -20zM414 629h-151v-593h151v-36h-344v36h151v593h-151v36h344v-36z" />
    <glyph glyph-name="Icircumflex" unicode="&#xce;" horiz-adv-x="484" 
d="M242 808l-106 -78l-24 20l117 94h26l117 -94l-24 -20zM414 629h-151v-593h151v-36h-344v36h151v593h-151v36h344v-36z" />
    <glyph glyph-name="Idieresis" unicode="&#xcf;" horiz-adv-x="484" 
d="M202 813v-68h-58v68h58zM339 813v-68h-58v68h58zM414 629h-151v-593h151v-36h-344v36h151v593h-151v36h344v-36z" />
    <glyph glyph-name="Idotaccent" unicode="&#x130;" horiz-adv-x="484" 
d="M271 813v-68h-58v68h58zM414 629h-151v-593h151v-36h-344v36h151v593h-151v36h344v-36z" />
    <glyph glyph-name="Igrave" unicode="&#xcc;" horiz-adv-x="484" 
d="M355 751l-9 -24l-217 78l16 39zM414 629h-151v-593h151v-36h-344v36h151v593h-151v36h344v-36z" />
    <glyph glyph-name="Imacron" unicode="&#x12a;" horiz-adv-x="484" 
d="M407 807v-34h-330v34h330zM414 629h-151v-593h151v-36h-344v36h151v593h-151v36h344v-36z" />
    <glyph glyph-name="Iogonek" unicode="&#x12e;" horiz-adv-x="484" 
d="M389 -122c10 0 25 1 43 7v-34c-16 -5 -32 -7 -50 -7c-61 0 -101 31 -101 92c0 26 7 47 19 64h-230v36h151v593h-151v36h344v-36h-151v-593h151v-36h-80c-12 -15 -20 -34 -20 -58c0 -43 30 -64 75 -64z" />
    <glyph glyph-name="J" unicode="J" horiz-adv-x="392" 
d="M38 0v36h241v629h42v-609c0 -39 -15 -56 -60 -56h-223z" />
    <glyph glyph-name="K" unicode="K" horiz-adv-x="635" 
d="M304 379l281 -377v-2h-53l-256 349l-159 -172v-177h-42v665h42v-432l393 432h57z" />
    <glyph glyph-name="uni0136" unicode="&#x136;" horiz-adv-x="635" 
d="M304 379l281 -377v-2h-53l-256 349l-159 -172v-177h-42v665h42v-432l393 432h57zM281 -119v61h74v-115c0 -55 -13 -70 -69 -70h-5v40h39v84h-39z" />
    <glyph glyph-name="L" unicode="L" horiz-adv-x="536" 
d="M117 36h369v-36h-411v665h42v-629z" />
    <glyph glyph-name="Lacute" unicode="&#x139;" horiz-adv-x="536" 
d="M192 844l16 -39l-217 -78l-9 24zM117 36h369v-36h-411v665h42v-629z" />
    <glyph glyph-name="Lcaron" unicode="&#x13d;" horiz-adv-x="536" 
d="M301 565h-39l-10 185h59zM117 36h369v-36h-411v665h42v-629z" />
    <glyph glyph-name="uni013B" unicode="&#x13b;" horiz-adv-x="536" 
d="M117 36h369v-36h-411v665h42v-629zM230 -119v61h74v-115c0 -55 -13 -70 -69 -70h-5v40h39v84h-39z" />
    <glyph glyph-name="Lslash" unicode="&#x141;" horiz-adv-x="628" 
d="M209 36h369v-36h-411v280l-127 -49v38l127 49v347h42v-331l231 90v-38l-231 -90v-260z" />
    <glyph glyph-name="M" unicode="M" horiz-adv-x="830" 
d="M755 665v-665h-42v636l-266 -636h-64l-266 636v-636h-42v665h77l264 -632l264 632h75z" />
    <glyph glyph-name="N" unicode="N" horiz-adv-x="678" 
d="M561 665h42v-665h-62l-395 577c-13 19 -22 35 -29 49v-626h-42v665h62l393 -575c10 -14 21 -32 31 -50v625z" />
    <glyph glyph-name="Nacute" unicode="&#x143;" horiz-adv-x="678" 
d="M451 805l-217 -78l-9 24l210 93zM561 665h42v-665h-62l-395 577c-13 19 -22 35 -29 49v-626h-42v665h62l393 -575c10 -14 21 -32 31 -50v625z" />
    <glyph glyph-name="Ncaron" unicode="&#x147;" horiz-adv-x="678" 
d="M352 732h-26l-117 94l24 20l106 -78l106 78l24 -20zM561 665h42v-665h-62l-395 577c-13 19 -22 35 -29 49v-626h-42v665h62l393 -575c10 -14 21 -32 31 -50v625z" />
    <glyph glyph-name="uni0145" unicode="&#x145;" horiz-adv-x="678" 
d="M561 665h42v-665h-62l-395 577c-13 19 -22 35 -29 49v-626h-42v665h62l393 -575c10 -14 21 -32 31 -50v625zM302 -119v61h74v-115c0 -55 -13 -70 -69 -70h-5v40h39v84h-39z" />
    <glyph glyph-name="Eng" unicode="&#x14a;" horiz-adv-x="678" 
d="M561 665h42v-809c0 -39 -15 -56 -60 -56h-155v34h173v166h-20l-395 577c-13 19 -22 35 -29 49v-626h-42v665h62l393 -575c10 -14 21 -32 31 -50v625z" />
    <glyph glyph-name="Ntilde" unicode="&#xd1;" horiz-adv-x="678" 
d="M253 774v-19h-32v19c0 40 25 57 56 57c57 0 87 -50 121 -50c20 0 27 7 27 29v19h32v-19c0 -40 -25 -57 -56 -57c-51 0 -89 50 -121 50c-20 0 -27 -7 -27 -29zM561 665h42v-665h-62l-395 577c-13 19 -22 35 -29 49v-626h-42v665h62l393 -575c10 -14 21 -32 31 -50v625z
" />
    <glyph glyph-name="O" unicode="O" horiz-adv-x="750" 
d="M375 -17c-217 0 -320 140 -320 351c0 208 103 349 320 349s320 -142 320 -349c0 -210 -103 -351 -320 -351zM100 334c0 -212 91 -315 275 -315s275 103 275 315c0 211 -91 313 -275 313s-275 -102 -275 -313z" />
    <glyph glyph-name="Oacute" unicode="&#xd3;" horiz-adv-x="750" 
d="M487 805l-217 -78l-9 24l210 93zM375 -17c-217 0 -320 140 -320 351c0 208 103 349 320 349s320 -142 320 -349c0 -210 -103 -351 -320 -351zM100 334c0 -212 91 -315 275 -315s275 103 275 315c0 211 -91 313 -275 313s-275 -102 -275 -313z" />
    <glyph glyph-name="uni01D1" unicode="&#x1d1;" horiz-adv-x="750" 
d="M245 826l24 20l106 -78l106 78l24 -20l-117 -94h-26zM375 -17c-217 0 -320 140 -320 351c0 208 103 349 320 349s320 -142 320 -349c0 -210 -103 -351 -320 -351zM100 334c0 -212 91 -315 275 -315s275 103 275 315c0 211 -91 313 -275 313s-275 -102 -275 -313z" />
    <glyph glyph-name="Ocircumflex" unicode="&#xd4;" horiz-adv-x="750" 
d="M245 750l117 94h26l117 -94l-24 -20l-106 78l-106 -78zM375 -17c-217 0 -320 140 -320 351c0 208 103 349 320 349s320 -142 320 -349c0 -210 -103 -351 -320 -351zM100 334c0 -212 91 -315 275 -315s275 103 275 315c0 211 -91 313 -275 313s-275 -102 -275 -313z" />
    <glyph glyph-name="Odieresis" unicode="&#xd6;" horiz-adv-x="750" 
d="M277 745v68h58v-68h-58zM414 745v68h58v-68h-58zM375 -17c-217 0 -320 140 -320 351c0 208 103 349 320 349s320 -142 320 -349c0 -210 -103 -351 -320 -351zM100 334c0 -212 91 -315 275 -315s275 103 275 315c0 211 -91 313 -275 313s-275 -102 -275 -313z" />
    <glyph glyph-name="Ograve" unicode="&#xd2;" horiz-adv-x="750" 
d="M262 805l16 39l210 -93l-9 -24zM375 -17c-217 0 -320 140 -320 351c0 208 103 349 320 349s320 -142 320 -349c0 -210 -103 -351 -320 -351zM100 334c0 -212 91 -315 275 -315s275 103 275 315c0 211 -91 313 -275 313s-275 -102 -275 -313z" />
    <glyph glyph-name="Ohungarumlaut" unicode="&#x150;" horiz-adv-x="750" 
d="M404 833l-149 -113l-16 19l137 125zM568 833l-149 -113l-16 19l137 125zM375 -17c-217 0 -320 140 -320 351c0 208 103 349 320 349s320 -142 320 -349c0 -210 -103 -351 -320 -351zM100 334c0 -212 91 -315 275 -315s275 103 275 315c0 211 -91 313 -275 313
s-275 -102 -275 -313z" />
    <glyph glyph-name="Omacron" unicode="&#x14c;" horiz-adv-x="750" 
d="M210 807h330v-34h-330v34zM375 -17c-217 0 -320 140 -320 351c0 208 103 349 320 349s320 -142 320 -349c0 -210 -103 -351 -320 -351zM100 334c0 -212 91 -315 275 -315s275 103 275 315c0 211 -91 313 -275 313s-275 -102 -275 -313z" />
    <glyph glyph-name="Oslash" unicode="&#xd8;" horiz-adv-x="750" 
d="M518 657c120 -50 177 -168 177 -323c0 -210 -103 -351 -320 -351c-43 0 -82 5 -116 16l-70 -179l-35 10l71 182c-115 51 -170 167 -170 322c0 208 103 349 320 349c40 0 76 -5 109 -14l53 135l35 -10zM100 334c0 -151 46 -246 139 -289l232 591c-29 7 -61 11 -96 11
c-184 0 -275 -102 -275 -313zM375 19c184 0 275 103 275 315c0 153 -48 249 -145 290l-233 -592c31 -9 65 -13 103 -13z" />
    <glyph glyph-name="Otilde" unicode="&#xd5;" horiz-adv-x="750" 
d="M437 753c-51 0 -89 50 -121 50c-20 0 -27 -7 -27 -29v-19h-32v19c0 40 25 57 56 57c57 0 87 -50 121 -50c20 0 27 7 27 29v19h32v-19c0 -40 -25 -57 -56 -57zM375 -17c-217 0 -320 140 -320 351c0 208 103 349 320 349s320 -142 320 -349c0 -210 -103 -351 -320 -351z
M100 334c0 -212 91 -315 275 -315s275 103 275 315c0 211 -91 313 -275 313s-275 -102 -275 -313z" />
    <glyph glyph-name="OE" unicode="&#x152;" horiz-adv-x="1192" 
d="M692 36h432v-36h-474v155c-41 -107 -129 -172 -275 -172c-217 0 -320 140 -320 351c0 208 103 349 320 349c146 0 234 -65 275 -172v154h471v-36h-429v-265h399v-36h-399v-292zM375 19c184 0 275 103 275 315c0 211 -91 313 -275 313s-275 -102 -275 -313
c0 -212 91 -315 275 -315z" />
    <glyph glyph-name="P" unicode="P" horiz-adv-x="596" 
d="M360 665c134 0 191 -72 191 -180c0 -103 -57 -181 -201 -181h-233v-304h-42v665h285zM348 340c110 0 158 54 158 145c0 101 -48 144 -148 144h-241v-289h231z" />
    <glyph glyph-name="Thorn" unicode="&#xde;" horiz-adv-x="596" 
d="M360 513c134 0 191 -72 191 -180c0 -103 -57 -181 -201 -181h-233v-152h-42v665h42v-152h243zM348 188c110 0 158 54 158 145c0 101 -48 144 -148 144h-241v-289h231z" />
    <glyph glyph-name="Q" unicode="Q" horiz-adv-x="768" 
d="M55 347c0 209 108 336 326 336s325 -128 325 -334c0 -146 -59 -272 -195 -314h202v-35h-332c-218 0 -326 135 -326 347zM100 347c0 -213 95 -311 281 -311c184 0 280 98 280 311c0 212 -96 300 -280 300c-186 0 -281 -88 -281 -300z" />
    <glyph glyph-name="R" unicode="R" horiz-adv-x="628" 
d="M534 184v-85c0 -37 2 -62 10 -99h-42c-8 32 -10 63 -10 99v79c0 94 -46 140 -149 140h-226v-318h-42v665h292c134 0 188 -65 188 -166c0 -85 -54 -151 -128 -164c55 -10 107 -43 107 -151zM117 353h235c110 0 158 55 158 140c0 100 -48 136 -148 136h-245v-276z" />
    <glyph glyph-name="Racute" unicode="&#x154;" horiz-adv-x="628" 
d="M425 805l-217 -78l-9 24l210 93zM534 184v-85c0 -37 2 -62 10 -99h-42c-8 32 -10 63 -10 99v79c0 94 -46 140 -149 140h-226v-318h-42v665h292c134 0 188 -65 188 -166c0 -85 -54 -151 -128 -164c55 -10 107 -43 107 -151zM117 353h235c110 0 158 55 158 140
c0 100 -48 136 -148 136h-245v-276z" />
    <glyph glyph-name="Rcaron" unicode="&#x158;" horiz-adv-x="628" 
d="M326 732h-26l-117 94l24 20l106 -78l106 78l24 -20zM534 184v-85c0 -37 2 -62 10 -99h-42c-8 32 -10 63 -10 99v79c0 94 -46 140 -149 140h-226v-318h-42v665h292c134 0 188 -65 188 -166c0 -85 -54 -151 -128 -164c55 -10 107 -43 107 -151zM117 353h235
c110 0 158 55 158 140c0 100 -48 136 -148 136h-245v-276z" />
    <glyph glyph-name="uni0156" unicode="&#x156;" horiz-adv-x="628" 
d="M534 184v-85c0 -37 2 -62 10 -99h-42c-8 32 -10 63 -10 99v79c0 94 -46 140 -149 140h-226v-318h-42v665h292c134 0 188 -65 188 -166c0 -85 -54 -151 -128 -164c55 -10 107 -43 107 -151zM117 353h235c110 0 158 55 158 140c0 100 -48 136 -148 136h-245v-276zM276 -119
v61h74v-115c0 -55 -13 -70 -69 -70h-5v40h39v84h-39z" />
    <glyph glyph-name="S" unicode="S" horiz-adv-x="654" 
d="M60 238h42c0 -106 43 -216 243 -216c144 0 205 48 205 143c0 87 -36 125 -139 143l-163 28c-120 21 -161 74 -161 164c0 100 77 183 238 183c149 0 249 -76 258 -221h-42c-7 110 -67 185 -216 185c-138 0 -194 -59 -194 -147c0 -56 19 -108 122 -125l172 -29
c122 -21 169 -71 169 -173c0 -120 -72 -187 -249 -187c-210 0 -285 109 -285 252z" />
    <glyph glyph-name="Sacute" unicode="&#x15a;" horiz-adv-x="654" 
d="M439 805l-217 -78l-9 24l210 93zM60 238h42c0 -106 43 -216 243 -216c144 0 205 48 205 143c0 87 -36 125 -139 143l-163 28c-120 21 -161 74 -161 164c0 100 77 183 238 183c149 0 249 -76 258 -221h-42c-7 110 -67 185 -216 185c-138 0 -194 -59 -194 -147
c0 -56 19 -108 122 -125l172 -29c122 -21 169 -71 169 -173c0 -120 -72 -187 -249 -187c-210 0 -285 109 -285 252z" />
    <glyph glyph-name="Scaron" unicode="&#x160;" horiz-adv-x="654" 
d="M197 826l24 20l106 -78l106 78l24 -20l-117 -94h-26zM60 238h42c0 -106 43 -216 243 -216c144 0 205 48 205 143c0 87 -36 125 -139 143l-163 28c-120 21 -161 74 -161 164c0 100 77 183 238 183c149 0 249 -76 258 -221h-42c-7 110 -67 185 -216 185
c-138 0 -194 -59 -194 -147c0 -56 19 -108 122 -125l172 -29c122 -21 169 -71 169 -173c0 -120 -72 -187 -249 -187c-210 0 -285 109 -285 252z" />
    <glyph glyph-name="Scedilla" unicode="&#x15e;" horiz-adv-x="654" 
d="M594 173c0 -116 -68 -183 -233 -187l23 -82c12 -44 -9 -60 -46 -60h-71v34h86l-29 108c-194 8 -264 114 -264 252h42c0 -106 43 -216 243 -216c144 0 205 48 205 143c0 87 -36 125 -139 143l-163 28c-120 21 -161 74 -161 164c0 100 77 183 238 183
c149 0 249 -76 258 -221h-42c-7 110 -67 185 -216 185c-138 0 -194 -59 -194 -147c0 -56 19 -108 122 -125l172 -29c122 -21 169 -71 169 -173z" />
    <glyph glyph-name="uni0218" unicode="&#x218;" horiz-adv-x="654" 
d="M60 238h42c0 -106 43 -216 243 -216c144 0 205 48 205 143c0 87 -36 125 -139 143l-163 28c-120 21 -161 74 -161 164c0 100 77 183 238 183c149 0 249 -76 258 -221h-42c-7 110 -67 185 -216 185c-138 0 -194 -59 -194 -147c0 -56 19 -108 122 -125l172 -29
c122 -21 169 -71 169 -173c0 -120 -72 -187 -249 -187c-210 0 -285 109 -285 252zM290 -119v61h74v-115c0 -55 -13 -70 -69 -70h-5v40h39v84h-39z" />
    <glyph glyph-name="T" unicode="T" horiz-adv-x="612" 
d="M582 665v-36h-254v-631h-42v631h-256v36h552z" />
    <glyph glyph-name="Tbar" unicode="&#x166;" horiz-adv-x="622" 
d="M592 366v-36h-264v-332h-42v332h-246v36h246v263h-256v36h552v-36h-254v-263h264z" />
    <glyph glyph-name="Tcaron" unicode="&#x164;" horiz-adv-x="612" 
d="M319 732h-26l-117 94l24 20l106 -78l106 78l24 -20zM582 665v-36h-254v-631h-42v631h-256v36h552z" />
    <glyph glyph-name="uni0162" unicode="&#x162;" horiz-adv-x="612" 
d="M328 629v-631h-2l26 -94c12 -44 -9 -60 -46 -60h-71v34h86l-32 120h-3v631h-256v36h552v-36h-254z" />
    <glyph glyph-name="uni021A" unicode="&#x21a;" horiz-adv-x="612" 
d="M30 665h552v-36h-254v-631h-42v631h-256v36zM258 -119v61h74v-115c0 -55 -13 -70 -69 -70h-5v40h39v84h-39z" />
    <glyph glyph-name="U" unicode="U" horiz-adv-x="652" 
d="M70 230v435h42v-434c0 -146 66 -211 214 -211s214 65 214 211v434h42v-435c0 -155 -72 -246 -256 -246s-256 90 -256 246z" />
    <glyph glyph-name="Uacute" unicode="&#xda;" horiz-adv-x="652" 
d="M438 805l-217 -78l-9 24l210 93zM70 230v435h42v-434c0 -146 66 -211 214 -211s214 65 214 211v434h42v-435c0 -155 -72 -246 -256 -246s-256 90 -256 246z" />
    <glyph glyph-name="uni01D3" unicode="&#x1d3;" horiz-adv-x="652" 
d="M196 826l24 20l106 -78l106 78l24 -20l-117 -94h-26zM70 230v435h42v-434c0 -146 66 -211 214 -211s214 65 214 211v434h42v-435c0 -155 -72 -246 -256 -246s-256 90 -256 246z" />
    <glyph glyph-name="Ucircumflex" unicode="&#xdb;" horiz-adv-x="652" 
d="M196 750l117 94h26l117 -94l-24 -20l-106 78l-106 -78zM70 230v435h42v-434c0 -146 66 -211 214 -211s214 65 214 211v434h42v-435c0 -155 -72 -246 -256 -246s-256 90 -256 246z" />
    <glyph glyph-name="Udieresis" unicode="&#xdc;" horiz-adv-x="652" 
d="M228 745v68h58v-68h-58zM365 745v68h58v-68h-58zM70 230v435h42v-434c0 -146 66 -211 214 -211s214 65 214 211v434h42v-435c0 -155 -72 -246 -256 -246s-256 90 -256 246z" />
    <glyph glyph-name="uni01D7" unicode="&#x1d7;" horiz-adv-x="652" 
d="M438 938l-217 -78l-9 24l210 93zM228 745v68h58v-68h-58zM365 745v68h58v-68h-58zM70 230v435h42v-434c0 -146 66 -211 214 -211s214 65 214 211v434h42v-435c0 -155 -72 -246 -256 -246s-256 90 -256 246z" />
    <glyph glyph-name="uni01D9" unicode="&#x1d9;" horiz-adv-x="652" 
d="M196 959l24 20l106 -78l106 78l24 -20l-117 -94h-26zM228 745v68h58v-68h-58zM365 745v68h58v-68h-58zM70 230v435h42v-434c0 -146 66 -211 214 -211s214 65 214 211v434h42v-435c0 -155 -72 -246 -256 -246s-256 90 -256 246z" />
    <glyph glyph-name="uni01DB" unicode="&#x1db;" horiz-adv-x="652" 
d="M213 938l16 39l210 -93l-9 -24zM228 745v68h58v-68h-58zM365 745v68h58v-68h-58zM70 230v435h42v-434c0 -146 66 -211 214 -211s214 65 214 211v434h42v-435c0 -155 -72 -246 -256 -246s-256 90 -256 246z" />
    <glyph glyph-name="uni01D5" unicode="&#x1d5;" horiz-adv-x="652" 
d="M161 940h330v-34h-330v34zM228 745v68h58v-68h-58zM365 745v68h58v-68h-58zM70 230v435h42v-434c0 -146 66 -211 214 -211s214 65 214 211v434h42v-435c0 -155 -72 -246 -256 -246s-256 90 -256 246z" />
    <glyph glyph-name="Ugrave" unicode="&#xd9;" horiz-adv-x="652" 
d="M213 805l16 39l210 -93l-9 -24zM70 230v435h42v-434c0 -146 66 -211 214 -211s214 65 214 211v434h42v-435c0 -155 -72 -246 -256 -246s-256 90 -256 246z" />
    <glyph glyph-name="Uhungarumlaut" unicode="&#x170;" horiz-adv-x="652" 
d="M355 833l-149 -113l-16 19l137 125zM519 833l-149 -113l-16 19l137 125zM70 230v435h42v-434c0 -146 66 -211 214 -211s214 65 214 211v434h42v-435c0 -155 -72 -246 -256 -246s-256 90 -256 246z" />
    <glyph glyph-name="Umacron" unicode="&#x16a;" horiz-adv-x="652" 
d="M161 807h330v-34h-330v34zM70 230v435h42v-434c0 -146 66 -211 214 -211s214 65 214 211v434h42v-435c0 -155 -72 -246 -256 -246s-256 90 -256 246z" />
    <glyph glyph-name="Uogonek" unicode="&#x172;" horiz-adv-x="652" 
d="M485 19c-19 -16 -38 -40 -38 -77c0 -43 30 -64 75 -64c10 0 25 1 43 7v-34c-16 -5 -32 -7 -50 -7c-61 0 -101 31 -101 92c0 24 6 44 16 61c-29 -9 -64 -13 -104 -13c-184 0 -256 90 -256 246v435h42v-434c0 -146 66 -211 214 -211s214 65 214 211v434h42v-435
c0 -98 -29 -171 -97 -211z" />
    <glyph glyph-name="Uring" unicode="&#x16e;" horiz-adv-x="652" 
d="M326 719c-43 0 -68 31 -68 67c0 35 25 66 68 66s68 -31 68 -66c0 -36 -25 -67 -68 -67zM287 786c0 -25 18 -41 39 -41s39 16 39 41s-18 40 -39 40s-39 -15 -39 -40zM70 230v435h42v-434c0 -146 66 -211 214 -211s214 65 214 211v434h42v-435c0 -155 -72 -246 -256 -246
s-256 90 -256 246z" />
    <glyph glyph-name="V" unicode="V" horiz-adv-x="645" 
d="M557 665h43l-248 -665h-59l-248 665h45l222 -596l12 -32c3 11 7 21 11 32z" />
    <glyph glyph-name="W" unicode="W" horiz-adv-x="965" 
d="M865 665h42l-165 -665h-67l-192 631l-193 -631h-67l-165 665h44l156 -631l193 631h65l193 -631z" />
    <glyph glyph-name="Wacute" unicode="&#x1e82;" horiz-adv-x="965" 
d="M595 805l-217 -78l-9 24l210 93zM865 665h42l-165 -665h-67l-192 631l-193 -631h-67l-165 665h44l156 -631l193 631h65l193 -631z" />
    <glyph glyph-name="Wcircumflex" unicode="&#x174;" horiz-adv-x="965" 
d="M483 808l-106 -78l-24 20l117 94h26l117 -94l-24 -20zM865 665h42l-165 -665h-67l-192 631l-193 -631h-67l-165 665h44l156 -631l193 631h65l193 -631z" />
    <glyph glyph-name="Wdieresis" unicode="&#x1e84;" horiz-adv-x="965" 
d="M443 813v-68h-58v68h58zM580 813v-68h-58v68h58zM865 665h42l-165 -665h-67l-192 631l-193 -631h-67l-165 665h44l156 -631l193 631h65l193 -631z" />
    <glyph glyph-name="Wgrave" unicode="&#x1e80;" horiz-adv-x="965" 
d="M596 751l-9 -24l-217 78l16 39zM865 665h42l-165 -665h-67l-192 631l-193 -631h-67l-165 665h44l156 -631l193 631h65l193 -631z" />
    <glyph glyph-name="X" unicode="X" horiz-adv-x="661" 
d="M609 0h-53l-225 302l-222 -302h-51l248 336l-245 329h50l222 -296l220 296h48l-242 -331z" />
    <glyph glyph-name="Y" unicode="Y" horiz-adv-x="599" 
d="M516 665h48l-244 -405v-260h-42v260l-243 405h50l183 -312l32 -59c10 19 22 39 33 59z" />
    <glyph glyph-name="Yacute" unicode="&#xdd;" horiz-adv-x="599" 
d="M412 805l-217 -78l-9 24l210 93zM516 665h48l-244 -405v-260h-42v260l-243 405h50l183 -312l32 -59c10 19 22 39 33 59z" />
    <glyph glyph-name="Ycircumflex" unicode="&#x176;" horiz-adv-x="599" 
d="M300 808l-106 -78l-24 20l117 94h26l117 -94l-24 -20zM516 665h48l-244 -405v-260h-42v260l-243 405h50l183 -312l32 -59c10 19 22 39 33 59z" />
    <glyph glyph-name="Ydieresis" unicode="&#x178;" horiz-adv-x="599" 
d="M260 813v-68h-58v68h58zM397 813v-68h-58v68h58zM516 665h48l-244 -405v-260h-42v260l-243 405h50l183 -312l32 -59c10 19 22 39 33 59z" />
    <glyph glyph-name="Ygrave" unicode="&#x1ef2;" horiz-adv-x="599" 
d="M413 751l-9 -24l-217 78l16 39zM516 665h48l-244 -405v-260h-42v260l-243 405h50l183 -312l32 -59c10 19 22 39 33 59z" />
    <glyph glyph-name="Z" unicode="Z" horiz-adv-x="676" 
d="M118 36h498v-36h-551v36l498 593h-485v36h535v-36z" />
    <glyph glyph-name="Zacute" unicode="&#x179;" horiz-adv-x="676" 
d="M452 805l-217 -78l-9 24l210 93zM118 36h498v-36h-551v36l498 593h-485v36h535v-36z" />
    <glyph glyph-name="Zcaron" unicode="&#x17d;" horiz-adv-x="676" 
d="M353 732h-26l-117 94l24 20l106 -78l106 78l24 -20zM118 36h498v-36h-551v36l498 593h-485v36h535v-36z" />
    <glyph glyph-name="Zdotaccent" unicode="&#x17b;" horiz-adv-x="676" 
d="M369 813v-68h-58v68h58zM118 36h498v-36h-551v36l498 593h-485v36h535v-36z" />
    <glyph glyph-name="G.ss03" horiz-adv-x="772" 
d="M374 -17c-210 0 -319 140 -319 351c0 209 111 349 328 349c184 0 288 -91 307 -264h-43c-22 163 -105 228 -264 228c-184 0 -283 -97 -283 -313c0 -215 97 -315 281 -315c154 0 236 95 265 264h-336v35h330c32 0 50 -18 50 -50v-266h-40v205c-25 -98 -78 -224 -276 -224z
" />
    <glyph glyph-name="Gbreve.ss03" horiz-adv-x="772" 
d="M282 835h25c5 -36 28 -62 69 -62s64 26 69 62h25c-1 -45 -26 -95 -94 -95s-93 50 -94 95zM374 -17c-210 0 -319 140 -319 351c0 209 111 349 328 349c184 0 288 -91 307 -264h-43c-22 163 -105 228 -264 228c-184 0 -283 -97 -283 -313c0 -215 97 -315 281 -315
c154 0 236 95 265 264h-336v35h330c32 0 50 -18 50 -50v-266h-40v205c-25 -98 -78 -224 -276 -224z" />
    <glyph glyph-name="uni0122.ss03" horiz-adv-x="772" 
d="M374 -17c-210 0 -319 140 -319 351c0 209 111 349 328 349c184 0 288 -91 307 -264h-43c-22 163 -105 228 -264 228c-184 0 -283 -97 -283 -313c0 -215 97 -315 281 -315c154 0 236 95 265 264h-336v35h330c32 0 50 -18 50 -50v-266h-40v205c-25 -98 -78 -224 -276 -224z
M339 -119v61h74v-115c0 -55 -13 -70 -69 -70h-5v40h39v84h-39z" />
    <glyph glyph-name="Gdotaccent.ss03" horiz-adv-x="772" 
d="M347 745v68h58v-68h-58zM374 -17c-210 0 -319 140 -319 351c0 209 111 349 328 349c184 0 288 -91 307 -264h-43c-22 163 -105 228 -264 228c-184 0 -283 -97 -283 -313c0 -215 97 -315 281 -315c154 0 236 95 265 264h-336v35h330c32 0 50 -18 50 -50v-266h-40v205
c-25 -98 -78 -224 -276 -224z" />
    <glyph glyph-name="Q.ss03" horiz-adv-x="750" 
d="M695 334c0 -139 -45 -247 -138 -305l73 -104l-34 -23l-76 108c-41 -18 -89 -27 -145 -27c-217 0 -320 140 -320 351c0 208 103 349 320 349s320 -142 320 -349zM375 19c48 0 89 7 124 21l-127 182l34 23l130 -186c76 47 114 139 114 275c0 211 -91 313 -275 313
s-275 -102 -275 -313c0 -212 91 -315 275 -315z" />
    <glyph glyph-name="R.ss03" horiz-adv-x="650" 
d="M431 36h135v-36h-125c-29 0 -50 10 -61 38l-112 280h-151v-318h-42v665h292c134 0 188 -65 188 -166c0 -116 -67 -181 -190 -181h-50zM117 629v-276h235c110 0 158 55 158 140c0 100 -48 136 -148 136h-245z" />
    <glyph glyph-name="Racute.ss03" horiz-adv-x="650" 
d="M437 805l-217 -78l-9 24l210 93zM431 36h135v-36h-125c-29 0 -50 10 -61 38l-112 280h-151v-318h-42v665h292c134 0 188 -65 188 -166c0 -116 -67 -181 -190 -181h-50zM117 629v-276h235c110 0 158 55 158 140c0 100 -48 136 -148 136h-245z" />
    <glyph glyph-name="Rcaron.ss03" horiz-adv-x="650" 
d="M338 732h-26l-117 94l24 20l106 -78l106 78l24 -20zM431 36h135v-36h-125c-29 0 -50 10 -61 38l-112 280h-151v-318h-42v665h292c134 0 188 -65 188 -166c0 -116 -67 -181 -190 -181h-50zM117 629v-276h235c110 0 158 55 158 140c0 100 -48 136 -148 136h-245z" />
    <glyph glyph-name="uni0156.ss03" horiz-adv-x="650" 
d="M431 36h135v-36h-125c-29 0 -50 10 -61 38l-112 280h-151v-318h-42v665h292c134 0 188 -65 188 -166c0 -116 -67 -181 -190 -181h-50zM117 629v-276h235c110 0 158 55 158 140c0 100 -48 136 -148 136h-245zM288 -119v61h74v-115c0 -55 -13 -70 -69 -70h-5v40h39v84h-39z
" />
    <glyph glyph-name="a" unicode="a" horiz-adv-x="534" 
d="M228 -13c-84 0 -163 41 -163 141c0 83 50 131 152 148l131 22c61 10 83 23 83 67c0 62 -29 117 -149 117c-129 0 -161 -71 -167 -140h-38c7 104 75 175 205 175c136 0 184 -63 184 -149v-225c0 -32 3 -91 8 -143h-36c-5 51 -8 94 -8 126c-18 -54 -67 -139 -202 -139z
M232 22c145 0 199 119 199 204v68c-21 -13 -38 -22 -92 -31l-111 -19c-80 -14 -121 -46 -121 -116c0 -73 54 -106 125 -106z" />
    <glyph glyph-name="aacute" unicode="&#xe1;" horiz-adv-x="534" 
d="M389 648l-217 -78l-9 24l210 93zM228 -13c-84 0 -163 41 -163 141c0 83 50 131 152 148l131 22c61 10 83 23 83 67c0 62 -29 117 -149 117c-129 0 -161 -71 -167 -140h-38c7 104 75 175 205 175c136 0 184 -63 184 -149v-225c0 -32 3 -91 8 -143h-36c-5 51 -8 94 -8 126
c-18 -54 -67 -139 -202 -139zM232 22c145 0 199 119 199 204v68c-21 -13 -38 -22 -92 -31l-111 -19c-80 -14 -121 -46 -121 -116c0 -73 54 -106 125 -106z" />
    <glyph glyph-name="abreve" unicode="&#x103;" horiz-adv-x="534" 
d="M183 665h25c5 -36 28 -62 69 -62s64 26 69 62h25c-1 -45 -26 -95 -94 -95s-93 50 -94 95zM228 -13c-84 0 -163 41 -163 141c0 83 50 131 152 148l131 22c61 10 83 23 83 67c0 62 -29 117 -149 117c-129 0 -161 -71 -167 -140h-38c7 104 75 175 205 175
c136 0 184 -63 184 -149v-225c0 -32 3 -91 8 -143h-36c-5 51 -8 94 -8 126c-18 -54 -67 -139 -202 -139zM232 22c145 0 199 119 199 204v68c-21 -13 -38 -22 -92 -31l-111 -19c-80 -14 -121 -46 -121 -116c0 -73 54 -106 125 -106z" />
    <glyph glyph-name="uni01CE" unicode="&#x1ce;" horiz-adv-x="534" 
d="M147 655l24 20l106 -78l106 78l24 -20l-117 -94h-26zM228 -13c-84 0 -163 41 -163 141c0 83 50 131 152 148l131 22c61 10 83 23 83 67c0 62 -29 117 -149 117c-129 0 -161 -71 -167 -140h-38c7 104 75 175 205 175c136 0 184 -63 184 -149v-225c0 -32 3 -91 8 -143h-36
c-5 51 -8 94 -8 126c-18 -54 -67 -139 -202 -139zM232 22c145 0 199 119 199 204v68c-21 -13 -38 -22 -92 -31l-111 -19c-80 -14 -121 -46 -121 -116c0 -73 54 -106 125 -106z" />
    <glyph glyph-name="acircumflex" unicode="&#xe2;" horiz-adv-x="534" 
d="M147 571l117 94h26l117 -94l-24 -20l-106 78l-106 -78zM228 -13c-84 0 -163 41 -163 141c0 83 50 131 152 148l131 22c61 10 83 23 83 67c0 62 -29 117 -149 117c-129 0 -161 -71 -167 -140h-38c7 104 75 175 205 175c136 0 184 -63 184 -149v-225c0 -32 3 -91 8 -143
h-36c-5 51 -8 94 -8 126c-18 -54 -67 -139 -202 -139zM232 22c145 0 199 119 199 204v68c-21 -13 -38 -22 -92 -31l-111 -19c-80 -14 -121 -46 -121 -116c0 -73 54 -106 125 -106z" />
    <glyph glyph-name="adieresis" unicode="&#xe4;" horiz-adv-x="534" 
d="M179 597v68h58v-68h-58zM316 597v68h58v-68h-58zM228 -13c-84 0 -163 41 -163 141c0 83 50 131 152 148l131 22c61 10 83 23 83 67c0 62 -29 117 -149 117c-129 0 -161 -71 -167 -140h-38c7 104 75 175 205 175c136 0 184 -63 184 -149v-225c0 -32 3 -91 8 -143h-36
c-5 51 -8 94 -8 126c-18 -54 -67 -139 -202 -139zM232 22c145 0 199 119 199 204v68c-21 -13 -38 -22 -92 -31l-111 -19c-80 -14 -121 -46 -121 -116c0 -73 54 -106 125 -106z" />
    <glyph glyph-name="agrave" unicode="&#xe0;" horiz-adv-x="534" 
d="M171 648l16 39l210 -93l-9 -24zM228 -13c-84 0 -163 41 -163 141c0 83 50 131 152 148l131 22c61 10 83 23 83 67c0 62 -29 117 -149 117c-129 0 -161 -71 -167 -140h-38c7 104 75 175 205 175c136 0 184 -63 184 -149v-225c0 -32 3 -91 8 -143h-36c-5 51 -8 94 -8 126
c-18 -54 -67 -139 -202 -139zM232 22c145 0 199 119 199 204v68c-21 -13 -38 -22 -92 -31l-111 -19c-80 -14 -121 -46 -121 -116c0 -73 54 -106 125 -106z" />
    <glyph glyph-name="amacron" unicode="&#x101;" horiz-adv-x="534" 
d="M112 665h330v-34h-330v34zM228 -13c-84 0 -163 41 -163 141c0 83 50 131 152 148l131 22c61 10 83 23 83 67c0 62 -29 117 -149 117c-129 0 -161 -71 -167 -140h-38c7 104 75 175 205 175c136 0 184 -63 184 -149v-225c0 -32 3 -91 8 -143h-36c-5 51 -8 94 -8 126
c-18 -54 -67 -139 -202 -139zM232 22c145 0 199 119 199 204v68c-21 -13 -38 -22 -92 -31l-111 -19c-80 -14 -121 -46 -121 -116c0 -73 54 -106 125 -106z" />
    <glyph glyph-name="aogonek" unicode="&#x105;" horiz-adv-x="534" 
d="M506 -122c10 0 25 1 43 7v-34c-16 -5 -32 -7 -50 -7c-61 0 -101 31 -101 92c0 39 17 67 38 86c-4 42 -6 77 -6 104c-18 -54 -67 -139 -202 -139c-84 0 -163 41 -163 141c0 83 50 131 152 148l131 22c61 10 83 23 83 67c0 62 -29 117 -149 117c-129 0 -161 -71 -167 -140
h-38c7 104 75 175 205 175c136 0 184 -63 184 -149v-225c0 -32 3 -91 8 -143h-23c-12 -15 -20 -34 -20 -58c0 -43 30 -64 75 -64zM431 226v68c-21 -13 -38 -22 -92 -31l-111 -19c-80 -14 -121 -46 -121 -116c0 -73 54 -106 125 -106c145 0 199 119 199 204z" />
    <glyph glyph-name="aring" unicode="&#xe5;" horiz-adv-x="534" 
d="M277 558c-43 0 -68 31 -68 67c0 35 25 66 68 66s68 -31 68 -66c0 -36 -25 -67 -68 -67zM238 625c0 -25 18 -41 39 -41s39 16 39 41s-18 40 -39 40s-39 -15 -39 -40zM228 -13c-84 0 -163 41 -163 141c0 83 50 131 152 148l131 22c61 10 83 23 83 67c0 62 -29 117 -149 117
c-129 0 -161 -71 -167 -140h-38c7 104 75 175 205 175c136 0 184 -63 184 -149v-225c0 -32 3 -91 8 -143h-36c-5 51 -8 94 -8 126c-18 -54 -67 -139 -202 -139zM232 22c145 0 199 119 199 204v68c-21 -13 -38 -22 -92 -31l-111 -19c-80 -14 -121 -46 -121 -116
c0 -73 54 -106 125 -106z" />
    <glyph glyph-name="atilde" unicode="&#xe3;" horiz-adv-x="534" 
d="M339 589c-51 0 -89 50 -121 50c-20 0 -27 -7 -27 -29v-19h-32v19c0 40 25 57 56 57c57 0 87 -50 121 -50c20 0 27 7 27 29v19h32v-19c0 -40 -25 -57 -56 -57zM228 -13c-84 0 -163 41 -163 141c0 83 50 131 152 148l131 22c61 10 83 23 83 67c0 62 -29 117 -149 117
c-129 0 -161 -71 -167 -140h-38c7 104 75 175 205 175c136 0 184 -63 184 -149v-225c0 -32 3 -91 8 -143h-36c-5 51 -8 94 -8 126c-18 -54 -67 -139 -202 -139zM232 22c145 0 199 119 199 204v68c-21 -13 -38 -22 -92 -31l-111 -19c-80 -14 -121 -46 -121 -116
c0 -73 54 -106 125 -106z" />
    <glyph glyph-name="ae" unicode="&#xe6;" horiz-adv-x="943" 
d="M855 160h37c-13 -90 -78 -176 -222 -176c-117 0 -191 58 -222 152c-30 -77 -90 -149 -218 -149c-84 0 -165 41 -165 141c0 83 50 131 152 148l131 22c61 10 83 23 83 67c0 62 -29 117 -149 117c-129 0 -161 -71 -167 -140h-38c7 104 75 175 205 175
c120 0 170 -49 180 -120c37 74 107 119 208 119c132 0 221 -83 221 -236c0 -11 0 -18 -1 -27h-417v-2c0 -156 72 -232 199 -232c113 0 168 56 183 141zM670 481c-114 0 -185 -63 -196 -194h375c-2 144 -79 194 -179 194zM431 226v68c-21 -13 -38 -22 -92 -31l-111 -19
c-80 -14 -121 -46 -121 -116c0 -73 56 -106 127 -106c145 0 197 119 197 204z" />
    <glyph glyph-name="b" unicode="b" horiz-adv-x="590" 
d="M315 517c148 0 220 -99 220 -266c0 -165 -72 -266 -220 -266c-95 0 -163 46 -197 128v-113h-40v700h40v-311c34 82 102 128 197 128zM309 20c118 0 184 75 184 231s-66 231 -184 231c-108 0 -191 -66 -191 -232s83 -230 191 -230z" />
    <glyph glyph-name="c" unicode="c" horiz-adv-x="564" 
d="M52 251c0 161 87 265 238 265c138 0 205 -78 219 -191h-38c-19 113 -90 156 -179 156c-124 0 -198 -74 -198 -230s72 -232 192 -232c108 0 180 54 192 167h38c-9 -121 -91 -202 -230 -202c-153 0 -234 104 -234 267z" />
    <glyph glyph-name="cacute" unicode="&#x107;" horiz-adv-x="564" 
d="M394 648l-217 -78l-9 24l210 93zM52 251c0 161 87 265 238 265c138 0 205 -78 219 -191h-38c-19 113 -90 156 -179 156c-124 0 -198 -74 -198 -230s72 -232 192 -232c108 0 180 54 192 167h38c-9 -121 -91 -202 -230 -202c-153 0 -234 104 -234 267z" />
    <glyph glyph-name="ccaron" unicode="&#x10d;" horiz-adv-x="564" 
d="M152 655l24 20l106 -78l106 78l24 -20l-117 -94h-26zM52 251c0 161 87 265 238 265c138 0 205 -78 219 -191h-38c-19 113 -90 156 -179 156c-124 0 -198 -74 -198 -230s72 -232 192 -232c108 0 180 54 192 167h38c-9 -121 -91 -202 -230 -202c-153 0 -234 104 -234 267z
" />
    <glyph glyph-name="ccedilla" unicode="&#xe7;" horiz-adv-x="564" 
d="M516 186c-8 -112 -79 -190 -200 -201l23 -81c12 -44 -9 -60 -46 -60h-71v34h86l-29 106c-148 3 -227 106 -227 267s87 265 238 265c138 0 205 -78 219 -191h-38c-19 113 -90 156 -179 156c-124 0 -198 -74 -198 -230s72 -232 192 -232c108 0 180 54 192 167h38z" />
    <glyph glyph-name="cdotaccent" unicode="&#x10b;" horiz-adv-x="564" 
d="M253 597v68h58v-68h-58zM52 251c0 161 87 265 238 265c138 0 205 -78 219 -191h-38c-19 113 -90 156 -179 156c-124 0 -198 -74 -198 -230s72 -232 192 -232c108 0 180 54 192 167h38c-9 -121 -91 -202 -230 -202c-153 0 -234 104 -234 267z" />
    <glyph glyph-name="d" unicode="d" horiz-adv-x="590" 
d="M472 700h40v-700h-40v113c-34 -82 -102 -128 -197 -128c-148 0 -220 101 -220 266c0 167 72 266 220 266c95 0 163 -46 197 -128v311zM281 20c108 0 191 64 191 230s-83 232 -191 232c-118 0 -184 -75 -184 -231s66 -231 184 -231z" />
    <glyph glyph-name="eth" unicode="&#xf0;" horiz-adv-x="567" 
d="M351 666c107 -73 161 -184 161 -354c0 -248 -93 -327 -228 -327c-148 0 -229 101 -229 266c0 167 72 266 220 266c95 0 163 -46 197 -129c0 87 -44 183 -142 254l-74 -82l-26 22l71 79c-26 16 -55 30 -87 42l13 26c35 -13 67 -27 95 -44l70 78l26 -22zM281 20
c108 0 191 64 191 230s-83 232 -191 232c-118 0 -184 -75 -184 -231s66 -231 184 -231z" />
    <glyph glyph-name="dcaron" unicode="&#x10f;" horiz-adv-x="666" 
d="M575 750h59l-10 -185h-39zM472 389v311h40v-700h-40v113c-34 -82 -102 -128 -197 -128c-148 0 -220 101 -220 266c0 167 72 266 220 266c95 0 163 -46 197 -128zM281 20c108 0 191 64 191 230s-83 232 -191 232c-118 0 -184 -75 -184 -231s66 -231 184 -231z" />
    <glyph glyph-name="dcroat" unicode="&#x111;" horiz-adv-x="609" 
d="M609 628v-34h-97v-594h-40v113c-34 -82 -102 -128 -197 -128c-148 0 -220 101 -220 266c0 167 72 266 220 266c95 0 163 -46 197 -128v205h-193v34h193v72h40v-72h97zM281 20c108 0 191 64 191 230s-83 232 -191 232c-118 0 -184 -75 -184 -231s66 -231 184 -231z" />
    <glyph glyph-name="e" unicode="e" horiz-adv-x="564" 
d="M476 160h37c-13 -90 -78 -176 -222 -176c-160 0 -239 109 -239 267c0 156 82 265 239 265c132 0 221 -83 221 -236c0 -11 0 -18 -1 -27h-417v-2c0 -156 72 -232 199 -232c113 0 168 56 183 141zM291 481c-114 0 -185 -63 -196 -194h375c-2 144 -79 194 -179 194z" />
    <glyph glyph-name="eacute" unicode="&#xe9;" horiz-adv-x="564" 
d="M395 648l-217 -78l-9 24l210 93zM476 160h37c-13 -90 -78 -176 -222 -176c-160 0 -239 109 -239 267c0 156 82 265 239 265c132 0 221 -83 221 -236c0 -11 0 -18 -1 -27h-417v-2c0 -156 72 -232 199 -232c113 0 168 56 183 141zM291 481c-114 0 -185 -63 -196 -194h375
c-2 144 -79 194 -179 194z" />
    <glyph glyph-name="ecaron" unicode="&#x11b;" horiz-adv-x="564" 
d="M296 561h-26l-117 94l24 20l106 -78l106 78l24 -20zM476 160h37c-13 -90 -78 -176 -222 -176c-160 0 -239 109 -239 267c0 156 82 265 239 265c132 0 221 -83 221 -236c0 -11 0 -18 -1 -27h-417v-2c0 -156 72 -232 199 -232c113 0 168 56 183 141zM291 481
c-114 0 -185 -63 -196 -194h375c-2 144 -79 194 -179 194z" />
    <glyph glyph-name="ecircumflex" unicode="&#xea;" horiz-adv-x="564" 
d="M283 629l-106 -78l-24 20l117 94h26l117 -94l-24 -20zM476 160h37c-13 -90 -78 -176 -222 -176c-160 0 -239 109 -239 267c0 156 82 265 239 265c132 0 221 -83 221 -236c0 -11 0 -18 -1 -27h-417v-2c0 -156 72 -232 199 -232c113 0 168 56 183 141zM291 481
c-114 0 -185 -63 -196 -194h375c-2 144 -79 194 -179 194z" />
    <glyph glyph-name="edieresis" unicode="&#xeb;" horiz-adv-x="564" 
d="M243 665v-68h-58v68h58zM380 665v-68h-58v68h58zM476 160h37c-13 -90 -78 -176 -222 -176c-160 0 -239 109 -239 267c0 156 82 265 239 265c132 0 221 -83 221 -236c0 -11 0 -18 -1 -27h-417v-2c0 -156 72 -232 199 -232c113 0 168 56 183 141zM291 481
c-114 0 -185 -63 -196 -194h375c-2 144 -79 194 -179 194z" />
    <glyph glyph-name="edotaccent" unicode="&#x117;" horiz-adv-x="564" 
d="M312 665v-68h-58v68h58zM476 160h37c-13 -90 -78 -176 -222 -176c-160 0 -239 109 -239 267c0 156 82 265 239 265c132 0 221 -83 221 -236c0 -11 0 -18 -1 -27h-417v-2c0 -156 72 -232 199 -232c113 0 168 56 183 141zM291 481c-114 0 -185 -63 -196 -194h375
c-2 144 -79 194 -179 194z" />
    <glyph glyph-name="egrave" unicode="&#xe8;" horiz-adv-x="564" 
d="M403 594l-9 -24l-217 78l16 39zM476 160h37c-13 -90 -78 -176 -222 -176c-160 0 -239 109 -239 267c0 156 82 265 239 265c132 0 221 -83 221 -236c0 -11 0 -18 -1 -27h-417v-2c0 -156 72 -232 199 -232c113 0 168 56 183 141zM291 481c-114 0 -185 -63 -196 -194h375
c-2 144 -79 194 -179 194z" />
    <glyph glyph-name="emacron" unicode="&#x113;" horiz-adv-x="564" 
d="M448 665v-34h-330v34h330zM476 160h37c-13 -90 -78 -176 -222 -176c-160 0 -239 109 -239 267c0 156 82 265 239 265c132 0 221 -83 221 -236c0 -11 0 -18 -1 -27h-417v-2c0 -156 72 -232 199 -232c113 0 168 56 183 141zM291 481c-114 0 -185 -63 -196 -194h375
c-2 144 -79 194 -179 194z" />
    <glyph glyph-name="eogonek" unicode="&#x119;" horiz-adv-x="564" 
d="M395 -58c0 -43 30 -64 75 -64c10 0 25 1 43 7v-34c-16 -5 -32 -7 -50 -7c-61 0 -101 31 -101 92c0 24 6 44 17 61c-26 -8 -55 -13 -88 -13c-160 0 -239 109 -239 267c0 156 82 265 239 265c132 0 221 -83 221 -236c0 -11 0 -18 -1 -27h-417v-2c0 -156 72 -232 199 -232
c113 0 168 56 183 141h37c-8 -53 -33 -104 -82 -137l3 -3c-20 -17 -39 -41 -39 -78zM291 481c-114 0 -185 -63 -196 -194h375c-2 144 -79 194 -179 194z" />
    <glyph glyph-name="f" unicode="f" horiz-adv-x="332" 
d="M110 0v466h-80v29l80 5v144c0 39 15 56 60 56h162v-34h-183v-166h160v-34h-159v-466h-40z" />
    <glyph glyph-name="g" unicode="g" horiz-adv-x="591" 
d="M473 500h40v-507c0 -127 -54 -204 -227 -204c-142 0 -206 66 -216 170h38c5 -65 44 -135 176 -135c137 0 189 51 189 166v135c-33 -78 -101 -118 -198 -118c-148 0 -220 88 -220 255c0 165 72 253 220 253c97 0 165 -40 198 -118v103zM283 42c109 0 190 59 190 220
s-81 218 -190 218c-120 0 -186 -67 -186 -218s66 -220 186 -220z" />
    <glyph glyph-name="gbreve" unicode="&#x11f;" horiz-adv-x="591" 
d="M296 570c-68 0 -93 50 -94 95h25c5 -36 28 -62 69 -62s64 26 69 62h25c-1 -45 -26 -95 -94 -95zM473 500h40v-507c0 -127 -54 -204 -227 -204c-142 0 -206 66 -216 170h38c5 -65 44 -135 176 -135c137 0 189 51 189 166v135c-33 -78 -101 -118 -198 -118
c-148 0 -220 88 -220 255c0 165 72 253 220 253c97 0 165 -40 198 -118v103zM283 42c109 0 190 59 190 220s-81 218 -190 218c-120 0 -186 -67 -186 -218s66 -220 186 -220z" />
    <glyph glyph-name="uni0123" unicode="&#x123;" horiz-adv-x="591" 
d="M333 637v-61h-74v115c0 55 13 70 69 70h5v-40h-39v-84h39zM473 500h40v-507c0 -127 -54 -204 -227 -204c-142 0 -206 66 -216 170h38c5 -65 44 -135 176 -135c137 0 189 51 189 166v135c-33 -78 -101 -118 -198 -118c-148 0 -220 88 -220 255c0 165 72 253 220 253
c97 0 165 -40 198 -118v103zM283 42c109 0 190 59 190 220s-81 218 -190 218c-120 0 -186 -67 -186 -218s66 -220 186 -220z" />
    <glyph glyph-name="gdotaccent" unicode="&#x121;" horiz-adv-x="591" 
d="M325 665v-68h-58v68h58zM473 500h40v-507c0 -127 -54 -204 -227 -204c-142 0 -206 66 -216 170h38c5 -65 44 -135 176 -135c137 0 189 51 189 166v135c-33 -78 -101 -118 -198 -118c-148 0 -220 88 -220 255c0 165 72 253 220 253c97 0 165 -40 198 -118v103zM283 42
c109 0 190 59 190 220s-81 218 -190 218c-120 0 -186 -67 -186 -218s66 -220 186 -220z" />
    <glyph glyph-name="h" unicode="h" horiz-adv-x="573" 
d="M332 516c110 0 171 -58 171 -184v-332h-40v323c0 113 -45 158 -138 158c-136 0 -205 -131 -205 -330v-151h-40v700h40v-371c34 139 112 187 212 187z" />
    <glyph glyph-name="hbar" unicode="&#x127;" horiz-adv-x="590" 
d="M349 516c110 0 171 -58 171 -184v-332h-40v323c0 113 -45 158 -138 158c-136 0 -205 -131 -205 -330v-151h-40v594h-97v34h97v72h40v-72h193v-34h-193v-265c34 139 112 187 212 187z" />
    <glyph glyph-name="i" unicode="i" horiz-adv-x="200" 
d="M71 597v68h58v-68h-58zM80 0v500h40v-500h-40z" />
    <glyph glyph-name="dotlessi" unicode="&#x131;" horiz-adv-x="200" 
d="M80 0v500h40v-500h-40z" />
    <glyph glyph-name="iacute" unicode="&#xed;" horiz-adv-x="200" 
d="M212 648l-217 -78l-9 24l210 93zM80 0v500h40v-500h-40z" />
    <glyph glyph-name="uni01D0" unicode="&#x1d0;" horiz-adv-x="200" 
d="M-30 655l24 20l106 -78l106 78l24 -20l-117 -94h-26zM80 0v500h40v-500h-40z" />
    <glyph glyph-name="icircumflex" unicode="&#xee;" horiz-adv-x="200" 
d="M-30 571l117 94h26l117 -94l-24 -20l-106 78l-106 -78zM80 0v500h40v-500h-40z" />
    <glyph glyph-name="idieresis" unicode="&#xef;" horiz-adv-x="200" 
d="M2 597v68h58v-68h-58zM139 597v68h58v-68h-58zM80 0v500h40v-500h-40z" />
    <glyph glyph-name="i.loclTRK" horiz-adv-x="200" 
d="M71 597v68h58v-68h-58zM80 0v500h40v-500h-40z" />
    <glyph glyph-name="igrave" unicode="&#xec;" horiz-adv-x="200" 
d="M-6 648l16 39l210 -93l-9 -24zM80 0v500h40v-500h-40z" />
    <glyph glyph-name="imacron" unicode="&#x12b;" horiz-adv-x="200" 
d="M-65 665h330v-34h-330v34zM80 0v500h40v-500h-40z" />
    <glyph glyph-name="iogonek" unicode="&#x12f;" horiz-adv-x="200" 
d="M129 665v-68h-58v68h58zM155 -122c10 0 25 1 43 7v-34c-16 -5 -32 -7 -50 -7c-61 0 -101 31 -101 92c0 36 14 62 33 82v482h40v-500h-20c-12 -15 -20 -34 -20 -58c0 -43 30 -64 75 -64z" />
    <glyph glyph-name="j" unicode="j" horiz-adv-x="165" 
d="M54 597v68h58v-68h-58zM-30 -200v34h93v666h40v-644c0 -39 -15 -56 -60 -56h-73z" />
    <glyph glyph-name="uni0237" unicode="&#x237;" horiz-adv-x="165" 
d="M-30 -200v34h93v666h40v-644c0 -39 -15 -56 -60 -56h-73z" />
    <glyph glyph-name="k" unicode="k" horiz-adv-x="528" 
d="M454 0l-215 263l-119 -116v-147h-40v700h40v-503c11 12 25 25 40 40l271 263h51v-1l-219 -212l245 -287h-54z" />
    <glyph glyph-name="uni0137" unicode="&#x137;" horiz-adv-x="528" 
d="M263 287l245 -287h-54l-215 263l-119 -116v-147h-40v700h40v-503c11 12 25 25 40 40l271 263h51v-1zM227 -119v61h74v-115c0 -55 -13 -70 -69 -70h-5v40h39v84h-39z" />
    <glyph glyph-name="l" unicode="l" horiz-adv-x="192" 
d="M76 0v700h40v-700h-40z" />
    <glyph glyph-name="lacute" unicode="&#x13a;" horiz-adv-x="192" 
d="M208 840l-217 -78l-9 24l210 93zM76 0v700h40v-700h-40z" />
    <glyph glyph-name="lcaron" unicode="&#x13e;" horiz-adv-x="271" 
d="M180 750h59l-10 -185h-39zM76 0v700h40v-700h-40z" />
    <glyph glyph-name="uni013C" unicode="&#x13c;" horiz-adv-x="192" 
d="M76 0v700h40v-700h-40zM59 -119v61h74v-115c0 -55 -13 -70 -69 -70h-5v40h39v84h-39z" />
    <glyph glyph-name="lslash" unicode="&#x142;" horiz-adv-x="380" 
d="M340 414v-38l-130 -58v-318h-40v300l-130 -59v38l130 59v362h40v-344z" />
    <glyph glyph-name="m" unicode="m" horiz-adv-x="906" 
d="M673 516c105 0 163 -53 163 -174v-342h-40v333c0 112 -42 148 -130 148c-141 0 -188 -131 -188 -330v-151h-40v333c0 112 -44 148 -132 148c-141 0 -186 -131 -186 -330v-151h-40v500h40v-155c30 127 96 171 193 171c105 0 165 -53 165 -173c30 128 97 173 195 173z" />
    <glyph glyph-name="n" unicode="n" horiz-adv-x="573" 
d="M332 516c110 0 171 -58 171 -184v-332h-40v323c0 113 -45 158 -138 158c-136 0 -205 -131 -205 -330v-151h-40v500h40v-171c34 139 112 187 212 187z" />
    <glyph glyph-name="nacute" unicode="&#x144;" horiz-adv-x="573" 
d="M399 648l-217 -78l-9 24l210 93zM332 516c110 0 171 -58 171 -184v-332h-40v323c0 113 -45 158 -138 158c-136 0 -205 -131 -205 -330v-151h-40v500h40v-171c34 139 112 187 212 187z" />
    <glyph glyph-name="ncaron" unicode="&#x148;" horiz-adv-x="573" 
d="M300 561h-26l-117 94l24 20l106 -78l106 78l24 -20zM332 516c110 0 171 -58 171 -184v-332h-40v323c0 113 -45 158 -138 158c-136 0 -205 -131 -205 -330v-151h-40v500h40v-171c34 139 112 187 212 187z" />
    <glyph glyph-name="uni0146" unicode="&#x146;" horiz-adv-x="573" 
d="M332 516c110 0 171 -58 171 -184v-332h-40v323c0 113 -45 158 -138 158c-136 0 -205 -131 -205 -330v-151h-40v500h40v-171c34 139 112 187 212 187zM250 -119v61h74v-115c0 -55 -13 -70 -69 -70h-5v40h39v84h-39z" />
    <glyph glyph-name="eng" unicode="&#x14b;" horiz-adv-x="573" 
d="M328 516c112 0 175 -53 175 -184v-476c0 -39 -15 -56 -60 -56h-155v34h175v489c0 118 -47 158 -142 158c-134 0 -201 -131 -201 -330v-151h-40v500h40v-169c33 137 110 185 208 185z" />
    <glyph glyph-name="ntilde" unicode="&#xf1;" horiz-adv-x="573" 
d="M201 610v-19h-32v19c0 40 25 57 56 57c57 0 87 -50 121 -50c20 0 27 7 27 29v19h32v-19c0 -40 -25 -57 -56 -57c-51 0 -89 50 -121 50c-20 0 -27 -7 -27 -29zM332 516c110 0 171 -58 171 -184v-332h-40v323c0 113 -45 158 -138 158c-136 0 -205 -131 -205 -330v-151h-40
v500h40v-171c34 139 112 187 212 187z" />
    <glyph glyph-name="o" unicode="o" horiz-adv-x="582" 
d="M291 -16c-158 0 -239 109 -239 267c0 156 81 265 239 265s239 -110 239 -265c0 -157 -81 -267 -239 -267zM94 251c0 -156 74 -232 197 -232s197 76 197 232s-74 230 -197 230s-197 -74 -197 -230z" />
    <glyph glyph-name="oacute" unicode="&#xf3;" horiz-adv-x="582" 
d="M403 648l-217 -78l-9 24l210 93zM291 -16c-158 0 -239 109 -239 267c0 156 81 265 239 265s239 -110 239 -265c0 -157 -81 -267 -239 -267zM94 251c0 -156 74 -232 197 -232s197 76 197 232s-74 230 -197 230s-197 -74 -197 -230z" />
    <glyph glyph-name="uni01D2" unicode="&#x1d2;" horiz-adv-x="582" 
d="M161 655l24 20l106 -78l106 78l24 -20l-117 -94h-26zM291 -16c-158 0 -239 109 -239 267c0 156 81 265 239 265s239 -110 239 -265c0 -157 -81 -267 -239 -267zM94 251c0 -156 74 -232 197 -232s197 76 197 232s-74 230 -197 230s-197 -74 -197 -230z" />
    <glyph glyph-name="ocircumflex" unicode="&#xf4;" horiz-adv-x="582" 
d="M161 571l117 94h26l117 -94l-24 -20l-106 78l-106 -78zM291 -16c-158 0 -239 109 -239 267c0 156 81 265 239 265s239 -110 239 -265c0 -157 -81 -267 -239 -267zM94 251c0 -156 74 -232 197 -232s197 76 197 232s-74 230 -197 230s-197 -74 -197 -230z" />
    <glyph glyph-name="odieresis" unicode="&#xf6;" horiz-adv-x="582" 
d="M193 597v68h58v-68h-58zM330 597v68h58v-68h-58zM291 -16c-158 0 -239 109 -239 267c0 156 81 265 239 265s239 -110 239 -265c0 -157 -81 -267 -239 -267zM94 251c0 -156 74 -232 197 -232s197 76 197 232s-74 230 -197 230s-197 -74 -197 -230z" />
    <glyph glyph-name="ograve" unicode="&#xf2;" horiz-adv-x="582" 
d="M185 648l16 39l210 -93l-9 -24zM291 -16c-158 0 -239 109 -239 267c0 156 81 265 239 265s239 -110 239 -265c0 -157 -81 -267 -239 -267zM94 251c0 -156 74 -232 197 -232s197 76 197 232s-74 230 -197 230s-197 -74 -197 -230z" />
    <glyph glyph-name="ohungarumlaut" unicode="&#x151;" horiz-adv-x="582" 
d="M311 673l-149 -113l-16 19l137 125zM475 673l-149 -113l-16 19l137 125zM291 -16c-158 0 -239 109 -239 267c0 156 81 265 239 265s239 -110 239 -265c0 -157 -81 -267 -239 -267zM94 251c0 -156 74 -232 197 -232s197 76 197 232s-74 230 -197 230s-197 -74 -197 -230z
" />
    <glyph glyph-name="omacron" unicode="&#x14d;" horiz-adv-x="582" 
d="M126 665h330v-34h-330v34zM291 -16c-158 0 -239 109 -239 267c0 156 81 265 239 265s239 -110 239 -265c0 -157 -81 -267 -239 -267zM94 251c0 -156 74 -232 197 -232s197 76 197 232s-74 230 -197 230s-197 -74 -197 -230z" />
    <glyph glyph-name="oslash" unicode="&#xf8;" horiz-adv-x="582" 
d="M409 490c80 -42 121 -129 121 -239c0 -157 -81 -267 -239 -267c-28 0 -53 3 -76 10l-51 -129l-35 10l52 131c-86 40 -129 129 -129 245c0 156 81 265 239 265c31 0 59 -4 85 -12l43 110l35 -10zM94 251c0 -109 36 -179 100 -211l169 431c-22 7 -46 10 -72 10
c-123 0 -197 -74 -197 -230zM291 19c123 0 197 76 197 232c0 104 -33 172 -92 205l-168 -429c19 -5 40 -8 63 -8z" />
    <glyph glyph-name="otilde" unicode="&#xf5;" horiz-adv-x="582" 
d="M353 589c-51 0 -89 50 -121 50c-20 0 -27 -7 -27 -29v-19h-32v19c0 40 25 57 56 57c57 0 87 -50 121 -50c20 0 27 7 27 29v19h32v-19c0 -40 -25 -57 -56 -57zM291 -16c-158 0 -239 109 -239 267c0 156 81 265 239 265s239 -110 239 -265c0 -157 -81 -267 -239 -267z
M94 251c0 -156 74 -232 197 -232s197 76 197 232s-74 230 -197 230s-197 -74 -197 -230z" />
    <glyph glyph-name="oe" unicode="&#x153;" horiz-adv-x="995" 
d="M907 160h37c-13 -90 -78 -176 -222 -176c-114 0 -185 56 -216 145c-31 -89 -102 -145 -215 -145c-158 0 -239 109 -239 267c0 156 81 265 239 265c113 0 184 -56 216 -145c31 89 102 145 215 145c132 0 221 -83 221 -236c0 -11 0 -18 -1 -27h-417v-2
c0 -156 72 -232 199 -232c113 0 168 56 183 141zM291 19c123 0 197 76 197 232s-74 230 -197 230s-197 -74 -197 -230s74 -232 197 -232zM722 481c-114 0 -185 -63 -196 -194h375c-2 144 -79 194 -179 194z" />
    <glyph glyph-name="p" unicode="p" horiz-adv-x="590" 
d="M315 515c148 0 220 -101 220 -266c0 -167 -72 -266 -220 -266c-95 0 -163 46 -197 128v-311h-40v700h40v-113c34 82 102 128 197 128zM309 18c118 0 184 75 184 231s-66 231 -184 231c-108 0 -191 -64 -191 -230s83 -232 191 -232z" />
    <glyph glyph-name="thorn" unicode="&#xfe;" horiz-adv-x="590" 
d="M315 515c148 0 220 -101 220 -266c0 -167 -72 -266 -220 -266c-95 0 -163 46 -197 128v-311h-40v900h40v-313c34 82 102 128 197 128zM309 18c118 0 184 75 184 231s-66 231 -184 231c-108 0 -191 -64 -191 -230s83 -232 191 -232z" />
    <glyph glyph-name="q" unicode="q" horiz-adv-x="590" 
d="M472 500h40v-700h-40v311c-34 -82 -102 -128 -197 -128c-148 0 -220 99 -220 266c0 165 72 266 220 266c95 0 163 -46 197 -128v113zM281 18c108 0 191 66 191 232s-83 230 -191 230c-118 0 -184 -75 -184 -231s66 -231 184 -231z" />
    <glyph glyph-name="r" unicode="r" horiz-adv-x="371" 
d="M317 504h24v-42l-14 1c-177 13 -207 -143 -207 -292v-171h-40v500h40v-163c30 115 97 167 197 167z" />
    <glyph glyph-name="racute" unicode="&#x155;" horiz-adv-x="371" 
d="M297 648l-217 -78l-9 24l210 93zM317 504h24v-42l-14 1c-177 13 -207 -143 -207 -292v-171h-40v500h40v-163c30 115 97 167 197 167z" />
    <glyph glyph-name="rcaron" unicode="&#x159;" horiz-adv-x="371" 
d="M198 561h-26l-117 94l24 20l106 -78l106 78l24 -20zM317 504h24v-42l-14 1c-177 13 -207 -143 -207 -292v-171h-40v500h40v-163c30 115 97 167 197 167z" />
    <glyph glyph-name="uni0157" unicode="&#x157;" horiz-adv-x="371" 
d="M317 504h24v-42l-14 1c-177 13 -207 -143 -207 -292v-171h-40v500h40v-163c30 115 97 167 197 167zM63 -119v61h74v-115c0 -55 -13 -70 -69 -70h-5v40h39v84h-39z" />
    <glyph glyph-name="s" unicode="s" horiz-adv-x="516" 
d="M46 168h37c8 -82 42 -149 193 -149c85 0 146 31 146 107c0 62 -37 94 -121 105l-100 13c-88 11 -139 51 -139 132c0 85 66 141 184 141c133 0 198 -68 204 -162h-37c-5 64 -47 127 -167 127c-102 0 -144 -40 -144 -106c0 -45 22 -87 103 -97l103 -13
c96 -12 154 -46 154 -139c0 -98 -78 -143 -186 -143c-161 0 -224 71 -230 184z" />
    <glyph glyph-name="sacute" unicode="&#x15b;" horiz-adv-x="516" 
d="M365 648l-217 -78l-9 24l210 93zM46 168h37c8 -82 42 -149 193 -149c85 0 146 31 146 107c0 62 -37 94 -121 105l-100 13c-88 11 -139 51 -139 132c0 85 66 141 184 141c133 0 198 -68 204 -162h-37c-5 64 -47 127 -167 127c-102 0 -144 -40 -144 -106
c0 -45 22 -87 103 -97l103 -13c96 -12 154 -46 154 -139c0 -98 -78 -143 -186 -143c-161 0 -224 71 -230 184z" />
    <glyph glyph-name="scaron" unicode="&#x161;" horiz-adv-x="516" 
d="M123 655l24 20l106 -78l106 78l24 -20l-117 -94h-26zM46 168h37c8 -82 42 -149 193 -149c85 0 146 31 146 107c0 62 -37 94 -121 105l-100 13c-88 11 -139 51 -139 132c0 85 66 141 184 141c133 0 198 -68 204 -162h-37c-5 64 -47 127 -167 127
c-102 0 -144 -40 -144 -106c0 -45 22 -87 103 -97l103 -13c96 -12 154 -46 154 -139c0 -98 -78 -143 -186 -143c-161 0 -224 71 -230 184z" />
    <glyph glyph-name="scedilla" unicode="&#x15f;" horiz-adv-x="516" 
d="M462 127c0 -95 -73 -140 -175 -143l23 -80c12 -44 -9 -60 -46 -60h-71v34h86l-29 107c-142 7 -198 76 -204 183h37c8 -82 42 -149 193 -149c85 0 146 31 146 107c0 62 -37 94 -121 105l-100 13c-88 11 -139 51 -139 132c0 85 66 141 184 141c133 0 198 -68 204 -162h-37
c-5 64 -47 127 -167 127c-102 0 -144 -40 -144 -106c0 -45 22 -87 103 -97l103 -13c96 -12 154 -46 154 -139z" />
    <glyph glyph-name="uni0219" unicode="&#x219;" horiz-adv-x="516" 
d="M46 168h37c8 -82 42 -149 193 -149c85 0 146 31 146 107c0 62 -37 94 -121 105l-100 13c-88 11 -139 51 -139 132c0 85 66 141 184 141c133 0 198 -68 204 -162h-37c-5 64 -47 127 -167 127c-102 0 -144 -40 -144 -106c0 -45 22 -87 103 -97l103 -13
c96 -12 154 -46 154 -139c0 -98 -78 -143 -186 -143c-161 0 -224 71 -230 184zM216 -119v61h74v-115c0 -55 -13 -70 -69 -70h-5v40h39v84h-39z" />
    <glyph glyph-name="germandbls" unicode="&#xdf;" horiz-adv-x="618" 
d="M75 0v440c0 150 81 232 240 232c169 0 228 -80 228 -174c0 -85 -41 -137 -112 -149c62 -7 127 -56 127 -172c0 -111 -57 -177 -193 -177h-120v36h121c113 0 147 51 147 145c0 92 -43 149 -159 149h-109v37h102c111 0 151 56 151 131c0 85 -62 138 -183 138
c-131 0 -198 -69 -198 -199v-437h-42z" />
    <glyph glyph-name="t" unicode="t" horiz-adv-x="372" 
d="M182 0c-45 0 -60 17 -60 56v410h-97v29l100 5l8 106h29v-106h175v-34h-175v-432h175v-34h-155z" />
    <glyph glyph-name="tbar" unicode="&#x167;" horiz-adv-x="372" 
d="M337 466h-175v-103h175v-34h-175v-295h175v-34h-155c-45 0 -60 17 -60 56v273h-97v34h97v103h-97v29l100 5l8 106h29v-106h175v-34z" />
    <glyph glyph-name="tcaron" unicode="&#x165;" horiz-adv-x="372" 
d="M262 750h59l-10 -185h-39zM182 0c-45 0 -60 17 -60 56v410h-97v29l100 5l8 106h29v-106h175v-34h-175v-432h175v-34h-155z" />
    <glyph glyph-name="uni0163" unicode="&#x163;" horiz-adv-x="372" 
d="M337 466h-175v-432h175v-34h-101l27 -96c12 -44 -9 -60 -46 -60h-71v34h86l-33 122h-17c-45 0 -60 17 -60 56v410h-97v29l100 5l8 106h29v-106h175v-34z" />
    <glyph glyph-name="uni021B" unicode="&#x21b;" horiz-adv-x="372" 
d="M182 0c-45 0 -60 17 -60 56v410h-97v29l100 5l8 106h29v-106h175v-34h-175v-432h175v-34h-155zM169 -119v61h74v-115c0 -55 -13 -70 -69 -70h-5v40h39v84h-39z" />
    <glyph glyph-name="u" unicode="u" horiz-adv-x="569" 
d="M449 500h40v-500h-40v170c-32 -138 -106 -186 -204 -186c-112 0 -175 53 -175 184v332h40v-323c0 -125 47 -160 142 -160c134 0 197 133 197 332v151z" />
    <glyph glyph-name="uacute" unicode="&#xfa;" horiz-adv-x="569" 
d="M397 648l-217 -78l-9 24l210 93zM449 500h40v-500h-40v170c-32 -138 -106 -186 -204 -186c-112 0 -175 53 -175 184v332h40v-323c0 -125 47 -160 142 -160c134 0 197 133 197 332v151z" />
    <glyph glyph-name="uni01D4" unicode="&#x1d4;" horiz-adv-x="569" 
d="M298 561h-26l-117 94l24 20l106 -78l106 78l24 -20zM449 500h40v-500h-40v170c-32 -138 -106 -186 -204 -186c-112 0 -175 53 -175 184v332h40v-323c0 -125 47 -160 142 -160c134 0 197 133 197 332v151z" />
    <glyph glyph-name="ucircumflex" unicode="&#xfb;" horiz-adv-x="569" 
d="M285 629l-106 -78l-24 20l117 94h26l117 -94l-24 -20zM449 500h40v-500h-40v170c-32 -138 -106 -186 -204 -186c-112 0 -175 53 -175 184v332h40v-323c0 -125 47 -160 142 -160c134 0 197 133 197 332v151z" />
    <glyph glyph-name="udieresis" unicode="&#xfc;" horiz-adv-x="569" 
d="M245 665v-68h-58v68h58zM382 665v-68h-58v68h58zM449 500h40v-500h-40v170c-32 -138 -106 -186 -204 -186c-112 0 -175 53 -175 184v332h40v-323c0 -125 47 -160 142 -160c134 0 197 133 197 332v151z" />
    <glyph glyph-name="uni01D8" unicode="&#x1d8;" horiz-adv-x="569" 
d="M397 813l-217 -78l-9 24l210 93zM245 597h-58v68h58v-68zM382 597h-58v68h58v-68zM449 500h40v-500h-40v170c-32 -138 -106 -186 -204 -186c-112 0 -175 53 -175 184v332h40v-323c0 -125 47 -160 142 -160c134 0 197 133 197 332v151z" />
    <glyph glyph-name="uni01DA" unicode="&#x1da;" horiz-adv-x="569" 
d="M298 726h-26l-117 94l24 20l106 -78l106 78l24 -20zM245 597h-58v68h58v-68zM382 597h-58v68h58v-68zM449 500h40v-500h-40v170c-32 -138 -106 -186 -204 -186c-112 0 -175 53 -175 184v332h40v-323c0 -125 47 -160 142 -160c134 0 197 133 197 332v151z" />
    <glyph glyph-name="uni01DC" unicode="&#x1dc;" horiz-adv-x="569" 
d="M405 759l-9 -24l-217 78l16 39zM245 597h-58v68h58v-68zM382 597h-58v68h58v-68zM449 500h40v-500h-40v170c-32 -138 -106 -186 -204 -186c-112 0 -175 53 -175 184v332h40v-323c0 -125 47 -160 142 -160c134 0 197 133 197 332v151z" />
    <glyph glyph-name="uni01D6" unicode="&#x1d6;" horiz-adv-x="569" 
d="M450 830v-34h-330v34h330zM245 597h-58v68h58v-68zM382 597h-58v68h58v-68zM449 500h40v-500h-40v170c-32 -138 -106 -186 -204 -186c-112 0 -175 53 -175 184v332h40v-323c0 -125 47 -160 142 -160c134 0 197 133 197 332v151z" />
    <glyph glyph-name="ugrave" unicode="&#xf9;" horiz-adv-x="569" 
d="M405 594l-9 -24l-217 78l16 39zM449 500h40v-500h-40v170c-32 -138 -106 -186 -204 -186c-112 0 -175 53 -175 184v332h40v-323c0 -125 47 -160 142 -160c134 0 197 133 197 332v151z" />
    <glyph glyph-name="uhungarumlaut" unicode="&#x171;" horiz-adv-x="569" 
d="M305 673l-149 -113l-16 19l137 125zM320 560l-16 19l137 125l28 -31zM449 500h40v-500h-40v170c-32 -138 -106 -186 -204 -186c-112 0 -175 53 -175 184v332h40v-323c0 -125 47 -160 142 -160c134 0 197 133 197 332v151z" />
    <glyph glyph-name="umacron" unicode="&#x16b;" horiz-adv-x="569" 
d="M450 665v-34h-330v34h330zM449 500h40v-500h-40v170c-32 -138 -106 -186 -204 -186c-112 0 -175 53 -175 184v332h40v-323c0 -125 47 -160 142 -160c134 0 197 133 197 332v151z" />
    <glyph glyph-name="uogonek" unicode="&#x173;" horiz-adv-x="569" 
d="M524 -122c10 0 25 1 43 7v-34c-16 -5 -32 -7 -50 -7c-61 0 -101 31 -101 92c0 36 14 62 33 82v152c-32 -138 -106 -186 -204 -186c-112 0 -175 53 -175 184v332h40v-323c0 -125 47 -160 142 -160c134 0 197 133 197 332v151h40v-500h-20c-12 -15 -20 -34 -20 -58
c0 -43 30 -64 75 -64z" />
    <glyph glyph-name="uring" unicode="&#x16f;" horiz-adv-x="569" 
d="M285 558c-43 0 -68 31 -68 67c0 35 25 66 68 66s68 -31 68 -66c0 -36 -25 -67 -68 -67zM285 665c-21 0 -39 -15 -39 -40s18 -41 39 -41s39 16 39 41s-18 40 -39 40zM449 500h40v-500h-40v170c-32 -138 -106 -186 -204 -186c-112 0 -175 53 -175 184v332h40v-323
c0 -125 47 -160 142 -160c134 0 197 133 197 332v151z" />
    <glyph glyph-name="v" unicode="v" horiz-adv-x="532" 
d="M462 500h42l-210 -500h-54l-210 500h44l194 -463z" />
    <glyph glyph-name="w" unicode="w" horiz-adv-x="862" 
d="M785 500h42l-157 -500h-59l-180 454l-181 -454h-58l-157 500h44l143 -468l185 468h48l185 -468z" />
    <glyph glyph-name="wacute" unicode="&#x1e83;" horiz-adv-x="862" 
d="M543 648l-217 -78l-9 24l210 93zM785 500h42l-157 -500h-59l-180 454l-181 -454h-58l-157 500h44l143 -468l185 468h48l185 -468z" />
    <glyph glyph-name="wcircumflex" unicode="&#x175;" horiz-adv-x="862" 
d="M431 629l-106 -78l-24 20l117 94h26l117 -94l-24 -20zM785 500h42l-157 -500h-59l-180 454l-181 -454h-58l-157 500h44l143 -468l185 468h48l185 -468z" />
    <glyph glyph-name="wdieresis" unicode="&#x1e85;" horiz-adv-x="862" 
d="M391 665v-68h-58v68h58zM528 665v-68h-58v68h58zM785 500h42l-157 -500h-59l-180 454l-181 -454h-58l-157 500h44l143 -468l185 468h48l185 -468z" />
    <glyph glyph-name="wgrave" unicode="&#x1e81;" horiz-adv-x="862" 
d="M551 594l-9 -24l-217 78l16 39zM785 500h42l-157 -500h-59l-180 454l-181 -454h-58l-157 500h44l143 -468l185 468h48l185 -468z" />
    <glyph glyph-name="x" unicode="x" horiz-adv-x="540" 
d="M38 0l206 256l-198 244h51l173 -218l173 218h50l-198 -245l209 -255h-51l-184 230l-183 -230h-48z" />
    <glyph glyph-name="y" unicode="y" horiz-adv-x="545" 
d="M475 500h42l-288 -662c-11 -26 -19 -38 -48 -38h-112v34h119l71 166h-11l-215 500h44l190 -442l9 -24l8 24z" />
    <glyph glyph-name="yacute" unicode="&#xfd;" horiz-adv-x="545" 
d="M383 648l-217 -78l-9 24l210 93zM475 500h42l-288 -662c-11 -26 -19 -38 -48 -38h-112v34h119l71 166h-11l-215 500h44l190 -442l9 -24l8 24z" />
    <glyph glyph-name="ycircumflex" unicode="&#x177;" horiz-adv-x="545" 
d="M271 629l-106 -78l-24 20l117 94h26l117 -94l-24 -20zM475 500h42l-288 -662c-11 -26 -19 -38 -48 -38h-112v34h119l71 166h-11l-215 500h44l190 -442l9 -24l8 24z" />
    <glyph glyph-name="ydieresis" unicode="&#xff;" horiz-adv-x="545" 
d="M231 665v-68h-58v68h58zM368 665v-68h-58v68h58zM475 500h42l-288 -662c-11 -26 -19 -38 -48 -38h-112v34h119l71 166h-11l-215 500h44l190 -442l9 -24l8 24z" />
    <glyph glyph-name="ygrave" unicode="&#x1ef3;" horiz-adv-x="545" 
d="M391 594l-9 -24l-217 78l16 39zM475 500h42l-288 -662c-11 -26 -19 -38 -48 -38h-112v34h119l71 166h-11l-215 500h44l190 -442l9 -24l8 24z" />
    <glyph glyph-name="z" unicode="z" horiz-adv-x="553" 
d="M125 34h373v-34h-426v34l370 432h-380v34h429v-34z" />
    <glyph glyph-name="zacute" unicode="&#x17a;" horiz-adv-x="553" 
d="M389 648l-217 -78l-9 24l210 93zM125 34h373v-34h-426v34l370 432h-380v34h429v-34z" />
    <glyph glyph-name="zcaron" unicode="&#x17e;" horiz-adv-x="553" 
d="M290 561h-26l-117 94l24 20l106 -78l106 78l24 -20zM125 34h373v-34h-426v34l370 432h-380v34h429v-34z" />
    <glyph glyph-name="zdotaccent" unicode="&#x17c;" horiz-adv-x="553" 
d="M306 665v-68h-58v68h58zM125 34h373v-34h-426v34l370 432h-380v34h429v-34z" />
    <glyph glyph-name="a.ss01" horiz-adv-x="595" 
d="M475 500h40v-500h-40v112c-34 -83 -103 -129 -200 -129c-148 0 -220 100 -220 267c0 165 72 265 220 265c97 0 166 -46 200 -128v113zM283 18c109 0 192 66 192 232s-83 230 -192 230c-120 0 -186 -74 -186 -230s66 -232 186 -232z" />
    <glyph glyph-name="aacute.ss01" horiz-adv-x="595" 
d="M410 648l-217 -78l-9 24l210 93zM475 500h40v-500h-40v112c-34 -83 -103 -129 -200 -129c-148 0 -220 100 -220 267c0 165 72 265 220 265c97 0 166 -46 200 -128v113zM283 18c109 0 192 66 192 232s-83 230 -192 230c-120 0 -186 -74 -186 -230s66 -232 186 -232z" />
    <glyph glyph-name="abreve.ss01" horiz-adv-x="595" 
d="M298 570c-68 0 -93 50 -94 95h25c5 -36 28 -62 69 -62s64 26 69 62h25c-1 -45 -26 -95 -94 -95zM475 500h40v-500h-40v112c-34 -83 -103 -129 -200 -129c-148 0 -220 100 -220 267c0 165 72 265 220 265c97 0 166 -46 200 -128v113zM283 18c109 0 192 66 192 232
s-83 230 -192 230c-120 0 -186 -74 -186 -230s66 -232 186 -232z" />
    <glyph glyph-name="acircumflex.ss01" horiz-adv-x="595" 
d="M298 629l-106 -78l-24 20l117 94h26l117 -94l-24 -20zM475 500h40v-500h-40v112c-34 -83 -103 -129 -200 -129c-148 0 -220 100 -220 267c0 165 72 265 220 265c97 0 166 -46 200 -128v113zM283 18c109 0 192 66 192 232s-83 230 -192 230c-120 0 -186 -74 -186 -230
s66 -232 186 -232z" />
    <glyph glyph-name="adieresis.ss01" horiz-adv-x="595" 
d="M258 665v-68h-58v68h58zM395 665v-68h-58v68h58zM475 500h40v-500h-40v112c-34 -83 -103 -129 -200 -129c-148 0 -220 100 -220 267c0 165 72 265 220 265c97 0 166 -46 200 -128v113zM283 18c109 0 192 66 192 232s-83 230 -192 230c-120 0 -186 -74 -186 -230
s66 -232 186 -232z" />
    <glyph glyph-name="agrave.ss01" horiz-adv-x="595" 
d="M418 594l-9 -24l-217 78l16 39zM475 500h40v-500h-40v112c-34 -83 -103 -129 -200 -129c-148 0 -220 100 -220 267c0 165 72 265 220 265c97 0 166 -46 200 -128v113zM283 18c109 0 192 66 192 232s-83 230 -192 230c-120 0 -186 -74 -186 -230s66 -232 186 -232z" />
    <glyph glyph-name="amacron.ss01" horiz-adv-x="595" 
d="M463 665v-34h-330v34h330zM475 500h40v-500h-40v112c-34 -83 -103 -129 -200 -129c-148 0 -220 100 -220 267c0 165 72 265 220 265c97 0 166 -46 200 -128v113zM283 18c109 0 192 66 192 232s-83 230 -192 230c-120 0 -186 -74 -186 -230s66 -232 186 -232z" />
    <glyph glyph-name="aogonek.ss01" horiz-adv-x="595" 
d="M543 -122c10 0 25 1 43 7v-34c-16 -5 -32 -7 -50 -7c-61 0 -101 31 -101 92c0 40 18 68 40 88v88c-34 -83 -103 -129 -200 -129c-148 0 -220 100 -220 267c0 165 72 265 220 265c97 0 166 -46 200 -128v113h40v-500h-27c-12 -15 -20 -34 -20 -58c0 -43 30 -64 75 -64z
M283 18c109 0 192 66 192 232s-83 230 -192 230c-120 0 -186 -74 -186 -230s66 -232 186 -232z" />
    <glyph glyph-name="aring.ss01" horiz-adv-x="595" 
d="M298 558c-43 0 -68 31 -68 67c0 35 25 66 68 66s68 -31 68 -66c0 -36 -25 -67 -68 -67zM298 665c-21 0 -39 -15 -39 -40s18 -41 39 -41s39 16 39 41s-18 40 -39 40zM475 500h40v-500h-40v112c-34 -83 -103 -129 -200 -129c-148 0 -220 100 -220 267c0 165 72 265 220 265
c97 0 166 -46 200 -128v113zM283 18c109 0 192 66 192 232s-83 230 -192 230c-120 0 -186 -74 -186 -230s66 -232 186 -232z" />
    <glyph glyph-name="atilde.ss01" horiz-adv-x="595" 
d="M212 610v-19h-32v19c0 40 25 57 56 57c57 0 87 -50 121 -50c20 0 27 7 27 29v19h32v-19c0 -40 -25 -57 -56 -57c-51 0 -89 50 -121 50c-20 0 -27 -7 -27 -29zM475 500h40v-500h-40v112c-34 -83 -103 -129 -200 -129c-148 0 -220 100 -220 267c0 165 72 265 220 265
c97 0 166 -46 200 -128v113zM283 18c109 0 192 66 192 232s-83 230 -192 230c-120 0 -186 -74 -186 -230s66 -232 186 -232z" />
    <glyph glyph-name="g.ss02" horiz-adv-x="557" 
d="M389 42c97 0 138 -47 138 -119c0 -66 -41 -135 -235 -135c-161 0 -222 55 -222 134c0 55 38 85 70 98c-29 7 -56 32 -56 72s24 74 81 74h7c-66 26 -100 84 -100 159c0 128 96 181 212 181c108 0 159 -45 179 -94v88h37v-164c0 -114 -48 -192 -211 -192h-112
c-42 0 -58 -21 -58 -51s21 -51 55 -51h215zM112 323c0 -108 60 -147 175 -147c119 0 173 39 173 149c0 96 -63 150 -173 150s-175 -40 -175 -152zM291 -180c150 0 197 41 197 102c0 58 -43 85 -102 85h-198c-34 0 -84 -24 -84 -85c0 -64 50 -102 187 -102z" />
    <glyph glyph-name="gbreve.ss02" horiz-adv-x="557" 
d="M279 570c-68 0 -93 50 -94 95h25c5 -36 28 -62 69 -62s64 26 69 62h25c-1 -45 -26 -95 -94 -95zM389 42c97 0 138 -47 138 -119c0 -66 -41 -135 -235 -135c-161 0 -222 55 -222 134c0 55 38 85 70 98c-29 7 -56 32 -56 72s24 74 81 74h7c-66 26 -100 84 -100 159
c0 128 96 181 212 181c108 0 159 -45 179 -94v88h37v-164c0 -114 -48 -192 -211 -192h-112c-42 0 -58 -21 -58 -51s21 -51 55 -51h215zM112 323c0 -108 60 -147 175 -147c119 0 173 39 173 149c0 96 -63 150 -173 150s-175 -40 -175 -152zM291 -180c150 0 197 41 197 102
c0 58 -43 85 -102 85h-198c-34 0 -84 -24 -84 -85c0 -64 50 -102 187 -102z" />
    <glyph glyph-name="uni0123.ss02" horiz-adv-x="557" 
d="M316 637v-61h-74v115c0 55 13 70 69 70h5v-40h-39v-84h39zM389 42c97 0 138 -47 138 -119c0 -66 -41 -135 -235 -135c-161 0 -222 55 -222 134c0 55 38 85 70 98c-29 7 -56 32 -56 72s24 74 81 74h7c-66 26 -100 84 -100 159c0 128 96 181 212 181c108 0 159 -45 179 -94
v88h37v-164c0 -114 -48 -192 -211 -192h-112c-42 0 -58 -21 -58 -51s21 -51 55 -51h215zM112 323c0 -108 60 -147 175 -147c119 0 173 39 173 149c0 96 -63 150 -173 150s-175 -40 -175 -152zM291 -180c150 0 197 41 197 102c0 58 -43 85 -102 85h-198
c-34 0 -84 -24 -84 -85c0 -64 50 -102 187 -102z" />
    <glyph glyph-name="gdotaccent.ss02" horiz-adv-x="557" 
d="M308 665v-68h-58v68h58zM389 42c97 0 138 -47 138 -119c0 -66 -41 -135 -235 -135c-161 0 -222 55 -222 134c0 55 38 85 70 98c-29 7 -56 32 -56 72s24 74 81 74h7c-66 26 -100 84 -100 159c0 128 96 181 212 181c108 0 159 -45 179 -94v88h37v-164
c0 -114 -48 -192 -211 -192h-112c-42 0 -58 -21 -58 -51s21 -51 55 -51h215zM112 323c0 -108 60 -147 175 -147c119 0 173 39 173 149c0 96 -63 150 -173 150s-175 -40 -175 -152zM291 -180c150 0 197 41 197 102c0 58 -43 85 -102 85h-198c-34 0 -84 -24 -84 -85
c0 -64 50 -102 187 -102z" />
    <glyph glyph-name="f_f_j" horiz-adv-x="772" 
d="M452 700h267v-34h-288v-166h160v-34h-159v-466h-40v466h-242v-466h-40v466h-80v29l80 5v144c0 39 15 56 60 56h149v-34h-170v-166h243v144c0 39 15 56 60 56zM677 -166v666h40v-644c0 -39 -15 -56 -60 -56h-73v34h93z" />
    <glyph glyph-name="f_f_t" horiz-adv-x="938" 
d="M903 466h-175v-432h175v-34h-155c-45 0 -60 17 -60 56v410h-256v-466h-40v466h-242v-466h-40v466h-80v29l80 5v144c0 39 15 56 60 56h149v-34h-170v-166h243v144c0 39 15 56 60 56h142v-34h-163v-166h261l7 106h29v-106h175v-34z" />
    <glyph glyph-name="f_j" horiz-adv-x="490" 
d="M110 0v466h-80v29l80 5v144c0 39 15 56 60 56h267v-34h-288v-166h160v-34h-159v-466h-40zM302 -200v34h93v666h40v-644c0 -39 -15 -56 -60 -56h-73z" />
    <glyph glyph-name="f_t" horiz-adv-x="656" 
d="M621 466h-175v-432h175v-34h-155c-45 0 -60 17 -60 56v410h-256v-466h-40v466h-80v29l80 5v144c0 39 15 56 60 56h142v-34h-163v-166h261l7 106h29v-106h175v-34z" />
    <glyph glyph-name="r_t" horiz-adv-x="688" 
d="M653 466h-195v-432h195v-34h-175c-45 0 -60 17 -60 56v444l11 106h29v-106h195v-34zM120 337c30 115 97 167 197 167h24v-42l-14 1c-177 13 -207 -143 -207 -292v-171h-40v500h40v-163z" />
    <glyph glyph-name="r_t_t" horiz-adv-x="980" 
d="M945 466h-175v-432h175v-34h-155c-45 0 -60 18 -60 57v409h-272v-432h175v-34h-155c-45 0 -60 17 -60 56v444l11 106h29v-106h275l8 106h29v-106h175v-34zM120 337c30 115 97 167 197 167h24v-42l-14 1c-177 13 -207 -143 -207 -292v-171h-40v500h40v-163z" />
    <glyph glyph-name="t_t" horiz-adv-x="684" 
d="M649 466h-175v-432h175v-34h-155c-45 0 -60 18 -60 57v409h-272v-432h175v-34h-155c-45 0 -60 17 -60 56v410h-97v29l100 5l8 106h29v-106h275l8 106h29v-106h175v-34z" />
    <glyph glyph-name="uni0394" unicode="&#x394;" horiz-adv-x="697" 
d="M378 665l269 -630v-35h-597v35l269 630h59zM94 36h508l-254 596z" />
    <glyph glyph-name="uni03A9" unicode="&#x3a9;" horiz-adv-x="774" 
d="M55 0v35h202c-136 42 -195 168 -195 314c0 206 107 334 325 334s325 -128 325 -334c0 -146 -59 -272 -195 -314h202v-35h-664zM387 36c184 0 280 98 280 311c0 212 -96 300 -280 300s-280 -88 -280 -300c0 -213 96 -311 280 -311z" />
    <glyph glyph-name="pi" unicode="&#x3c0;" horiz-adv-x="651" 
d="M606 466h-145v-432h145v-34h-125c-45 0 -60 17 -60 56v410h-182v-466h-40v466h-154v34h561v-34z" />
    <glyph glyph-name="zero" unicode="0" horiz-adv-x="646" 
d="M323 -17c-187 0 -283 140 -283 351c0 208 96 349 283 349s283 -142 283 -349c0 -210 -96 -351 -283 -351zM85 334c0 -212 84 -315 238 -315s238 103 238 315c0 211 -84 313 -238 313s-238 -102 -238 -313z" />
    <glyph glyph-name="one" unicode="1" horiz-adv-x="422" 
d="M57 0v38h157v589h-159v38h141c45 0 60 -17 60 -56v-571h145v-38h-344z" />
    <glyph glyph-name="two" unicode="2" horiz-adv-x="591" 
d="M65 0v38l310 280c79 72 111 116 111 189c0 83 -56 140 -168 140c-136 0 -206 -69 -210 -244h-42c4 199 102 280 250 280s215 -81 215 -175c0 -83 -43 -140 -136 -227l-271 -243h422v-38h-481z" />
    <glyph glyph-name="three" unicode="3" horiz-adv-x="602" 
d="M40 217h45c3 -81 53 -198 208 -198c146 0 214 74 214 185c0 104 -55 173 -161 173c-49 0 -80 -7 -124 -30l-21 29l282 251h-412v38h462v-38l-257 -232c18 5 45 10 76 10c122 0 200 -80 200 -199s-80 -223 -259 -223c-168 0 -250 115 -253 234z" />
    <glyph glyph-name="four" unicode="4" horiz-adv-x="594" 
d="M456 222h114v-36h-114v-186h-42v186h-375v36l348 443h69v-443zM85 222h329v413z" />
    <glyph glyph-name="five" unicode="5" horiz-adv-x="605" 
d="M331 438c147 0 221 -97 221 -221c0 -127 -63 -234 -249 -234c-167 0 -244 77 -251 202h45c8 -102 62 -166 206 -166c149 0 204 89 204 200c0 112 -60 187 -181 187c-76 0 -141 -24 -206 -101h-39l18 360h423v-38h-383l-16 -284c47 57 117 95 208 95z" />
    <glyph glyph-name="six" unicode="6" horiz-adv-x="587" 
d="M316 413c128 0 229 -74 229 -214c0 -114 -74 -216 -240 -216c-163 0 -255 95 -255 331c0 220 87 369 272 369c142 0 206 -81 219 -189h-45c-11 102 -79 153 -177 153c-143 0 -233 -105 -233 -377v-12c30 84 105 155 230 155zM304 19c135 0 196 74 196 180
c0 99 -55 181 -191 181c-107 0 -206 -71 -206 -177c0 -115 80 -184 201 -184z" />
    <glyph glyph-name="seven" unicode="7" horiz-adv-x="500" 
d="M5 627v38h480v-38c-175 -168 -281 -347 -281 -627h-42c0 263 100 454 280 627h-437z" />
    <glyph glyph-name="eight" unicode="8" horiz-adv-x="600" 
d="M300 -16c-170 0 -248 85 -248 192c0 113 78 155 162 175c-95 24 -144 80 -144 159c0 96 80 173 230 173s230 -77 230 -173c0 -78 -51 -134 -144 -158c84 -21 162 -63 162 -176c0 -106 -78 -192 -248 -192zM300 366c135 0 185 77 185 142c0 81 -62 139 -185 139
s-185 -58 -185 -139c0 -65 50 -142 185 -142zM300 20c144 0 203 74 203 154c0 103 -68 157 -203 157s-203 -54 -203 -157c0 -80 59 -154 203 -154z" />
    <glyph glyph-name="nine" unicode="9" horiz-adv-x="587" 
d="M282 683c163 0 255 -95 255 -331c0 -220 -87 -369 -272 -369c-142 0 -206 81 -219 189h45c11 -102 79 -153 177 -153c143 0 233 105 233 377v12c-30 -84 -105 -155 -230 -155c-128 0 -229 74 -229 214c0 114 74 216 240 216zM278 286c107 0 206 71 206 177
c0 115 -80 184 -201 184c-135 0 -196 -74 -196 -180c0 -99 55 -181 191 -181z" />
    <glyph glyph-name="period" unicode="." horiz-adv-x="138" 
d="M32 0v73h74v-73h-74z" />
    <glyph glyph-name="comma" unicode="," horiz-adv-x="138" 
d="M32 12v61h74v-115c0 -55 -13 -70 -69 -70h-5v40h39v84h-39z" />
    <glyph glyph-name="colon" unicode=":" horiz-adv-x="138" 
d="M32 427v73h74v-73h-74zM32 0v73h74v-73h-74z" />
    <glyph glyph-name="semicolon" unicode=";" horiz-adv-x="138" 
d="M32 427v73h74v-73h-74zM32 12v61h74v-115c0 -55 -13 -70 -69 -70h-5v40h39v84h-39z" />
    <glyph glyph-name="ellipsis" unicode="&#x2026;" horiz-adv-x="538" 
d="M32 0v73h74v-73h-74zM232 0v73h74v-73h-74zM432 0v73h74v-73h-74z" />
    <glyph glyph-name="exclam" unicode="!" horiz-adv-x="158" 
d="M65 195l-6 470h40l-6 -470h-28zM42 0v73h74v-73h-74z" />
    <glyph glyph-name="exclamdown" unicode="&#xa1;" horiz-adv-x="158" 
d="M42 500h74v-73h-74v73zM65 305h28l6 -470h-40z" />
    <glyph glyph-name="question" unicode="?" horiz-adv-x="583" 
d="M248 267v38h45c156 0 200 89 200 175c0 90 -63 167 -175 167c-156 0 -205 -89 -213 -204h-40c6 143 83 240 251 240c150 0 222 -101 222 -202c0 -109 -67 -214 -248 -214h-42zM265 0v73h74v-73h-74z" />
    <glyph glyph-name="questiondown" unicode="&#xbf;" horiz-adv-x="583" 
d="M318 500v-73h-74v73h74zM335 233v-38h-45c-156 0 -200 -89 -200 -175c0 -90 63 -167 175 -167c156 0 205 89 213 204h40c-6 -143 -83 -240 -251 -240c-150 0 -222 101 -222 202c0 109 67 214 248 214h42z" />
    <glyph glyph-name="periodcentered" unicode="&#xb7;" horiz-adv-x="138" 
d="M32 210v73h74v-73h-74z" />
    <glyph glyph-name="bullet" unicode="&#x2022;" horiz-adv-x="332" 
d="M166 183c-40 0 -66 27 -66 67s26 66 66 66s66 -26 66 -66s-26 -67 -66 -67z" />
    <glyph glyph-name="asterisk" unicode="*" horiz-adv-x="345" 
d="M28 568l23 40l120 -91l-21 148h45l-21 -148l120 91l22 -40l-138 -56l139 -57l-23 -40l-120 91l21 -148h-45l21 148l-120 -91l-22 40l138 57z" />
    <glyph glyph-name="numbersign" unicode="#" horiz-adv-x="850" 
d="M800 466h-192l-72 -231h209v-34h-219l-63 -201h-35l63 201h-243l-63 -201h-35l63 201h-163v34h173l72 231h-190v34h201l51 165h35l-51 -165h243l51 165h35l-51 -165h181v-34zM501 235l72 231h-243l-72 -231h243z" />
    <glyph glyph-name="slash" unicode="/" horiz-adv-x="267" 
d="M15 0l207 665h35l-207 -665h-35z" />
    <glyph glyph-name="backslash" unicode="\" horiz-adv-x="267" 
d="M252 0h-35l-207 665h35z" />
    <glyph glyph-name="asterisk.case" horiz-adv-x="755" 
d="M625 351h85v-36h-85l-225 9l165 -153l60 -60l-25 -26l-60 60l-154 168l9 -228v-85h-36v85l9 228l-153 -168l-60 -60l-26 25l60 60l168 154l-227 -9h-85v35l85 1l227 -9l-167 153l-60 60l24 25l61 -59l153 -165l-9 224v85h36v-85l-9 -227l153 167l60 60l26 -25l-60 -60
l-168 -153z" />
    <glyph glyph-name="parenleft" unicode="(" horiz-adv-x="291" 
d="M40 283c0 240 96 405 207 483l14 -20c-104 -88 -176 -235 -176 -463s72 -375 176 -463l-14 -20c-111 78 -207 243 -207 483z" />
    <glyph glyph-name="parenright" unicode=")" horiz-adv-x="291" 
d="M251 283c0 -240 -96 -405 -207 -483l-14 20c104 88 176 235 176 463s-72 375 -176 463l14 20c111 -78 207 -243 207 -483z" />
    <glyph glyph-name="braceleft" unicode="{" horiz-adv-x="349" 
d="M40 266v34h29c57 0 78 28 78 90v213c0 106 54 170 167 170v-21c-85 -3 -127 -48 -127 -158v-224c0 -45 -22 -70 -64 -84v-6c42 -14 64 -39 64 -84v-224c0 -110 42 -155 127 -158v-21c-113 0 -167 64 -167 170v213c0 62 -21 90 -78 90h-29z" />
    <glyph glyph-name="braceright" unicode="}" horiz-adv-x="349" 
d="M309 266h-29c-57 0 -78 -28 -78 -90v-213c0 -106 -54 -170 -167 -170v21c85 3 127 48 127 158v224c0 45 22 70 64 84v6c-42 14 -64 39 -64 84v224c0 110 -42 155 -127 158v21c113 0 167 -64 167 -170v-213c0 -62 21 -90 78 -90h29v-34z" />
    <glyph glyph-name="bracketleft" unicode="[" horiz-adv-x="414" 
d="M369 707h-257v-869h257v-38h-299v945h299v-38z" />
    <glyph glyph-name="bracketright" unicode="]" horiz-adv-x="414" 
d="M344 745v-945h-299v38h257v869h-257v38h299z" />
    <glyph glyph-name="hyphen" unicode="-" horiz-adv-x="480" 
d="M40 265h400v-34h-400v34z" />
    <glyph glyph-name="endash" unicode="&#x2013;" horiz-adv-x="580" 
d="M40 265h500v-34h-500v34z" />
    <glyph glyph-name="emdash" unicode="&#x2014;" horiz-adv-x="780" 
d="M40 265h700v-34h-700v34z" />
    <glyph glyph-name="underscore" unicode="_" horiz-adv-x="480" 
d="M40 0h400v-34h-400v34z" />
    <glyph glyph-name="quotesinglbase" unicode="&#x201a;" horiz-adv-x="138" 
d="M32 12v61h74v-115c0 -55 -13 -70 -69 -70h-5v40h39v84h-39z" />
    <glyph glyph-name="quotedblbase" unicode="&#x201e;" horiz-adv-x="138" 
d="M32 12v61h74v-115c0 -55 -13 -70 -69 -70h-5v40h39v84h-39z" />
    <glyph glyph-name="quotedblleft" unicode="&#x201c;" horiz-adv-x="257" 
d="M106 541v-61h-74v115c0 55 13 70 69 70h5v-40h-39v-84h39zM225 541v-61h-74v115c0 55 13 70 69 70h5v-40h-39v-84h39z" />
    <glyph glyph-name="quotedblright" unicode="&#x201d;" horiz-adv-x="257" 
d="M32 604v61h74v-115c0 -55 -13 -70 -69 -70h-5v40h39v84h-39zM151 604v61h74v-115c0 -55 -13 -70 -69 -70h-5v40h39v84h-39z" />
    <glyph glyph-name="quoteleft" unicode="&#x2018;" horiz-adv-x="138" 
d="M106 541v-61h-74v115c0 55 13 70 69 70h5v-40h-39v-84h39z" />
    <glyph glyph-name="quoteright" unicode="&#x2019;" horiz-adv-x="138" 
d="M32 604v61h74v-115c0 -55 -13 -70 -69 -70h-5v40h39v84h-39z" />
    <glyph glyph-name="guillemotleft" unicode="&#xab;" horiz-adv-x="572" 
d="M60 248v4l213 248h48l-218 -250l218 -250h-48zM256 248v4l213 248h48l-218 -250l218 -250h-48z" />
    <glyph glyph-name="guillemotright" unicode="&#xbb;" horiz-adv-x="572" 
d="M316 248l-213 -248h-48l218 250l-218 250h48l213 -248v-4zM512 248l-213 -248h-48l218 250l-218 250h48l213 -248v-4z" />
    <glyph glyph-name="guilsinglleft" unicode="&#x2039;" horiz-adv-x="376" 
d="M60 248v4l213 248h48l-218 -250l218 -250h-48z" />
    <glyph glyph-name="guilsinglright" unicode="&#x203a;" horiz-adv-x="376" 
d="M316 248l-213 -248h-48l218 250l-218 250h48l213 -248v-4z" />
    <glyph glyph-name="quotedbl" unicode="&#x22;" horiz-adv-x="241" 
d="M32 665h59l-10 -185h-39zM150 665h59l-10 -185h-39z" />
    <glyph glyph-name="quotesingle" unicode="'" horiz-adv-x="123" 
d="M32 665h59l-10 -185h-39z" />
    <glyph glyph-name="cent" unicode="&#xa2;" horiz-adv-x="493" 
d="M414 399c-4 -86 -58 -142 -142 -151v-71h-40v71c-97 6 -153 77 -153 191c0 111 57 182 153 190v71h40v-71c80 -7 128 -57 137 -143h-35c-12 73 -53 109 -122 109c-86 0 -133 -54 -133 -156c0 -103 45 -157 129 -157c79 0 123 41 130 117h36z" />
    <glyph glyph-name="dollar" unicode="$" horiz-adv-x="516" 
d="M462 208c0 -95 -63 -139 -188 -141v-102h-40v103c-129 9 -182 78 -188 183h37c8 -82 40 -149 181 -149c109 0 158 29 158 102c0 69 -37 99 -121 110l-100 13c-88 11 -139 50 -139 131s64 136 172 142v100h40v-101c117 -7 170 -73 176 -161h-37c-5 64 -42 127 -162 127
c-102 0 -149 -41 -149 -107c0 -45 22 -86 103 -96l103 -13c96 -12 154 -48 154 -141z" />
    <glyph glyph-name="Euro" unicode="&#x20ac;" horiz-adv-x="877" 
d="M582 399v-34h-502v34h88c20 173 126 284 319 284c191 0 289 -103 308 -269h-43c-16 163 -109 233 -265 233c-163 0 -256 -81 -274 -248h369zM754 278h43c-10 -171 -109 -295 -310 -295c-190 0 -295 108 -318 277h-89v34h502v-34h-369c20 -162 114 -241 274 -241
c165 0 259 90 267 259z" />
    <glyph glyph-name="florin" unicode="&#x192;" horiz-adv-x="386" 
d="M306 664h-93v-306h67v-34h-67v-468c0 -39 -15 -56 -60 -56h-73v36h93v488h-67v34h67v286c0 39 15 56 60 56h73v-36z" />
    <glyph glyph-name="sterling" unicode="&#xa3;" horiz-adv-x="553" 
d="M221 34h252v-34h-393v34h101v252h-66v34h66v88h-66v34h66v202c0 39 15 56 60 56h224v-36h-244v-222h188v-34h-188v-88h188v-34h-188v-252z" />
    <glyph glyph-name="yen" unicode="&#xa5;" horiz-adv-x="599" 
d="M564 665l-228 -379h164v-34h-180v-71h180v-34h-180v-147h-42v147h-178v34h178v71h-178v34h162l-227 379h50l183 -312c12 -21 22 -42 32 -63c10 21 21 42 33 63l183 312h48z" />
    <glyph glyph-name="plus" unicode="+" horiz-adv-x="480" 
d="M440 265v-34h-182v-181h-36v181h-182v34h182v185h36v-185h182z" />
    <glyph glyph-name="minus" unicode="&#x2212;" horiz-adv-x="570" 
d="M85 265h400v-34h-400v34z" />
    <glyph glyph-name="multiply" unicode="&#xd7;" horiz-adv-x="489" 
d="M449 442l-181 -181l179 -179l-24 -24l-179 179l-178 -178l-25 25l178 178l-179 179l24 24l179 -179l181 181z" />
    <glyph glyph-name="divide" unicode="&#xf7;" horiz-adv-x="488" 
d="M244 386c-26 0 -42 19 -42 42c0 21 16 40 42 40s42 -19 42 -40c0 -23 -16 -42 -42 -42zM30 265h428v-34h-428v34zM244 34c-26 0 -42 19 -42 41s16 41 42 41s42 -19 42 -41s-16 -41 -42 -41z" />
    <glyph glyph-name="equal" unicode="=" horiz-adv-x="350" 
d="M25 345h300v-34h-300v34zM25 185h300v-34h-300v34z" />
    <glyph glyph-name="notequal" unicode="&#x2260;" horiz-adv-x="470" 
d="M385 311h-109l-46 -126h155v-34h-167l-37 -103h-35l37 103h-98v34h110l46 126h-156v34h168l36 99h35l-36 -99h97v-34z" />
    <glyph glyph-name="greater" unicode="&#x3e;" horiz-adv-x="368" 
d="M30 412l308 -130v-57l-308 -130v40l281 119l-281 118v40z" />
    <glyph glyph-name="less" unicode="&#x3c;" horiz-adv-x="408" 
d="M338 412v-40l-281 -118l281 -119v-40l-308 130v57z" />
    <glyph glyph-name="greaterequal" unicode="&#x2265;" horiz-adv-x="428" 
d="M30 432l368 -90v-48l-368 -90v33l331 81l-331 81v33zM30 91v34h368v-34h-368z" />
    <glyph glyph-name="lessequal" unicode="&#x2264;" horiz-adv-x="428" 
d="M398 432v-33l-331 -81l331 -81v-33l-368 90v48zM30 91v34h368v-34h-368z" />
    <glyph glyph-name="plusminus" unicode="&#xb1;" horiz-adv-x="450" 
d="M243 330h172v-34h-172v-121h-36v121h-172v34h172v120h36v-120zM35 91v34h380v-34h-380z" />
    <glyph glyph-name="approxequal" unicode="&#x2248;" horiz-adv-x="466" 
d="M305 263c-82 0 -93 110 -145 110c-27 0 -43 -22 -43 -69v-39h-32v39c0 80 43 97 74 97c88 0 95 -110 151 -110c25 0 39 22 39 69v39h32v-39c0 -80 -45 -97 -76 -97zM305 57c-82 0 -93 110 -145 110c-27 0 -43 -22 -43 -69v-39h-32v39c0 80 43 97 74 97
c88 0 95 -110 151 -110c25 0 39 22 39 69v39h32v-39c0 -80 -45 -97 -76 -97z" />
    <glyph glyph-name="asciitilde" unicode="~" horiz-adv-x="466" 
d="M305 179c-82 0 -93 110 -145 110c-27 0 -43 -22 -43 -69v-39h-32v39c0 80 43 97 74 97c88 0 95 -110 151 -110c25 0 39 22 39 69v39h32v-39c0 -80 -45 -97 -76 -97z" />
    <glyph glyph-name="logicalnot" unicode="&#xac;" horiz-adv-x="570" 
d="M485 265v-138h-36v104h-364v34h400z" />
    <glyph glyph-name="asciicircum" unicode="^" horiz-adv-x="467" 
d="M382 387h-40l-108 251l-109 -251h-40l120 278h57z" />
    <glyph glyph-name="infinity" unicode="&#x221e;" horiz-adv-x="742" 
d="M220 147c-88 0 -140 64 -140 139c0 72 52 136 140 136c89 0 141 -64 141 -136c0 -75 -52 -139 -141 -139zM521 147c-88 0 -140 64 -140 139c0 72 52 136 140 136c89 0 141 -64 141 -136c0 -75 -52 -139 -141 -139zM115 286c0 -67 48 -109 105 -109c58 0 106 42 106 109
c0 68 -48 106 -106 106c-57 0 -105 -38 -105 -106zM416 286c0 -67 48 -109 105 -109c58 0 106 42 106 109c0 68 -48 106 -106 106c-57 0 -105 -38 -105 -106z" />
    <glyph glyph-name="integral" unicode="&#x222b;" horiz-adv-x="472" 
d="M80 -200v36h94l82 853c4 39 15 56 60 56h76v-36h-94l-82 -853c-4 -39 -15 -56 -60 -56h-76z" />
    <glyph glyph-name="product" unicode="&#x220f;" horiz-adv-x="657" 
d="M577 745v-36h-110v-909h-42v909h-193v-909h-42v909h-110v36h497z" />
    <glyph glyph-name="summation" unicode="&#x2211;" horiz-adv-x="626" 
d="M546 745v-36h-421l249 -436l-249 -437h421v-36h-466v36l249 437l-249 436v36h466z" />
    <glyph glyph-name="radical" unicode="&#x221a;" horiz-adv-x="898" 
d="M838 745v-36h-228l-290 -909h-55l-185 477h45l166 -428l286 896h261z" />
    <glyph glyph-name="uni00B5" unicode="&#xb5;" horiz-adv-x="569" 
d="M449 500h40v-500h-40v170c-32 -138 -106 -186 -204 -186c-61 0 -107 19 -137 63v-247h-38v700h40v-323c0 -125 47 -160 142 -160c134 0 197 133 197 332v151z" />
    <glyph glyph-name="partialdiff" unicode="&#x2202;" horiz-adv-x="567" 
d="M55 251c0 167 72 266 220 266c95 0 163 -46 197 -129c0 116 -77 247 -258 315l13 26c190 -70 285 -190 285 -417c0 -248 -93 -327 -228 -327c-148 0 -229 101 -229 266zM97 251c0 -156 66 -231 184 -231c108 0 191 64 191 230s-83 232 -191 232
c-118 0 -184 -75 -184 -231z" />
    <glyph glyph-name="percent" unicode="%" horiz-adv-x="784" 
d="M50 0v12l645 618h-356v-217h-257v252h619c19 0 33 -7 33 -28c0 -9 -2 -22 -16 -35l-632 -602h-36zM122 448h178v182h-178v-182zM459 0v252h257v-252h-257zM499 35h178v183h-178v-183z" />
    <glyph glyph-name="perthousand" unicode="&#x2030;" horiz-adv-x="1107" 
d="M50 0v12l645 618h-356v-217h-257v252h619c19 0 33 -7 33 -28c0 -9 -2 -22 -16 -35l-632 -602h-36zM122 448h178v182h-178v-182zM459 0v252h257v-252h-257zM800 0v252h257v-252h-257zM499 35h178v183h-178v-183zM840 35h178v183h-178v-183z" />
    <glyph glyph-name="percent.alt" horiz-adv-x="775" 
d="M191 402c-97 0 -141 63 -141 141c0 76 44 140 141 140s141 -64 141 -140c0 -78 -44 -141 -141 -141zM90 0v12l535 653h40v-12l-532 -653h-43zM191 438c61 0 96 30 96 105c0 76 -35 105 -96 105c-60 0 -96 -29 -96 -105c0 -75 36 -105 96 -105zM584 -6
c-97 0 -141 63 -141 141c0 76 44 140 141 140s141 -64 141 -140c0 -78 -44 -141 -141 -141zM584 30c61 0 96 30 96 105c0 76 -35 105 -96 105c-60 0 -96 -29 -96 -105c0 -75 36 -105 96 -105z" />
    <glyph glyph-name="arrowup" unicode="&#x2191;" horiz-adv-x="723" 
d="M673 379l-29 -28l-261 264v-615h-43v614l-261 -263l-29 28l312 311z" />
    <glyph glyph-name="uni2197" unicode="&#x2197;" horiz-adv-x="603" 
d="M113 500h440v-440h-40l2 372l-435 -435l-30 30l435 435l-372 -2v40z" />
    <glyph glyph-name="arrowright" unicode="&#x2192;" horiz-adv-x="790" 
d="M429 609l311 -311l-311 -311l-31 31l264 259l-612 -1v42l613 1l-265 259z" />
    <glyph glyph-name="uni2198" unicode="&#x2198;" horiz-adv-x="603" 
d="M513 440h40v-440h-440v40l372 -2l-435 435l30 30l435 -435z" />
    <glyph glyph-name="arrowdown" unicode="&#x2193;" horiz-adv-x="723" 
d="M644 314l29 -28l-311 -311l-312 311l29 28l261 -263v614h43v-615z" />
    <glyph glyph-name="uni2199" unicode="&#x2199;" horiz-adv-x="603" 
d="M553 473l-435 -435l372 2v-40h-440v440h40l-2 -372l435 435z" />
    <glyph glyph-name="arrowleft" unicode="&#x2190;" horiz-adv-x="790" 
d="M740 318v-42l-612 1l264 -259l-31 -31l-311 311l311 311l31 -31l-265 -259z" />
    <glyph glyph-name="uni2196" unicode="&#x2196;" horiz-adv-x="603" 
d="M553 27l-30 -30l-435 435l2 -372h-40v440h440v-40l-372 2z" />
    <glyph glyph-name="uni2197.case" horiz-adv-x="603" 
d="M113 665h440v-440h-40l2 372l-435 -435l-30 30l435 435l-372 -2v40z" />
    <glyph glyph-name="uni2196.case" horiz-adv-x="603" 
d="M553 192l-30 -30l-435 435l2 -372h-40v440h440v-40l-372 2z" />
    <glyph glyph-name="uni25CF" unicode="&#x25cf;" horiz-adv-x="801" 
d="M402 -18c-196 0 -352 156 -352 352c0 193 156 349 352 349c193 0 349 -156 349 -349c0 -196 -156 -352 -349 -352z" />
    <glyph glyph-name="lozenge" unicode="&#x25ca;" horiz-adv-x="585" 
d="M323 665l182 -332l-182 -333h-61l-182 333l182 332h61zM293 27l167 306l-167 306l-168 -306z" />
    <glyph glyph-name="filledbox" unicode="&#x25a0;" horiz-adv-x="766" 
d="M50 665h666v-665h-666v665z" />
    <glyph glyph-name="triagup" unicode="&#x25b2;" horiz-adv-x="844" 
d="M422 665l372 -665h-744z" />
    <glyph glyph-name="at" unicode="@" horiz-adv-x="958" 
d="M511 -162c-318 0 -461 193 -461 417c0 239 155 428 437 428c276 0 421 -149 421 -367c0 -164 -65 -268 -202 -268h-89l-2 91c-24 -58 -76 -91 -157 -91c-119 0 -178 83 -178 219c0 135 59 218 178 218c81 0 133 -43 157 -91v77h40v-388h52c119 0 159 101 159 233
c0 188 -124 332 -379 332c-261 0 -395 -174 -395 -393c0 -203 134 -382 418 -382h172v-35h-171zM465 83c92 0 150 61 150 184c0 124 -58 183 -150 183s-143 -59 -143 -183c0 -123 51 -184 143 -184z" />
    <glyph glyph-name="ampersand" unicode="&#x26;" horiz-adv-x="785" 
d="M740 306h-126c-4 -76 -20 -141 -51 -193l116 -102l-27 -29l-111 98c-49 -61 -125 -96 -229 -96c-141 0 -232 75 -232 182c0 95 63 145 152 182l6 2c-51 52 -85 103 -85 169c0 88 55 160 187 160c125 0 176 -67 176 -147c0 -89 -73 -134 -164 -173l-46 -20l32 -28
l195 -172c26 46 39 100 42 155c2 36 21 50 49 50h116v-38zM198 519c0 -66 31 -109 78 -153l64 27c74 31 131 63 131 136c0 72 -38 114 -131 114c-98 0 -142 -46 -142 -124zM320 20c88 0 150 34 191 86l-207 183c-13 11 -25 23 -37 34l-9 -4c-85 -36 -133 -74 -133 -153
c0 -87 66 -146 195 -146z" />
    <glyph glyph-name="paragraph" unicode="&#xb6;" horiz-adv-x="580" 
d="M385 665v-865h-42v504h-82c-144 0 -201 78 -201 181c0 108 57 180 191 180h134zM458 665h42v-865h-42v865z" />
    <glyph glyph-name="section" unicode="&#xa7;" horiz-adv-x="540" 
d="M76 -29h37c-1 -104 53 -154 168 -154c98 0 144 32 144 98c0 60 -23 84 -96 98l-106 19c-86 15 -128 54 -128 122c0 83 64 123 169 133c102 10 155 34 155 98c0 60 -24 85 -96 98l-107 19c-85 15 -127 55 -127 122c0 81 71 134 179 134c111 0 178 -60 182 -165h-38
c-4 90 -51 132 -144 132c-90 0 -139 -36 -139 -101c0 -47 30 -77 93 -87l112 -19c87 -13 124 -51 124 -128c0 -90 -64 -123 -184 -136c-95 -10 -139 -32 -139 -100c0 -46 31 -77 93 -87l112 -18c88 -15 124 -52 124 -128c0 -95 -57 -137 -183 -137c-136 0 -207 64 -205 187z
" />
    <glyph glyph-name="copyright" unicode="&#xa9;" horiz-adv-x="861" 
d="M431 -18c-194 0 -351 156 -351 351c0 192 157 350 351 350c193 0 350 -158 350 -350c0 -195 -157 -351 -350 -351zM431 20c171 0 312 140 312 313c0 171 -141 312 -312 312c-172 0 -313 -141 -313 -312c0 -173 141 -313 313 -313zM230 333c0 141 78 229 206 229
c110 0 177 -59 189 -169h-38c-14 88 -66 133 -150 133c-108 0 -165 -66 -165 -193c0 -126 56 -194 160 -194c95 0 152 50 161 142h38c-7 -110 -82 -178 -199 -178c-128 0 -202 86 -202 230z" />
    <glyph glyph-name="registered" unicode="&#xae;" horiz-adv-x="564" 
d="M282 682c123 0 222 -99 222 -221c0 -124 -99 -223 -222 -223s-222 99 -222 223c0 122 99 221 222 221zM283 271c103 0 189 86 189 190s-86 189 -189 189c-104 0 -190 -86 -190 -189c0 -104 85 -190 190 -190zM371 510c0 -26 -13 -44 -35 -51c21 -6 28 -19 28 -49v-26
c0 -14 1 -20 5 -39h-29c-3 14 -4 25 -4 39v25c0 25 -12 36 -40 36h-62v-100h-29v225h99c44 0 67 -21 67 -60zM298 472c28 0 43 11 43 36c0 26 -11 35 -39 35h-68v-71h64z" />
    <glyph glyph-name="trademark" unicode="&#x2122;" horiz-adv-x="1316" 
d="M1241 665v-665h-42v636l-266 -636h-64l-266 636v-636h-42v629h-233v-631h-42v631h-256v36h608l264 -632l264 632h75z" />
    <glyph glyph-name="degree" unicode="&#xb0;" horiz-adv-x="371" 
d="M185 441c-88 0 -140 64 -140 139c0 72 52 136 140 136c89 0 141 -64 141 -136c0 -75 -52 -139 -141 -139zM80 580c0 -67 48 -109 105 -109c58 0 106 42 106 109c0 68 -48 106 -106 106c-57 0 -105 -38 -105 -106z" />
    <glyph glyph-name="bar" unicode="|" horiz-adv-x="182" 
d="M70 -200v945h42v-945h-42z" />
    <glyph glyph-name="brokenbar" unicode="&#xa6;" horiz-adv-x="182" 
d="M70 341v404h42v-404h-42zM70 -200v404h42v-404h-42z" />
    <glyph glyph-name="dagger" unicode="&#x2020;" horiz-adv-x="522" 
d="M437 581v-36h-155v-335h-42v335h-155v36h155v164h42v-164h155z" />
    <glyph glyph-name="daggerdbl" unicode="&#x2021;" horiz-adv-x="522" 
d="M437 555h-155v-155h155v-36h-155v-154h-42v154h-155v36h155v155h-155v36h155v154h42v-154h155v-36z" />
    <glyph glyph-name="uni0308" unicode="&#x308;" 
d="M-245 597v68h58v-68h-58zM-108 597v68h58v-68h-58z" />
    <glyph glyph-name="uni0307" unicode="&#x307;" 
d="M-121 597v68h58v-68h-58z" />
    <glyph glyph-name="gravecomb" unicode="&#x300;" 
d="M-256 648l16 39l210 -93l-9 -24z" />
    <glyph glyph-name="acutecomb" unicode="&#x301;" 
d="M-30 648l-217 -78l-9 24l210 93z" />
    <glyph glyph-name="uni030B" unicode="&#x30b;" 
d="M-249 673l-149 -113l-16 19l137 125zM-85 673l-149 -113l-16 19l137 125z" />
    <glyph glyph-name="uni0302" unicode="&#x302;" 
d="M-290 571l117 94h26l117 -94l-24 -20l-106 78l-106 -78z" />
    <glyph glyph-name="uni030C" unicode="&#x30c;" 
d="M-345 655l24 20l106 -78l106 78l24 -20l-117 -94h-26z" />
    <glyph glyph-name="uni0306" unicode="&#x306;" 
d="M-273 665h25c5 -36 28 -62 69 -62s64 26 69 62h25c-1 -45 -26 -95 -94 -95s-93 50 -94 95z" />
    <glyph glyph-name="uni030A" unicode="&#x30a;" 
d="M-153 558c-43 0 -68 31 -68 67c0 35 25 66 68 66s68 -31 68 -66c0 -36 -25 -67 -68 -67zM-192 625c0 -25 18 -41 39 -41s39 16 39 41s-18 40 -39 40s-39 -15 -39 -40z" />
    <glyph glyph-name="tildecomb" unicode="&#x303;" 
d="M-193 589c-51 0 -89 50 -121 50c-20 0 -27 -7 -27 -29v-19h-32v19c0 40 25 57 56 57c57 0 87 -50 121 -50c20 0 27 7 27 29v19h32v-19c0 -40 -25 -57 -56 -57z" />
    <glyph glyph-name="uni0304" unicode="&#x304;" 
d="M-415 665h330v-34h-330v34z" />
    <glyph glyph-name="uni0312" unicode="&#x312;" 
d="M-85 637v-61h-74v115c0 55 13 70 69 70h5v-40h-39v-84h39z" />
    <glyph glyph-name="uni0326" unicode="&#x326;" 
d="M-159 -119v61h74v-115c0 -55 -13 -70 -69 -70h-5v40h39v84h-39z" />
    <glyph glyph-name="uni0327" unicode="&#x327;" 
d="M-150 -156v34h86l-33 122h37l27 -96c12 -44 -9 -60 -46 -60h-71z" />
    <glyph glyph-name="uni0328" unicode="&#x328;" 
d="M-135 -156c-61 0 -101 31 -101 92c0 49 26 80 55 100l17 -16c-20 -17 -39 -41 -39 -78c0 -43 30 -64 75 -64c10 0 25 1 43 7v-34c-16 -5 -32 -7 -50 -7z" />
    <glyph glyph-name="acute" unicode="&#xb4;" horiz-adv-x="600" 
d="M256 648l-217 -78l-9 24l210 93z" />
    <glyph glyph-name="breve" unicode="&#x2d8;" horiz-adv-x="600" 
d="M85 665h25c5 -36 28 -62 69 -62s64 26 69 62h25c-1 -45 -26 -95 -94 -95s-93 50 -94 95z" />
    <glyph glyph-name="caron" unicode="&#x2c7;" horiz-adv-x="600" 
d="M85 655l24 20l106 -78l106 78l24 -20l-117 -94h-26z" />
    <glyph glyph-name="cedilla" unicode="&#xb8;" horiz-adv-x="600" 
d="M10 -156v34h86l-33 122h37l27 -96c12 -44 -9 -60 -46 -60h-71z" />
    <glyph glyph-name="circumflex" unicode="&#x2c6;" horiz-adv-x="600" 
d="M30 571l117 94h26l117 -94l-24 -20l-106 78l-106 -78z" />
    <glyph glyph-name="dieresis" unicode="&#xa8;" horiz-adv-x="600" 
d="M50 597v68h58v-68h-58zM187 597v68h58v-68h-58z" />
    <glyph glyph-name="dotaccent" unicode="&#x2d9;" horiz-adv-x="600" 
d="M63 597v68h58v-68h-58z" />
    <glyph glyph-name="grave" unicode="`" horiz-adv-x="600" 
d="M30 648l16 39l210 -93l-9 -24z" />
    <glyph glyph-name="hungarumlaut" unicode="&#x2dd;" horiz-adv-x="600" 
d="M250 673l-149 -113l-16 19l137 125zM414 673l-149 -113l-16 19l137 125z" />
    <glyph glyph-name="macron" unicode="&#xaf;" horiz-adv-x="600" 
d="M85 665h330v-34h-330v34z" />
    <glyph glyph-name="ogonek" unicode="&#x2db;" horiz-adv-x="600" 
d="M226 -156c-61 0 -101 31 -101 92c0 49 26 80 55 100l17 -16c-20 -17 -39 -41 -39 -78c0 -43 30 -64 75 -64c10 0 25 1 43 7v-34c-16 -5 -32 -7 -50 -7z" />
    <glyph glyph-name="ring" unicode="&#x2da;" horiz-adv-x="306" 
d="M153 558c-43 0 -68 31 -68 67c0 35 25 66 68 66s68 -31 68 -66c0 -36 -25 -67 -68 -67zM114 625c0 -25 18 -41 39 -41s39 16 39 41s-18 40 -39 40s-39 -15 -39 -40z" />
    <glyph glyph-name="tilde" unicode="&#x2dc;" horiz-adv-x="600" 
d="M305 589c-51 0 -89 50 -121 50c-20 0 -27 -7 -27 -29v-19h-32v19c0 40 25 57 56 57c57 0 87 -50 121 -50c20 0 27 7 27 29v19h32v-19c0 -40 -25 -57 -56 -57z" />
    <glyph glyph-name="uni0308.case" 
d="M-245 745v68h58v-68h-58zM-108 745v68h58v-68h-58z" />
    <glyph glyph-name="uni0307.case" 
d="M-121 745v68h58v-68h-58z" />
    <glyph glyph-name="gravecomb.case" 
d="M-256 805l16 39l210 -93l-9 -24z" />
    <glyph glyph-name="acutecomb.case" 
d="M-30 805l-217 -78l-9 24l210 93z" />
    <glyph glyph-name="uni030B.case" 
d="M-249 833l-149 -113l-16 19l137 125zM-85 833l-149 -113l-16 19l137 125z" />
    <glyph glyph-name="uni0302.case" 
d="M-290 750l117 94h26l117 -94l-24 -20l-106 78l-106 -78z" />
    <glyph glyph-name="uni030C.case" 
d="M-345 826l24 20l106 -78l106 78l24 -20l-117 -94h-26z" />
    <glyph glyph-name="uni0306.case" 
d="M-273 835h25c5 -36 28 -62 69 -62s64 26 69 62h25c-1 -45 -26 -95 -94 -95s-93 50 -94 95z" />
    <glyph glyph-name="uni030A.case" 
d="M-153 719c-43 0 -68 31 -68 67c0 35 25 66 68 66s68 -31 68 -66c0 -36 -25 -67 -68 -67zM-192 786c0 -25 18 -41 39 -41s39 16 39 41s-18 40 -39 40s-39 -15 -39 -40z" />
    <glyph glyph-name="tildecomb.case" 
d="M-193 753c-51 0 -89 50 -121 50c-20 0 -27 -7 -27 -29v-19h-32v19c0 40 25 57 56 57c57 0 87 -50 121 -50c20 0 27 7 27 29v19h32v-19c0 -40 -25 -57 -56 -57z" />
    <glyph glyph-name="uni0304.case" 
d="M-415 807h330v-34h-330v34z" />
    <glyph glyph-name="uni0312.case" 
d="M-85 757v-61h-74v115c0 55 13 70 69 70h5v-40h-39v-84h39z" />
    </font>
</defs>
</svg>
